0
SECTION
2
HEADER
9
$ACADVER
1
AC1015
9
$HANDSEED
5
151
9
$INSUNITS
70
1
9
$MEASUREMENT
70
0
9
$LTSCALE
40
1
9
$EXTMIN
10
-76.857143
20
49.1
30
0
9
$EXTMAX
10
73.161905
20
104.81235
30
0
0
ENDSEC
0
SECTION
2
CLASSES
0
ENDSEC
0
SECTION
2
TABLES
0
TABLE
2
VPORT
5
8
330
0
100
AcDbSymbolTable
70
1
0
VPORT
5
30
330
8
100
AcDbSymbolTableRecord
100
AcDbViewportTableRecord
2
*ACTIVE
70
0
10
0
20
0
11
1
21
1
12
-1.847619
22
76.956175
13
0
23
0
14
10
24
10
15
10
25
10
16
0
26
0
36
1
17
0
27
0
37
0
40
61.283585
41
2.692743
42
50
43
0
44
0
50
0
51
0
71
0
72
100
73
1
74
3
75
0
76
0
77
0
78
0
0
ENDTAB
0
TABLE
2
LTYPE
5
5
330
0
100
AcDbSymbolTable
70
4
0
LTYPE
5
14
330
5
100
AcDbSymbolTableRecord
100
AcDbLinetypeTableRecord
2
BYBLOCK
70
0
3

72
65
73
0
40
0
0
LTYPE
5
15
330
5
100
AcDbSymbolTableRecord
100
AcDbLinetypeTableRecord
2
BYLAYER
70
0
3

72
65
73
0
40
0
0
LTYPE
5
16
330
5
100
AcDbSymbolTableRecord
100
AcDbLinetypeTableRecord
2
CONTINUOUS
70
0
3
Solid line
72
65
73
0
40
0
0
LTYPE
5
40
330
5
100
AcDbSymbolTableRecord
100
AcDbLinetypeTableRecord
2
DASHED
70
0
3
DASHED
72
65
73
2
40
1.889764
49
1.259843
74
0
49
-0.629921
74
0
0
ENDTAB
0
TABLE
2
LAYER
5
2
330
0
100
AcDbSymbolTable
70
9
0
LAYER
5
10
330
2
100
AcDbSymbolTableRecord
100
AcDbLayerTableRecord
2
0
70
0
62
7
6
CONTINUOUS
370
-3
0
LAYER
5
50
330
2
100
AcDbSymbolTableRecord
100
AcDbLayerTableRecord
2
S-DETL-PATT
70
0
62
7
6
CONTINUOUS
370
9
0
LAYER
5
51
330
2
100
AcDbSymbolTableRecord
100
AcDbLayerTableRecord
2
S-DETL-BYND
70
0
62
7
6
CONTINUOUS
370
25
0
LAYER
5
52
330
2
100
AcDbSymbolTableRecord
100
AcDbLayerTableRecord
2
S-DETL-CUT
70
0
62
7
6
CONTINUOUS
370
50
0
LAYER
5
53
330
2
100
AcDbSymbolTableRecord
100
AcDbLayerTableRecord
2
S-DETL-STL
70
0
62
7
6
CONTINUOUS
370
35
0
LAYER
5
54
330
2
100
AcDbSymbolTableRecord
100
AcDbLayerTableRecord
2
S-DETL-BRKL
70
0
62
7
6
CONTINUOUS
370
25
0
LAYER
5
55
330
2
100
AcDbSymbolTableRecord
100
AcDbLayerTableRecord
2
S-ANNO-NOTE
70
0
62
7
6
CONTINUOUS
370
18
0
LAYER
5
56
330
2
100
AcDbSymbolTableRecord
100
AcDbLayerTableRecord
2
S-ANNO-DIMS
70
0
62
7
6
CONTINUOUS
370
13
0
LAYER
5
57
330
2
100
AcDbSymbolTableRecord
100
AcDbLayerTableRecord
2
S-ANNO-TTLB
70
0
62
7
6
CONTINUOUS
370
50
0
ENDTAB
0
TABLE
2
STYLE
5
3
330
0
100
AcDbSymbolTable
70
2
0
STYLE
5
11
330
3
100
AcDbSymbolTableRecord
100
AcDbTextStyleTableRecord
2
STANDARD
70
0
40
0
41
1
50
0
71
0
42
0.2
3
txt
4

0
STYLE
5
12
330
3
100
AcDbSymbolTableRecord
100
AcDbTextStyleTableRecord
2
KERF
70
0
40
0
41
1
50
0
71
0
42
0.2
3
romans.shx
4

0
ENDTAB
0
TABLE
2
VIEW
5
6
330
0
100
AcDbSymbolTable
70
0
0
ENDTAB
0
TABLE
2
UCS
5
7
330
0
100
AcDbSymbolTable
70
0
0
ENDTAB
0
TABLE
2
APPID
5
9
330
0
100
AcDbSymbolTable
70
1
0
APPID
5
13
330
9
100
AcDbSymbolTableRecord
100
AcDbRegAppTableRecord
2
ACAD
70
0
0
ENDTAB
0
TABLE
2
DIMSTYLE
5
A
330
0
100
AcDbSymbolTable
70
1
100
AcDbDimStyleTable
71
1
0
DIMSTYLE
105
17
330
A
100
AcDbSymbolTableRecord
100
AcDbDimStyleTableRecord
2
STANDARD
70
0
340
17
0
ENDTAB
0
TABLE
2
BLOCK_RECORD
5
1
330
0
100
AcDbSymbolTable
70
2
0
BLOCK_RECORD
5
1F
330
1
100
AcDbSymbolTableRecord
100
AcDbBlockTableRecord
2
*Model_Space
70
0
280
1
281
0
0
BLOCK_RECORD
5
1B
330
1
100
AcDbSymbolTableRecord
100
AcDbBlockTableRecord
2
*Paper_Space
70
0
280
1
281
0
0
ENDTAB
0
ENDSEC
0
SECTION
2
BLOCKS
0
BLOCK
5
20
330
1F
100
AcDbEntity
8
0
100
AcDbBlockBegin
2
*Model_Space
70
0
10
0
20
0
30
0
3
*Model_Space
1

0
ENDBLK
5
21
330
1F
100
AcDbEntity
8
0
100
AcDbBlockEnd
0
BLOCK
5
22
330
1B
100
AcDbEntity
67
1
8
0
100
AcDbBlockBegin
2
*Paper_Space
70
0
10
0
20
0
30
0
3
*Paper_Space
1

0
ENDBLK
5
23
330
1B
100
AcDbEntity
67
1
8
0
100
AcDbBlockEnd
0
ENDSEC
0
SECTION
2
ENTITIES
0
HATCH
5
100
330
1F
100
AcDbEntity
8
S-DETL-PATT
370
9
100
AcDbHatch
10
0
20
0
30
0
210
0
220
0
230
1
2
KERF-LAM
70
0
71
0
91
1
92
3
72
0
73
1
93
4
10
0
20
85.25
10
35
20
85.25
10
35
20
97.125
10
0
20
97.125
97
0
75
0
76
1
52
0
41
1
77
0
78
1
53
0
43
0
44
0
45
0
46
1
79
0
98
0
0
HATCH
5
101
330
1F
100
AcDbEntity
8
S-DETL-PATT
370
9
100
AcDbHatch
10
0
20
0
30
0
210
0
220
0
230
1
2
KERF-GRAIN
70
0
71
0
91
1
92
3
72
0
73
1
93
4
10
-34
20
95.625
10
0
20
95.625
10
0
20
97.125
10
-34
20
97.125
97
0
75
0
76
1
52
0
41
1
77
0
78
1
53
0
43
0
44
0
45
6.56
46
1.36
79
4
49
25.6
49
-6.4
49
12.8
49
-8
98
0
0
HATCH
5
102
330
1F
100
AcDbEntity
8
S-DETL-PATT
370
9
100
AcDbHatch
10
0
20
0
30
0
210
0
220
0
230
1
2
KERF-GRAIN
70
0
71
0
91
1
92
3
72
0
73
1
93
4
10
-32
20
74
10
-32
20
94.125
10
-33.5
20
94.125
10
-33.5
20
74
97
0
75
0
76
1
52
90
41
1
77
0
78
1
53
0
43
0
44
0
45
6.56
46
1.36
79
4
49
25.6
49
-6.4
49
12.8
49
-8
98
0
0
HATCH
5
103
330
1F
100
AcDbEntity
8
S-DETL-STL
370
50
100
AcDbHatch
10
0
20
0
30
0
210
0
220
0
230
1
2
SOLID
70
1
71
0
91
1
92
3
72
0
73
1
93
4
10
-30
20
97.1997
10
30
20
97.1997
10
30
20
97.125
10
-30
20
97.125
97
0
75
0
76
1
98
0
0
LWPOLYLINE
5
104
330
1F
100
AcDbEntity
8
S-DETL-BYND
370
25
100
AcDbPolyline
90
2
70
0
43
0
10
1.5
20
74
10
1.5
20
85.25
0
LWPOLYLINE
5
105
330
1F
100
AcDbEntity
8
S-DETL-STL
370
35
100
AcDbPolyline
90
4
70
0
43
0
10
-30
20
97.125
10
-30
20
97.1997
10
30
20
97.1997
10
30
20
97.125
0
LWPOLYLINE
5
106
330
1F
100
AcDbEntity
8
S-DETL-CUT
370
50
100
AcDbPolyline
90
4
70
0
43
0
10
35
20
97.125
10
0
20
97.125
10
0
20
85.25
10
35
20
85.25
0
LWPOLYLINE
5
107
330
1F
100
AcDbEntity
8
S-DETL-CUT
370
50
100
AcDbPolyline
90
2
70
0
43
0
10
0
20
85.25
10
0
20
74
0
LWPOLYLINE
5
108
330
1F
100
AcDbEntity
8
S-DETL-CUT
370
50
100
AcDbPolyline
90
2
70
0
43
0
10
3
20
74
10
3
20
85.25
0
LWPOLYLINE
5
109
330
1F
100
AcDbEntity
8
S-DETL-CUT
370
50
100
AcDbPolyline
90
2
70
0
43
0
10
-34
20
94.125
10
0
20
94.125
0
LWPOLYLINE
5
10A
330
1F
100
AcDbEntity
8
S-DETL-CUT
370
50
100
AcDbPolyline
90
2
70
0
43
0
10
0
20
95.625
10
-34
20
95.625
0
LWPOLYLINE
5
10B
330
1F
100
AcDbEntity
8
S-DETL-CUT
370
50
100
AcDbPolyline
90
2
70
0
43
0
10
0
20
97.125
10
-34
20
97.125
0
LWPOLYLINE
5
10C
330
1F
100
AcDbEntity
8
S-DETL-CUT
370
50
100
AcDbPolyline
90
2
70
0
43
0
10
-1.5
20
94.125
10
-1.5
20
74
0
LWPOLYLINE
5
10D
330
1F
100
AcDbEntity
8
S-DETL-CUT
370
50
100
AcDbPolyline
90
2
70
0
43
0
10
-16
20
74
10
-16
20
94.125
0
LWPOLYLINE
5
10E
330
1F
100
AcDbEntity
8
S-DETL-CUT
370
50
100
AcDbPolyline
90
2
70
0
43
0
10
-17.5
20
94.125
10
-17.5
20
74
0
LWPOLYLINE
5
10F
330
1F
100
AcDbEntity
8
S-DETL-CUT
370
50
100
AcDbPolyline
90
2
70
0
43
0
10
-32
20
74
10
-32
20
94.125
0
LWPOLYLINE
5
110
330
1F
100
AcDbEntity
8
S-DETL-CUT
370
50
100
AcDbPolyline
90
2
70
0
43
0
10
-33.5
20
94.125
10
-33.5
20
74
0
LWPOLYLINE
5
111
330
1F
100
AcDbEntity
8
S-DETL-BRKL
370
25
100
AcDbPolyline
90
6
70
0
43
0
10
-34
20
93.125
10
-34
20
93.875
10
-33
20
94.925
10
-35
20
96.325
10
-34
20
97.375
10
-34
20
98.125
0
LWPOLYLINE
5
112
330
1F
100
AcDbEntity
8
S-DETL-BRKL
370
25
100
AcDbPolyline
90
6
70
0
43
0
10
35
20
84.25
10
35
20
87.1875
10
37
20
89.5875
10
33
20
92.7875
10
35
20
95.1875
10
35
20
98.125
0
LWPOLYLINE
5
113
330
1F
100
AcDbEntity
8
S-DETL-BRKL
370
25
100
AcDbPolyline
90
6
70
0
43
0
10
-34.5
20
74
10
-33.975
20
74
10
-33.24
20
74.7
10
-32.26
20
73.3
10
-31.525
20
74
10
-31
20
74
0
LWPOLYLINE
5
114
330
1F
100
AcDbEntity
8
S-DETL-BRKL
370
25
100
AcDbPolyline
90
6
70
0
43
0
10
-18.5
20
74
10
-17.975
20
74
10
-17.24
20
74.7
10
-16.26
20
73.3
10
-15.525
20
74
10
-15
20
74
0
LWPOLYLINE
5
115
330
1F
100
AcDbEntity
8
S-DETL-BRKL
370
25
100
AcDbPolyline
90
6
70
0
43
0
10
-2.5
20
74
10
-1.525
20
74
10
-0.16
20
75.3
10
1.66
20
72.7
10
3.025
20
74
10
4
20
74
0
TEXT
5
116
330
1F
100
AcDbEntity
8
S-ANNO-NOTE
370
18
100
AcDbText
10
-76.857143
20
104.81235
30
0
40
1.5
1
SIMPSON CMST14 COIL STRAP X
7
KERF
100
AcDbText
0
TEXT
5
117
330
1F
100
AcDbEntity
8
S-ANNO-NOTE
370
18
100
AcDbText
10
-76.857143
20
102.41235
30
0
40
1.5
1
5'-0" (30" EA. SIDE OF
7
KERF
100
AcDbText
0
TEXT
5
118
330
1F
100
AcDbEntity
8
S-ANNO-NOTE
370
18
100
AcDbText
10
-76.857143
20
100.01235
30
0
40
1.5
1
JOINT) OVER TOP PLATE & BEAM
7
KERF
100
AcDbText
0
TEXT
5
119
330
1F
100
AcDbEntity
8
S-ANNO-NOTE
370
18
100
AcDbText
10
-76.857143
20
97.61235
30
0
40
1.5
1
W/ 10D NAILS, INSTALL PER
7
KERF
100
AcDbText
0
TEXT
5
11A
330
1F
100
AcDbEntity
8
S-ANNO-NOTE
370
18
100
AcDbText
10
-76.857143
20
95.21235
30
0
40
1.5
1
MFR. (IRC R602.3.2)*
7
KERF
100
AcDbText
0
LWPOLYLINE
5
11B
330
1F
100
AcDbEntity
8
S-ANNO-NOTE
370
18
100
AcDbPolyline
90
3
70
0
43
0
10
-39.36
20
100.76235
10
-37.36
20
100.76235
10
-1.493084
20
97.306223
0
HATCH
5
11C
330
1F
100
AcDbEntity
8
S-ANNO-NOTE
370
50
100
AcDbHatch
10
0
20
0
30
0
210
0
220
0
230
1
2
SOLID
70
1
71
0
91
1
92
3
72
0
73
1
93
3
10
0
20
97.16235
10
-1.445126
20
97.803918
10
-1.541042
20
96.808528
97
0
75
0
76
1
98
0
0
TEXT
5
11D
330
1F
100
AcDbEntity
8
S-ANNO-NOTE
370
18
100
AcDbText
10
41
20
92.8375
30
0
40
1.5
1
5 1/4" X 11 7/8" PSL BEAM,
7
KERF
100
AcDbText
0
TEXT
5
11E
330
1F
100
AcDbEntity
8
S-ANNO-NOTE
370
18
100
AcDbText
10
41
20
90.4375
30
0
40
1.5
1
T.O. BEAM FLUSH W/ T.O. DBL.
7
KERF
100
AcDbText
0
TEXT
5
11F
330
1F
100
AcDbEntity
8
S-ANNO-NOTE
370
18
100
AcDbText
10
41
20
88.0375
30
0
40
1.5
1
TOP PLATE @ 8'-1 1/8"
7
KERF
100
AcDbText
0
LWPOLYLINE
5
120
330
1F
100
AcDbEntity
8
S-ANNO-NOTE
370
18
100
AcDbPolyline
90
3
70
0
43
0
10
40.36
20
91.1875
10
38.36
20
91.1875
10
19
20
91.1875
0
HATCH
5
121
330
1F
100
AcDbEntity
8
S-ANNO-NOTE
370
50
100
AcDbHatch
10
0
20
0
30
0
210
0
220
0
230
1
2
SOLID
70
1
71
0
91
1
92
3
72
0
73
1
93
3
10
17.5
20
91.1875
10
19
20
90.6875
10
19
20
91.6875
97
0
75
0
76
1
98
0
0
TEXT
5
122
330
1F
100
AcDbEntity
8
S-ANNO-NOTE
370
18
100
AcDbText
10
-65.285714
20
92.025
30
0
40
1.5
1
DBL. 2X6 TOP PLATE,
7
KERF
100
AcDbText
0
TEXT
5
123
330
1F
100
AcDbEntity
8
S-ANNO-NOTE
370
18
100
AcDbText
10
-65.285714
20
89.625
30
0
40
1.5
1
INTERRUPTED AT BEAM
7
KERF
100
AcDbText
0
LWPOLYLINE
5
124
330
1F
100
AcDbEntity
8
S-ANNO-NOTE
370
18
100
AcDbPolyline
90
3
70
0
43
0
10
-39.36
20
91.575
10
-37.36
20
91.575
10
-20.202465
20
96.000372
0
HATCH
5
125
330
1F
100
AcDbEntity
8
S-ANNO-NOTE
370
50
100
AcDbHatch
10
0
20
0
30
0
210
0
220
0
230
1
2
SOLID
70
1
71
0
91
1
92
3
72
0
73
1
93
3
10
-18.75
20
96.375
10
-20.327341
20
96.484527
10
-20.077589
20
95.516217
97
0
75
0
76
1
98
0
0
TEXT
5
126
330
1F
100
AcDbEntity
8
S-ANNO-NOTE
370
18
100
AcDbText
10
-76.357143
20
86.925
30
0
40
1.5
1
OFFSET TOP PLATE END JOINTS
7
KERF
100
AcDbText
0
TEXT
5
127
330
1F
100
AcDbEntity
8
S-ANNO-NOTE
370
18
100
AcDbText
10
-76.357143
20
84.525
30
0
40
1.5
1
24" MIN. AWAY FROM BEAM (IRC
7
KERF
100
AcDbText
0
TEXT
5
128
330
1F
100
AcDbEntity
8
S-ANNO-NOTE
370
18
100
AcDbText
10
-76.357143
20
82.125
30
0
40
1.5
1
R602.3.2)*
7
KERF
100
AcDbText
0
LWPOLYLINE
5
129
330
1F
100
AcDbEntity
8
S-ANNO-NOTE
370
18
100
AcDbPolyline
90
3
70
0
43
0
10
-39.36
20
85.275
10
-37.36
20
85.275
10
-18.356744
20
94.235278
0
HATCH
5
12A
330
1F
100
AcDbEntity
8
S-ANNO-NOTE
370
50
100
AcDbHatch
10
0
20
0
30
0
210
0
220
0
230
1
2
SOLID
70
1
71
0
91
1
92
3
72
0
73
1
93
3
10
-17
20
94.875
10
-18.569985
20
94.687526
10
-18.143504
20
93.78303
97
0
75
0
76
1
98
0
0
TEXT
5
12B
330
1F
100
AcDbEntity
8
S-ANNO-NOTE
370
18
100
AcDbText
10
41
20
82.475
30
0
40
1.5
1
(2) 2X6 JACK STUDS U.N.O.
7
KERF
100
AcDbText
0
TEXT
5
12C
330
1F
100
AcDbEntity
8
S-ANNO-NOTE
370
18
100
AcDbText
10
41
20
80.075
30
0
40
1.5
1
(IRC R602.7.5)*
7
KERF
100
AcDbText
0
LWPOLYLINE
5
12D
330
1F
100
AcDbEntity
8
S-ANNO-NOTE
370
18
100
AcDbPolyline
90
3
70
0
43
0
10
40.36
20
82.025
10
38.36
20
82.025
10
2.246955
20
79.720525
0
HATCH
5
12E
330
1F
100
AcDbEntity
8
S-ANNO-NOTE
370
50
100
AcDbHatch
10
0
20
0
30
0
210
0
220
0
230
1
2
SOLID
70
1
71
0
91
1
92
3
72
0
73
1
93
3
10
0.75
20
79.625
10
2.278797
20
79.22154
10
2.215114
20
80.21951
97
0
75
0
76
1
98
0
0
TEXT
5
12F
330
1F
100
AcDbEntity
8
S-ANNO-NOTE
370
18
100
AcDbText
10
-73.285714
20
79.1
30
0
40
1.5
1
2X6 KING STUD, END NAIL TO
7
KERF
100
AcDbText
0
TEXT
5
130
330
1F
100
AcDbEntity
8
S-ANNO-NOTE
370
18
100
AcDbText
10
-73.285714
20
76.7
30
0
40
1.5
1
BEAM W/ (4) 16D (IRC
7
KERF
100
AcDbText
0
TEXT
5
131
330
1F
100
AcDbEntity
8
S-ANNO-NOTE
370
18
100
AcDbText
10
-73.285714
20
74.3
30
0
40
1.5
1
R602.7.5)*
7
KERF
100
AcDbText
0
LWPOLYLINE
5
132
330
1F
100
AcDbEntity
8
S-ANNO-NOTE
370
18
100
AcDbPolyline
90
3
70
0
43
0
10
-39.36
20
77.45
10
-37.36
20
77.45
10
-2.237271
20
82.055001
0
HATCH
5
133
330
1F
100
AcDbEntity
8
S-ANNO-NOTE
370
50
100
AcDbHatch
10
0
20
0
30
0
210
0
220
0
230
1
2
SOLID
70
1
71
0
91
1
92
3
72
0
73
1
93
3
10
-0.75
20
82.25
10
-2.302271
20
82.550758
10
-2.172272
20
81.559244
97
0
75
0
76
1
98
0
0
TEXT
5
134
330
1F
100
AcDbEntity
8
S-ANNO-NOTE
370
18
100
AcDbText
10
-72.071429
20
71
30
0
40
1.5
1
2X6 STUDS @ 16" O.C. (IRC
7
KERF
100
AcDbText
0
TEXT
5
135
330
1F
100
AcDbEntity
8
S-ANNO-NOTE
370
18
100
AcDbText
10
-72.071429
20
68.6
30
0
40
1.5
1
TABLE R602.3(5))*
7
KERF
100
AcDbText
0
LWPOLYLINE
5
136
330
1F
100
AcDbEntity
8
S-ANNO-NOTE
370
18
100
AcDbPolyline
90
3
70
0
43
0
10
-39.36
20
70.55
10
-37.36
20
70.55
10
-17.669695
20
77.265784
0
HATCH
5
137
330
1F
100
AcDbEntity
8
S-ANNO-NOTE
370
50
100
AcDbHatch
10
0
20
0
30
0
210
0
220
0
230
1
2
SOLID
70
1
71
0
91
1
92
3
72
0
73
1
93
3
10
-16.25
20
77.75
10
-17.831101
20
77.739015
10
-17.50829
20
76.792552
97
0
75
0
76
1
98
0
0
LWPOLYLINE
5
138
330
1F
100
AcDbEntity
8
S-ANNO-DIMS
370
13
100
AcDbPolyline
90
2
70
0
43
0
10
-30
20
98.125
10
-30
20
102.125
0
LWPOLYLINE
5
139
330
1F
100
AcDbEntity
8
S-ANNO-DIMS
370
13
100
AcDbPolyline
90
2
70
0
43
0
10
0
20
98.125
10
0
20
102.125
0
LWPOLYLINE
5
13A
330
1F
100
AcDbEntity
8
S-ANNO-DIMS
370
13
100
AcDbPolyline
90
2
70
0
43
0
10
-30
20
101.125
10
0
20
101.125
0
LWPOLYLINE
5
13B
330
1F
100
AcDbEntity
8
S-DETL-CUT
370
35
100
AcDbPolyline
90
2
70
0
43
0
10
-30.353553
20
100.771447
10
-29.646447
20
101.478553
0
LWPOLYLINE
5
13C
330
1F
100
AcDbEntity
8
S-DETL-CUT
370
35
100
AcDbPolyline
90
2
70
0
43
0
10
-0.353553
20
100.771447
10
0.353553
20
101.478553
0
TEXT
5
13D
330
1F
100
AcDbEntity
8
S-ANNO-DIMS
370
13
100
AcDbText
10
-15
20
101.875
30
0
40
1.5
1
2'-6"
7
KERF
72
1
11
-15
21
101.875
31
0
100
AcDbText
0
LWPOLYLINE
5
13E
330
1F
100
AcDbEntity
8
S-ANNO-DIMS
370
13
100
AcDbPolyline
90
2
70
0
43
0
10
0
20
98.125
10
0
20
102.125
0
LWPOLYLINE
5
13F
330
1F
100
AcDbEntity
8
S-ANNO-DIMS
370
13
100
AcDbPolyline
90
2
70
0
43
0
10
30
20
98.125
10
30
20
102.125
0
LWPOLYLINE
5
140
330
1F
100
AcDbEntity
8
S-ANNO-DIMS
370
13
100
AcDbPolyline
90
2
70
0
43
0
10
0
20
101.125
10
30
20
101.125
0
LWPOLYLINE
5
141
330
1F
100
AcDbEntity
8
S-DETL-CUT
370
35
100
AcDbPolyline
90
2
70
0
43
0
10
-0.353553
20
100.771447
10
0.353553
20
101.478553
0
LWPOLYLINE
5
142
330
1F
100
AcDbEntity
8
S-DETL-CUT
370
35
100
AcDbPolyline
90
2
70
0
43
0
10
29.646447
20
100.771447
10
30.353553
20
101.478553
0
TEXT
5
143
330
1F
100
AcDbEntity
8
S-ANNO-DIMS
370
13
100
AcDbText
10
15
20
101.875
30
0
40
1.5
1
2'-6"
7
KERF
72
1
11
15
21
101.875
31
0
100
AcDbText
0
LWPOLYLINE
5
144
330
1F
100
AcDbEntity
8
S-ANNO-DIMS
370
13
100
AcDbPolyline
90
2
70
0
43
0
10
0
20
84.25
10
0
20
81.25
0
LWPOLYLINE
5
145
330
1F
100
AcDbEntity
8
S-ANNO-DIMS
370
13
100
AcDbPolyline
90
2
70
0
43
0
10
3
20
84.25
10
3
20
81.25
0
LWPOLYLINE
5
146
330
1F
100
AcDbEntity
8
S-ANNO-DIMS
370
13
100
AcDbPolyline
90
2
70
0
43
0
10
0
20
82.25
10
8.571429
20
82.25
0
LWPOLYLINE
5
147
330
1F
100
AcDbEntity
8
S-DETL-CUT
370
35
100
AcDbPolyline
90
2
70
0
43
0
10
-0.353553
20
81.896447
10
0.353553
20
82.603553
0
LWPOLYLINE
5
148
330
1F
100
AcDbEntity
8
S-DETL-CUT
370
35
100
AcDbPolyline
90
2
70
0
43
0
10
2.646447
20
81.896447
10
3.353553
20
82.603553
0
TEXT
5
149
330
1F
100
AcDbEntity
8
S-ANNO-DIMS
370
13
100
AcDbText
10
6.785714
20
83
30
0
40
1.5
1
3"
7
KERF
72
1
11
6.785714
21
83
31
0
100
AcDbText
0
TEXT
5
14A
330
1F
100
AcDbEntity
8
S-ANNO-NOTE
370
18
100
AcDbText
10
28
20
78.25
30
0
40
1.25
1
OPENING
7
KERF
72
1
11
28
21
78.25
31
0
100
AcDbText
73
2
0
LWPOLYLINE
5
14B
330
1F
100
AcDbEntity
8
S-ANNO-TTLB
370
50
100
AcDbPolyline
90
2
70
1
43
0
10
-34
20
57.2
42
1
10
-24
20
57.2
42
1
0
TEXT
5
14C
330
1F
100
AcDbEntity
8
S-ANNO-TTLB
370
50
100
AcDbText
10
-29
20
57.2
30
0
40
2.5
1
1
7
KERF
72
1
11
-29
21
57.2
31
0
100
AcDbText
73
2
0
TEXT
5
14D
330
1F
100
AcDbEntity
8
S-ANNO-TTLB
370
50
100
AcDbText
10
-21.6
20
57.52
30
0
40
2.5
1
FLUSH PSL BEAM AT 2X6 TOP PLATE - ELEVATION
7
KERF
100
AcDbText
0
LWPOLYLINE
5
14E
330
1F
100
AcDbEntity
8
S-ANNO-TTLB
370
50
100
AcDbPolyline
90
2
70
0
43
0
10
-21.6
20
56.4
10
73.161905
20
56.4
0
TEXT
5
14F
330
1F
100
AcDbEntity
8
S-ANNO-TTLB
370
18
100
AcDbText
10
-21.6
20
53.94
30
0
40
1.5
1
SCALE: 3/4" = 1'-0"
7
KERF
100
AcDbText
0
TEXT
5
150
330
1F
100
AcDbEntity
8
S-ANNO-TTLB
370
18
100
AcDbText
10
-34
20
49.1
30
0
40
1.275
1
* CODE REFERENCE NOT VERIFIED BY DESIGNER
7
KERF
100
AcDbText
0
ENDSEC
0
SECTION
2
OBJECTS
0
DICTIONARY
5
C
330
0
100
AcDbDictionary
281
1
3
ACAD_GROUP
350
D
0
DICTIONARY
5
D
330
C
100
AcDbDictionary
281
1
0
ENDSEC
0
EOF
