0
SECTION
2
HEADER
9
$ACADVER
1
AC1015
9
$HANDSEED
5
143
9
$INSUNITS
70
1
9
$MEASUREMENT
70
0
9
$LTSCALE
40
1
9
$EXTMIN
10
-64.730578
20
55.90125
30
0
9
$EXTMAX
10
47.081029
20
116.875
30
0
0
ENDSEC
0
SECTION
2
CLASSES
0
ENDSEC
0
SECTION
2
TABLES
0
TABLE
2
VPORT
5
8
330
0
100
AcDbSymbolTable
70
1
0
VPORT
5
30
330
8
100
AcDbSymbolTableRecord
100
AcDbViewportTableRecord
2
*ACTIVE
70
0
10
0
20
0
11
1
21
1
12
-8.824774
22
86.388125
13
0
23
0
14
10
24
10
15
10
25
10
16
0
26
0
36
1
17
0
27
0
37
0
40
67.071125
41
1.833766
42
50
43
0
44
0
50
0
51
0
71
0
72
100
73
1
74
3
75
0
76
0
77
0
78
0
0
ENDTAB
0
TABLE
2
LTYPE
5
5
330
0
100
AcDbSymbolTable
70
4
0
LTYPE
5
14
330
5
100
AcDbSymbolTableRecord
100
AcDbLinetypeTableRecord
2
BYBLOCK
70
0
3

72
65
73
0
40
0
0
LTYPE
5
15
330
5
100
AcDbSymbolTableRecord
100
AcDbLinetypeTableRecord
2
BYLAYER
70
0
3

72
65
73
0
40
0
0
LTYPE
5
16
330
5
100
AcDbSymbolTableRecord
100
AcDbLinetypeTableRecord
2
CONTINUOUS
70
0
3
Solid line
72
65
73
0
40
0
0
LTYPE
5
40
330
5
100
AcDbSymbolTableRecord
100
AcDbLinetypeTableRecord
2
DASHED
70
0
3
DASHED
72
65
73
2
40
1.535433
49
1.023622
74
0
49
-0.511811
74
0
0
ENDTAB
0
TABLE
2
LAYER
5
2
330
0
100
AcDbSymbolTable
70
5
0
LAYER
5
10
330
2
100
AcDbSymbolTableRecord
100
AcDbLayerTableRecord
2
0
70
0
62
7
6
CONTINUOUS
370
-3
0
LAYER
5
50
330
2
100
AcDbSymbolTableRecord
100
AcDbLayerTableRecord
2
S-DETL-BYND
70
0
62
7
6
CONTINUOUS
370
25
0
LAYER
5
51
330
2
100
AcDbSymbolTableRecord
100
AcDbLayerTableRecord
2
S-DETL-CUT
70
0
62
7
6
CONTINUOUS
370
50
0
LAYER
5
52
330
2
100
AcDbSymbolTableRecord
100
AcDbLayerTableRecord
2
S-ANNO-NOTE
70
0
62
7
6
CONTINUOUS
370
18
0
LAYER
5
53
330
2
100
AcDbSymbolTableRecord
100
AcDbLayerTableRecord
2
S-ANNO-TTLB
70
0
62
7
6
CONTINUOUS
370
50
0
ENDTAB
0
TABLE
2
STYLE
5
3
330
0
100
AcDbSymbolTable
70
2
0
STYLE
5
11
330
3
100
AcDbSymbolTableRecord
100
AcDbTextStyleTableRecord
2
STANDARD
70
0
40
0
41
1
50
0
71
0
42
0.2
3
txt
4

0
STYLE
5
12
330
3
100
AcDbSymbolTableRecord
100
AcDbTextStyleTableRecord
2
KERF
70
0
40
0
41
1
50
0
71
0
42
0.2
3
romans.shx
4

0
ENDTAB
0
TABLE
2
VIEW
5
6
330
0
100
AcDbSymbolTable
70
0
0
ENDTAB
0
TABLE
2
UCS
5
7
330
0
100
AcDbSymbolTable
70
0
0
ENDTAB
0
TABLE
2
APPID
5
9
330
0
100
AcDbSymbolTable
70
1
0
APPID
5
13
330
9
100
AcDbSymbolTableRecord
100
AcDbRegAppTableRecord
2
ACAD
70
0
0
ENDTAB
0
TABLE
2
DIMSTYLE
5
A
330
0
100
AcDbSymbolTable
70
1
100
AcDbDimStyleTable
71
1
0
DIMSTYLE
105
17
330
A
100
AcDbSymbolTableRecord
100
AcDbDimStyleTableRecord
2
STANDARD
70
0
340
17
0
ENDTAB
0
TABLE
2
BLOCK_RECORD
5
1
330
0
100
AcDbSymbolTable
70
2
0
BLOCK_RECORD
5
1F
330
1
100
AcDbSymbolTableRecord
100
AcDbBlockTableRecord
2
*Model_Space
70
0
280
1
281
0
0
BLOCK_RECORD
5
1B
330
1
100
AcDbSymbolTableRecord
100
AcDbBlockTableRecord
2
*Paper_Space
70
0
280
1
281
0
0
ENDTAB
0
ENDSEC
0
SECTION
2
BLOCKS
0
BLOCK
5
20
330
1F
100
AcDbEntity
8
0
100
AcDbBlockBegin
2
*Model_Space
70
0
10
0
20
0
30
0
3
*Model_Space
1

0
ENDBLK
5
21
330
1F
100
AcDbEntity
8
0
100
AcDbBlockEnd
0
BLOCK
5
22
330
1B
100
AcDbEntity
67
1
8
0
100
AcDbBlockBegin
2
*Paper_Space
70
0
10
0
20
0
30
0
3
*Paper_Space
1

0
ENDBLK
5
23
330
1B
100
AcDbEntity
67
1
8
0
100
AcDbBlockEnd
0
ENDSEC
0
SECTION
2
ENTITIES
0
LWPOLYLINE
5
100
330
1F
100
AcDbEntity
8
S-DETL-BYND
370
25
100
AcDbPolyline
90
3
70
0
43
0
10
30.419142
20
67.8125
10
30.419142
20
79.6875
10
0.108253
20
97.1875
0
LWPOLYLINE
5
101
330
1F
100
AcDbEntity
8
S-DETL-BYND
370
25
100
AcDbPolyline
90
2
70
0
43
0
10
34.965776
20
82.3125
10
30.419142
20
79.6875
0
LWPOLYLINE
5
102
330
1F
100
AcDbEntity
8
S-DETL-BYND
370
25
100
AcDbPolyline
90
2
70
0
43
0
10
1.299038
20
84.5
10
0
20
85.25
0
LWPOLYLINE
5
103
330
1F
100
AcDbEntity
8
S-DETL-BYND
370
25
100
AcDbPolyline
90
3
70
0
43
0
10
2.598076
20
72.5
10
2.598076
20
83.75
10
1.299038
20
84.5
0
LWPOLYLINE
5
104
330
1F
100
AcDbEntity
8
S-DETL-BYND
370
25
100
AcDbPolyline
90
2
70
0
43
0
10
2.706329
20
83.8125
10
2.598076
20
83.75
0
LWPOLYLINE
5
105
330
1F
100
AcDbEntity
8
S-DETL-BYND
370
25
100
AcDbPolyline
90
2
70
0
43
0
10
0
20
94.125
10
0
20
95.625
0
LWPOLYLINE
5
106
330
1F
100
AcDbEntity
8
S-DETL-BYND
370
25
100
AcDbPolyline
90
3
70
0
43
0
10
0
20
95.625
10
0
20
97.125
10
-29.444864
20
114.125
0
LWPOLYLINE
5
107
330
1F
100
AcDbEntity
8
S-DETL-BYND
370
25
100
AcDbPolyline
90
2
70
0
43
0
10
4.76314
20
99.875
10
3.7453
20
99.28735
0
LWPOLYLINE
5
108
330
1F
100
AcDbEntity
8
S-DETL-BYND
370
25
100
AcDbPolyline
90
2
70
0
43
0
10
1.082532
20
97.75
10
0
20
97.125
0
LWPOLYLINE
5
109
330
1F
100
AcDbEntity
8
S-DETL-BYND
370
25
100
AcDbPolyline
90
3
70
0
43
0
10
0
20
74
10
0
20
94.125
10
-1.299038
20
94.875
0
LWPOLYLINE
5
10A
330
1F
100
AcDbEntity
8
S-DETL-BYND
370
25
100
AcDbPolyline
90
3
70
0
43
0
10
-13.856406
20
82
10
-13.856406
20
102.125
10
-15.155445
20
102.875
0
LWPOLYLINE
5
10B
330
1F
100
AcDbEntity
8
S-DETL-BYND
370
25
100
AcDbPolyline
90
3
70
0
43
0
10
-27.712813
20
90
10
-27.712813
20
110.125
10
-29.011851
20
110.875
0
LWPOLYLINE
5
10C
330
1F
100
AcDbEntity
8
S-DETL-BYND
370
25
100
AcDbPolyline
90
3
70
0
43
0
10
27.063294
20
82.75
10
27.063294
20
82.8247
10
-24.89823
20
112.8247
0
LWPOLYLINE
5
10D
330
1F
100
AcDbEntity
8
S-DETL-BYND
370
25
100
AcDbPolyline
90
2
70
0
43
0
10
29.66137
20
84.3247
10
27.063294
20
82.8247
0
LWPOLYLINE
5
10E
330
1F
100
AcDbEntity
8
S-DETL-CUT
370
35
100
AcDbPolyline
90
2
70
0
43
0
10
0.108253
20
85.3125
10
30.419142
20
67.8125
0
LWPOLYLINE
5
10F
330
1F
100
AcDbEntity
8
S-DETL-CUT
370
35
100
AcDbPolyline
90
3
70
0
43
0
10
34.965776
20
70.4375
10
34.965776
20
82.3125
10
4.654887
20
99.8125
0
LWPOLYLINE
5
110
330
1F
100
AcDbEntity
8
S-DETL-CUT
370
35
100
AcDbPolyline
90
2
70
0
43
0
10
0.108253
20
97.1875
10
0.108253
20
85.3125
0
LWPOLYLINE
5
111
330
1F
100
AcDbEntity
8
S-DETL-CUT
370
35
100
AcDbPolyline
90
2
70
0
43
0
10
34.965776
20
70.4375
10
30.419142
20
67.8125
0
LWPOLYLINE
5
112
330
1F
100
AcDbEntity
8
S-DETL-CUT
370
35
100
AcDbPolyline
90
2
70
0
43
0
10
4.654887
20
99.8125
10
3.7453
20
99.28735
0
LWPOLYLINE
5
113
330
1F
100
AcDbEntity
8
S-DETL-CUT
370
35
100
AcDbPolyline
90
2
70
0
43
0
10
1.082532
20
97.75
10
0.108253
20
97.1875
0
LWPOLYLINE
5
114
330
1F
100
AcDbEntity
8
S-DETL-CUT
370
35
100
AcDbPolyline
90
3
70
0
43
0
10
0
20
85.25
10
0
20
74
10
1.299038
20
73.25
0
LWPOLYLINE
5
115
330
1F
100
AcDbEntity
8
S-DETL-CUT
370
35
100
AcDbPolyline
90
2
70
0
43
0
10
0.108253
20
85.3125
10
0
20
85.25
0
LWPOLYLINE
5
116
330
1F
100
AcDbEntity
8
S-DETL-CUT
370
35
100
AcDbPolyline
90
2
70
0
43
0
10
7.361216
20
75.25
10
7.361216
20
81.125
0
LWPOLYLINE
5
117
330
1F
100
AcDbEntity
8
S-DETL-CUT
370
35
100
AcDbPolyline
90
3
70
0
43
0
10
1.299038
20
84.5
10
1.299038
20
73.25
10
2.598076
20
72.5
0
LWPOLYLINE
5
118
330
1F
100
AcDbEntity
8
S-DETL-CUT
370
35
100
AcDbPolyline
90
2
70
0
43
0
10
7.361216
20
75.25
10
2.598076
20
72.5
0
LWPOLYLINE
5
119
330
1F
100
AcDbEntity
8
S-DETL-CUT
370
35
100
AcDbPolyline
90
2
70
0
43
0
10
1.407291
20
84.5625
10
1.299038
20
84.5
0
LWPOLYLINE
5
11A
330
1F
100
AcDbEntity
8
S-DETL-CUT
370
35
100
AcDbPolyline
90
2
70
0
43
0
10
-29.444864
20
111.125
10
0
20
94.125
0
LWPOLYLINE
5
11B
330
1F
100
AcDbEntity
8
S-DETL-CUT
370
35
100
AcDbPolyline
90
2
70
0
43
0
10
-29.444864
20
112.625
10
-29.444864
20
111.125
0
LWPOLYLINE
5
11C
330
1F
100
AcDbEntity
8
S-DETL-CUT
370
35
100
AcDbPolyline
90
2
70
0
43
0
10
0.108253
20
94.1875
10
0
20
94.125
0
LWPOLYLINE
5
11D
330
1F
100
AcDbEntity
8
S-DETL-CUT
370
35
100
AcDbPolyline
90
2
70
0
43
0
10
-29.444864
20
112.625
10
0
20
95.625
0
LWPOLYLINE
5
11E
330
1F
100
AcDbEntity
8
S-DETL-CUT
370
35
100
AcDbPolyline
90
3
70
0
43
0
10
4.76314
20
99.75
10
4.76314
20
99.875
10
-24.681724
20
116.875
0
LWPOLYLINE
5
11F
330
1F
100
AcDbEntity
8
S-DETL-CUT
370
35
100
AcDbPolyline
90
2
70
0
43
0
10
-29.444864
20
114.125
10
-29.444864
20
112.625
0
LWPOLYLINE
5
120
330
1F
100
AcDbEntity
8
S-DETL-CUT
370
35
100
AcDbPolyline
90
2
70
0
43
0
10
0.108253
20
95.6875
10
0
20
95.625
0
LWPOLYLINE
5
121
330
1F
100
AcDbEntity
8
S-DETL-CUT
370
35
100
AcDbPolyline
90
2
70
0
43
0
10
-24.681724
20
116.875
10
-29.444864
20
114.125
0
LWPOLYLINE
5
122
330
1F
100
AcDbEntity
8
S-DETL-CUT
370
35
100
AcDbPolyline
90
3
70
0
43
0
10
-1.299038
20
94.875
10
-1.299038
20
74.75
10
0
20
74
0
LWPOLYLINE
5
123
330
1F
100
AcDbEntity
8
S-DETL-CUT
370
35
100
AcDbPolyline
90
2
70
0
43
0
10
-9.093267
20
84.75
10
-9.093267
20
99.375
0
LWPOLYLINE
5
124
330
1F
100
AcDbEntity
8
S-DETL-CUT
370
35
100
AcDbPolyline
90
3
70
0
43
0
10
-15.155445
20
102.875
10
-15.155445
20
82.75
10
-13.856406
20
82
0
LWPOLYLINE
5
125
330
1F
100
AcDbEntity
8
S-DETL-CUT
370
35
100
AcDbPolyline
90
2
70
0
43
0
10
-9.093267
20
84.75
10
-13.856406
20
82
0
LWPOLYLINE
5
126
330
1F
100
AcDbEntity
8
S-DETL-CUT
370
35
100
AcDbPolyline
90
2
70
0
43
0
10
-22.949673
20
92.75
10
-22.949673
20
107.375
0
LWPOLYLINE
5
127
330
1F
100
AcDbEntity
8
S-DETL-CUT
370
35
100
AcDbPolyline
90
3
70
0
43
0
10
-29.011851
20
110.875
10
-29.011851
20
90.75
10
-27.712813
20
90
0
LWPOLYLINE
5
128
330
1F
100
AcDbEntity
8
S-DETL-CUT
370
35
100
AcDbPolyline
90
2
70
0
43
0
10
-22.949673
20
92.75
10
-27.712813
20
90
0
LWPOLYLINE
5
129
330
1F
100
AcDbEntity
8
S-DETL-CUT
370
35
100
AcDbPolyline
90
2
70
0
43
0
10
-24.89823
20
112.75
10
27.063294
20
82.75
0
LWPOLYLINE
5
12A
330
1F
100
AcDbEntity
8
S-DETL-CUT
370
35
100
AcDbPolyline
90
3
70
0
43
0
10
29.66137
20
84.25
10
29.66137
20
84.3247
10
-22.300154
20
114.3247
0
LWPOLYLINE
5
12B
330
1F
100
AcDbEntity
8
S-DETL-CUT
370
35
100
AcDbPolyline
90
2
70
0
43
0
10
-24.89823
20
112.8247
10
-24.89823
20
112.75
0
LWPOLYLINE
5
12C
330
1F
100
AcDbEntity
8
S-DETL-CUT
370
35
100
AcDbPolyline
90
2
70
0
43
0
10
29.66137
20
84.25
10
27.063294
20
82.75
0
LWPOLYLINE
5
12D
330
1F
100
AcDbEntity
8
S-DETL-CUT
370
35
100
AcDbPolyline
90
2
70
0
43
0
10
-22.300154
20
114.3247
10
-24.89823
20
112.8247
0
TEXT
5
12E
330
1F
100
AcDbEntity
8
S-ANNO-NOTE
370
18
100
AcDbText
10
-64.730578
20
98.940325
30
0
40
1.21875
1
SIMPSON CMST14 STRAP ACROSS
7
KERF
100
AcDbText
0
TEXT
5
12F
330
1F
100
AcDbEntity
8
S-ANNO-NOTE
370
18
100
AcDbText
10
-64.730578
20
96.990325
30
0
40
1.21875
1
PLATE-TO-BEAM JOINT
7
KERF
100
AcDbText
0
LWPOLYLINE
5
130
330
1F
100
AcDbEntity
8
S-ANNO-NOTE
370
18
100
AcDbPolyline
90
3
70
0
43
0
10
-33.799864
20
98.5747
10
-32.174864
20
98.5747
10
1.16282
20
98.5747
0
HATCH
5
131
330
1F
100
AcDbEntity
8
S-ANNO-NOTE
370
50
100
AcDbHatch
10
0
20
0
30
0
210
0
220
0
230
1
2
SOLID
70
1
71
0
91
1
92
3
72
0
73
1
93
3
10
2.38157
20
98.5747
10
1.16282
20
98.98095
10
1.16282
20
98.16845
97
0
75
0
76
1
98
0
0
TEXT
5
132
330
1F
100
AcDbEntity
8
S-ANNO-NOTE
370
18
100
AcDbText
10
39.840776
20
81.890625
30
0
40
1.21875
1
5 1/4" X 11 7/8" PSL BEAM
7
KERF
100
AcDbText
0
LWPOLYLINE
5
133
330
1F
100
AcDbEntity
8
S-ANNO-NOTE
370
18
100
AcDbPolyline
90
3
70
0
43
0
10
39.320776
20
82.5
10
37.695776
20
82.5
10
16.482448
20
82.5
0
HATCH
5
134
330
1F
100
AcDbEntity
8
S-ANNO-NOTE
370
50
100
AcDbHatch
10
0
20
0
30
0
210
0
220
0
230
1
2
SOLID
70
1
71
0
91
1
92
3
72
0
73
1
93
3
10
15.263698
20
82.5
10
16.482448
20
82.09375
10
16.482448
20
82.90625
97
0
75
0
76
1
98
0
0
TEXT
5
135
330
1F
100
AcDbEntity
8
S-ANNO-NOTE
370
18
100
AcDbText
10
-53.297542
20
104.265625
30
0
40
1.21875
1
DBL. 2X6 TOP PLATE
7
KERF
100
AcDbText
0
LWPOLYLINE
5
136
330
1F
100
AcDbEntity
8
S-ANNO-NOTE
370
18
100
AcDbPolyline
90
3
70
0
43
0
10
-33.799864
20
104.875
10
-32.174864
20
104.875
10
-15.941182
20
104.875
0
HATCH
5
137
330
1F
100
AcDbEntity
8
S-ANNO-NOTE
370
50
100
AcDbHatch
10
0
20
0
30
0
210
0
220
0
230
1
2
SOLID
70
1
71
0
91
1
92
3
72
0
73
1
93
3
10
-14.722432
20
104.875
10
-15.941182
20
105.28125
10
-15.941182
20
104.46875
97
0
75
0
76
1
98
0
0
TEXT
5
138
330
1F
100
AcDbEntity
8
S-ANNO-NOTE
370
18
100
AcDbText
10
39.840776
20
78.890625
30
0
40
1.21875
1
(2) 2X6 JACK STUDS
7
KERF
100
AcDbText
0
LWPOLYLINE
5
139
330
1F
100
AcDbEntity
8
S-ANNO-NOTE
370
18
100
AcDbPolyline
90
3
70
0
43
0
10
39.320776
20
79.5
10
37.695776
20
79.5
10
6.198396
20
79.5
0
HATCH
5
13A
330
1F
100
AcDbEntity
8
S-ANNO-NOTE
370
50
100
AcDbHatch
10
0
20
0
30
0
210
0
220
0
230
1
2
SOLID
70
1
71
0
91
1
92
3
72
0
73
1
93
3
10
4.979646
20
79.5
10
6.198396
20
79.09375
10
6.198396
20
79.90625
97
0
75
0
76
1
98
0
0
TEXT
5
13B
330
1F
100
AcDbEntity
8
S-ANNO-NOTE
370
18
100
AcDbText
10
-48.422542
20
83.828125
30
0
40
1.21875
1
2X6 KING STUD
7
KERF
100
AcDbText
0
LWPOLYLINE
5
13C
330
1F
100
AcDbEntity
8
S-ANNO-NOTE
370
18
100
AcDbPolyline
90
3
70
0
43
0
10
-33.799864
20
84.4375
10
-32.174864
20
84.4375
10
-1.868269
20
84.4375
0
HATCH
5
13D
330
1F
100
AcDbEntity
8
S-ANNO-NOTE
370
50
100
AcDbHatch
10
0
20
0
30
0
210
0
220
0
230
1
2
SOLID
70
1
71
0
91
1
92
3
72
0
73
1
93
3
10
-0.649519
20
84.4375
10
-1.868269
20
84.84375
10
-1.868269
20
84.03125
97
0
75
0
76
1
98
0
0
LWPOLYLINE
5
13E
330
1F
100
AcDbEntity
8
S-ANNO-TTLB
370
50
100
AcDbPolyline
90
2
70
1
43
0
10
-29.444864
20
58.55
42
1
10
-21.319864
20
58.55
42
1
0
TEXT
5
13F
330
1F
100
AcDbEntity
8
S-ANNO-TTLB
370
50
100
AcDbText
10
-25.382364
20
58.55
30
0
40
2.03125
1
2
7
KERF
72
1
11
-25.382364
21
58.55
31
0
100
AcDbText
73
2
0
TEXT
5
140
330
1F
100
AcDbEntity
8
S-ANNO-TTLB
370
50
100
AcDbText
10
-19.369864
20
58.81
30
0
40
2.03125
1
FLUSH PSL BEAM AT 2X6 TOP PLATE - ISO
7
KERF
100
AcDbText
0
LWPOLYLINE
5
141
330
1F
100
AcDbEntity
8
S-ANNO-TTLB
370
50
100
AcDbPolyline
90
2
70
0
43
0
10
-19.369864
20
57.9
10
47.081029
20
57.9
0
TEXT
5
142
330
1F
100
AcDbEntity
8
S-ANNO-TTLB
370
18
100
AcDbText
10
-19.369864
20
55.90125
30
0
40
1.21875
1
SCALE: NTS
7
KERF
100
AcDbText
0
ENDSEC
0
SECTION
2
OBJECTS
0
DICTIONARY
5
C
330
0
100
AcDbDictionary
281
1
3
ACAD_GROUP
350
D
0
DICTIONARY
5
D
330
C
100
AcDbDictionary
281
1
0
ENDSEC
0
EOF
