0
SECTION
2
HEADER
9
$ACADVER
1
AC1015
9
$DWGCODEPAGE
3
ANSI_1252
9
$INSBASE
10
0.0
20
0.0
30
0.0
9
$EXTMIN
10
-56.625
20
-50.0
30
0.0
9
$EXTMAX
10
63.4821
20
20.1015
30
0.0
9
$LTSCALE
40
1.0
9
$TEXTSTYLE
7
KERF
9
$CLAYER
8
0
9
$CELTYPE
6
BYLAYER
9
$LWDISPLAY
290
1
9
$MEASUREMENT
70
0
9
$INSUNITS
70
1
9
$TDCREATE
40
2451545.0
9
$TDUPDATE
40
2451545.0
9
$HANDSEED
5
FFFF
0
ENDSEC
0
SECTION
2
TABLES
0
TABLE
2
VPORT
5
8
330
0
100
AcDbSymbolTable
70
0
0
ENDTAB
0
TABLE
2
LTYPE
5
4
330
0
100
AcDbSymbolTable
70
5
0
LTYPE
5
20
330
4
100
AcDbSymbolTableRecord
100
AcDbLinetypeTableRecord
2
BYBLOCK
70
0
3

72
65
73
0
40
0.0
0
LTYPE
5
21
330
4
100
AcDbSymbolTableRecord
100
AcDbLinetypeTableRecord
2
BYLAYER
70
0
3

72
65
73
0
40
0.0
0
LTYPE
5
22
330
4
100
AcDbSymbolTableRecord
100
AcDbLinetypeTableRecord
2
CONTINUOUS
70
0
3
Solid line
72
65
73
0
40
0.0
0
LTYPE
5
23
330
4
100
AcDbSymbolTableRecord
100
AcDbLinetypeTableRecord
2
DASHED
70
0
3
Kerf dashed
72
65
73
2
40
1.4173
49
0.9449
74
0
49
-0.4724
74
0
0
LTYPE
5
24
330
4
100
AcDbSymbolTableRecord
100
AcDbLinetypeTableRecord
2
DASH_VAPOR
70
0
3
Kerf dashed
72
65
73
2
40
1.063
49
0.7087
74
0
49
-0.3543
74
0
0
ENDTAB
0
TABLE
2
LAYER
5
2
330
0
100
AcDbSymbolTable
70
10
0
LAYER
5
25
330
2
100
AcDbSymbolTableRecord
100
AcDbLayerTableRecord
2
0
70
0
62
7
6
CONTINUOUS
0
LAYER
5
26
330
2
100
AcDbSymbolTableRecord
100
AcDbLayerTableRecord
2
S-DETL-CUT
70
0
62
7
6
CONTINUOUS
370
50
0
LAYER
5
27
330
2
100
AcDbSymbolTableRecord
100
AcDbLayerTableRecord
2
S-DETL-BYND
70
0
62
7
6
CONTINUOUS
370
25
0
LAYER
5
28
330
2
100
AcDbSymbolTableRecord
100
AcDbLayerTableRecord
2
S-DETL-HIDN
70
0
62
7
6
DASHED
370
18
0
LAYER
5
29
330
2
100
AcDbSymbolTableRecord
100
AcDbLayerTableRecord
2
S-DETL-PATT
70
0
62
7
6
CONTINUOUS
370
9
0
LAYER
5
2A
330
2
100
AcDbSymbolTableRecord
100
AcDbLayerTableRecord
2
S-DETL-STL
70
0
62
7
6
CONTINUOUS
370
35
0
LAYER
5
2B
330
2
100
AcDbSymbolTableRecord
100
AcDbLayerTableRecord
2
S-ANNO-NOTE
70
0
62
7
6
CONTINUOUS
370
18
0
LAYER
5
2C
330
2
100
AcDbSymbolTableRecord
100
AcDbLayerTableRecord
2
S-ANNO-DIMS
70
0
62
7
6
CONTINUOUS
370
13
0
LAYER
5
2D
330
2
100
AcDbSymbolTableRecord
100
AcDbLayerTableRecord
2
S-ANNO-TTLB
70
0
62
7
6
CONTINUOUS
370
50
0
LAYER
5
2E
330
2
100
AcDbSymbolTableRecord
100
AcDbLayerTableRecord
2
S-DETL-BRKL
70
0
62
7
6
CONTINUOUS
370
25
0
ENDTAB
0
TABLE
2
STYLE
5
3
330
0
100
AcDbSymbolTable
70
2
0
STYLE
5
2F
330
3
100
AcDbSymbolTableRecord
100
AcDbTextStyleTableRecord
2
STANDARD
70
0
40
0.0
41
1.0
50
0.0
71
0
42
1.0
3
txt
4

0
STYLE
5
30
330
3
100
AcDbSymbolTableRecord
100
AcDbTextStyleTableRecord
2
KERF
70
0
40
0.0
41
1.0
50
0.0
71
0
42
1.0
3
romans.shx
4

0
ENDTAB
0
TABLE
2
VIEW
5
5
330
0
100
AcDbSymbolTable
70
0
0
ENDTAB
0
TABLE
2
UCS
5
6
330
0
100
AcDbSymbolTable
70
0
0
ENDTAB
0
TABLE
2
APPID
5
9
330
0
100
AcDbSymbolTable
70
1
0
APPID
5
31
330
9
100
AcDbSymbolTableRecord
100
AcDbRegAppTableRecord
2
ACAD
70
0
0
ENDTAB
0
TABLE
2
BLOCK_RECORD
5
1
330
0
100
AcDbSymbolTable
70
2
0
BLOCK_RECORD
5
10
330
1
100
AcDbSymbolTableRecord
100
AcDbBlockTableRecord
2
*Model_Space
0
BLOCK_RECORD
5
11
330
1
100
AcDbSymbolTableRecord
100
AcDbBlockTableRecord
2
*Paper_Space
0
ENDTAB
0
ENDSEC
0
SECTION
2
BLOCKS
0
BLOCK
5
12
330
10
100
AcDbEntity
8
0
100
AcDbBlockBegin
2
*Model_Space
70
0
10
0.0
20
0.0
30
0.0
3
*Model_Space
1

0
ENDBLK
5
13
330
10
100
AcDbEntity
8
0
100
AcDbBlockEnd
0
BLOCK
5
14
330
11
100
AcDbEntity
8
0
100
AcDbBlockBegin
2
*Paper_Space
70
0
10
0.0
20
0.0
30
0.0
3
*Paper_Space
1

0
ENDBLK
5
15
330
11
100
AcDbEntity
8
0
100
AcDbBlockEnd
0
ENDSEC
0
SECTION
2
ENTITIES
0
HATCH
5
32
330
10
100
AcDbEntity
8
S-DETL-PATT
100
AcDbHatch
10
0.0
20
0.0
30
0.0
210
0.0
220
0.0
230
1.0
2
ANSI31
70
0
71
0
91
1
92
3
72
0
73
1
93
4
10
0.0
20
-24.0
10
0.0
20
-28.0
10
1.25
20
-28.0
10
1.25
20
-24.0
97
0
75
0
76
1
52
0.0
41
1.0
77
0
78
1
53
45.0
43
0.0
44
0.0
45
-0.7955
46
0.7955
79
0
98
0
0
HATCH
5
33
330
10
100
AcDbEntity
8
S-DETL-PATT
100
AcDbHatch
10
0.0
20
0.0
30
0.0
210
0.0
220
0.0
230
1.0
2
ANSI31
70
0
71
0
91
1
92
3
72
0
73
1
93
4
10
6.375
20
-24.0
10
6.375
20
-28.0
10
7.625
20
-28.0
10
7.625
20
-24.0
97
0
75
0
76
1
52
0.0
41
1.0
77
0
78
1
53
45.0
43
0.0
44
0.0
45
-0.7955
46
0.7955
79
0
98
0
0
HATCH
5
34
330
10
100
AcDbEntity
8
S-DETL-PATT
100
AcDbHatch
10
0.0
20
0.0
30
0.0
210
0.0
220
0.0
230
1.0
2
KERF-CONC
70
0
71
0
91
1
92
3
72
0
73
1
93
4
10
1.25
20
-24.0
10
1.25
20
-28.0
10
6.375
20
-28.0
10
6.375
20
-24.0
97
0
75
0
76
1
52
0.0
41
1.0
77
0
78
5
53
0.0
43
0.0
44
0.0
45
0.8433
46
0.7299
79
2
49
0.0
49
-1.6875
53
0.0
43
0.423
44
0.36
45
0.8433
46
0.7299
79
2
49
0.0
49
-1.6875
53
60.0
43
0.99
44
0.18
45
-0.5625
46
2.9228
79
2
49
0.315
49
-4.185
53
180.0
43
1.305
44
0.45
45
-2.25
46
-1.9485
79
2
49
0.315
49
-4.185
53
300.0
43
0.99
44
0.45
45
2.8125
46
-0.9743
79
2
49
0.315
49
-4.185
98
0
0
HATCH
5
35
330
10
100
AcDbEntity
8
S-DETL-PATT
100
AcDbHatch
10
0.0
20
0.0
30
0.0
210
0.0
220
0.0
230
1.0
2
ANSI31
70
0
71
0
91
1
92
3
72
0
73
1
93
4
10
0.0
20
-23.625
10
1.25
20
-23.625
10
1.25
20
-16.0
10
0.0
20
-16.0
97
0
75
0
76
1
52
0.0
41
1.0
77
0
78
1
53
45.0
43
0.0
44
0.0
45
-0.7955
46
0.7955
79
0
98
0
0
HATCH
5
36
330
10
100
AcDbEntity
8
S-DETL-PATT
100
AcDbHatch
10
0.0
20
0.0
30
0.0
210
0.0
220
0.0
230
1.0
2
ANSI31
70
0
71
0
91
1
92
3
72
0
73
1
93
4
10
6.375
20
-23.625
10
7.625
20
-23.625
10
7.625
20
-16.0
10
6.375
20
-16.0
97
0
75
0
76
1
52
0.0
41
1.0
77
0
78
1
53
45.0
43
0.0
44
0.0
45
-0.7955
46
0.7955
79
0
98
0
0
HATCH
5
37
330
10
100
AcDbEntity
8
S-DETL-PATT
100
AcDbHatch
10
0.0
20
0.0
30
0.0
210
0.0
220
0.0
230
1.0
2
KERF-CONC
70
0
71
0
91
1
92
3
72
0
73
1
93
4
10
1.25
20
-23.625
10
6.375
20
-23.625
10
6.375
20
-16.0
10
1.25
20
-16.0
97
0
75
0
76
1
52
0.0
41
1.0
77
0
78
5
53
0.0
43
0.0
44
0.0
45
0.8433
46
0.7299
79
2
49
0.0
49
-1.6875
53
0.0
43
0.423
44
0.36
45
0.8433
46
0.7299
79
2
49
0.0
49
-1.6875
53
60.0
43
0.99
44
0.18
45
-0.5625
46
2.9228
79
2
49
0.315
49
-4.185
53
180.0
43
1.305
44
0.45
45
-2.25
46
-1.9485
79
2
49
0.315
49
-4.185
53
300.0
43
0.99
44
0.45
45
2.8125
46
-0.9743
79
2
49
0.315
49
-4.185
98
0
0
HATCH
5
38
330
10
100
AcDbEntity
8
S-DETL-PATT
100
AcDbHatch
10
0.0
20
0.0
30
0.0
210
0.0
220
0.0
230
1.0
2
ANSI31
70
0
71
0
91
1
92
3
72
0
73
1
93
4
10
0.0
20
-15.625
10
1.25
20
-15.625
10
1.25
20
-8.0
10
0.0
20
-8.0
97
0
75
0
76
1
52
0.0
41
1.0
77
0
78
1
53
45.0
43
0.0
44
0.0
45
-0.7955
46
0.7955
79
0
98
0
0
HATCH
5
39
330
10
100
AcDbEntity
8
S-DETL-PATT
100
AcDbHatch
10
0.0
20
0.0
30
0.0
210
0.0
220
0.0
230
1.0
2
ANSI31
70
0
71
0
91
1
92
3
72
0
73
1
93
4
10
6.375
20
-15.625
10
7.625
20
-15.625
10
7.625
20
-8.0
10
6.375
20
-8.0
97
0
75
0
76
1
52
0.0
41
1.0
77
0
78
1
53
45.0
43
0.0
44
0.0
45
-0.7955
46
0.7955
79
0
98
0
0
HATCH
5
3A
330
10
100
AcDbEntity
8
S-DETL-PATT
100
AcDbHatch
10
0.0
20
0.0
30
0.0
210
0.0
220
0.0
230
1.0
2
KERF-CONC
70
0
71
0
91
1
92
3
72
0
73
1
93
4
10
1.25
20
-15.625
10
6.375
20
-15.625
10
6.375
20
-8.0
10
1.25
20
-8.0
97
0
75
0
76
1
52
0.0
41
1.0
77
0
78
5
53
0.0
43
0.0
44
0.0
45
0.8433
46
0.7299
79
2
49
0.0
49
-1.6875
53
0.0
43
0.423
44
0.36
45
0.8433
46
0.7299
79
2
49
0.0
49
-1.6875
53
60.0
43
0.99
44
0.18
45
-0.5625
46
2.9228
79
2
49
0.315
49
-4.185
53
180.0
43
1.305
44
0.45
45
-2.25
46
-1.9485
79
2
49
0.315
49
-4.185
53
300.0
43
0.99
44
0.45
45
2.8125
46
-0.9743
79
2
49
0.315
49
-4.185
98
0
0
HATCH
5
3B
330
10
100
AcDbEntity
8
S-DETL-PATT
100
AcDbHatch
10
0.0
20
0.0
30
0.0
210
0.0
220
0.0
230
1.0
2
ANSI31
70
0
71
0
91
1
92
3
72
0
73
1
93
4
10
0.0
20
-7.625
10
1.25
20
-7.625
10
1.25
20
0.0
10
0.0
20
0.0
97
0
75
0
76
1
52
0.0
41
1.0
77
0
78
1
53
45.0
43
0.0
44
0.0
45
-0.7955
46
0.7955
79
0
98
0
0
HATCH
5
3C
330
10
100
AcDbEntity
8
S-DETL-PATT
100
AcDbHatch
10
0.0
20
0.0
30
0.0
210
0.0
220
0.0
230
1.0
2
ANSI31
70
0
71
0
91
1
92
3
72
0
73
1
93
4
10
6.375
20
-7.625
10
7.625
20
-7.625
10
7.625
20
0.0
10
6.375
20
0.0
97
0
75
0
76
1
52
0.0
41
1.0
77
0
78
1
53
45.0
43
0.0
44
0.0
45
-0.7955
46
0.7955
79
0
98
0
0
HATCH
5
3D
330
10
100
AcDbEntity
8
S-DETL-PATT
100
AcDbHatch
10
0.0
20
0.0
30
0.0
210
0.0
220
0.0
230
1.0
2
KERF-CONC
70
0
71
0
91
3
92
3
72
0
73
1
93
64
10
1.25
20
0.0
10
1.25
20
-7.625
10
6.375
20
-7.625
10
6.375
20
0.0
10
4.125
20
0.0
10
4.125
20
-6.0
10
4.132
20
-6.0978
10
4.1528
20
-6.1937
10
4.1871
20
-6.2856
10
4.2341
20
-6.3717
10
4.2929
20
-6.4502
10
4.3623
20
-6.5196
10
4.4408
20
-6.5784
10
4.5269
20
-6.6254
10
4.6188
20
-6.6597
10
4.7147
20
-6.6805
10
4.8125
20
-6.6875
10
4.8225
20
-6.6875
10
4.9189
20
-6.6806
10
5.0134
20
-6.6601
10
5.1039
20
-6.6263
10
5.1888
20
-6.5799
10
5.2662
20
-6.522
10
5.3345
20
-6.4537
10
5.3924
20
-6.3763
10
5.4388
20
-6.2914
10
5.4726
20
-6.2009
10
5.4931
20
-6.1064
10
5.5
20
-6.01
10
5.5
20
-4.0
10
6.125
20
-4.0
10
6.125
20
-6.01
10
6.1179
20
-6.1461
10
6.0965
20
-6.2808
10
6.0613
20
-6.4125
10
6.0124
20
-6.5398
10
5.9505
20
-6.6612
10
5.8762
20
-6.7756
10
5.7904
20
-6.8815
10
5.694
20
-6.9779
10
5.5881
20
-7.0637
10
5.4737
20
-7.138
10
5.3523
20
-7.1999
10
5.225
20
-7.2488
10
5.0933
20
-7.284
10
4.9586
20
-7.3054
10
4.8225
20
-7.3125
10
4.8125
20
-7.3125
10
4.6753
20
-7.3053
10
4.5396
20
-7.2838
10
4.4069
20
-7.2483
10
4.2787
20
-7.199
10
4.1563
20
-7.1367
10
4.041
20
-7.0618
10
3.9343
20
-6.9754
10
3.8371
20
-6.8782
10
3.7507
20
-6.7715
10
3.6758
20
-6.6563
10
3.6135
20
-6.5338
10
3.5642
20
-6.4056
10
3.5287
20
-6.2729
10
3.5072
20
-6.1372
10
3.5
20
-6.0
10
3.5
20
0.0
97
0
92
2
72
0
73
1
93
28
10
2.25
20
-5.8125
10
2.2578
20
-5.743
10
2.2809
20
-5.6769
10
2.3182
20
-5.6177
10
2.3677
20
-5.5682
10
2.4269
20
-5.5309
10
2.493
20
-5.5078
10
2.5625
20
-5.5
10
2.632
20
-5.5078
10
2.6981
20
-5.5309
10
2.7573
20
-5.5682
10
2.8068
20
-5.6177
10
2.8441
20
-5.6769
10
2.8672
20
-5.743
10
2.875
20
-5.8125
10
2.8672
20
-5.882
10
2.8441
20
-5.9481
10
2.8068
20
-6.0073
10
2.7573
20
-6.0568
10
2.6981
20
-6.0941
10
2.632
20
-6.1172
10
2.5625
20
-6.125
10
2.493
20
-6.1172
10
2.4269
20
-6.0941
10
2.3677
20
-6.0568
10
2.3182
20
-6.0073
10
2.2809
20
-5.9481
10
2.2578
20
-5.882
97
0
92
2
72
0
73
1
93
28
10
4.75
20
-5.8125
10
4.7578
20
-5.743
10
4.7809
20
-5.6769
10
4.8182
20
-5.6177
10
4.8677
20
-5.5682
10
4.9269
20
-5.5309
10
4.993
20
-5.5078
10
5.0625
20
-5.5
10
5.132
20
-5.5078
10
5.1981
20
-5.5309
10
5.2573
20
-5.5682
10
5.3068
20
-5.6177
10
5.3441
20
-5.6769
10
5.3672
20
-5.743
10
5.375
20
-5.8125
10
5.3672
20
-5.882
10
5.3441
20
-5.9481
10
5.3068
20
-6.0073
10
5.2573
20
-6.0568
10
5.1981
20
-6.0941
10
5.132
20
-6.1172
10
5.0625
20
-6.125
10
4.993
20
-6.1172
10
4.9269
20
-6.0941
10
4.8677
20
-6.0568
10
4.8182
20
-6.0073
10
4.7809
20
-5.9481
10
4.7578
20
-5.882
97
0
75
0
76
1
52
0.0
41
1.0
77
0
78
5
53
0.0
43
0.0
44
0.0
45
0.8433
46
0.7299
79
2
49
0.0
49
-1.6875
53
0.0
43
0.423
44
0.36
45
0.8433
46
0.7299
79
2
49
0.0
49
-1.6875
53
60.0
43
0.99
44
0.18
45
-0.5625
46
2.9228
79
2
49
0.315
49
-4.185
53
180.0
43
1.305
44
0.45
45
-2.25
46
-1.9485
79
2
49
0.315
49
-4.185
53
300.0
43
0.99
44
0.45
45
2.8125
46
-0.9743
79
2
49
0.315
49
-4.185
98
0
0
HATCH
5
3E
330
10
100
AcDbEntity
8
S-DETL-PATT
100
AcDbHatch
10
0.0
20
0.0
30
0.0
210
0.0
220
0.0
230
1.0
2
KERF-SAND
70
0
71
0
91
1
92
3
72
0
73
1
93
4
10
7.625
20
1.5
10
7.625
20
1.0
10
30.0
20
1.0
10
30.0
20
1.5
97
0
75
0
76
1
52
0.0
41
1.0
77
0
78
2
53
0.0
43
0.0
44
0.0
45
0.2254
46
0.3895
79
2
49
0.0
49
-0.45
53
0.0
43
0.1123
44
0.1944
45
0.2254
46
0.3895
79
2
49
0.0
49
-0.45
98
0
0
LWPOLYLINE
5
3F
330
10
100
AcDbEntity
8
S-DETL-BYND
370
25
100
AcDbPolyline
90
2
70
0
10
-17.8125
20
-1.0
10
0.1875
20
5.0
0
LWPOLYLINE
5
40
330
10
100
AcDbEntity
8
S-DETL-BYND
370
25
100
AcDbPolyline
90
2
70
0
10
1.6875
20
5.5
10
30.0
20
14.9375
0
LWPOLYLINE
5
41
330
10
100
AcDbEntity
8
S-DETL-BYND
370
25
100
AcDbPolyline
90
2
70
0
10
7.4375
20
1.5
10
7.625
20
1.5
0
LWPOLYLINE
5
42
330
10
100
AcDbEntity
8
S-DETL-BYND
370
25
100
AcDbPolyline
90
2
70
0
10
30.0
20
5.0
10
1.6875
20
5.0
0
LWPOLYLINE
5
43
330
10
100
AcDbEntity
8
S-DETL-HIDN
6
DASHED
370
18
100
AcDbPolyline
90
2
70
0
10
2.375
20
2.0
10
3.5
20
2.0
0
LWPOLYLINE
5
44
330
10
100
AcDbEntity
8
S-DETL-HIDN
6
DASHED
370
18
100
AcDbPolyline
90
4
70
0
10
4.125
20
2.0
10
5.6875
20
2.0
10
5.6875
20
6.5333
10
1.6875
20
6.5333
0
LWPOLYLINE
5
45
330
10
100
AcDbEntity
8
S-DETL-STL
370
35
100
AcDbPolyline
90
3
70
0
10
2.375
20
1.5
10
2.375
20
4.75
10
1.6875
20
4.75
0
LWPOLYLINE
5
46
330
10
100
AcDbEntity
8
S-DETL-BYND
370
25
100
AcDbPolyline
90
3
70
0
10
1.25
20
-28.0
10
1.25
20
-24.0
10
0.0
20
-24.0
0
LWPOLYLINE
5
47
330
10
100
AcDbEntity
8
S-DETL-CUT
370
50
100
AcDbPolyline
90
2
70
0
10
0.0
20
-24.0
10
0.0
20
-28.0
0
LWPOLYLINE
5
48
330
10
100
AcDbEntity
8
S-DETL-CUT
370
50
100
AcDbPolyline
90
2
70
0
10
7.625
20
-28.0
10
7.625
20
-24.0
0
LWPOLYLINE
5
49
330
10
100
AcDbEntity
8
S-DETL-BYND
370
25
100
AcDbPolyline
90
3
70
0
10
7.625
20
-24.0
10
6.375
20
-24.0
10
6.375
20
-28.0
0
LWPOLYLINE
5
4A
330
10
100
AcDbEntity
8
S-DETL-BYND
370
25
100
AcDbPolyline
90
2
70
0
10
6.375
20
-24.0
10
1.25
20
-24.0
0
LWPOLYLINE
5
4B
330
10
100
AcDbEntity
8
S-DETL-CUT
370
50
100
AcDbPolyline
90
2
70
0
10
7.625
20
-24.0
10
7.625
20
-23.625
0
LWPOLYLINE
5
4C
330
10
100
AcDbEntity
8
S-DETL-BYND
370
25
100
AcDbPolyline
90
4
70
0
10
7.625
20
-23.625
10
6.375
20
-23.625
10
1.25
20
-23.625
10
0.0
20
-23.625
0
LWPOLYLINE
5
4D
330
10
100
AcDbEntity
8
S-DETL-CUT
370
50
100
AcDbPolyline
90
2
70
0
10
0.0
20
-23.625
10
0.0
20
-24.0
0
LWPOLYLINE
5
4E
330
10
100
AcDbEntity
8
S-DETL-BYND
370
25
100
AcDbPolyline
90
3
70
0
10
1.25
20
-23.625
10
1.25
20
-16.0
10
0.0
20
-16.0
0
LWPOLYLINE
5
4F
330
10
100
AcDbEntity
8
S-DETL-CUT
370
50
100
AcDbPolyline
90
2
70
0
10
0.0
20
-16.0
10
0.0
20
-23.625
0
LWPOLYLINE
5
50
330
10
100
AcDbEntity
8
S-DETL-CUT
370
50
100
AcDbPolyline
90
2
70
0
10
7.625
20
-23.625
10
7.625
20
-16.0
0
LWPOLYLINE
5
51
330
10
100
AcDbEntity
8
S-DETL-BYND
370
25
100
AcDbPolyline
90
3
70
0
10
7.625
20
-16.0
10
6.375
20
-16.0
10
6.375
20
-23.625
0
LWPOLYLINE
5
52
330
10
100
AcDbEntity
8
S-DETL-BYND
370
25
100
AcDbPolyline
90
2
70
0
10
6.375
20
-16.0
10
1.25
20
-16.0
0
LWPOLYLINE
5
53
330
10
100
AcDbEntity
8
S-DETL-CUT
370
50
100
AcDbPolyline
90
2
70
0
10
7.625
20
-16.0
10
7.625
20
-15.625
0
LWPOLYLINE
5
54
330
10
100
AcDbEntity
8
S-DETL-BYND
370
25
100
AcDbPolyline
90
4
70
0
10
7.625
20
-15.625
10
6.375
20
-15.625
10
1.25
20
-15.625
10
0.0
20
-15.625
0
LWPOLYLINE
5
55
330
10
100
AcDbEntity
8
S-DETL-CUT
370
50
100
AcDbPolyline
90
2
70
0
10
0.0
20
-15.625
10
0.0
20
-16.0
0
LWPOLYLINE
5
56
330
10
100
AcDbEntity
8
S-DETL-BYND
370
25
100
AcDbPolyline
90
3
70
0
10
1.25
20
-15.625
10
1.25
20
-8.0
10
0.0
20
-8.0
0
LWPOLYLINE
5
57
330
10
100
AcDbEntity
8
S-DETL-CUT
370
50
100
AcDbPolyline
90
2
70
0
10
0.0
20
-8.0
10
0.0
20
-15.625
0
LWPOLYLINE
5
58
330
10
100
AcDbEntity
8
S-DETL-CUT
370
50
100
AcDbPolyline
90
2
70
0
10
7.625
20
-15.625
10
7.625
20
-8.0
0
LWPOLYLINE
5
59
330
10
100
AcDbEntity
8
S-DETL-BYND
370
25
100
AcDbPolyline
90
3
70
0
10
7.625
20
-8.0
10
6.375
20
-8.0
10
6.375
20
-15.625
0
LWPOLYLINE
5
5A
330
10
100
AcDbEntity
8
S-DETL-BYND
370
25
100
AcDbPolyline
90
2
70
0
10
6.375
20
-8.0
10
1.25
20
-8.0
0
LWPOLYLINE
5
5B
330
10
100
AcDbEntity
8
S-DETL-CUT
370
50
100
AcDbPolyline
90
2
70
0
10
7.625
20
-8.0
10
7.625
20
-7.625
0
LWPOLYLINE
5
5C
330
10
100
AcDbEntity
8
S-DETL-BYND
370
25
100
AcDbPolyline
90
4
70
0
10
7.625
20
-7.625
10
6.375
20
-7.625
10
1.25
20
-7.625
10
0.0
20
-7.625
0
LWPOLYLINE
5
5D
330
10
100
AcDbEntity
8
S-DETL-CUT
370
50
100
AcDbPolyline
90
2
70
0
10
0.0
20
-7.625
10
0.0
20
-8.0
0
LWPOLYLINE
5
5E
330
10
100
AcDbEntity
8
S-DETL-BYND
370
25
100
AcDbPolyline
90
2
70
0
10
1.25
20
-7.625
10
1.25
20
0.0
0
LWPOLYLINE
5
5F
330
10
100
AcDbEntity
8
S-DETL-CUT
370
50
100
AcDbPolyline
90
3
70
0
10
1.25
20
0.0
10
0.0
20
0.0
10
0.0
20
-7.625
0
LWPOLYLINE
5
60
330
10
100
AcDbEntity
8
S-DETL-CUT
370
50
100
AcDbPolyline
90
3
70
0
10
7.625
20
-7.625
10
7.625
20
0.0
10
6.375
20
0.0
0
LWPOLYLINE
5
61
330
10
100
AcDbEntity
8
S-DETL-BYND
370
25
100
AcDbPolyline
90
2
70
0
10
6.375
20
0.0
10
6.375
20
-7.625
0
LWPOLYLINE
5
62
330
10
100
AcDbEntity
8
S-DETL-CUT
370
50
100
AcDbPolyline
90
2
70
0
10
6.375
20
0.0
10
1.25
20
0.0
0
LWPOLYLINE
5
63
330
10
100
AcDbEntity
8
S-DETL-CUT
370
50
100
AcDbPolyline
90
4
70
0
10
7.4375
20
0.0
10
7.4375
20
1.5
10
0.1875
20
1.5
10
0.1875
20
0.0
0
LWPOLYLINE
5
64
330
10
100
AcDbEntity
8
S-DETL-CUT
370
50
100
AcDbPolyline
90
4
70
0
10
1.6875
20
1.5
10
1.6875
20
7.0
10
0.1875
20
7.0
10
0.1875
20
1.5
0
LWPOLYLINE
5
65
330
10
100
AcDbEntity
8
S-DETL-CUT
370
50
100
AcDbPolyline
90
4
70
1
10
-19.3125
20
-2.8107
10
-17.8125
20
-2.8107
10
-17.8125
20
2.6893
10
-19.3125
20
2.6893
0
LWPOLYLINE
5
66
330
10
100
AcDbEntity
8
S-DETL-CUT
370
50
100
AcDbPolyline
90
4
70
0
10
-19.3125
20
2.6893
10
-20.0625
20
2.6893
10
-20.0625
20
-2.8107
10
-19.3125
20
-2.8107
0
LWPOLYLINE
5
67
330
10
100
AcDbEntity
8
S-DETL-CUT
370
50
100
AcDbPolyline
90
3
70
0
10
-19.3125
20
-2.8107
10
-19.3125
20
-3.1857
10
0.0
20
-3.1857
0
LWPOLYLINE
5
68
330
10
100
AcDbEntity
8
S-DETL-CUT
370
50
100
AcDbPolyline
90
2
70
0
10
0.0
20
-2.8107
10
-17.8125
20
-2.8107
0
LWPOLYLINE
5
69
330
10
100
AcDbEntity
8
S-DETL-CUT
370
50
100
AcDbPolyline
90
4
70
0
10
30.0
20
19.088
10
-17.9508
20
3.1044
10
-17.8125
20
2.6893
10
30.0
20
18.6268
0
LWPOLYLINE
5
6A
330
10
100
AcDbEntity
8
S-DETL-CUT
370
35
100
AcDbPolyline
90
2
70
0
10
-18.0143
20
3.2949
10
30.0
20
19.2996
0
LWPOLYLINE
5
6B
330
10
100
AcDbEntity
8
S-DETL-CUT
370
50
100
AcDbPolyline
90
4
70
0
10
30.0
20
1.5
10
7.625
20
1.5
10
7.625
20
1.0
10
30.0
20
1.0
0
LWPOLYLINE
5
6C
330
10
100
AcDbEntity
8
S-DETL-BYND
370
25
100
AcDbPolyline
90
2
70
0
10
0.1875
20
0.0
10
7.4375
20
1.5
0
LWPOLYLINE
5
6D
330
10
100
AcDbEntity
8
S-DETL-BYND
370
25
100
AcDbPolyline
90
2
70
0
10
7.4375
20
0.0
10
0.1875
20
1.5
0
LWPOLYLINE
5
6E
330
10
100
AcDbEntity
8
S-DETL-BYND
370
25
100
AcDbPolyline
90
2
70
0
10
0.1875
20
1.5
10
1.6875
20
7.0
0
LWPOLYLINE
5
6F
330
10
100
AcDbEntity
8
S-DETL-BYND
370
25
100
AcDbPolyline
90
2
70
0
10
-19.3125
20
-2.8107
10
-17.8125
20
2.6893
0
LWPOLYLINE
5
70
330
10
100
AcDbEntity
8
S-DETL-BYND
370
25
100
AcDbPolyline
90
2
70
0
10
-17.8125
20
-2.8107
10
-19.3125
20
2.6893
0
LWPOLYLINE
5
71
330
10
100
AcDbEntity
8
S-DETL-BYND
370
25
100
AcDbPolyline
90
2
70
0
10
-20.0625
20
-2.8107
10
-19.3125
20
2.6893
0
HATCH
5
72
330
10
100
AcDbEntity
8
S-DETL-STL
100
AcDbHatch
10
0.0
20
0.0
30
0.0
210
0.0
220
0.0
230
1.0
2
SOLID
70
1
71
0
91
1
92
3
72
1
73
1
93
2
10
2.25
20
-5.8125
42
1.0
10
2.875
20
-5.8125
42
1.0
97
0
75
0
76
1
98
0
0
HATCH
5
73
330
10
100
AcDbEntity
8
S-DETL-STL
100
AcDbHatch
10
0.0
20
0.0
30
0.0
210
0.0
220
0.0
230
1.0
2
SOLID
70
1
71
0
91
1
92
3
72
1
73
1
93
2
10
4.75
20
-5.8125
42
1.0
10
5.375
20
-5.8125
42
1.0
97
0
75
0
76
1
98
0
0
HATCH
5
74
330
10
100
AcDbEntity
8
S-DETL-STL
100
AcDbHatch
10
0.0
20
0.0
30
0.0
210
0.0
220
0.0
230
1.0
2
SOLID
70
1
71
0
91
1
92
3
72
1
73
1
93
12
10
3.5
20
2.75
42
0.0
10
3.5
20
-6.0
42
0.41421356
10
4.8125
20
-7.3125
42
0.0
10
4.8225
20
-7.3125
42
0.41421356
10
6.125
20
-6.01
42
0.0
10
6.125
20
-4.0
42
-0.0
10
5.5
20
-4.0
42
-0.0
10
5.5
20
-6.01
42
-0.41421356
10
4.8225
20
-6.6875
42
-0.0
10
4.8125
20
-6.6875
42
-0.41421356
10
4.125
20
-6.0
42
-0.0
10
4.125
20
2.75
42
-0.0
97
0
75
0
76
1
98
0
0
HATCH
5
75
330
10
100
AcDbEntity
8
S-DETL-STL
100
AcDbHatch
10
0.0
20
0.0
30
0.0
210
0.0
220
0.0
230
1.0
2
SOLID
70
1
71
0
91
1
92
3
72
0
73
1
93
4
10
2.875
20
2.0781
10
4.75
20
2.0781
10
4.75
20
2.2031
10
2.875
20
2.2031
97
0
75
0
76
1
98
0
0
HATCH
5
76
330
10
100
AcDbEntity
8
S-DETL-STL
100
AcDbHatch
10
0.0
20
0.0
30
0.0
210
0.0
220
0.0
230
1.0
2
SOLID
70
1
71
0
91
1
92
3
72
0
73
1
93
4
10
3.3438
20
2.2031
10
4.2813
20
2.2031
10
4.2813
20
2.75
10
3.3438
20
2.75
97
0
75
0
76
1
98
0
0
LWPOLYLINE
5
77
330
10
100
AcDbEntity
8
S-DETL-STL
370
35
100
AcDbPolyline
90
4
70
0
10
4.125
20
-28.0
10
4.125
20
-2.0
10
3.5
20
-2.0
10
3.5
20
-28.0
0
LWPOLYLINE
5
78
330
10
100
AcDbEntity
8
S-DETL-STL
370
35
100
AcDbPolyline
90
2
70
1
10
2.25
20
-5.8125
42
1.0
10
2.875
20
-5.8125
42
1.0
0
LWPOLYLINE
5
79
330
10
100
AcDbEntity
8
S-DETL-STL
370
35
100
AcDbPolyline
90
2
70
1
10
4.75
20
-5.8125
42
1.0
10
5.375
20
-5.8125
42
1.0
0
LWPOLYLINE
5
7A
330
10
100
AcDbEntity
8
S-DETL-STL
370
35
100
AcDbPolyline
90
4
70
0
10
4.125
20
-2.0
10
4.125
20
2.75
10
3.5
20
2.75
10
3.5
20
-2.0
0
LWPOLYLINE
5
7B
330
10
100
AcDbEntity
8
S-DETL-STL
370
35
100
AcDbPolyline
90
10
70
0
10
3.5
20
-6.0
42
0.41421356
10
4.8125
20
-7.3125
10
4.8225
20
-7.3125
42
0.41421356
10
6.125
20
-6.01
10
6.125
20
-4.0
10
5.5
20
-4.0
10
5.5
20
-6.01
42
-0.41421356
10
4.8225
20
-6.6875
10
4.8125
20
-6.6875
42
-0.41421356
10
4.125
20
-6.0
0
LWPOLYLINE
5
7C
330
10
100
AcDbEntity
8
S-ANNO-TTLB
370
70
100
AcDbPolyline
90
4
70
1
10
2.875
20
2.0781
10
4.75
20
2.0781
10
4.75
20
2.2031
10
2.875
20
2.2031
0
LWPOLYLINE
5
7D
330
10
100
AcDbEntity
8
S-DETL-STL
370
35
100
AcDbPolyline
90
3
70
0
10
4.2813
20
2.2031
10
4.2813
20
2.75
10
4.125
20
2.75
0
LWPOLYLINE
5
7E
330
10
100
AcDbEntity
8
S-DETL-STL
370
35
100
AcDbPolyline
90
3
70
0
10
3.5
20
2.75
10
3.3438
20
2.75
10
3.3438
20
2.2031
0
LWPOLYLINE
5
7F
330
10
100
AcDbEntity
8
S-DETL-BRKL
370
25
100
AcDbPolyline
90
6
70
0
10
-0.75
20
-28.0
10
2.3125
20
-28.0
10
3.3325
20
-26.5
10
4.2925
20
-29.5
10
5.3125
20
-28.0
10
8.375
20
-28.0
0
LWPOLYLINE
5
80
330
10
100
AcDbEntity
8
S-DETL-BRKL
370
25
100
AcDbPolyline
90
2
70
0
10
30.0
20
0.25
10
30.0
20
2.25
0
LWPOLYLINE
5
81
330
10
100
AcDbEntity
8
S-DETL-BRKL
370
25
100
AcDbPolyline
90
2
70
0
10
30.0
20
17.8768
10
30.0
20
20.1015
0
TEXT
5
82
330
10
100
AcDbEntity
8
S-ANNO-NOTE
100
AcDbText
10
34.5
20
12.4589
30
0.0
40
1.125
1
ASPHALT SHINGLES ON #30
7
KERF
100
AcDbText
73
0
0
TEXT
5
83
330
10
100
AcDbEntity
8
S-ANNO-NOTE
100
AcDbText
10
34.5
20
10.6589
30
0.0
40
1.125
1
UNDERLAYMENT W/ DRIP EDGE AT
7
KERF
100
AcDbText
73
0
0
TEXT
5
84
330
10
100
AcDbEntity
8
S-ANNO-NOTE
100
AcDbText
10
34.5
20
8.8589
30
0.0
40
1.125
1
EAVE (IRC R905.1.1)*
7
KERF
100
AcDbText
73
0
0
LWPOLYLINE
5
85
330
10
100
AcDbEntity
8
S-ANNO-NOTE
370
18
100
AcDbPolyline
90
3
70
0
10
34.02
20
11.2214
10
32.52
20
11.2214
10
7.1298
20
11.2214
0
HATCH
5
86
330
10
100
AcDbEntity
8
S-ANNO-NOTE
100
AcDbHatch
10
0.0
20
0.0
30
0.0
210
0.0
220
0.0
230
1.0
2
SOLID
70
1
71
0
91
1
92
3
72
0
73
1
93
3
10
6.0048
20
11.2214
10
7.1298
20
10.8464
10
7.1298
20
11.5964
97
0
75
0
76
1
98
0
0
TEXT
5
87
330
10
100
AcDbEntity
8
S-ANNO-NOTE
100
AcDbText
10
34.5
20
6.9839
30
0.0
40
1.125
1
7/16" OSB ROOF SHEATHING
7
KERF
100
AcDbText
73
0
0
LWPOLYLINE
5
88
330
10
100
AcDbEntity
8
S-ANNO-NOTE
370
18
100
AcDbPolyline
90
3
70
0
10
34.02
20
7.5464
10
32.52
20
7.5464
10
7.1753
20
10.7367
0
HATCH
5
89
330
10
100
AcDbEntity
8
S-ANNO-NOTE
100
AcDbHatch
10
0.0
20
0.0
30
0.0
210
0.0
220
0.0
230
1.0
2
SOLID
70
1
71
0
91
1
92
3
72
0
73
1
93
3
10
6.0591
20
10.8772
10
7.1285
20
10.3647
10
7.2222
20
11.1088
97
0
75
0
76
1
98
0
0
TEXT
5
8A
330
10
100
AcDbEntity
8
S-ANNO-NOTE
100
AcDbText
10
34.5
20
5.1089
30
0.0
40
1.125
1
PRE-ENGINEERED WOOD TRUSS @
7
KERF
100
AcDbText
73
0
0
TEXT
5
8B
330
10
100
AcDbEntity
8
S-ANNO-NOTE
100
AcDbText
10
34.5
20
3.3089
30
0.0
40
1.125
1
24" O.C. PER MFR. DWGS (IRC
7
KERF
100
AcDbText
73
0
0
TEXT
5
8C
330
10
100
AcDbEntity
8
S-ANNO-NOTE
100
AcDbText
10
34.5
20
1.5089
30
0.0
40
1.125
1
R802.10)*
7
KERF
100
AcDbText
73
0
0
LWPOLYLINE
5
8D
330
10
100
AcDbEntity
8
S-ANNO-NOTE
370
18
100
AcDbPolyline
90
3
70
0
10
34.02
20
3.8714
10
32.52
20
3.8714
10
7.2776
20
8.6451
0
HATCH
5
8E
330
10
100
AcDbEntity
8
S-ANNO-NOTE
100
AcDbHatch
10
0.0
20
0.0
30
0.0
210
0.0
220
0.0
230
1.0
2
SOLID
70
1
71
0
91
1
92
3
72
0
73
1
93
3
10
6.1722
20
8.8541
10
7.2079
20
8.2766
10
7.3473
20
9.0135
97
0
75
0
76
1
98
0
0
TEXT
5
8F
330
10
100
AcDbEntity
8
S-ANNO-NOTE
100
AcDbText
10
-54.8571
20
0.9125
30
0.0
40
1.125
1
SIMPSON H2.5A HURRICANE TIE
7
KERF
100
AcDbText
73
0
0
TEXT
5
90
330
10
100
AcDbEntity
8
S-ANNO-NOTE
100
AcDbText
10
-54.8571
20
-0.8875
30
0.0
40
1.125
1
@ EA. TRUSS, INSTALL PER
7
KERF
100
AcDbText
73
0
0
TEXT
5
91
330
10
100
AcDbEntity
8
S-ANNO-NOTE
100
AcDbText
10
-54.8571
20
-2.6875
30
0.0
40
1.125
1
MFR. (IRC R802.11.1)*
7
KERF
100
AcDbText
73
0
0
LWPOLYLINE
5
92
330
10
100
AcDbEntity
8
S-ANNO-NOTE
370
18
100
AcDbPolyline
90
3
70
0
10
-28.02
20
-0.325
10
-26.52
20
-0.325
10
0.9144
20
2.99
0
HATCH
5
93
330
10
100
AcDbEntity
8
S-ANNO-NOTE
100
AcDbHatch
10
0.0
20
0.0
30
0.0
210
0.0
220
0.0
230
1.0
2
SOLID
70
1
71
0
91
1
92
3
72
0
73
1
93
3
10
2.0313
20
3.125
10
0.8694
20
3.3623
10
0.9594
20
2.6178
97
0
75
0
76
1
98
0
0
TEXT
5
94
330
10
100
AcDbEntity
8
S-ANNO-NOTE
100
AcDbText
10
-53.7857
20
4.5875
30
0.0
40
1.125
1
2X6 BIRD BLOCKING BETWEEN
7
KERF
100
AcDbText
73
0
0
TEXT
5
95
330
10
100
AcDbEntity
8
S-ANNO-NOTE
100
AcDbText
10
-53.7857
20
2.7875
30
0.0
40
1.125
1
TRUSSES
7
KERF
100
AcDbText
73
0
0
LWPOLYLINE
5
96
330
10
100
AcDbEntity
8
S-ANNO-NOTE
370
18
100
AcDbPolyline
90
3
70
0
10
-28.02
20
4.25
10
-26.52
20
4.25
10
-0.1875
20
4.25
0
HATCH
5
97
330
10
100
AcDbEntity
8
S-ANNO-NOTE
100
AcDbHatch
10
0.0
20
0.0
30
0.0
210
0.0
220
0.0
230
1.0
2
SOLID
70
1
71
0
91
1
92
3
72
0
73
1
93
3
10
0.9375
20
4.25
10
-0.1875
20
4.625
10
-0.1875
20
3.875
97
0
75
0
76
1
98
0
0
TEXT
5
98
330
10
100
AcDbEntity
8
S-ANNO-NOTE
100
AcDbText
10
34.5
20
-2.2411
30
0.0
40
1.125
1
2X8 PT SILL PLATE W/ 5/8"
7
KERF
100
AcDbText
73
0
0
TEXT
5
99
330
10
100
AcDbEntity
8
S-ANNO-NOTE
100
AcDbText
10
34.5
20
-4.0411
30
0.0
40
1.125
1
DIA. J-BOLTS @ 48" O.C., 7"
7
KERF
100
AcDbText
73
0
0
TEXT
5
9A
330
10
100
AcDbEntity
8
S-ANNO-NOTE
100
AcDbText
10
34.5
20
-5.8411
30
0.0
40
1.125
1
MIN. EMBED. (IRC R403.1.6)*
7
KERF
100
AcDbText
73
0
0
LWPOLYLINE
5
9B
330
10
100
AcDbEntity
8
S-ANNO-NOTE
370
18
100
AcDbPolyline
90
3
70
0
10
34.02
20
-3.4786
10
32.52
20
-3.4786
10
4.9255
20
0.5861
0
HATCH
5
9C
330
10
100
AcDbEntity
8
S-ANNO-NOTE
100
AcDbHatch
10
0.0
20
0.0
30
0.0
210
0.0
220
0.0
230
1.0
2
SOLID
70
1
71
0
91
1
92
3
72
0
73
1
93
3
10
3.8125
20
0.75
10
4.8708
20
0.2151
10
4.9801
20
0.9571
97
0
75
0
76
1
98
0
0
TEXT
5
9D
330
10
100
AcDbEntity
8
S-ANNO-NOTE
100
AcDbText
10
-56.625
20
-10.1125
30
0.0
40
1.125
1
GROUTED BOND BEAM W/ (2) #5
7
KERF
100
AcDbText
73
0
0
TEXT
5
9E
330
10
100
AcDbEntity
8
S-ANNO-NOTE
100
AcDbText
10
-56.625
20
-11.9125
30
0.0
40
1.125
1
CONT. HORIZ.
7
KERF
100
AcDbText
73
0
0
LWPOLYLINE
5
9F
330
10
100
AcDbEntity
8
S-ANNO-NOTE
370
18
100
AcDbPolyline
90
3
70
0
10
-28.02
20
-10.45
10
-26.52
20
-10.45
10
1.4515
20
-5.9897
0
HATCH
5
A0
330
10
100
AcDbEntity
8
S-ANNO-NOTE
100
AcDbHatch
10
0.0
20
0.0
30
0.0
210
0.0
220
0.0
230
1.0
2
SOLID
70
1
71
0
91
1
92
3
72
0
73
1
93
3
10
2.5625
20
-5.8125
10
1.3925
20
-5.6193
10
1.5106
20
-6.36
97
0
75
0
76
1
98
0
0
TEXT
5
A1
330
10
100
AcDbEntity
8
S-ANNO-NOTE
100
AcDbText
10
34.5
20
-20.9625
30
0.0
40
1.125
1
#5 VERT. @ 32" O.C. IN
7
KERF
100
AcDbText
73
0
0
TEXT
5
A2
330
10
100
AcDbEntity
8
S-ANNO-NOTE
100
AcDbText
10
34.5
20
-22.7625
30
0.0
40
1.125
1
GROUTED CELLS
7
KERF
100
AcDbText
73
0
0
LWPOLYLINE
5
A3
330
10
100
AcDbEntity
8
S-ANNO-NOTE
370
18
100
AcDbPolyline
90
3
70
0
10
34.02
20
-21.3
10
32.52
20
-21.3
10
4.9114
20
-15.2411
0
HATCH
5
A4
330
10
100
AcDbEntity
8
S-ANNO-NOTE
100
AcDbHatch
10
0.0
20
0.0
30
0.0
210
0.0
220
0.0
230
1.0
2
SOLID
70
1
71
0
91
1
92
3
72
0
73
1
93
3
10
3.8125
20
-15.0
10
4.831
20
-15.6074
10
4.9917
20
-14.8749
97
0
75
0
76
1
98
0
0
TEXT
5
A5
330
10
100
AcDbEntity
8
S-ANNO-NOTE
100
AcDbText
10
34.5
20
-12.375
30
0.0
40
1.125
1
8" CMU WALL (IRC R606)*
7
KERF
100
AcDbText
73
0
0
LWPOLYLINE
5
A6
330
10
100
AcDbEntity
8
S-ANNO-NOTE
370
18
100
AcDbPolyline
90
3
70
0
10
34.02
20
-11.8125
10
32.52
20
-11.8125
10
4.9375
20
-11.8125
0
HATCH
5
A7
330
10
100
AcDbEntity
8
S-ANNO-NOTE
100
AcDbHatch
10
0.0
20
0.0
30
0.0
210
0.0
220
0.0
230
1.0
2
SOLID
70
1
71
0
91
1
92
3
72
0
73
1
93
3
10
3.8125
20
-11.8125
10
4.9375
20
-12.1875
10
4.9375
20
-11.4375
97
0
75
0
76
1
98
0
0
TEXT
5
A8
330
10
100
AcDbEntity
8
S-ANNO-NOTE
100
AcDbText
10
-47.3036
20
-4.5625
30
0.0
40
1.125
1
1X6 FASCIA OVER 2X6
7
KERF
100
AcDbText
73
0
0
TEXT
5
A9
330
10
100
AcDbEntity
8
S-ANNO-NOTE
100
AcDbText
10
-47.3036
20
-6.3625
30
0.0
40
1.125
1
SUBFASCIA
7
KERF
100
AcDbText
73
0
0
LWPOLYLINE
5
AA
330
10
100
AcDbEntity
8
S-ANNO-NOTE
370
18
100
AcDbPolyline
90
3
70
0
10
-28.02
20
-4.9
10
-26.52
20
-4.9
10
-20.6056
20
-0.7109
0
HATCH
5
AB
330
10
100
AcDbEntity
8
S-ANNO-NOTE
100
AcDbHatch
10
0.0
20
0.0
30
0.0
210
0.0
220
0.0
230
1.0
2
SOLID
70
1
71
0
91
1
92
3
72
0
73
1
93
3
10
-19.6875
20
-0.0607
10
-20.8223
20
-0.4049
10
-20.3888
20
-1.0169
97
0
75
0
76
1
98
0
0
TEXT
5
AC
330
10
100
AcDbEntity
8
S-ANNO-NOTE
100
AcDbText
10
-50.4107
20
-8.2375
30
0.0
40
1.125
1
3/8" PLY. VENTED SOFFIT
7
KERF
100
AcDbText
73
0
0
LWPOLYLINE
5
AD
330
10
100
AcDbEntity
8
S-ANNO-NOTE
370
18
100
AcDbPolyline
90
3
70
0
10
-28.02
20
-7.675
10
-26.52
20
-7.675
10
-10.7403
20
-3.2988
0
HATCH
5
AE
330
10
100
AcDbEntity
8
S-ANNO-NOTE
100
AcDbHatch
10
0.0
20
0.0
30
0.0
210
0.0
220
0.0
230
1.0
2
SOLID
70
1
71
0
91
1
92
3
72
0
73
1
93
3
10
-9.6563
20
-2.9982
10
-10.8405
20
-2.9375
10
-10.6401
20
-3.6602
97
0
75
0
76
1
98
0
0
TEXT
5
AF
330
10
100
AcDbEntity
8
S-ANNO-NOTE
100
AcDbText
10
34.5
20
-0.3661
30
0.0
40
1.125
1
1/2" GYP. BD. CEILING
7
KERF
100
AcDbText
73
0
0
LWPOLYLINE
5
B0
330
10
100
AcDbEntity
8
S-ANNO-NOTE
370
18
100
AcDbPolyline
90
3
70
0
10
34.02
20
0.1964
10
32.52
20
0.1964
10
19.9342
20
1.1638
0
HATCH
5
B1
330
10
100
AcDbEntity
8
S-ANNO-NOTE
100
AcDbHatch
10
0.0
20
0.0
30
0.0
210
0.0
220
0.0
230
1.0
2
SOLID
70
1
71
0
91
1
92
3
72
0
73
1
93
3
10
18.8125
20
1.25
10
19.9055
20
0.7899
10
19.9629
20
1.5377
97
0
75
0
76
1
98
0
0
TEXT
5
B2
330
10
100
AcDbEntity
8
S-ANNO-NOTE
100
AcDbText
10
-14.0
20
-15.8125
30
0.0
40
0.9375
1
EXTERIOR
7
KERF
72
1
11
-14.0
21
-15.8125
31
0.0
100
AcDbText
73
2
0
TEXT
5
B3
330
10
100
AcDbEntity
8
S-ANNO-NOTE
100
AcDbText
10
15.625
20
-15.8125
30
0.0
40
0.9375
1
INTERIOR
7
KERF
72
1
11
15.625
21
-15.8125
31
0.0
100
AcDbText
73
2
0
LWPOLYLINE
5
B4
330
10
100
AcDbEntity
8
S-ANNO-DIMS
370
13
100
AcDbPolyline
90
2
70
0
10
0.0
20
-32.375
10
0.0
20
-35.375
0
LWPOLYLINE
5
B5
330
10
100
AcDbEntity
8
S-ANNO-DIMS
370
13
100
AcDbPolyline
90
2
70
0
10
7.625
20
-32.375
10
7.625
20
-35.375
0
LWPOLYLINE
5
B6
330
10
100
AcDbEntity
8
S-ANNO-DIMS
370
13
100
AcDbPolyline
90
2
70
0
10
0.0
20
-34.625
10
15.9821
20
-34.625
0
LWPOLYLINE
5
B7
330
10
100
AcDbEntity
8
S-DETL-CUT
370
35
100
AcDbPolyline
90
2
70
0
10
-0.2652
20
-34.8902
10
0.2652
20
-34.3598
0
LWPOLYLINE
5
B8
330
10
100
AcDbEntity
8
S-DETL-CUT
370
35
100
AcDbPolyline
90
2
70
0
10
7.3598
20
-34.8902
10
7.8902
20
-34.3598
0
TEXT
5
B9
330
10
100
AcDbEntity
8
S-ANNO-DIMS
100
AcDbText
10
12.5536
20
-34.0625
30
0.0
40
1.125
1
7 5/8"
7
KERF
72
1
11
12.5536
21
-34.0625
31
0.0
100
AcDbText
73
0
0
LWPOLYLINE
5
BA
330
10
100
AcDbEntity
8
S-ANNO-DIMS
370
13
100
AcDbPolyline
90
2
70
0
10
-20.0625
20
3.4393
10
-20.0625
20
17.4393
0
LWPOLYLINE
5
BB
330
10
100
AcDbEntity
8
S-ANNO-DIMS
370
13
100
AcDbPolyline
90
2
70
0
10
0.0
20
0.75
10
0.0
20
17.4393
0
LWPOLYLINE
5
BC
330
10
100
AcDbEntity
8
S-ANNO-DIMS
370
13
100
AcDbPolyline
90
2
70
0
10
-20.0625
20
16.6893
10
0.0
20
16.6893
0
LWPOLYLINE
5
BD
330
10
100
AcDbEntity
8
S-DETL-CUT
370
35
100
AcDbPolyline
90
2
70
0
10
-20.3277
20
16.4242
10
-19.7973
20
16.9545
0
LWPOLYLINE
5
BE
330
10
100
AcDbEntity
8
S-DETL-CUT
370
35
100
AcDbPolyline
90
2
70
0
10
-0.2652
20
16.4242
10
0.2652
20
16.9545
0
TEXT
5
BF
330
10
100
AcDbEntity
8
S-ANNO-DIMS
100
AcDbText
10
-10.0313
20
17.2518
30
0.0
40
1.125
1
1'-8 1/16"
7
KERF
72
1
11
-10.0313
21
17.2518
31
0.0
100
AcDbText
73
0
0
LWPOLYLINE
5
C0
330
10
100
AcDbEntity
8
S-ANNO-TTLB
370
50
100
AcDbPolyline
90
2
70
1
10
-24.0
20
-43.925
42
1.0
10
-16.5
20
-43.925
42
1.0
0
LWPOLYLINE
5
C1
330
10
100
AcDbEntity
8
S-ANNO-NOTE
370
18
100
AcDbPolyline
90
2
70
0
10
-24.0
20
-43.925
10
-16.5
20
-43.925
0
TEXT
5
C2
330
10
100
AcDbEntity
8
S-ANNO-TTLB
100
AcDbText
10
-20.25
20
-42.05
30
0.0
40
1.875
1
1
7
KERF
72
1
11
-20.25
21
-42.05
31
0.0
100
AcDbText
73
2
0
TEXT
5
C3
330
10
100
AcDbEntity
8
S-ANNO-TTLB
100
AcDbText
10
-20.25
20
-45.8
30
0.0
40
0.8438
1
S-501
7
KERF
72
1
11
-20.25
21
-45.8
31
0.0
100
AcDbText
73
2
0
TEXT
5
C4
330
10
100
AcDbEntity
8
S-ANNO-TTLB
100
AcDbText
10
-14.7
20
-43.685
30
0.0
40
1.875
1
TRUSS BEARING AT CMU WALL
7
KERF
100
AcDbText
73
0
0
LWPOLYLINE
5
C5
330
10
100
AcDbEntity
8
S-ANNO-TTLB
370
50
100
AcDbPolyline
90
2
70
0
10
-14.7
20
-44.525
10
27.2643
20
-44.525
0
TEXT
5
C6
330
10
100
AcDbEntity
8
S-ANNO-TTLB
100
AcDbText
10
-14.7
20
-46.37
30
0.0
40
1.125
1
SCALE: 1" = 1'-0"
7
KERF
100
AcDbText
73
0
0
TEXT
5
C7
330
10
100
AcDbEntity
8
S-ANNO-TTLB
100
AcDbText
10
-24.0
20
-50.0
30
0.0
40
0.9563
1
* CODE REFERENCE NOT VERIFIED BY DESIGNER
7
KERF
100
AcDbText
73
0
0
ENDSEC
0
SECTION
2
OBJECTS
0
DICTIONARY
5
A
330
0
100
AcDbDictionary
281
1
3
ACAD_GROUP
350
B
0
DICTIONARY
5
B
330
A
100
AcDbDictionary
281
1
0
ENDSEC
0
EOF
