0
SECTION
2
HEADER
9
$ACADVER
1
AC1015
9
$DWGCODEPAGE
3
ANSI_1252
9
$INSBASE
10
0.0
20
0.0
30
0.0
9
$EXTMIN
10
-38.1592
20
-39.7875
30
0.0
9
$EXTMAX
10
58.0678
20
40.0018
30
0.0
9
$LTSCALE
40
1.0
9
$TEXTSTYLE
7
KERF
9
$CLAYER
8
0
9
$CELTYPE
6
BYLAYER
9
$LWDISPLAY
290
1
9
$MEASUREMENT
70
0
9
$INSUNITS
70
1
9
$TDCREATE
40
2451545.0
9
$TDUPDATE
40
2451545.0
9
$HANDSEED
5
FFFF
0
ENDSEC
0
SECTION
2
TABLES
0
TABLE
2
VPORT
5
8
330
0
100
AcDbSymbolTable
70
0
0
ENDTAB
0
TABLE
2
LTYPE
5
4
330
0
100
AcDbSymbolTable
70
5
0
LTYPE
5
20
330
4
100
AcDbSymbolTableRecord
100
AcDbLinetypeTableRecord
2
BYBLOCK
70
0
3

72
65
73
0
40
0.0
0
LTYPE
5
21
330
4
100
AcDbSymbolTableRecord
100
AcDbLinetypeTableRecord
2
BYLAYER
70
0
3

72
65
73
0
40
0.0
0
LTYPE
5
22
330
4
100
AcDbSymbolTableRecord
100
AcDbLinetypeTableRecord
2
CONTINUOUS
70
0
3
Solid line
72
65
73
0
40
0.0
0
LTYPE
5
23
330
4
100
AcDbSymbolTableRecord
100
AcDbLinetypeTableRecord
2
DASHED
70
0
3
Kerf dashed
72
65
73
2
40
1.3583
49
0.9055
74
0
49
-0.4528
74
0
0
LTYPE
5
24
330
4
100
AcDbSymbolTableRecord
100
AcDbLinetypeTableRecord
2
DASH_VAPOR
70
0
3
Kerf dashed
72
65
73
2
40
1.0187
49
0.6791
74
0
49
-0.3396
74
0
0
ENDTAB
0
TABLE
2
LAYER
5
2
330
0
100
AcDbSymbolTable
70
7
0
LAYER
5
25
330
2
100
AcDbSymbolTableRecord
100
AcDbLayerTableRecord
2
0
70
0
62
7
6
CONTINUOUS
0
LAYER
5
26
330
2
100
AcDbSymbolTableRecord
100
AcDbLayerTableRecord
2
S-DETL-CUT
70
0
62
7
6
CONTINUOUS
370
50
0
LAYER
5
27
330
2
100
AcDbSymbolTableRecord
100
AcDbLayerTableRecord
2
S-DETL-BYND
70
0
62
7
6
CONTINUOUS
370
25
0
LAYER
5
28
330
2
100
AcDbSymbolTableRecord
100
AcDbLayerTableRecord
2
S-DETL-PATT
70
0
62
7
6
CONTINUOUS
370
9
0
LAYER
5
29
330
2
100
AcDbSymbolTableRecord
100
AcDbLayerTableRecord
2
S-DETL-STL
70
0
62
7
6
CONTINUOUS
370
35
0
LAYER
5
2A
330
2
100
AcDbSymbolTableRecord
100
AcDbLayerTableRecord
2
S-ANNO-NOTE
70
0
62
7
6
CONTINUOUS
370
18
0
LAYER
5
2B
330
2
100
AcDbSymbolTableRecord
100
AcDbLayerTableRecord
2
S-ANNO-TTLB
70
0
62
7
6
CONTINUOUS
370
50
0
ENDTAB
0
TABLE
2
STYLE
5
3
330
0
100
AcDbSymbolTable
70
2
0
STYLE
5
2C
330
3
100
AcDbSymbolTableRecord
100
AcDbTextStyleTableRecord
2
STANDARD
70
0
40
0.0
41
1.0
50
0.0
71
0
42
1.0
3
txt
4

0
STYLE
5
2D
330
3
100
AcDbSymbolTableRecord
100
AcDbTextStyleTableRecord
2
KERF
70
0
40
0.0
41
1.0
50
0.0
71
0
42
1.0
3
romans.shx
4

0
ENDTAB
0
TABLE
2
VIEW
5
5
330
0
100
AcDbSymbolTable
70
0
0
ENDTAB
0
TABLE
2
UCS
5
6
330
0
100
AcDbSymbolTable
70
0
0
ENDTAB
0
TABLE
2
APPID
5
9
330
0
100
AcDbSymbolTable
70
1
0
APPID
5
2E
330
9
100
AcDbSymbolTableRecord
100
AcDbRegAppTableRecord
2
ACAD
70
0
0
ENDTAB
0
TABLE
2
BLOCK_RECORD
5
1
330
0
100
AcDbSymbolTable
70
2
0
BLOCK_RECORD
5
10
330
1
100
AcDbSymbolTableRecord
100
AcDbBlockTableRecord
2
*Model_Space
0
BLOCK_RECORD
5
11
330
1
100
AcDbSymbolTableRecord
100
AcDbBlockTableRecord
2
*Paper_Space
0
ENDTAB
0
ENDSEC
0
SECTION
2
BLOCKS
0
BLOCK
5
12
330
10
100
AcDbEntity
8
0
100
AcDbBlockBegin
2
*Model_Space
70
0
10
0.0
20
0.0
30
0.0
3
*Model_Space
1

0
ENDBLK
5
13
330
10
100
AcDbEntity
8
0
100
AcDbBlockEnd
0
BLOCK
5
14
330
11
100
AcDbEntity
8
0
100
AcDbBlockBegin
2
*Paper_Space
70
0
10
0.0
20
0.0
30
0.0
3
*Paper_Space
1

0
ENDBLK
5
15
330
11
100
AcDbEntity
8
0
100
AcDbBlockEnd
0
ENDSEC
0
SECTION
2
ENTITIES
0
HATCH
5
2F
330
10
100
AcDbEntity
8
S-DETL-PATT
100
AcDbHatch
10
0.0
20
0.0
30
0.0
210
0.0
220
0.0
230
1.0
2
ANSI31
70
0
71
0
91
1
92
3
72
0
73
1
93
4
10
0.0
20
-24.0
10
0.0
20
-28.0
10
1.0825
20
-27.375
10
1.0825
20
-23.375
97
0
75
0
76
1
52
0.0
41
1.0
77
0
78
1
53
45.0
43
0.0
44
0.0
45
-0.7623
46
0.7623
79
0
98
0
0
HATCH
5
30
330
10
100
AcDbEntity
8
S-DETL-PATT
100
AcDbHatch
10
0.0
20
0.0
30
0.0
210
0.0
220
0.0
230
1.0
2
ANSI31
70
0
71
0
91
1
92
3
72
0
73
1
93
4
10
5.5209
20
-20.8125
10
5.5209
20
-24.8125
10
6.6034
20
-24.1875
10
6.6034
20
-20.1875
97
0
75
0
76
1
52
0.0
41
1.0
77
0
78
1
53
45.0
43
0.0
44
0.0
45
-0.7623
46
0.7623
79
0
98
0
0
HATCH
5
31
330
10
100
AcDbEntity
8
S-DETL-PATT
100
AcDbHatch
10
0.0
20
0.0
30
0.0
210
0.0
220
0.0
230
1.0
2
KERF-CONC
70
0
71
0
91
1
92
3
72
0
73
1
93
4
10
1.0825
20
-23.375
10
1.0825
20
-27.375
10
5.5209
20
-24.8125
10
5.5209
20
-20.8125
97
0
75
0
76
1
52
0.0
41
1.0
77
0
78
5
53
0.0
43
0.0
44
0.0
45
0.8082
46
0.6995
79
2
49
0.0
49
-1.6172
53
0.0
43
0.4054
44
0.345
45
0.8082
46
0.6995
79
2
49
0.0
49
-1.6172
53
60.0
43
0.9488
44
0.1725
45
-0.539
46
2.801
79
2
49
0.3019
49
-4.0106
53
180.0
43
1.2506
44
0.4313
45
-2.1563
46
-1.8673
79
2
49
0.3019
49
-4.0106
53
300.0
43
0.9488
44
0.4313
45
2.6953
46
-0.9337
79
2
49
0.3019
49
-4.0106
98
0
0
HATCH
5
32
330
10
100
AcDbEntity
8
S-DETL-PATT
100
AcDbHatch
10
0.0
20
0.0
30
0.0
210
0.0
220
0.0
230
1.0
2
KERF-CONC
70
0
71
0
91
1
92
3
72
0
73
1
93
4
10
1.0825
20
-23.0
10
5.5209
20
-20.4375
10
5.5209
20
-12.8125
10
1.0825
20
-15.375
97
0
75
0
76
1
52
0.0
41
1.0
77
0
78
5
53
0.0
43
0.0
44
0.0
45
0.8082
46
0.6995
79
2
49
0.0
49
-1.6172
53
0.0
43
0.4054
44
0.345
45
0.8082
46
0.6995
79
2
49
0.0
49
-1.6172
53
60.0
43
0.9488
44
0.1725
45
-0.539
46
2.801
79
2
49
0.3019
49
-4.0106
53
180.0
43
1.2506
44
0.4313
45
-2.1563
46
-1.8673
79
2
49
0.3019
49
-4.0106
53
300.0
43
0.9488
44
0.4313
45
2.6953
46
-0.9337
79
2
49
0.3019
49
-4.0106
98
0
0
HATCH
5
33
330
10
100
AcDbEntity
8
S-DETL-PATT
100
AcDbHatch
10
0.0
20
0.0
30
0.0
210
0.0
220
0.0
230
1.0
2
ANSI31
70
0
71
0
91
1
92
3
72
0
73
1
93
4
10
0.0
20
-15.625
10
1.0825
20
-15.0
10
1.0825
20
-7.375
10
0.0
20
-8.0
97
0
75
0
76
1
52
0.0
41
1.0
77
0
78
1
53
45.0
43
0.0
44
0.0
45
-0.7623
46
0.7623
79
0
98
0
0
HATCH
5
34
330
10
100
AcDbEntity
8
S-DETL-PATT
100
AcDbHatch
10
0.0
20
0.0
30
0.0
210
0.0
220
0.0
230
1.0
2
ANSI31
70
0
71
0
91
1
92
3
72
0
73
1
93
4
10
5.5209
20
-12.4375
10
6.6034
20
-11.8125
10
6.6034
20
-4.1875
10
5.5209
20
-4.8125
97
0
75
0
76
1
52
0.0
41
1.0
77
0
78
1
53
45.0
43
0.0
44
0.0
45
-0.7623
46
0.7623
79
0
98
0
0
HATCH
5
35
330
10
100
AcDbEntity
8
S-DETL-PATT
100
AcDbHatch
10
0.0
20
0.0
30
0.0
210
0.0
220
0.0
230
1.0
2
KERF-CONC
70
0
71
0
91
1
92
3
72
0
73
1
93
4
10
1.0825
20
-15.0
10
5.5209
20
-12.4375
10
5.5209
20
-4.8125
10
1.0825
20
-7.375
97
0
75
0
76
1
52
0.0
41
1.0
77
0
78
5
53
0.0
43
0.0
44
0.0
45
0.8082
46
0.6995
79
2
49
0.0
49
-1.6172
53
0.0
43
0.4054
44
0.345
45
0.8082
46
0.6995
79
2
49
0.0
49
-1.6172
53
60.0
43
0.9488
44
0.1725
45
-0.539
46
2.801
79
2
49
0.3019
49
-4.0106
53
180.0
43
1.2506
44
0.4313
45
-2.1563
46
-1.8673
79
2
49
0.3019
49
-4.0106
53
300.0
43
0.9488
44
0.4313
45
2.6953
46
-0.9337
79
2
49
0.3019
49
-4.0106
98
0
0
HATCH
5
36
330
10
100
AcDbEntity
8
S-DETL-PATT
100
AcDbHatch
10
0.0
20
0.0
30
0.0
210
0.0
220
0.0
230
1.0
2
KERF-CONC
70
0
71
0
91
1
92
3
72
0
73
1
93
4
10
1.0825
20
-7.0
10
5.5209
20
-4.4375
10
5.5209
20
3.1875
10
1.0825
20
0.625
97
0
75
0
76
1
52
0.0
41
1.0
77
0
78
5
53
0.0
43
0.0
44
0.0
45
0.8082
46
0.6995
79
2
49
0.0
49
-1.6172
53
0.0
43
0.4054
44
0.345
45
0.8082
46
0.6995
79
2
49
0.0
49
-1.6172
53
60.0
43
0.9488
44
0.1725
45
-0.539
46
2.801
79
2
49
0.3019
49
-4.0106
53
180.0
43
1.2506
44
0.4313
45
-2.1563
46
-1.8673
79
2
49
0.3019
49
-4.0106
53
300.0
43
0.9488
44
0.4313
45
2.6953
46
-0.9337
79
2
49
0.3019
49
-4.0106
98
0
0
HATCH
5
37
330
10
100
AcDbEntity
8
S-DETL-PATT
100
AcDbHatch
10
0.0
20
0.0
30
0.0
210
0.0
220
0.0
230
1.0
2
KERF-SAND
70
0
71
0
91
1
92
3
72
0
73
1
93
4
10
6.6034
20
5.3125
10
6.6034
20
4.8125
10
25.9808
20
16.0
10
25.9808
20
16.5
97
0
75
0
76
1
52
0.0
41
1.0
77
0
78
2
53
0.0
43
0.0
44
0.0
45
0.216
46
0.3733
79
2
49
0.0
49
-0.4313
53
0.0
43
0.1076
44
0.1863
45
0.216
46
0.3733
79
2
49
0.0
49
-0.4313
98
0
0
LWPOLYLINE
5
38
330
10
100
AcDbEntity
8
S-DETL-BYND
370
25
100
AcDbPolyline
90
2
70
0
10
-20.7846
20
-12.0
10
-7.253
20
-19.8125
0
LWPOLYLINE
5
39
330
10
100
AcDbEntity
8
S-DETL-BYND
370
25
100
AcDbPolyline
90
2
70
0
10
-7.253
20
-19.8125
10
-6.9282
20
-20.0
0
LWPOLYLINE
5
3A
330
10
100
AcDbEntity
8
S-DETL-BYND
370
25
100
AcDbPolyline
90
2
70
0
10
-6.9282
20
-20.0
10
0.0
20
-24.0
0
LWPOLYLINE
5
3B
330
10
100
AcDbEntity
8
S-DETL-BYND
370
25
100
AcDbPolyline
90
2
70
0
10
-20.7846
20
-11.625
10
0.0
20
-23.625
0
LWPOLYLINE
5
3C
330
10
100
AcDbEntity
8
S-DETL-BYND
370
25
100
AcDbPolyline
90
2
70
0
10
-11.0975
20
-9.5928
10
-0.3248
20
-15.8125
0
LWPOLYLINE
5
3D
330
10
100
AcDbEntity
8
S-DETL-BYND
370
25
100
AcDbPolyline
90
3
70
0
10
1.0825
20
-15.375
10
0.0
20
-16.0
10
0.0
20
-23.625
0
LWPOLYLINE
5
3E
330
10
100
AcDbEntity
8
S-DETL-BYND
370
25
100
AcDbPolyline
90
2
70
0
10
-0.3248
20
-15.8125
10
0.0
20
-16.0
0
LWPOLYLINE
5
3F
330
10
100
AcDbEntity
8
S-DETL-BYND
370
25
100
AcDbPolyline
90
2
70
0
10
6.6034
20
-12.1875
10
5.5209
20
-12.8125
0
LWPOLYLINE
5
40
330
10
100
AcDbEntity
8
S-DETL-BYND
370
25
100
AcDbPolyline
90
2
70
0
10
-10.7728
20
-9.4053
10
0.0
20
-15.625
0
LWPOLYLINE
5
41
330
10
100
AcDbEntity
8
S-DETL-BYND
370
25
100
AcDbPolyline
90
2
70
0
10
-4.1693
20
-5.5928
10
0.0
20
-8.0
0
LWPOLYLINE
5
42
330
10
100
AcDbEntity
8
S-DETL-BYND
370
25
100
AcDbPolyline
90
2
70
0
10
-3.8446
20
-5.4053
10
0.0
20
-7.625
0
LWPOLYLINE
5
43
330
10
100
AcDbEntity
8
S-DETL-BYND
370
25
100
AcDbPolyline
90
2
70
0
10
-20.7846
20
12.0
10
-16.6451
20
9.6101
0
LWPOLYLINE
5
44
330
10
100
AcDbEntity
8
S-DETL-BYND
370
25
100
AcDbPolyline
90
2
70
0
10
-12.9498
20
7.4766
10
-0.3248
20
0.1875
0
LWPOLYLINE
5
45
330
10
100
AcDbEntity
8
S-DETL-BYND
370
25
100
AcDbPolyline
90
3
70
0
10
1.0825
20
0.625
10
0.0
20
0.0
10
0.0
20
-7.625
0
LWPOLYLINE
5
46
330
10
100
AcDbEntity
8
S-DETL-BYND
370
25
100
AcDbPolyline
90
2
70
0
10
-0.3248
20
0.1875
10
0.0
20
0.0
0
LWPOLYLINE
5
47
330
10
100
AcDbEntity
8
S-DETL-BYND
370
25
100
AcDbPolyline
90
2
70
0
10
6.6034
20
3.8125
10
5.5209
20
3.1875
0
LWPOLYLINE
5
48
330
10
100
AcDbEntity
8
S-DETL-BYND
370
25
100
AcDbPolyline
90
2
70
0
10
-20.6222
20
13.5938
10
-15.549
20
10.6647
0
LWPOLYLINE
5
49
330
10
100
AcDbEntity
8
S-DETL-BYND
370
25
100
AcDbPolyline
90
2
70
0
10
-11.8537
20
8.5313
10
0.1624
20
1.5938
0
LWPOLYLINE
5
4A
330
10
100
AcDbEntity
8
S-DETL-BYND
370
25
100
AcDbPolyline
90
2
70
0
10
16.238
20
39.2518
10
-25.1689
20
-0.5919
0
LWPOLYLINE
5
4B
330
10
100
AcDbEntity
8
S-DETL-BYND
370
25
100
AcDbPolyline
90
2
70
0
10
-26.4679
20
0.1581
10
-25.1689
20
-0.5919
0
LWPOLYLINE
5
4C
330
10
100
AcDbEntity
8
S-DETL-BYND
370
25
100
AcDbPolyline
90
2
70
0
10
-9.5804
20
10.7188
10
-9.5804
20
7.2188
0
LWPOLYLINE
5
4D
330
10
100
AcDbEntity
8
S-DETL-BYND
370
25
100
AcDbPolyline
90
2
70
0
10
16.238
20
25.625
10
-6.5493
20
12.4688
0
LWPOLYLINE
5
4E
330
10
100
AcDbEntity
8
S-DETL-BYND
370
25
100
AcDbPolyline
90
2
70
0
10
-9.5804
20
10.7188
10
-9.5804
20
10.7188
0
LWPOLYLINE
5
4F
330
10
100
AcDbEntity
8
S-DETL-BYND
370
25
100
AcDbPolyline
90
2
70
0
10
-9.5804
20
12.7188
10
0.1624
20
7.0938
0
LWPOLYLINE
5
50
330
10
100
AcDbEntity
8
S-DETL-BYND
370
25
100
AcDbPolyline
90
2
70
0
10
-38.1592
20
4.6581
10
-17.3746
20
-7.3419
0
LWPOLYLINE
5
51
330
10
100
AcDbEntity
8
S-DETL-BYND
370
25
100
AcDbPolyline
90
2
70
0
10
-14.1812
20
17.3125
10
-10.7182
20
15.3132
0
LWPOLYLINE
5
52
330
10
100
AcDbEntity
8
S-DETL-BYND
370
25
100
AcDbPolyline
90
2
70
0
10
-3.1393
20
10.9375
10
6.6034
20
5.3125
0
LWPOLYLINE
5
53
330
10
100
AcDbEntity
8
S-DETL-CUT
370
35
100
AcDbPolyline
90
2
70
0
10
-20.7846
20
-12.0
10
-20.7846
20
-16.0
0
LWPOLYLINE
5
54
330
10
100
AcDbEntity
8
S-DETL-CUT
370
35
100
AcDbPolyline
90
2
70
0
10
-20.7846
20
-16.0
10
-7.253
20
-23.8125
0
LWPOLYLINE
5
55
330
10
100
AcDbEntity
8
S-DETL-CUT
370
35
100
AcDbPolyline
90
2
70
0
10
-7.253
20
-19.8125
10
-7.253
20
-23.8125
0
LWPOLYLINE
5
56
330
10
100
AcDbEntity
8
S-DETL-CUT
370
35
100
AcDbPolyline
90
2
70
0
10
-7.253
20
-23.8125
10
-6.9282
20
-24.0
0
LWPOLYLINE
5
57
330
10
100
AcDbEntity
8
S-DETL-CUT
370
35
100
AcDbPolyline
90
2
70
0
10
-6.9282
20
-20.0
10
-6.9282
20
-24.0
0
LWPOLYLINE
5
58
330
10
100
AcDbEntity
8
S-DETL-CUT
370
35
100
AcDbPolyline
90
2
70
0
10
-6.9282
20
-24.0
10
0.0
20
-28.0
0
LWPOLYLINE
5
59
330
10
100
AcDbEntity
8
S-DETL-CUT
370
35
100
AcDbPolyline
90
2
70
0
10
-20.7846
20
-11.625
10
-20.7846
20
-12.0
0
LWPOLYLINE
5
5A
330
10
100
AcDbEntity
8
S-DETL-CUT
370
35
100
AcDbPolyline
90
2
70
0
10
-20.7846
20
-12.0
10
0.0
20
-24.0
0
LWPOLYLINE
5
5B
330
10
100
AcDbEntity
8
S-DETL-CUT
370
35
100
AcDbPolyline
90
2
70
0
10
-20.7846
20
-10.8732
10
-20.7846
20
-11.625
0
LWPOLYLINE
5
5C
330
10
100
AcDbEntity
8
S-DETL-CUT
370
35
100
AcDbPolyline
90
2
70
0
10
-20.7846
20
-11.625
10
-14.1812
20
-15.4375
0
LWPOLYLINE
5
5D
330
10
100
AcDbEntity
8
S-DETL-CUT
370
35
100
AcDbPolyline
90
2
70
0
10
-14.1812
20
-11.3732
10
-14.1812
20
-15.4375
0
LWPOLYLINE
5
5E
330
10
100
AcDbEntity
8
S-DETL-CUT
370
35
100
AcDbPolyline
90
2
70
0
10
-14.1812
20
-15.4375
10
-13.8564
20
-15.625
0
LWPOLYLINE
5
5F
330
10
100
AcDbEntity
8
S-DETL-CUT
370
35
100
AcDbPolyline
90
2
70
0
10
-13.8564
20
-11.1857
10
-13.8564
20
-15.625
0
LWPOLYLINE
5
60
330
10
100
AcDbEntity
8
S-DETL-CUT
370
35
100
AcDbPolyline
90
2
70
0
10
-13.8564
20
-15.625
10
-0.3248
20
-23.4375
0
LWPOLYLINE
5
61
330
10
100
AcDbEntity
8
S-DETL-CUT
370
35
100
AcDbPolyline
90
2
70
0
10
0.0
20
-23.625
10
1.0825
20
-23.0
0
LWPOLYLINE
5
62
330
10
100
AcDbEntity
8
S-DETL-CUT
370
35
100
AcDbPolyline
90
2
70
0
10
-0.3248
20
-15.8125
10
-0.3248
20
-23.4375
0
LWPOLYLINE
5
63
330
10
100
AcDbEntity
8
S-DETL-CUT
370
35
100
AcDbPolyline
90
2
70
0
10
-0.3248
20
-23.4375
10
0.0
20
-23.625
0
LWPOLYLINE
5
64
330
10
100
AcDbEntity
8
S-DETL-CUT
370
35
100
AcDbPolyline
90
3
70
0
10
5.5209
20
-20.4375
10
6.6034
20
-19.8125
10
6.6034
20
-12.1875
0
LWPOLYLINE
5
65
330
10
100
AcDbEntity
8
S-DETL-CUT
370
35
100
AcDbPolyline
90
2
70
0
10
-11.0975
20
-9.5928
10
0.0
20
-16.0
0
LWPOLYLINE
5
66
330
10
100
AcDbEntity
8
S-DETL-CUT
370
35
100
AcDbPolyline
90
2
70
0
10
-10.7728
20
-9.4053
10
-7.253
20
-11.4375
0
LWPOLYLINE
5
67
330
10
100
AcDbEntity
8
S-DETL-CUT
370
35
100
AcDbPolyline
90
2
70
0
10
-7.253
20
-7.3732
10
-7.253
20
-11.4375
0
LWPOLYLINE
5
68
330
10
100
AcDbEntity
8
S-DETL-CUT
370
35
100
AcDbPolyline
90
2
70
0
10
-7.253
20
-11.4375
10
-6.9282
20
-11.625
0
LWPOLYLINE
5
69
330
10
100
AcDbEntity
8
S-DETL-CUT
370
35
100
AcDbPolyline
90
2
70
0
10
-6.9282
20
-7.1857
10
-6.9282
20
-11.625
0
LWPOLYLINE
5
6A
330
10
100
AcDbEntity
8
S-DETL-CUT
370
35
100
AcDbPolyline
90
2
70
0
10
-6.9282
20
-11.625
10
0.0
20
-15.625
0
LWPOLYLINE
5
6B
330
10
100
AcDbEntity
8
S-DETL-CUT
370
35
100
AcDbPolyline
90
2
70
0
10
-4.1693
20
-5.5928
10
0.0
20
-8.0
0
LWPOLYLINE
5
6C
330
10
100
AcDbEntity
8
S-DETL-CUT
370
35
100
AcDbPolyline
90
3
70
0
10
-20.6222
20
12.0938
10
-20.7846
20
12.0
10
-20.7846
20
9.1893
0
LWPOLYLINE
5
6D
330
10
100
AcDbEntity
8
S-DETL-CUT
370
35
100
AcDbPolyline
90
2
70
0
10
-14.1812
20
6.2917
10
-14.1812
20
5.3768
0
LWPOLYLINE
5
6E
330
10
100
AcDbEntity
8
S-DETL-CUT
370
35
100
AcDbPolyline
90
2
70
0
10
-13.8564
20
6.6042
10
-13.8564
20
5.1893
0
LWPOLYLINE
5
6F
330
10
100
AcDbEntity
8
S-DETL-CUT
370
35
100
AcDbPolyline
90
2
70
0
10
-3.8446
20
-5.4053
10
-0.3248
20
-7.4375
0
LWPOLYLINE
5
70
330
10
100
AcDbEntity
8
S-DETL-CUT
370
35
100
AcDbPolyline
90
2
70
0
10
0.0
20
-7.625
10
1.0825
20
-7.0
0
LWPOLYLINE
5
71
330
10
100
AcDbEntity
8
S-DETL-CUT
370
35
100
AcDbPolyline
90
3
70
0
10
-0.1624
20
0.2813
10
-0.3248
20
0.1875
10
-0.3248
20
-2.6232
0
LWPOLYLINE
5
72
330
10
100
AcDbEntity
8
S-DETL-CUT
370
35
100
AcDbPolyline
90
2
70
0
10
-0.3248
20
-3.3732
10
-0.3248
20
-7.4375
0
LWPOLYLINE
5
73
330
10
100
AcDbEntity
8
S-DETL-CUT
370
35
100
AcDbPolyline
90
2
70
0
10
-0.3248
20
-7.4375
10
0.0
20
-7.625
0
LWPOLYLINE
5
74
330
10
100
AcDbEntity
8
S-DETL-CUT
370
35
100
AcDbPolyline
90
3
70
0
10
5.5209
20
-4.4375
10
6.6034
20
-3.8125
10
6.6034
20
3.8125
0
LWPOLYLINE
5
75
330
10
100
AcDbEntity
8
S-DETL-CUT
370
35
100
AcDbPolyline
90
2
70
0
10
6.4411
20
3.9063
10
6.6034
20
3.8125
0
LWPOLYLINE
5
76
330
10
100
AcDbEntity
8
S-DETL-CUT
370
35
100
AcDbPolyline
90
3
70
0
10
-14.3435
20
17.2188
10
-20.6222
20
13.5938
10
-20.6222
20
12.0938
0
LWPOLYLINE
5
77
330
10
100
AcDbEntity
8
S-DETL-CUT
370
35
100
AcDbPolyline
90
2
70
0
10
-20.6222
20
12.0938
10
-16.5233
20
9.7272
0
LWPOLYLINE
5
78
330
10
100
AcDbEntity
8
S-DETL-CUT
370
35
100
AcDbPolyline
90
2
70
0
10
-12.828
20
7.5938
10
0.1624
20
0.0938
0
LWPOLYLINE
5
79
330
10
100
AcDbEntity
8
S-DETL-CUT
370
35
100
AcDbPolyline
90
2
70
0
10
-14.3435
20
17.2188
10
-10.84
20
15.196
0
LWPOLYLINE
5
7A
330
10
100
AcDbEntity
8
S-DETL-CUT
370
35
100
AcDbPolyline
90
2
70
0
10
-3.3017
20
10.8438
10
6.4411
20
5.2188
0
LWPOLYLINE
5
7B
330
10
100
AcDbEntity
8
S-DETL-CUT
370
35
100
AcDbPolyline
90
2
70
0
10
-22.7726
20
-1.9754
10
-9.5804
20
10.7188
0
LWPOLYLINE
5
7C
330
10
100
AcDbEntity
8
S-DETL-CUT
370
35
100
AcDbPolyline
90
3
70
0
10
-7.3071
20
12.9063
10
16.238
20
35.5625
10
16.238
20
39.2518
0
LWPOLYLINE
5
7D
330
10
100
AcDbEntity
8
S-DETL-CUT
370
35
100
AcDbPolyline
90
2
70
0
10
14.9389
20
40.0018
10
-26.4679
20
0.1581
0
LWPOLYLINE
5
7E
330
10
100
AcDbEntity
8
S-DETL-CUT
370
35
100
AcDbPolyline
90
2
70
0
10
14.9389
20
40.0018
10
16.238
20
39.2518
0
LWPOLYLINE
5
7F
330
10
100
AcDbEntity
8
S-DETL-CUT
370
35
100
AcDbPolyline
90
2
70
0
10
-10.8794
20
9.4688
10
-10.8794
20
7.9688
0
LWPOLYLINE
5
80
330
10
100
AcDbEntity
8
S-DETL-CUT
370
35
100
AcDbPolyline
90
3
70
0
10
-3.5182
20
10.7188
10
16.238
20
22.125
10
16.238
20
25.625
0
LWPOLYLINE
5
81
330
10
100
AcDbEntity
8
S-DETL-CUT
370
35
100
AcDbPolyline
90
2
70
0
10
14.9389
20
26.375
10
-5.6833
20
14.4687
0
LWPOLYLINE
5
82
330
10
100
AcDbEntity
8
S-DETL-CUT
370
35
100
AcDbPolyline
90
2
70
0
10
-10.8794
20
7.9688
10
-9.5804
20
7.2188
0
LWPOLYLINE
5
83
330
10
100
AcDbEntity
8
S-DETL-CUT
370
35
100
AcDbPolyline
90
2
70
0
10
14.9389
20
26.375
10
16.238
20
25.625
0
LWPOLYLINE
5
84
330
10
100
AcDbEntity
8
S-DETL-CUT
370
35
100
AcDbPolyline
90
3
70
0
10
-8.2814
20
13.4688
10
-9.5804
20
12.7188
10
-9.5804
20
7.2188
0
LWPOLYLINE
5
85
330
10
100
AcDbEntity
8
S-DETL-CUT
370
35
100
AcDbPolyline
90
2
70
0
10
-9.5804
20
7.2188
10
0.1624
20
1.5938
0
LWPOLYLINE
5
86
330
10
100
AcDbEntity
8
S-DETL-CUT
370
35
100
AcDbPolyline
90
2
70
0
10
-8.2814
20
13.4688
10
1.4614
20
7.8438
0
LWPOLYLINE
5
87
330
10
100
AcDbEntity
8
S-DETL-CUT
370
35
100
AcDbPolyline
90
2
70
0
10
-36.2107
20
5.7831
10
-37.5097
20
5.0331
0
LWPOLYLINE
5
88
330
10
100
AcDbEntity
8
S-DETL-CUT
370
35
100
AcDbPolyline
90
2
70
0
10
-36.2107
20
5.7831
10
-15.4261
20
-6.2169
0
LWPOLYLINE
5
89
330
10
100
AcDbEntity
8
S-DETL-CUT
370
35
100
AcDbPolyline
90
3
70
0
10
-37.5097
20
5.0331
10
-38.1592
20
4.6581
10
-38.1592
20
-0.8419
0
LWPOLYLINE
5
8A
330
10
100
AcDbEntity
8
S-DETL-CUT
370
35
100
AcDbPolyline
90
2
70
0
10
-38.1592
20
-0.8419
10
-17.3746
20
-12.8419
0
LWPOLYLINE
5
8B
330
10
100
AcDbEntity
8
S-DETL-CUT
370
35
100
AcDbPolyline
90
2
70
0
10
-37.5097
20
5.0331
10
-16.7251
20
-6.9669
0
LWPOLYLINE
5
8C
330
10
100
AcDbEntity
8
S-DETL-CUT
370
35
100
AcDbPolyline
90
2
70
0
10
-20.7846
20
9.1893
10
-31.4475
20
3.0331
0
LWPOLYLINE
5
8D
330
10
100
AcDbEntity
8
S-DETL-CUT
370
35
100
AcDbPolyline
90
2
70
0
10
-17.0499
20
-12.6544
10
-16.7251
20
-12.8419
0
LWPOLYLINE
5
8E
330
10
100
AcDbEntity
8
S-DETL-CUT
370
35
100
AcDbPolyline
90
2
70
0
10
-20.7846
20
9.1893
10
-18.4707
20
7.8534
0
LWPOLYLINE
5
8F
330
10
100
AcDbEntity
8
S-DETL-CUT
370
35
100
AcDbPolyline
90
2
70
0
10
-14.7754
20
5.7199
10
0.0
20
-2.8107
0
LWPOLYLINE
5
90
330
10
100
AcDbEntity
8
S-DETL-CUT
370
35
100
AcDbPolyline
90
2
70
0
10
-14.1812
20
17.3125
10
-14.1812
20
17.125
0
LWPOLYLINE
5
91
330
10
100
AcDbEntity
8
S-DETL-CUT
370
35
100
AcDbPolyline
90
2
70
0
10
-0.3295
20
25.3098
10
-14.1812
20
17.3125
0
LWPOLYLINE
5
92
330
10
100
AcDbEntity
8
S-DETL-CUT
370
35
100
AcDbPolyline
90
2
70
0
10
6.4411
20
4.9063
10
6.6034
20
4.8125
0
LWPOLYLINE
5
93
330
10
100
AcDbEntity
8
S-DETL-CUT
370
35
100
AcDbPolyline
90
2
70
0
10
7.5101
20
27.1641
10
11.9078
20
24.625
0
LWPOLYLINE
5
94
330
10
100
AcDbEntity
8
S-DETL-CUT
370
35
100
AcDbPolyline
90
2
70
0
10
16.238
20
22.125
10
25.9808
20
16.5
0
LWPOLYLINE
5
95
330
10
100
AcDbEntity
8
S-DETL-STL
370
35
100
AcDbPolyline
90
31
70
0
10
1.9486
20
-4.6875
10
1.9545
20
-4.7491
10
1.972
20
-4.8011
10
2.0002
20
-4.8413
10
2.0381
20
-4.868
10
2.0839
20
-4.88
10
2.1356
20
-4.8767
10
2.1909
20
-4.8584
10
2.2475
20
-4.8257
10
2.3028
20
-4.7802
10
2.3545
20
-4.7238
10
2.4003
20
-4.6589
10
2.4381
20
-4.5885
10
2.4664
20
-4.5156
10
2.4839
20
-4.4434
10
2.4898
20
-4.375
10
2.4839
20
-4.3134
10
2.4664
20
-4.2614
10
2.4381
20
-4.2212
10
2.4003
20
-4.1945
10
2.3545
20
-4.1825
10
2.3028
20
-4.1858
10
2.2475
20
-4.2041
10
2.1909
20
-4.2368
10
2.1356
20
-4.2823
10
2.0839
20
-4.3387
10
2.0381
20
-4.4036
10
2.0002
20
-4.474
10
1.972
20
-4.5469
10
1.9545
20
-4.6191
10
1.9486
20
-4.6875
0
LWPOLYLINE
5
96
330
10
100
AcDbEntity
8
S-DETL-STL
370
35
100
AcDbPolyline
90
31
70
0
10
4.1136
20
-3.4375
10
4.1195
20
-3.4991
10
4.137
20
-3.5511
10
4.1653
20
-3.5913
10
4.2032
20
-3.618
10
4.2489
20
-3.63
10
4.3006
20
-3.6267
10
4.356
20
-3.6084
10
4.4125
20
-3.5757
10
4.4679
20
-3.5302
10
4.5196
20
-3.4738
10
4.5653
20
-3.4089
10
4.6032
20
-3.3385
10
4.6315
20
-3.2656
10
4.649
20
-3.1934
10
4.6549
20
-3.125
10
4.649
20
-3.0634
10
4.6315
20
-3.0114
10
4.6032
20
-2.9712
10
4.5653
20
-2.9445
10
4.5196
20
-2.9325
10
4.4679
20
-2.9358
10
4.4125
20
-2.9541
10
4.356
20
-2.9868
10
4.3006
20
-3.0323
10
4.2489
20
-3.0887
10
4.2032
20
-3.1536
10
4.1653
20
-3.224
10
4.137
20
-3.2969
10
4.1195
20
-3.3691
10
4.1136
20
-3.4375
0
LWPOLYLINE
5
97
330
10
100
AcDbEntity
8
S-DETL-STL
370
35
100
AcDbPolyline
90
2
70
0
10
3.0311
20
4.5
10
3.0311
20
-3.6875
0
LWPOLYLINE
5
98
330
10
100
AcDbEntity
8
S-DETL-STL
370
35
100
AcDbPolyline
90
2
70
0
10
2.7605
20
4.6563
10
2.7605
20
4.5
0
LWPOLYLINE
5
99
330
10
100
AcDbEntity
8
S-DETL-STL
370
35
100
AcDbPolyline
90
48
70
0
10
3.0311
20
-3.6875
10
3.0449
20
-3.9019
10
3.0859
20
-4.0961
10
3.1534
20
-4.266
10
3.2459
20
-4.4082
10
3.3616
20
-4.5199
10
3.4981
20
-4.5987
10
3.6527
20
-4.6431
10
3.8221
20
-4.6521
10
4.003
20
-4.6256
10
4.1917
20
-4.564
10
4.3843
20
-4.4688
10
4.3951
20
-4.4625
10
4.5861
20
-4.3364
10
4.7733
20
-4.1814
10
4.9527
20
-4.0005
10
5.1208
20
-3.7974
10
5.2741
20
-3.5764
10
5.4096
20
-3.3418
10
5.5243
20
-3.0985
10
5.6161
20
-2.8514
10
5.683
20
-2.6056
10
5.7238
20
-2.366
10
5.7374
20
-2.1375
10
5.7374
20
-1.6875
10
5.1962
20
-2.0
10
5.1962
20
-2.45
10
5.184
20
-2.6177
10
5.1478
20
-2.7943
10
5.0888
20
-2.9745
10
5.0087
20
-3.1528
10
4.91
20
-3.3238
10
4.7956
20
-3.4823
10
4.6691
20
-3.6235
10
4.5342
20
-3.7431
10
4.3951
20
-3.8375
10
4.3843
20
-3.8438
10
4.2433
20
-3.9109
10
4.1066
20
-3.9475
10
3.9783
20
-3.9525
10
3.8624
20
-3.9257
10
3.7623
20
-3.8679
10
3.6811
20
-3.7809
10
3.6213
20
-3.6674
10
3.5847
20
-3.5307
10
3.5724
20
-3.375
10
3.5724
20
4.8125
10
3.0311
20
4.5
0
LWPOLYLINE
5
9A
330
10
100
AcDbEntity
8
S-DETL-STL
370
35
100
AcDbPolyline
90
2
70
0
10
3.3017
20
4.9688
10
2.7605
20
4.6563
0
LWPOLYLINE
5
9B
330
10
100
AcDbEntity
8
S-DETL-STL
370
35
100
AcDbPolyline
90
2
70
0
10
2.7605
20
4.6563
10
3.0311
20
4.5
0
LWPOLYLINE
5
9C
330
10
100
AcDbEntity
8
S-DETL-STL
370
35
100
AcDbPolyline
90
2
70
0
10
3.3017
20
4.9688
10
3.5724
20
4.8125
0
LWPOLYLINE
5
9D
330
10
100
AcDbEntity
8
S-DETL-STL
370
35
100
AcDbPolyline
90
4
70
0
10
2.6928
20
3.4766
10
3.9106
20
4.1797
10
3.9106
20
4.3047
10
2.6928
20
3.6016
0
LWPOLYLINE
5
9E
330
10
100
AcDbEntity
8
S-DETL-STL
370
35
100
AcDbPolyline
90
2
70
0
10
2.6251
20
3.875
10
2.4222
20
3.7578
0
LWPOLYLINE
5
9F
330
10
100
AcDbEntity
8
S-DETL-STL
370
35
100
AcDbPolyline
90
2
70
0
10
2.6928
20
3.6016
10
2.6928
20
3.4766
0
LWPOLYLINE
5
A0
330
10
100
AcDbEntity
8
S-DETL-STL
370
35
100
AcDbPolyline
90
2
70
0
10
2.4222
20
3.7578
10
2.4222
20
3.6328
0
LWPOLYLINE
5
A1
330
10
100
AcDbEntity
8
S-DETL-STL
370
35
100
AcDbPolyline
90
2
70
0
10
2.4222
20
3.6328
10
2.6928
20
3.4766
0
LWPOLYLINE
5
A2
330
10
100
AcDbEntity
8
S-DETL-STL
370
35
100
AcDbPolyline
90
2
70
0
10
3.7077
20
4.4219
10
3.9106
20
4.3047
0
LWPOLYLINE
5
A3
330
10
100
AcDbEntity
8
S-DETL-STL
370
35
100
AcDbPolyline
90
2
70
0
10
2.4222
20
3.7578
10
2.6928
20
3.6016
0
LWPOLYLINE
5
A4
330
10
100
AcDbEntity
8
S-DETL-STL
370
35
100
AcDbPolyline
90
4
70
0
10
2.8958
20
3.7188
10
3.7077
20
4.1875
10
3.7077
20
4.7344
10
2.8958
20
4.2656
0
LWPOLYLINE
5
A5
330
10
100
AcDbEntity
8
S-DETL-STL
370
35
100
AcDbPolyline
90
2
70
0
10
2.7605
20
4.5
10
2.6251
20
4.4219
0
LWPOLYLINE
5
A6
330
10
100
AcDbEntity
8
S-DETL-STL
370
35
100
AcDbPolyline
90
2
70
0
10
2.8958
20
4.2656
10
2.8958
20
3.7188
0
LWPOLYLINE
5
A7
330
10
100
AcDbEntity
8
S-DETL-STL
370
35
100
AcDbPolyline
90
2
70
0
10
2.6251
20
4.4219
10
2.6251
20
3.875
0
LWPOLYLINE
5
A8
330
10
100
AcDbEntity
8
S-DETL-STL
370
35
100
AcDbPolyline
90
2
70
0
10
2.6251
20
3.875
10
2.8958
20
3.7188
0
LWPOLYLINE
5
A9
330
10
100
AcDbEntity
8
S-DETL-STL
370
35
100
AcDbPolyline
90
2
70
0
10
3.437
20
4.8906
10
3.7077
20
4.7344
0
LWPOLYLINE
5
AA
330
10
100
AcDbEntity
8
S-DETL-STL
370
35
100
AcDbPolyline
90
2
70
0
10
2.6251
20
4.4219
10
2.8958
20
4.2656
0
LWPOLYLINE
5
AB
330
10
100
AcDbEntity
8
S-DETL-CUT
370
50
100
AcDbPolyline
90
5
70
0
10
0.0
20
-24.0
10
0.0
20
-28.0
10
1.0825
20
-27.375
10
1.0825
20
-23.375
10
0.0
20
-24.0
0
LWPOLYLINE
5
AC
330
10
100
AcDbEntity
8
S-DETL-CUT
370
50
100
AcDbPolyline
90
5
70
0
10
5.5209
20
-20.8125
10
5.5209
20
-24.8125
10
6.6034
20
-24.1875
10
6.6034
20
-20.1875
10
5.5209
20
-20.8125
0
LWPOLYLINE
5
AD
330
10
100
AcDbEntity
8
S-DETL-CUT
370
50
100
AcDbPolyline
90
2
70
0
10
1.0825
20
-27.375
10
5.5209
20
-24.8125
0
LWPOLYLINE
5
AE
330
10
100
AcDbEntity
8
S-DETL-CUT
370
50
100
AcDbPolyline
90
2
70
0
10
5.5209
20
-20.8125
10
1.0825
20
-23.375
0
LWPOLYLINE
5
AF
330
10
100
AcDbEntity
8
S-DETL-CUT
370
50
100
AcDbPolyline
90
5
70
0
10
0.0
20
-24.0
10
6.6034
20
-20.1875
10
6.6034
20
-19.8125
10
0.0
20
-23.625
10
0.0
20
-24.0
0
LWPOLYLINE
5
B0
330
10
100
AcDbEntity
8
S-DETL-CUT
370
50
100
AcDbPolyline
90
5
70
0
10
1.0825
20
-23.0
10
5.5209
20
-20.4375
10
5.5209
20
-12.8125
10
1.0825
20
-15.375
10
1.0825
20
-23.0
0
LWPOLYLINE
5
B1
330
10
100
AcDbEntity
8
S-DETL-CUT
370
50
100
AcDbPolyline
90
5
70
0
10
0.0
20
-16.0
10
6.6034
20
-12.1875
10
6.6034
20
-11.8125
10
0.0
20
-15.625
10
0.0
20
-16.0
0
LWPOLYLINE
5
B2
330
10
100
AcDbEntity
8
S-DETL-CUT
370
50
100
AcDbPolyline
90
5
70
0
10
0.0
20
-15.625
10
1.0825
20
-15.0
10
1.0825
20
-7.375
10
0.0
20
-8.0
10
0.0
20
-15.625
0
LWPOLYLINE
5
B3
330
10
100
AcDbEntity
8
S-DETL-CUT
370
50
100
AcDbPolyline
90
5
70
0
10
5.5209
20
-12.4375
10
6.6034
20
-11.8125
10
6.6034
20
-4.1875
10
5.5209
20
-4.8125
10
5.5209
20
-12.4375
0
LWPOLYLINE
5
B4
330
10
100
AcDbEntity
8
S-DETL-CUT
370
50
100
AcDbPolyline
90
2
70
0
10
1.0825
20
-15.0
10
5.5209
20
-12.4375
0
LWPOLYLINE
5
B5
330
10
100
AcDbEntity
8
S-DETL-CUT
370
50
100
AcDbPolyline
90
2
70
0
10
5.5209
20
-4.8125
10
1.0825
20
-7.375
0
LWPOLYLINE
5
B6
330
10
100
AcDbEntity
8
S-DETL-CUT
370
50
100
AcDbPolyline
90
5
70
0
10
0.0
20
-8.0
10
6.6034
20
-4.1875
10
6.6034
20
-3.8125
10
0.0
20
-7.625
10
0.0
20
-8.0
0
LWPOLYLINE
5
B7
330
10
100
AcDbEntity
8
S-DETL-CUT
370
50
100
AcDbPolyline
90
5
70
0
10
1.0825
20
-7.0
10
5.5209
20
-4.4375
10
5.5209
20
3.1875
10
1.0825
20
0.625
10
1.0825
20
-7.0
0
LWPOLYLINE
5
B8
330
10
100
AcDbEntity
8
S-DETL-CUT
370
50
100
AcDbPolyline
90
5
70
0
10
0.1624
20
0.0938
10
6.4411
20
3.7188
10
6.4411
20
5.2188
10
0.1624
20
1.5938
10
0.1624
20
0.0938
0
LWPOLYLINE
5
B9
330
10
100
AcDbEntity
8
S-DETL-CUT
370
50
100
AcDbPolyline
90
5
70
0
10
0.1624
20
1.5938
10
1.4614
20
2.3438
10
1.4614
20
7.8438
10
0.1624
20
7.0938
10
0.1624
20
1.5938
0
LWPOLYLINE
5
BA
330
10
100
AcDbEntity
8
S-DETL-CUT
370
50
100
AcDbPolyline
90
5
70
0
10
-16.7251
20
-12.4669
10
-15.4261
20
-11.7169
10
-15.4261
20
-6.2169
10
-16.7251
20
-6.9669
10
-16.7251
20
-12.4669
0
LWPOLYLINE
5
BB
330
10
100
AcDbEntity
8
S-DETL-CUT
370
50
100
AcDbPolyline
90
2
70
0
10
-17.3746
20
-12.8419
10
-16.7251
20
-12.4669
0
LWPOLYLINE
5
BC
330
10
100
AcDbEntity
8
S-DETL-CUT
370
50
100
AcDbPolyline
90
3
70
0
10
-16.7251
20
-6.9669
10
-17.3746
20
-7.3419
10
-17.3746
20
-12.8419
0
LWPOLYLINE
5
BD
330
10
100
AcDbEntity
8
S-DETL-CUT
370
50
100
AcDbPolyline
90
5
70
0
10
-16.7251
20
-12.8419
10
0.0
20
-3.1857
10
0.0
20
-2.8107
10
-16.7251
20
-12.4669
10
-16.7251
20
-12.8419
0
LWPOLYLINE
5
BE
330
10
100
AcDbEntity
8
S-DETL-CUT
370
50
100
AcDbPolyline
90
5
70
0
10
6.6034
20
5.3125
10
6.6034
20
4.8125
10
25.9808
20
16.0
10
25.9808
20
16.5
10
6.6034
20
5.3125
0
TEXT
5
BF
330
10
100
AcDbEntity
8
S-ANNO-NOTE
100
AcDbText
10
30.2933
20
17.8087
30
0.0
40
1.0781
1
PRE-ENGINEERED WOOD TRUSS @
7
KERF
100
AcDbText
73
0
0
TEXT
5
C0
330
10
100
AcDbEntity
8
S-ANNO-NOTE
100
AcDbText
10
30.2933
20
16.0837
30
0.0
40
1.0781
1
24" O.C.
7
KERF
100
AcDbText
73
0
0
LWPOLYLINE
5
C1
330
10
100
AcDbEntity
8
S-ANNO-NOTE
370
18
100
AcDbPolyline
90
3
70
0
10
29.8333
20
17.4853
10
28.3958
20
17.4853
10
-3.3873
20
17.4853
0
HATCH
5
C2
330
10
100
AcDbEntity
8
S-ANNO-NOTE
100
AcDbHatch
10
0.0
20
0.0
30
0.0
210
0.0
220
0.0
230
1.0
2
SOLID
70
1
71
0
91
1
92
3
72
0
73
1
93
3
10
-4.4654
20
17.4853
10
-3.3873
20
17.1259
10
-3.3873
20
17.8447
97
0
75
0
76
1
98
0
0
TEXT
5
C3
330
10
100
AcDbEntity
8
S-ANNO-NOTE
100
AcDbText
10
30.2933
20
4.1797
30
0.0
40
1.0781
1
2X6 BIRD BLOCKING
7
KERF
100
AcDbText
73
0
0
LWPOLYLINE
5
C4
330
10
100
AcDbEntity
8
S-ANNO-NOTE
370
18
100
AcDbPolyline
90
3
70
0
10
29.8333
20
4.7188
10
28.3958
20
4.7188
10
1.89
20
4.7188
0
HATCH
5
C5
330
10
100
AcDbEntity
8
S-ANNO-NOTE
100
AcDbHatch
10
0.0
20
0.0
30
0.0
210
0.0
220
0.0
230
1.0
2
SOLID
70
1
71
0
91
1
92
3
72
0
73
1
93
3
10
0.8119
20
4.7188
10
1.89
20
4.3594
10
1.89
20
5.0781
97
0
75
0
76
1
98
0
0
TEXT
5
C6
330
10
100
AcDbEntity
8
S-ANNO-NOTE
100
AcDbText
10
30.2933
20
-16.2578
30
0.0
40
1.0781
1
8" CMU W/ GROUTED BOND BEAM
7
KERF
100
AcDbText
73
0
0
LWPOLYLINE
5
C7
330
10
100
AcDbEntity
8
S-ANNO-NOTE
370
18
100
AcDbPolyline
90
3
70
0
10
29.8333
20
-15.7188
10
28.3958
20
-15.7188
10
-6.0125
20
-15.7188
0
HATCH
5
C8
330
10
100
AcDbEntity
8
S-ANNO-NOTE
100
AcDbHatch
10
0.0
20
0.0
30
0.0
210
0.0
220
0.0
230
1.0
2
SOLID
70
1
71
0
91
1
92
3
72
0
73
1
93
3
10
-7.0906
20
-15.7188
10
-6.0125
20
-16.0781
10
-6.0125
20
-15.3594
97
0
75
0
76
1
98
0
0
LWPOLYLINE
5
C9
330
10
100
AcDbEntity
8
S-ANNO-TTLB
370
50
100
AcDbPolyline
90
2
70
1
10
-38.1592
20
-36.1938
42
1.0
10
-30.9717
20
-36.1938
42
1.0
0
LWPOLYLINE
5
CA
330
10
100
AcDbEntity
8
S-ANNO-NOTE
370
18
100
AcDbPolyline
90
2
70
0
10
-38.1592
20
-36.1938
10
-30.9717
20
-36.1938
0
TEXT
5
CB
330
10
100
AcDbEntity
8
S-ANNO-TTLB
100
AcDbText
10
-34.5655
20
-34.3969
30
0.0
40
1.7969
1
2
7
KERF
72
1
11
-34.5655
21
-34.3969
31
0.0
100
AcDbText
73
2
0
TEXT
5
CC
330
10
100
AcDbEntity
8
S-ANNO-TTLB
100
AcDbText
10
-34.5655
20
-37.9906
30
0.0
40
0.8086
1
S-501
7
KERF
72
1
11
-34.5655
21
-37.9906
31
0.0
100
AcDbText
73
2
0
TEXT
5
CD
330
10
100
AcDbEntity
8
S-ANNO-TTLB
100
AcDbText
10
-29.2467
20
-35.9638
30
0.0
40
1.7969
1
TRUSS BEARING AT CMU WALL - ISO
7
KERF
100
AcDbText
73
0
0
LWPOLYLINE
5
CE
330
10
100
AcDbEntity
8
S-ANNO-TTLB
370
50
100
AcDbPolyline
90
2
70
0
10
-29.2467
20
-36.7688
10
19.5256
20
-36.7688
0
TEXT
5
CF
330
10
100
AcDbEntity
8
S-ANNO-TTLB
100
AcDbText
10
-29.2467
20
-38.5369
30
0.0
40
1.0781
1
SCALE: NTS
7
KERF
100
AcDbText
73
0
0
ENDSEC
0
SECTION
2
OBJECTS
0
DICTIONARY
5
A
330
0
100
AcDbDictionary
281
1
3
ACAD_GROUP
350
B
0
DICTIONARY
5
B
330
A
100
AcDbDictionary
281
1
0
ENDSEC
0
EOF
