0
SECTION
2
HEADER
9
$ACADVER
1
AC1015
9
$DWGCODEPAGE
3
ANSI_1252
9
$INSBASE
10
0.0
20
0.0
30
0.0
9
$EXTMIN
10
-47.875
20
-40.625
30
0.0
9
$EXTMAX
10
68.0893
20
8.3571
30
0.0
9
$LTSCALE
40
1.0
9
$TEXTSTYLE
7
KERF
9
$CLAYER
8
0
9
$CELTYPE
6
BYLAYER
9
$LWDISPLAY
290
1
9
$MEASUREMENT
70
0
9
$INSUNITS
70
1
9
$TDCREATE
40
2451545.0
9
$TDUPDATE
40
2451545.0
9
$HANDSEED
5
FFFF
0
ENDSEC
0
SECTION
2
TABLES
0
TABLE
2
VPORT
5
8
330
0
100
AcDbSymbolTable
70
0
0
ENDTAB
0
TABLE
2
LTYPE
5
4
330
0
100
AcDbSymbolTable
70
5
0
LTYPE
5
20
330
4
100
AcDbSymbolTableRecord
100
AcDbLinetypeTableRecord
2
BYBLOCK
70
0
3

72
65
73
0
40
0.0
0
LTYPE
5
21
330
4
100
AcDbSymbolTableRecord
100
AcDbLinetypeTableRecord
2
BYLAYER
70
0
3

72
65
73
0
40
0.0
0
LTYPE
5
22
330
4
100
AcDbSymbolTableRecord
100
AcDbLinetypeTableRecord
2
CONTINUOUS
70
0
3
Solid line
72
65
73
0
40
0.0
0
LTYPE
5
23
330
4
100
AcDbSymbolTableRecord
100
AcDbLinetypeTableRecord
2
DASHED
70
0
3
Kerf dashed
72
65
73
2
40
1.4173
49
0.9449
74
0
49
-0.4724
74
0
0
LTYPE
5
24
330
4
100
AcDbSymbolTableRecord
100
AcDbLinetypeTableRecord
2
DASH_VAPOR
70
0
3
Kerf dashed
72
65
73
2
40
1.063
49
0.7087
74
0
49
-0.3543
74
0
0
ENDTAB
0
TABLE
2
LAYER
5
2
330
0
100
AcDbSymbolTable
70
8
0
LAYER
5
25
330
2
100
AcDbSymbolTableRecord
100
AcDbLayerTableRecord
2
0
70
0
62
7
6
CONTINUOUS
0
LAYER
5
26
330
2
100
AcDbSymbolTableRecord
100
AcDbLayerTableRecord
2
S-DETL-CUT
70
0
62
7
6
CONTINUOUS
370
50
0
LAYER
5
27
330
2
100
AcDbSymbolTableRecord
100
AcDbLayerTableRecord
2
S-DETL-PATT
70
0
62
7
6
CONTINUOUS
370
9
0
LAYER
5
28
330
2
100
AcDbSymbolTableRecord
100
AcDbLayerTableRecord
2
S-DETL-STL
70
0
62
7
6
CONTINUOUS
370
35
0
LAYER
5
29
330
2
100
AcDbSymbolTableRecord
100
AcDbLayerTableRecord
2
S-ANNO-NOTE
70
0
62
7
6
CONTINUOUS
370
18
0
LAYER
5
2A
330
2
100
AcDbSymbolTableRecord
100
AcDbLayerTableRecord
2
S-ANNO-DIMS
70
0
62
7
6
CONTINUOUS
370
13
0
LAYER
5
2B
330
2
100
AcDbSymbolTableRecord
100
AcDbLayerTableRecord
2
S-ANNO-TTLB
70
0
62
7
6
CONTINUOUS
370
50
0
LAYER
5
2C
330
2
100
AcDbSymbolTableRecord
100
AcDbLayerTableRecord
2
S-DETL-BRKL
70
0
62
7
6
CONTINUOUS
370
18
0
ENDTAB
0
TABLE
2
STYLE
5
3
330
0
100
AcDbSymbolTable
70
2
0
STYLE
5
2D
330
3
100
AcDbSymbolTableRecord
100
AcDbTextStyleTableRecord
2
STANDARD
70
0
40
0.0
41
1.0
50
0.0
71
0
42
1.0
3
txt
4

0
STYLE
5
2E
330
3
100
AcDbSymbolTableRecord
100
AcDbTextStyleTableRecord
2
KERF
70
0
40
0.0
41
1.0
50
0.0
71
0
42
1.0
3
romans.shx
4

0
ENDTAB
0
TABLE
2
VIEW
5
5
330
0
100
AcDbSymbolTable
70
0
0
ENDTAB
0
TABLE
2
UCS
5
6
330
0
100
AcDbSymbolTable
70
0
0
ENDTAB
0
TABLE
2
APPID
5
9
330
0
100
AcDbSymbolTable
70
1
0
APPID
5
2F
330
9
100
AcDbSymbolTableRecord
100
AcDbRegAppTableRecord
2
ACAD
70
0
0
ENDTAB
0
TABLE
2
BLOCK_RECORD
5
1
330
0
100
AcDbSymbolTable
70
2
0
BLOCK_RECORD
5
10
330
1
100
AcDbSymbolTableRecord
100
AcDbBlockTableRecord
2
*Model_Space
0
BLOCK_RECORD
5
11
330
1
100
AcDbSymbolTableRecord
100
AcDbBlockTableRecord
2
*Paper_Space
0
ENDTAB
0
ENDSEC
0
SECTION
2
BLOCKS
0
BLOCK
5
12
330
10
100
AcDbEntity
8
0
100
AcDbBlockBegin
2
*Model_Space
70
0
10
0.0
20
0.0
30
0.0
3
*Model_Space
1

0
ENDBLK
5
13
330
10
100
AcDbEntity
8
0
100
AcDbBlockEnd
0
BLOCK
5
14
330
11
100
AcDbEntity
8
0
100
AcDbBlockBegin
2
*Paper_Space
70
0
10
0.0
20
0.0
30
0.0
3
*Paper_Space
1

0
ENDBLK
5
15
330
11
100
AcDbEntity
8
0
100
AcDbBlockEnd
0
ENDSEC
0
SECTION
2
ENTITIES
0
HATCH
5
30
330
10
100
AcDbEntity
8
S-DETL-PATT
100
AcDbHatch
10
0.0
20
0.0
30
0.0
210
0.0
220
0.0
230
1.0
2
KERF-CONC
70
0
71
0
91
5
92
3
72
0
73
1
93
27
10
0.0
20
-1.625
10
0.0
20
-18.0
10
12.0
20
-18.0
10
26.0
20
-4.0
10
36.0
20
-4.0
10
36.0
20
-2.7482
10
35.9699
20
-2.7482
10
35.9113
20
-2.7338
10
35.858
20
-2.7057
10
35.8129
20
-2.6658
10
35.7786
20
-2.6162
10
35.7573
20
-2.5598
10
35.75
20
-2.5
10
35.7573
20
-2.4402
10
35.7786
20
-2.3838
10
35.8129
20
-2.3342
10
35.858
20
-2.2943
10
35.9113
20
-2.2662
10
35.9699
20
-2.2518
10
36.0
20
-2.2518
10
36.0
20
-2.25
10
14.0
20
-2.25
10
14.0
20
-1.75
10
36.0
20
-1.75
10
36.0
20
0.0
10
8.0
20
0.0
10
8.0
20
-1.5
97
0
92
2
72
0
73
1
93
28
10
3.0
20
-14.6875
10
3.0078
20
-14.618
10
3.0309
20
-14.5519
10
3.0682
20
-14.4927
10
3.1177
20
-14.4432
10
3.1769
20
-14.4059
10
3.243
20
-14.3828
10
3.3125
20
-14.375
10
3.382
20
-14.3828
10
3.4481
20
-14.4059
10
3.5073
20
-14.4432
10
3.5568
20
-14.4927
10
3.5941
20
-14.5519
10
3.6172
20
-14.618
10
3.625
20
-14.6875
10
3.6172
20
-14.757
10
3.5941
20
-14.8231
10
3.5568
20
-14.8823
10
3.5073
20
-14.9318
10
3.4481
20
-14.9691
10
3.382
20
-14.9922
10
3.3125
20
-15.0
10
3.243
20
-14.9922
10
3.1769
20
-14.9691
10
3.1177
20
-14.9318
10
3.0682
20
-14.8823
10
3.0309
20
-14.8231
10
3.0078
20
-14.757
97
0
92
2
72
0
73
1
93
26
10
5.75
20
-4.5
10
5.7573
20
-4.4402
10
5.7786
20
-4.3838
10
5.8129
20
-4.3342
10
5.858
20
-4.2943
10
5.9113
20
-4.2662
10
5.9699
20
-4.2518
10
6.0301
20
-4.2518
10
6.0887
20
-4.2662
10
6.142
20
-4.2943
10
6.1871
20
-4.3342
10
6.2214
20
-4.3838
10
6.2427
20
-4.4402
10
6.25
20
-4.5
10
6.2427
20
-4.5598
10
6.2214
20
-4.6162
10
6.1871
20
-4.6658
10
6.142
20
-4.7057
10
6.0887
20
-4.7338
10
6.0301
20
-4.7482
10
5.9699
20
-4.7482
10
5.9113
20
-4.7338
10
5.858
20
-4.7057
10
5.8129
20
-4.6658
10
5.7786
20
-4.6162
10
5.7573
20
-4.5598
97
0
92
2
72
0
73
1
93
28
10
8.375
20
-14.6875
10
8.3828
20
-14.618
10
8.4059
20
-14.5519
10
8.4432
20
-14.4927
10
8.4927
20
-14.4432
10
8.5519
20
-14.4059
10
8.618
20
-14.3828
10
8.6875
20
-14.375
10
8.757
20
-14.3828
10
8.8231
20
-14.4059
10
8.8823
20
-14.4432
10
8.9318
20
-14.4927
10
8.9691
20
-14.5519
10
8.9922
20
-14.618
10
9.0
20
-14.6875
10
8.9922
20
-14.757
10
8.9691
20
-14.8231
10
8.9318
20
-14.8823
10
8.8823
20
-14.9318
10
8.8231
20
-14.9691
10
8.757
20
-14.9922
10
8.6875
20
-15.0
10
8.618
20
-14.9922
10
8.5519
20
-14.9691
10
8.4927
20
-14.9318
10
8.4432
20
-14.8823
10
8.4059
20
-14.8231
10
8.3828
20
-14.757
97
0
92
2
72
0
73
1
93
26
10
19.75
20
-2.5
10
19.7573
20
-2.4402
10
19.7786
20
-2.3838
10
19.8129
20
-2.3342
10
19.858
20
-2.2943
10
19.9113
20
-2.2662
10
19.9699
20
-2.2518
10
20.0301
20
-2.2518
10
20.0887
20
-2.2662
10
20.142
20
-2.2943
10
20.1871
20
-2.3342
10
20.2214
20
-2.3838
10
20.2427
20
-2.4402
10
20.25
20
-2.5
10
20.2427
20
-2.5598
10
20.2214
20
-2.6162
10
20.1871
20
-2.6658
10
20.142
20
-2.7057
10
20.0887
20
-2.7338
10
20.0301
20
-2.7482
10
19.9699
20
-2.7482
10
19.9113
20
-2.7338
10
19.858
20
-2.7057
10
19.8129
20
-2.6658
10
19.7786
20
-2.6162
10
19.7573
20
-2.5598
97
0
75
0
76
1
52
0.0
41
1.0
77
0
78
5
53
0.0
43
0.0
44
0.0
45
1.1244
46
0.9732
79
2
49
0.0
49
-2.25
53
0.0
43
0.564
44
0.48
45
1.1244
46
0.9732
79
2
49
0.0
49
-2.25
53
60.0
43
1.32
44
0.24
45
-0.7499
46
3.8971
79
2
49
0.42
49
-5.58
53
180.0
43
1.74
44
0.6
45
-3.0
46
-2.598
79
2
49
0.42
49
-5.58
53
300.0
43
1.32
44
0.6
45
3.7499
46
-1.2991
79
2
49
0.42
49
-5.58
98
0
0
HATCH
5
31
330
10
100
AcDbEntity
8
S-DETL-PATT
100
AcDbHatch
10
0.0
20
0.0
30
0.0
210
0.0
220
0.0
230
1.0
2
KERF-GRAVEL
70
0
71
0
91
1
92
3
72
0
73
1
93
4
10
26.0
20
-4.0
10
22.0
20
-8.0
10
36.0
20
-8.0
10
36.0
20
-4.0
97
0
75
0
76
1
52
0.0
41
1.0
77
0
78
7
53
0.0
43
0.0
44
0.0
45
1.5
46
2.25
79
2
49
0.54
49
-3.96
53
72.0
43
0.54
44
0.0
45
-1.6764
46
2.1219
79
2
49
0.54
49
-3.96
53
144.0
43
0.708
44
0.516
45
-2.536
46
-0.9386
79
2
49
0.54
49
-3.96
53
216.0
43
0.264
44
0.828
45
0.109
46
-2.702
79
2
49
0.54
49
-3.96
53
288.0
43
-0.168
44
0.516
45
2.6034
46
-0.7313
79
2
49
0.54
49
-3.96
53
30.0
43
2.28
44
1.2
45
0.174
46
2.6986
79
2
49
0.36
49
-4.14
53
150.0
43
2.28
44
1.2
45
-2.424
46
-1.1986
79
2
49
0.36
49
-4.14
98
0
0
HATCH
5
32
330
10
100
AcDbEntity
8
S-DETL-PATT
100
AcDbHatch
10
0.0
20
0.0
30
0.0
210
0.0
220
0.0
230
1.0
2
EARTH
70
0
71
0
91
1
92
3
72
0
73
1
93
8
10
-16.0
20
-6.0
10
-16.0
20
-26.0
10
36.0
20
-26.0
10
36.0
20
-8.0
10
22.0
20
-8.0
10
12.0
20
-18.0
10
0.0
20
-18.0
10
0.0
20
-6.0
97
0
75
0
76
1
52
0.0
41
1.0
77
0
78
6
53
45.0
43
0.0
44
0.0
45
0.0
46
4.2426
79
2
49
3.0
49
-3.0
53
45.0
43
-0.7955
44
0.7955
45
0.0
46
4.2426
79
2
49
3.0
49
-3.0
53
45.0
43
-1.591
44
1.591
45
0.0
46
4.2426
79
2
49
3.0
49
-3.0
53
135.0
43
-1.591
44
2.1213
45
-4.2426
46
0.0
79
2
49
3.0
49
-3.0
53
135.0
43
-0.7955
44
2.9168
45
-4.2426
46
0.0
79
2
49
3.0
49
-3.0
53
135.0
43
0.0
44
3.7123
45
-4.2426
46
0.0
79
2
49
3.0
49
-3.0
98
0
0
LWPOLYLINE
5
33
330
10
100
AcDbEntity
8
S-DETL-CUT
370
50
100
AcDbPolyline
90
8
70
0
10
36.0
20
0.0
10
8.0
20
0.0
10
8.0
20
-1.5
10
0.0
20
-1.625
10
0.0
20
-18.0
10
12.0
20
-18.0
10
26.0
20
-4.0
10
36.0
20
-4.0
0
LWPOLYLINE
5
34
330
10
100
AcDbEntity
8
S-DETL-CUT
6
DASH_VAPOR
370
35
100
AcDbPolyline
90
3
70
0
10
36.0
20
-4.2008
10
26.0832
20
-4.2008
10
12.142
20
-18.142
0
LWPOLYLINE
5
35
330
10
100
AcDbEntity
8
S-DETL-CUT
370
50
100
AcDbPolyline
90
2
70
0
10
36.0
20
-8.0
10
22.0
20
-8.0
0
LWPOLYLINE
5
36
330
10
100
AcDbEntity
8
S-DETL-CUT
370
50
100
AcDbPolyline
90
2
70
0
10
0.0
20
-6.0
10
-16.0
20
-6.0
0
LWPOLYLINE
5
37
330
10
100
AcDbEntity
8
S-DETL-CUT
370
50
100
AcDbPolyline
90
4
70
1
10
0.9375
20
-1.5
10
7.5
20
-1.5
10
7.5
20
-0.25
10
0.9375
20
-0.25
0
HATCH
5
38
330
10
100
AcDbEntity
8
S-DETL-STL
100
AcDbHatch
10
0.0
20
0.0
30
0.0
210
0.0
220
0.0
230
1.0
2
SOLID
70
1
71
0
91
1
92
3
72
1
73
1
93
2
10
3.0
20
-14.6875
42
1.0
10
3.625
20
-14.6875
42
1.0
97
0
75
0
76
1
98
0
0
HATCH
5
39
330
10
100
AcDbEntity
8
S-DETL-STL
100
AcDbHatch
10
0.0
20
0.0
30
0.0
210
0.0
220
0.0
230
1.0
2
SOLID
70
1
71
0
91
1
92
3
72
1
73
1
93
2
10
8.375
20
-14.6875
42
1.0
10
9.0
20
-14.6875
42
1.0
97
0
75
0
76
1
98
0
0
HATCH
5
3A
330
10
100
AcDbEntity
8
S-DETL-STL
100
AcDbHatch
10
0.0
20
0.0
30
0.0
210
0.0
220
0.0
230
1.0
2
SOLID
70
1
71
0
91
1
92
3
72
1
73
1
93
2
10
5.75
20
-4.5
42
1.0
10
6.25
20
-4.5
42
1.0
97
0
75
0
76
1
98
0
0
HATCH
5
3B
330
10
100
AcDbEntity
8
S-DETL-STL
100
AcDbHatch
10
0.0
20
0.0
30
0.0
210
0.0
220
0.0
230
1.0
2
SOLID
70
1
71
0
91
1
92
3
72
1
73
1
93
2
10
19.75
20
-2.5
42
1.0
10
20.25
20
-2.5
42
1.0
97
0
75
0
76
1
98
0
0
HATCH
5
3C
330
10
100
AcDbEntity
8
S-DETL-STL
100
AcDbHatch
10
0.0
20
0.0
30
0.0
210
0.0
220
0.0
230
1.0
2
SOLID
70
1
71
0
91
1
92
3
72
0
73
1
93
15
10
35.7573
20
-2.4402
10
35.75
20
-2.5
10
35.7573
20
-2.5598
10
35.7786
20
-2.6162
10
35.8129
20
-2.6658
10
35.858
20
-2.7057
10
35.9113
20
-2.7338
10
35.9699
20
-2.7482
10
36.0
20
-2.7482
10
36.0
20
-2.2518
10
35.9699
20
-2.2518
10
35.9113
20
-2.2662
10
35.858
20
-2.2943
10
35.8129
20
-2.3342
10
35.7786
20
-2.3838
97
0
75
0
76
1
98
0
0
LWPOLYLINE
5
3D
330
10
100
AcDbEntity
8
S-DETL-STL
370
35
100
AcDbPolyline
90
2
70
1
10
3.0
20
-14.6875
42
1.0
10
3.625
20
-14.6875
42
1.0
0
LWPOLYLINE
5
3E
330
10
100
AcDbEntity
8
S-DETL-STL
370
35
100
AcDbPolyline
90
2
70
1
10
8.375
20
-14.6875
42
1.0
10
9.0
20
-14.6875
42
1.0
0
LWPOLYLINE
5
3F
330
10
100
AcDbEntity
8
S-DETL-STL
370
35
100
AcDbPolyline
90
2
70
1
10
5.75
20
-4.5
42
1.0
10
6.25
20
-4.5
42
1.0
0
LWPOLYLINE
5
40
330
10
100
AcDbEntity
8
S-DETL-STL
370
35
100
AcDbPolyline
90
4
70
0
10
36.0
20
-1.75
10
14.0
20
-1.75
10
14.0
20
-2.25
10
36.0
20
-2.25
0
LWPOLYLINE
5
41
330
10
100
AcDbEntity
8
S-DETL-STL
370
35
100
AcDbPolyline
90
2
70
1
10
19.75
20
-2.5
42
1.0
10
20.25
20
-2.5
42
1.0
0
LWPOLYLINE
5
42
330
10
100
AcDbEntity
8
S-DETL-STL
370
35
100
AcDbPolyline
90
3
70
0
10
36.0
20
-2.25
42
0.41421356
10
35.75
20
-2.5
42
0.41421356
10
36.0
20
-2.75
0
LWPOLYLINE
5
43
330
10
100
AcDbEntity
8
S-DETL-BRKL
370
18
100
AcDbPolyline
90
6
70
0
10
36.0
20
-4.79
10
36.0
20
-3.52
10
34.5
20
-2.5
10
37.5
20
-1.54
10
36.0
20
-0.52
10
36.0
20
0.75
0
TEXT
5
44
330
10
100
AcDbEntity
8
S-ANNO-NOTE
100
AcDbText
10
40.5
20
-1.6625
30
0.0
40
1.125
1
4" CONC. SLAB W/ #4 @ 16"
7
KERF
100
AcDbText
73
0
0
TEXT
5
45
330
10
100
AcDbEntity
8
S-ANNO-NOTE
100
AcDbText
10
40.5
20
-3.4625
30
0.0
40
1.125
1
O.C. EA. WAY (IRC R506.1)*
7
KERF
100
AcDbText
73
0
0
LWPOLYLINE
5
46
330
10
100
AcDbEntity
8
S-ANNO-NOTE
370
18
100
AcDbPolyline
90
3
70
0
10
40.02
20
-2.0
10
38.52
20
-2.0
10
26.125
20
-2.0
0
HATCH
5
47
330
10
100
AcDbEntity
8
S-ANNO-NOTE
100
AcDbHatch
10
0.0
20
0.0
30
0.0
210
0.0
220
0.0
230
1.0
2
SOLID
70
1
71
0
91
1
92
3
72
0
73
1
93
3
10
25.0
20
-2.0
10
26.125
20
-2.375
10
26.125
20
-1.625
97
0
75
0
76
1
98
0
0
TEXT
5
48
330
10
100
AcDbEntity
8
S-ANNO-NOTE
100
AcDbText
10
40.5
20
-9.4486
30
0.0
40
1.125
1
10 MIL VAPOR RETARDER, LAP
7
KERF
100
AcDbText
73
0
0
TEXT
5
49
330
10
100
AcDbEntity
8
S-ANNO-NOTE
100
AcDbText
10
40.5
20
-11.2486
30
0.0
40
1.125
1
6" MIN. (IRC R506.2.3)*
7
KERF
100
AcDbText
73
0
0
LWPOLYLINE
5
4A
330
10
100
AcDbEntity
8
S-ANNO-NOTE
370
18
100
AcDbPolyline
90
3
70
0
10
40.02
20
-9.7861
10
38.52
20
-9.7861
10
22.4813
20
-8.7427
0
HATCH
5
4B
330
10
100
AcDbEntity
8
S-ANNO-NOTE
100
AcDbHatch
10
0.0
20
0.0
30
0.0
210
0.0
220
0.0
230
1.0
2
SOLID
70
1
71
0
91
1
92
3
72
0
73
1
93
3
10
21.3587
20
-8.6696
10
22.4569
20
-9.1169
10
22.5056
20
-8.3684
97
0
75
0
76
1
98
0
0
TEXT
5
4C
330
10
100
AcDbEntity
8
S-ANNO-NOTE
100
AcDbText
10
40.5
20
-5.7736
30
0.0
40
1.125
1
4" COMPACTED GRAVEL BASE
7
KERF
100
AcDbText
73
0
0
TEXT
5
4D
330
10
100
AcDbEntity
8
S-ANNO-NOTE
100
AcDbText
10
40.5
20
-7.5736
30
0.0
40
1.125
1
(IRC R506.2.2)*
7
KERF
100
AcDbText
73
0
0
LWPOLYLINE
5
4E
330
10
100
AcDbEntity
8
S-ANNO-NOTE
370
18
100
AcDbPolyline
90
3
70
0
10
40.02
20
-6.1111
10
38.52
20
-6.1111
10
31.0694
20
-6.1111
0
HATCH
5
4F
330
10
100
AcDbEntity
8
S-ANNO-NOTE
100
AcDbHatch
10
0.0
20
0.0
30
0.0
210
0.0
220
0.0
230
1.0
2
SOLID
70
1
71
0
91
1
92
3
72
0
73
1
93
3
10
29.9444
20
-6.1111
10
31.0694
20
-6.4861
10
31.0694
20
-5.7361
97
0
75
0
76
1
98
0
0
TEXT
5
50
330
10
100
AcDbEntity
8
S-ANNO-NOTE
100
AcDbText
10
40.5
20
-13.1236
30
0.0
40
1.125
1
MONOLITHIC TURNED-DOWN FTG.
7
KERF
100
AcDbText
73
0
0
TEXT
5
51
330
10
100
AcDbEntity
8
S-ANNO-NOTE
100
AcDbText
10
40.5
20
-14.9236
30
0.0
40
1.125
1
12" W X 18" DEEP BELOW T.O.
7
KERF
100
AcDbText
73
0
0
TEXT
5
52
330
10
100
AcDbEntity
8
S-ANNO-NOTE
100
AcDbText
10
40.5
20
-16.7236
30
0.0
40
1.125
1
SLAB, BOTT. 12" MIN. BELOW
7
KERF
100
AcDbText
73
0
0
TEXT
5
53
330
10
100
AcDbEntity
8
S-ANNO-NOTE
100
AcDbText
10
40.5
20
-18.5236
30
0.0
40
1.125
1
UNDISTURBED GRADE & BELOW
7
KERF
100
AcDbText
73
0
0
TEXT
5
54
330
10
100
AcDbEntity
8
S-ANNO-NOTE
100
AcDbText
10
40.5
20
-20.3236
30
0.0
40
1.125
1
FROST DEPTH (IRC R403.1.4)*
7
KERF
100
AcDbText
73
0
0
LWPOLYLINE
5
55
330
10
100
AcDbEntity
8
S-ANNO-NOTE
370
18
100
AcDbPolyline
90
3
70
0
10
40.02
20
-16.1611
10
38.52
20
-16.1611
10
13.7637
20
-7.9955
0
HATCH
5
56
330
10
100
AcDbEntity
8
S-ANNO-NOTE
100
AcDbHatch
10
0.0
20
0.0
30
0.0
210
0.0
220
0.0
230
1.0
2
SOLID
70
1
71
0
91
1
92
3
72
0
73
1
93
3
10
12.6953
20
-7.6431
10
13.6462
20
-8.3516
10
13.8812
20
-7.6394
97
0
75
0
76
1
98
0
0
TEXT
5
57
330
10
100
AcDbEntity
8
S-ANNO-NOTE
100
AcDbText
10
-45.1429
20
-16.0625
30
0.0
40
1.125
1
(2) #5 CONT. BOTT., 3" CLR.
7
KERF
100
AcDbText
73
0
0
LWPOLYLINE
5
58
330
10
100
AcDbEntity
8
S-ANNO-NOTE
370
18
100
AcDbPolyline
90
3
70
0
10
-20.02
20
-15.5
10
-18.52
20
-15.5
10
7.563
20
-14.7211
0
HATCH
5
59
330
10
100
AcDbEntity
8
S-ANNO-NOTE
100
AcDbHatch
10
0.0
20
0.0
30
0.0
210
0.0
220
0.0
230
1.0
2
SOLID
70
1
71
0
91
1
92
3
72
0
73
1
93
3
10
8.6875
20
-14.6875
10
7.5518
20
-14.3462
10
7.5742
20
-15.0959
97
0
75
0
76
1
98
0
0
TEXT
5
5A
330
10
100
AcDbEntity
8
S-ANNO-NOTE
100
AcDbText
10
-35.875
20
-14.1875
30
0.0
40
1.125
1
(1) #4 CONT. TOP
7
KERF
100
AcDbText
73
0
0
LWPOLYLINE
5
5B
330
10
100
AcDbEntity
8
S-ANNO-NOTE
370
18
100
AcDbPolyline
90
3
70
0
10
-20.02
20
-13.625
10
-18.52
20
-13.625
10
4.9456
20
-4.8924
0
HATCH
5
5C
330
10
100
AcDbEntity
8
S-ANNO-NOTE
100
AcDbHatch
10
0.0
20
0.0
30
0.0
210
0.0
220
0.0
230
1.0
2
SOLID
70
1
71
0
91
1
92
3
72
0
73
1
93
3
10
6.0
20
-4.5
10
4.8149
20
-4.5409
10
5.0764
20
-5.2438
97
0
75
0
76
1
98
0
0
TEXT
5
5D
330
10
100
AcDbEntity
8
S-ANNO-NOTE
100
AcDbText
10
-47.875
20
-5.1125
30
0.0
40
1.125
1
SLAB DEPRESSION 1 1/2" DEEP
7
KERF
100
AcDbText
73
0
0
TEXT
5
5E
330
10
100
AcDbEntity
8
S-ANNO-NOTE
100
AcDbText
10
-47.875
20
-6.9125
30
0.0
40
1.125
1
X 8" WIDE FOR SLIDING DOOR
7
KERF
100
AcDbText
73
0
0
TEXT
5
5F
330
10
100
AcDbEntity
8
S-ANNO-NOTE
100
AcDbText
10
-47.875
20
-8.7125
30
0.0
40
1.125
1
SILL, SLOPE TO EXTERIOR.
7
KERF
100
AcDbText
73
0
0
TEXT
5
60
330
10
100
AcDbEntity
8
S-ANNO-NOTE
100
AcDbText
10
-47.875
20
-10.5125
30
0.0
40
1.125
1
VERIFY SILL DEPTH W/ DOOR
7
KERF
100
AcDbText
73
0
0
TEXT
5
61
330
10
100
AcDbEntity
8
S-ANNO-NOTE
100
AcDbText
10
-47.875
20
-12.3125
30
0.0
40
1.125
1
MFR.
7
KERF
100
AcDbText
73
0
0
LWPOLYLINE
5
62
330
10
100
AcDbEntity
8
S-ANNO-NOTE
370
18
100
AcDbPolyline
90
3
70
0
10
-20.02
20
-8.15
10
-18.52
20
-8.15
10
3.9176
20
-1.7965
0
HATCH
5
63
330
10
100
AcDbEntity
8
S-ANNO-NOTE
100
AcDbHatch
10
0.0
20
0.0
30
0.0
210
0.0
220
0.0
230
1.0
2
SOLID
70
1
71
0
91
1
92
3
72
0
73
1
93
3
10
5.0
20
-1.49
10
3.8154
20
-1.4357
10
4.0197
20
-2.1573
97
0
75
0
76
1
98
0
0
TEXT
5
64
330
10
100
AcDbEntity
8
S-ANNO-NOTE
100
AcDbText
10
-46.6964
20
0.3625
30
0.0
40
1.125
1
SLIDING DOOR SILL ON PAN
7
KERF
100
AcDbText
73
0
0
TEXT
5
65
330
10
100
AcDbEntity
8
S-ANNO-NOTE
100
AcDbText
10
-46.6964
20
-1.4375
30
0.0
40
1.125
1
FLASHING, SEAL TO CONC. PER
7
KERF
100
AcDbText
73
0
0
TEXT
5
66
330
10
100
AcDbEntity
8
S-ANNO-NOTE
100
AcDbText
10
-46.6964
20
-3.2375
30
0.0
40
1.125
1
MFR. (IRC R703.4)*
7
KERF
100
AcDbText
73
0
0
LWPOLYLINE
5
67
330
10
100
AcDbEntity
8
S-ANNO-NOTE
370
18
100
AcDbPolyline
90
3
70
0
10
-20.02
20
-0.875
10
-18.52
20
-0.875
10
3.0938
20
-0.875
0
HATCH
5
68
330
10
100
AcDbEntity
8
S-ANNO-NOTE
100
AcDbHatch
10
0.0
20
0.0
30
0.0
210
0.0
220
0.0
230
1.0
2
SOLID
70
1
71
0
91
1
92
3
72
0
73
1
93
3
10
4.2188
20
-0.875
10
3.0938
20
-0.5
10
3.0938
20
-1.25
97
0
75
0
76
1
98
0
0
TEXT
5
69
330
10
100
AcDbEntity
8
S-ANNO-NOTE
100
AcDbText
10
40.5
20
-22.1986
30
0.0
40
1.125
1
FINISH GRADE, SLOPE AWAY 6"
7
KERF
100
AcDbText
73
0
0
TEXT
5
6A
330
10
100
AcDbEntity
8
S-ANNO-NOTE
100
AcDbText
10
40.5
20
-23.9986
30
0.0
40
1.125
1
MIN. IN FIRST 10'-0" (IRC
7
KERF
100
AcDbText
73
0
0
TEXT
5
6B
330
10
100
AcDbEntity
8
S-ANNO-NOTE
100
AcDbText
10
40.5
20
-25.7986
30
0.0
40
1.125
1
R401.3)*
7
KERF
100
AcDbText
73
0
0
LWPOLYLINE
5
6C
330
10
100
AcDbEntity
8
S-ANNO-NOTE
370
18
100
AcDbPolyline
90
3
70
0
10
40.02
20
-23.4361
10
38.52
20
-23.4361
10
25.2627
20
-17.9835
0
HATCH
5
6D
330
10
100
AcDbEntity
8
S-ANNO-NOTE
100
AcDbHatch
10
0.0
20
0.0
30
0.0
210
0.0
220
0.0
230
1.0
2
SOLID
70
1
71
0
91
1
92
3
72
0
73
1
93
3
10
24.2222
20
-17.5556
10
25.12
20
-18.3303
10
25.4053
20
-17.6367
97
0
75
0
76
1
98
0
0
TEXT
5
6E
330
10
100
AcDbEntity
8
S-ANNO-NOTE
100
AcDbText
10
-12.0
20
3.0
30
0.0
40
0.9375
1
EXTERIOR
7
KERF
72
1
11
-12.0
21
3.0
31
0.0
100
AcDbText
73
2
0
TEXT
5
6F
330
10
100
AcDbEntity
8
S-ANNO-NOTE
100
AcDbText
10
24.0
20
3.0
30
0.0
40
0.9375
1
INTERIOR
7
KERF
72
1
11
24.0
21
3.0
31
0.0
100
AcDbText
73
2
0
LWPOLYLINE
5
70
330
10
100
AcDbEntity
8
S-ANNO-DIMS
370
13
100
AcDbPolyline
90
2
70
0
10
0.0
20
-18.75
10
0.0
20
-22.75
0
LWPOLYLINE
5
71
330
10
100
AcDbEntity
8
S-ANNO-DIMS
370
13
100
AcDbPolyline
90
2
70
0
10
12.0
20
-18.75
10
12.0
20
-22.75
0
LWPOLYLINE
5
72
330
10
100
AcDbEntity
8
S-ANNO-DIMS
370
13
100
AcDbPolyline
90
2
70
0
10
0.0
20
-22.0
10
12.0
20
-22.0
0
LWPOLYLINE
5
73
330
10
100
AcDbEntity
8
S-DETL-CUT
370
35
100
AcDbPolyline
90
2
70
0
10
-0.2652
20
-22.2652
10
0.2652
20
-21.7348
0
LWPOLYLINE
5
74
330
10
100
AcDbEntity
8
S-DETL-CUT
370
35
100
AcDbPolyline
90
2
70
0
10
11.7348
20
-22.2652
10
12.2652
20
-21.7348
0
TEXT
5
75
330
10
100
AcDbEntity
8
S-ANNO-DIMS
100
AcDbText
10
6.0
20
-21.4375
30
0.0
40
1.125
1
1'-0"
7
KERF
72
1
11
6.0
21
-21.4375
31
0.0
100
AcDbText
73
0
0
LWPOLYLINE
5
76
330
10
100
AcDbEntity
8
S-ANNO-DIMS
370
13
100
AcDbPolyline
90
2
70
0
10
-0.75
20
0.0
10
-10.75
20
0.0
0
LWPOLYLINE
5
77
330
10
100
AcDbEntity
8
S-ANNO-DIMS
370
13
100
AcDbPolyline
90
2
70
0
10
-0.75
20
-18.0
10
-10.75
20
-18.0
0
LWPOLYLINE
5
78
330
10
100
AcDbEntity
8
S-ANNO-DIMS
370
13
100
AcDbPolyline
90
2
70
0
10
-10.0
20
-18.0
10
-10.0
20
0.0
0
LWPOLYLINE
5
79
330
10
100
AcDbEntity
8
S-DETL-CUT
370
35
100
AcDbPolyline
90
2
70
0
10
-9.7348
20
-18.2652
10
-10.2652
20
-17.7348
0
LWPOLYLINE
5
7A
330
10
100
AcDbEntity
8
S-DETL-CUT
370
35
100
AcDbPolyline
90
2
70
0
10
-9.7348
20
-0.2652
10
-10.2652
20
0.2652
0
TEXT
5
7B
330
10
100
AcDbEntity
8
S-ANNO-DIMS
100
AcDbText
10
-10.5625
20
-9.0
30
0.0
40
1.125
1
1'-6"
50
90.0
7
KERF
72
1
11
-10.5625
21
-9.0
31
0.0
100
AcDbText
73
0
0
LWPOLYLINE
5
7C
330
10
100
AcDbEntity
8
S-ANNO-DIMS
370
13
100
AcDbPolyline
90
2
70
0
10
8.75
20
-1.5
10
12.75
20
-1.5
0
LWPOLYLINE
5
7D
330
10
100
AcDbEntity
8
S-ANNO-DIMS
370
13
100
AcDbPolyline
90
2
70
0
10
8.75
20
0.0
10
12.75
20
0.0
0
LWPOLYLINE
5
7E
330
10
100
AcDbEntity
8
S-ANNO-DIMS
370
13
100
AcDbPolyline
90
2
70
0
10
12.0
20
-1.5
10
12.0
20
8.3571
0
LWPOLYLINE
5
7F
330
10
100
AcDbEntity
8
S-DETL-CUT
370
35
100
AcDbPolyline
90
2
70
0
10
12.2652
20
-1.7652
10
11.7348
20
-1.2348
0
LWPOLYLINE
5
80
330
10
100
AcDbEntity
8
S-DETL-CUT
370
35
100
AcDbPolyline
90
2
70
0
10
12.2652
20
-0.2652
10
11.7348
20
0.2652
0
TEXT
5
81
330
10
100
AcDbEntity
8
S-ANNO-DIMS
100
AcDbText
10
11.4375
20
4.9286
30
0.0
40
1.125
1
1 1/2"
50
90.0
7
KERF
72
1
11
11.4375
21
4.9286
31
0.0
100
AcDbText
73
0
0
LWPOLYLINE
5
82
330
10
100
AcDbEntity
8
S-ANNO-TTLB
370
50
100
AcDbPolyline
90
2
70
1
10
-16.0
20
-34.55
42
1.0
10
-8.5
20
-34.55
42
1.0
0
LWPOLYLINE
5
83
330
10
100
AcDbEntity
8
S-ANNO-NOTE
370
18
100
AcDbPolyline
90
2
70
0
10
-16.0
20
-34.55
10
-8.5
20
-34.55
0
TEXT
5
84
330
10
100
AcDbEntity
8
S-ANNO-TTLB
100
AcDbText
10
-12.25
20
-32.675
30
0.0
40
1.875
1
2
7
KERF
72
1
11
-12.25
21
-32.675
31
0.0
100
AcDbText
73
2
0
TEXT
5
85
330
10
100
AcDbEntity
8
S-ANNO-TTLB
100
AcDbText
10
-12.25
20
-36.425
30
0.0
40
0.8438
1
S-501
7
KERF
72
1
11
-12.25
21
-36.425
31
0.0
100
AcDbText
73
2
0
TEXT
5
86
330
10
100
AcDbEntity
8
S-ANNO-TTLB
100
AcDbText
10
-6.7
20
-34.31
30
0.0
40
1.875
1
SLAB EDGE AT SLIDING DOOR
7
KERF
100
AcDbText
73
0
0
LWPOLYLINE
5
87
330
10
100
AcDbEntity
8
S-ANNO-TTLB
370
50
100
AcDbPolyline
90
2
70
0
10
-6.7
20
-35.15
10
34.1036
20
-35.15
0
TEXT
5
88
330
10
100
AcDbEntity
8
S-ANNO-TTLB
100
AcDbText
10
-6.7
20
-36.995
30
0.0
40
1.125
1
SCALE: 1" = 1'-0"
7
KERF
100
AcDbText
73
0
0
TEXT
5
89
330
10
100
AcDbEntity
8
S-ANNO-TTLB
100
AcDbText
10
-16.0
20
-40.625
30
0.0
40
0.9563
1
* CODE REFERENCE NOT VERIFIED BY DESIGNER
7
KERF
100
AcDbText
73
0
0
ENDSEC
0
SECTION
2
OBJECTS
0
DICTIONARY
5
A
330
0
100
AcDbDictionary
281
1
3
ACAD_GROUP
350
B
0
DICTIONARY
5
B
330
A
100
AcDbDictionary
281
1
0
ENDSEC
0
EOF
