0
SECTION
2
HEADER
9
$ACADVER
1
AC1015
9
$DWGCODEPAGE
3
ANSI_1252
9
$INSBASE
10
0.0
20
0.0
30
0.0
9
$EXTMIN
10
-25.9808
20
-45.7875
30
0.0
9
$EXTMAX
10
59.3108
20
33.0
30
0.0
9
$LTSCALE
40
1.0
9
$TEXTSTYLE
7
KERF
9
$CLAYER
8
0
9
$CELTYPE
6
BYLAYER
9
$LWDISPLAY
290
1
9
$MEASUREMENT
70
0
9
$INSUNITS
70
1
9
$TDCREATE
40
2451545.0
9
$TDUPDATE
40
2451545.0
9
$HANDSEED
5
FFFF
0
ENDSEC
0
SECTION
2
TABLES
0
TABLE
2
VPORT
5
8
330
0
100
AcDbSymbolTable
70
0
0
ENDTAB
0
TABLE
2
LTYPE
5
4
330
0
100
AcDbSymbolTable
70
5
0
LTYPE
5
20
330
4
100
AcDbSymbolTableRecord
100
AcDbLinetypeTableRecord
2
BYBLOCK
70
0
3

72
65
73
0
40
0.0
0
LTYPE
5
21
330
4
100
AcDbSymbolTableRecord
100
AcDbLinetypeTableRecord
2
BYLAYER
70
0
3

72
65
73
0
40
0.0
0
LTYPE
5
22
330
4
100
AcDbSymbolTableRecord
100
AcDbLinetypeTableRecord
2
CONTINUOUS
70
0
3
Solid line
72
65
73
0
40
0.0
0
LTYPE
5
23
330
4
100
AcDbSymbolTableRecord
100
AcDbLinetypeTableRecord
2
DASHED
70
0
3
Kerf dashed
72
65
73
2
40
1.3583
49
0.9055
74
0
49
-0.4528
74
0
0
LTYPE
5
24
330
4
100
AcDbSymbolTableRecord
100
AcDbLinetypeTableRecord
2
DASH_VAPOR
70
0
3
Kerf dashed
72
65
73
2
40
1.0187
49
0.6791
74
0
49
-0.3396
74
0
0
ENDTAB
0
TABLE
2
LAYER
5
2
330
0
100
AcDbSymbolTable
70
7
0
LAYER
5
25
330
2
100
AcDbSymbolTableRecord
100
AcDbLayerTableRecord
2
0
70
0
62
7
6
CONTINUOUS
0
LAYER
5
26
330
2
100
AcDbSymbolTableRecord
100
AcDbLayerTableRecord
2
S-DETL-CUT
70
0
62
7
6
CONTINUOUS
370
50
0
LAYER
5
27
330
2
100
AcDbSymbolTableRecord
100
AcDbLayerTableRecord
2
S-DETL-BYND
70
0
62
7
6
CONTINUOUS
370
25
0
LAYER
5
28
330
2
100
AcDbSymbolTableRecord
100
AcDbLayerTableRecord
2
S-DETL-PATT
70
0
62
7
6
CONTINUOUS
370
9
0
LAYER
5
29
330
2
100
AcDbSymbolTableRecord
100
AcDbLayerTableRecord
2
S-DETL-STL
70
0
62
7
6
CONTINUOUS
370
35
0
LAYER
5
2A
330
2
100
AcDbSymbolTableRecord
100
AcDbLayerTableRecord
2
S-ANNO-NOTE
70
0
62
7
6
CONTINUOUS
370
18
0
LAYER
5
2B
330
2
100
AcDbSymbolTableRecord
100
AcDbLayerTableRecord
2
S-ANNO-TTLB
70
0
62
7
6
CONTINUOUS
370
50
0
ENDTAB
0
TABLE
2
STYLE
5
3
330
0
100
AcDbSymbolTable
70
2
0
STYLE
5
2C
330
3
100
AcDbSymbolTableRecord
100
AcDbTextStyleTableRecord
2
STANDARD
70
0
40
0.0
41
1.0
50
0.0
71
0
42
1.0
3
txt
4

0
STYLE
5
2D
330
3
100
AcDbSymbolTableRecord
100
AcDbTextStyleTableRecord
2
KERF
70
0
40
0.0
41
1.0
50
0.0
71
0
42
1.0
3
romans.shx
4

0
ENDTAB
0
TABLE
2
VIEW
5
5
330
0
100
AcDbSymbolTable
70
0
0
ENDTAB
0
TABLE
2
UCS
5
6
330
0
100
AcDbSymbolTable
70
0
0
ENDTAB
0
TABLE
2
APPID
5
9
330
0
100
AcDbSymbolTable
70
1
0
APPID
5
2E
330
9
100
AcDbSymbolTableRecord
100
AcDbRegAppTableRecord
2
ACAD
70
0
0
ENDTAB
0
TABLE
2
BLOCK_RECORD
5
1
330
0
100
AcDbSymbolTable
70
2
0
BLOCK_RECORD
5
10
330
1
100
AcDbSymbolTableRecord
100
AcDbBlockTableRecord
2
*Model_Space
0
BLOCK_RECORD
5
11
330
1
100
AcDbSymbolTableRecord
100
AcDbBlockTableRecord
2
*Paper_Space
0
ENDTAB
0
ENDSEC
0
SECTION
2
BLOCKS
0
BLOCK
5
12
330
10
100
AcDbEntity
8
0
100
AcDbBlockBegin
2
*Model_Space
70
0
10
0.0
20
0.0
30
0.0
3
*Model_Space
1

0
ENDBLK
5
13
330
10
100
AcDbEntity
8
0
100
AcDbBlockEnd
0
BLOCK
5
14
330
11
100
AcDbEntity
8
0
100
AcDbBlockBegin
2
*Paper_Space
70
0
10
0.0
20
0.0
30
0.0
3
*Paper_Space
1

0
ENDBLK
5
15
330
11
100
AcDbEntity
8
0
100
AcDbBlockEnd
0
ENDSEC
0
SECTION
2
ENTITIES
0
HATCH
5
2F
330
10
100
AcDbEntity
8
S-DETL-PATT
100
AcDbHatch
10
0.0
20
0.0
30
0.0
210
0.0
220
0.0
230
1.0
2
KERF-CONC
70
0
71
0
91
1
92
3
72
0
73
1
93
8
10
0.0
20
-1.625
10
0.0
20
-18.0
10
10.3923
20
-12.0
10
22.5167
20
9.0
10
31.1769
20
14.0
10
31.1769
20
18.0
10
6.9282
20
4.0
10
6.9282
20
2.5
97
0
75
0
76
1
52
0.0
41
1.0
77
0
78
5
53
0.0
43
0.0
44
0.0
45
1.0776
46
0.9327
79
2
49
0.0
49
-2.1563
53
0.0
43
0.5405
44
0.46
45
1.0776
46
0.9327
79
2
49
0.0
49
-2.1563
53
60.0
43
1.265
44
0.23
45
-0.7187
46
3.7347
79
2
49
0.4025
49
-5.3475
53
180.0
43
1.6675
44
0.575
45
-2.875
46
-2.4897
79
2
49
0.4025
49
-5.3475
53
300.0
43
1.265
44
0.575
45
3.5937
46
-1.2449
79
2
49
0.4025
49
-5.3475
98
0
0
HATCH
5
30
330
10
100
AcDbEntity
8
S-DETL-PATT
100
AcDbHatch
10
0.0
20
0.0
30
0.0
210
0.0
220
0.0
230
1.0
2
KERF-GRAVEL
70
0
71
0
91
1
92
3
72
0
73
1
93
4
10
22.5167
20
9.0
10
19.0526
20
3.0
10
31.1769
20
10.0
10
31.1769
20
14.0
97
0
75
0
76
1
52
0.0
41
1.0
77
0
78
7
53
0.0
43
0.0
44
0.0
45
1.4375
46
2.1563
79
2
49
0.5175
49
-3.795
53
72.0
43
0.5175
44
0.0
45
-1.6065
46
2.0335
79
2
49
0.5175
49
-3.795
53
144.0
43
0.6785
44
0.4945
45
-2.4304
46
-0.8995
79
2
49
0.5175
49
-3.795
53
216.0
43
0.253
44
0.7935
45
0.1045
46
-2.5894
79
2
49
0.5175
49
-3.795
53
288.0
43
-0.161
44
0.4945
45
2.4949
46
-0.7008
79
2
49
0.5175
49
-3.795
53
30.0
43
2.185
44
1.15
45
0.1668
46
2.5861
79
2
49
0.345
49
-3.9675
53
150.0
43
2.185
44
1.15
45
-2.323
46
-1.1486
79
2
49
0.345
49
-3.9675
98
0
0
HATCH
5
31
330
10
100
AcDbEntity
8
S-DETL-PATT
100
AcDbHatch
10
0.0
20
0.0
30
0.0
210
0.0
220
0.0
230
1.0
2
EARTH
70
0
71
0
91
1
92
3
72
0
73
1
93
8
10
-13.8564
20
-14.0
10
-13.8564
20
-34.0
10
31.1769
20
-8.0
10
31.1769
20
10.0
10
19.0526
20
3.0
10
10.3923
20
-12.0
10
0.0
20
-18.0
10
0.0
20
-6.0
97
0
75
0
76
1
52
0.0
41
1.0
77
0
78
6
53
45.0
43
0.0
44
0.0
45
0.0
46
4.0659
79
2
49
2.875
49
-2.875
53
45.0
43
-0.7623
44
0.7623
45
0.0
46
4.0659
79
2
49
2.875
49
-2.875
53
45.0
43
-1.5247
44
1.5247
45
0.0
46
4.0659
79
2
49
2.875
49
-2.875
53
135.0
43
-1.5247
44
2.0329
45
-4.0659
46
0.0
79
2
49
2.875
49
-2.875
53
135.0
43
-0.7623
44
2.7953
45
-4.0659
46
0.0
79
2
49
2.875
49
-2.875
53
135.0
43
0.0
44
3.5576
45
-4.0659
46
0.0
79
2
49
2.875
49
-2.875
98
0
0
LWPOLYLINE
5
32
330
10
100
AcDbEntity
8
S-DETL-BYND
370
25
100
AcDbPolyline
90
2
70
0
10
-25.9808
20
13.375
10
0.0
20
-1.625
0
LWPOLYLINE
5
33
330
10
100
AcDbEntity
8
S-DETL-BYND
370
25
100
AcDbPolyline
90
2
70
0
10
-19.0526
20
19.0
10
6.9282
20
4.0
0
LWPOLYLINE
5
34
330
10
100
AcDbEntity
8
S-DETL-BYND
370
25
100
AcDbPolyline
90
2
70
0
10
6.4952
20
2.75
10
6.9282
20
2.5
0
LWPOLYLINE
5
35
330
10
100
AcDbEntity
8
S-DETL-BYND
370
25
100
AcDbPolyline
90
2
70
0
10
-25.1689
20
15.2188
10
0.8119
20
0.2188
0
LWPOLYLINE
5
36
330
10
100
AcDbEntity
8
S-DETL-CUT
370
35
100
AcDbPolyline
90
2
70
0
10
-25.9808
20
13.375
10
-25.9808
20
-3.0
0
LWPOLYLINE
5
37
330
10
100
AcDbEntity
8
S-DETL-CUT
370
35
100
AcDbPolyline
90
3
70
0
10
5.1962
20
33.0
10
-19.0526
20
19.0
10
-19.0526
20
18.25
0
LWPOLYLINE
5
38
330
10
100
AcDbEntity
8
S-DETL-CUT
370
35
100
AcDbPolyline
90
2
70
0
10
-25.0748
20
13.9144
10
-25.9808
20
13.375
0
LWPOLYLINE
5
39
330
10
100
AcDbEntity
8
S-DETL-CUT
370
35
100
AcDbPolyline
90
2
70
0
10
-25.9808
20
-3.0
10
-10.3923
20
-12.0
0
LWPOLYLINE
5
3A
330
10
100
AcDbEntity
8
S-DETL-CUT
370
35
100
AcDbPolyline
90
2
70
0
10
5.1962
20
33.0
10
31.1769
20
18.0
0
LWPOLYLINE
5
3B
330
10
100
AcDbEntity
8
S-DETL-CUT
370
35
100
AcDbPolyline
90
3
70
0
10
-19.4856
20
18.5
10
-25.1689
20
15.2188
10
-25.1689
20
13.9688
0
LWPOLYLINE
5
3C
330
10
100
AcDbEntity
8
S-DETL-CUT
370
35
100
AcDbPolyline
90
2
70
0
10
-25.1689
20
13.9688
10
0.8119
20
-1.0313
0
LWPOLYLINE
5
3D
330
10
100
AcDbEntity
8
S-DETL-CUT
370
35
100
AcDbPolyline
90
2
70
0
10
-19.4856
20
18.5
10
6.4952
20
3.5
0
LWPOLYLINE
5
3E
330
10
100
AcDbEntity
8
S-DETL-STL
370
35
100
AcDbPolyline
90
31
70
0
10
2.5981
20
-13.1875
10
2.604
20
-13.2491
10
2.6215
20
-13.3011
10
2.6498
20
-13.3413
10
2.6876
20
-13.368
10
2.7334
20
-13.38
10
2.7851
20
-13.3767
10
2.8404
20
-13.3584
10
2.897
20
-13.3257
10
2.9523
20
-13.2802
10
3.004
20
-13.2238
10
3.0498
20
-13.1589
10
3.0877
20
-13.0885
10
3.1159
20
-13.0156
10
3.1334
20
-12.9434
10
3.1393
20
-12.875
10
3.1334
20
-12.8134
10
3.1159
20
-12.7614
10
3.0877
20
-12.7212
10
3.0498
20
-12.6945
10
3.004
20
-12.6825
10
2.9523
20
-12.6858
10
2.897
20
-12.7041
10
2.8404
20
-12.7368
10
2.7851
20
-12.7823
10
2.7334
20
-12.8387
10
2.6876
20
-12.9036
10
2.6498
20
-12.974
10
2.6215
20
-13.0469
10
2.604
20
-13.1191
10
2.5981
20
-13.1875
0
LWPOLYLINE
5
3F
330
10
100
AcDbEntity
8
S-DETL-STL
370
35
100
AcDbPolyline
90
31
70
0
10
7.253
20
-10.5
10
7.2589
20
-10.5616
10
7.2764
20
-10.6136
10
7.3046
20
-10.6538
10
7.3425
20
-10.6805
10
7.3883
20
-10.6925
10
7.44
20
-10.6892
10
7.4953
20
-10.6709
10
7.5519
20
-10.6382
10
7.6072
20
-10.5927
10
7.6589
20
-10.5363
10
7.7047
20
-10.4714
10
7.7425
20
-10.401
10
7.7708
20
-10.3281
10
7.7883
20
-10.2559
10
7.7942
20
-10.1875
10
7.7883
20
-10.1259
10
7.7708
20
-10.0739
10
7.7425
20
-10.0337
10
7.7047
20
-10.007
10
7.6589
20
-9.995
10
7.6072
20
-9.9983
10
7.5519
20
-10.0166
10
7.4953
20
-10.0493
10
7.44
20
-10.0948
10
7.3883
20
-10.1512
10
7.3425
20
-10.2161
10
7.3046
20
-10.2865
10
7.2764
20
-10.3594
10
7.2589
20
-10.4316
10
7.253
20
-10.5
0
LWPOLYLINE
5
40
330
10
100
AcDbEntity
8
S-DETL-STL
370
35
100
AcDbPolyline
90
31
70
0
10
4.9796
20
-1.625
10
4.9844
20
-1.6742
10
4.9984
20
-1.7159
10
5.021
20
-1.7481
10
5.0513
20
-1.7694
10
5.0879
20
-1.779
10
5.1292
20
-1.7764
10
5.1735
20
-1.7617
10
5.2188
20
-1.7356
10
5.2631
20
-1.6991
10
5.3044
20
-1.654
10
5.341
20
-1.6021
10
5.3713
20
-1.5458
10
5.3939
20
-1.4875
10
5.4079
20
-1.4297
10
5.4127
20
-1.375
10
5.4079
20
-1.3258
10
5.3939
20
-1.2841
10
5.3713
20
-1.2519
10
5.341
20
-1.2306
10
5.3044
20
-1.221
10
5.2631
20
-1.2236
10
5.2188
20
-1.2383
10
5.1735
20
-1.2644
10
5.1292
20
-1.3009
10
5.0879
20
-1.346
10
5.0513
20
-1.3979
10
5.021
20
-1.4542
10
4.9984
20
-1.5125
10
4.9844
20
-1.5703
10
4.9796
20
-1.625
0
LWPOLYLINE
5
41
330
10
100
AcDbEntity
8
S-DETL-STL
370
35
100
AcDbPolyline
90
5
70
0
10
12.1244
20
5.25
10
12.1244
20
4.75
10
31.1769
20
15.75
10
31.1769
20
16.25
10
12.1244
20
5.25
0
LWPOLYLINE
5
42
330
10
100
AcDbEntity
8
S-DETL-STL
370
35
100
AcDbPolyline
90
31
70
0
10
17.104
20
7.375
10
17.1087
20
7.3258
10
17.1227
20
7.2841
10
17.1454
20
7.2519
10
17.1756
20
7.2306
10
17.2123
20
7.221
10
17.2536
20
7.2236
10
17.2979
20
7.2383
10
17.3431
20
7.2644
10
17.3874
20
7.3009
10
17.4288
20
7.346
10
17.4654
20
7.3979
10
17.4957
20
7.4542
10
17.5183
20
7.5125
10
17.5323
20
7.5703
10
17.537
20
7.625
10
17.5323
20
7.6742
10
17.5183
20
7.7159
10
17.4957
20
7.7481
10
17.4654
20
7.7694
10
17.4288
20
7.779
10
17.3874
20
7.7764
10
17.3431
20
7.7617
10
17.2979
20
7.7356
10
17.2536
20
7.6991
10
17.2123
20
7.654
10
17.1756
20
7.6021
10
17.1454
20
7.5458
10
17.1227
20
7.4875
10
17.1087
20
7.4297
10
17.104
20
7.375
0
LWPOLYLINE
5
43
330
10
100
AcDbEntity
8
S-DETL-STL
370
35
100
AcDbPolyline
90
2
70
0
10
17.342
20
7.7624
10
17.3431
20
7.7617
0
LWPOLYLINE
5
44
330
10
100
AcDbEntity
8
S-DETL-STL
370
35
100
AcDbPolyline
90
2
70
0
10
17.2967
20
7.7362
10
17.2979
20
7.7356
0
LWPOLYLINE
5
45
330
10
100
AcDbEntity
8
S-DETL-STL
370
35
100
AcDbPolyline
90
16
70
0
10
30.9667
20
15.4385
10
30.9604
20
15.375
10
30.9667
20
15.3188
10
30.9852
20
15.2731
10
31.0149
20
15.2407
10
31.0539
20
15.2232
10
31.1001
20
15.2219
10
31.1508
20
15.2368
10
31.1769
20
15.2518
10
31.1769
20
15.7482
10
31.1508
20
15.7331
10
31.1001
20
15.6894
10
31.0539
20
15.6347
10
31.0149
20
15.5722
10
30.9852
20
15.5055
10
30.9667
20
15.4385
0
LWPOLYLINE
5
46
330
10
100
AcDbEntity
8
S-DETL-STL
370
35
100
AcDbPolyline
90
2
70
0
10
31.1753
20
15.7491
10
31.1769
20
15.7482
0
LWPOLYLINE
5
47
330
10
100
AcDbEntity
8
S-DETL-STL
370
35
100
AcDbPolyline
90
2
70
0
10
31.1492
20
15.734
10
31.1508
20
15.7331
0
LWPOLYLINE
5
48
330
10
100
AcDbEntity
8
S-DETL-CUT
6
DASH_VAPOR
370
35
100
AcDbPolyline
90
5
70
0
10
10.3923
20
-12.0
10
10.4168
20
-12.0141
10
22.531
20
8.9683
10
31.1769
20
13.96
10
31.1769
20
14.0
0
LWPOLYLINE
5
49
330
10
100
AcDbEntity
8
S-DETL-CUT
370
50
100
AcDbPolyline
90
9
70
0
10
0.0
20
-1.625
10
0.0
20
-18.0
10
10.3923
20
-12.0
10
22.5167
20
9.0
10
31.1769
20
14.0
10
31.1769
20
18.0
10
6.9282
20
4.0
10
6.9282
20
2.5
10
0.0
20
-1.625
0
LWPOLYLINE
5
4A
330
10
100
AcDbEntity
8
S-DETL-CUT
370
50
100
AcDbPolyline
90
3
70
0
10
31.1769
20
10.0
10
19.0526
20
3.0
10
10.3923
20
-12.0
0
LWPOLYLINE
5
4B
330
10
100
AcDbEntity
8
S-DETL-CUT
370
50
100
AcDbPolyline
90
2
70
0
10
0.0
20
-6.0
10
-13.8564
20
-14.0
0
LWPOLYLINE
5
4C
330
10
100
AcDbEntity
8
S-DETL-CUT
370
50
100
AcDbPolyline
90
5
70
0
10
0.8119
20
-1.0313
10
6.4952
20
2.25
10
6.4952
20
3.5
10
0.8119
20
0.2188
10
0.8119
20
-1.0313
0
TEXT
5
4D
330
10
100
AcDbEntity
8
S-ANNO-NOTE
100
AcDbText
10
35.4894
20
-0.6415
30
0.0
40
1.0781
1
SLAB DEPRESSION FOR DOOR
7
KERF
100
AcDbText
73
0
0
TEXT
5
4E
330
10
100
AcDbEntity
8
S-ANNO-NOTE
100
AcDbText
10
35.4894
20
-2.3665
30
0.0
40
1.0781
1
SILL
7
KERF
100
AcDbText
73
0
0
LWPOLYLINE
5
4F
330
10
100
AcDbEntity
8
S-ANNO-NOTE
370
18
100
AcDbPolyline
90
3
70
0
10
35.0294
20
-0.9649
10
33.5919
20
-0.9649
10
12.3724
20
-0.9649
0
HATCH
5
50
330
10
100
AcDbEntity
8
S-ANNO-NOTE
100
AcDbHatch
10
0.0
20
0.0
30
0.0
210
0.0
220
0.0
230
1.0
2
SOLID
70
1
71
0
91
1
92
3
72
0
73
1
93
3
10
11.2943
20
-0.9649
10
12.3724
20
-1.3243
10
12.3724
20
-0.6056
97
0
75
0
76
1
98
0
0
TEXT
5
51
330
10
100
AcDbEntity
8
S-ANNO-NOTE
100
AcDbText
10
35.4894
20
-13.5703
30
0.0
40
1.0781
1
(2) #5 CONT. BOTT.
7
KERF
100
AcDbText
73
0
0
LWPOLYLINE
5
52
330
10
100
AcDbEntity
8
S-ANNO-NOTE
370
18
100
AcDbPolyline
90
3
70
0
10
35.0294
20
-13.0312
10
33.5919
20
-13.0312
10
3.9468
20
-13.0312
0
HATCH
5
53
330
10
100
AcDbEntity
8
S-ANNO-NOTE
100
AcDbHatch
10
0.0
20
0.0
30
0.0
210
0.0
220
0.0
230
1.0
2
SOLID
70
1
71
0
91
1
92
3
72
0
73
1
93
3
10
2.8687
20
-13.0312
10
3.9468
20
-13.3906
10
3.9468
20
-12.6719
97
0
75
0
76
1
98
0
0
LWPOLYLINE
5
54
330
10
100
AcDbEntity
8
S-ANNO-TTLB
370
50
100
AcDbPolyline
90
2
70
1
10
-25.9808
20
-42.1938
42
1.0
10
-18.7933
20
-42.1938
42
1.0
0
LWPOLYLINE
5
55
330
10
100
AcDbEntity
8
S-ANNO-NOTE
370
18
100
AcDbPolyline
90
2
70
0
10
-25.9808
20
-42.1938
10
-18.7933
20
-42.1938
0
TEXT
5
56
330
10
100
AcDbEntity
8
S-ANNO-TTLB
100
AcDbText
10
-22.387
20
-40.3969
30
0.0
40
1.7969
1
3
7
KERF
72
1
11
-22.387
21
-40.3969
31
0.0
100
AcDbText
73
2
0
TEXT
5
57
330
10
100
AcDbEntity
8
S-ANNO-TTLB
100
AcDbText
10
-22.387
20
-43.9906
30
0.0
40
0.8086
1
S-501
7
KERF
72
1
11
-22.387
21
-43.9906
31
0.0
100
AcDbText
73
2
0
TEXT
5
58
330
10
100
AcDbEntity
8
S-ANNO-TTLB
100
AcDbText
10
-17.0683
20
-41.9638
30
0.0
40
1.7969
1
SLAB EDGE AT SLIDING DOOR - ISO
7
KERF
100
AcDbText
73
0
0
LWPOLYLINE
5
59
330
10
100
AcDbEntity
8
S-ANNO-TTLB
370
50
100
AcDbPolyline
90
2
70
0
10
-17.0683
20
-42.7688
10
30.5917
20
-42.7688
0
TEXT
5
5A
330
10
100
AcDbEntity
8
S-ANNO-TTLB
100
AcDbText
10
-17.0683
20
-44.5369
30
0.0
40
1.0781
1
SCALE: NTS
7
KERF
100
AcDbText
73
0
0
ENDSEC
0
SECTION
2
OBJECTS
0
DICTIONARY
5
A
330
0
100
AcDbDictionary
281
1
3
ACAD_GROUP
350
B
0
DICTIONARY
5
B
330
A
100
AcDbDictionary
281
1
0
ENDSEC
0
EOF
