<svg xmlns="http://www.w3.org/2000/svg" xmlns:inkscape="http://www.inkscape.org/namespaces/inkscape" width="7.917in" height="7.351in" viewBox="0 0 759.999 705.704">
<style>path{fill:none;stroke:#000;stroke-linecap:round;stroke-linejoin:round}path.fill{fill:#000;stroke:none;fill-rule:evenodd}.cut{stroke-width:1.89}.profile{stroke-width:1.323}.beyond{stroke-width:0.945}.hidden{stroke-width:0.68;stroke-dasharray:7.559 3.78;stroke-linecap:butt}.hatch{stroke-width:0.34}.rebar{stroke-width:1.323}.steel{stroke-width:1.323}.membrane{stroke-width:1.323}.vapor{stroke-width:1.323;stroke-dasharray:5.669 2.835;stroke-linecap:butt}.anno{stroke-width:0.68}.dim{stroke-width:0.491}.break{stroke-width:0.945}.title{stroke-width:1.89}.frame{stroke-width:2.646}</style>
<rect id="paper" width="759.999" height="705.704" fill="#fff"/>
<g id="S-DETL-PATT" inkscape:groupmode="layer" inkscape:label="S-DETL-PATT">
<g data-src="slab"><path class="hatch" d="M248.756 442.859L248.756 442.859M264.345 433.859L264.345 433.859M279.933 424.859L279.933 424.859M295.521 415.859L295.521 415.859M311.11 406.859L311.11 406.859M326.698 397.859L326.698 397.859M240.958 439.576L240.958 439.576M256.546 430.576L256.546 430.576M272.135 421.576L272.135 421.576M287.723 412.576L287.723 412.576M303.312 403.576L303.312 403.576M318.9 394.576L318.9 394.576M334.488 385.576L334.488 385.576M248.748 427.293L248.748 427.293M264.336 418.293L264.336 418.293M279.925 409.293L279.925 409.293M295.513 400.293L295.513 400.293M311.102 391.293L311.102 391.293M326.69 382.293L326.69 382.293M342.279 373.293L342.279 373.293M240.949 424.009L240.949 424.009M256.538 415.009L256.538 415.009M272.126 406.009L272.126 406.009M287.715 397.009L287.715 397.009M303.303 388.009L303.303 388.009M318.892 379.009L318.892 379.009M334.48 370.009L334.48 370.009M248.739 411.726L248.739 411.726M264.328 402.726L264.328 402.726M279.916 393.726L279.916 393.726M295.505 384.726L295.505 384.726M311.093 375.726L311.093 375.726M326.682 366.726L326.682 366.726M342.27 357.726L342.27 357.726M240.941 408.443L240.941 408.443M256.53 399.443L256.53 399.443M272.118 390.443L272.118 390.443M287.706 381.443L287.706 381.443M303.295 372.443L303.295 372.443M318.883 363.443L318.883 363.443M334.472 354.443L334.472 354.443M350.06 345.443L350.06 345.443M248.731 396.16L248.731 396.16M264.32 387.16L264.32 387.16M279.908 378.16L279.908 378.16M295.497 369.16L295.497 369.16M311.085 360.16L311.085 360.16M326.673 351.16L326.673 351.16M342.262 342.16L342.262 342.16M357.85 333.16L357.85 333.16M240.933 392.877L240.933 392.877M256.521 383.877L256.521 383.877M272.11 374.877L272.11 374.877M287.698 365.877L287.698 365.877M303.287 356.877L303.287 356.877M318.875 347.877L318.875 347.877M334.464 338.877L334.464 338.877M350.052 329.877L350.052 329.877M365.64 320.877L365.64 320.877M248.723 380.593L248.723 380.593M264.311 371.593L264.311 371.593M279.9 362.593L279.9 362.593M295.488 353.593L295.488 353.593M311.077 344.593L311.077 344.593M326.665 335.593L326.665 335.593M342.254 326.593L342.254 326.593M357.842 317.593L357.842 317.593M373.43 308.593L373.43 308.593M240.924 377.31L240.924 377.31M256.513 368.31L256.513 368.31M272.101 359.31L272.101 359.31M287.69 350.31L287.69 350.31M303.278 341.31L303.278 341.31M318.867 332.31L318.867 332.31M334.455 323.31L334.455 323.31M350.044 314.31L350.044 314.31M365.632 305.31L365.632 305.31M381.221 296.31L381.221 296.31M248.715 365.027L248.715 365.027M264.303 356.027L264.303 356.027M279.891 347.027L279.891 347.027M295.48 338.027L295.48 338.027M311.068 329.027L311.068 329.027M326.657 320.027L326.657 320.027M342.245 311.027L342.245 311.027M357.834 302.027L357.834 302.027M373.422 293.027L373.422 293.027M389.011 284.027L389.011 284.027M240.916 361.744L240.916 361.744M256.505 352.744L256.505 352.744M272.093 343.744L272.093 343.744M287.682 334.744L287.682 334.744M303.27 325.744L303.27 325.744M318.858 316.744L318.858 316.744M334.447 307.744L334.447 307.744M350.035 298.744L350.035 298.744M365.624 289.744L365.624 289.744M381.212 280.744L381.212 280.744M396.801 271.744L396.801 271.744M248.706 349.461L248.706 349.461M264.295 340.461L264.295 340.461M279.883 331.461L279.883 331.461M295.472 322.461L295.472 322.461M311.06 313.461L311.06 313.461M326.648 304.461L326.648 304.461M342.237 295.461L342.237 295.461M357.825 286.461L357.825 286.461M373.414 277.461L373.414 277.461M389.002 268.461L389.002 268.461M404.591 259.461L404.591 259.461M240.908 346.177L240.908 346.177M256.496 337.177L256.496 337.177M272.085 328.177L272.085 328.177M287.673 319.177L287.673 319.177M303.262 310.177L303.262 310.177M318.85 301.177L318.85 301.177M334.439 292.177L334.439 292.177M350.027 283.177L350.027 283.177M365.615 274.177L365.615 274.177M381.204 265.177L381.204 265.177M396.792 256.177L396.792 256.177M412.381 247.177L412.381 247.177M248.698 333.894L248.698 333.894M264.286 324.894L264.286 324.894M279.875 315.894L279.875 315.894M295.463 306.894L295.463 306.894M311.052 297.894L311.052 297.894M326.64 288.894L326.64 288.894M342.229 279.894L342.229 279.894M357.817 270.894L357.817 270.894M373.406 261.894L373.406 261.894M388.994 252.894L388.994 252.894M404.582 243.894L404.582 243.894M420.171 234.894L420.171 234.894M240.9 330.611L240.9 330.611M256.488 321.611L256.488 321.611M272.076 312.611L272.076 312.611M287.665 303.611L287.665 303.611M303.253 294.611L303.253 294.611M318.842 285.611L318.842 285.611M334.43 276.611L334.43 276.611M350.019 267.611L350.019 267.611M365.607 258.611L365.607 258.611M381.196 249.611L381.196 249.611M396.784 240.611L396.784 240.611M412.373 231.611L412.373 231.611M427.961 222.611L427.961 222.611M443.549 213.611L443.549 213.611M459.138 204.611L459.138 204.611M474.726 195.611L474.726 195.611M490.315 186.611L490.315 186.611M248.69 318.328L248.69 318.328M264.278 309.328L264.278 309.328M279.866 300.328L279.866 300.328M295.455 291.328L295.455 291.328M311.043 282.328L311.043 282.328M326.632 273.328L326.632 273.328M342.22 264.328L342.22 264.328M357.809 255.328L357.809 255.328M373.397 246.328L373.397 246.328M388.986 237.328L388.986 237.328M404.574 228.328L404.574 228.328M420.163 219.328L420.163 219.328M435.751 210.328L435.751 210.328M451.34 201.328L451.34 201.328M466.928 192.328L466.928 192.328M482.516 183.328L482.516 183.328M498.105 174.328L498.105 174.328M240.891 315.045L240.891 315.045M256.48 306.045L256.48 306.045M272.068 297.045L272.068 297.045M287.657 288.045L287.657 288.045M303.245 279.045L303.245 279.045M318.833 270.045L318.833 270.045M334.422 261.045L334.422 261.045M350.01 252.045L350.01 252.045M365.599 243.045L365.599 243.045M381.187 234.045L381.187 234.045M396.776 225.045L396.776 225.045M412.364 216.045L412.364 216.045M427.953 207.045L427.953 207.045M443.541 198.045L443.541 198.045M459.13 189.045L459.13 189.045M474.718 180.045L474.718 180.045M490.307 171.045L490.307 171.045M311.035 266.761L311.035 266.761M326.624 257.761L326.624 257.761M342.212 248.761L342.212 248.761M357.8 239.761L357.8 239.761M373.389 230.761L373.389 230.761M388.977 221.761L388.977 221.761M404.566 212.761L404.566 212.761M420.154 203.761L420.154 203.761M435.743 194.761L435.743 194.761M451.331 185.761L451.331 185.761M466.92 176.761L466.92 176.761M482.508 167.761L482.508 167.761M498.097 158.761L498.097 158.761M252.664 436.763L252.664 436.763M268.252 427.763L268.252 427.763M283.841 418.763L283.841 418.763M299.429 409.763L299.429 409.763M315.017 400.763L315.017 400.763M330.606 391.763L330.606 391.763M244.865 433.48L244.865 433.48M260.454 424.48L260.454 424.48M276.042 415.48L276.042 415.48M291.631 406.48L291.631 406.48M307.219 397.48L307.219 397.48M322.808 388.48L322.808 388.48M338.396 379.48L338.396 379.48M252.655 421.197L252.655 421.197M268.244 412.197L268.244 412.197M283.832 403.197L283.832 403.197M299.421 394.197L299.421 394.197M315.009 385.197L315.009 385.197M330.598 376.197L330.598 376.197M346.186 367.197L346.186 367.197M244.857 417.913L244.857 417.913M260.445 408.913L260.445 408.913M276.034 399.913L276.034 399.913M291.622 390.913L291.622 390.913M307.211 381.913L307.211 381.913M322.799 372.913L322.799 372.913M338.388 363.913L338.388 363.913M252.647 405.63L252.647 405.63M268.235 396.63L268.235 396.63M283.824 387.63L283.824 387.63M299.412 378.63L299.412 378.63M315.001 369.63L315.001 369.63M330.589 360.63L330.589 360.63M346.178 351.63L346.178 351.63M244.849 402.347L244.849 402.347M260.437 393.347L260.437 393.347M276.026 384.347L276.026 384.347M291.614 375.347L291.614 375.347M307.202 366.347L307.202 366.347M322.791 357.347L322.791 357.347M338.379 348.347L338.379 348.347M353.968 339.347L353.968 339.347M252.639 390.064L252.639 390.064M268.227 381.064L268.227 381.064M283.816 372.064L283.816 372.064M299.404 363.064L299.404 363.064M314.992 354.064L314.992 354.064M330.581 345.064L330.581 345.064M346.169 336.064L346.169 336.064M361.758 327.064L361.758 327.064M244.84 386.781L244.84 386.781M260.429 377.781L260.429 377.781M276.017 368.781L276.017 368.781M291.606 359.781L291.606 359.781M307.194 350.781L307.194 350.781M322.783 341.781L322.783 341.781M338.371 332.781L338.371 332.781M353.959 323.781L353.959 323.781M369.548 314.781L369.548 314.781M252.63 374.497L252.63 374.497M268.219 365.497L268.219 365.497M283.807 356.497L283.807 356.497M299.396 347.497L299.396 347.497M314.984 338.497L314.984 338.497M330.573 329.497L330.573 329.497M346.161 320.497L346.161 320.497M361.75 311.497L361.75 311.497M377.338 302.497L377.338 302.497M244.832 371.214L244.832 371.214M260.42 362.214L260.42 362.214M276.009 353.214L276.009 353.214M291.597 344.214L291.597 344.214M307.186 335.214L307.186 335.214M322.774 326.214L322.774 326.214M338.363 317.214L338.363 317.214M353.951 308.214L353.951 308.214M369.54 299.214L369.54 299.214M385.128 290.214L385.128 290.214M252.622 358.931L252.622 358.931M268.21 349.931L268.21 349.931M283.799 340.931L283.799 340.931M299.387 331.931L299.387 331.931M314.976 322.931L314.976 322.931M330.564 313.931L330.564 313.931M346.153 304.931L346.153 304.931M361.741 295.931L361.741 295.931M377.33 286.931L377.33 286.931M392.918 277.931L392.918 277.931M244.824 355.648L244.824 355.648M260.412 346.648L260.412 346.648M276.001 337.648L276.001 337.648M291.589 328.648L291.589 328.648M307.177 319.648L307.177 319.648M322.766 310.648L322.766 310.648M338.354 301.648L338.354 301.648M353.943 292.648L353.943 292.648M369.531 283.648L369.531 283.648M385.12 274.648L385.12 274.648M400.708 265.648L400.708 265.648M252.614 343.365L252.614 343.365M268.202 334.365L268.202 334.365M283.791 325.365L283.791 325.365M299.379 316.365L299.379 316.365M314.968 307.365L314.968 307.365M330.556 298.365L330.556 298.365M346.144 289.365L346.144 289.365M361.733 280.365L361.733 280.365M377.321 271.365L377.321 271.365M392.91 262.365L392.91 262.365M408.498 253.365L408.498 253.365M244.815 340.081L244.815 340.081M260.404 331.081L260.404 331.081M275.992 322.081L275.992 322.081M291.581 313.081L291.581 313.081M307.169 304.081L307.169 304.081M322.758 295.081L322.758 295.081M338.346 286.081L338.346 286.081M353.935 277.081L353.935 277.081M369.523 268.081L369.523 268.081M385.111 259.081L385.111 259.081M400.7 250.081L400.7 250.081M416.288 241.081L416.288 241.081M252.605 327.798L252.605 327.798M268.194 318.798L268.194 318.798M283.782 309.798L283.782 309.798M299.371 300.798L299.371 300.798M314.959 291.798L314.959 291.798M330.548 282.798L330.548 282.798M346.136 273.798L346.136 273.798M361.725 264.798L361.725 264.798M377.313 255.798L377.313 255.798M392.902 246.798L392.902 246.798M408.49 237.798L408.49 237.798M424.078 228.798L424.078 228.798M244.807 324.515L244.807 324.515M260.395 315.515L260.395 315.515M275.984 306.515L275.984 306.515M291.572 297.515L291.572 297.515M307.161 288.515L307.161 288.515M322.749 279.515L322.749 279.515M338.338 270.515L338.338 270.515M353.926 261.515L353.926 261.515M369.515 252.515L369.515 252.515M385.103 243.515L385.103 243.515M400.692 234.515L400.692 234.515M416.28 225.515L416.28 225.515M431.869 216.515L431.869 216.515M447.457 207.515L447.457 207.515M463.045 198.515L463.045 198.515M478.634 189.515L478.634 189.515M494.222 180.515L494.222 180.515M252.597 312.232L252.597 312.232M268.186 303.232L268.186 303.232M283.774 294.232L283.774 294.232M299.362 285.232L299.362 285.232M314.951 276.232L314.951 276.232M330.539 267.232L330.539 267.232M346.128 258.232L346.128 258.232M361.716 249.232L361.716 249.232M377.305 240.232L377.305 240.232M392.893 231.232L392.893 231.232M408.482 222.232L408.482 222.232M424.07 213.232L424.07 213.232M439.659 204.232L439.659 204.232M455.247 195.232L455.247 195.232M470.835 186.232L470.835 186.232M486.424 177.232L486.424 177.232M307.153 272.949L307.153 272.949M322.741 263.949L322.741 263.949M338.329 254.949L338.329 254.949M353.918 245.949L353.918 245.949M369.506 236.949L369.506 236.949M385.095 227.949L385.095 227.949M400.683 218.949L400.683 218.949M416.272 209.949L416.272 209.949M431.86 200.949L431.86 200.949M447.449 191.949L447.449 191.949M463.037 182.949L463.037 182.949M478.626 173.949L478.626 173.949M494.214 164.949L494.214 164.949M299.354 269.665L299.354 269.665M314.943 260.665L314.943 260.665M330.531 251.665L330.531 251.665M346.12 242.665L346.12 242.665M361.708 233.665L361.708 233.665M377.296 224.665L377.296 224.665M392.885 215.665L392.885 215.665M408.473 206.665L408.473 206.665M424.062 197.665L424.062 197.665M439.65 188.665L439.65 188.665M455.239 179.665L455.239 179.665M470.827 170.665L470.827 170.665M486.416 161.665L486.416 161.665M473.458 173.67L474.913 169.92M447.477 199.062L448.932 195.313M421.497 224.455L422.952 220.705M374.732 303.416L376.187 299.667M395.517 249.847L396.972 246.097M327.967 382.378L329.422 378.628M348.752 328.809L350.207 325.059M369.536 275.239L370.991 271.49M390.321 221.67L391.776 217.92M301.987 407.77L303.442 404.02M322.772 354.201L324.226 350.451M343.556 300.632L345.011 296.882M364.341 247.063L365.796 243.313M296.791 379.593L298.246 375.844M317.576 326.024L319.031 322.274M338.36 272.455L339.815 268.705M270.811 404.986L272.266 401.236M291.596 351.417L293.05 347.667M312.38 297.847L313.835 294.097M244.831 430.378L246.286 426.628M265.615 376.809L267.07 373.059M286.4 323.24L287.855 319.49M307.184 269.67L308.639 265.921M240.883 398.985L241.09 398.451M260.42 348.632L261.874 344.882M281.204 295.063L282.659 291.313M255.224 320.455L256.679 316.705M481.569 176.502L478.659 178.182M439.999 200.502L437.09 202.182M398.43 224.502L395.52 226.182M356.861 248.502L353.951 250.182M315.292 272.502L312.382 274.182M273.723 296.502L270.813 298.182M419.215 233.286L416.305 234.966M377.646 257.286L374.736 258.966M336.076 281.286L333.167 282.966M294.507 305.286L291.597 306.966M252.938 329.286L250.028 330.966M398.43 266.07L395.52 267.75M356.861 290.07L353.951 291.75M315.292 314.07L312.382 315.75M273.723 338.07L270.813 339.75M377.646 298.854L374.736 300.534M336.076 322.854L333.167 324.534M294.507 346.854L291.597 348.534M252.938 370.854L250.028 372.534M356.861 331.638L353.951 333.318M315.292 355.638L312.382 357.318M273.723 379.638L270.813 381.318M336.076 364.422L333.167 366.102M294.507 388.422L291.597 390.102M252.938 412.422L250.028 414.102M315.292 397.206L312.382 398.886M273.723 421.206L270.813 422.886M255.226 421.497L256.681 423.566M240.883 359.524L241.092 359.821M260.421 387.32L261.876 389.39M281.206 416.889L282.661 418.959M244.832 323.575L246.287 325.644M265.617 353.144L267.072 355.214M286.402 382.713L287.857 384.783M270.813 318.967L272.268 321.037M291.597 348.537L293.052 350.607M312.382 378.106L313.837 380.176M296.793 314.36L298.248 316.43M317.578 343.93L319.033 345.999M338.362 373.499L339.817 375.569M301.989 280.184L303.444 282.254M322.773 309.753L324.228 311.823M343.558 339.322L345.013 341.392M327.969 275.577L329.424 277.647M348.754 305.146L350.209 307.216M353.949 270.97L355.404 273.04M374.734 300.539L376.189 302.609M359.145 236.793L360.6 238.863M379.93 266.363L381.385 268.432M385.125 232.186L386.58 234.256M405.91 261.756L406.646 262.803M411.106 227.579L412.561 229.649M442.282 188.796L443.737 190.866M468.262 184.189L469.717 186.258M494.242 179.581L495.697 181.651"/></g>
<g data-src="base"><path class="hatch" d="M427.944 245.478L431.686 243.318M459.121 227.478L462.863 225.318M490.298 209.478L494.039 207.318M438.337 221.478L442.078 219.318M469.514 203.478L473.255 201.318M500.691 185.478L501.142 185.217M488.255 222.829L489.411 218.053M476.641 212.56L477.797 207.784M455.393 242.091L456.549 237.315M443.778 231.821L444.935 227.045M422.53 261.352L423.686 256.576M494.893 201.937L491.866 201.145M477.323 219.59L474.296 218.798M452.1 212.992L449.634 212.347M459.752 237.243L456.726 236.451M434.53 230.645L431.503 229.853M416.96 248.298L415.275 247.857M426.067 232.358L423.04 236.645M452.044 217.815L449.018 222.102M426.822 253.538L423.795 257.825M478.022 203.272L474.995 207.559M452.799 238.995L449.773 243.282M501.142 192.777L500.973 193.016M478.777 224.452L475.75 228.739M420.088 250.39L421.244 253.831M438.125 245.827L439.281 249.268M446.965 213.888L447.684 216.029M456.162 241.263L456.36 241.855M464.564 208.024L465.721 211.466M482.601 203.461L483.757 206.902M500.638 198.898L501.142 200.398M486.416 223.593L488.576 220.906M460.621 234.897L462.781 232.21M487.621 201.308L489.781 198.621M434.827 246.201L436.987 243.513M461.827 212.612L463.987 209.925M436.033 223.916L438.193 221.229M501.142 198.67L500.49 198.612M485.856 218.089L483.696 217.896M458.856 215.678L456.696 215.485M442.062 234.962L439.902 234.769M425.268 254.247L423.108 254.054"/></g>
<g data-src="soil"><path class="hatch" d="M476.034 367.361L490.731 341.905M446.64 384.331L461.337 358.875M476.034 333.419L490.731 307.964M417.246 401.302L431.943 375.846M446.64 350.39L461.337 324.934M476.034 299.478L490.731 274.022M387.852 418.272L402.549 392.816M417.246 367.361L431.943 341.905M446.64 316.449L461.337 290.993M476.034 265.537L490.731 240.081M358.458 435.243L373.155 409.787M387.852 384.331L402.549 358.875M417.246 333.419L431.943 307.964M446.64 282.508L461.337 257.052M476.034 231.596L476.986 229.947M329.065 452.213L343.761 426.757M358.458 401.302L373.155 375.846M387.852 350.39L402.549 324.934M417.246 299.478L431.943 274.022M446.64 248.567L447.592 246.917M299.671 469.184L314.368 443.728M329.065 418.272L343.761 392.816M358.458 367.361L373.155 341.905M387.852 316.449L402.549 290.993M417.246 265.537L418.198 263.888M270.277 486.154L284.974 460.699M299.671 435.243L314.368 409.787M240.883 503.125L255.58 477.669M270.277 452.213L284.974 426.757M211.489 520.096L226.186 494.64M240.883 469.184L255.58 443.728M182.095 537.066L196.792 511.61M211.489 486.154L226.186 460.699M152.701 554.037L167.398 528.581M182.095 503.125L196.792 477.669M211.489 452.213L226.186 426.757M125.212 567.708L138.004 545.551M152.701 520.096L167.398 494.64M182.095 469.184L196.792 443.728M211.489 418.272L226.186 392.816M125.212 533.767L138.004 511.61M152.701 486.154L167.398 460.699M182.095 435.243L196.792 409.787M211.489 384.331L226.186 358.875M125.212 499.826L138.004 477.669M152.701 452.213L167.398 426.757M182.095 401.302L196.792 375.846M125.212 465.885L138.004 443.728M152.701 418.272L167.398 392.816M125.212 431.944L138.004 409.787M482.803 376.849L485.219 372.664M499.916 347.208L501.142 345.085M453.409 393.82L455.826 389.634M470.523 364.179L485.219 338.723M499.916 313.267L501.142 311.143M424.015 410.79L426.432 406.605M441.129 381.149L455.826 355.693M470.523 330.237L485.219 304.782M499.916 279.326L501.142 277.202M394.622 427.761L397.038 423.576M411.735 398.12L426.432 372.664M441.129 347.208L455.826 321.752M470.523 296.296L485.219 270.84M499.916 245.385L501.142 243.261M365.228 444.731L367.644 440.546M382.341 415.09L397.038 389.634M411.735 364.179L426.432 338.723M441.129 313.267L455.826 287.811M470.523 262.355L485.219 236.899M335.834 461.702L338.25 457.517M352.947 432.061L367.644 406.605M382.341 381.149L397.038 355.693M411.735 330.237L426.432 304.782M441.129 279.326L455.826 253.87M306.44 478.672L308.856 474.487M323.553 449.031L338.25 423.576M352.947 398.12L367.644 372.664M382.341 347.208L397.038 321.752M411.735 296.296L426.432 270.84M277.046 495.643L279.462 491.458M294.159 466.002L308.856 440.546M323.553 415.09L338.25 389.634M352.947 364.179L367.644 338.723M382.341 313.267L397.038 287.811M247.652 512.614L250.068 508.428M264.765 482.972L279.462 457.517M294.159 432.061L305.488 412.44M218.258 529.584L220.675 525.399M235.372 499.943L250.068 474.487M264.765 449.031L276.094 429.41M188.864 546.555L191.281 542.369M205.978 516.914L220.675 491.458M235.372 466.002L246.7 446.381M159.471 563.525L161.887 559.34M176.584 533.884L191.281 508.428M205.978 482.972L220.675 457.517M235.372 432.061L240.883 422.515M130.077 580.496L132.493 576.311M147.19 550.855L161.887 525.399M176.584 499.943L191.281 474.487M205.978 449.031L220.675 423.576M235.372 398.12L240.883 388.574M125.212 554.98L132.493 542.369M147.19 516.914L161.887 491.458M176.584 466.002L191.281 440.546M205.978 415.09L220.675 389.634M235.372 364.179L240.883 354.633M125.212 521.039L132.493 508.428M147.19 482.972L161.887 457.517M176.584 432.061L191.281 406.605M205.978 381.149L215.877 364.002M125.212 487.098L132.493 474.487M147.19 449.031L161.887 423.576M176.584 398.12L186.484 380.973M125.212 453.157L132.493 440.546M147.19 415.09L157.09 397.943M125.212 419.216L127.696 414.914M471.78 383.213L479.708 369.482M494.405 344.026L501.142 332.357M442.387 400.184L450.314 386.452M465.011 360.997L479.708 335.541M494.405 310.085L501.142 298.416M412.993 417.154L420.92 403.423M435.617 377.967L450.314 352.511M465.011 327.055L479.708 301.6M494.405 276.144L501.142 264.474M383.599 434.125L391.527 420.394M406.223 394.938L420.92 369.482M435.617 344.026L450.314 318.57M465.011 293.114L479.708 267.658M494.405 242.203L501.142 230.533M354.205 451.095L362.133 437.364M376.83 411.908L391.527 386.452M406.223 360.997L420.92 335.541M435.617 310.085L450.314 284.629M465.011 259.173L479.708 233.717M324.811 468.066L332.739 454.335M347.436 428.879L362.133 403.423M376.83 377.967L391.527 352.511M406.223 327.055L420.92 301.6M435.617 276.144L450.314 250.688M295.417 485.036L303.345 471.305M318.042 445.849L332.739 420.394M347.436 394.938L362.133 369.482M376.83 344.026L391.527 318.57M406.223 293.114L420.92 267.658M266.023 502.007L273.951 488.276M288.648 462.82L303.345 437.364M318.042 411.908L323.859 401.833M236.629 518.977L244.557 505.246M259.254 479.79L273.951 454.335M288.648 428.879L294.465 418.804M207.236 535.948L215.163 522.217M229.86 496.761L244.557 471.305M259.254 445.849L265.071 435.774M177.842 552.919L185.769 539.187M200.466 513.732L215.163 488.276M229.86 462.82L240.883 443.728M148.448 569.889L156.375 556.158M171.072 530.702L185.769 505.246M200.466 479.79L215.163 454.335M229.86 428.879L240.883 409.787M125.212 576.194L126.982 573.129M141.679 547.673L156.375 522.217M171.072 496.761L185.769 471.305M200.466 445.849L215.163 420.394M229.86 394.938L240.883 375.846M125.212 542.252L126.982 539.187M141.679 513.732L156.375 488.276M171.072 462.82L185.769 437.364M200.466 411.908L215.163 386.452M229.86 360.997L234.249 353.395M125.212 508.311L126.982 505.246M141.679 479.79L156.375 454.335M171.072 428.879L185.769 403.423M200.466 377.967L204.855 370.366M125.212 474.37L126.982 471.305M141.679 445.849L156.375 420.394M171.072 394.938L175.461 387.337M125.212 440.429L126.982 437.364M141.679 411.908L146.067 404.307M494.405 237.96L479.708 229.475M494.405 271.901L479.708 263.416M465.011 254.931L450.314 246.445M494.405 305.842L479.708 297.357M465.011 288.872L450.314 280.386M435.617 271.901L420.92 263.416M494.405 339.783L479.708 331.298M465.011 322.813L450.314 314.328M435.617 305.842L420.92 297.357M406.223 288.872L395.252 282.537M491.31 371.938L479.708 365.239M465.011 356.754L450.314 348.269M435.617 339.783L420.92 331.298M406.223 322.813L391.527 314.328M461.916 388.908L450.314 382.21M435.617 373.724L420.92 365.239M406.223 356.754L391.527 348.269M376.83 339.783L365.858 333.449M432.522 405.879L420.92 399.18M406.223 390.695L391.527 382.21M376.83 373.724L362.133 365.239M403.128 422.849L391.527 416.151M376.83 407.666L362.133 399.18M347.436 390.695L336.465 384.361M373.735 439.82L362.133 433.121M347.436 424.636L332.739 416.151M318.042 407.666L315.899 406.429M229.86 356.754L229.146 356.342M344.341 456.79L332.739 450.092M318.042 441.607L303.345 433.121M288.648 424.636L286.505 423.399M229.86 390.695L215.163 382.21M200.466 373.724L199.752 373.312M314.947 473.761L303.345 467.063M288.648 458.577L273.951 450.092M259.254 441.607L257.111 440.37M229.86 424.636L215.163 416.151M200.466 407.666L185.769 399.18M171.072 390.695L170.358 390.283M285.553 490.731L273.951 484.033M259.254 475.548L244.557 467.063M229.86 458.577L215.163 450.092M200.466 441.607L185.769 433.121M171.072 424.636L156.375 416.151M141.679 407.666L140.964 407.253M256.159 507.702L244.557 501.004M229.86 492.518L215.163 484.033M200.466 475.548L185.769 467.063M171.072 458.577L156.375 450.092M141.679 441.607L126.982 433.121M226.765 524.673L215.163 517.974M200.466 509.489L185.769 501.004M171.072 492.518L156.375 484.033M141.679 475.548L126.982 467.063M197.371 541.643L185.769 534.945M171.072 526.46L156.375 517.974M141.679 509.489L126.982 501.004M167.977 558.614L156.375 551.915M141.679 543.43L126.982 534.945M138.584 575.584L126.982 568.886M499.916 228.414L489.779 222.561M499.916 262.355L485.219 253.87M470.523 245.385L460.385 239.531M499.916 296.296L485.219 287.811M470.523 279.326L455.826 270.84M441.129 262.355L430.991 256.502M499.916 330.237L485.219 321.752M470.523 313.267L455.826 304.782M441.129 296.296L426.432 287.811M411.735 279.326L401.597 273.473M499.916 364.179L485.219 355.693M470.523 347.208L455.826 338.723M441.129 330.237L426.432 321.752M411.735 313.267L397.038 304.782M470.523 381.149L455.826 372.664M441.129 364.179L426.432 355.693M411.735 347.208L397.038 338.723M382.341 330.237L371.37 323.903M441.129 398.12L426.432 389.634M411.735 381.149L397.038 372.664M382.341 364.179L367.644 355.693M411.735 415.09L397.038 406.605M382.341 398.12L367.644 389.634M352.947 381.149L341.976 374.815M382.341 432.061L367.644 423.576M352.947 415.09L338.25 406.605M352.947 449.031L338.25 440.546M323.553 432.061L308.856 423.576M235.372 381.149L220.675 372.664M323.553 466.002L308.856 457.517M294.159 449.031L279.462 440.546M235.372 415.09L220.675 406.605M205.978 398.12L191.281 389.634M294.159 482.972L279.462 474.487M264.765 466.002L250.068 457.517M235.372 449.031L220.675 440.546M205.978 432.061L191.281 423.576M176.584 415.09L161.887 406.605M264.765 499.943L250.068 491.458M235.372 482.972L220.675 474.487M205.978 466.002L191.281 457.517M176.584 449.031L161.887 440.546M147.19 432.061L132.493 423.576M235.372 516.914L220.675 508.428M205.978 499.943L191.281 491.458M176.584 482.972L161.887 474.487M147.19 466.002L132.493 457.517M205.978 533.884L191.281 525.399M176.584 516.914L161.887 508.428M147.19 499.943L132.493 491.458M176.584 550.855L161.887 542.369M147.19 533.884L132.493 525.399M147.19 567.825L132.493 559.34M501.142 216.394L500.801 216.197M501.142 250.335L490.731 244.324M476.034 235.839L471.407 233.168M501.142 284.276L490.731 278.265M476.034 269.78L461.337 261.294M446.64 252.809L442.013 250.138M501.142 318.217L490.731 312.206M476.034 303.721L461.337 295.236M446.64 286.75L431.943 278.265M417.246 269.78L412.62 267.109M501.142 352.158L490.731 346.147M476.034 337.662L461.337 329.177M446.64 320.691L431.943 312.206M417.246 303.721L402.549 295.236M476.034 371.603L461.337 363.118M446.64 354.633L431.943 346.147M417.246 337.662L402.549 329.177M387.852 320.691L376.881 314.357M446.64 388.574L431.943 380.088M417.246 371.603L402.549 363.118M387.852 354.633L373.155 346.147M417.246 405.544L402.549 397.059M387.852 388.574L373.155 380.088M358.458 371.603L347.487 365.269M387.852 422.515L373.155 414.03M358.458 405.544L343.761 397.059M358.458 439.485L343.761 431M329.065 422.515L314.368 414.03M240.883 371.603L226.186 363.118M329.065 456.456L314.368 447.971M299.671 439.485L284.974 431M240.883 405.544L226.186 397.059M211.489 388.574L196.792 380.088M299.671 473.427L284.974 464.941M270.277 456.456L255.58 447.971M240.883 439.485L226.186 431M211.489 422.515L196.792 414.03M182.095 405.544L167.398 397.059M270.277 490.397L255.58 481.912M240.883 473.427L226.186 464.941M211.489 456.456L196.792 447.971M182.095 439.485L167.398 431M152.701 422.515L138.004 414.03M240.883 507.368L226.186 498.882M211.489 490.397L196.792 481.912M182.095 473.427L167.398 464.941M152.701 456.456L138.004 447.971M211.489 524.338L196.792 515.853M182.095 507.368L167.398 498.882M152.701 490.397L138.004 481.912M182.095 541.309L167.398 532.823M152.701 524.338L138.004 515.853M152.701 558.279L138.004 549.794"/></g>
</g>
<g id="S-DETL-BYND" inkscape:groupmode="layer" inkscape:label="S-DETL-BYND">
<g data-src="slab"><path class="beyond" d="M24 187.826L240.883 313.043"/><path class="beyond" d="M81.835 140.87L298.718 266.087"/><path class="beyond" d="M295.104 276.522L298.718 278.609"/></g>
<g data-src="door_sill"><path class="beyond" d="M30.778 172.435L247.66 297.652"/></g>
</g>
<g id="S-DETL-CUT" inkscape:groupmode="layer" inkscape:label="S-DETL-CUT">
<g data-src="slab"><path class="profile" d="M24 187.826L24 324.522"/><path class="profile" d="M284.259 24L81.835 140.87L81.835 147.13"/><path class="profile" d="M31.563 183.323L24 187.826"/><path class="profile" d="M24 324.522L154.13 399.652"/><path class="profile" d="M284.259 24L501.142 149.217"/><path class="cut" d="M240.883 313.043L240.883 449.739L327.636 399.652L428.848 224.348L501.142 182.609L501.142 149.217L298.718 266.087L298.718 278.609L240.883 313.043"/></g>
<g data-src="door_sill"><path class="profile" d="M78.221 145.043L30.778 172.435L30.778 182.87"/><path class="profile" d="M30.778 182.87L247.66 308.087"/><path class="profile" d="M78.221 145.043L295.104 270.261"/><path class="cut" d="M247.66 308.087L295.104 280.696L295.104 270.261L247.66 297.652L247.66 308.087"/></g>
<g data-src="vapor_retarder"><path class="vapor" d="M327.636 399.652L327.841 399.77L428.968 224.613L501.142 182.943L501.142 182.609"/></g>
<g data-src="soil"><path class="cut" d="M501.142 216L399.93 274.435L327.636 399.652"/><path class="cut" d="M240.883 349.565L125.212 416.348"/></g>
</g>
<g id="S-DETL-STL" inkscape:groupmode="layer" inkscape:label="S-DETL-STL">
<g data-src="ftg_bars"><path class="rebar" d="M262.571 409.565L262.621 410.079L262.766 410.514L263.003 410.849L263.319 411.072L263.701 411.172L264.132 411.145L264.594 410.992L265.067 410.719L265.528 410.339L265.96 409.868L266.342 409.327L266.658 408.739L266.894 408.13L267.04 407.527L267.09 406.957L267.04 406.443L266.894 406.008L266.658 405.672L266.342 405.449L265.96 405.349L265.528 405.377L265.067 405.53L264.594 405.803L264.132 406.183L263.701 406.654L263.319 407.195L263.003 407.783L262.766 408.391L262.621 408.994L262.571 409.565"/><path class="rebar" d="M301.429 387.13L301.479 387.644L301.625 388.079L301.861 388.415L302.177 388.638L302.559 388.737L302.99 388.71L303.452 388.557L303.925 388.284L304.387 387.904L304.818 387.433L305.2 386.892L305.516 386.304L305.752 385.696L305.898 385.093L305.948 384.522L305.898 384.008L305.752 383.573L305.516 383.237L305.2 383.015L304.818 382.915L304.387 382.942L303.925 383.095L303.452 383.368L302.99 383.748L302.559 384.219L302.177 384.76L301.861 385.348L301.625 385.957L301.479 386.56L301.429 387.13"/></g>
<g data-src="top_bar"><path class="rebar" d="M282.452 313.043L282.492 313.455L282.608 313.802L282.797 314.071L283.05 314.249L283.356 314.329L283.701 314.307L284.071 314.185L284.448 313.966L284.818 313.662L285.163 313.286L285.469 312.853L285.722 312.382L285.911 311.896L286.027 311.413L286.067 310.957L286.027 310.545L285.911 310.198L285.722 309.929L285.469 309.751L285.163 309.671L284.818 309.693L284.448 309.815L284.071 310.034L283.701 310.338L283.356 310.714L283.05 311.147L282.797 311.618L282.608 312.104L282.492 312.587L282.452 313.043"/></g>
<g data-src="slab_bars_x"><path class="rebar" d="M342.095 255.652L342.095 259.826L501.142 168L501.142 163.826L342.095 255.652"/></g>
<g data-src="slab_bars_z#0"><path class="rebar" d="M383.664 237.913L383.704 238.324L383.82 238.672L384.009 238.94L384.262 239.119L384.568 239.199L384.913 239.177L385.283 239.054L385.66 238.836L386.03 238.532L386.375 238.155L386.681 237.722L386.934 237.252L387.123 236.765L387.239 236.283L387.279 235.826L387.239 235.415L387.123 235.067L386.934 234.799L386.681 234.62L386.375 234.54L386.03 234.562L385.66 234.685L385.283 234.903L384.913 235.207L384.568 235.584L384.262 236.017L384.009 236.487L383.82 236.974L383.704 237.456L383.664 237.913"/><path class="rebar" d="M385.65 234.679L385.66 234.685"/><path class="rebar" d="M385.273 234.897L385.283 234.903"/></g>
<g data-src="slab_bars_z#1"><path class="rebar" d="M499.388 170.601L499.335 171.13L499.388 171.6L499.542 171.981L499.79 172.252L500.116 172.397L500.501 172.408L500.924 172.284L501.142 172.159L501.142 168.015L500.924 168.141L500.501 168.506L500.116 168.962L499.79 169.484L499.542 170.041L499.388 170.601"/><path class="rebar" d="M501.129 168.008L501.142 168.015"/><path class="rebar" d="M500.911 168.133L500.924 168.141"/></g>
</g>
<g id="S-ANNO-NOTE" inkscape:groupmode="layer" inkscape:label="S-ANNO-NOTE">
<g data-src="n_recess"><path class="anno" d="M544.428 297.119L543.571 296.262L542.285 295.833L540.571 295.833L539.285 296.262L538.428 297.119L538.428 297.976L538.857 298.833L539.285 299.262L540.142 299.691L542.714 300.548L543.571 300.976L543.999 301.405L544.428 302.262L544.428 303.548L543.571 304.405L542.285 304.833L540.571 304.833L539.285 304.405L538.428 303.548M547.428 295.833L547.428 304.833M547.428 304.833L552.571 304.833M556.857 295.833L553.428 304.833M556.857 295.833L560.285 304.833M554.714 301.833L558.999 301.833M562.428 295.833L562.428 304.833M562.428 295.833L566.285 295.833L567.571 296.262L567.999 296.691L568.428 297.548L568.428 298.405L567.999 299.262L567.571 299.691L566.285 300.119M562.428 300.119L566.285 300.119L567.571 300.548L567.999 300.976L568.428 301.833L568.428 303.119L567.999 303.976L567.571 304.405L566.285 304.833L562.428 304.833M578.285 295.833L578.285 304.833M578.285 295.833L581.285 295.833L582.571 296.262L583.428 297.119L583.857 297.976L584.285 299.262L584.285 301.405L583.857 302.691L583.428 303.548L582.571 304.405L581.285 304.833L578.285 304.833M587.285 295.833L587.285 304.833M587.285 295.833L592.857 295.833M587.285 300.119L590.714 300.119M587.285 304.833L592.857 304.833M595.428 295.833L595.428 304.833M595.428 295.833L599.285 295.833L600.571 296.262L600.999 296.691L601.428 297.548L601.428 298.833L600.999 299.691L600.571 300.119L599.285 300.548L595.428 300.548M604.428 295.833L604.428 304.833M604.428 295.833L608.285 295.833L609.571 296.262L609.999 296.691L610.428 297.548L610.428 298.405L609.999 299.262L609.571 299.691L608.285 300.119L604.428 300.119M607.428 300.119L610.428 304.833M613.428 295.833L613.428 304.833M613.428 295.833L618.999 295.833M613.428 300.119L616.857 300.119M613.428 304.833L618.999 304.833M627.142 297.119L626.285 296.262L624.999 295.833L623.285 295.833L621.999 296.262L621.142 297.119L621.142 297.976L621.571 298.833L621.999 299.262L622.857 299.691L625.428 300.548L626.285 300.976L626.714 301.405L627.142 302.262L627.142 303.548L626.285 304.405L624.999 304.833L623.285 304.833L621.999 304.405L621.142 303.548M635.714 297.119L634.857 296.262L633.571 295.833L631.857 295.833L630.571 296.262L629.714 297.119L629.714 297.976L630.142 298.833L630.571 299.262L631.428 299.691L633.999 300.548L634.857 300.976L635.285 301.405L635.714 302.262L635.714 303.548L634.857 304.405L633.571 304.833L631.857 304.833L630.571 304.405L629.714 303.548M638.714 295.833L638.714 304.833M644.285 295.833L643.428 296.262L642.571 297.119L642.142 297.976L641.714 299.262L641.714 301.405L642.142 302.691L642.571 303.548L643.428 304.405L644.285 304.833L645.999 304.833L646.857 304.405L647.714 303.548L648.142 302.691L648.571 301.405L648.571 299.262L648.142 297.976L647.714 297.119L646.857 296.262L645.999 295.833L644.285 295.833M651.571 295.833L651.571 304.833M651.571 295.833L657.571 304.833M657.571 295.833L657.571 304.833M667.857 295.833L667.857 304.833M667.857 295.833L673.428 295.833M667.857 300.119L671.285 300.119M677.714 295.833L676.857 296.262L675.999 297.119L675.571 297.976L675.142 299.262L675.142 301.405L675.571 302.691L675.999 303.548L676.857 304.405L677.714 304.833L679.428 304.833L680.285 304.405L681.142 303.548L681.571 302.691L681.999 301.405L681.999 299.262L681.571 297.976L681.142 297.119L680.285 296.262L679.428 295.833L677.714 295.833M684.999 295.833L684.999 304.833M684.999 295.833L688.857 295.833L690.142 296.262L690.571 296.691L690.999 297.548L690.999 298.405L690.571 299.262L690.142 299.691L688.857 300.119L684.999 300.119M687.999 300.119L690.999 304.833M700.857 295.833L700.857 304.833M700.857 295.833L703.857 295.833L705.142 296.262L705.999 297.119L706.428 297.976L706.857 299.262L706.857 301.405L706.428 302.691L705.999 303.548L705.142 304.405L703.857 304.833L700.857 304.833M711.999 295.833L711.142 296.262L710.285 297.119L709.857 297.976L709.428 299.262L709.428 301.405L709.857 302.691L710.285 303.548L711.142 304.405L711.999 304.833L713.714 304.833L714.571 304.405L715.428 303.548L715.857 302.691L716.285 301.405L716.285 299.262L715.857 297.976L715.428 297.119L714.571 296.262L713.714 295.833L711.999 295.833M721.428 295.833L720.571 296.262L719.714 297.119L719.285 297.976L718.857 299.262L718.857 301.405L719.285 302.691L719.714 303.548L720.571 304.405L721.428 304.833L723.142 304.833L723.999 304.405L724.857 303.548L725.285 302.691L725.714 301.405L725.714 299.262L725.285 297.976L724.857 297.119L723.999 296.262L723.142 295.833L721.428 295.833M728.714 295.833L728.714 304.833M728.714 295.833L732.571 295.833L733.857 296.262L734.285 296.691L734.714 297.548L734.714 298.405L734.285 299.262L733.857 299.691L732.571 300.119L728.714 300.119M731.714 300.119L734.714 304.833"/><path class="anno" d="M544.428 311.519L543.571 310.662L542.285 310.233L540.571 310.233L539.285 310.662L538.428 311.519L538.428 312.376L538.857 313.233L539.285 313.662L540.142 314.091L542.714 314.948L543.571 315.376L543.999 315.805L544.428 316.662L544.428 317.948L543.571 318.805L542.285 319.233L540.571 319.233L539.285 318.805L538.428 317.948M547.428 310.233L547.428 319.233M550.857 310.233L550.857 319.233M550.857 319.233L555.999 319.233M558.142 310.233L558.142 319.233M558.142 319.233L563.285 319.233"/><path class="anno" d="M533.302 307.533L521.302 307.533L344.166 307.533"/><path class="fill" d="M335.166 307.533L344.166 310.533L344.166 304.533L335.166 307.533Z"/></g>
<g data-src="n_ftg_bars"><path class="anno" d="M541.857 402.047L540.999 402.904L540.142 404.189L539.285 405.904L538.857 408.047L538.857 409.761L539.285 411.904L540.142 413.618L540.999 414.904L541.857 415.761M544.857 405.904L544.857 405.475L545.285 404.618L545.714 404.189L546.571 403.761L548.285 403.761L549.142 404.189L549.571 404.618L549.999 405.475L549.999 406.332L549.571 407.189L548.714 408.475L544.428 412.761L550.428 412.761M552.999 402.047L553.857 402.904L554.714 404.189L555.571 405.904L555.999 408.047L555.999 409.761L555.571 411.904L554.714 413.618L553.857 414.904L552.999 415.761M569.285 402.047L566.285 415.761M571.857 402.047L568.857 415.761M566.285 407.618L572.285 407.618M565.857 410.189L571.857 410.189M579.999 403.761L575.714 403.761L575.285 407.618L575.714 407.189L576.999 406.761L578.285 406.761L579.571 407.189L580.428 408.047L580.857 409.332L580.857 410.189L580.428 411.475L579.571 412.332L578.285 412.761L576.999 412.761L575.714 412.332L575.285 411.904L574.857 411.047M596.714 405.904L596.285 405.047L595.428 404.189L594.571 403.761L592.857 403.761L591.999 404.189L591.142 405.047L590.714 405.904L590.285 407.189L590.285 409.332L590.714 410.618L591.142 411.475L591.999 412.332L592.857 412.761L594.571 412.761L595.428 412.332L596.285 411.475L596.714 410.618M601.857 403.761L600.999 404.189L600.142 405.047L599.714 405.904L599.285 407.189L599.285 409.332L599.714 410.618L600.142 411.475L600.999 412.332L601.857 412.761L603.571 412.761L604.428 412.332L605.285 411.475L605.714 410.618L606.142 409.332L606.142 407.189L605.714 405.904L605.285 405.047L604.428 404.189L603.571 403.761L601.857 403.761M609.142 403.761L609.142 412.761M609.142 403.761L615.142 412.761M615.142 403.761L615.142 412.761M620.285 403.761L620.285 412.761M617.285 403.761L623.285 403.761M625.857 411.904L625.428 412.332L625.857 412.761L626.285 412.332L625.857 411.904M636.571 403.761L636.571 412.761M636.571 403.761L640.428 403.761L641.714 404.189L642.142 404.618L642.571 405.475L642.571 406.332L642.142 407.189L641.714 407.618L640.428 408.047M636.571 408.047L640.428 408.047L641.714 408.475L642.142 408.904L642.571 409.761L642.571 411.047L642.142 411.904L641.714 412.332L640.428 412.761L636.571 412.761M647.714 403.761L646.857 404.189L645.999 405.047L645.571 405.904L645.142 407.189L645.142 409.332L645.571 410.618L645.999 411.475L646.857 412.332L647.714 412.761L649.428 412.761L650.285 412.332L651.142 411.475L651.571 410.618L651.999 409.332L651.999 407.189L651.571 405.904L651.142 405.047L650.285 404.189L649.428 403.761L647.714 403.761M656.714 403.761L656.714 412.761M653.714 403.761L659.714 403.761M663.571 403.761L663.571 412.761M660.571 403.761L666.571 403.761M669.142 411.904L668.714 412.332L669.142 412.761L669.571 412.332L669.142 411.904"/><path class="anno" d="M533.302 408.261L521.302 408.261L273.83 408.261"/><path class="fill" d="M264.83 408.261L273.83 411.261L273.83 405.261L264.83 408.261Z"/></g>
<g data-src="title:B"><path class="anno" d="M24 651.704L84 651.704"/></g>
</g>
<g id="S-ANNO-TTLB" inkscape:groupmode="layer" inkscape:label="S-ANNO-TTLB">
<g data-src="title:B"><path class="title" d="M24 651.704A30 30 0 0 0 84 651.704A30 30 0 0 0 24 651.704Z"/><path class="title" d="M50.429 629.204L58.286 629.204L54 634.919L56.143 634.919L57.571 635.633L58.286 636.347L59 638.49L59 639.919L58.286 642.061L56.857 643.49L54.714 644.204L52.571 644.204L50.429 643.49L49.714 642.776L49 641.347"/><path class="anno" d="M42.429 664.294L41.786 663.651L40.821 663.329L39.536 663.329L38.571 663.651L37.929 664.294L37.929 664.936L38.25 665.579L38.571 665.901L39.214 666.222L41.143 666.865L41.786 667.186L42.107 667.508L42.429 668.151L42.429 669.115L41.786 669.758L40.821 670.079L39.536 670.079L38.571 669.758L37.929 669.115M44.679 667.186L50.464 667.186M56.571 663.329L53.357 663.329L53.036 666.222L53.357 665.901L54.321 665.579L55.286 665.579L56.25 665.901L56.893 666.544L57.214 667.508L57.214 668.151L56.893 669.115L56.25 669.758L55.286 670.079L54.321 670.079L53.357 669.758L53.036 669.436L52.714 668.794M61.071 663.329L60.107 663.651L59.464 664.615L59.143 666.222L59.143 667.186L59.464 668.794L60.107 669.758L61.071 670.079L61.714 670.079L62.679 669.758L63.321 668.794L63.643 667.186L63.643 666.222L63.321 664.615L62.679 663.651L61.714 663.329L61.071 663.329M66.536 664.615L67.179 664.294L68.143 663.329L68.143 670.079"/><path class="title" d="M110.543 636.927L109.114 635.499L106.971 634.784L104.114 634.784L101.971 635.499L100.543 636.927L100.543 638.356L101.257 639.784L101.971 640.499L103.4 641.213L107.686 642.641L109.114 643.356L109.829 644.07L110.543 645.499L110.543 647.641L109.114 649.07L106.971 649.784L104.114 649.784L101.971 649.07L100.543 647.641M115.543 634.784L115.543 649.784M115.543 649.784L124.114 649.784M131.257 634.784L125.543 649.784M131.257 634.784L136.971 649.784M127.686 644.784L134.829 644.784M140.543 634.784L140.543 649.784M140.543 634.784L146.971 634.784L149.114 635.499L149.829 636.213L150.543 637.641L150.543 639.07L149.829 640.499L149.114 641.213L146.971 641.927M140.543 641.927L146.971 641.927L149.114 642.641L149.829 643.356L150.543 644.784L150.543 646.927L149.829 648.356L149.114 649.07L146.971 649.784L140.543 649.784M166.971 634.784L166.971 649.784M166.971 634.784L176.257 634.784M166.971 641.927L172.686 641.927M166.971 649.784L176.257 649.784M180.543 634.784L180.543 649.784M180.543 634.784L185.543 634.784L187.686 635.499L189.114 636.927L189.829 638.356L190.543 640.499L190.543 644.07L189.829 646.213L189.114 647.641L187.686 649.07L185.543 649.784L180.543 649.784M205.543 638.356L204.829 636.927L203.4 635.499L201.971 634.784L199.114 634.784L197.686 635.499L196.257 636.927L195.543 638.356L194.829 640.499L194.829 644.07L195.543 646.213L196.257 647.641L197.686 649.07L199.114 649.784L201.971 649.784L203.4 649.07L204.829 647.641L205.543 646.213L205.543 644.07M201.971 644.07L205.543 644.07M210.543 634.784L210.543 649.784M210.543 634.784L219.829 634.784M210.543 641.927L216.257 641.927M210.543 649.784L219.829 649.784M239.114 634.784L233.4 649.784M239.114 634.784L244.829 649.784M235.543 644.784L242.686 644.784M251.257 634.784L251.257 649.784M246.257 634.784L256.257 634.784M280.543 636.927L279.114 635.499L276.971 634.784L274.114 634.784L271.971 635.499L270.543 636.927L270.543 638.356L271.257 639.784L271.971 640.499L273.4 641.213L277.686 642.641L279.114 643.356L279.829 644.07L280.543 645.499L280.543 647.641L279.114 649.07L276.971 649.784L274.114 649.784L271.971 649.07L270.543 647.641M285.543 634.784L285.543 649.784M285.543 649.784L294.114 649.784M297.686 634.784L297.686 649.784M303.4 634.784L303.4 649.784M303.4 634.784L308.4 634.784L310.543 635.499L311.971 636.927L312.686 638.356L313.4 640.499L313.4 644.07L312.686 646.213L311.971 647.641L310.543 649.07L308.4 649.784L303.4 649.784M318.4 634.784L318.4 649.784M324.114 634.784L324.114 649.784M324.114 634.784L334.114 649.784M334.114 634.784L334.114 649.784M349.829 638.356L349.114 636.927L347.686 635.499L346.257 634.784L343.4 634.784L341.971 635.499L340.543 636.927L339.829 638.356L339.114 640.499L339.114 644.07L339.829 646.213L340.543 647.641L341.971 649.07L343.4 649.784L346.257 649.784L347.686 649.07L349.114 647.641L349.829 646.213L349.829 644.07M346.257 644.07L349.829 644.07M366.257 634.784L366.257 649.784M366.257 634.784L371.257 634.784L373.4 635.499L374.829 636.927L375.543 638.356L376.257 640.499L376.257 644.07L375.543 646.213L374.829 647.641L373.4 649.07L371.257 649.784L366.257 649.784M384.829 634.784L383.4 635.499L381.971 636.927L381.257 638.356L380.543 640.499L380.543 644.07L381.257 646.213L381.971 647.641L383.4 649.07L384.829 649.784L387.686 649.784L389.114 649.07L390.543 647.641L391.257 646.213L391.971 644.07L391.971 640.499L391.257 638.356L390.543 636.927L389.114 635.499L387.686 634.784L384.829 634.784M400.543 634.784L399.114 635.499L397.686 636.927L396.971 638.356L396.257 640.499L396.257 644.07L396.971 646.213L397.686 647.641L399.114 649.07L400.543 649.784L403.4 649.784L404.829 649.07L406.257 647.641L406.971 646.213L407.686 644.07L407.686 640.499L406.971 638.356L406.257 636.927L404.829 635.499L403.4 634.784L400.543 634.784M412.686 634.784L412.686 649.784M412.686 634.784L419.114 634.784L421.257 635.499L421.971 636.213L422.686 637.641L422.686 639.07L421.971 640.499L421.257 641.213L419.114 641.927L412.686 641.927M417.686 641.927L422.686 649.784M439.114 643.356L451.971 643.356M469.114 634.784L469.114 649.784M484.114 636.927L482.686 635.499L480.543 634.784L477.686 634.784L475.543 635.499L474.114 636.927L474.114 638.356L474.829 639.784L475.543 640.499L476.971 641.213L481.257 642.641L482.686 643.356L483.4 644.07L484.114 645.499L484.114 647.641L482.686 649.07L480.543 649.784L477.686 649.784L475.543 649.07L474.114 647.641M492.686 634.784L491.257 635.499L489.829 636.927L489.114 638.356L488.4 640.499L488.4 644.07L489.114 646.213L489.829 647.641L491.257 649.07L492.686 649.784L495.543 649.784L496.971 649.07L498.4 647.641L499.114 646.213L499.829 644.07L499.829 640.499L499.114 638.356L498.4 636.927L496.971 635.499L495.543 634.784L492.686 634.784"/><path class="title" d="M98.4 656.504L496.257 656.504"/><path class="anno" d="M105.686 663.55L104.829 662.693L103.543 662.264L101.829 662.264L100.543 662.693L99.686 663.55L99.686 664.407L100.114 665.264L100.543 665.693L101.4 666.121L103.971 666.979L104.829 667.407L105.257 667.836L105.686 668.693L105.686 669.979L104.829 670.836L103.543 671.264L101.829 671.264L100.543 670.836L99.686 669.979M114.686 664.407L114.257 663.55L113.4 662.693L112.543 662.264L110.829 662.264L109.971 662.693L109.114 663.55L108.686 664.407L108.257 665.693L108.257 667.836L108.686 669.121L109.114 669.979L109.971 670.836L110.829 671.264L112.543 671.264L113.4 670.836L114.257 669.979L114.686 669.121M119.829 662.264L116.4 671.264M119.829 662.264L123.257 671.264M117.686 668.264L121.971 668.264M125.4 662.264L125.4 671.264M125.4 671.264L130.543 671.264M132.686 662.264L132.686 671.264M132.686 662.264L138.257 662.264M132.686 666.55L136.114 666.55M132.686 671.264L138.257 671.264M141.257 665.264L140.829 665.693L141.257 666.121L141.686 665.693L141.257 665.264M141.257 670.407L140.829 670.836L141.257 671.264L141.686 670.836L141.257 670.407M151.971 662.264L151.971 671.264M151.971 662.264L157.971 671.264M157.971 662.264L157.971 671.264M163.114 662.264L163.114 671.264M160.114 662.264L166.114 662.264M173.829 663.55L172.971 662.693L171.686 662.264L169.971 662.264L168.686 662.693L167.829 663.55L167.829 664.407L168.257 665.264L168.686 665.693L169.543 666.121L172.114 666.979L172.971 667.407L173.4 667.836L173.829 668.693L173.829 669.979L172.971 670.836L171.686 671.264L169.971 671.264L168.686 670.836L167.829 669.979"/></g>
</g>
</svg>
