<?xml version="1.0" encoding="UTF-8"?>
<svg xmlns="http://www.w3.org/2000/svg" xmlns:inkscape="http://www.inkscape.org/namespaces/inkscape" width="11in" height="8.5in" viewBox="0 0 1056 816">
<rect width="100%" height="100%" fill="#fff"/>
<g id="S-DETL-PATT" inkscape:groupmode="layer" inkscape:label="S-DETL-PATT">
<g data-src="beam">
<path d="M534.571 318.15L750.571 318.15M534.571 312.15L687.151 312.15M699.991 312.15L750.571 312.15M534.571 306.15L687.151 306.15M699.991 306.15L750.571 306.15M534.571 300.15L687.151 300.15M699.991 300.15L750.571 300.15M534.571 294.15L687.151 294.15M699.991 294.15L750.571 294.15M534.571 288.15L687.151 288.15M699.991 288.15L750.571 288.15M534.571 282.15L687.151 282.15M699.991 282.15L750.571 282.15M534.571 276.15L687.151 276.15M699.991 276.15L750.571 276.15M534.571 270.15L687.151 270.15M699.991 270.15L750.571 270.15M534.571 264.15L687.151 264.15M699.991 264.15L750.571 264.15M534.571 258.15L750.571 258.15M534.571 252.15L750.571 252.15" fill="none" stroke="#000" stroke-linecap="round" stroke-linejoin="round" stroke-width="0.34"/>
</g>
</g>
<g id="S-DETL-BYND" inkscape:groupmode="layer" inkscape:label="S-DETL-BYND">
<g data-src="jack_studs#0">
<path d="M546.571 418.15L546.571 323.15" fill="none" stroke="#000" stroke-linecap="round" stroke-linejoin="round" stroke-width="0.945"/>
</g>
<g data-src="king_studs#0">
<path d="M522.571 273.15L522.571 418.15" fill="none" stroke="#000" stroke-linecap="round" stroke-linejoin="round" stroke-width="0.945"/>
</g>
</g>
<g id="S-DETL-CUT" inkscape:groupmode="layer" inkscape:label="S-DETL-CUT">
<g data-src="beam">
<path d="M750.571 249.15L534.571 249.15L534.571 323.15L750.571 323.15" fill="none" stroke="#000" stroke-linecap="round" stroke-linejoin="round" stroke-width="1.89"/>
</g>
<g data-src="jack_studs#0">
<path d="M534.571 323.15L534.571 418.15" fill="none" stroke="#000" stroke-linecap="round" stroke-linejoin="round" stroke-width="1.89"/>
</g>
<g data-src="jack_studs#1">
<path d="M558.571 418.15L558.571 323.15" fill="none" stroke="#000" stroke-linecap="round" stroke-linejoin="round" stroke-width="1.89"/>
</g>
<g data-src="king_studs#0">
<path d="M534.571 273.15L522.571 273.15" fill="none" stroke="#000" stroke-linecap="round" stroke-linejoin="round" stroke-width="1.89"/>
</g>
<g data-src="king_studs#1">
<path d="M522.571 273.15L510.571 273.15L510.571 418.15" fill="none" stroke="#000" stroke-linecap="round" stroke-linejoin="round" stroke-width="1.89"/>
</g>
<g data-src="studs#0">
<path d="M396.571 418.15L396.571 273.15L384.571 273.15L384.571 418.15" fill="none" stroke="#000" stroke-linecap="round" stroke-linejoin="round" stroke-width="1.89"/>
</g>
<g data-src="lower_plate">
<path d="M334.571 273.15L384.571 273.15" fill="none" stroke="#000" stroke-linecap="round" stroke-linejoin="round" stroke-width="1.89"/>
<path d="M396.571 273.15L510.571 273.15" fill="none" stroke="#000" stroke-linecap="round" stroke-linejoin="round" stroke-width="1.89"/>
<path d="M534.571 261.15L334.571 261.15" fill="none" stroke="#000" stroke-linecap="round" stroke-linejoin="round" stroke-width="1.89"/>
</g>
<g data-src="upper_plate">
<path d="M534.571 249.15L334.571 249.15" fill="none" stroke="#000" stroke-linecap="round" stroke-linejoin="round" stroke-width="1.89"/>
</g>
<g data-src="d_strap_l">
<path d="M444.45 219.271L448.693 215.029" fill="none" stroke="#000" stroke-linecap="round" stroke-linejoin="round" stroke-width="1.323"/>
<path d="M532.45 219.271L536.693 215.029" fill="none" stroke="#000" stroke-linecap="round" stroke-linejoin="round" stroke-width="1.323"/>
</g>
<g data-src="d_strap_r">
<path d="M532.45 219.271L536.693 215.029" fill="none" stroke="#000" stroke-linecap="round" stroke-linejoin="round" stroke-width="1.323"/>
<path d="M620.45 219.271L624.693 215.029" fill="none" stroke="#000" stroke-linecap="round" stroke-linejoin="round" stroke-width="1.323"/>
</g>
<g data-src="d_beam">
<path d="M704.693 325.271L700.45 321.029" fill="none" stroke="#000" stroke-linecap="round" stroke-linejoin="round" stroke-width="1.323"/>
<path d="M704.693 251.271L700.45 247.029" fill="none" stroke="#000" stroke-linecap="round" stroke-linejoin="round" stroke-width="1.323"/>
</g>
</g>
<g id="S-DETL-STL" inkscape:groupmode="layer" inkscape:label="S-DETL-STL">
<g data-src="strap">
<path d="M446.571 248.672L622.571 248.672L622.571 249.15L446.571 249.15L446.571 248.672Z" fill="#000" fill-rule="evenodd" stroke="none"/>
<path d="M446.571 249.15L446.571 248.672L622.571 248.672L622.571 249.15" fill="none" stroke="#000" stroke-linecap="round" stroke-linejoin="round" stroke-width="1.323"/>
</g>
</g>
<g id="S-DETL-BRKL" inkscape:groupmode="layer" inkscape:label="S-DETL-BRKL">
<g data-src="crop">
<path d="M334.571 279.15L334.571 273.75L341.771 266.19L327.371 256.11L334.571 248.55L334.571 243.15" fill="none" stroke="#000" stroke-linecap="round" stroke-linejoin="round" stroke-width="0.945"/>
<path d="M750.571 329.15L750.571 310.15L762.571 295.75L738.571 276.55L750.571 262.15L750.571 243.15" fill="none" stroke="#000" stroke-linecap="round" stroke-linejoin="round" stroke-width="0.945"/>
<path d="M378.571 418.15L382.171 418.15L387.211 413.35L393.931 422.95L398.971 418.15L402.571 418.15" fill="none" stroke="#000" stroke-linecap="round" stroke-linejoin="round" stroke-width="0.945"/>
<path d="M504.571 418.15L513.571 418.15L526.171 406.15L542.971 430.15L555.571 418.15L564.571 418.15" fill="none" stroke="#000" stroke-linecap="round" stroke-linejoin="round" stroke-width="0.945"/>
</g>
</g>
<g id="S-ANNO-NOTE" inkscape:groupmode="layer" inkscape:label="S-ANNO-NOTE">
<g data-src="n_strap">
<path d="M88.143 195.297L87.286 194.439L86 194.011L84.286 194.011L83 194.439L82.143 195.297L82.143 196.154L82.571 197.011L83 197.439L83.857 197.868L86.429 198.725L87.286 199.154L87.714 199.582L88.143 200.439L88.143 201.725L87.286 202.582L86 203.011L84.286 203.011L83 202.582L82.143 201.725M91.143 194.011L91.143 203.011M94.571 194.011L94.571 203.011M94.571 194.011L98 203.011M101.429 194.011L98 203.011M101.429 194.011L101.429 203.011M104.857 194.011L104.857 203.011M104.857 194.011L108.714 194.011L110 194.439L110.429 194.868L110.857 195.725L110.857 197.011L110.429 197.868L110 198.297L108.714 198.725L104.857 198.725M119.429 195.297L118.571 194.439L117.286 194.011L115.571 194.011L114.286 194.439L113.429 195.297L113.429 196.154L113.857 197.011L114.286 197.439L115.143 197.868L117.714 198.725L118.571 199.154L119 199.582L119.429 200.439L119.429 201.725L118.571 202.582L117.286 203.011L115.571 203.011L114.286 202.582L113.429 201.725M124.571 194.011L123.714 194.439L122.857 195.297L122.429 196.154L122 197.439L122 199.582L122.429 200.868L122.857 201.725L123.714 202.582L124.571 203.011L126.286 203.011L127.143 202.582L128 201.725L128.429 200.868L128.857 199.582L128.857 197.439L128.429 196.154L128 195.297L127.143 194.439L126.286 194.011L124.571 194.011M131.857 194.011L131.857 203.011M131.857 194.011L137.857 203.011M137.857 194.011L137.857 203.011M154.143 196.154L153.714 195.297L152.857 194.439L152 194.011L150.286 194.011L149.429 194.439L148.571 195.297L148.143 196.154L147.714 197.439L147.714 199.582L148.143 200.868L148.571 201.725L149.429 202.582L150.286 203.011L152 203.011L152.857 202.582L153.714 201.725L154.143 200.868M162.714 195.297L161.857 194.439L160.571 194.011L158.857 194.011L157.571 194.439L156.714 195.297L156.714 196.154L157.143 197.011L157.571 197.439L158.429 197.868L161 198.725L161.857 199.154L162.286 199.582L162.714 200.439L162.714 201.725L161.857 202.582L160.571 203.011L158.857 203.011L157.571 202.582L156.714 201.725M166.571 195.725L167.429 195.297L168.714 194.011L168.714 203.011M179.429 195.297L179 194.439L177.714 194.011L176.857 194.011L175.571 194.439L174.714 195.725L174.286 197.868L174.286 200.011L174.714 201.725L175.571 202.582L176.857 203.011L177.286 203.011L178.571 202.582L179.429 201.725L179.857 200.439L179.857 200.011L179.429 198.725L178.571 197.868L177.286 197.439L176.857 197.439L175.571 197.868L174.714 198.725L174.286 200.011M195.286 195.297L194.429 194.439L193.143 194.011L191.429 194.011L190.143 194.439L189.286 195.297L189.286 196.154L189.714 197.011L190.143 197.439L191 197.868L193.571 198.725L194.429 199.154L194.857 199.582L195.286 200.439L195.286 201.725L194.429 202.582L193.143 203.011L191.429 203.011L190.143 202.582L189.286 201.725M200 194.011L200 203.011M197 194.011L203 194.011M205.143 194.011L205.143 203.011M205.143 194.011L209 194.011L210.286 194.439L210.714 194.868L211.143 195.725L211.143 196.582L210.714 197.439L210.286 197.868L209 198.297L205.143 198.297M208.143 198.297L211.143 203.011M216.286 194.011L212.857 203.011M216.286 194.011L219.714 203.011M214.143 200.011L218.429 200.011M221.857 194.011L221.857 203.011M221.857 194.011L225.714 194.011L227 194.439L227.429 194.868L227.857 195.725L227.857 197.011L227.429 197.868L227 198.297L225.714 198.725L221.857 198.725M237.286 194.011L243.286 203.011M243.286 194.011L237.286 203.011M253.143 196.154L253.143 195.725L253.571 194.868L254 194.439L254.857 194.011L256.571 194.011L257.429 194.439L257.857 194.868L258.286 195.725L258.286 196.582L257.857 197.439L257 198.725L252.714 203.011L258.714 203.011M261.714 196.154L261.714 195.725L262.143 194.868L262.571 194.439L263.429 194.011L265.143 194.011L266 194.439L266.429 194.868L266.857 195.725L266.857 196.582L266.429 197.439L265.571 198.725L261.286 203.011L267.286 203.011M270.286 194.011L270.286 197.011M273.714 194.011L273.714 197.011" fill="none" stroke="#000" stroke-linecap="round" stroke-linejoin="round" stroke-width="0.68"/>
<path d="M85.571 206.697L84.714 207.554L83.857 208.839L83 210.554L82.571 212.697L82.571 214.411L83 216.554L83.857 218.268L84.714 219.554L85.571 220.411M89.429 210.125L90.286 209.697L91.571 208.411L91.571 217.411M98 210.125L98.857 209.697L100.143 208.411L100.143 217.411M105.714 208.411L105.714 211.411M109.143 208.411L109.143 211.411M119.429 208.411L119.429 217.411M119.429 208.411L125 208.411M119.429 212.697L122.857 212.697M119.429 217.411L125 217.411M129.714 208.411L126.286 217.411M129.714 208.411L133.143 217.411M127.571 214.411L131.857 214.411M135.714 216.554L135.286 216.982L135.714 217.411L136.143 216.982L135.714 216.554M152 209.697L151.143 208.839L149.857 208.411L148.143 208.411L146.857 208.839L146 209.697L146 210.554L146.429 211.411L146.857 211.839L147.714 212.268L150.286 213.125L151.143 213.554L151.571 213.982L152 214.839L152 216.125L151.143 216.982L149.857 217.411L148.143 217.411L146.857 216.982L146 216.125M155 208.411L155 217.411M158.429 208.411L158.429 217.411M158.429 208.411L161.429 208.411L162.714 208.839L163.571 209.697L164 210.554L164.429 211.839L164.429 213.982L164 215.268L163.571 216.125L162.714 216.982L161.429 217.411L158.429 217.411M167.429 208.411L167.429 217.411M167.429 208.411L173 208.411M167.429 212.697L170.857 212.697M167.429 217.411L173 217.411M184.571 208.411L183.714 208.839L182.857 209.697L182.429 210.554L182 211.839L182 213.982L182.429 215.268L182.857 216.125L183.714 216.982L184.571 217.411L186.286 217.411L187.143 216.982L188 216.125L188.429 215.268L188.857 213.982L188.857 211.839L188.429 210.554L188 209.697L187.143 208.839L186.286 208.411L184.571 208.411M191.857 208.411L191.857 217.411M191.857 208.411L197.429 208.411M191.857 212.697L195.286 212.697M209.857 208.411L209.857 215.268L209.429 216.554L209 216.982L208.143 217.411L207.286 217.411L206.429 216.982L206 216.554L205.571 215.268L205.571 214.411M215.429 208.411L214.571 208.839L213.714 209.697L213.286 210.554L212.857 211.839L212.857 213.982L213.286 215.268L213.714 216.125L214.571 216.982L215.429 217.411L217.143 217.411L218 216.982L218.857 216.125L219.286 215.268L219.714 213.982L219.714 211.839L219.286 210.554L218.857 209.697L218 208.839L217.143 208.411L215.429 208.411M222.714 208.411L222.714 217.411M226.143 208.411L226.143 217.411M226.143 208.411L232.143 217.411M232.143 208.411L232.143 217.411M237.286 208.411L237.286 217.411M234.286 208.411L240.286 208.411M242 206.697L242.857 207.554L243.714 208.839L244.571 210.554L245 212.697L245 214.411L244.571 216.554L243.714 218.268L242.857 219.554L242 220.411M257.429 208.411L256.571 208.839L255.714 209.697L255.286 210.554L254.857 211.839L254.857 213.982L255.286 215.268L255.714 216.125L256.571 216.982L257.429 217.411L259.143 217.411L260 216.982L260.857 216.125L261.286 215.268L261.714 213.982L261.714 211.839L261.286 210.554L260.857 209.697L260 208.839L259.143 208.411L257.429 208.411M263.429 208.411L266.857 217.411M270.286 208.411L266.857 217.411M272.429 208.411L272.429 217.411M272.429 208.411L278 208.411M272.429 212.697L275.857 212.697M272.429 217.411L278 217.411M280.571 208.411L280.571 217.411M280.571 208.411L284.429 208.411L285.714 208.839L286.143 209.268L286.571 210.125L286.571 210.982L286.143 211.839L285.714 212.268L284.429 212.697L280.571 212.697M283.571 212.697L286.571 217.411" fill="none" stroke="#000" stroke-linecap="round" stroke-linejoin="round" stroke-width="0.68"/>
<path d="M84.286 222.811L84.286 231.811M81.286 222.811L87.286 222.811M91.571 222.811L90.714 223.239L89.857 224.097L89.429 224.954L89 226.239L89 228.382L89.429 229.668L89.857 230.525L90.714 231.382L91.571 231.811L93.286 231.811L94.143 231.382L95 230.525L95.429 229.668L95.857 228.382L95.857 226.239L95.429 224.954L95 224.097L94.143 223.239L93.286 222.811L91.571 222.811M98.857 222.811L98.857 231.811M98.857 222.811L102.714 222.811L104 223.239L104.429 223.668L104.857 224.525L104.857 225.811L104.429 226.668L104 227.097L102.714 227.525L98.857 227.525M116.857 222.811L116 223.239L115.143 224.097L114.714 224.954L114.286 226.239L114.286 228.382L114.714 229.668L115.143 230.525L116 231.382L116.857 231.811L118.571 231.811L119.429 231.382L120.286 230.525L120.714 229.668L121.143 228.382L121.143 226.239L120.714 224.954L120.286 224.097L119.429 223.239L118.571 222.811L116.857 222.811M124.143 222.811L124.143 231.811M124.143 222.811L129.714 222.811M124.143 227.097L127.571 227.097M138.714 222.811L138.714 231.811M138.714 222.811L142.571 222.811L143.857 223.239L144.286 223.668L144.714 224.525L144.714 225.811L144.286 226.668L143.857 227.097L142.571 227.525L138.714 227.525M147.714 222.811L147.714 231.811M147.714 231.811L152.857 231.811M157.143 222.811L153.714 231.811M157.143 222.811L160.571 231.811M155 228.811L159.286 228.811M164.429 222.811L164.429 231.811M161.429 222.811L167.429 222.811M169.571 222.811L169.571 231.811M169.571 222.811L175.143 222.811M169.571 227.097L173 227.097M169.571 231.811L175.143 231.811M192.714 226.668L192.714 226.239L192.286 225.811L191.857 225.811L191.429 226.239L191 227.097L190.143 229.239L189.286 230.525L188.429 231.382L187.571 231.811L185.857 231.811L185 231.382L184.571 230.954L184.143 230.097L184.143 229.239L184.571 228.382L185 227.954L188 226.239L188.429 225.811L188.857 224.954L188.857 224.097L188.429 223.239L187.571 222.811L186.714 223.239L186.286 224.097L186.286 224.954L186.714 226.239L187.571 227.525L189.714 230.525L190.571 231.382L191.429 231.811L192.286 231.811L192.714 231.382L192.714 230.954M202.571 222.811L202.571 231.811M202.571 222.811L206.429 222.811L207.714 223.239L208.143 223.668L208.571 224.525L208.571 225.382L208.143 226.239L207.714 226.668L206.429 227.097M202.571 227.097L206.429 227.097L207.714 227.525L208.143 227.954L208.571 228.811L208.571 230.097L208.143 230.954L207.714 231.382L206.429 231.811L202.571 231.811M211.571 222.811L211.571 231.811M211.571 222.811L217.143 222.811M211.571 227.097L215 227.097M211.571 231.811L217.143 231.811M221.857 222.811L218.429 231.811M221.857 222.811L225.286 231.811M219.714 228.811L224 228.811M227.429 222.811L227.429 231.811M227.429 222.811L230.857 231.811M234.286 222.811L230.857 231.811M234.286 222.811L234.286 231.811M243.714 222.811L245.857 231.811M248 222.811L245.857 231.811M248 222.811L250.143 231.811M252.286 222.811L250.143 231.811M261.714 221.097L254 234.811M274.143 221.097L273.286 221.954L272.429 223.239L271.571 224.954L271.143 227.097L271.143 228.811L271.571 230.954L272.429 232.668L273.286 233.954L274.143 234.811M277.143 224.954L277.143 224.525L277.571 223.668L278 223.239L278.857 222.811L280.571 222.811L281.429 223.239L281.857 223.668L282.286 224.525L282.286 225.382L281.857 226.239L281 227.525L276.714 231.811L282.714 231.811M287.857 222.811L286.571 223.239L285.714 224.525L285.286 226.668L285.286 227.954L285.714 230.097L286.571 231.382L287.857 231.811L288.714 231.811L290 231.382L290.857 230.097L291.286 227.954L291.286 226.668L290.857 224.525L290 223.239L288.714 222.811L287.857 222.811M293.857 221.097L294.714 221.954L295.571 223.239L296.429 224.954L296.857 227.097L296.857 228.811L296.429 230.954L295.571 232.668L294.714 233.954L293.857 234.811" fill="none" stroke="#000" stroke-linecap="round" stroke-linejoin="round" stroke-width="0.68"/>
<path d="M83.429 238.925L84.286 238.497L85.571 237.211L85.571 246.211M93.286 237.211L92 237.639L91.143 238.925L90.714 241.068L90.714 242.354L91.143 244.497L92 245.782L93.286 246.211L94.143 246.211L95.429 245.782L96.286 244.497L96.714 242.354L96.714 241.068L96.286 238.925L95.429 237.639L94.143 237.211L93.286 237.211M99.714 237.211L99.714 246.211M99.714 237.211L102.714 237.211L104 237.639L104.857 238.497L105.286 239.354L105.714 240.639L105.714 242.782L105.286 244.068L104.857 244.925L104 245.782L102.714 246.211L99.714 246.211M115.143 237.211L121.143 246.211M121.143 237.211L115.143 246.211M131 239.354L131 238.925L131.429 238.068L131.857 237.639L132.714 237.211L134.429 237.211L135.286 237.639L135.714 238.068L136.143 238.925L136.143 239.782L135.714 240.639L134.857 241.925L130.571 246.211L136.571 246.211M147.286 238.925L148.143 238.497L149.429 237.211L149.429 246.211M161.857 235.497L154.143 249.211M164.429 239.354L164.429 238.925L164.857 238.068L165.286 237.639L166.143 237.211L167.857 237.211L168.714 237.639L169.143 238.068L169.571 238.925L169.571 239.782L169.143 240.639L168.286 241.925L164 246.211L170 246.211M173 237.211L173 240.211M176.429 237.211L176.429 240.211M186.714 237.211L186.714 246.211M186.714 237.211L192.286 237.211M186.714 241.497L190.143 241.497M186.714 246.211L192.286 246.211M197 237.211L193.571 246.211M197 237.211L200.429 246.211M194.857 243.211L199.143 243.211M203 245.354L202.571 245.782L203 246.211L203.429 245.782L203 245.354M219.286 238.497L218.429 237.639L217.143 237.211L215.429 237.211L214.143 237.639L213.286 238.497L213.286 239.354L213.714 240.211L214.143 240.639L215 241.068L217.571 241.925L218.429 242.354L218.857 242.782L219.286 243.639L219.286 244.925L218.429 245.782L217.143 246.211L215.429 246.211L214.143 245.782L213.286 244.925M222.286 237.211L222.286 246.211M225.714 237.211L225.714 246.211M225.714 237.211L228.714 237.211L230 237.639L230.857 238.497L231.286 239.354L231.714 240.639L231.714 242.782L231.286 244.068L230.857 244.925L230 245.782L228.714 246.211L225.714 246.211M234.714 237.211L234.714 246.211M234.714 237.211L240.286 237.211M234.714 241.497L238.143 241.497M234.714 246.211L240.286 246.211M243.714 245.782L243.286 246.211L242.857 245.782L243.286 245.354L243.714 245.782L243.714 246.639L243.286 247.497L242.857 247.925" fill="none" stroke="#000" stroke-linecap="round" stroke-linejoin="round" stroke-width="0.68"/>
<path d="M82.571 251.611L82.571 260.611M86 251.611L86 260.611M86 251.611L92 260.611M92 251.611L92 260.611M101 252.897L100.143 252.039L98.857 251.611L97.143 251.611L95.857 252.039L95 252.897L95 253.754L95.429 254.611L95.857 255.039L96.714 255.468L99.286 256.325L100.143 256.754L100.571 257.182L101 258.039L101 259.325L100.143 260.182L98.857 260.611L97.143 260.611L95.857 260.182L95 259.325M105.714 251.611L105.714 260.611M102.714 251.611L108.714 251.611M113 251.611L109.571 260.611M113 251.611L116.429 260.611M110.857 257.611L115.143 257.611M118.571 251.611L118.571 260.611M118.571 260.611L123.714 260.611M125.857 251.611L125.857 260.611M125.857 260.611L131 260.611M140 251.611L140 260.611M140 251.611L143.857 251.611L145.143 252.039L145.571 252.468L146 253.325L146 254.611L145.571 255.468L145.143 255.897L143.857 256.325L140 256.325M149 251.611L149 260.611M149 251.611L154.571 251.611M149 255.897L152.429 255.897M149 260.611L154.571 260.611M157.143 251.611L157.143 260.611M157.143 251.611L161 251.611L162.286 252.039L162.714 252.468L163.143 253.325L163.143 254.182L162.714 255.039L162.286 255.468L161 255.897L157.143 255.897M160.143 255.897L163.143 260.611M173 251.611L173 260.611M173 251.611L176.429 260.611M179.857 251.611L176.429 260.611M179.857 251.611L179.857 260.611M183.286 251.611L183.286 260.611M183.286 251.611L188.857 251.611M183.286 255.897L186.714 255.897M191 251.611L191 260.611M191 251.611L194.857 251.611L196.143 252.039L196.571 252.468L197 253.325L197 254.182L196.571 255.039L196.143 255.468L194.857 255.897L191 255.897M194 255.897L197 260.611M200.429 259.754L200 260.182L200.429 260.611L200.857 260.182L200.429 259.754M214.143 249.897L213.286 250.754L212.429 252.039L211.571 253.754L211.143 255.897L211.143 257.611L211.571 259.754L212.429 261.468L213.286 262.754L214.143 263.611M217.143 251.611L217.143 260.611M220.571 251.611L220.571 260.611M220.571 251.611L224.429 251.611L225.714 252.039L226.143 252.468L226.571 253.325L226.571 254.182L226.143 255.039L225.714 255.468L224.429 255.897L220.571 255.897M223.571 255.897L226.571 260.611M235.571 253.754L235.143 252.897L234.286 252.039L233.429 251.611L231.714 251.611L230.857 252.039L230 252.897L229.571 253.754L229.143 255.039L229.143 257.182L229.571 258.468L230 259.325L230.857 260.182L231.714 260.611L233.429 260.611L234.286 260.182L235.143 259.325L235.571 258.468" fill="none" stroke="#000" stroke-linecap="round" stroke-linejoin="round" stroke-width="0.68"/>
<path d="M82.571 266.011L82.571 275.011M82.571 266.011L86.429 266.011L87.714 266.439L88.143 266.868L88.571 267.725L88.571 268.582L88.143 269.439L87.714 269.868L86.429 270.297L82.571 270.297M85.571 270.297L88.571 275.011M96.714 267.297L96.286 266.439L95 266.011L94.143 266.011L92.857 266.439L92 267.725L91.571 269.868L91.571 272.011L92 273.725L92.857 274.582L94.143 275.011L94.571 275.011L95.857 274.582L96.714 273.725L97.143 272.439L97.143 272.011L96.714 270.725L95.857 269.868L94.571 269.439L94.143 269.439L92.857 269.868L92 270.725L91.571 272.011M102.286 266.011L101 266.439L100.143 267.725L99.714 269.868L99.714 271.154L100.143 273.297L101 274.582L102.286 275.011L103.143 275.011L104.429 274.582L105.286 273.297L105.714 271.154L105.714 269.868L105.286 267.725L104.429 266.439L103.143 266.011L102.286 266.011M108.714 268.154L108.714 267.725L109.143 266.868L109.571 266.439L110.429 266.011L112.143 266.011L113 266.439L113.429 266.868L113.857 267.725L113.857 268.582L113.429 269.439L112.571 270.725L108.286 275.011L114.286 275.011M117.714 274.154L117.286 274.582L117.714 275.011L118.143 274.582L117.714 274.154M122 266.011L126.714 266.011L124.143 269.439L125.429 269.439L126.286 269.868L126.714 270.297L127.143 271.582L127.143 272.439L126.714 273.725L125.857 274.582L124.571 275.011L123.286 275.011L122 274.582L121.571 274.154L121.143 273.297M130.571 274.154L130.143 274.582L130.571 275.011L131 274.582L130.571 274.154M134.429 268.154L134.429 267.725L134.857 266.868L135.286 266.439L136.143 266.011L137.857 266.011L138.714 266.439L139.143 266.868L139.571 267.725L139.571 268.582L139.143 269.439L138.286 270.725L134 275.011L140 275.011M142.571 264.297L143.429 265.154L144.286 266.439L145.143 268.154L145.571 270.297L145.571 272.011L145.143 274.154L144.286 275.868L143.429 277.154L142.571 278.011M150.714 266.011L150.714 271.154M148.571 267.297L152.857 269.868M152.857 267.297L148.571 269.868" fill="none" stroke="#000" stroke-linecap="round" stroke-linejoin="round" stroke-width="0.68"/>
<path d="M302.411 234.511L314.411 234.511L525.591 248.323" fill="none" stroke="#000" stroke-linecap="round" stroke-linejoin="round" stroke-width="0.68"/>
<path d="M534.571 248.911L525.786 245.33L525.395 251.317L534.571 248.911Z" fill="#000" fill-rule="evenodd" stroke="none"/>
</g>
<g data-src="n_beam">
<path d="M791.286 181.036L790.429 181.893L789.571 183.179L788.714 184.893L788.286 187.036L788.286 188.75L788.714 190.893L789.571 192.607L790.429 193.893L791.286 194.75M794.286 184.893L794.286 184.464L794.714 183.607L795.143 183.179L796 182.75L797.714 182.75L798.571 183.179L799 183.607L799.429 184.464L799.429 185.321L799 186.179L798.143 187.464L793.857 191.75L799.857 191.75M802.429 181.036L803.286 181.893L804.143 183.179L805 184.893L805.429 187.036L805.429 188.75L805 190.893L804.143 192.607L803.286 193.893L802.429 194.75M816.571 184.464L817.429 184.036L818.714 182.75L818.714 191.75M831.571 182.75L836.286 182.75L833.714 186.179L835 186.179L835.857 186.607L836.286 187.036L836.714 188.321L836.714 189.179L836.286 190.464L835.429 191.321L834.143 191.75L832.857 191.75L831.571 191.321L831.143 190.893L830.714 190.036M846.571 181.036L838.857 194.75M853 182.75L848.714 188.75L855.143 188.75M853 182.75L853 191.75M857.714 182.75L857.714 185.75M861.143 182.75L861.143 185.75M871 182.75L877 191.75M877 182.75L871 191.75M892 185.75L891.571 187.036L890.714 187.893L889.429 188.321L889 188.321L887.714 187.893L886.857 187.036L886.429 185.75L886.429 185.321L886.857 184.036L887.714 183.179L889 182.75L889.429 182.75L890.714 183.179L891.571 184.036L892 185.75L892 187.893L891.571 190.036L890.714 191.321L889.429 191.75L888.571 191.75L887.286 191.321L886.857 190.464M903.143 184.464L904 184.036L905.286 182.75L905.286 191.75M917.714 181.036L910 194.75M924.143 182.75L919.857 188.75L926.286 188.75M924.143 182.75L924.143 191.75M928.857 182.75L928.857 185.75M932.286 182.75L932.286 185.75M942.571 182.75L942.571 191.75M942.571 191.75L947.714 191.75M948.571 182.75L952 191.75M955.429 182.75L952 191.75M957.571 182.75L957.571 191.75M957.571 191.75L962.714 191.75" fill="none" stroke="#000" stroke-linecap="round" stroke-linejoin="round" stroke-width="0.68"/>
<path d="M788.286 197.15L788.286 206.15M788.286 197.15L792.143 197.15L793.429 197.579L793.857 198.007L794.286 198.864L794.286 199.721L793.857 200.579L793.429 201.007L792.143 201.436M788.286 201.436L792.143 201.436L793.429 201.864L793.857 202.293L794.286 203.15L794.286 204.436L793.857 205.293L793.429 205.721L792.143 206.15L788.286 206.15M797.286 197.15L797.286 206.15M797.286 197.15L802.857 197.15M797.286 201.436L800.714 201.436M797.286 206.15L802.857 206.15M807.571 197.15L804.143 206.15M807.571 197.15L811 206.15M805.429 203.15L809.714 203.15M813.143 197.15L813.143 206.15M813.143 197.15L816.571 206.15M820 197.15L816.571 206.15M820 197.15L820 206.15M824.286 205.721L823.857 206.15L823.429 205.721L823.857 205.293L824.286 205.721L824.286 206.579L823.857 207.436L823.429 207.864M836.286 197.15L836.286 206.15M833.286 197.15L839.286 197.15M841.857 205.293L841.429 205.721L841.857 206.15L842.286 205.721L841.857 205.293M847.857 197.15L847 197.579L846.143 198.436L845.714 199.293L845.286 200.579L845.286 202.721L845.714 204.007L846.143 204.864L847 205.721L847.857 206.15L849.571 206.15L850.429 205.721L851.286 204.864L851.714 204.007L852.143 202.721L852.143 200.579L851.714 199.293L851.286 198.436L850.429 197.579L849.571 197.15L847.857 197.15M855.571 205.293L855.143 205.721L855.571 206.15L856 205.721L855.571 205.293M866.286 197.15L866.286 206.15M866.286 197.15L870.143 197.15L871.429 197.579L871.857 198.007L872.286 198.864L872.286 199.721L871.857 200.579L871.429 201.007L870.143 201.436M866.286 201.436L870.143 201.436L871.429 201.864L871.857 202.293L872.286 203.15L872.286 204.436L871.857 205.293L871.429 205.721L870.143 206.15L866.286 206.15M875.286 197.15L875.286 206.15M875.286 197.15L880.857 197.15M875.286 201.436L878.714 201.436M875.286 206.15L880.857 206.15M885.571 197.15L882.143 206.15M885.571 197.15L889 206.15M883.429 203.15L887.714 203.15M891.143 197.15L891.143 206.15M891.143 197.15L894.571 206.15M898 197.15L894.571 206.15M898 197.15L898 206.15M908.286 197.15L908.286 206.15M908.286 197.15L913.857 197.15M908.286 201.436L911.714 201.436M916 197.15L916 206.15M916 206.15L921.143 206.15M923.286 197.15L923.286 203.579L923.714 204.864L924.571 205.721L925.857 206.15L926.714 206.15L928 205.721L928.857 204.864L929.286 203.579L929.286 197.15M938.286 198.436L937.429 197.579L936.143 197.15L934.429 197.15L933.143 197.579L932.286 198.436L932.286 199.293L932.714 200.15L933.143 200.579L934 201.007L936.571 201.864L937.429 202.293L937.857 202.721L938.286 203.579L938.286 204.864L937.429 205.721L936.143 206.15L934.429 206.15L933.143 205.721L932.286 204.864M941.286 197.15L941.286 206.15M947.286 197.15L947.286 206.15M941.286 201.436L947.286 201.436M956.714 197.15L958.857 206.15M961 197.15L958.857 206.15M961 197.15L963.143 206.15M965.286 197.15L963.143 206.15M974.714 195.436L967 209.15" fill="none" stroke="#000" stroke-linecap="round" stroke-linejoin="round" stroke-width="0.68"/>
<path d="M790 211.55L790 220.55M787 211.55L793 211.55M795.571 219.693L795.143 220.121L795.571 220.55L796 220.121L795.571 219.693M801.571 211.55L800.714 211.979L799.857 212.836L799.429 213.693L799 214.979L799 217.121L799.429 218.407L799.857 219.264L800.714 220.121L801.571 220.55L803.286 220.55L804.143 220.121L805 219.264L805.429 218.407L805.857 217.121L805.857 214.979L805.429 213.693L805 212.836L804.143 211.979L803.286 211.55L801.571 211.55M809.286 219.693L808.857 220.121L809.286 220.55L809.714 220.121L809.286 219.693M820 211.55L820 220.55M820 211.55L823 211.55L824.286 211.979L825.143 212.836L825.571 213.693L826 214.979L826 217.121L825.571 218.407L825.143 219.264L824.286 220.121L823 220.55L820 220.55M829 211.55L829 220.55M829 211.55L832.857 211.55L834.143 211.979L834.571 212.407L835 213.264L835 214.121L834.571 214.979L834.143 215.407L832.857 215.836M829 215.836L832.857 215.836L834.143 216.264L834.571 216.693L835 217.55L835 218.836L834.571 219.693L834.143 220.121L832.857 220.55L829 220.55M838 211.55L838 220.55M838 220.55L843.143 220.55M845.714 219.693L845.286 220.121L845.714 220.55L846.143 220.121L845.714 219.693M858.143 211.55L858.143 220.55M855.143 211.55L861.143 211.55M865.429 211.55L864.571 211.979L863.714 212.836L863.286 213.693L862.857 214.979L862.857 217.121L863.286 218.407L863.714 219.264L864.571 220.121L865.429 220.55L867.143 220.55L868 220.121L868.857 219.264L869.286 218.407L869.714 217.121L869.714 214.979L869.286 213.693L868.857 212.836L868 211.979L867.143 211.55L865.429 211.55M872.714 211.55L872.714 220.55M872.714 211.55L876.571 211.55L877.857 211.979L878.286 212.407L878.714 213.264L878.714 214.55L878.286 215.407L877.857 215.836L876.571 216.264L872.714 216.264M888.571 211.55L888.571 220.55M888.571 211.55L892.429 211.55L893.714 211.979L894.143 212.407L894.571 213.264L894.571 214.55L894.143 215.407L893.714 215.836L892.429 216.264L888.571 216.264M897.571 211.55L897.571 220.55M897.571 220.55L902.714 220.55M907 211.55L903.571 220.55M907 211.55L910.429 220.55M904.857 217.55L909.143 217.55M914.286 211.55L914.286 220.55M911.286 211.55L917.286 211.55M919.429 211.55L919.429 220.55M919.429 211.55L925 211.55M919.429 215.836L922.857 215.836M919.429 220.55L925 220.55M928 219.693L927.571 220.121L928 220.55L928.429 220.121L928 219.693M938.714 211.55L938.714 220.55M938.714 211.55L944.714 220.55M944.714 211.55L944.714 220.55M950.286 211.55L946.857 220.55M950.286 211.55L953.714 220.55M948.143 217.55L952.429 217.55M955.857 211.55L955.857 220.55M959.286 211.55L959.286 220.55M959.286 220.55L964.429 220.55" fill="none" stroke="#000" stroke-linecap="round" stroke-linejoin="round" stroke-width="0.68"/>
<path d="M788.286 225.95L788.286 234.95M788.286 225.95L792.143 225.95L793.429 226.379L793.857 226.807L794.286 227.664L794.286 228.95L793.857 229.807L793.429 230.236L792.143 230.664L788.286 230.664M797.286 225.95L797.286 234.95M797.286 234.95L802.429 234.95M804.571 225.95L804.571 234.95M808 225.95L808 234.95M808 225.95L813.571 225.95M808 230.236L811.429 230.236M808 234.95L813.571 234.95M821.714 227.236L820.857 226.379L819.571 225.95L817.857 225.95L816.571 226.379L815.714 227.236L815.714 228.093L816.143 228.95L816.571 229.379L817.429 229.807L820 230.664L820.857 231.093L821.286 231.521L821.714 232.379L821.714 233.664L820.857 234.521L819.571 234.95L817.857 234.95L816.571 234.521L815.714 233.664M831.571 225.95L831.571 234.95M831.571 225.95L835.429 225.95L836.714 226.379L837.143 226.807L837.571 227.664L837.571 228.95L837.143 229.807L836.714 230.236L835.429 230.664L831.571 230.664M840.571 225.95L840.571 234.95M840.571 225.95L846.143 225.95M840.571 230.236L844 230.236M840.571 234.95L846.143 234.95M848.714 225.95L848.714 234.95M848.714 225.95L852.571 225.95L853.857 226.379L854.286 226.807L854.714 227.664L854.714 228.521L854.286 229.379L853.857 229.807L852.571 230.236L848.714 230.236M851.714 230.236L854.714 234.95M864.571 225.95L864.571 234.95M864.571 225.95L868 234.95M871.429 225.95L868 234.95M871.429 225.95L871.429 234.95M874.857 225.95L874.857 234.95M874.857 225.95L880.429 225.95M874.857 230.236L878.286 230.236M882.571 225.95L882.571 234.95M882.571 225.95L886.429 225.95L887.714 226.379L888.143 226.807L888.571 227.664L888.571 228.521L888.143 229.379L887.714 229.807L886.429 230.236L882.571 230.236M885.571 230.236L888.571 234.95M892 234.093L891.571 234.521L892 234.95L892.429 234.521L892 234.093" fill="none" stroke="#000" stroke-linecap="round" stroke-linejoin="round" stroke-width="0.68"/>
<path d="M782.731 208.85L770.731 208.85L646.158 269.7" fill="none" stroke="#000" stroke-linecap="round" stroke-linejoin="round" stroke-width="0.68"/>
<path d="M638.071 273.65L647.475 272.395L644.842 267.004L638.071 273.65Z" fill="#000" fill-rule="evenodd" stroke="none"/>
</g>
<g data-src="n_plates">
<path d="M148.571 286.65L148.571 295.65M148.571 286.65L151.571 286.65L152.857 287.079L153.714 287.936L154.143 288.793L154.571 290.079L154.571 292.221L154.143 293.507L153.714 294.364L152.857 295.221L151.571 295.65L148.571 295.65M157.571 286.65L157.571 295.65M157.571 286.65L161.429 286.65L162.714 287.079L163.143 287.507L163.571 288.364L163.571 289.221L163.143 290.079L162.714 290.507L161.429 290.936M157.571 290.936L161.429 290.936L162.714 291.364L163.143 291.793L163.571 292.65L163.571 293.936L163.143 294.793L162.714 295.221L161.429 295.65L157.571 295.65M166.571 286.65L166.571 295.65M166.571 295.65L171.714 295.65M174.286 294.793L173.857 295.221L174.286 295.65L174.714 295.221L174.286 294.793M185 288.793L185 288.364L185.429 287.507L185.857 287.079L186.714 286.65L188.429 286.65L189.286 287.079L189.714 287.507L190.143 288.364L190.143 289.221L189.714 290.079L188.857 291.364L184.571 295.65L190.571 295.65M193.143 286.65L199.143 295.65M199.143 286.65L193.143 295.65M206 286.65L201.714 292.65L208.143 292.65M206 286.65L206 295.65M219.286 286.65L219.286 295.65M216.286 286.65L222.286 286.65M226.571 286.65L225.714 287.079L224.857 287.936L224.429 288.793L224 290.079L224 292.221L224.429 293.507L224.857 294.364L225.714 295.221L226.571 295.65L228.286 295.65L229.143 295.221L230 294.364L230.429 293.507L230.857 292.221L230.857 290.079L230.429 288.793L230 287.936L229.143 287.079L228.286 286.65L226.571 286.65M233.857 286.65L233.857 295.65M233.857 286.65L237.714 286.65L239 287.079L239.429 287.507L239.857 288.364L239.857 289.65L239.429 290.507L239 290.936L237.714 291.364L233.857 291.364M249.714 286.65L249.714 295.65M249.714 286.65L253.571 286.65L254.857 287.079L255.286 287.507L255.714 288.364L255.714 289.65L255.286 290.507L254.857 290.936L253.571 291.364L249.714 291.364M258.714 286.65L258.714 295.65M258.714 295.65L263.857 295.65M268.143 286.65L264.714 295.65M268.143 286.65L271.571 295.65M266 292.65L270.286 292.65M275.429 286.65L275.429 295.65M272.429 286.65L278.429 286.65M280.571 286.65L280.571 295.65M280.571 286.65L286.143 286.65M280.571 290.936L284 290.936M280.571 295.65L286.143 295.65M289.571 295.221L289.143 295.65L288.714 295.221L289.143 294.793L289.571 295.221L289.571 296.079L289.143 296.936L288.714 297.364" fill="none" stroke="#000" stroke-linecap="round" stroke-linejoin="round" stroke-width="0.68"/>
<path d="M148.571 301.05L148.571 310.05M152 301.05L152 310.05M152 301.05L158 310.05M158 301.05L158 310.05M163.143 301.05L163.143 310.05M160.143 301.05L166.143 301.05M168.286 301.05L168.286 310.05M168.286 301.05L173.857 301.05M168.286 305.336L171.714 305.336M168.286 310.05L173.857 310.05M176.429 301.05L176.429 310.05M176.429 301.05L180.286 301.05L181.571 301.479L182 301.907L182.429 302.764L182.429 303.621L182 304.479L181.571 304.907L180.286 305.336L176.429 305.336M179.429 305.336L182.429 310.05M185.429 301.05L185.429 310.05M185.429 301.05L189.286 301.05L190.571 301.479L191 301.907L191.429 302.764L191.429 303.621L191 304.479L190.571 304.907L189.286 305.336L185.429 305.336M188.429 305.336L191.429 310.05M194.429 301.05L194.429 307.479L194.857 308.764L195.714 309.621L197 310.05L197.857 310.05L199.143 309.621L200 308.764L200.429 307.479L200.429 301.05M203.857 301.05L203.857 310.05M203.857 301.05L207.714 301.05L209 301.479L209.429 301.907L209.857 302.764L209.857 304.05L209.429 304.907L209 305.336L207.714 305.764L203.857 305.764M214.571 301.05L214.571 310.05M211.571 301.05L217.571 301.05M219.714 301.05L219.714 310.05M219.714 301.05L225.286 301.05M219.714 305.336L223.143 305.336M219.714 310.05L225.286 310.05M227.857 301.05L227.857 310.05M227.857 301.05L230.857 301.05L232.143 301.479L233 302.336L233.429 303.193L233.857 304.479L233.857 306.621L233.429 307.907L233 308.764L232.143 309.621L230.857 310.05L227.857 310.05M245.857 301.05L242.429 310.05M245.857 301.05L249.286 310.05M243.714 307.05L248 307.05M253.143 301.05L253.143 310.05M250.143 301.05L256.143 301.05M265.143 301.05L265.143 310.05M265.143 301.05L269 301.05L270.286 301.479L270.714 301.907L271.143 302.764L271.143 303.621L270.714 304.479L270.286 304.907L269 305.336M265.143 305.336L269 305.336L270.286 305.764L270.714 306.193L271.143 307.05L271.143 308.336L270.714 309.193L270.286 309.621L269 310.05L265.143 310.05M274.143 301.05L274.143 310.05M274.143 301.05L279.714 301.05M274.143 305.336L277.571 305.336M274.143 310.05L279.714 310.05M284.429 301.05L281 310.05M284.429 301.05L287.857 310.05M282.286 307.05L286.571 307.05M290 301.05L290 310.05M290 301.05L293.429 310.05M296.857 301.05L293.429 310.05M296.857 301.05L296.857 310.05" fill="none" stroke="#000" stroke-linecap="round" stroke-linejoin="round" stroke-width="0.68"/>
<path d="M302.411 298.35L314.411 298.35L426.102 258.195" fill="none" stroke="#000" stroke-linecap="round" stroke-linejoin="round" stroke-width="0.68"/>
<path d="M434.571 255.15L425.087 255.372L427.117 261.018L434.571 255.15Z" fill="#000" fill-rule="evenodd" stroke="none"/>
</g>
<g data-src="n_splice">
<path d="M84.286 320.25L83.429 320.679L82.571 321.536L82.143 322.393L81.714 323.679L81.714 325.821L82.143 327.107L82.571 327.964L83.429 328.821L84.286 329.25L86 329.25L86.857 328.821L87.714 327.964L88.143 327.107L88.571 325.821L88.571 323.679L88.143 322.393L87.714 321.536L86.857 320.679L86 320.25L84.286 320.25M91.571 320.25L91.571 329.25M91.571 320.25L97.143 320.25M91.571 324.536L95 324.536M99.286 320.25L99.286 329.25M99.286 320.25L104.857 320.25M99.286 324.536L102.714 324.536M112.571 321.536L111.714 320.679L110.429 320.25L108.714 320.25L107.429 320.679L106.571 321.536L106.571 322.393L107 323.25L107.429 323.679L108.286 324.107L110.857 324.964L111.714 325.393L112.143 325.821L112.571 326.679L112.571 327.964L111.714 328.821L110.429 329.25L108.714 329.25L107.429 328.821L106.571 327.964M115.571 320.25L115.571 329.25M115.571 320.25L121.143 320.25M115.571 324.536L119 324.536M115.571 329.25L121.143 329.25M125.429 320.25L125.429 329.25M122.429 320.25L128.429 320.25M139.143 320.25L139.143 329.25M136.143 320.25L142.143 320.25M146.429 320.25L145.571 320.679L144.714 321.536L144.286 322.393L143.857 323.679L143.857 325.821L144.286 327.107L144.714 327.964L145.571 328.821L146.429 329.25L148.143 329.25L149 328.821L149.857 327.964L150.286 327.107L150.714 325.821L150.714 323.679L150.286 322.393L149.857 321.536L149 320.679L148.143 320.25L146.429 320.25M153.714 320.25L153.714 329.25M153.714 320.25L157.571 320.25L158.857 320.679L159.286 321.107L159.714 321.964L159.714 323.25L159.286 324.107L158.857 324.536L157.571 324.964L153.714 324.964M169.571 320.25L169.571 329.25M169.571 320.25L173.429 320.25L174.714 320.679L175.143 321.107L175.571 321.964L175.571 323.25L175.143 324.107L174.714 324.536L173.429 324.964L169.571 324.964M178.571 320.25L178.571 329.25M178.571 329.25L183.714 329.25M188 320.25L184.571 329.25M188 320.25L191.429 329.25M185.857 326.25L190.143 326.25M195.286 320.25L195.286 329.25M192.286 320.25L198.286 320.25M200.429 320.25L200.429 329.25M200.429 320.25L206 320.25M200.429 324.536L203.857 324.536M200.429 329.25L206 329.25M215.429 320.25L215.429 329.25M215.429 320.25L221 320.25M215.429 324.536L218.857 324.536M215.429 329.25L221 329.25M223.571 320.25L223.571 329.25M223.571 320.25L229.571 329.25M229.571 320.25L229.571 329.25M233 320.25L233 329.25M233 320.25L236 320.25L237.286 320.679L238.143 321.536L238.571 322.393L239 323.679L239 325.821L238.571 327.107L238.143 327.964L237.286 328.821L236 329.25L233 329.25M252.286 320.25L252.286 327.107L251.857 328.393L251.429 328.821L250.571 329.25L249.714 329.25L248.857 328.821L248.429 328.393L248 327.107L248 326.25M257.857 320.25L257 320.679L256.143 321.536L255.714 322.393L255.286 323.679L255.286 325.821L255.714 327.107L256.143 327.964L257 328.821L257.857 329.25L259.571 329.25L260.429 328.821L261.286 327.964L261.714 327.107L262.143 325.821L262.143 323.679L261.714 322.393L261.286 321.536L260.429 320.679L259.571 320.25L257.857 320.25M265.143 320.25L265.143 329.25M268.571 320.25L268.571 329.25M268.571 320.25L274.571 329.25M274.571 320.25L274.571 329.25M279.714 320.25L279.714 329.25M276.714 320.25L282.714 320.25M290.429 321.536L289.571 320.679L288.286 320.25L286.571 320.25L285.286 320.679L284.429 321.536L284.429 322.393L284.857 323.25L285.286 323.679L286.143 324.107L288.714 324.964L289.571 325.393L290 325.821L290.429 326.679L290.429 327.964L289.571 328.821L288.286 329.25L286.571 329.25L285.286 328.821L284.429 327.964" fill="none" stroke="#000" stroke-linecap="round" stroke-linejoin="round" stroke-width="0.68"/>
<path d="M82.143 336.793L82.143 336.364L82.571 335.507L83 335.079L83.857 334.65L85.571 334.65L86.429 335.079L86.857 335.507L87.286 336.364L87.286 337.221L86.857 338.079L86 339.364L81.714 343.65L87.714 343.65M94.571 334.65L90.286 340.65L96.714 340.65M94.571 334.65L94.571 343.65M99.286 334.65L99.286 337.65M102.714 334.65L102.714 337.65M113 334.65L113 343.65M113 334.65L116.429 343.65M119.857 334.65L116.429 343.65M119.857 334.65L119.857 343.65M123.286 334.65L123.286 343.65M126.714 334.65L126.714 343.65M126.714 334.65L132.714 343.65M132.714 334.65L132.714 343.65M136.571 342.793L136.143 343.221L136.571 343.65L137 343.221L136.571 342.793M149.429 334.65L146 343.65M149.429 334.65L152.857 343.65M147.286 340.65L151.571 340.65M154.143 334.65L156.286 343.65M158.429 334.65L156.286 343.65M158.429 334.65L160.571 343.65M162.714 334.65L160.571 343.65M167.429 334.65L164 343.65M167.429 334.65L170.857 343.65M165.286 340.65L169.571 340.65M171.714 334.65L175.143 338.936L175.143 343.65M178.571 334.65L175.143 338.936M187.571 334.65L187.571 343.65M187.571 334.65L193.143 334.65M187.571 338.936L191 338.936M195.286 334.65L195.286 343.65M195.286 334.65L199.143 334.65L200.429 335.079L200.857 335.507L201.286 336.364L201.286 337.221L200.857 338.079L200.429 338.507L199.143 338.936L195.286 338.936M198.286 338.936L201.286 343.65M206.429 334.65L205.571 335.079L204.714 335.936L204.286 336.793L203.857 338.079L203.857 340.221L204.286 341.507L204.714 342.364L205.571 343.221L206.429 343.65L208.143 343.65L209 343.221L209.857 342.364L210.286 341.507L210.714 340.221L210.714 338.079L210.286 336.793L209.857 335.936L209 335.079L208.143 334.65L206.429 334.65M213.714 334.65L213.714 343.65M213.714 334.65L217.143 343.65M220.571 334.65L217.143 343.65M220.571 334.65L220.571 343.65M230.857 334.65L230.857 343.65M230.857 334.65L234.714 334.65L236 335.079L236.429 335.507L236.857 336.364L236.857 337.221L236.429 338.079L236 338.507L234.714 338.936M230.857 338.936L234.714 338.936L236 339.364L236.429 339.793L236.857 340.65L236.857 341.936L236.429 342.793L236 343.221L234.714 343.65L230.857 343.65M239.857 334.65L239.857 343.65M239.857 334.65L245.429 334.65M239.857 338.936L243.286 338.936M239.857 343.65L245.429 343.65M250.143 334.65L246.714 343.65M250.143 334.65L253.571 343.65M248 340.65L252.286 340.65M255.714 334.65L255.714 343.65M255.714 334.65L259.143 343.65M262.571 334.65L259.143 343.65M262.571 334.65L262.571 343.65M275.857 332.936L275 333.793L274.143 335.079L273.286 336.793L272.857 338.936L272.857 340.65L273.286 342.793L274.143 344.507L275 345.793L275.857 346.65M278.857 334.65L278.857 343.65M282.286 334.65L282.286 343.65M282.286 334.65L286.143 334.65L287.429 335.079L287.857 335.507L288.286 336.364L288.286 337.221L287.857 338.079L287.429 338.507L286.143 338.936L282.286 338.936M285.286 338.936L288.286 343.65M297.286 336.793L296.857 335.936L296 335.079L295.143 334.65L293.429 334.65L292.571 335.079L291.714 335.936L291.286 336.793L290.857 338.079L290.857 340.221L291.286 341.507L291.714 342.364L292.571 343.221L293.429 343.65L295.143 343.65L296 343.221L296.857 342.364L297.286 341.507" fill="none" stroke="#000" stroke-linecap="round" stroke-linejoin="round" stroke-width="0.68"/>
<path d="M82.143 349.05L82.143 358.05M82.143 349.05L86 349.05L87.286 349.479L87.714 349.907L88.143 350.764L88.143 351.621L87.714 352.479L87.286 352.907L86 353.336L82.143 353.336M85.143 353.336L88.143 358.05M96.286 350.336L95.857 349.479L94.571 349.05L93.714 349.05L92.429 349.479L91.571 350.764L91.143 352.907L91.143 355.05L91.571 356.764L92.429 357.621L93.714 358.05L94.143 358.05L95.429 357.621L96.286 356.764L96.714 355.479L96.714 355.05L96.286 353.764L95.429 352.907L94.143 352.479L93.714 352.479L92.429 352.907L91.571 353.764L91.143 355.05M101.857 349.05L100.571 349.479L99.714 350.764L99.286 352.907L99.286 354.193L99.714 356.336L100.571 357.621L101.857 358.05L102.714 358.05L104 357.621L104.857 356.336L105.286 354.193L105.286 352.907L104.857 350.764L104 349.479L102.714 349.05L101.857 349.05M108.286 351.193L108.286 350.764L108.714 349.907L109.143 349.479L110 349.05L111.714 349.05L112.571 349.479L113 349.907L113.429 350.764L113.429 351.621L113 352.479L112.143 353.764L107.857 358.05L113.857 358.05M117.286 357.193L116.857 357.621L117.286 358.05L117.714 357.621L117.286 357.193M121.571 349.05L126.286 349.05L123.714 352.479L125 352.479L125.857 352.907L126.286 353.336L126.714 354.621L126.714 355.479L126.286 356.764L125.429 357.621L124.143 358.05L122.857 358.05L121.571 357.621L121.143 357.193L120.714 356.336M130.143 357.193L129.714 357.621L130.143 358.05L130.571 357.621L130.143 357.193M134 351.193L134 350.764L134.429 349.907L134.857 349.479L135.714 349.05L137.429 349.05L138.286 349.479L138.714 349.907L139.143 350.764L139.143 351.621L138.714 352.479L137.857 353.764L133.571 358.05L139.571 358.05M142.143 347.336L143 348.193L143.857 349.479L144.714 351.193L145.143 353.336L145.143 355.05L144.714 357.193L143.857 358.907L143 360.193L142.143 361.05M150.286 349.05L150.286 354.193M148.143 350.336L152.429 352.907M152.429 350.336L148.143 352.907" fill="none" stroke="#000" stroke-linecap="round" stroke-linejoin="round" stroke-width="0.68"/>
<path d="M302.411 339.15L314.411 339.15L426.851 271.776" fill="none" stroke="#000" stroke-linecap="round" stroke-linejoin="round" stroke-width="0.68"/>
<path d="M434.571 267.15L425.309 269.203L428.393 274.349L434.571 267.15Z" fill="#000" fill-rule="evenodd" stroke="none"/>
</g>
<g data-src="n_jack">
<path d="M161.429 433.536L160.571 434.393L159.714 435.679L158.857 437.393L158.429 439.536L158.429 441.25L158.857 443.393L159.714 445.107L160.571 446.393L161.429 447.25M164.429 437.393L164.429 436.964L164.857 436.107L165.286 435.679L166.143 435.25L167.857 435.25L168.714 435.679L169.143 436.107L169.571 436.964L169.571 437.821L169.143 438.679L168.286 439.964L164 444.25L170 444.25M172.571 433.536L173.429 434.393L174.286 435.679L175.143 437.393L175.571 439.536L175.571 441.25L175.143 443.393L174.286 445.107L173.429 446.393L172.571 447.25M185.857 437.393L185.857 436.964L186.286 436.107L186.714 435.679L187.571 435.25L189.286 435.25L190.143 435.679L190.571 436.107L191 436.964L191 437.821L190.571 438.679L189.714 439.964L185.429 444.25L191.429 444.25M194 435.25L200 444.25M200 435.25L194 444.25M206.857 435.25L202.571 441.25L209 441.25M206.857 435.25L206.857 444.25M221.857 435.25L221.857 442.107L221.429 443.393L221 443.821L220.143 444.25L219.286 444.25L218.429 443.821L218 443.393L217.571 442.107L217.571 441.25M227.429 435.25L224 444.25M227.429 435.25L230.857 444.25M225.286 441.25L229.571 441.25M239 437.393L238.571 436.536L237.714 435.679L236.857 435.25L235.143 435.25L234.286 435.679L233.429 436.536L233 437.393L232.571 438.679L232.571 440.821L233 442.107L233.429 442.964L234.286 443.821L235.143 444.25L236.857 444.25L237.714 443.821L238.571 442.964L239 442.107M242 435.25L242 444.25M248 435.25L242 441.25M244.143 439.107L248 444.25M263.429 436.536L262.571 435.679L261.286 435.25L259.571 435.25L258.286 435.679L257.429 436.536L257.429 437.393L257.857 438.25L258.286 438.679L259.143 439.107L261.714 439.964L262.571 440.393L263 440.821L263.429 441.679L263.429 442.964L262.571 443.821L261.286 444.25L259.571 444.25L258.286 443.821L257.429 442.964M268.143 435.25L268.143 444.25M265.143 435.25L271.143 435.25M273.286 435.25L273.286 441.679L273.714 442.964L274.571 443.821L275.857 444.25L276.714 444.25L278 443.821L278.857 442.964L279.286 441.679L279.286 435.25M282.714 435.25L282.714 444.25M282.714 435.25L285.714 435.25L287 435.679L287.857 436.536L288.286 437.393L288.714 438.679L288.714 440.821L288.286 442.107L287.857 442.964L287 443.821L285.714 444.25L282.714 444.25M297.286 436.536L296.429 435.679L295.143 435.25L293.429 435.25L292.143 435.679L291.286 436.536L291.286 437.393L291.714 438.25L292.143 438.679L293 439.107L295.571 439.964L296.429 440.393L296.857 440.821L297.286 441.679L297.286 442.964L296.429 443.821L295.143 444.25L293.429 444.25L292.143 443.821L291.286 442.964" fill="none" stroke="#000" stroke-linecap="round" stroke-linejoin="round" stroke-width="0.68"/>
<path d="M302.411 439.75L314.411 439.75L529.855 384.39" fill="none" stroke="#000" stroke-linecap="round" stroke-linejoin="round" stroke-width="0.68"/>
<path d="M538.571 382.15L529.108 381.484L530.601 387.295L538.571 382.15Z" fill="#000" fill-rule="evenodd" stroke="none"/>
</g>
<g data-src="n_king">
<path d="M90.714 368.236L89.857 369.093L89 370.379L88.143 372.093L87.714 374.236L87.714 375.95L88.143 378.093L89 379.807L89.857 381.093L90.714 381.95M93.714 372.093L93.714 371.664L94.143 370.807L94.571 370.379L95.429 369.95L97.143 369.95L98 370.379L98.429 370.807L98.857 371.664L98.857 372.521L98.429 373.379L97.571 374.664L93.286 378.95L99.286 378.95M101.857 368.236L102.714 369.093L103.571 370.379L104.429 372.093L104.857 374.236L104.857 375.95L104.429 378.093L103.571 379.807L102.714 381.093L101.857 381.95M115.143 372.093L115.143 371.664L115.571 370.807L116 370.379L116.857 369.95L118.571 369.95L119.429 370.379L119.857 370.807L120.286 371.664L120.286 372.521L119.857 373.379L119 374.664L114.714 378.95L120.714 378.95M123.286 369.95L129.286 378.95M129.286 369.95L123.286 378.95M136.143 369.95L131.857 375.95L138.286 375.95M136.143 369.95L136.143 378.95M147.714 369.95L147.714 378.95M153.714 369.95L147.714 375.95M149.857 373.807L153.714 378.95M156.714 369.95L156.714 378.95M160.143 369.95L160.143 378.95M160.143 369.95L166.143 378.95M166.143 369.95L166.143 378.95M175.571 372.093L175.143 371.236L174.286 370.379L173.429 369.95L171.714 369.95L170.857 370.379L170 371.236L169.571 372.093L169.143 373.379L169.143 375.521L169.571 376.807L170 377.664L170.857 378.521L171.714 378.95L173.429 378.95L174.286 378.521L175.143 377.664L175.571 376.807L175.571 375.521M173.429 375.521L175.571 375.521M191 371.236L190.143 370.379L188.857 369.95L187.143 369.95L185.857 370.379L185 371.236L185 372.093L185.429 372.95L185.857 373.379L186.714 373.807L189.286 374.664L190.143 375.093L190.571 375.521L191 376.379L191 377.664L190.143 378.521L188.857 378.95L187.143 378.95L185.857 378.521L185 377.664M195.714 369.95L195.714 378.95M192.714 369.95L198.714 369.95M200.857 369.95L200.857 376.379L201.286 377.664L202.143 378.521L203.429 378.95L204.286 378.95L205.571 378.521L206.429 377.664L206.857 376.379L206.857 369.95M210.286 369.95L210.286 378.95M210.286 369.95L213.286 369.95L214.571 370.379L215.429 371.236L215.857 372.093L216.286 373.379L216.286 375.521L215.857 376.807L215.429 377.664L214.571 378.521L213.286 378.95L210.286 378.95M224.857 371.236L224 370.379L222.714 369.95L221 369.95L219.714 370.379L218.857 371.236L218.857 372.093L219.286 372.95L219.714 373.379L220.571 373.807L223.143 374.664L224 375.093L224.429 375.521L224.857 376.379L224.857 377.664L224 378.521L222.714 378.95L221 378.95L219.714 378.521L218.857 377.664M228.714 378.521L228.286 378.95L227.857 378.521L228.286 378.093L228.714 378.521L228.714 379.379L228.286 380.236L227.857 380.664M239 369.95L239 378.95M239 369.95L244.571 369.95M239 374.236L242.429 374.236M239 378.95L244.571 378.95M247.143 369.95L247.143 378.95M247.143 369.95L253.143 378.95M253.143 369.95L253.143 378.95M256.571 369.95L256.571 378.95M256.571 369.95L259.571 369.95L260.857 370.379L261.714 371.236L262.143 372.093L262.571 373.379L262.571 375.521L262.143 376.807L261.714 377.664L260.857 378.521L259.571 378.95L256.571 378.95M272.429 369.95L272.429 378.95M272.429 369.95L278.429 378.95M278.429 369.95L278.429 378.95M284 369.95L280.571 378.95M284 369.95L287.429 378.95M281.857 375.95L286.143 375.95M289.571 369.95L289.571 378.95M293 369.95L293 378.95M293 378.95L298.143 378.95" fill="none" stroke="#000" stroke-linecap="round" stroke-linejoin="round" stroke-width="0.68"/>
<path d="M89.429 384.35L89.429 393.35M86.429 384.35L92.429 384.35M96.714 384.35L95.857 384.779L95 385.636L94.571 386.493L94.143 387.779L94.143 389.921L94.571 391.207L95 392.064L95.857 392.921L96.714 393.35L98.429 393.35L99.286 392.921L100.143 392.064L100.571 391.207L101 389.921L101 387.779L100.571 386.493L100.143 385.636L99.286 384.779L98.429 384.35L96.714 384.35M110.857 384.35L110.857 393.35M110.857 384.35L114.714 384.35L116 384.779L116.429 385.207L116.857 386.064L116.857 386.921L116.429 387.779L116 388.207L114.714 388.636M110.857 388.636L114.714 388.636L116 389.064L116.429 389.493L116.857 390.35L116.857 391.636L116.429 392.493L116 392.921L114.714 393.35L110.857 393.35M119.857 384.35L119.857 393.35M119.857 384.35L125.429 384.35M119.857 388.636L123.286 388.636M119.857 393.35L125.429 393.35M130.143 384.35L126.714 393.35M130.143 384.35L133.571 393.35M128 390.35L132.286 390.35M135.714 384.35L135.714 393.35M135.714 384.35L139.143 393.35M142.571 384.35L139.143 393.35M142.571 384.35L142.571 393.35M152 384.35L154.143 393.35M156.286 384.35L154.143 393.35M156.286 384.35L158.429 393.35M160.571 384.35L158.429 393.35M170 382.636L162.286 396.35M182.429 382.636L181.571 383.493L180.714 384.779L179.857 386.493L179.429 388.636L179.429 390.35L179.857 392.493L180.714 394.207L181.571 395.493L182.429 396.35M189.286 384.35L185 390.35L191.429 390.35M189.286 384.35L189.286 393.35M193.571 382.636L194.429 383.493L195.286 384.779L196.143 386.493L196.571 388.636L196.571 390.35L196.143 392.493L195.286 394.207L194.429 395.493L193.571 396.35M207.714 386.064L208.571 385.636L209.857 384.35L209.857 393.35M220.571 385.636L220.143 384.779L218.857 384.35L218 384.35L216.714 384.779L215.857 386.064L215.429 388.207L215.429 390.35L215.857 392.064L216.714 392.921L218 393.35L218.429 393.35L219.714 392.921L220.571 392.064L221 390.779L221 390.35L220.571 389.064L219.714 388.207L218.429 387.779L218 387.779L216.714 388.207L215.857 389.064L215.429 390.35M224 384.35L224 393.35M224 384.35L227 384.35L228.286 384.779L229.143 385.636L229.571 386.493L230 387.779L230 389.921L229.571 391.207L229.143 392.064L228.286 392.921L227 393.35L224 393.35M242.857 382.636L242 383.493L241.143 384.779L240.286 386.493L239.857 388.636L239.857 390.35L240.286 392.493L241.143 394.207L242 395.493L242.857 396.35M245.857 384.35L245.857 393.35M249.286 384.35L249.286 393.35M249.286 384.35L253.143 384.35L254.429 384.779L254.857 385.207L255.286 386.064L255.286 386.921L254.857 387.779L254.429 388.207L253.143 388.636L249.286 388.636M252.286 388.636L255.286 393.35M264.286 386.493L263.857 385.636L263 384.779L262.143 384.35L260.429 384.35L259.571 384.779L258.714 385.636L258.286 386.493L257.857 387.779L257.857 389.921L258.286 391.207L258.714 392.064L259.571 392.921L260.429 393.35L262.143 393.35L263 392.921L263.857 392.064L264.286 391.207" fill="none" stroke="#000" stroke-linecap="round" stroke-linejoin="round" stroke-width="0.68"/>
<path d="M87.714 398.75L87.714 407.75M87.714 398.75L91.571 398.75L92.857 399.179L93.286 399.607L93.714 400.464L93.714 401.321L93.286 402.179L92.857 402.607L91.571 403.036L87.714 403.036M90.714 403.036L93.714 407.75M101.857 400.036L101.429 399.179L100.143 398.75L99.286 398.75L98 399.179L97.143 400.464L96.714 402.607L96.714 404.75L97.143 406.464L98 407.321L99.286 407.75L99.714 407.75L101 407.321L101.857 406.464L102.286 405.179L102.286 404.75L101.857 403.464L101 402.607L99.714 402.179L99.286 402.179L98 402.607L97.143 403.464L96.714 404.75M107.429 398.75L106.143 399.179L105.286 400.464L104.857 402.607L104.857 403.893L105.286 406.036L106.143 407.321L107.429 407.75L108.286 407.75L109.571 407.321L110.429 406.036L110.857 403.893L110.857 402.607L110.429 400.464L109.571 399.179L108.286 398.75L107.429 398.75M113.857 400.893L113.857 400.464L114.286 399.607L114.714 399.179L115.571 398.75L117.286 398.75L118.143 399.179L118.571 399.607L119 400.464L119 401.321L118.571 402.179L117.714 403.464L113.429 407.75L119.429 407.75M122.857 406.893L122.429 407.321L122.857 407.75L123.286 407.321L122.857 406.893M132.286 398.75L128 407.75M126.286 398.75L132.286 398.75M135.714 406.893L135.286 407.321L135.714 407.75L136.143 407.321L135.714 406.893M144.286 398.75L140 398.75L139.571 402.607L140 402.179L141.286 401.75L142.571 401.75L143.857 402.179L144.714 403.036L145.143 404.321L145.143 405.179L144.714 406.464L143.857 407.321L142.571 407.75L141.286 407.75L140 407.321L139.571 406.893L139.143 406.036M147.714 397.036L148.571 397.893L149.429 399.179L150.286 400.893L150.714 403.036L150.714 404.75L150.286 406.893L149.429 408.607L148.571 409.893L147.714 410.75M155.857 398.75L155.857 403.893M153.714 400.036L158 402.607M158 400.036L153.714 402.607" fill="none" stroke="#000" stroke-linecap="round" stroke-linejoin="round" stroke-width="0.68"/>
<path d="M302.411 388.85L314.411 388.85L519.749 347.43" fill="none" stroke="#000" stroke-linecap="round" stroke-linejoin="round" stroke-width="0.68"/>
<path d="M528.571 345.65L519.156 344.489L520.342 350.37L528.571 345.65Z" fill="#000" fill-rule="evenodd" stroke="none"/>
</g>
<g data-src="n_studs">
<path d="M142.143 419.393L142.143 418.964L142.571 418.107L143 417.679L143.857 417.25L145.571 417.25L146.429 417.679L146.857 418.107L147.286 418.964L147.286 419.821L146.857 420.679L146 421.964L141.714 426.25L147.714 426.25M150.286 417.25L156.286 426.25M156.286 417.25L150.286 426.25M163.143 417.25L158.857 423.25L165.286 423.25M163.143 417.25L163.143 426.25M180.286 418.536L179.429 417.679L178.143 417.25L176.429 417.25L175.143 417.679L174.286 418.536L174.286 419.393L174.714 420.25L175.143 420.679L176 421.107L178.571 421.964L179.429 422.393L179.857 422.821L180.286 423.679L180.286 424.964L179.429 425.821L178.143 426.25L176.429 426.25L175.143 425.821L174.286 424.964M185 417.25L185 426.25M182 417.25L188 417.25M190.143 417.25L190.143 423.679L190.571 424.964L191.429 425.821L192.714 426.25L193.571 426.25L194.857 425.821L195.714 424.964L196.143 423.679L196.143 417.25M199.571 417.25L199.571 426.25M199.571 417.25L202.571 417.25L203.857 417.679L204.714 418.536L205.143 419.393L205.571 420.679L205.571 422.821L205.143 424.107L204.714 424.964L203.857 425.821L202.571 426.25L199.571 426.25M214.143 418.536L213.286 417.679L212 417.25L210.286 417.25L209 417.679L208.143 418.536L208.143 419.393L208.571 420.25L209 420.679L209.857 421.107L212.429 421.964L213.286 422.393L213.714 422.821L214.143 423.679L214.143 424.964L213.286 425.821L212 426.25L210.286 426.25L209 425.821L208.143 424.964M230 420.679L229.571 419.821L228.714 419.393L227.429 419.393L226.571 419.821L226.143 420.25L225.714 421.536L225.714 422.821L226.143 423.679L227 424.107L228.286 424.107L229.143 423.679L229.571 422.821M227.429 419.393L226.571 420.25L226.143 421.536L226.143 422.821L226.571 423.679L227 424.107M230 419.393L229.571 422.821L229.571 423.679L230.429 424.107L231.286 424.107L232.143 423.25L232.571 421.964L232.571 421.107L232.143 419.821L231.714 418.964L230.857 418.107L230 417.679L228.714 417.25L227.429 417.25L226.143 417.679L225.286 418.107L224.429 418.964L224 419.821L223.571 421.107L223.571 422.393L224 423.679L224.429 424.536L225.286 425.393L226.143 425.821L227.429 426.25L228.714 426.25L230 425.821L230.857 425.393L231.286 424.964M230.429 419.393L230 422.821L230 423.679L230.429 424.107M243.286 418.964L244.143 418.536L245.429 417.25L245.429 426.25M256.143 418.536L255.714 417.679L254.429 417.25L253.571 417.25L252.286 417.679L251.429 418.964L251 421.107L251 423.25L251.429 424.964L252.286 425.821L253.571 426.25L254 426.25L255.286 425.821L256.143 424.964L256.571 423.679L256.571 423.25L256.143 421.964L255.286 421.107L254 420.679L253.571 420.679L252.286 421.107L251.429 421.964L251 423.25M259.571 417.25L259.571 420.25M263 417.25L263 420.25M275.429 417.25L274.571 417.679L273.714 418.536L273.286 419.393L272.857 420.679L272.857 422.821L273.286 424.107L273.714 424.964L274.571 425.821L275.429 426.25L277.143 426.25L278 425.821L278.857 424.964L279.286 424.107L279.714 422.821L279.714 420.679L279.286 419.393L278.857 418.536L278 417.679L277.143 417.25L275.429 417.25M283.143 425.393L282.714 425.821L283.143 426.25L283.571 425.821L283.143 425.393M293 419.393L292.571 418.536L291.714 417.679L290.857 417.25L289.143 417.25L288.286 417.679L287.429 418.536L287 419.393L286.571 420.679L286.571 422.821L287 424.107L287.429 424.964L288.286 425.821L289.143 426.25L290.857 426.25L291.714 425.821L292.571 424.964L293 424.107M296.429 425.393L296 425.821L296.429 426.25L296.857 425.821L296.429 425.393" fill="none" stroke="#000" stroke-linecap="round" stroke-linejoin="round" stroke-width="0.68"/>
<path d="M302.411 421.75L314.411 421.75L381.913 402.606" fill="none" stroke="#000" stroke-linecap="round" stroke-linejoin="round" stroke-width="0.68"/>
<path d="M390.571 400.15L381.094 399.72L382.731 405.492L390.571 400.15Z" fill="#000" fill-rule="evenodd" stroke="none"/>
</g>
<g data-src="title:A">
<path d="M334.571 512.65L394.571 512.65" fill="none" stroke="#000" stroke-linecap="round" stroke-linejoin="round" stroke-width="0.68"/>
</g>
</g>
<g id="S-ANNO-DIMS" inkscape:groupmode="layer" inkscape:label="S-ANNO-DIMS">
<g data-src="d_strap_l">
<path d="M446.571 243.15L446.571 211.15" fill="none" stroke="#000" stroke-linecap="round" stroke-linejoin="round" stroke-width="0.491"/>
<path d="M534.571 243.15L534.571 211.15" fill="none" stroke="#000" stroke-linecap="round" stroke-linejoin="round" stroke-width="0.491"/>
<path d="M446.571 217.15L534.571 217.15" fill="none" stroke="#000" stroke-linecap="round" stroke-linejoin="round" stroke-width="0.491"/>
<path d="M481.143 205.364L482 204.936L483.286 203.65L483.286 212.65M489.714 205.364L490.571 204.936L491.857 203.65L491.857 212.65M497.429 203.65L497.429 206.65M500.857 203.65L500.857 206.65" fill="none" stroke="#000" stroke-linecap="round" stroke-linejoin="round" stroke-width="0.491"/>
</g>
<g data-src="d_strap_r">
<path d="M534.571 243.15L534.571 211.15" fill="none" stroke="#000" stroke-linecap="round" stroke-linejoin="round" stroke-width="0.491"/>
<path d="M622.571 243.15L622.571 211.15" fill="none" stroke="#000" stroke-linecap="round" stroke-linejoin="round" stroke-width="0.491"/>
<path d="M534.571 217.15L622.571 217.15" fill="none" stroke="#000" stroke-linecap="round" stroke-linejoin="round" stroke-width="0.491"/>
<path d="M569.143 205.364L570 204.936L571.286 203.65L571.286 212.65M577.714 205.364L578.571 204.936L579.857 203.65L579.857 212.65M585.429 203.65L585.429 206.65M588.857 203.65L588.857 206.65" fill="none" stroke="#000" stroke-linecap="round" stroke-linejoin="round" stroke-width="0.491"/>
</g>
<g data-src="d_beam">
<path d="M700.571 323.15L708.571 323.15" fill="none" stroke="#000" stroke-linecap="round" stroke-linejoin="round" stroke-width="0.491"/>
<path d="M700.571 249.15L708.571 249.15" fill="none" stroke="#000" stroke-linecap="round" stroke-linejoin="round" stroke-width="0.491"/>
<path d="M702.571 323.15L702.571 249.15" fill="none" stroke="#000" stroke-linecap="round" stroke-linejoin="round" stroke-width="0.491"/>
<path d="M692.071 303.721L693.357 304.15L694.214 305.007L694.643 306.293L694.643 306.721L694.214 308.007L693.357 308.864L692.071 309.293L691.643 309.293L690.357 308.864L689.5 308.007L689.071 306.721L689.071 306.293L689.5 305.007L690.357 304.15L692.071 303.721L694.214 303.721L696.357 304.15L697.643 305.007L698.071 306.293L698.071 307.15L697.643 308.436L696.786 308.864M690.786 292.579L690.357 291.721L689.071 290.436L698.071 290.436M687.357 278.007L701.071 285.721M689.071 271.579L695.071 275.864L695.071 269.436M689.071 271.579L698.071 271.579M689.071 266.864L692.071 266.864M689.071 263.436L692.071 263.436" fill="none" stroke="#000" stroke-linecap="round" stroke-linejoin="round" stroke-width="0.491"/>
</g>
</g>
<g id="S-ANNO-TTLB" inkscape:groupmode="layer" inkscape:label="S-ANNO-TTLB">
<g data-src="title:A">
<path d="M334.571 512.65A30 30 0 0 1 394.571 512.65A30 30 0 0 1 334.571 512.65Z" fill="none" stroke="#000" stroke-linecap="round" stroke-linejoin="round" stroke-width="1.89"/>
<path d="M361.714 493.007L363.143 492.293L365.286 490.15L365.286 505.15" fill="none" stroke="#000" stroke-linecap="round" stroke-linejoin="round" stroke-width="1.89"/>
<path d="M353 525.239L352.357 524.596L351.393 524.275L350.107 524.275L349.143 524.596L348.5 525.239L348.5 525.882L348.821 526.525L349.143 526.846L349.786 527.168L351.714 527.811L352.357 528.132L352.679 528.454L353 529.096L353 530.061L352.357 530.704L351.393 531.025L350.107 531.025L349.143 530.704L348.5 530.061M355.25 528.132L361.036 528.132M367.143 524.275L363.929 524.275L363.607 527.168L363.929 526.846L364.893 526.525L365.857 526.525L366.821 526.846L367.464 527.489L367.786 528.454L367.786 529.096L367.464 530.061L366.821 530.704L365.857 531.025L364.893 531.025L363.929 530.704L363.607 530.382L363.286 529.739M371.643 524.275L370.679 524.596L370.036 525.561L369.714 527.168L369.714 528.132L370.036 529.739L370.679 530.704L371.643 531.025L372.286 531.025L373.25 530.704L373.893 529.739L374.214 528.132L374.214 527.168L373.893 525.561L373.25 524.596L372.286 524.275L371.643 524.275M376.464 525.882L376.464 525.561L376.786 524.918L377.107 524.596L377.75 524.275L379.036 524.275L379.679 524.596L380 524.918L380.321 525.561L380.321 526.204L380 526.846L379.357 527.811L376.143 531.025L380.643 531.025" fill="none" stroke="#000" stroke-linecap="round" stroke-linejoin="round" stroke-width="0.68"/>
<path d="M411.829 495.73L411.829 510.73M411.829 495.73L421.114 495.73M411.829 502.873L417.543 502.873M424.686 495.73L424.686 510.73M424.686 510.73L433.257 510.73M436.829 495.73L436.829 506.444L437.543 508.587L438.971 510.016L441.114 510.73L442.543 510.73L444.686 510.016L446.114 508.587L446.829 506.444L446.829 495.73M461.829 497.873L460.4 496.444L458.257 495.73L455.4 495.73L453.257 496.444L451.829 497.873L451.829 499.301L452.543 500.73L453.257 501.444L454.686 502.159L458.971 503.587L460.4 504.301L461.114 505.016L461.829 506.444L461.829 508.587L460.4 510.016L458.257 510.73L455.4 510.73L453.257 510.016L451.829 508.587M466.829 495.73L466.829 510.73M476.829 495.73L476.829 510.73M466.829 502.873L476.829 502.873M493.971 495.73L493.971 510.73M493.971 495.73L500.4 495.73L502.543 496.444L503.257 497.159L503.971 498.587L503.971 500.016L503.257 501.444L502.543 502.159L500.4 502.873M493.971 502.873L500.4 502.873L502.543 503.587L503.257 504.301L503.971 505.73L503.971 507.873L503.257 509.301L502.543 510.016L500.4 510.73L493.971 510.73M508.971 495.73L508.971 510.73M508.971 495.73L518.257 495.73M508.971 502.873L514.686 502.873M508.971 510.73L518.257 510.73M526.114 495.73L520.4 510.73M526.114 495.73L531.829 510.73M522.543 505.73L529.686 505.73M535.4 495.73L535.4 510.73M535.4 495.73L541.114 510.73M546.829 495.73L541.114 510.73M546.829 495.73L546.829 510.73M567.543 495.73L561.829 510.73M567.543 495.73L573.257 510.73M563.971 505.73L571.114 505.73M579.686 495.73L579.686 510.73M574.686 495.73L584.686 495.73M602.543 495.73L602.543 510.73M597.543 495.73L607.543 495.73M614.686 495.73L613.257 496.444L611.829 497.873L611.114 499.301L610.4 501.444L610.4 505.016L611.114 507.159L611.829 508.587L613.257 510.016L614.686 510.73L617.543 510.73L618.971 510.016L620.4 508.587L621.114 507.159L621.829 505.016L621.829 501.444L621.114 499.301L620.4 497.873L618.971 496.444L617.543 495.73L614.686 495.73M626.829 495.73L626.829 510.73M626.829 495.73L633.257 495.73L635.4 496.444L636.114 497.159L636.829 498.587L636.829 500.73L636.114 502.159L635.4 502.873L633.257 503.587L626.829 503.587M653.257 495.73L653.257 510.73M653.257 495.73L659.686 495.73L661.829 496.444L662.543 497.159L663.257 498.587L663.257 500.73L662.543 502.159L661.829 502.873L659.686 503.587L653.257 503.587M668.257 495.73L668.257 510.73M668.257 510.73L676.829 510.73M683.971 495.73L678.257 510.73M683.971 495.73L689.686 510.73M680.4 505.73L687.543 505.73M696.114 495.73L696.114 510.73M691.114 495.73L701.114 495.73M704.686 495.73L704.686 510.73M704.686 495.73L713.971 495.73M704.686 502.873L710.4 502.873M704.686 510.73L713.971 510.73M729.686 504.301L742.543 504.301M759.686 495.73L759.686 510.73M759.686 495.73L768.971 495.73M759.686 502.873L765.4 502.873M759.686 510.73L768.971 510.73M773.257 495.73L773.257 510.73M773.257 510.73L781.829 510.73M785.4 495.73L785.4 510.73M785.4 495.73L794.686 495.73M785.4 502.873L791.114 502.873M785.4 510.73L794.686 510.73M796.829 495.73L802.543 510.73M808.257 495.73L802.543 510.73M815.4 495.73L809.686 510.73M815.4 495.73L821.114 510.73M811.829 505.73L818.971 505.73M827.543 495.73L827.543 510.73M822.543 495.73L832.543 495.73M836.114 495.73L836.114 510.73M845.4 495.73L843.971 496.444L842.543 497.873L841.829 499.301L841.114 501.444L841.114 505.016L841.829 507.159L842.543 508.587L843.971 510.016L845.4 510.73L848.257 510.73L849.686 510.016L851.114 508.587L851.829 507.159L852.543 505.016L852.543 501.444L851.829 499.301L851.114 497.873L849.686 496.444L848.257 495.73L845.4 495.73M857.543 495.73L857.543 510.73M857.543 495.73L867.543 510.73M867.543 495.73L867.543 510.73" fill="none" stroke="#000" stroke-linecap="round" stroke-linejoin="round" stroke-width="1.89"/>
<path d="M408.971 517.45L870.4 517.45" fill="none" stroke="#000" stroke-linecap="round" stroke-linejoin="round" stroke-width="1.89"/>
<path d="M416.257 524.496L415.4 523.639L414.114 523.21L412.4 523.21L411.114 523.639L410.257 524.496L410.257 525.353L410.686 526.21L411.114 526.639L411.971 527.067L414.543 527.924L415.4 528.353L415.829 528.781L416.257 529.639L416.257 530.924L415.4 531.781L414.114 532.21L412.4 532.21L411.114 531.781L410.257 530.924M425.257 525.353L424.829 524.496L423.971 523.639L423.114 523.21L421.4 523.21L420.543 523.639L419.686 524.496L419.257 525.353L418.829 526.639L418.829 528.781L419.257 530.067L419.686 530.924L420.543 531.781L421.4 532.21L423.114 532.21L423.971 531.781L424.829 530.924L425.257 530.067M430.4 523.21L426.971 532.21M430.4 523.21L433.829 532.21M428.257 529.21L432.543 529.21M435.971 523.21L435.971 532.21M435.971 532.21L441.114 532.21M443.257 523.21L443.257 532.21M443.257 523.21L448.829 523.21M443.257 527.496L446.686 527.496M443.257 532.21L448.829 532.21M451.829 526.21L451.4 526.639L451.829 527.067L452.257 526.639L451.829 526.21M451.829 531.353L451.4 531.781L451.829 532.21L452.257 531.781L451.829 531.353M463.4 524.924L464.257 524.496L465.543 523.21L465.543 532.21M471.114 523.21L471.114 526.21M474.543 523.21L474.543 526.21M484.829 527.067L492.543 527.067M484.829 529.639L492.543 529.639M503.686 524.924L504.543 524.496L505.829 523.21L505.829 532.21M511.829 524.067L511.4 523.639L511.829 523.21L512.257 523.639L512.257 524.496L511.829 525.353L511.4 525.781M515.686 528.353L523.4 528.353M528.971 523.21L527.686 523.639L526.829 524.924L526.4 527.067L526.4 528.353L526.829 530.496L527.686 531.781L528.971 532.21L529.829 532.21L531.114 531.781L531.971 530.496L532.4 528.353L532.4 527.067L531.971 524.924L531.114 523.639L529.829 523.21L528.971 523.21M535.4 523.21L535.4 526.21M538.829 523.21L538.829 526.21" fill="none" stroke="#000" stroke-linecap="round" stroke-linejoin="round" stroke-width="0.68"/>
</g>
<g data-src="sheet">
<path d="M36 780L1020 780L1020 36L36 36L36 780Z" fill="none" stroke="#000" stroke-linecap="round" stroke-linejoin="round" stroke-width="2.646"/>
<path d="M36 780L1020 780L1020 708L36 708L36 780Z" fill="none" stroke="#000" stroke-linecap="round" stroke-linejoin="round" stroke-width="1.89"/>
<path d="M42.903 713.76L42.903 719.76M42.903 713.76L44.903 713.76L45.76 714.046L46.331 714.617L46.617 715.189L46.903 716.046L46.903 717.474L46.617 718.331L46.331 718.903L45.76 719.474L44.903 719.76L42.903 719.76M48.903 713.76L48.903 719.76M48.903 713.76L52.617 713.76M48.903 716.617L51.189 716.617M48.903 719.76L52.617 719.76M55.474 713.76L55.474 719.76M53.474 713.76L57.474 713.76M60.331 713.76L58.046 719.76M60.331 713.76L62.617 719.76M58.903 717.76L61.76 717.76M64.046 713.76L64.046 719.76M66.331 713.76L66.331 719.76M66.331 719.76L69.76 719.76" fill="none" stroke="#000" stroke-linecap="round" stroke-linejoin="round" stroke-width="0.68"/>
<path d="M44.658 750.626L44.658 760.8M44.658 750.626L50.956 750.626M44.658 755.471L48.533 755.471M53.378 750.626L53.378 760.8M53.378 760.8L59.192 760.8M61.614 750.626L61.614 757.893L62.098 759.347L63.067 760.316L64.521 760.8L65.49 760.8L66.943 760.316L67.912 759.347L68.396 757.893L68.396 750.626M78.57 752.08L77.601 751.111L76.148 750.626L74.21 750.626L72.756 751.111L71.787 752.08L71.787 753.049L72.272 754.018L72.756 754.502L73.725 754.987L76.632 755.955L77.601 756.44L78.085 756.924L78.57 757.893L78.57 759.347L77.601 760.316L76.148 760.8L74.21 760.8L72.756 760.316L71.787 759.347M81.961 750.626L81.961 760.8M88.744 750.626L88.744 760.8M81.961 755.471L88.744 755.471M100.371 750.626L100.371 760.8M100.371 750.626L104.731 750.626L106.184 751.111L106.668 751.595L107.153 752.564L107.153 753.533L106.668 754.502L106.184 754.987L104.731 755.471M100.371 755.471L104.731 755.471L106.184 755.955L106.668 756.44L107.153 757.409L107.153 758.862L106.668 759.831L106.184 760.316L104.731 760.8L100.371 760.8M110.544 750.626L110.544 760.8M110.544 750.626L116.842 750.626M110.544 755.471L114.42 755.471M110.544 760.8L116.842 760.8M122.171 750.626L118.295 760.8M122.171 750.626L126.047 760.8M119.749 757.409L124.593 757.409M128.469 750.626L128.469 760.8M128.469 750.626L132.345 760.8M136.22 750.626L132.345 760.8M136.22 750.626L136.22 760.8M150.27 750.626L146.394 760.8M150.27 750.626L154.145 760.8M147.847 757.409L152.692 757.409M158.506 750.626L158.506 760.8M155.114 750.626L161.897 750.626M174.008 750.626L174.008 760.8M170.617 750.626L177.399 750.626M182.244 750.626L181.275 751.111L180.306 752.08L179.822 753.049L179.337 754.502L179.337 756.924L179.822 758.378L180.306 759.347L181.275 760.316L182.244 760.8L184.182 760.8L185.151 760.316L186.12 759.347L186.604 758.378L187.089 756.924L187.089 754.502L186.604 753.049L186.12 752.08L185.151 751.111L184.182 750.626L182.244 750.626M190.48 750.626L190.48 760.8M190.48 750.626L194.84 750.626L196.293 751.111L196.778 751.595L197.262 752.564L197.262 754.018L196.778 754.987L196.293 755.471L194.84 755.955L190.48 755.955M208.405 750.626L208.405 760.8M208.405 750.626L212.765 750.626L214.218 751.111L214.703 751.595L215.187 752.564L215.187 754.018L214.703 754.987L214.218 755.471L212.765 755.955L208.405 755.955M218.578 750.626L218.578 760.8M218.578 760.8L224.392 760.8M229.236 750.626L225.361 760.8M229.236 750.626L233.112 760.8M226.814 757.409L231.659 757.409M237.472 750.626L237.472 760.8M234.081 750.626L240.863 750.626M243.286 750.626L243.286 760.8M243.286 750.626L249.584 750.626M243.286 755.471L247.161 755.471M243.286 760.8L249.584 760.8M260.242 756.44L268.962 756.44M280.589 750.626L280.589 760.8M280.589 750.626L286.887 750.626M280.589 755.471L284.465 755.471M280.589 760.8L286.887 760.8M289.794 750.626L289.794 760.8M289.794 760.8L295.607 760.8M298.029 750.626L298.029 760.8M298.029 750.626L304.327 750.626M298.029 755.471L301.905 755.471M298.029 760.8L304.327 760.8M305.781 750.626L309.656 760.8M313.532 750.626L309.656 760.8M318.377 750.626L314.501 760.8M318.377 750.626L322.252 760.8M315.954 757.409L320.799 757.409M326.613 750.626L326.613 760.8M323.221 750.626L330.004 750.626M332.426 750.626L332.426 760.8M338.724 750.626L337.755 751.111L336.786 752.08L336.302 753.049L335.817 754.502L335.817 756.924L336.302 758.378L336.786 759.347L337.755 760.316L338.724 760.8L340.662 760.8L341.631 760.316L342.6 759.347L343.084 758.378L343.569 756.924L343.569 754.502L343.084 753.049L342.6 752.08L341.631 751.111L340.662 750.626L338.724 750.626M346.96 750.626L346.96 760.8M346.96 750.626L353.742 760.8M353.742 750.626L353.742 760.8" fill="none" stroke="#000" stroke-linecap="round" stroke-linejoin="round" stroke-width="1.89"/>
<path d="M362.4 780L362.4 708" fill="none" stroke="#000" stroke-linecap="round" stroke-linejoin="round" stroke-width="1.89"/>
<path d="M369.303 713.76L369.303 719.76M369.303 713.76L371.874 713.76L372.731 714.046L373.017 714.331L373.303 714.903L373.303 715.76L373.017 716.331L372.731 716.617L371.874 716.903L369.303 716.903M375.303 713.76L375.303 719.76M375.303 713.76L377.874 713.76L378.731 714.046L379.017 714.331L379.303 714.903L379.303 715.474L379.017 716.046L378.731 716.331L377.874 716.617L375.303 716.617M377.303 716.617L379.303 719.76M382.731 713.76L382.16 714.046L381.589 714.617L381.303 715.189L381.017 716.046L381.017 717.474L381.303 718.331L381.589 718.903L382.16 719.474L382.731 719.76L383.874 719.76L384.446 719.474L385.017 718.903L385.303 718.331L385.589 717.474L385.589 716.046L385.303 715.189L385.017 714.617L384.446 714.046L383.874 713.76L382.731 713.76M389.874 713.76L389.874 718.331L389.589 719.189L389.303 719.474L388.731 719.76L388.16 719.76L387.589 719.474L387.303 719.189L387.017 718.331L387.017 717.76M392.16 713.76L392.16 719.76M392.16 713.76L395.874 713.76M392.16 716.617L394.446 716.617M392.16 719.76L395.874 719.76M401.589 715.189L401.303 714.617L400.731 714.046L400.16 713.76L399.017 713.76L398.446 714.046L397.874 714.617L397.589 715.189L397.303 716.046L397.303 717.474L397.589 718.331L397.874 718.903L398.446 719.474L399.017 719.76L400.16 719.76L400.731 719.474L401.303 718.903L401.589 718.331M404.731 713.76L404.731 719.76M402.731 713.76L406.731 713.76" fill="none" stroke="#000" stroke-linecap="round" stroke-linejoin="round" stroke-width="0.68"/>
<path d="M554.4 780L554.4 708" fill="none" stroke="#000" stroke-linecap="round" stroke-linejoin="round" stroke-width="1.89"/>
<path d="M565.017 714.617L564.446 714.046L563.589 713.76L562.446 713.76L561.589 714.046L561.017 714.617L561.017 715.189L561.303 715.76L561.589 716.046L562.16 716.331L563.874 716.903L564.446 717.189L564.731 717.474L565.017 718.046L565.017 718.903L564.446 719.474L563.589 719.76L562.446 719.76L561.589 719.474L561.017 718.903M571.017 715.189L570.731 714.617L570.16 714.046L569.589 713.76L568.446 713.76L567.874 714.046L567.303 714.617L567.017 715.189L566.731 716.046L566.731 717.474L567.017 718.331L567.303 718.903L567.874 719.474L568.446 719.76L569.589 719.76L570.16 719.474L570.731 718.903L571.017 718.331M574.446 713.76L572.16 719.76M574.446 713.76L576.731 719.76M573.017 717.76L575.874 717.76M578.16 713.76L578.16 719.76M578.16 719.76L581.589 719.76M583.017 713.76L583.017 719.76M583.017 713.76L586.731 713.76M583.017 716.617L585.303 716.617M583.017 719.76L586.731 719.76" fill="none" stroke="#000" stroke-linecap="round" stroke-linejoin="round" stroke-width="0.68"/>
<path d="M564.403 751.499L565.497 750.952L567.138 749.311L567.138 760.8M574.25 749.311L574.25 753.141M578.627 749.311L578.627 753.141M591.757 754.235L601.605 754.235M591.757 757.517L601.605 757.517M615.83 751.499L616.924 750.952L618.565 749.311L618.565 760.8M626.225 750.405L625.677 749.858L626.225 749.311L626.772 749.858L626.772 750.952L626.225 752.046L625.677 752.594M631.148 755.876L640.996 755.876M648.108 749.311L646.467 749.858L645.373 751.499L644.826 754.235L644.826 755.876L645.373 758.612L646.467 760.253L648.108 760.8L649.203 760.8L650.844 760.253L651.938 758.612L652.485 755.876L652.485 754.235L651.938 751.499L650.844 749.858L649.203 749.311L648.108 749.311M656.315 749.311L656.315 753.141M660.692 749.311L660.692 753.141" fill="none" stroke="#000" stroke-linecap="round" stroke-linejoin="round" stroke-width="1.89"/>
<path d="M669.6 780L669.6 708" fill="none" stroke="#000" stroke-linecap="round" stroke-linejoin="round" stroke-width="1.89"/>
<path d="M676.503 713.76L676.503 719.76M676.503 713.76L678.503 713.76L679.36 714.046L679.931 714.617L680.217 715.189L680.503 716.046L680.503 717.474L680.217 718.331L679.931 718.903L679.36 719.474L678.503 719.76L676.503 719.76M682.503 713.76L682.503 719.76M682.503 713.76L685.074 713.76L685.931 714.046L686.217 714.331L686.503 714.903L686.503 715.474L686.217 716.046L685.931 716.331L685.074 716.617L682.503 716.617M684.503 716.617L686.503 719.76M689.931 713.76L687.646 719.76M689.931 713.76L692.217 719.76M688.503 717.76L691.36 717.76M693.074 713.76L694.503 719.76M695.931 713.76L694.503 719.76M695.931 713.76L697.36 719.76M698.789 713.76L697.36 719.76M700.503 713.76L700.503 719.76M700.503 713.76L704.503 719.76M704.503 713.76L704.503 719.76" fill="none" stroke="#000" stroke-linecap="round" stroke-linejoin="round" stroke-width="0.68"/>
<path d="M677.735 753.369L677.735 760.8M682.69 753.369L677.735 758.323M679.505 756.554L682.69 760.8M685.167 753.369L685.167 760.8M685.167 753.369L689.767 753.369M685.167 756.907L687.998 756.907M685.167 760.8L689.767 760.8M691.89 753.369L691.89 760.8M691.89 753.369L695.075 753.369L696.137 753.723L696.491 754.076L696.844 754.784L696.844 755.492L696.491 756.2L696.137 756.554L695.075 756.907L691.89 756.907M694.367 756.907L696.844 760.8M699.321 753.369L699.321 760.8M699.321 753.369L703.922 753.369M699.321 756.907L702.152 756.907M711.353 753.369L711.353 760.8M711.353 753.369L714.538 753.369L715.599 753.723L715.953 754.076L716.307 754.784L716.307 755.492L715.953 756.2L715.599 756.554L714.538 756.907L711.353 756.907M713.83 756.907L716.307 760.8M718.784 753.369L718.784 760.8M718.784 753.369L723.385 753.369M718.784 756.907L721.615 756.907M718.784 760.8L723.385 760.8M725.508 753.369L725.508 760.8M725.508 753.369L730.108 753.369M725.508 756.907L728.339 756.907M731.877 753.369L731.877 760.8M731.877 753.369L736.478 753.369M731.877 756.907L734.708 756.907M731.877 760.8L736.478 760.8M738.601 753.369L738.601 760.8M738.601 753.369L741.786 753.369L742.847 753.723L743.201 754.076L743.555 754.784L743.555 755.492L743.201 756.2L742.847 756.554L741.786 756.907L738.601 756.907M741.078 756.907L743.555 760.8M746.032 753.369L746.032 760.8M746.032 753.369L750.632 753.369M746.032 756.907L748.863 756.907M746.032 760.8L750.632 760.8M752.756 753.369L752.756 760.8M752.756 753.369L757.71 760.8M757.71 753.369L757.71 760.8M765.495 755.138L765.141 754.43L764.433 753.723L763.726 753.369L762.31 753.369L761.602 753.723L760.895 754.43L760.541 755.138L760.187 756.2L760.187 757.969L760.541 759.031L760.895 759.738L761.602 760.446L762.31 760.8L763.726 760.8L764.433 760.446L765.141 759.738L765.495 759.031M767.972 753.369L767.972 760.8M767.972 753.369L772.572 753.369M767.972 756.907L770.803 756.907M767.972 760.8L772.572 760.8" fill="none" stroke="#000" stroke-linecap="round" stroke-linejoin="round" stroke-width="1.89"/>
<path d="M780 780L780 708" fill="none" stroke="#000" stroke-linecap="round" stroke-linejoin="round" stroke-width="1.89"/>
<path d="M786.903 713.76L786.903 719.76M786.903 713.76L788.903 713.76L789.76 714.046L790.331 714.617L790.617 715.189L790.903 716.046L790.903 717.474L790.617 718.331L790.331 718.903L789.76 719.474L788.903 719.76L786.903 719.76M794.331 713.76L792.046 719.76M794.331 713.76L796.617 719.76M792.903 717.76L795.76 717.76M799.189 713.76L799.189 719.76M797.189 713.76L801.189 713.76M802.617 713.76L802.617 719.76M802.617 713.76L806.331 713.76M802.617 716.617L804.903 716.617M802.617 719.76L806.331 719.76" fill="none" stroke="#000" stroke-linecap="round" stroke-linejoin="round" stroke-width="0.68"/>
<path d="M788.64 753.12L788.64 752.64L789.12 751.68L789.6 751.2L790.56 750.72L792.48 750.72L793.44 751.2L793.92 751.68L794.4 752.64L794.4 753.6L793.92 754.56L792.96 756L788.16 760.8L794.88 760.8M800.64 750.72L799.2 751.2L798.24 752.64L797.76 755.04L797.76 756.48L798.24 758.88L799.2 760.32L800.64 760.8L801.6 760.8L803.04 760.32L804 758.88L804.48 756.48L804.48 755.04L804 752.64L803.04 751.2L801.6 750.72L800.64 750.72M807.84 753.12L807.84 752.64L808.32 751.68L808.8 751.2L809.76 750.72L811.68 750.72L812.64 751.2L813.12 751.68L813.6 752.64L813.6 753.6L813.12 754.56L812.16 756L807.36 760.8L814.08 760.8M823.2 752.16L822.72 751.2L821.28 750.72L820.32 750.72L818.88 751.2L817.92 752.64L817.44 755.04L817.44 757.44L817.92 759.36L818.88 760.32L820.32 760.8L820.8 760.8L822.24 760.32L823.2 759.36L823.68 757.92L823.68 757.44L823.2 756L822.24 755.04L820.8 754.56L820.32 754.56L818.88 755.04L817.92 756L817.44 757.44M827.04 756.48L835.68 756.48M840.48 752.64L841.44 752.16L842.88 750.72L842.88 760.8M851.52 750.72L850.08 751.2L849.12 752.64L848.64 755.04L848.64 756.48L849.12 758.88L850.08 760.32L851.52 760.8L852.48 760.8L853.92 760.32L854.88 758.88L855.36 756.48L855.36 755.04L854.88 752.64L853.92 751.2L852.48 750.72L851.52 750.72M858.72 756.48L867.36 756.48M873.6 750.72L872.16 751.2L871.2 752.64L870.72 755.04L870.72 756.48L871.2 758.88L872.16 760.32L873.6 760.8L874.56 760.8L876 760.32L876.96 758.88L877.44 756.48L877.44 755.04L876.96 752.64L876 751.2L874.56 750.72L873.6 750.72M886.08 750.72L881.28 750.72L880.8 755.04L881.28 754.56L882.72 754.08L884.16 754.08L885.6 754.56L886.56 755.52L887.04 756.96L887.04 757.92L886.56 759.36L885.6 760.32L884.16 760.8L882.72 760.8L881.28 760.32L880.8 759.84L880.32 758.88" fill="none" stroke="#000" stroke-linecap="round" stroke-linejoin="round" stroke-width="1.89"/>
<path d="M895.2 780L895.2 708" fill="none" stroke="#000" stroke-linecap="round" stroke-linejoin="round" stroke-width="1.89"/>
<path d="M902.103 713.76L902.103 719.76M902.103 713.76L904.103 713.76L904.96 714.046L905.531 714.617L905.817 715.189L906.103 716.046L906.103 717.474L905.817 718.331L905.531 718.903L904.96 719.474L904.103 719.76L902.103 719.76M908.103 713.76L908.103 719.76M908.103 713.76L911.817 713.76M908.103 716.617L910.389 716.617M908.103 719.76L911.817 719.76M914.674 713.76L914.674 719.76M912.674 713.76L916.674 713.76M919.531 713.76L917.246 719.76M919.531 713.76L921.817 719.76M918.103 717.76L920.96 717.76M923.246 713.76L923.246 719.76M925.531 713.76L925.531 719.76M925.531 719.76L928.96 719.76M934.96 713.76L934.96 719.76M934.96 713.76L938.96 719.76M938.96 713.76L938.96 719.76M942.674 713.76L942.103 714.046L941.531 714.617L941.246 715.189L940.96 716.046L940.96 717.474L941.246 718.331L941.531 718.903L942.103 719.474L942.674 719.76L943.817 719.76L944.389 719.474L944.96 718.903L945.246 718.331L945.531 717.474L945.531 716.046L945.246 715.189L944.96 714.617L944.389 714.046L943.817 713.76L942.674 713.76" fill="none" stroke="#000" stroke-linecap="round" stroke-linejoin="round" stroke-width="0.68"/>
<path d="M905.349 751.086L906.491 750.514L908.206 748.8L908.206 760.8M924.777 746.514L914.491 764.8M935.634 750.514L934.491 749.371L932.777 748.8L930.491 748.8L928.777 749.371L927.634 750.514L927.634 751.657L928.206 752.8L928.777 753.371L929.92 753.943L933.349 755.086L934.491 755.657L935.063 756.229L935.634 757.371L935.634 759.086L934.491 760.229L932.777 760.8L930.491 760.8L928.777 760.229L927.634 759.086M939.634 755.657L949.92 755.657M960.777 748.8L955.063 748.8L954.491 753.943L955.063 753.371L956.777 752.8L958.491 752.8L960.206 753.371L961.349 754.514L961.92 756.229L961.92 757.371L961.349 759.086L960.206 760.229L958.491 760.8L956.777 760.8L955.063 760.229L954.491 759.657L953.92 758.514M968.777 748.8L967.063 749.371L965.92 751.086L965.349 753.943L965.349 755.657L965.92 758.514L967.063 760.229L968.777 760.8L969.92 760.8L971.634 760.229L972.777 758.514L973.349 755.657L973.349 753.943L972.777 751.086L971.634 749.371L969.92 748.8L968.777 748.8M977.349 751.657L977.349 751.086L977.92 749.943L978.491 749.371L979.634 748.8L981.92 748.8L983.063 749.371L983.634 749.943L984.206 751.086L984.206 752.229L983.634 753.371L982.491 755.086L976.777 760.8L984.777 760.8" fill="none" stroke="#000" stroke-linecap="round" stroke-linejoin="round" stroke-width="1.89"/>
<path d="M37.571 792.63L37.571 800.88M43.071 792.63L37.571 798.13M39.536 796.166L43.071 800.88M45.821 792.63L45.821 800.88M45.821 792.63L50.929 792.63M45.821 796.559L48.964 796.559M45.821 800.88L50.929 800.88M53.286 792.63L53.286 800.88M53.286 792.63L56.821 792.63L58 793.023L58.393 793.416L58.786 794.201L58.786 794.987L58.393 795.773L58 796.166L56.821 796.559L53.286 796.559M56.036 796.559L58.786 800.88M61.536 792.63L61.536 800.88M61.536 792.63L66.643 792.63M61.536 796.559L64.679 796.559" fill="none" stroke="#000" stroke-linecap="round" stroke-linejoin="round" stroke-width="1.89"/>
<path d="M72.796 800.88L75.196 800.88L75.196 792.63L72.796 792.63L72.796 800.88Z" fill="#000" fill-rule="evenodd" stroke="none"/>
<path d="M77.116 800.88L79.516 800.88L79.516 792.63L77.116 792.63L77.116 800.88Z" fill="#000" fill-rule="evenodd" stroke="none"/>
<path d="M81.436 800.88L83.836 800.88L83.836 792.63L81.436 792.63L81.436 800.88Z" fill="#000" fill-rule="evenodd" stroke="none"/>
<path d="M102.264 795.166L101.907 794.451L101.193 793.737L100.479 793.38L99.05 793.38L98.336 793.737L97.621 794.451L97.264 795.166L96.907 796.237L96.907 798.023L97.264 799.094L97.621 799.809L98.336 800.523L99.05 800.88L100.479 800.88L101.193 800.523L101.907 799.809L102.264 799.094M106.55 793.38L105.836 793.737L105.121 794.451L104.764 795.166L104.407 796.237L104.407 798.023L104.764 799.094L105.121 799.809L105.836 800.523L106.55 800.88L107.979 800.88L108.693 800.523L109.407 799.809L109.764 799.094L110.121 798.023L110.121 796.237L109.764 795.166L109.407 794.451L108.693 793.737L107.979 793.38L106.55 793.38M112.621 793.38L112.621 800.88M112.621 793.38L115.121 793.38L116.193 793.737L116.907 794.451L117.264 795.166L117.621 796.237L117.621 798.023L117.264 799.094L116.907 799.809L116.193 800.523L115.121 800.88L112.621 800.88M120.121 793.38L120.121 800.88M120.121 793.38L124.764 793.38M120.121 796.951L122.979 796.951M120.121 800.88L124.764 800.88M132.621 793.38L132.621 800.88M132.621 793.38L135.836 793.38L136.907 793.737L137.264 794.094L137.621 794.809L137.621 795.523L137.264 796.237L136.907 796.594L135.836 796.951M132.621 796.951L135.836 796.951L136.907 797.309L137.264 797.666L137.621 798.38L137.621 799.451L137.264 800.166L136.907 800.523L135.836 800.88L132.621 800.88M141.907 793.38L139.05 800.88M141.907 793.38L144.764 800.88M140.121 798.38L143.693 798.38M151.193 794.451L150.479 793.737L149.407 793.38L147.979 793.38L146.907 793.737L146.193 794.451L146.193 795.166L146.55 795.88L146.907 796.237L147.621 796.594L149.764 797.309L150.479 797.666L150.836 798.023L151.193 798.737L151.193 799.809L150.479 800.523L149.407 800.88L147.979 800.88L146.907 800.523L146.193 799.809M153.693 793.38L153.693 800.88M161.193 794.451L160.479 793.737L159.407 793.38L157.979 793.38L156.907 793.737L156.193 794.451L156.193 795.166L156.55 795.88L156.907 796.237L157.621 796.594L159.764 797.309L160.479 797.666L160.836 798.023L161.193 798.737L161.193 799.809L160.479 800.523L159.407 800.88L157.979 800.88L156.907 800.523L156.193 799.809M164.05 795.88L163.693 796.237L164.05 796.594L164.407 796.237L164.05 795.88M164.05 800.166L163.693 800.523L164.05 800.88L164.407 800.523L164.05 800.166M172.979 793.38L172.979 800.88M175.836 793.38L175.836 800.88M175.836 793.38L179.05 793.38L180.121 793.737L180.479 794.094L180.836 794.809L180.836 795.523L180.479 796.237L180.121 796.594L179.05 796.951L175.836 796.951M178.336 796.951L180.836 800.88M188.336 795.166L187.979 794.451L187.264 793.737L186.55 793.38L185.121 793.38L184.407 793.737L183.693 794.451L183.336 795.166L182.979 796.237L182.979 798.023L183.336 799.094L183.693 799.809L184.407 800.523L185.121 800.88L186.55 800.88L187.264 800.523L187.979 799.809L188.336 799.094M196.55 795.166L196.55 794.809L196.907 794.094L197.264 793.737L197.979 793.38L199.407 793.38L200.121 793.737L200.479 794.094L200.836 794.809L200.836 795.523L200.479 796.237L199.764 797.309L196.193 800.88L201.193 800.88M205.479 793.38L204.407 793.737L203.693 794.809L203.336 796.594L203.336 797.666L203.693 799.451L204.407 800.523L205.479 800.88L206.193 800.88L207.264 800.523L207.979 799.451L208.336 797.666L208.336 796.594L207.979 794.809L207.264 793.737L206.193 793.38L205.479 793.38M210.836 795.166L210.836 794.809L211.193 794.094L211.55 793.737L212.264 793.38L213.693 793.38L214.407 793.737L214.764 794.094L215.121 794.809L215.121 795.523L214.764 796.237L214.05 797.309L210.479 800.88L215.479 800.88M218.693 794.809L219.407 794.451L220.479 793.38L220.479 800.88M243.693 793.38L243.693 797.666M241.907 794.451L245.479 796.594M245.479 794.451L241.907 796.594M258.693 795.166L258.336 794.451L257.621 793.737L256.907 793.38L255.479 793.38L254.764 793.737L254.05 794.451L253.693 795.166L253.336 796.237L253.336 798.023L253.693 799.094L254.05 799.809L254.764 800.523L255.479 800.88L256.907 800.88L257.621 800.523L258.336 799.809L258.693 799.094M262.979 793.38L262.264 793.737L261.55 794.451L261.193 795.166L260.836 796.237L260.836 798.023L261.193 799.094L261.55 799.809L262.264 800.523L262.979 800.88L264.407 800.88L265.121 800.523L265.836 799.809L266.193 799.094L266.55 798.023L266.55 796.237L266.193 795.166L265.836 794.451L265.121 793.737L264.407 793.38L262.979 793.38M269.05 793.38L269.05 800.88M269.05 793.38L271.55 793.38L272.621 793.737L273.336 794.451L273.693 795.166L274.05 796.237L274.05 798.023L273.693 799.094L273.336 799.809L272.621 800.523L271.55 800.88L269.05 800.88M276.55 793.38L276.55 800.88M276.55 793.38L281.193 793.38M276.55 796.951L279.407 796.951M276.55 800.88L281.193 800.88M289.05 793.38L289.05 800.88M289.05 793.38L292.264 793.38L293.336 793.737L293.693 794.094L294.05 794.809L294.05 795.523L293.693 796.237L293.336 796.594L292.264 796.951L289.05 796.951M291.55 796.951L294.05 800.88M296.55 793.38L296.55 800.88M296.55 793.38L301.193 793.38M296.55 796.951L299.407 796.951M296.55 800.88L301.193 800.88M303.336 793.38L303.336 800.88M303.336 793.38L307.979 793.38M303.336 796.951L306.193 796.951M309.764 793.38L309.764 800.88M309.764 793.38L314.407 793.38M309.764 796.951L312.621 796.951M309.764 800.88L314.407 800.88M316.55 793.38L316.55 800.88M316.55 793.38L319.764 793.38L320.836 793.737L321.193 794.094L321.55 794.809L321.55 795.523L321.193 796.237L320.836 796.594L319.764 796.951L316.55 796.951M319.05 796.951L321.55 800.88M324.05 793.38L324.05 800.88M324.05 793.38L328.693 793.38M324.05 796.951L326.907 796.951M324.05 800.88L328.693 800.88M330.836 793.38L330.836 800.88M330.836 793.38L335.836 800.88M335.836 793.38L335.836 800.88M343.693 795.166L343.336 794.451L342.621 793.737L341.907 793.38L340.479 793.38L339.764 793.737L339.05 794.451L338.693 795.166L338.336 796.237L338.336 798.023L338.693 799.094L339.05 799.809L339.764 800.523L340.479 800.88L341.907 800.88L342.621 800.523L343.336 799.809L343.693 799.094M346.193 793.38L346.193 800.88M346.193 793.38L350.836 793.38M346.193 796.951L349.05 796.951M346.193 800.88L350.836 800.88M358.693 793.38L358.693 800.88M358.693 793.38L363.693 800.88M363.693 793.38L363.693 800.88M368.336 793.38L367.621 793.737L366.907 794.451L366.55 795.166L366.193 796.237L366.193 798.023L366.55 799.094L366.907 799.809L367.621 800.523L368.336 800.88L369.764 800.88L370.479 800.523L371.193 799.809L371.55 799.094L371.907 798.023L371.907 796.237L371.55 795.166L371.193 794.451L370.479 793.737L369.764 793.38L368.336 793.38M375.836 793.38L375.836 800.88M373.336 793.38L378.336 793.38M384.764 793.38L387.621 800.88M390.479 793.38L387.621 800.88M392.264 793.38L392.264 800.88M392.264 793.38L396.907 793.38M392.264 796.951L395.121 796.951M392.264 800.88L396.907 800.88M399.05 793.38L399.05 800.88M399.05 793.38L402.264 793.38L403.336 793.737L403.693 794.094L404.05 794.809L404.05 795.523L403.693 796.237L403.336 796.594L402.264 796.951L399.05 796.951M401.55 796.951L404.05 800.88M406.55 793.38L406.55 800.88M409.407 793.38L409.407 800.88M409.407 793.38L414.05 793.38M409.407 796.951L412.264 796.951M415.836 793.38L415.836 800.88M418.693 793.38L418.693 800.88M418.693 793.38L423.336 793.38M418.693 796.951L421.55 796.951M418.693 800.88L423.336 800.88M425.479 793.38L425.479 800.88M425.479 793.38L427.979 793.38L429.05 793.737L429.764 794.451L430.121 795.166L430.479 796.237L430.479 798.023L430.121 799.094L429.764 799.809L429.05 800.523L427.979 800.88L425.479 800.88M438.693 793.38L438.693 800.88M438.693 793.38L441.907 793.38L442.979 793.737L443.336 794.094L443.693 794.809L443.693 795.523L443.336 796.237L442.979 796.594L441.907 796.951M438.693 796.951L441.907 796.951L442.979 797.309L443.336 797.666L443.693 798.38L443.693 799.451L443.336 800.166L442.979 800.523L441.907 800.88L438.693 800.88M445.121 793.38L447.979 796.951L447.979 800.88M450.836 793.38L447.979 796.951M458.336 793.38L458.336 800.88M458.336 793.38L460.836 793.38L461.907 793.737L462.621 794.451L462.979 795.166L463.336 796.237L463.336 798.023L462.979 799.094L462.621 799.809L461.907 800.523L460.836 800.88L458.336 800.88M465.836 793.38L465.836 800.88M465.836 793.38L470.479 793.38M465.836 796.951L468.693 796.951M465.836 800.88L470.479 800.88M477.264 794.451L476.55 793.737L475.479 793.38L474.05 793.38L472.979 793.737L472.264 794.451L472.264 795.166L472.621 795.88L472.979 796.237L473.693 796.594L475.836 797.309L476.55 797.666L476.907 798.023L477.264 798.737L477.264 799.809L476.55 800.523L475.479 800.88L474.05 800.88L472.979 800.523L472.264 799.809M479.764 793.38L479.764 800.88M487.621 795.166L487.264 794.451L486.55 793.737L485.836 793.38L484.407 793.38L483.693 793.737L482.979 794.451L482.621 795.166L482.264 796.237L482.264 798.023L482.621 799.094L482.979 799.809L483.693 800.523L484.407 800.88L485.836 800.88L486.55 800.523L487.264 799.809L487.621 799.094L487.621 798.023M485.836 798.023L487.621 798.023M490.121 793.38L490.121 800.88M490.121 793.38L495.121 800.88M495.121 793.38L495.121 800.88M497.979 793.38L497.979 800.88M497.979 793.38L502.621 793.38M497.979 796.951L500.836 796.951M497.979 800.88L502.621 800.88M504.764 793.38L504.764 800.88M504.764 793.38L507.979 793.38L509.05 793.737L509.407 794.094L509.764 794.809L509.764 795.523L509.407 796.237L509.05 796.594L507.979 796.951L504.764 796.951M507.264 796.951L509.764 800.88" fill="none" stroke="#000" stroke-linecap="round" stroke-linejoin="round" stroke-width="0.68"/>
</g>
</g>
</svg>
