0
SECTION
2
HEADER
9
$ACADVER
1
AC1015
9
$HANDSEED
5
152
9
$INSUNITS
70
1
9
$MEASUREMENT
70
0
9
$LTSCALE
40
1
9
$EXTMIN
10
-61.178571
20
65.25
30
0
9
$EXTMAX
10
33
20
101.625
30
0
0
ENDSEC
0
SECTION
2
CLASSES
0
ENDSEC
0
SECTION
2
TABLES
0
TABLE
2
VPORT
5
8
330
0
100
AcDbSymbolTable
70
1
0
VPORT
5
30
330
8
100
AcDbSymbolTableRecord
100
AcDbViewportTableRecord
2
*ACTIVE
70
0
10
0
20
0
11
1
21
1
12
-14.089286
22
83.4375
13
0
23
0
14
10
24
10
15
10
25
10
16
0
26
0
36
1
17
0
27
0
37
0
40
40.0125
41
2.589102
42
50
43
0
44
0
50
0
51
0
71
0
72
100
73
1
74
3
75
0
76
0
77
0
78
0
0
ENDTAB
0
TABLE
2
LTYPE
5
5
330
0
100
AcDbSymbolTable
70
4
0
LTYPE
5
14
330
5
100
AcDbSymbolTableRecord
100
AcDbLinetypeTableRecord
2
BYBLOCK
70
0
3

72
65
73
0
40
0
0
LTYPE
5
15
330
5
100
AcDbSymbolTableRecord
100
AcDbLinetypeTableRecord
2
BYLAYER
70
0
3

72
65
73
0
40
0
0
LTYPE
5
16
330
5
100
AcDbSymbolTableRecord
100
AcDbLinetypeTableRecord
2
CONTINUOUS
70
0
3
Solid line
72
65
73
0
40
0
0
LTYPE
5
40
330
5
100
AcDbSymbolTableRecord
100
AcDbLinetypeTableRecord
2
DASHED
70
0
3
DASHED
72
65
73
2
40
0.944882
49
0.629921
74
0
49
-0.314961
74
0
0
ENDTAB
0
TABLE
2
LAYER
5
2
330
0
100
AcDbSymbolTable
70
8
0
LAYER
5
10
330
2
100
AcDbSymbolTableRecord
100
AcDbLayerTableRecord
2
0
70
0
62
7
6
CONTINUOUS
370
-3
0
LAYER
5
50
330
2
100
AcDbSymbolTableRecord
100
AcDbLayerTableRecord
2
S-DETL-PATT
70
0
62
7
6
CONTINUOUS
370
9
0
LAYER
5
51
330
2
100
AcDbSymbolTableRecord
100
AcDbLayerTableRecord
2
S-DETL-CUT
70
0
62
7
6
CONTINUOUS
370
50
0
LAYER
5
52
330
2
100
AcDbSymbolTableRecord
100
AcDbLayerTableRecord
2
S-DETL-STL
70
0
62
7
6
CONTINUOUS
370
35
0
LAYER
5
53
330
2
100
AcDbSymbolTableRecord
100
AcDbLayerTableRecord
2
S-DETL-BRKL
70
0
62
7
6
CONTINUOUS
370
18
0
LAYER
5
54
330
2
100
AcDbSymbolTableRecord
100
AcDbLayerTableRecord
2
S-ANNO-NOTE
70
0
62
7
6
CONTINUOUS
370
18
0
LAYER
5
55
330
2
100
AcDbSymbolTableRecord
100
AcDbLayerTableRecord
2
S-ANNO-DIMS
70
0
62
7
6
CONTINUOUS
370
13
0
LAYER
5
56
330
2
100
AcDbSymbolTableRecord
100
AcDbLayerTableRecord
2
S-ANNO-TTLB
70
0
62
7
6
CONTINUOUS
370
50
0
ENDTAB
0
TABLE
2
STYLE
5
3
330
0
100
AcDbSymbolTable
70
2
0
STYLE
5
11
330
3
100
AcDbSymbolTableRecord
100
AcDbTextStyleTableRecord
2
STANDARD
70
0
40
0
41
1
50
0
71
0
42
0.2
3
txt
4

0
STYLE
5
12
330
3
100
AcDbSymbolTableRecord
100
AcDbTextStyleTableRecord
2
KERF
70
0
40
0
41
1
50
0
71
0
42
0.2
3
romans.shx
4

0
ENDTAB
0
TABLE
2
VIEW
5
6
330
0
100
AcDbSymbolTable
70
0
0
ENDTAB
0
TABLE
2
UCS
5
7
330
0
100
AcDbSymbolTable
70
0
0
ENDTAB
0
TABLE
2
APPID
5
9
330
0
100
AcDbSymbolTable
70
1
0
APPID
5
13
330
9
100
AcDbSymbolTableRecord
100
AcDbRegAppTableRecord
2
ACAD
70
0
0
ENDTAB
0
TABLE
2
DIMSTYLE
5
A
330
0
100
AcDbSymbolTable
70
1
100
AcDbDimStyleTable
71
1
0
DIMSTYLE
105
17
330
A
100
AcDbSymbolTableRecord
100
AcDbDimStyleTableRecord
2
STANDARD
70
0
340
17
0
ENDTAB
0
TABLE
2
BLOCK_RECORD
5
1
330
0
100
AcDbSymbolTable
70
2
0
BLOCK_RECORD
5
1F
330
1
100
AcDbSymbolTableRecord
100
AcDbBlockTableRecord
2
*Model_Space
70
0
280
1
281
0
0
BLOCK_RECORD
5
1B
330
1
100
AcDbSymbolTableRecord
100
AcDbBlockTableRecord
2
*Paper_Space
70
0
280
1
281
0
0
ENDTAB
0
ENDSEC
0
SECTION
2
BLOCKS
0
BLOCK
5
20
330
1F
100
AcDbEntity
8
0
100
AcDbBlockBegin
2
*Model_Space
70
0
10
0
20
0
30
0
3
*Model_Space
1

0
ENDBLK
5
21
330
1F
100
AcDbEntity
8
0
100
AcDbBlockEnd
0
BLOCK
5
22
330
1B
100
AcDbEntity
67
1
8
0
100
AcDbBlockBegin
2
*Paper_Space
70
0
10
0
20
0
30
0
3
*Paper_Space
1

0
ENDBLK
5
23
330
1B
100
AcDbEntity
67
1
8
0
100
AcDbBlockEnd
0
ENDSEC
0
SECTION
2
ENTITIES
0
HATCH
5
100
330
1F
100
AcDbEntity
8
S-DETL-PATT
370
9
100
AcDbHatch
10
0
20
0
30
0
210
0
220
0
230
1
2
KERF-LAM
70
0
71
0
91
1
92
3
72
0
73
1
93
4
10
-3
20
87.875
10
30
20
87.875
10
30
20
97.125
10
-3
20
97.125
97
0
75
0
76
1
52
0
41
1
77
0
78
1
53
0
43
0
44
0
45
0
46
0.5
79
0
98
0
0
HATCH
5
101
330
1F
100
AcDbEntity
8
S-DETL-STL
370
50
100
AcDbHatch
10
0
20
0
30
0
210
0
220
0
230
1
2
SOLID
70
1
71
0
91
1
92
3
72
0
73
1
93
4
10
-14
20
97.1848
10
8
20
97.1848
10
8
20
97.125
10
-14
20
97.125
97
0
75
0
76
1
98
0
0
LWPOLYLINE
5
102
330
1F
100
AcDbEntity
8
S-DETL-STL
370
35
100
AcDbPolyline
90
3
70
0
43
0
10
-14
20
97.1848
10
8
20
97.1848
10
8
20
97.125
0
LWPOLYLINE
5
103
330
1F
100
AcDbEntity
8
S-DETL-STL
370
35
100
AcDbPolyline
90
2
70
0
43
0
10
-14
20
97.125
10
-14
20
97.1848
0
LWPOLYLINE
5
104
330
1F
100
AcDbEntity
8
S-DETL-CUT
370
50
100
AcDbPolyline
90
4
70
0
43
0
10
30
20
97.125
10
-3
20
97.125
10
-3
20
87.875
10
30
20
87.875
0
LWPOLYLINE
5
105
330
1F
100
AcDbEntity
8
S-DETL-CUT
370
50
100
AcDbPolyline
90
2
70
0
43
0
10
-1.5
20
76
10
-1.5
20
87.875
0
LWPOLYLINE
5
106
330
1F
100
AcDbEntity
8
S-DETL-CUT
370
50
100
AcDbPolyline
90
2
70
0
43
0
10
-3
20
87.875
10
-3
20
76
0
LWPOLYLINE
5
107
330
1F
100
AcDbEntity
8
S-DETL-CUT
370
50
100
AcDbPolyline
90
2
70
0
43
0
10
0
20
76
10
0
20
87.875
0
LWPOLYLINE
5
108
330
1F
100
AcDbEntity
8
S-DETL-CUT
370
50
100
AcDbPolyline
90
3
70
0
43
0
10
-3
20
94.125
10
-4.5
20
94.125
10
-4.5
20
76
0
LWPOLYLINE
5
109
330
1F
100
AcDbEntity
8
S-DETL-CUT
370
50
100
AcDbPolyline
90
3
70
0
43
0
10
-4.5
20
94.125
10
-6
20
94.125
10
-6
20
76
0
LWPOLYLINE
5
10A
330
1F
100
AcDbEntity
8
S-DETL-CUT
370
50
100
AcDbPolyline
90
4
70
0
43
0
10
-20.25
20
76
10
-20.25
20
94.125
10
-21.75
20
94.125
10
-21.75
20
76
0
LWPOLYLINE
5
10B
330
1F
100
AcDbEntity
8
S-DETL-CUT
370
50
100
AcDbPolyline
90
4
70
0
43
0
10
-36.25
20
76
10
-36.25
20
94.125
10
-37.75
20
94.125
10
-37.75
20
76
0
LWPOLYLINE
5
10C
330
1F
100
AcDbEntity
8
S-DETL-CUT
370
50
100
AcDbPolyline
90
2
70
0
43
0
10
-40
20
94.125
10
-37.75
20
94.125
0
LWPOLYLINE
5
10D
330
1F
100
AcDbEntity
8
S-DETL-CUT
370
50
100
AcDbPolyline
90
2
70
0
43
0
10
-36.25
20
94.125
10
-21.75
20
94.125
0
LWPOLYLINE
5
10E
330
1F
100
AcDbEntity
8
S-DETL-CUT
370
50
100
AcDbPolyline
90
2
70
0
43
0
10
-20.25
20
94.125
10
-6
20
94.125
0
LWPOLYLINE
5
10F
330
1F
100
AcDbEntity
8
S-DETL-CUT
370
50
100
AcDbPolyline
90
2
70
0
43
0
10
-3
20
95.625
10
-40
20
95.625
0
LWPOLYLINE
5
110
330
1F
100
AcDbEntity
8
S-DETL-CUT
370
50
100
AcDbPolyline
90
2
70
0
43
0
10
-3
20
97.125
10
-40
20
97.125
0
LWPOLYLINE
5
111
330
1F
100
AcDbEntity
8
S-DETL-BRKL
370
18
100
AcDbPolyline
90
6
70
0
43
0
10
-40
20
93.625
10
-40
20
94.225
10
-39.2
20
95.065
10
-40.8
20
96.185
10
-40
20
97.025
10
-40
20
97.625
0
LWPOLYLINE
5
112
330
1F
100
AcDbEntity
8
S-DETL-BRKL
370
18
100
AcDbPolyline
90
6
70
0
43
0
10
30
20
87.375
10
30
20
90.5
10
31
20
91.7
10
29
20
93.3
10
30
20
94.5
10
30
20
97.625
0
LWPOLYLINE
5
113
330
1F
100
AcDbEntity
8
S-DETL-BRKL
370
18
100
AcDbPolyline
90
6
70
0
43
0
10
-38.25
20
76
10
-37.875
20
76
10
-37.35
20
76.5
10
-36.65
20
75.5
10
-36.125
20
76
10
-35.75
20
76
0
LWPOLYLINE
5
114
330
1F
100
AcDbEntity
8
S-DETL-BRKL
370
18
100
AcDbPolyline
90
6
70
0
43
0
10
-22.25
20
76
10
-21.875
20
76
10
-21.35
20
76.5
10
-20.65
20
75.5
10
-20.125
20
76
10
-19.75
20
76
0
LWPOLYLINE
5
115
330
1F
100
AcDbEntity
8
S-DETL-BRKL
370
18
100
AcDbPolyline
90
6
70
0
43
0
10
-6.5
20
76
10
-5
20
76
10
-3.8
20
77
10
-2.2
20
75
10
-1
20
76
10
0.5
20
76
0
TEXT
5
116
330
1F
100
AcDbEntity
8
S-ANNO-NOTE
370
18
100
AcDbText
10
33
20
99.7799
30
0
40
0.75
1
SIMPSON CS16 STRAP X 22"
7
KERF
100
AcDbText
0
TEXT
5
117
330
1F
100
AcDbEntity
8
S-ANNO-NOTE
370
18
100
AcDbText
10
33
20
98.5799
30
0
40
0.75
1
(11" EA. SIDE OF JOINT) OVER
7
KERF
100
AcDbText
0
TEXT
5
118
330
1F
100
AcDbEntity
8
S-ANNO-NOTE
370
18
100
AcDbText
10
33
20
97.3799
30
0
40
0.75
1
TOP OF PLATE & BEAM W/ (20)
7
KERF
100
AcDbText
0
TEXT
5
119
330
1F
100
AcDbEntity
8
S-ANNO-NOTE
370
18
100
AcDbText
10
33
20
96.1799
30
0
40
0.75
1
10D X 2 1/2" EA. SIDE,
7
KERF
100
AcDbText
0
TEXT
5
11A
330
1F
100
AcDbEntity
8
S-ANNO-NOTE
370
18
100
AcDbText
10
33
20
94.9799
30
0
40
0.75
1
INSTALL PER MFR. (IRC
7
KERF
100
AcDbText
0
TEXT
5
11B
330
1F
100
AcDbEntity
8
S-ANNO-NOTE
370
18
100
AcDbText
10
33
20
93.7799
30
0
40
0.75
1
R602.3.2)*
7
KERF
100
AcDbText
0
LWPOLYLINE
5
11C
330
1F
100
AcDbEntity
8
S-ANNO-NOTE
370
18
100
AcDbPolyline
90
3
70
0
43
0
10
32.68
20
97.1549
10
31.68
20
97.1549
10
-2.25
20
97.1549
0
HATCH
5
11D
330
1F
100
AcDbEntity
8
S-ANNO-NOTE
370
50
100
AcDbHatch
10
0
20
0
30
0
210
0
220
0
230
1
2
SOLID
70
1
71
0
91
1
92
3
72
0
73
1
93
3
10
-3
20
97.1549
10
-2.25
20
96.9049
10
-2.25
20
97.4049
97
0
75
0
76
1
98
0
0
TEXT
5
11E
330
1F
100
AcDbEntity
8
S-ANNO-NOTE
370
18
100
AcDbText
10
33
20
87.7299
30
0
40
0.75
1
(2) 1 3/4" X 9 1/4" LVL
7
KERF
100
AcDbText
0
TEXT
5
11F
330
1F
100
AcDbEntity
8
S-ANNO-NOTE
370
18
100
AcDbText
10
33
20
86.5299
30
0
40
0.75
1
BEAM, T.O. BEAM FLUSH W/
7
KERF
100
AcDbText
0
TEXT
5
120
330
1F
100
AcDbEntity
8
S-ANNO-NOTE
370
18
100
AcDbText
10
33
20
85.3299
30
0
40
0.75
1
T.O. DBL. TOP PLATE. NAIL
7
KERF
100
AcDbText
0
TEXT
5
121
330
1F
100
AcDbEntity
8
S-ANNO-NOTE
370
18
100
AcDbText
10
33
20
84.1299
30
0
40
0.75
1
PLIES PER MFR.
7
KERF
100
AcDbText
0
LWPOLYLINE
5
122
330
1F
100
AcDbEntity
8
S-ANNO-NOTE
370
18
100
AcDbPolyline
90
3
70
0
43
0
10
32.68
20
86.3049
10
31.68
20
86.3049
10
14.209914
20
92.258086
0
HATCH
5
123
330
1F
100
AcDbEntity
8
S-ANNO-NOTE
370
50
100
AcDbHatch
10
0
20
0
30
0
210
0
220
0
230
1
2
SOLID
70
1
71
0
91
1
92
3
72
0
73
1
93
3
10
13.5
20
92.5
10
14.129276
20
92.021448
10
14.290552
20
92.494724
97
0
75
0
76
1
98
0
0
TEXT
5
124
330
1F
100
AcDbEntity
8
S-ANNO-NOTE
370
18
100
AcDbText
10
-55.642857
20
96.6
30
0
40
0.75
1
DBL. 2X4 TOP PLATE,
7
KERF
100
AcDbText
0
TEXT
5
125
330
1F
100
AcDbEntity
8
S-ANNO-NOTE
370
18
100
AcDbText
10
-55.642857
20
95.4
30
0
40
0.75
1
INTERRUPTED AT BEAM
7
KERF
100
AcDbText
0
LWPOLYLINE
5
126
330
1F
100
AcDbEntity
8
S-ANNO-NOTE
370
18
100
AcDbPolyline
90
3
70
0
43
0
10
-42.68
20
96.375
10
-41.68
20
96.375
10
-22.25
20
96.375
0
HATCH
5
127
330
1F
100
AcDbEntity
8
S-ANNO-NOTE
370
50
100
AcDbHatch
10
0
20
0
30
0
210
0
220
0
230
1
2
SOLID
70
1
71
0
91
1
92
3
72
0
73
1
93
3
10
-21.5
20
96.375
10
-22.25
20
96.625
10
-22.25
20
96.125
97
0
75
0
76
1
98
0
0
TEXT
5
128
330
1F
100
AcDbEntity
8
S-ANNO-NOTE
370
18
100
AcDbText
10
-61.178571
20
94.15
30
0
40
0.75
1
OFFSET TOP PLATE END JOINTS
7
KERF
100
AcDbText
0
TEXT
5
129
330
1F
100
AcDbEntity
8
S-ANNO-NOTE
370
18
100
AcDbText
10
-61.178571
20
92.95
30
0
40
0.75
1
24" MIN. AWAY FROM BEAM (IRC
7
KERF
100
AcDbText
0
TEXT
5
12A
330
1F
100
AcDbEntity
8
S-ANNO-NOTE
370
18
100
AcDbText
10
-61.178571
20
91.75
30
0
40
0.75
1
R602.3.2)*
7
KERF
100
AcDbText
0
LWPOLYLINE
5
12B
330
1F
100
AcDbEntity
8
S-ANNO-NOTE
370
18
100
AcDbPolyline
90
3
70
0
43
0
10
-42.68
20
93.325
10
-41.68
20
93.325
10
-22.247797
20
94.817563
0
HATCH
5
12C
330
1F
100
AcDbEntity
8
S-ANNO-NOTE
370
50
100
AcDbHatch
10
0
20
0
30
0
210
0
220
0
230
1
2
SOLID
70
1
71
0
91
1
92
3
72
0
73
1
93
3
10
-21.5
20
94.875
10
-22.266943
20
95.066828
10
-22.228652
20
94.568297
97
0
75
0
76
1
98
0
0
TEXT
5
12D
330
1F
100
AcDbEntity
8
S-ANNO-NOTE
370
18
100
AcDbText
10
33
20
81.5625
30
0
40
0.75
1
(2) 2X4 JACK STUDS
7
KERF
100
AcDbText
0
LWPOLYLINE
5
12E
330
1F
100
AcDbEntity
8
S-ANNO-NOTE
370
18
100
AcDbPolyline
90
3
70
0
43
0
10
32.68
20
81.9375
10
31.68
20
81.9375
10
0
20
81.9375
0
HATCH
5
12F
330
1F
100
AcDbEntity
8
S-ANNO-NOTE
370
50
100
AcDbHatch
10
0
20
0
30
0
210
0
220
0
230
1
2
SOLID
70
1
71
0
91
1
92
3
72
0
73
1
93
3
10
-0.75
20
81.9375
10
0
20
81.6875
10
0
20
82.1875
97
0
75
0
76
1
98
0
0
TEXT
5
130
330
1F
100
AcDbEntity
8
S-ANNO-NOTE
370
18
100
AcDbText
10
-60.714286
20
83.4375
30
0
40
0.75
1
(2) 2X4 KING STUDS, END NAIL
7
KERF
100
AcDbText
0
TEXT
5
131
330
1F
100
AcDbEntity
8
S-ANNO-NOTE
370
18
100
AcDbText
10
-60.714286
20
82.2375
30
0
40
0.75
1
TO BEAM W/ (4) 16D (IRC
7
KERF
100
AcDbText
0
TEXT
5
132
330
1F
100
AcDbEntity
8
S-ANNO-NOTE
370
18
100
AcDbText
10
-60.714286
20
81.0375
30
0
40
0.75
1
R602.7.5)*
7
KERF
100
AcDbText
0
LWPOLYLINE
5
133
330
1F
100
AcDbEntity
8
S-ANNO-NOTE
370
18
100
AcDbPolyline
90
3
70
0
43
0
10
-42.68
20
82.6125
10
-41.68
20
82.6125
10
-5.99831
20
85.012174
0
HATCH
5
134
330
1F
100
AcDbEntity
8
S-ANNO-NOTE
370
50
100
AcDbHatch
10
0
20
0
30
0
210
0
220
0
230
1
2
SOLID
70
1
71
0
91
1
92
3
72
0
73
1
93
3
10
-5.25
20
85.0625
10
-6.015085
20
85.261611
10
-5.981534
20
84.762738
97
0
75
0
76
1
98
0
0
TEXT
5
135
330
1F
100
AcDbEntity
8
S-ANNO-NOTE
370
18
100
AcDbText
10
-56.178571
20
84.6875
30
0
40
0.75
1
2X4 STUDS @ 16" O.C.
7
KERF
100
AcDbText
0
LWPOLYLINE
5
136
330
1F
100
AcDbEntity
8
S-ANNO-NOTE
370
18
100
AcDbPolyline
90
3
70
0
43
0
10
-42.68
20
85.0625
10
-41.68
20
85.0625
10
-37.75
20
85.0625
0
HATCH
5
137
330
1F
100
AcDbEntity
8
S-ANNO-NOTE
370
50
100
AcDbHatch
10
0
20
0
30
0
210
0
220
0
230
1
2
SOLID
70
1
71
0
91
1
92
3
72
0
73
1
93
3
10
-37
20
85.0625
10
-37.75
20
85.3125
10
-37.75
20
84.8125
97
0
75
0
76
1
98
0
0
LWPOLYLINE
5
138
330
1F
100
AcDbEntity
8
S-ANNO-DIMS
370
13
100
AcDbPolyline
90
2
70
0
43
0
10
-14
20
97.625
10
-14
20
101.625
0
LWPOLYLINE
5
139
330
1F
100
AcDbEntity
8
S-ANNO-DIMS
370
13
100
AcDbPolyline
90
2
70
0
43
0
10
-3
20
97.625
10
-3
20
101.625
0
LWPOLYLINE
5
13A
330
1F
100
AcDbEntity
8
S-ANNO-DIMS
370
13
100
AcDbPolyline
90
2
70
0
43
0
10
-14
20
101.125
10
-3
20
101.125
0
LWPOLYLINE
5
13B
330
1F
100
AcDbEntity
8
S-DETL-CUT
370
35
100
AcDbPolyline
90
2
70
0
43
0
10
-14.176777
20
100.948223
10
-13.823223
20
101.301777
0
LWPOLYLINE
5
13C
330
1F
100
AcDbEntity
8
S-DETL-CUT
370
35
100
AcDbPolyline
90
2
70
0
43
0
10
-3.176777
20
100.948223
10
-2.823223
20
101.301777
0
TEXT
5
13D
330
1F
100
AcDbEntity
8
S-ANNO-DIMS
370
13
100
AcDbText
10
-8.5
20
101.5
30
0
40
0.75
1
11"
7
KERF
72
1
11
-8.5
21
101.5
31
0
100
AcDbText
0
LWPOLYLINE
5
13E
330
1F
100
AcDbEntity
8
S-ANNO-DIMS
370
13
100
AcDbPolyline
90
2
70
0
43
0
10
-3
20
97.625
10
-3
20
101.625
0
LWPOLYLINE
5
13F
330
1F
100
AcDbEntity
8
S-ANNO-DIMS
370
13
100
AcDbPolyline
90
2
70
0
43
0
10
8
20
97.625
10
8
20
101.625
0
LWPOLYLINE
5
140
330
1F
100
AcDbEntity
8
S-ANNO-DIMS
370
13
100
AcDbPolyline
90
2
70
0
43
0
10
-3
20
101.125
10
8
20
101.125
0
LWPOLYLINE
5
141
330
1F
100
AcDbEntity
8
S-DETL-CUT
370
35
100
AcDbPolyline
90
2
70
0
43
0
10
-3.176777
20
100.948223
10
-2.823223
20
101.301777
0
LWPOLYLINE
5
142
330
1F
100
AcDbEntity
8
S-DETL-CUT
370
35
100
AcDbPolyline
90
2
70
0
43
0
10
7.823223
20
100.948223
10
8.176777
20
101.301777
0
TEXT
5
143
330
1F
100
AcDbEntity
8
S-ANNO-DIMS
370
13
100
AcDbText
10
2.5
20
101.5
30
0
40
0.75
1
11"
7
KERF
72
1
11
2.5
21
101.5
31
0
100
AcDbText
0
LWPOLYLINE
5
144
330
1F
100
AcDbEntity
8
S-ANNO-DIMS
370
13
100
AcDbPolyline
90
2
70
0
43
0
10
21.5
20
87.875
10
22.5
20
87.875
0
LWPOLYLINE
5
145
330
1F
100
AcDbEntity
8
S-ANNO-DIMS
370
13
100
AcDbPolyline
90
2
70
0
43
0
10
21.5
20
97.125
10
22.5
20
97.125
0
LWPOLYLINE
5
146
330
1F
100
AcDbEntity
8
S-ANNO-DIMS
370
13
100
AcDbPolyline
90
2
70
0
43
0
10
22
20
87.875
10
22
20
97.125
0
LWPOLYLINE
5
147
330
1F
100
AcDbEntity
8
S-DETL-CUT
370
35
100
AcDbPolyline
90
2
70
0
43
0
10
22.176777
20
87.698223
10
21.823223
20
88.051777
0
LWPOLYLINE
5
148
330
1F
100
AcDbEntity
8
S-DETL-CUT
370
35
100
AcDbPolyline
90
2
70
0
43
0
10
22.176777
20
96.948223
10
21.823223
20
97.301777
0
TEXT
5
149
330
1F
100
AcDbEntity
8
S-ANNO-DIMS
370
13
100
AcDbText
10
21.625
20
92.5
30
0
40
0.75
1
9 1/4"
50
90
7
KERF
72
1
11
21.625
21
92.5
31
0
100
AcDbText
0
LWPOLYLINE
5
14A
330
1F
100
AcDbEntity
8
S-ANNO-TTLB
370
50
100
AcDbPolyline
90
2
70
1
43
0
10
-40
20
69.3
42
1
10
-35
20
69.3
42
1
0
LWPOLYLINE
5
14B
330
1F
100
AcDbEntity
8
S-ANNO-NOTE
370
18
100
AcDbPolyline
90
2
70
0
43
0
10
-40
20
69.3
10
-35
20
69.3
0
TEXT
5
14C
330
1F
100
AcDbEntity
8
S-ANNO-TTLB
370
50
100
AcDbText
10
-37.5
20
70.55
30
0
40
1.25
1
1
7
KERF
72
1
11
-37.5
21
70.55
31
0
100
AcDbText
73
2
0
TEXT
5
14D
330
1F
100
AcDbEntity
8
S-ANNO-TTLB
370
18
100
AcDbText
10
-37.5
20
68.05
30
0
40
0.5625
1
S-502
7
KERF
72
1
11
-37.5
21
68.05
31
0
100
AcDbText
73
2
0
TEXT
5
14E
330
1F
100
AcDbEntity
8
S-ANNO-TTLB
370
50
100
AcDbText
10
-33.8
20
69.46
30
0
40
1.25
1
FLUSH BEAM AT TOP PLATE - ELEVATION
7
KERF
100
AcDbText
0
LWPOLYLINE
5
14F
330
1F
100
AcDbEntity
8
S-ANNO-TTLB
370
50
100
AcDbPolyline
90
2
70
0
43
0
10
-33.8
20
68.9
10
4.652381
20
68.9
0
TEXT
5
150
330
1F
100
AcDbEntity
8
S-ANNO-TTLB
370
18
100
AcDbText
10
-33.8
20
67.67
30
0
40
0.75
1
SCALE: 1 1/2" = 1'-0"
7
KERF
100
AcDbText
0
TEXT
5
151
330
1F
100
AcDbEntity
8
S-ANNO-TTLB
370
18
100
AcDbText
10
-40
20
65.25
30
0
40
0.6375
1
* CODE REFERENCE NOT VERIFIED BY DESIGNER
7
KERF
100
AcDbText
0
ENDSEC
0
SECTION
2
OBJECTS
0
DICTIONARY
5
C
330
0
100
AcDbDictionary
281
1
3
ACAD_GROUP
350
D
0
DICTIONARY
5
D
330
C
100
AcDbDictionary
281
1
0
ENDSEC
0
EOF
