0
SECTION
2
HEADER
9
$ACADVER
1
AC1015
9
$HANDSEED
5
154
9
$INSUNITS
70
1
9
$MEASUREMENT
70
0
9
$LTSCALE
40
1
9
$EXTMIN
10
-59.767857
20
59.875
30
0
9
$EXTMAX
10
38.978571
20
102.8625
30
0
0
ENDSEC
0
SECTION
2
CLASSES
0
ENDSEC
0
SECTION
2
TABLES
0
TABLE
2
VPORT
5
8
330
0
100
AcDbSymbolTable
70
1
0
VPORT
5
30
330
8
100
AcDbSymbolTableRecord
100
AcDbViewportTableRecord
2
*ACTIVE
70
0
10
0
20
0
11
1
21
1
12
-10.394643
22
81.36875
13
0
23
0
14
10
24
10
15
10
25
10
16
0
26
0
36
1
17
0
27
0
37
0
40
47.28625
41
2.297096
42
50
43
0
44
0
50
0
51
0
71
0
72
100
73
1
74
3
75
0
76
0
77
0
78
0
0
ENDTAB
0
TABLE
2
LTYPE
5
5
330
0
100
AcDbSymbolTable
70
4
0
LTYPE
5
14
330
5
100
AcDbSymbolTableRecord
100
AcDbLinetypeTableRecord
2
BYBLOCK
70
0
3

72
65
73
0
40
0
0
LTYPE
5
15
330
5
100
AcDbSymbolTableRecord
100
AcDbLinetypeTableRecord
2
BYLAYER
70
0
3

72
65
73
0
40
0
0
LTYPE
5
16
330
5
100
AcDbSymbolTableRecord
100
AcDbLinetypeTableRecord
2
CONTINUOUS
70
0
3
Solid line
72
65
73
0
40
0
0
LTYPE
5
40
330
5
100
AcDbSymbolTableRecord
100
AcDbLinetypeTableRecord
2
DASHED
70
0
3
DASHED
72
65
73
2
40
1.417323
49
0.944882
74
0
49
-0.472441
74
0
0
ENDTAB
0
TABLE
2
LAYER
5
2
330
0
100
AcDbSymbolTable
70
9
0
LAYER
5
10
330
2
100
AcDbSymbolTableRecord
100
AcDbLayerTableRecord
2
0
70
0
62
7
6
CONTINUOUS
370
-3
0
LAYER
5
50
330
2
100
AcDbSymbolTableRecord
100
AcDbLayerTableRecord
2
S-DETL-PATT
70
0
62
7
6
CONTINUOUS
370
9
0
LAYER
5
51
330
2
100
AcDbSymbolTableRecord
100
AcDbLayerTableRecord
2
S-DETL-BYND
70
0
62
7
6
CONTINUOUS
370
25
0
LAYER
5
52
330
2
100
AcDbSymbolTableRecord
100
AcDbLayerTableRecord
2
S-DETL-CUT
70
0
62
7
6
CONTINUOUS
370
50
0
LAYER
5
53
330
2
100
AcDbSymbolTableRecord
100
AcDbLayerTableRecord
2
S-DETL-STL
70
0
62
7
6
CONTINUOUS
370
35
0
LAYER
5
54
330
2
100
AcDbSymbolTableRecord
100
AcDbLayerTableRecord
2
S-DETL-BRKL
70
0
62
7
6
CONTINUOUS
370
25
0
LAYER
5
55
330
2
100
AcDbSymbolTableRecord
100
AcDbLayerTableRecord
2
S-ANNO-NOTE
70
0
62
7
6
CONTINUOUS
370
18
0
LAYER
5
56
330
2
100
AcDbSymbolTableRecord
100
AcDbLayerTableRecord
2
S-ANNO-DIMS
70
0
62
7
6
CONTINUOUS
370
13
0
LAYER
5
57
330
2
100
AcDbSymbolTableRecord
100
AcDbLayerTableRecord
2
S-ANNO-TTLB
70
0
62
7
6
CONTINUOUS
370
50
0
ENDTAB
0
TABLE
2
STYLE
5
3
330
0
100
AcDbSymbolTable
70
2
0
STYLE
5
11
330
3
100
AcDbSymbolTableRecord
100
AcDbTextStyleTableRecord
2
STANDARD
70
0
40
0
41
1
50
0
71
0
42
0.2
3
txt
4

0
STYLE
5
12
330
3
100
AcDbSymbolTableRecord
100
AcDbTextStyleTableRecord
2
KERF
70
0
40
0
41
1
50
0
71
0
42
0.2
3
romans.shx
4

0
ENDTAB
0
TABLE
2
VIEW
5
6
330
0
100
AcDbSymbolTable
70
0
0
ENDTAB
0
TABLE
2
UCS
5
7
330
0
100
AcDbSymbolTable
70
0
0
ENDTAB
0
TABLE
2
APPID
5
9
330
0
100
AcDbSymbolTable
70
1
0
APPID
5
13
330
9
100
AcDbSymbolTableRecord
100
AcDbRegAppTableRecord
2
ACAD
70
0
0
ENDTAB
0
TABLE
2
DIMSTYLE
5
A
330
0
100
AcDbSymbolTable
70
1
100
AcDbDimStyleTable
71
1
0
DIMSTYLE
105
17
330
A
100
AcDbSymbolTableRecord
100
AcDbDimStyleTableRecord
2
STANDARD
70
0
340
17
0
ENDTAB
0
TABLE
2
BLOCK_RECORD
5
1
330
0
100
AcDbSymbolTable
70
2
0
BLOCK_RECORD
5
1F
330
1
100
AcDbSymbolTableRecord
100
AcDbBlockTableRecord
2
*Model_Space
70
0
280
1
281
0
0
BLOCK_RECORD
5
1B
330
1
100
AcDbSymbolTableRecord
100
AcDbBlockTableRecord
2
*Paper_Space
70
0
280
1
281
0
0
ENDTAB
0
ENDSEC
0
SECTION
2
BLOCKS
0
BLOCK
5
20
330
1F
100
AcDbEntity
8
0
100
AcDbBlockBegin
2
*Model_Space
70
0
10
0
20
0
30
0
3
*Model_Space
1

0
ENDBLK
5
21
330
1F
100
AcDbEntity
8
0
100
AcDbBlockEnd
0
BLOCK
5
22
330
1B
100
AcDbEntity
67
1
8
0
100
AcDbBlockBegin
2
*Paper_Space
70
0
10
0
20
0
30
0
3
*Paper_Space
1

0
ENDBLK
5
23
330
1B
100
AcDbEntity
67
1
8
0
100
AcDbBlockEnd
0
ENDSEC
0
SECTION
2
ENTITIES
0
HATCH
5
100
330
1F
100
AcDbEntity
8
S-DETL-PATT
370
9
100
AcDbHatch
10
0
20
0
30
0
210
0
220
0
230
1
2
KERF-LAM
70
0
71
0
91
1
92
3
72
0
73
1
93
4
10
-3
20
87.875
10
24
20
87.875
10
24
20
97.125
10
-3
20
97.125
97
0
75
0
76
1
52
0
41
1
77
0
78
1
53
0
43
0
44
0
45
0
46
0.75
79
0
98
0
0
HATCH
5
101
330
1F
100
AcDbEntity
8
S-DETL-PATT
370
9
100
AcDbHatch
10
0
20
0
30
0
210
0
220
0
230
1
2
KERF-GRAIN
70
0
71
0
91
1
92
3
72
0
73
1
93
4
10
-1.5
20
76
10
-1.5
20
87.875
10
-3
20
87.875
10
-3
20
76
97
0
75
0
76
1
52
90
41
1
77
0
78
1
53
0
43
0
44
0
45
4.92
46
1.02
79
4
49
19.2
49
-4.8
49
9.6
49
-6
98
0
0
HATCH
5
102
330
1F
100
AcDbEntity
8
S-DETL-PATT
370
9
100
AcDbHatch
10
0
20
0
30
0
210
0
220
0
230
1
2
KERF-GRAIN
70
0
71
0
91
1
92
3
72
0
73
1
93
4
10
0
20
76
10
0
20
87.875
10
-1.5
20
87.875
10
-1.5
20
76
97
0
75
0
76
1
52
90
41
1
77
0
78
1
53
0
43
0
44
0
45
4.92
46
1.02
79
4
49
19.2
49
-4.8
49
9.6
49
-6
98
0
0
HATCH
5
103
330
1F
100
AcDbEntity
8
S-DETL-PATT
370
9
100
AcDbHatch
10
0
20
0
30
0
210
0
220
0
230
1
2
KERF-GRAIN
70
0
71
0
91
1
92
3
72
0
73
1
93
4
10
-3
20
76
10
-3
20
94.125
10
-4.5
20
94.125
10
-4.5
20
76
97
0
75
0
76
1
52
90
41
1
77
0
78
1
53
0
43
0
44
0
45
4.92
46
1.02
79
4
49
19.2
49
-4.8
49
9.6
49
-6
98
0
0
HATCH
5
104
330
1F
100
AcDbEntity
8
S-DETL-PATT
370
9
100
AcDbHatch
10
0
20
0
30
0
210
0
220
0
230
1
2
KERF-GRAIN
70
0
71
0
91
1
92
3
72
0
73
1
93
4
10
-4.5
20
76
10
-4.5
20
94.125
10
-6
20
94.125
10
-6
20
76
97
0
75
0
76
1
52
90
41
1
77
0
78
1
53
0
43
0
44
0
45
4.92
46
1.02
79
4
49
19.2
49
-4.8
49
9.6
49
-6
98
0
0
HATCH
5
105
330
1F
100
AcDbEntity
8
S-DETL-PATT
370
9
100
AcDbHatch
10
0
20
0
30
0
210
0
220
0
230
1
2
KERF-GRAIN
70
0
71
0
91
1
92
3
72
0
73
1
93
4
10
-28
20
94.125
10
-3
20
94.125
10
-3
20
95.625
10
-28
20
95.625
97
0
75
0
76
1
52
0
41
1
77
0
78
1
53
0
43
0
44
0
45
4.92
46
1.02
79
4
49
19.2
49
-4.8
49
9.6
49
-6
98
0
0
HATCH
5
106
330
1F
100
AcDbEntity
8
S-DETL-STL
370
50
100
AcDbHatch
10
0
20
0
30
0
210
0
220
0
230
1
2
SOLID
70
1
71
0
91
1
92
3
72
0
73
1
93
4
10
-14
20
97.389
10
8
20
97.389
10
8
20
97.125
10
-14
20
97.125
97
0
75
0
76
1
98
0
0
LWPOLYLINE
5
107
330
1F
100
AcDbEntity
8
S-DETL-BYND
370
25
100
AcDbPolyline
90
2
70
0
43
0
10
-1.5
20
76
10
-1.5
20
87.875
0
LWPOLYLINE
5
108
330
1F
100
AcDbEntity
8
S-DETL-BYND
370
25
100
AcDbPolyline
90
2
70
0
43
0
10
-4.5
20
94.125
10
-4.5
20
76
0
LWPOLYLINE
5
109
330
1F
100
AcDbEntity
8
S-DETL-STL
370
35
100
AcDbPolyline
90
4
70
0
43
0
10
-14
20
97.125
10
-14
20
97.389
10
8
20
97.389
10
8
20
97.125
0
LWPOLYLINE
5
10A
330
1F
100
AcDbEntity
8
S-DETL-CUT
370
50
100
AcDbPolyline
90
4
70
0
43
0
10
24
20
97.125
10
-3
20
97.125
10
-3
20
87.875
10
24
20
87.875
0
LWPOLYLINE
5
10B
330
1F
100
AcDbEntity
8
S-DETL-CUT
370
50
100
AcDbPolyline
90
2
70
0
43
0
10
-3
20
87.875
10
-3
20
76
0
LWPOLYLINE
5
10C
330
1F
100
AcDbEntity
8
S-DETL-CUT
370
50
100
AcDbPolyline
90
2
70
0
43
0
10
0
20
76
10
0
20
87.875
0
LWPOLYLINE
5
10D
330
1F
100
AcDbEntity
8
S-DETL-CUT
370
50
100
AcDbPolyline
90
2
70
0
43
0
10
-3
20
94.125
10
-4.5
20
94.125
0
LWPOLYLINE
5
10E
330
1F
100
AcDbEntity
8
S-DETL-CUT
370
50
100
AcDbPolyline
90
3
70
0
43
0
10
-4.5
20
94.125
10
-6
20
94.125
10
-6
20
76
0
LWPOLYLINE
5
10F
330
1F
100
AcDbEntity
8
S-DETL-CUT
370
50
100
AcDbPolyline
90
4
70
0
43
0
10
-20.25
20
76
10
-20.25
20
94.125
10
-21.75
20
94.125
10
-21.75
20
76
0
LWPOLYLINE
5
110
330
1F
100
AcDbEntity
8
S-DETL-CUT
370
50
100
AcDbPolyline
90
2
70
0
43
0
10
-28
20
94.125
10
-21.75
20
94.125
0
LWPOLYLINE
5
111
330
1F
100
AcDbEntity
8
S-DETL-CUT
370
50
100
AcDbPolyline
90
2
70
0
43
0
10
-20.25
20
94.125
10
-6
20
94.125
0
LWPOLYLINE
5
112
330
1F
100
AcDbEntity
8
S-DETL-CUT
370
50
100
AcDbPolyline
90
2
70
0
43
0
10
-3
20
95.625
10
-28
20
95.625
0
LWPOLYLINE
5
113
330
1F
100
AcDbEntity
8
S-DETL-CUT
370
50
100
AcDbPolyline
90
2
70
0
43
0
10
-3
20
97.125
10
-28
20
97.125
0
LWPOLYLINE
5
114
330
1F
100
AcDbEntity
8
S-DETL-BRKL
370
25
100
AcDbPolyline
90
6
70
0
43
0
10
-28
20
93.375
10
-28
20
94.05
10
-27.1
20
94.995
10
-28.9
20
96.255
10
-28
20
97.2
10
-28
20
97.875
0
LWPOLYLINE
5
115
330
1F
100
AcDbEntity
8
S-DETL-BRKL
370
25
100
AcDbPolyline
90
6
70
0
43
0
10
24
20
87.125
10
24
20
89.5
10
25.5
20
91.3
10
22.5
20
93.7
10
24
20
95.5
10
24
20
97.875
0
LWPOLYLINE
5
116
330
1F
100
AcDbEntity
8
S-DETL-BRKL
370
25
100
AcDbPolyline
90
6
70
0
43
0
10
-22.5
20
76
10
-22.05
20
76
10
-21.42
20
76.6
10
-20.58
20
75.4
10
-19.95
20
76
10
-19.5
20
76
0
LWPOLYLINE
5
117
330
1F
100
AcDbEntity
8
S-DETL-BRKL
370
25
100
AcDbPolyline
90
6
70
0
43
0
10
-6.75
20
76
10
-5.625
20
76
10
-4.05
20
77.5
10
-1.95
20
74.5
10
-0.375
20
76
10
0.75
20
76
0
TEXT
5
118
330
1F
100
AcDbEntity
8
S-ANNO-NOTE
370
18
100
AcDbText
10
28.5
20
102.8625
30
0
40
1.125
1
SIMPSON CS16 STRAP X 22"
7
KERF
100
AcDbText
0
TEXT
5
119
330
1F
100
AcDbEntity
8
S-ANNO-NOTE
370
18
100
AcDbText
10
28.5
20
101.0625
30
0
40
1.125
1
(11" EA. SIDE OF JOINT) OVER
7
KERF
100
AcDbText
0
TEXT
5
11A
330
1F
100
AcDbEntity
8
S-ANNO-NOTE
370
18
100
AcDbText
10
28.5
20
99.2625
30
0
40
1.125
1
TOP OF PLATE & BEAM W/ (20)
7
KERF
100
AcDbText
0
TEXT
5
11B
330
1F
100
AcDbEntity
8
S-ANNO-NOTE
370
18
100
AcDbText
10
28.5
20
97.4625
30
0
40
1.125
1
10D X 2 1/2" EA. SIDE,
7
KERF
100
AcDbText
0
TEXT
5
11C
330
1F
100
AcDbEntity
8
S-ANNO-NOTE
370
18
100
AcDbText
10
28.5
20
95.6625
30
0
40
1.125
1
INSTALL PER MFR. (IRC
7
KERF
100
AcDbText
0
TEXT
5
11D
330
1F
100
AcDbEntity
8
S-ANNO-NOTE
370
18
100
AcDbText
10
28.5
20
93.8625
30
0
40
1.125
1
R602.3.2)*
7
KERF
100
AcDbText
0
LWPOLYLINE
5
11E
330
1F
100
AcDbEntity
8
S-ANNO-NOTE
370
18
100
AcDbPolyline
90
3
70
0
43
0
10
28.02
20
98.925
10
26.52
20
98.925
10
7.470547
20
97.224999
0
HATCH
5
11F
330
1F
100
AcDbEntity
8
S-ANNO-NOTE
370
50
100
AcDbHatch
10
0
20
0
30
0
210
0
220
0
230
1
2
SOLID
70
1
71
0
91
1
92
3
72
0
73
1
93
3
10
6.35
20
97.125
10
7.50388
20
96.851484
10
7.437214
20
97.598515
97
0
75
0
76
1
98
0
0
TEXT
5
120
330
1F
100
AcDbEntity
8
S-ANNO-NOTE
370
18
100
AcDbText
10
28.5
20
88.775
30
0
40
1.125
1
(2) 1 3/4" X 9 1/4" LVL
7
KERF
100
AcDbText
0
TEXT
5
121
330
1F
100
AcDbEntity
8
S-ANNO-NOTE
370
18
100
AcDbText
10
28.5
20
86.975
30
0
40
1.125
1
BEAM, T.O. BEAM FLUSH W/
7
KERF
100
AcDbText
0
TEXT
5
122
330
1F
100
AcDbEntity
8
S-ANNO-NOTE
370
18
100
AcDbText
10
28.5
20
85.175
30
0
40
1.125
1
T.O. DBL. TOP PLATE. NAIL
7
KERF
100
AcDbText
0
TEXT
5
123
330
1F
100
AcDbEntity
8
S-ANNO-NOTE
370
18
100
AcDbText
10
28.5
20
83.375
30
0
40
1.125
1
PLIES PER MFR.
7
KERF
100
AcDbText
0
LWPOLYLINE
5
124
330
1F
100
AcDbEntity
8
S-ANNO-NOTE
370
18
100
AcDbPolyline
90
3
70
0
43
0
10
28.02
20
86.6375
10
26.52
20
86.6375
10
-1.314667
20
88.367705
0
HATCH
5
125
330
1F
100
AcDbEntity
8
S-ANNO-NOTE
370
50
100
AcDbHatch
10
0
20
0
30
0
210
0
220
0
230
1
2
SOLID
70
1
71
0
91
1
92
3
72
0
73
1
93
3
10
-2.4375
20
88.4375
10
-1.337932
20
87.993427
10
-1.291402
20
88.741982
97
0
75
0
76
1
98
0
0
TEXT
5
126
330
1F
100
AcDbEntity
8
S-ANNO-NOTE
370
18
100
AcDbText
10
-51.464286
20
100.3125
30
0
40
1.125
1
DBL. 2X4 TOP PLATE,
7
KERF
100
AcDbText
0
TEXT
5
127
330
1F
100
AcDbEntity
8
S-ANNO-NOTE
370
18
100
AcDbText
10
-51.464286
20
98.5125
30
0
40
1.125
1
INTERRUPTED AT BEAM
7
KERF
100
AcDbText
0
LWPOLYLINE
5
128
330
1F
100
AcDbEntity
8
S-ANNO-NOTE
370
18
100
AcDbPolyline
90
3
70
0
43
0
10
-32.02
20
99.975
10
-30.52
20
99.975
10
-16.594015
20
96.637214
0
HATCH
5
129
330
1F
100
AcDbEntity
8
S-ANNO-NOTE
370
50
100
AcDbHatch
10
0
20
0
30
0
210
0
220
0
230
1
2
SOLID
70
1
71
0
91
1
92
3
72
0
73
1
93
3
10
-15.5
20
96.375
10
-16.50661
20
97.001886
10
-16.68142
20
96.272542
97
0
75
0
76
1
98
0
0
TEXT
5
12A
330
1F
100
AcDbEntity
8
S-ANNO-NOTE
370
18
100
AcDbText
10
-59.767857
20
96.1125
30
0
40
1.125
1
OFFSET TOP PLATE END JOINTS
7
KERF
100
AcDbText
0
TEXT
5
12B
330
1F
100
AcDbEntity
8
S-ANNO-NOTE
370
18
100
AcDbText
10
-59.767857
20
94.3125
30
0
40
1.125
1
24" MIN. AWAY FROM BEAM (IRC
7
KERF
100
AcDbText
0
TEXT
5
12C
330
1F
100
AcDbEntity
8
S-ANNO-NOTE
370
18
100
AcDbText
10
-59.767857
20
92.5125
30
0
40
1.125
1
R602.3.2)*
7
KERF
100
AcDbText
0
LWPOLYLINE
5
12D
330
1F
100
AcDbEntity
8
S-ANNO-NOTE
370
18
100
AcDbPolyline
90
3
70
0
43
0
10
-32.02
20
94.875
10
-30.52
20
94.875
10
-16.625
20
94.875
0
HATCH
5
12E
330
1F
100
AcDbEntity
8
S-ANNO-NOTE
370
50
100
AcDbHatch
10
0
20
0
30
0
210
0
220
0
230
1
2
SOLID
70
1
71
0
91
1
92
3
72
0
73
1
93
3
10
-15.5
20
94.875
10
-16.625
20
95.25
10
-16.625
20
94.5
97
0
75
0
76
1
98
0
0
TEXT
5
12F
330
1F
100
AcDbEntity
8
S-ANNO-NOTE
370
18
100
AcDbText
10
-50.232143
20
81.375
30
0
40
1.125
1
(2) 2X4 JACK STUDS
7
KERF
100
AcDbText
0
LWPOLYLINE
5
130
330
1F
100
AcDbEntity
8
S-ANNO-NOTE
370
18
100
AcDbPolyline
90
3
70
0
43
0
10
-32.02
20
81.9375
10
-30.52
20
81.9375
10
-3.375
20
81.9375
0
HATCH
5
131
330
1F
100
AcDbEntity
8
S-ANNO-NOTE
370
50
100
AcDbHatch
10
0
20
0
30
0
210
0
220
0
230
1
2
SOLID
70
1
71
0
91
1
92
3
72
0
73
1
93
3
10
-2.25
20
81.9375
10
-3.375
20
82.3125
10
-3.375
20
81.5625
97
0
75
0
76
1
98
0
0
TEXT
5
132
330
1F
100
AcDbEntity
8
S-ANNO-NOTE
370
18
100
AcDbText
10
-59.071429
20
89.9
30
0
40
1.125
1
(2) 2X4 KING STUDS, END NAIL
7
KERF
100
AcDbText
0
TEXT
5
133
330
1F
100
AcDbEntity
8
S-ANNO-NOTE
370
18
100
AcDbText
10
-59.071429
20
88.1
30
0
40
1.125
1
TO BEAM W/ (4) 16D (IRC
7
KERF
100
AcDbText
0
TEXT
5
134
330
1F
100
AcDbEntity
8
S-ANNO-NOTE
370
18
100
AcDbText
10
-59.071429
20
86.3
30
0
40
1.125
1
R602.7.5)*
7
KERF
100
AcDbText
0
LWPOLYLINE
5
135
330
1F
100
AcDbEntity
8
S-ANNO-NOTE
370
18
100
AcDbPolyline
90
3
70
0
43
0
10
-32.02
20
88.6625
10
-30.52
20
88.6625
10
-4.864963
20
85.212439
0
HATCH
5
136
330
1F
100
AcDbEntity
8
S-ANNO-NOTE
370
50
100
AcDbHatch
10
0
20
0
30
0
210
0
220
0
230
1
2
SOLID
70
1
71
0
91
1
92
3
72
0
73
1
93
3
10
-3.75
20
85.0625
10
-4.814984
20
85.584093
10
-4.914943
20
84.840785
97
0
75
0
76
1
98
0
0
TEXT
5
137
330
1F
100
AcDbEntity
8
S-ANNO-NOTE
370
18
100
AcDbText
10
-52.267857
20
83.6
30
0
40
1.125
1
2X4 STUDS @ 16" O.C.
7
KERF
100
AcDbText
0
LWPOLYLINE
5
138
330
1F
100
AcDbEntity
8
S-ANNO-NOTE
370
18
100
AcDbPolyline
90
3
70
0
43
0
10
-32.02
20
84.1625
10
-30.52
20
84.1625
10
-22.120006
20
84.956617
0
HATCH
5
139
330
1F
100
AcDbEntity
8
S-ANNO-NOTE
370
50
100
AcDbHatch
10
0
20
0
30
0
210
0
220
0
230
1
2
SOLID
70
1
71
0
91
1
92
3
72
0
73
1
93
3
10
-21
20
85.0625
10
-22.1553
20
85.329952
10
-22.084712
20
84.583282
97
0
75
0
76
1
98
0
0
LWPOLYLINE
5
13A
330
1F
100
AcDbEntity
8
S-ANNO-DIMS
370
13
100
AcDbPolyline
90
2
70
0
43
0
10
-14
20
97.875
10
-14
20
101.875
0
LWPOLYLINE
5
13B
330
1F
100
AcDbEntity
8
S-ANNO-DIMS
370
13
100
AcDbPolyline
90
2
70
0
43
0
10
-3
20
97.875
10
-3
20
101.875
0
LWPOLYLINE
5
13C
330
1F
100
AcDbEntity
8
S-ANNO-DIMS
370
13
100
AcDbPolyline
90
2
70
0
43
0
10
-14
20
101.125
10
-3
20
101.125
0
LWPOLYLINE
5
13D
330
1F
100
AcDbEntity
8
S-DETL-CUT
370
35
100
AcDbPolyline
90
2
70
0
43
0
10
-14.265165
20
100.859835
10
-13.734835
20
101.390165
0
LWPOLYLINE
5
13E
330
1F
100
AcDbEntity
8
S-DETL-CUT
370
35
100
AcDbPolyline
90
2
70
0
43
0
10
-3.265165
20
100.859835
10
-2.734835
20
101.390165
0
TEXT
5
13F
330
1F
100
AcDbEntity
8
S-ANNO-DIMS
370
13
100
AcDbText
10
-8.5
20
101.6875
30
0
40
1.125
1
11"
7
KERF
72
1
11
-8.5
21
101.6875
31
0
100
AcDbText
0
LWPOLYLINE
5
140
330
1F
100
AcDbEntity
8
S-ANNO-DIMS
370
13
100
AcDbPolyline
90
2
70
0
43
0
10
-3
20
97.875
10
-3
20
101.875
0
LWPOLYLINE
5
141
330
1F
100
AcDbEntity
8
S-ANNO-DIMS
370
13
100
AcDbPolyline
90
2
70
0
43
0
10
8
20
97.875
10
8
20
101.875
0
LWPOLYLINE
5
142
330
1F
100
AcDbEntity
8
S-ANNO-DIMS
370
13
100
AcDbPolyline
90
2
70
0
43
0
10
-3
20
101.125
10
8
20
101.125
0
LWPOLYLINE
5
143
330
1F
100
AcDbEntity
8
S-DETL-CUT
370
35
100
AcDbPolyline
90
2
70
0
43
0
10
-3.265165
20
100.859835
10
-2.734835
20
101.390165
0
LWPOLYLINE
5
144
330
1F
100
AcDbEntity
8
S-DETL-CUT
370
35
100
AcDbPolyline
90
2
70
0
43
0
10
7.734835
20
100.859835
10
8.265165
20
101.390165
0
TEXT
5
145
330
1F
100
AcDbEntity
8
S-ANNO-DIMS
370
13
100
AcDbText
10
2.5
20
101.6875
30
0
40
1.125
1
11"
7
KERF
72
1
11
2.5
21
101.6875
31
0
100
AcDbText
0
LWPOLYLINE
5
146
330
1F
100
AcDbEntity
8
S-ANNO-DIMS
370
13
100
AcDbPolyline
90
2
70
0
43
0
10
17.75
20
87.875
10
18.75
20
87.875
0
LWPOLYLINE
5
147
330
1F
100
AcDbEntity
8
S-ANNO-DIMS
370
13
100
AcDbPolyline
90
2
70
0
43
0
10
17.75
20
97.125
10
18.75
20
97.125
0
LWPOLYLINE
5
148
330
1F
100
AcDbEntity
8
S-ANNO-DIMS
370
13
100
AcDbPolyline
90
2
70
0
43
0
10
18
20
87.875
10
18
20
97.125
0
LWPOLYLINE
5
149
330
1F
100
AcDbEntity
8
S-DETL-CUT
370
35
100
AcDbPolyline
90
2
70
0
43
0
10
18.265165
20
87.609835
10
17.734835
20
88.140165
0
LWPOLYLINE
5
14A
330
1F
100
AcDbEntity
8
S-DETL-CUT
370
35
100
AcDbPolyline
90
2
70
0
43
0
10
18.265165
20
96.859835
10
17.734835
20
97.390165
0
TEXT
5
14B
330
1F
100
AcDbEntity
8
S-ANNO-DIMS
370
13
100
AcDbText
10
17.4375
20
92.5
30
0
40
1.125
1
9 1/4"
50
90
7
KERF
72
1
11
17.4375
21
92.5
31
0
100
AcDbText
0
LWPOLYLINE
5
14C
330
1F
100
AcDbEntity
8
S-ANNO-TTLB
370
50
100
AcDbPolyline
90
2
70
1
43
0
10
-28
20
65.95
42
1
10
-20.5
20
65.95
42
1
0
LWPOLYLINE
5
14D
330
1F
100
AcDbEntity
8
S-ANNO-NOTE
370
18
100
AcDbPolyline
90
2
70
0
43
0
10
-28
20
65.95
10
-20.5
20
65.95
0
TEXT
5
14E
330
1F
100
AcDbEntity
8
S-ANNO-TTLB
370
50
100
AcDbText
10
-24.25
20
67.825
30
0
40
1.875
1
1
7
KERF
72
1
11
-24.25
21
67.825
31
0
100
AcDbText
73
2
0
TEXT
5
14F
330
1F
100
AcDbEntity
8
S-ANNO-TTLB
370
18
100
AcDbText
10
-24.25
20
64.075
30
0
40
0.84375
1
S-502
7
KERF
72
1
11
-24.25
21
64.075
31
0
100
AcDbText
73
2
0
TEXT
5
150
330
1F
100
AcDbEntity
8
S-ANNO-TTLB
370
50
100
AcDbText
10
-18.7
20
66.19
30
0
40
1.875
1
FLUSH BEAM AT TOP PLATE - ELEVATION
7
KERF
100
AcDbText
0
LWPOLYLINE
5
151
330
1F
100
AcDbEntity
8
S-ANNO-TTLB
370
50
100
AcDbPolyline
90
2
70
0
43
0
10
-18.7
20
65.35
10
38.978571
20
65.35
0
TEXT
5
152
330
1F
100
AcDbEntity
8
S-ANNO-TTLB
370
18
100
AcDbText
10
-18.7
20
63.505
30
0
40
1.125
1
SCALE: 1" = 1'-0"
7
KERF
100
AcDbText
0
TEXT
5
153
330
1F
100
AcDbEntity
8
S-ANNO-TTLB
370
18
100
AcDbText
10
-28
20
59.875
30
0
40
0.95625
1
* CODE REFERENCE NOT VERIFIED BY DESIGNER
7
KERF
100
AcDbText
0
ENDSEC
0
SECTION
2
OBJECTS
0
DICTIONARY
5
C
330
0
100
AcDbDictionary
281
1
3
ACAD_GROUP
350
D
0
DICTIONARY
5
D
330
C
100
AcDbDictionary
281
1
0
ENDSEC
0
EOF
