0
SECTION
2
HEADER
9
$ACADVER
1
AC1015
9
$HANDSEED
5
13A
9
$INSUNITS
70
1
9
$MEASUREMENT
70
0
9
$LTSCALE
40
1
9
$EXTMIN
10
-52.587445
20
61.88
30
0
9
$EXTMAX
10
33.511851
20
118.875
30
0
0
ENDSEC
0
SECTION
2
CLASSES
0
ENDSEC
0
SECTION
2
TABLES
0
TABLE
2
VPORT
5
8
330
0
100
AcDbSymbolTable
70
1
0
VPORT
5
30
330
8
100
AcDbSymbolTableRecord
100
AcDbViewportTableRecord
2
*ACTIVE
70
0
10
0
20
0
11
1
21
1
12
-9.537797
22
90.3775
13
0
23
0
14
10
24
10
15
10
25
10
16
0
26
0
36
1
17
0
27
0
37
0
40
62.6945
41
1.510646
42
50
43
0
44
0
50
0
51
0
71
0
72
100
73
1
74
3
75
0
76
0
77
0
78
0
0
ENDTAB
0
TABLE
2
LTYPE
5
5
330
0
100
AcDbSymbolTable
70
4
0
LTYPE
5
14
330
5
100
AcDbSymbolTableRecord
100
AcDbLinetypeTableRecord
2
BYBLOCK
70
0
3

72
65
73
0
40
0
0
LTYPE
5
15
330
5
100
AcDbSymbolTableRecord
100
AcDbLinetypeTableRecord
2
BYLAYER
70
0
3

72
65
73
0
40
0
0
LTYPE
5
16
330
5
100
AcDbSymbolTableRecord
100
AcDbLinetypeTableRecord
2
CONTINUOUS
70
0
3
Solid line
72
65
73
0
40
0
0
LTYPE
5
40
330
5
100
AcDbSymbolTableRecord
100
AcDbLinetypeTableRecord
2
DASHED
70
0
3
DASHED
72
65
73
2
40
1.417323
49
0.944882
74
0
49
-0.472441
74
0
0
ENDTAB
0
TABLE
2
LAYER
5
2
330
0
100
AcDbSymbolTable
70
5
0
LAYER
5
10
330
2
100
AcDbSymbolTableRecord
100
AcDbLayerTableRecord
2
0
70
0
62
7
6
CONTINUOUS
370
-3
0
LAYER
5
50
330
2
100
AcDbSymbolTableRecord
100
AcDbLayerTableRecord
2
S-DETL-BYND
70
0
62
7
6
CONTINUOUS
370
18
0
LAYER
5
51
330
2
100
AcDbSymbolTableRecord
100
AcDbLayerTableRecord
2
S-DETL-CUT
70
0
62
7
6
CONTINUOUS
370
50
0
LAYER
5
52
330
2
100
AcDbSymbolTableRecord
100
AcDbLayerTableRecord
2
S-ANNO-NOTE
70
0
62
7
6
CONTINUOUS
370
18
0
LAYER
5
53
330
2
100
AcDbSymbolTableRecord
100
AcDbLayerTableRecord
2
S-ANNO-TTLB
70
0
62
7
6
CONTINUOUS
370
50
0
ENDTAB
0
TABLE
2
STYLE
5
3
330
0
100
AcDbSymbolTable
70
2
0
STYLE
5
11
330
3
100
AcDbSymbolTableRecord
100
AcDbTextStyleTableRecord
2
STANDARD
70
0
40
0
41
1
50
0
71
0
42
0.2
3
txt
4

0
STYLE
5
12
330
3
100
AcDbSymbolTableRecord
100
AcDbTextStyleTableRecord
2
KERF
70
0
40
0
41
1
50
0
71
0
42
0.2
3
romans.shx
4

0
ENDTAB
0
TABLE
2
VIEW
5
6
330
0
100
AcDbSymbolTable
70
0
0
ENDTAB
0
TABLE
2
UCS
5
7
330
0
100
AcDbSymbolTable
70
0
0
ENDTAB
0
TABLE
2
APPID
5
9
330
0
100
AcDbSymbolTable
70
1
0
APPID
5
13
330
9
100
AcDbSymbolTableRecord
100
AcDbRegAppTableRecord
2
ACAD
70
0
0
ENDTAB
0
TABLE
2
DIMSTYLE
5
A
330
0
100
AcDbSymbolTable
70
1
100
AcDbDimStyleTable
71
1
0
DIMSTYLE
105
17
330
A
100
AcDbSymbolTableRecord
100
AcDbDimStyleTableRecord
2
STANDARD
70
0
340
17
0
ENDTAB
0
TABLE
2
BLOCK_RECORD
5
1
330
0
100
AcDbSymbolTable
70
2
0
BLOCK_RECORD
5
1F
330
1
100
AcDbSymbolTableRecord
100
AcDbBlockTableRecord
2
*Model_Space
70
0
280
1
281
0
0
BLOCK_RECORD
5
1B
330
1
100
AcDbSymbolTableRecord
100
AcDbBlockTableRecord
2
*Paper_Space
70
0
280
1
281
0
0
ENDTAB
0
ENDSEC
0
SECTION
2
BLOCKS
0
BLOCK
5
20
330
1F
100
AcDbEntity
8
0
100
AcDbBlockBegin
2
*Model_Space
70
0
10
0
20
0
30
0
3
*Model_Space
1

0
ENDBLK
5
21
330
1F
100
AcDbEntity
8
0
100
AcDbBlockEnd
0
BLOCK
5
22
330
1B
100
AcDbEntity
67
1
8
0
100
AcDbBlockBegin
2
*Paper_Space
70
0
10
0
20
0
30
0
3
*Paper_Space
1

0
ENDBLK
5
23
330
1B
100
AcDbEntity
67
1
8
0
100
AcDbBlockEnd
0
ENDSEC
0
SECTION
2
ENTITIES
0
LWPOLYLINE
5
100
330
1F
100
AcDbEntity
8
S-DETL-BYND
370
18
100
AcDbPolyline
90
3
70
0
43
0
10
25.980762
20
72.875
10
25.980762
20
82.125
10
-2.598076
20
98.625
0
LWPOLYLINE
5
101
330
1F
100
AcDbEntity
8
S-DETL-BYND
370
18
100
AcDbPolyline
90
2
70
0
43
0
10
29.011851
20
83.875
10
25.980762
20
82.125
0
LWPOLYLINE
5
102
330
1F
100
AcDbEntity
8
S-DETL-BYND
370
18
100
AcDbPolyline
90
2
70
0
43
0
10
-1.299038
20
88.625
10
-2.598076
20
89.375
0
LWPOLYLINE
5
103
330
1F
100
AcDbEntity
8
S-DETL-BYND
370
18
100
AcDbPolyline
90
3
70
0
43
0
10
0
20
76
10
0
20
87.875
10
-1.299038
20
88.625
0
LWPOLYLINE
5
104
330
1F
100
AcDbEntity
8
S-DETL-BYND
370
18
100
AcDbPolyline
90
3
70
0
43
0
10
-2.598076
20
77.5
10
-2.598076
20
95.625
10
-3.897114
20
96.375
0
LWPOLYLINE
5
105
330
1F
100
AcDbEntity
8
S-DETL-BYND
370
18
100
AcDbPolyline
90
2
70
0
43
0
10
-3.897114
20
96.375
10
-5.196152
20
97.125
0
LWPOLYLINE
5
106
330
1F
100
AcDbEntity
8
S-DETL-BYND
370
18
100
AcDbPolyline
90
3
70
0
43
0
10
-17.537014
20
86.125
10
-17.537014
20
104.25
10
-18.836053
20
105
0
LWPOLYLINE
5
107
330
1F
100
AcDbEntity
8
S-DETL-BYND
370
18
100
AcDbPolyline
90
3
70
0
43
0
10
-31.393421
20
94.125
10
-31.393421
20
112.25
10
-32.692459
20
113
0
LWPOLYLINE
5
108
330
1F
100
AcDbEntity
8
S-DETL-BYND
370
18
100
AcDbPolyline
90
2
70
0
43
0
10
-2.598076
20
95.625
10
-2.598076
20
97.125
0
LWPOLYLINE
5
109
330
1F
100
AcDbEntity
8
S-DETL-BYND
370
18
100
AcDbPolyline
90
3
70
0
43
0
10
-2.598076
20
97.125
10
-2.598076
20
98.625
10
-34.641016
20
117.125
0
LWPOLYLINE
5
10A
330
1F
100
AcDbEntity
8
S-DETL-BYND
370
18
100
AcDbPolyline
90
3
70
0
43
0
10
7.902482
20
93.6875
10
7.902482
20
93.7473
10
-11.150077
20
104.7473
0
LWPOLYLINE
5
10B
330
1F
100
AcDbEntity
8
S-DETL-BYND
370
18
100
AcDbPolyline
90
2
70
0
43
0
10
8.985014
20
94.3723
10
7.902482
20
93.7473
0
LWPOLYLINE
5
10C
330
1F
100
AcDbEntity
8
S-DETL-CUT
370
35
100
AcDbPolyline
90
2
70
0
43
0
10
-2.598076
20
89.375
10
25.980762
20
72.875
0
LWPOLYLINE
5
10D
330
1F
100
AcDbEntity
8
S-DETL-CUT
370
35
100
AcDbPolyline
90
3
70
0
43
0
10
29.011851
20
74.625
10
29.011851
20
83.875
10
0.433013
20
100.375
0
LWPOLYLINE
5
10E
330
1F
100
AcDbEntity
8
S-DETL-CUT
370
35
100
AcDbPolyline
90
2
70
0
43
0
10
-2.598076
20
98.625
10
-2.598076
20
89.375
0
LWPOLYLINE
5
10F
330
1F
100
AcDbEntity
8
S-DETL-CUT
370
35
100
AcDbPolyline
90
2
70
0
43
0
10
29.011851
20
74.625
10
25.980762
20
72.875
0
LWPOLYLINE
5
110
330
1F
100
AcDbEntity
8
S-DETL-CUT
370
35
100
AcDbPolyline
90
2
70
0
43
0
10
0.433013
20
100.375
10
-0.489478
20
99.8424
0
LWPOLYLINE
5
111
330
1F
100
AcDbEntity
8
S-DETL-CUT
370
35
100
AcDbPolyline
90
2
70
0
43
0
10
-1.623798
20
99.1875
10
-2.598076
20
98.625
0
LWPOLYLINE
5
112
330
1F
100
AcDbEntity
8
S-DETL-CUT
370
35
100
AcDbPolyline
90
3
70
0
43
0
10
-2.598076
20
89.375
10
-2.598076
20
77.5
10
-1.299038
20
76.75
0
LWPOLYLINE
5
113
330
1F
100
AcDbEntity
8
S-DETL-CUT
370
35
100
AcDbPolyline
90
2
70
0
43
0
10
3.031089
20
77.75
10
3.031089
20
86.125
0
LWPOLYLINE
5
114
330
1F
100
AcDbEntity
8
S-DETL-CUT
370
35
100
AcDbPolyline
90
3
70
0
43
0
10
-1.299038
20
88.625
10
-1.299038
20
76.75
10
0
20
76
0
LWPOLYLINE
5
115
330
1F
100
AcDbEntity
8
S-DETL-CUT
370
35
100
AcDbPolyline
90
2
70
0
43
0
10
3.031089
20
77.75
10
0
20
76
0
LWPOLYLINE
5
116
330
1F
100
AcDbEntity
8
S-DETL-CUT
370
35
100
AcDbPolyline
90
3
70
0
43
0
10
-3.897114
20
96.375
10
-3.897114
20
78.25
10
-2.598076
20
77.5
0
LWPOLYLINE
5
117
330
1F
100
AcDbEntity
8
S-DETL-CUT
370
35
100
AcDbPolyline
90
3
70
0
43
0
10
-5.196152
20
97.125
10
-5.196152
20
79
10
-3.897114
20
78.25
0
LWPOLYLINE
5
118
330
1F
100
AcDbEntity
8
S-DETL-CUT
370
35
100
AcDbPolyline
90
2
70
0
43
0
10
-14.505926
20
87.875
10
-14.505926
20
102.5
0
LWPOLYLINE
5
119
330
1F
100
AcDbEntity
8
S-DETL-CUT
370
35
100
AcDbPolyline
90
3
70
0
43
0
10
-18.836053
20
105
10
-18.836053
20
86.875
10
-17.537014
20
86.125
0
LWPOLYLINE
5
11A
330
1F
100
AcDbEntity
8
S-DETL-CUT
370
35
100
AcDbPolyline
90
2
70
0
43
0
10
-14.505926
20
87.875
10
-17.537014
20
86.125
0
LWPOLYLINE
5
11B
330
1F
100
AcDbEntity
8
S-DETL-CUT
370
35
100
AcDbPolyline
90
2
70
0
43
0
10
-28.362332
20
95.875
10
-28.362332
20
110.5
0
LWPOLYLINE
5
11C
330
1F
100
AcDbEntity
8
S-DETL-CUT
370
35
100
AcDbPolyline
90
3
70
0
43
0
10
-32.692459
20
113
10
-32.692459
20
94.875
10
-31.393421
20
94.125
0
LWPOLYLINE
5
11D
330
1F
100
AcDbEntity
8
S-DETL-CUT
370
35
100
AcDbPolyline
90
2
70
0
43
0
10
-28.362332
20
95.875
10
-31.393421
20
94.125
0
LWPOLYLINE
5
11E
330
1F
100
AcDbEntity
8
S-DETL-CUT
370
35
100
AcDbPolyline
90
2
70
0
43
0
10
-34.641016
20
114.125
10
-2.598076
20
95.625
0
LWPOLYLINE
5
11F
330
1F
100
AcDbEntity
8
S-DETL-CUT
370
35
100
AcDbPolyline
90
2
70
0
43
0
10
-34.641016
20
115.625
10
-34.641016
20
114.125
0
LWPOLYLINE
5
120
330
1F
100
AcDbEntity
8
S-DETL-CUT
370
35
100
AcDbPolyline
90
2
70
0
43
0
10
-34.641016
20
115.625
10
-2.598076
20
97.125
0
LWPOLYLINE
5
121
330
1F
100
AcDbEntity
8
S-DETL-CUT
370
35
100
AcDbPolyline
90
2
70
0
43
0
10
0.433013
20
100.375
10
-31.609927
20
118.875
0
LWPOLYLINE
5
122
330
1F
100
AcDbEntity
8
S-DETL-CUT
370
35
100
AcDbPolyline
90
2
70
0
43
0
10
-34.641016
20
117.125
10
-34.641016
20
115.625
0
LWPOLYLINE
5
123
330
1F
100
AcDbEntity
8
S-DETL-CUT
370
35
100
AcDbPolyline
90
2
70
0
43
0
10
-31.609927
20
118.875
10
-34.641016
20
117.125
0
LWPOLYLINE
5
124
330
1F
100
AcDbEntity
8
S-DETL-CUT
370
35
100
AcDbPolyline
90
2
70
0
43
0
10
-11.150077
20
104.6875
10
7.902482
20
93.6875
0
LWPOLYLINE
5
125
330
1F
100
AcDbEntity
8
S-DETL-CUT
370
35
100
AcDbPolyline
90
3
70
0
43
0
10
8.985014
20
94.3125
10
8.985014
20
94.3723
10
-10.067545
20
105.3723
0
LWPOLYLINE
5
126
330
1F
100
AcDbEntity
8
S-DETL-CUT
370
35
100
AcDbPolyline
90
2
70
0
43
0
10
-11.150077
20
104.7473
10
-11.150077
20
104.6875
0
LWPOLYLINE
5
127
330
1F
100
AcDbEntity
8
S-DETL-CUT
370
35
100
AcDbPolyline
90
2
70
0
43
0
10
8.985014
20
94.3125
10
7.902482
20
93.6875
0
LWPOLYLINE
5
128
330
1F
100
AcDbEntity
8
S-DETL-CUT
370
35
100
AcDbPolyline
90
2
70
0
43
0
10
-10.067545
20
105.3723
10
-11.150077
20
104.7473
0
TEXT
5
129
330
1F
100
AcDbEntity
8
S-ANNO-NOTE
370
18
100
AcDbText
10
33.511851
20
99.8973
30
0
40
1.125
1
CS16 STRAP ACROSS
7
KERF
100
AcDbText
0
TEXT
5
12A
330
1F
100
AcDbEntity
8
S-ANNO-NOTE
370
18
100
AcDbText
10
33.511851
20
98.0973
30
0
40
1.125
1
PLATE-TO-BEAM JOINT
7
KERF
100
AcDbText
0
LWPOLYLINE
5
12B
330
1F
100
AcDbEntity
8
S-ANNO-NOTE
370
18
100
AcDbPolyline
90
3
70
0
43
0
10
33.031851
20
99.5598
10
31.531851
20
99.5598
10
0.042468
20
99.5598
0
HATCH
5
12C
330
1F
100
AcDbEntity
8
S-ANNO-NOTE
370
50
100
AcDbHatch
10
0
20
0
30
0
210
0
220
0
230
1
2
SOLID
70
1
71
0
91
1
92
3
72
0
73
1
93
3
10
-1.082532
20
99.5598
10
0.042468
20
99.1848
10
0.042468
20
99.9348
97
0
75
0
76
1
98
0
0
TEXT
5
12D
330
1F
100
AcDbEntity
8
S-ANNO-NOTE
370
18
100
AcDbText
10
33.511851
20
85.1875
30
0
40
1.125
1
(2) 1 3/4" X 9 1/4" LVL
7
KERF
100
AcDbText
0
LWPOLYLINE
5
12E
330
1F
100
AcDbEntity
8
S-ANNO-NOTE
370
18
100
AcDbPolyline
90
3
70
0
43
0
10
33.031851
20
85.75
10
31.531851
20
85.75
10
12.816343
20
85.75
0
HATCH
5
12F
330
1F
100
AcDbEntity
8
S-ANNO-NOTE
370
50
100
AcDbHatch
10
0
20
0
30
0
210
0
220
0
230
1
2
SOLID
70
1
71
0
91
1
92
3
72
0
73
1
93
3
10
11.691343
20
85.75
10
12.816343
20
85.375
10
12.816343
20
86.125
97
0
75
0
76
1
98
0
0
TEXT
5
130
330
1F
100
AcDbEntity
8
S-ANNO-NOTE
370
18
100
AcDbText
10
-52.587445
20
108.1875
30
0
40
1.125
1
DBL. TOP PLATE
7
KERF
100
AcDbText
0
LWPOLYLINE
5
131
330
1F
100
AcDbEntity
8
S-ANNO-NOTE
370
18
100
AcDbPolyline
90
3
70
0
43
0
10
-38.661016
20
108.75
10
-37.161016
20
108.75
10
-18.229002
20
108.75
0
HATCH
5
132
330
1F
100
AcDbEntity
8
S-ANNO-NOTE
370
50
100
AcDbHatch
10
0
20
0
30
0
210
0
220
0
230
1
2
SOLID
70
1
71
0
91
1
92
3
72
0
73
1
93
3
10
-17.104002
20
108.75
10
-18.229002
20
109.125
10
-18.229002
20
108.375
97
0
75
0
76
1
98
0
0
LWPOLYLINE
5
133
330
1F
100
AcDbEntity
8
S-ANNO-TTLB
370
50
100
AcDbPolyline
90
2
70
1
43
0
10
-34.641016
20
64.325
42
1
10
-27.141016
20
64.325
42
1
0
LWPOLYLINE
5
134
330
1F
100
AcDbEntity
8
S-ANNO-NOTE
370
18
100
AcDbPolyline
90
2
70
0
43
0
10
-34.641016
20
64.325
10
-27.141016
20
64.325
0
TEXT
5
135
330
1F
100
AcDbEntity
8
S-ANNO-TTLB
370
50
100
AcDbText
10
-30.891016
20
66.2
30
0
40
1.875
1
2
7
KERF
72
1
11
-30.891016
21
66.2
31
0
100
AcDbText
73
2
0
TEXT
5
136
330
1F
100
AcDbEntity
8
S-ANNO-TTLB
370
18
100
AcDbText
10
-30.891016
20
62.45
30
0
40
0.84375
1
S-502
7
KERF
72
1
11
-30.891016
21
62.45
31
0
100
AcDbText
73
2
0
TEXT
5
137
330
1F
100
AcDbEntity
8
S-ANNO-TTLB
370
50
100
AcDbText
10
-25.341016
20
64.565
30
0
40
1.875
1
FLUSH BEAM AT TOP PLATE - ISO
7
KERF
100
AcDbText
0
LWPOLYLINE
5
138
330
1F
100
AcDbEntity
8
S-ANNO-TTLB
370
50
100
AcDbPolyline
90
2
70
0
43
0
10
-25.341016
20
63.725
10
22.605412
20
63.725
0
TEXT
5
139
330
1F
100
AcDbEntity
8
S-ANNO-TTLB
370
18
100
AcDbText
10
-25.341016
20
61.88
30
0
40
1.125
1
SCALE: 1" = 1'-0"
7
KERF
100
AcDbText
0
ENDSEC
0
SECTION
2
OBJECTS
0
DICTIONARY
5
C
330
0
100
AcDbDictionary
281
1
3
ACAD_GROUP
350
D
0
DICTIONARY
5
D
330
C
100
AcDbDictionary
281
1
0
ENDSEC
0
EOF
