0
SECTION
2
HEADER
9
$ACADVER
1
AC1015
9
$HANDSEED
5
136
9
$INSUNITS
70
1
9
$MEASUREMENT
70
0
9
$LTSCALE
40
1
9
$EXTMIN
10
-42.208533
20
67.62875
30
0
9
$EXTMAX
10
27.190699
20
112.875
30
0
0
ENDSEC
0
SECTION
2
CLASSES
0
ENDSEC
0
SECTION
2
TABLES
0
TABLE
2
VPORT
5
8
330
0
100
AcDbSymbolTable
70
1
0
VPORT
5
30
330
8
100
AcDbSymbolTableRecord
100
AcDbViewportTableRecord
2
*ACTIVE
70
0
10
0
20
0
11
1
21
1
12
-7.508917
22
90.251875
13
0
23
0
14
10
24
10
15
10
25
10
16
0
26
0
36
1
17
0
27
0
37
0
40
49.770875
41
1.533812
42
50
43
0
44
0
50
0
51
0
71
0
72
100
73
1
74
3
75
0
76
0
77
0
78
0
0
ENDTAB
0
TABLE
2
LTYPE
5
5
330
0
100
AcDbSymbolTable
70
4
0
LTYPE
5
14
330
5
100
AcDbSymbolTableRecord
100
AcDbLinetypeTableRecord
2
BYBLOCK
70
0
3

72
65
73
0
40
0
0
LTYPE
5
15
330
5
100
AcDbSymbolTableRecord
100
AcDbLinetypeTableRecord
2
BYLAYER
70
0
3

72
65
73
0
40
0
0
LTYPE
5
16
330
5
100
AcDbSymbolTableRecord
100
AcDbLinetypeTableRecord
2
CONTINUOUS
70
0
3
Solid line
72
65
73
0
40
0
0
LTYPE
5
40
330
5
100
AcDbSymbolTableRecord
100
AcDbLinetypeTableRecord
2
DASHED
70
0
3
DASHED
72
65
73
2
40
1.062992
49
0.708661
74
0
49
-0.354331
74
0
0
ENDTAB
0
TABLE
2
LAYER
5
2
330
0
100
AcDbSymbolTable
70
5
0
LAYER
5
10
330
2
100
AcDbSymbolTableRecord
100
AcDbLayerTableRecord
2
0
70
0
62
7
6
CONTINUOUS
370
-3
0
LAYER
5
50
330
2
100
AcDbSymbolTableRecord
100
AcDbLayerTableRecord
2
S-DETL-BYND
70
0
62
7
6
CONTINUOUS
370
25
0
LAYER
5
51
330
2
100
AcDbSymbolTableRecord
100
AcDbLayerTableRecord
2
S-DETL-CUT
70
0
62
7
6
CONTINUOUS
370
50
0
LAYER
5
52
330
2
100
AcDbSymbolTableRecord
100
AcDbLayerTableRecord
2
S-ANNO-NOTE
70
0
62
7
6
CONTINUOUS
370
18
0
LAYER
5
53
330
2
100
AcDbSymbolTableRecord
100
AcDbLayerTableRecord
2
S-ANNO-TTLB
70
0
62
7
6
CONTINUOUS
370
50
0
ENDTAB
0
TABLE
2
STYLE
5
3
330
0
100
AcDbSymbolTable
70
2
0
STYLE
5
11
330
3
100
AcDbSymbolTableRecord
100
AcDbTextStyleTableRecord
2
STANDARD
70
0
40
0
41
1
50
0
71
0
42
0.2
3
txt
4

0
STYLE
5
12
330
3
100
AcDbSymbolTableRecord
100
AcDbTextStyleTableRecord
2
KERF
70
0
40
0
41
1
50
0
71
0
42
0.2
3
romans.shx
4

0
ENDTAB
0
TABLE
2
VIEW
5
6
330
0
100
AcDbSymbolTable
70
0
0
ENDTAB
0
TABLE
2
UCS
5
7
330
0
100
AcDbSymbolTable
70
0
0
ENDTAB
0
TABLE
2
APPID
5
9
330
0
100
AcDbSymbolTable
70
1
0
APPID
5
13
330
9
100
AcDbSymbolTableRecord
100
AcDbRegAppTableRecord
2
ACAD
70
0
0
ENDTAB
0
TABLE
2
DIMSTYLE
5
A
330
0
100
AcDbSymbolTable
70
1
100
AcDbDimStyleTable
71
1
0
DIMSTYLE
105
17
330
A
100
AcDbSymbolTableRecord
100
AcDbDimStyleTableRecord
2
STANDARD
70
0
340
17
0
ENDTAB
0
TABLE
2
BLOCK_RECORD
5
1
330
0
100
AcDbSymbolTable
70
2
0
BLOCK_RECORD
5
1F
330
1
100
AcDbSymbolTableRecord
100
AcDbBlockTableRecord
2
*Model_Space
70
0
280
1
281
0
0
BLOCK_RECORD
5
1B
330
1
100
AcDbSymbolTableRecord
100
AcDbBlockTableRecord
2
*Paper_Space
70
0
280
1
281
0
0
ENDTAB
0
ENDSEC
0
SECTION
2
BLOCKS
0
BLOCK
5
20
330
1F
100
AcDbEntity
8
0
100
AcDbBlockBegin
2
*Model_Space
70
0
10
0
20
0
30
0
3
*Model_Space
1

0
ENDBLK
5
21
330
1F
100
AcDbEntity
8
0
100
AcDbBlockEnd
0
BLOCK
5
22
330
1B
100
AcDbEntity
67
1
8
0
100
AcDbBlockBegin
2
*Paper_Space
70
0
10
0
20
0
30
0
3
*Paper_Space
1

0
ENDBLK
5
23
330
1B
100
AcDbEntity
67
1
8
0
100
AcDbBlockEnd
0
ENDSEC
0
SECTION
2
ENTITIES
0
LWPOLYLINE
5
100
330
1F
100
AcDbEntity
8
S-DETL-BYND
370
25
100
AcDbPolyline
90
3
70
0
43
0
10
20.78461
20
75.875
10
20.78461
20
85.125
10
-2.598076
20
98.625
0
LWPOLYLINE
5
101
330
1F
100
AcDbEntity
8
S-DETL-BYND
370
25
100
AcDbPolyline
90
2
70
0
43
0
10
23.815699
20
86.875
10
20.78461
20
85.125
0
LWPOLYLINE
5
102
330
1F
100
AcDbEntity
8
S-DETL-BYND
370
25
100
AcDbPolyline
90
2
70
0
43
0
10
-1.299038
20
88.625
10
-2.598076
20
89.375
0
LWPOLYLINE
5
103
330
1F
100
AcDbEntity
8
S-DETL-BYND
370
25
100
AcDbPolyline
90
3
70
0
43
0
10
0
20
76
10
0
20
87.875
10
-1.299038
20
88.625
0
LWPOLYLINE
5
104
330
1F
100
AcDbEntity
8
S-DETL-BYND
370
25
100
AcDbPolyline
90
3
70
0
43
0
10
-2.598076
20
77.5
10
-2.598076
20
95.625
10
-3.897114
20
96.375
0
LWPOLYLINE
5
105
330
1F
100
AcDbEntity
8
S-DETL-BYND
370
25
100
AcDbPolyline
90
2
70
0
43
0
10
-3.897114
20
96.375
10
-5.196152
20
97.125
0
LWPOLYLINE
5
106
330
1F
100
AcDbEntity
8
S-DETL-BYND
370
25
100
AcDbPolyline
90
3
70
0
43
0
10
-17.537014
20
86.125
10
-17.537014
20
104.25
10
-18.836053
20
105
0
LWPOLYLINE
5
107
330
1F
100
AcDbEntity
8
S-DETL-BYND
370
25
100
AcDbPolyline
90
2
70
0
43
0
10
-2.598076
20
95.625
10
-2.598076
20
97.125
0
LWPOLYLINE
5
108
330
1F
100
AcDbEntity
8
S-DETL-BYND
370
25
100
AcDbPolyline
90
3
70
0
43
0
10
-2.598076
20
97.125
10
-2.598076
20
98.625
10
-24.248711
20
111.125
0
LWPOLYLINE
5
109
330
1F
100
AcDbEntity
8
S-DETL-BYND
370
25
100
AcDbPolyline
90
3
70
0
43
0
10
7.902482
20
93.6875
10
7.902482
20
93.7473
10
-11.150077
20
104.7473
0
LWPOLYLINE
5
10A
330
1F
100
AcDbEntity
8
S-DETL-BYND
370
25
100
AcDbPolyline
90
2
70
0
43
0
10
8.985014
20
94.3723
10
7.902482
20
93.7473
0
LWPOLYLINE
5
10B
330
1F
100
AcDbEntity
8
S-DETL-CUT
370
35
100
AcDbPolyline
90
2
70
0
43
0
10
-2.598076
20
89.375
10
20.78461
20
75.875
0
LWPOLYLINE
5
10C
330
1F
100
AcDbEntity
8
S-DETL-CUT
370
35
100
AcDbPolyline
90
3
70
0
43
0
10
23.815699
20
77.625
10
23.815699
20
86.875
10
0.433013
20
100.375
0
LWPOLYLINE
5
10D
330
1F
100
AcDbEntity
8
S-DETL-CUT
370
35
100
AcDbPolyline
90
2
70
0
43
0
10
-2.598076
20
98.625
10
-2.598076
20
89.375
0
LWPOLYLINE
5
10E
330
1F
100
AcDbEntity
8
S-DETL-CUT
370
35
100
AcDbPolyline
90
2
70
0
43
0
10
23.815699
20
77.625
10
20.78461
20
75.875
0
LWPOLYLINE
5
10F
330
1F
100
AcDbEntity
8
S-DETL-CUT
370
35
100
AcDbPolyline
90
2
70
0
43
0
10
0.433013
20
100.375
10
-0.489478
20
99.8424
0
LWPOLYLINE
5
110
330
1F
100
AcDbEntity
8
S-DETL-CUT
370
35
100
AcDbPolyline
90
2
70
0
43
0
10
-1.623798
20
99.1875
10
-2.598076
20
98.625
0
LWPOLYLINE
5
111
330
1F
100
AcDbEntity
8
S-DETL-CUT
370
35
100
AcDbPolyline
90
3
70
0
43
0
10
-2.598076
20
89.375
10
-2.598076
20
77.5
10
-1.299038
20
76.75
0
LWPOLYLINE
5
112
330
1F
100
AcDbEntity
8
S-DETL-CUT
370
35
100
AcDbPolyline
90
2
70
0
43
0
10
3.031089
20
77.75
10
3.031089
20
86.125
0
LWPOLYLINE
5
113
330
1F
100
AcDbEntity
8
S-DETL-CUT
370
35
100
AcDbPolyline
90
3
70
0
43
0
10
-1.299038
20
88.625
10
-1.299038
20
76.75
10
0
20
76
0
LWPOLYLINE
5
114
330
1F
100
AcDbEntity
8
S-DETL-CUT
370
35
100
AcDbPolyline
90
2
70
0
43
0
10
3.031089
20
77.75
10
0
20
76
0
LWPOLYLINE
5
115
330
1F
100
AcDbEntity
8
S-DETL-CUT
370
35
100
AcDbPolyline
90
3
70
0
43
0
10
-3.897114
20
96.375
10
-3.897114
20
78.25
10
-2.598076
20
77.5
0
LWPOLYLINE
5
116
330
1F
100
AcDbEntity
8
S-DETL-CUT
370
35
100
AcDbPolyline
90
3
70
0
43
0
10
-5.196152
20
97.125
10
-5.196152
20
79
10
-3.897114
20
78.25
0
LWPOLYLINE
5
117
330
1F
100
AcDbEntity
8
S-DETL-CUT
370
35
100
AcDbPolyline
90
2
70
0
43
0
10
-14.505926
20
87.875
10
-14.505926
20
102.5
0
LWPOLYLINE
5
118
330
1F
100
AcDbEntity
8
S-DETL-CUT
370
35
100
AcDbPolyline
90
3
70
0
43
0
10
-18.836053
20
105
10
-18.836053
20
86.875
10
-17.537014
20
86.125
0
LWPOLYLINE
5
119
330
1F
100
AcDbEntity
8
S-DETL-CUT
370
35
100
AcDbPolyline
90
2
70
0
43
0
10
-14.505926
20
87.875
10
-17.537014
20
86.125
0
LWPOLYLINE
5
11A
330
1F
100
AcDbEntity
8
S-DETL-CUT
370
35
100
AcDbPolyline
90
2
70
0
43
0
10
-24.248711
20
108.125
10
-2.598076
20
95.625
0
LWPOLYLINE
5
11B
330
1F
100
AcDbEntity
8
S-DETL-CUT
370
35
100
AcDbPolyline
90
2
70
0
43
0
10
-24.248711
20
109.625
10
-24.248711
20
108.125
0
LWPOLYLINE
5
11C
330
1F
100
AcDbEntity
8
S-DETL-CUT
370
35
100
AcDbPolyline
90
2
70
0
43
0
10
-24.248711
20
109.625
10
-2.598076
20
97.125
0
LWPOLYLINE
5
11D
330
1F
100
AcDbEntity
8
S-DETL-CUT
370
35
100
AcDbPolyline
90
2
70
0
43
0
10
0.433013
20
100.375
10
-21.217622
20
112.875
0
LWPOLYLINE
5
11E
330
1F
100
AcDbEntity
8
S-DETL-CUT
370
35
100
AcDbPolyline
90
2
70
0
43
0
10
-24.248711
20
111.125
10
-24.248711
20
109.625
0
LWPOLYLINE
5
11F
330
1F
100
AcDbEntity
8
S-DETL-CUT
370
35
100
AcDbPolyline
90
2
70
0
43
0
10
-21.217622
20
112.875
10
-24.248711
20
111.125
0
LWPOLYLINE
5
120
330
1F
100
AcDbEntity
8
S-DETL-CUT
370
35
100
AcDbPolyline
90
2
70
0
43
0
10
-11.150077
20
104.6875
10
7.902482
20
93.6875
0
LWPOLYLINE
5
121
330
1F
100
AcDbEntity
8
S-DETL-CUT
370
35
100
AcDbPolyline
90
3
70
0
43
0
10
8.985014
20
94.3125
10
8.985014
20
94.3723
10
-10.067545
20
105.3723
0
LWPOLYLINE
5
122
330
1F
100
AcDbEntity
8
S-DETL-CUT
370
35
100
AcDbPolyline
90
2
70
0
43
0
10
-11.150077
20
104.7473
10
-11.150077
20
104.6875
0
LWPOLYLINE
5
123
330
1F
100
AcDbEntity
8
S-DETL-CUT
370
35
100
AcDbPolyline
90
2
70
0
43
0
10
8.985014
20
94.3125
10
7.902482
20
93.6875
0
LWPOLYLINE
5
124
330
1F
100
AcDbEntity
8
S-DETL-CUT
370
35
100
AcDbPolyline
90
2
70
0
43
0
10
-10.067545
20
105.3723
10
-11.150077
20
104.7473
0
TEXT
5
125
330
1F
100
AcDbEntity
8
S-ANNO-NOTE
370
18
100
AcDbText
10
-42.208533
20
99.812925
30
0
40
0.84375
1
CS16 STRAP ACROSS
7
KERF
100
AcDbText
0
TEXT
5
126
330
1F
100
AcDbEntity
8
S-ANNO-NOTE
370
18
100
AcDbText
10
-42.208533
20
98.462925
30
0
40
0.84375
1
PLATE-TO-BEAM JOINT
7
KERF
100
AcDbText
0
LWPOLYLINE
5
127
330
1F
100
AcDbEntity
8
S-ANNO-NOTE
370
18
100
AcDbPolyline
90
3
70
0
43
0
10
-27.263711
20
99.5598
10
-26.138711
20
99.5598
10
-1.926282
20
99.5598
0
HATCH
5
128
330
1F
100
AcDbEntity
8
S-ANNO-NOTE
370
50
100
AcDbHatch
10
0
20
0
30
0
210
0
220
0
230
1
2
SOLID
70
1
71
0
91
1
92
3
72
0
73
1
93
3
10
-1.082532
20
99.5598
10
-1.926282
20
99.84105
10
-1.926282
20
99.27855
97
0
75
0
76
1
98
0
0
TEXT
5
129
330
1F
100
AcDbEntity
8
S-ANNO-NOTE
370
18
100
AcDbText
10
27.190699
20
86.828125
30
0
40
0.84375
1
(2) 1 3/4" X 9 1/4" LVL
7
KERF
100
AcDbText
0
LWPOLYLINE
5
12A
330
1F
100
AcDbEntity
8
S-ANNO-NOTE
370
18
100
AcDbPolyline
90
3
70
0
43
0
10
26.830699
20
87.25
10
25.705699
20
87.25
10
9.937017
20
87.25
0
HATCH
5
12B
330
1F
100
AcDbEntity
8
S-ANNO-NOTE
370
50
100
AcDbHatch
10
0
20
0
30
0
210
0
220
0
230
1
2
SOLID
70
1
71
0
91
1
92
3
72
0
73
1
93
3
10
9.093267
20
87.25
10
9.937017
20
86.96875
10
9.937017
20
87.53125
97
0
75
0
76
1
98
0
0
TEXT
5
12C
330
1F
100
AcDbEntity
8
S-ANNO-NOTE
370
18
100
AcDbText
10
-37.708533
20
105.328125
30
0
40
0.84375
1
DBL. TOP PLATE
7
KERF
100
AcDbText
0
LWPOLYLINE
5
12D
330
1F
100
AcDbEntity
8
S-ANNO-NOTE
370
18
100
AcDbPolyline
90
3
70
0
43
0
10
-27.263711
20
105.75
10
-26.138711
20
105.75
10
-12.751599
20
105.75
0
HATCH
5
12E
330
1F
100
AcDbEntity
8
S-ANNO-NOTE
370
50
100
AcDbHatch
10
0
20
0
30
0
210
0
220
0
230
1
2
SOLID
70
1
71
0
91
1
92
3
72
0
73
1
93
3
10
-11.907849
20
105.75
10
-12.751599
20
106.03125
10
-12.751599
20
105.46875
97
0
75
0
76
1
98
0
0
LWPOLYLINE
5
12F
330
1F
100
AcDbEntity
8
S-ANNO-TTLB
370
50
100
AcDbPolyline
90
2
70
1
43
0
10
-24.248711
20
69.4625
42
1
10
-18.623711
20
69.4625
42
1
0
LWPOLYLINE
5
130
330
1F
100
AcDbEntity
8
S-ANNO-NOTE
370
18
100
AcDbPolyline
90
2
70
0
43
0
10
-24.248711
20
69.4625
10
-18.623711
20
69.4625
0
TEXT
5
131
330
1F
100
AcDbEntity
8
S-ANNO-TTLB
370
50
100
AcDbText
10
-21.436211
20
70.86875
30
0
40
1.40625
1
2
7
KERF
72
1
11
-21.436211
21
70.86875
31
0
100
AcDbText
73
2
0
TEXT
5
132
330
1F
100
AcDbEntity
8
S-ANNO-TTLB
370
18
100
AcDbText
10
-21.436211
20
68.05625
30
0
40
0.632813
1
S-502
7
KERF
72
1
11
-21.436211
21
68.05625
31
0
100
AcDbText
73
2
0
TEXT
5
133
330
1F
100
AcDbEntity
8
S-ANNO-TTLB
370
50
100
AcDbText
10
-17.273711
20
69.6425
30
0
40
1.40625
1
FLUSH BEAM AT TOP PLATE - ISO
7
KERF
100
AcDbText
0
LWPOLYLINE
5
134
330
1F
100
AcDbEntity
8
S-ANNO-TTLB
370
50
100
AcDbPolyline
90
2
70
0
43
0
10
-17.273711
20
69.0125
10
18.68611
20
69.0125
0
TEXT
5
135
330
1F
100
AcDbEntity
8
S-ANNO-TTLB
370
18
100
AcDbText
10
-17.273711
20
67.62875
30
0
40
0.84375
1
SCALE: NTS
7
KERF
100
AcDbText
0
ENDSEC
0
SECTION
2
OBJECTS
0
DICTIONARY
5
C
330
0
100
AcDbDictionary
281
1
3
ACAD_GROUP
350
D
0
DICTIONARY
5
D
330
C
100
AcDbDictionary
281
1
0
ENDSEC
0
EOF
