0
SECTION
2
HEADER
9
$ACADVER
1
AC1015
9
$DWGCODEPAGE
3
ANSI_1252
9
$INSBASE
10
0.0
20
0.0
30
0.0
9
$EXTMIN
10
-59.7679
20
59.875
30
0.0
9
$EXTMAX
10
52.125
20
106.5625
30
0.0
9
$LTSCALE
40
1.0
9
$TEXTSTYLE
7
KERF
9
$CLAYER
8
0
9
$CELTYPE
6
BYLAYER
9
$LWDISPLAY
290
1
9
$MEASUREMENT
70
0
9
$INSUNITS
70
1
9
$TDCREATE
40
2451545.0
9
$TDUPDATE
40
2451545.0
9
$HANDSEED
5
FFFF
0
ENDSEC
0
SECTION
2
TABLES
0
TABLE
2
VPORT
5
8
330
0
100
AcDbSymbolTable
70
0
0
ENDTAB
0
TABLE
2
LTYPE
5
4
330
0
100
AcDbSymbolTable
70
5
0
LTYPE
5
20
330
4
100
AcDbSymbolTableRecord
100
AcDbLinetypeTableRecord
2
BYBLOCK
70
0
3

72
65
73
0
40
0.0
0
LTYPE
5
21
330
4
100
AcDbSymbolTableRecord
100
AcDbLinetypeTableRecord
2
BYLAYER
70
0
3

72
65
73
0
40
0.0
0
LTYPE
5
22
330
4
100
AcDbSymbolTableRecord
100
AcDbLinetypeTableRecord
2
CONTINUOUS
70
0
3
Solid line
72
65
73
0
40
0.0
0
LTYPE
5
23
330
4
100
AcDbSymbolTableRecord
100
AcDbLinetypeTableRecord
2
DASHED
70
0
3
Kerf dashed
72
65
73
2
40
1.4173
49
0.9449
74
0
49
-0.4724
74
0
0
LTYPE
5
24
330
4
100
AcDbSymbolTableRecord
100
AcDbLinetypeTableRecord
2
DASH_VAPOR
70
0
3
Kerf dashed
72
65
73
2
40
1.063
49
0.7087
74
0
49
-0.3543
74
0
0
ENDTAB
0
TABLE
2
LAYER
5
2
330
0
100
AcDbSymbolTable
70
9
0
LAYER
5
25
330
2
100
AcDbSymbolTableRecord
100
AcDbLayerTableRecord
2
0
70
0
62
7
6
CONTINUOUS
0
LAYER
5
26
330
2
100
AcDbSymbolTableRecord
100
AcDbLayerTableRecord
2
S-DETL-CUT
70
0
62
7
6
CONTINUOUS
370
50
0
LAYER
5
27
330
2
100
AcDbSymbolTableRecord
100
AcDbLayerTableRecord
2
S-DETL-BYND
70
0
62
7
6
CONTINUOUS
370
25
0
LAYER
5
28
330
2
100
AcDbSymbolTableRecord
100
AcDbLayerTableRecord
2
S-DETL-PATT
70
0
62
7
6
CONTINUOUS
370
9
0
LAYER
5
29
330
2
100
AcDbSymbolTableRecord
100
AcDbLayerTableRecord
2
S-DETL-STL
70
0
62
7
6
CONTINUOUS
370
35
0
LAYER
5
2A
330
2
100
AcDbSymbolTableRecord
100
AcDbLayerTableRecord
2
S-ANNO-NOTE
70
0
62
7
6
CONTINUOUS
370
18
0
LAYER
5
2B
330
2
100
AcDbSymbolTableRecord
100
AcDbLayerTableRecord
2
S-ANNO-DIMS
70
0
62
7
6
CONTINUOUS
370
13
0
LAYER
5
2C
330
2
100
AcDbSymbolTableRecord
100
AcDbLayerTableRecord
2
S-ANNO-TTLB
70
0
62
7
6
CONTINUOUS
370
50
0
LAYER
5
2D
330
2
100
AcDbSymbolTableRecord
100
AcDbLayerTableRecord
2
S-DETL-BRKL
70
0
62
7
6
CONTINUOUS
370
25
0
ENDTAB
0
TABLE
2
STYLE
5
3
330
0
100
AcDbSymbolTable
70
2
0
STYLE
5
2E
330
3
100
AcDbSymbolTableRecord
100
AcDbTextStyleTableRecord
2
STANDARD
70
0
40
0.0
41
1.0
50
0.0
71
0
42
1.0
3
txt
4

0
STYLE
5
2F
330
3
100
AcDbSymbolTableRecord
100
AcDbTextStyleTableRecord
2
KERF
70
0
40
0.0
41
1.0
50
0.0
71
0
42
1.0
3
romans.shx
4

0
ENDTAB
0
TABLE
2
VIEW
5
5
330
0
100
AcDbSymbolTable
70
0
0
ENDTAB
0
TABLE
2
UCS
5
6
330
0
100
AcDbSymbolTable
70
0
0
ENDTAB
0
TABLE
2
APPID
5
9
330
0
100
AcDbSymbolTable
70
1
0
APPID
5
30
330
9
100
AcDbSymbolTableRecord
100
AcDbRegAppTableRecord
2
ACAD
70
0
0
ENDTAB
0
TABLE
2
BLOCK_RECORD
5
1
330
0
100
AcDbSymbolTable
70
2
0
BLOCK_RECORD
5
10
330
1
100
AcDbSymbolTableRecord
100
AcDbBlockTableRecord
2
*Model_Space
0
BLOCK_RECORD
5
11
330
1
100
AcDbSymbolTableRecord
100
AcDbBlockTableRecord
2
*Paper_Space
0
ENDTAB
0
ENDSEC
0
SECTION
2
BLOCKS
0
BLOCK
5
12
330
10
100
AcDbEntity
8
0
100
AcDbBlockBegin
2
*Model_Space
70
0
10
0.0
20
0.0
30
0.0
3
*Model_Space
1

0
ENDBLK
5
13
330
10
100
AcDbEntity
8
0
100
AcDbBlockEnd
0
BLOCK
5
14
330
11
100
AcDbEntity
8
0
100
AcDbBlockBegin
2
*Paper_Space
70
0
10
0.0
20
0.0
30
0.0
3
*Paper_Space
1

0
ENDBLK
5
15
330
11
100
AcDbEntity
8
0
100
AcDbBlockEnd
0
ENDSEC
0
SECTION
2
ENTITIES
0
HATCH
5
31
330
10
100
AcDbEntity
8
S-DETL-PATT
100
AcDbHatch
10
0.0
20
0.0
30
0.0
210
0.0
220
0.0
230
1.0
2
KERF-LAM
70
0
71
0
91
1
92
3
72
0
73
1
93
4
10
-3.0
20
97.125
10
-3.0
20
87.875
10
24.0
20
87.875
10
24.0
20
97.125
97
0
75
0
76
1
52
0.0
41
1.0
77
0
78
1
53
0.0
43
0.0
44
0.0
45
0.0
46
0.75
79
0
98
0
0
LWPOLYLINE
5
32
330
10
100
AcDbEntity
8
S-DETL-CUT
370
50
100
AcDbPolyline
90
4
70
0
10
24.0
20
97.125
10
-3.0
20
97.125
10
-3.0
20
87.875
10
24.0
20
87.875
0
LWPOLYLINE
5
33
330
10
100
AcDbEntity
8
S-DETL-BYND
370
25
100
AcDbPolyline
90
2
70
0
10
-1.5
20
76.0
10
-1.5
20
87.875
0
LWPOLYLINE
5
34
330
10
100
AcDbEntity
8
S-DETL-CUT
370
50
100
AcDbPolyline
90
2
70
0
10
-3.0
20
87.875
10
-3.0
20
76.0
0
LWPOLYLINE
5
35
330
10
100
AcDbEntity
8
S-DETL-CUT
370
50
100
AcDbPolyline
90
2
70
0
10
0.0
20
76.0
10
0.0
20
87.875
0
LWPOLYLINE
5
36
330
10
100
AcDbEntity
8
S-DETL-CUT
370
50
100
AcDbPolyline
90
2
70
0
10
-3.0
20
94.125
10
-4.5
20
94.125
0
LWPOLYLINE
5
37
330
10
100
AcDbEntity
8
S-DETL-BYND
370
25
100
AcDbPolyline
90
2
70
0
10
-4.5
20
94.125
10
-4.5
20
76.0
0
LWPOLYLINE
5
38
330
10
100
AcDbEntity
8
S-DETL-CUT
370
50
100
AcDbPolyline
90
3
70
0
10
-4.5
20
94.125
10
-6.0
20
94.125
10
-6.0
20
76.0
0
LWPOLYLINE
5
39
330
10
100
AcDbEntity
8
S-DETL-CUT
370
50
100
AcDbPolyline
90
4
70
0
10
-20.25
20
76.0
10
-20.25
20
94.125
10
-21.75
20
94.125
10
-21.75
20
76.0
0
LWPOLYLINE
5
3A
330
10
100
AcDbEntity
8
S-DETL-CUT
370
50
100
AcDbPolyline
90
2
70
0
10
-28.0
20
94.125
10
-21.75
20
94.125
0
LWPOLYLINE
5
3B
330
10
100
AcDbEntity
8
S-DETL-CUT
370
50
100
AcDbPolyline
90
2
70
0
10
-20.25
20
94.125
10
-6.0
20
94.125
0
LWPOLYLINE
5
3C
330
10
100
AcDbEntity
8
S-DETL-CUT
370
50
100
AcDbPolyline
90
2
70
0
10
-3.0
20
95.625
10
-28.0
20
95.625
0
LWPOLYLINE
5
3D
330
10
100
AcDbEntity
8
S-DETL-CUT
370
50
100
AcDbPolyline
90
2
70
0
10
-3.0
20
97.125
10
-28.0
20
97.125
0
LWPOLYLINE
5
3E
330
10
100
AcDbEntity
8
S-DETL-STL
370
35
100
AcDbPolyline
90
4
70
0
10
8.0
20
97.125
10
8.0
20
97.1848
10
-14.0
20
97.1848
10
-14.0
20
97.125
0
HATCH
5
3F
330
10
100
AcDbEntity
8
S-DETL-STL
100
AcDbHatch
10
0.0
20
0.0
30
0.0
210
0.0
220
0.0
230
1.0
2
SOLID
70
1
71
0
91
1
92
3
72
0
73
1
93
4
10
-14.0
20
97.125
10
8.0
20
97.125
10
8.0
20
97.1848
10
-14.0
20
97.1848
97
0
75
0
76
1
98
0
0
LWPOLYLINE
5
40
330
10
100
AcDbEntity
8
S-DETL-BRKL
370
25
100
AcDbPolyline
90
6
70
0
10
-28.0
20
93.375
10
-28.0
20
94.05
10
-27.1
20
94.995
10
-28.9
20
96.255
10
-28.0
20
97.2
10
-28.0
20
97.875
0
LWPOLYLINE
5
41
330
10
100
AcDbEntity
8
S-DETL-BRKL
370
25
100
AcDbPolyline
90
6
70
0
10
24.0
20
87.125
10
24.0
20
89.5
10
25.5
20
91.3
10
22.5
20
93.7
10
24.0
20
95.5
10
24.0
20
97.875
0
LWPOLYLINE
5
42
330
10
100
AcDbEntity
8
S-DETL-BRKL
370
25
100
AcDbPolyline
90
6
70
0
10
-22.5
20
76.0
10
-22.05
20
76.0
10
-21.42
20
76.6
10
-20.58
20
75.4
10
-19.95
20
76.0
10
-19.5
20
76.0
0
LWPOLYLINE
5
43
330
10
100
AcDbEntity
8
S-DETL-BRKL
370
25
100
AcDbPolyline
90
6
70
0
10
-6.75
20
76.0
10
-5.625
20
76.0
10
-4.05
20
77.5
10
-1.95
20
74.5
10
-0.375
20
76.0
10
0.75
20
76.0
0
TEXT
5
44
330
10
100
AcDbEntity
8
S-ANNO-NOTE
100
AcDbText
10
-59.7143
20
102.875
30
0.0
40
1.125
1
SIMPSON CS16 STRAP X 22"
7
KERF
100
AcDbText
73
0
0
TEXT
5
45
330
10
100
AcDbEntity
8
S-ANNO-NOTE
100
AcDbText
10
-59.7143
20
101.075
30
0.0
40
1.125
1
(11" EA. SIDE OF JOINT) OVER
7
KERF
100
AcDbText
73
0
0
TEXT
5
46
330
10
100
AcDbEntity
8
S-ANNO-NOTE
100
AcDbText
10
-59.7143
20
99.275
30
0.0
40
1.125
1
TOP OF PLATE & BEAM W/ (20)
7
KERF
100
AcDbText
73
0
0
TEXT
5
47
330
10
100
AcDbEntity
8
S-ANNO-NOTE
100
AcDbText
10
-59.7143
20
97.475
30
0.0
40
1.125
1
10D X 2 1/2" EA. SIDE,
7
KERF
100
AcDbText
73
0
0
TEXT
5
48
330
10
100
AcDbEntity
8
S-ANNO-NOTE
100
AcDbText
10
-59.7143
20
95.675
30
0.0
40
1.125
1
INSTALL PER MFR. (IRC
7
KERF
100
AcDbText
73
0
0
TEXT
5
49
330
10
100
AcDbEntity
8
S-ANNO-NOTE
100
AcDbText
10
-59.7143
20
93.875
30
0.0
40
1.125
1
R602.3.2)*
7
KERF
100
AcDbText
73
0
0
LWPOLYLINE
5
4A
330
10
100
AcDbEntity
8
S-ANNO-NOTE
370
18
100
AcDbPolyline
90
3
70
0
10
-32.02
20
98.9375
10
-30.52
20
98.9375
10
-4.1226
20
97.2276
0
HATCH
5
4B
330
10
100
AcDbEntity
8
S-ANNO-NOTE
100
AcDbHatch
10
0.0
20
0.0
30
0.0
210
0.0
220
0.0
230
1.0
2
SOLID
70
1
71
0
91
1
92
3
72
0
73
1
93
3
10
-3.0
20
97.1549
10
-4.0984
20
97.6018
10
-4.1469
20
96.8534
97
0
75
0
76
1
98
0
0
TEXT
5
4C
330
10
100
AcDbEntity
8
S-ANNO-NOTE
100
AcDbText
10
28.5
20
105.4375
30
0.0
40
1.125
1
(2) 1 3/4" X 9 1/4" LVL
7
KERF
100
AcDbText
73
0
0
TEXT
5
4D
330
10
100
AcDbEntity
8
S-ANNO-NOTE
100
AcDbText
10
28.5
20
103.6375
30
0.0
40
1.125
1
BEAM, T.O. BEAM FLUSH W/
7
KERF
100
AcDbText
73
0
0
TEXT
5
4E
330
10
100
AcDbEntity
8
S-ANNO-NOTE
100
AcDbText
10
28.5
20
101.8375
30
0.0
40
1.125
1
T.O. DBL. TOP PLATE. NAIL
7
KERF
100
AcDbText
73
0
0
TEXT
5
4F
330
10
100
AcDbEntity
8
S-ANNO-NOTE
100
AcDbText
10
28.5
20
100.0375
30
0.0
40
1.125
1
PLIES PER MFR.
7
KERF
100
AcDbText
73
0
0
LWPOLYLINE
5
50
330
10
100
AcDbEntity
8
S-ANNO-NOTE
370
18
100
AcDbPolyline
90
3
70
0
10
28.02
20
103.3
10
26.52
20
103.3
10
11.4328
20
93.1289
0
HATCH
5
51
330
10
100
AcDbEntity
8
S-ANNO-NOTE
100
AcDbHatch
10
0.0
20
0.0
30
0.0
210
0.0
220
0.0
230
1.0
2
SOLID
70
1
71
0
91
1
92
3
72
0
73
1
93
3
10
10.5
20
92.5
10
11.6424
20
92.8179
10
11.2232
20
93.4398
97
0
75
0
76
1
98
0
0
TEXT
5
52
330
10
100
AcDbEntity
8
S-ANNO-NOTE
100
AcDbText
10
-51.4643
20
92.0
30
0.0
40
1.125
1
DBL. 2X4 TOP PLATE,
7
KERF
100
AcDbText
73
0
0
TEXT
5
53
330
10
100
AcDbEntity
8
S-ANNO-NOTE
100
AcDbText
10
-51.4643
20
90.2
30
0.0
40
1.125
1
INTERRUPTED AT BEAM
7
KERF
100
AcDbText
73
0
0
LWPOLYLINE
5
54
330
10
100
AcDbEntity
8
S-ANNO-NOTE
370
18
100
AcDbPolyline
90
3
70
0
10
-32.02
20
91.6625
10
-30.52
20
91.6625
10
-16.5734
20
96.0382
0
HATCH
5
55
330
10
100
AcDbEntity
8
S-ANNO-NOTE
100
AcDbHatch
10
0.0
20
0.0
30
0.0
210
0.0
220
0.0
230
1.0
2
SOLID
70
1
71
0
91
1
92
3
72
0
73
1
93
3
10
-15.5
20
96.375
10
-16.6857
20
96.396
10
-16.4611
20
95.6804
97
0
75
0
76
1
98
0
0
TEXT
5
56
330
10
100
AcDbEntity
8
S-ANNO-NOTE
100
AcDbText
10
-59.7679
20
88.325
30
0.0
40
1.125
1
OFFSET TOP PLATE END JOINTS
7
KERF
100
AcDbText
73
0
0
TEXT
5
57
330
10
100
AcDbEntity
8
S-ANNO-NOTE
100
AcDbText
10
-59.7679
20
86.525
30
0.0
40
1.125
1
24" MIN. AWAY FROM BEAM (IRC
7
KERF
100
AcDbText
73
0
0
TEXT
5
58
330
10
100
AcDbEntity
8
S-ANNO-NOTE
100
AcDbText
10
-59.7679
20
84.725
30
0.0
40
1.125
1
R602.3.2)*
7
KERF
100
AcDbText
73
0
0
LWPOLYLINE
5
59
330
10
100
AcDbEntity
8
S-ANNO-NOTE
370
18
100
AcDbPolyline
90
3
70
0
10
-32.02
20
87.0875
10
-30.52
20
87.0875
10
-16.4987
20
94.3572
0
HATCH
5
5A
330
10
100
AcDbEntity
8
S-ANNO-NOTE
100
AcDbHatch
10
0.0
20
0.0
30
0.0
210
0.0
220
0.0
230
1.0
2
SOLID
70
1
71
0
91
1
92
3
72
0
73
1
93
3
10
-15.5
20
94.875
10
-16.6713
20
94.6901
10
-16.3261
20
94.0243
97
0
75
0
76
1
98
0
0
TEXT
5
5B
330
10
100
AcDbEntity
8
S-ANNO-NOTE
100
AcDbText
10
-50.2321
20
75.5
30
0.0
40
1.125
1
(2) 2X4 JACK STUDS
7
KERF
100
AcDbText
73
0
0
LWPOLYLINE
5
5C
330
10
100
AcDbEntity
8
S-ANNO-NOTE
370
18
100
AcDbPolyline
90
3
70
0
10
-32.02
20
76.0625
10
-30.52
20
76.0625
10
-3.3515
20
81.7086
0
HATCH
5
5D
330
10
100
AcDbEntity
8
S-ANNO-NOTE
100
AcDbHatch
10
0.0
20
0.0
30
0.0
210
0.0
220
0.0
230
1.0
2
SOLID
70
1
71
0
91
1
92
3
72
0
73
1
93
3
10
-2.25
20
81.9375
10
-3.4278
20
82.0758
10
-3.2752
20
81.3414
97
0
75
0
76
1
98
0
0
TEXT
5
5E
330
10
100
AcDbEntity
8
S-ANNO-NOTE
100
AcDbText
10
-59.0714
20
80.975
30
0.0
40
1.125
1
(2) 2X4 KING STUDS, END NAIL
7
KERF
100
AcDbText
73
0
0
TEXT
5
5F
330
10
100
AcDbEntity
8
S-ANNO-NOTE
100
AcDbText
10
-59.0714
20
79.175
30
0.0
40
1.125
1
TO BEAM W/ (4) 16D (IRC
7
KERF
100
AcDbText
73
0
0
TEXT
5
60
330
10
100
AcDbEntity
8
S-ANNO-NOTE
100
AcDbText
10
-59.0714
20
77.375
30
0.0
40
1.125
1
R602.7.5)*
7
KERF
100
AcDbText
73
0
0
LWPOLYLINE
5
61
330
10
100
AcDbEntity
8
S-ANNO-NOTE
370
18
100
AcDbPolyline
90
3
70
0
10
-32.02
20
79.7375
10
-30.52
20
79.7375
10
-4.8534
20
84.843
0
HATCH
5
62
330
10
100
AcDbEntity
8
S-ANNO-NOTE
100
AcDbHatch
10
0.0
20
0.0
30
0.0
210
0.0
220
0.0
230
1.0
2
SOLID
70
1
71
0
91
1
92
3
72
0
73
1
93
3
10
-3.75
20
85.0625
10
-4.9265
20
85.2108
10
-4.7802
20
84.4752
97
0
75
0
76
1
98
0
0
TEXT
5
63
330
10
100
AcDbEntity
8
S-ANNO-NOTE
100
AcDbText
10
-52.2679
20
82.85
30
0.0
40
1.125
1
2X4 STUDS @ 16" O.C.
7
KERF
100
AcDbText
73
0
0
LWPOLYLINE
5
64
330
10
100
AcDbEntity
8
S-ANNO-NOTE
370
18
100
AcDbPolyline
90
3
70
0
10
-32.02
20
83.4125
10
-30.52
20
83.4125
10
-22.1085
20
84.8704
0
HATCH
5
65
330
10
100
AcDbEntity
8
S-ANNO-NOTE
100
AcDbHatch
10
0.0
20
0.0
30
0.0
210
0.0
220
0.0
230
1.0
2
SOLID
70
1
71
0
91
1
92
3
72
0
73
1
93
3
10
-21.0
20
85.0625
10
-22.1725
20
85.2399
10
-22.0444
20
84.5009
97
0
75
0
76
1
98
0
0
LWPOLYLINE
5
66
330
10
100
AcDbEntity
8
S-ANNO-DIMS
370
13
100
AcDbPolyline
90
2
70
0
10
-14.0
20
97.875
10
-14.0
20
101.875
0
LWPOLYLINE
5
67
330
10
100
AcDbEntity
8
S-ANNO-DIMS
370
13
100
AcDbPolyline
90
2
70
0
10
-3.0
20
97.875
10
-3.0
20
101.875
0
LWPOLYLINE
5
68
330
10
100
AcDbEntity
8
S-ANNO-DIMS
370
13
100
AcDbPolyline
90
2
70
0
10
-14.0
20
101.125
10
-3.0
20
101.125
0
LWPOLYLINE
5
69
330
10
100
AcDbEntity
8
S-DETL-CUT
370
35
100
AcDbPolyline
90
2
70
0
10
-14.2652
20
100.8598
10
-13.7348
20
101.3902
0
LWPOLYLINE
5
6A
330
10
100
AcDbEntity
8
S-DETL-CUT
370
35
100
AcDbPolyline
90
2
70
0
10
-3.2652
20
100.8598
10
-2.7348
20
101.3902
0
TEXT
5
6B
330
10
100
AcDbEntity
8
S-ANNO-DIMS
100
AcDbText
10
-8.5
20
101.6875
30
0.0
40
1.125
1
11"
7
KERF
72
1
11
-8.5
21
101.6875
31
0.0
100
AcDbText
73
0
0
LWPOLYLINE
5
6C
330
10
100
AcDbEntity
8
S-ANNO-DIMS
370
13
100
AcDbPolyline
90
2
70
0
10
-3.0
20
97.875
10
-3.0
20
101.875
0
LWPOLYLINE
5
6D
330
10
100
AcDbEntity
8
S-ANNO-DIMS
370
13
100
AcDbPolyline
90
2
70
0
10
8.0
20
97.875
10
8.0
20
101.875
0
LWPOLYLINE
5
6E
330
10
100
AcDbEntity
8
S-ANNO-DIMS
370
13
100
AcDbPolyline
90
2
70
0
10
-3.0
20
101.125
10
8.0
20
101.125
0
LWPOLYLINE
5
6F
330
10
100
AcDbEntity
8
S-DETL-CUT
370
35
100
AcDbPolyline
90
2
70
0
10
-3.2652
20
100.8598
10
-2.7348
20
101.3902
0
LWPOLYLINE
5
70
330
10
100
AcDbEntity
8
S-DETL-CUT
370
35
100
AcDbPolyline
90
2
70
0
10
7.7348
20
100.8598
10
8.2652
20
101.3902
0
TEXT
5
71
330
10
100
AcDbEntity
8
S-ANNO-DIMS
100
AcDbText
10
2.5
20
101.6875
30
0.0
40
1.125
1
11"
7
KERF
72
1
11
2.5
21
101.6875
31
0.0
100
AcDbText
73
0
0
LWPOLYLINE
5
72
330
10
100
AcDbEntity
8
S-ANNO-DIMS
370
13
100
AcDbPolyline
90
2
70
0
10
17.75
20
87.875
10
18.75
20
87.875
0
LWPOLYLINE
5
73
330
10
100
AcDbEntity
8
S-ANNO-DIMS
370
13
100
AcDbPolyline
90
2
70
0
10
17.75
20
97.125
10
18.75
20
97.125
0
LWPOLYLINE
5
74
330
10
100
AcDbEntity
8
S-ANNO-DIMS
370
13
100
AcDbPolyline
90
2
70
0
10
18.0
20
87.875
10
18.0
20
97.125
0
LWPOLYLINE
5
75
330
10
100
AcDbEntity
8
S-DETL-CUT
370
35
100
AcDbPolyline
90
2
70
0
10
18.2652
20
87.6098
10
17.7348
20
88.1402
0
LWPOLYLINE
5
76
330
10
100
AcDbEntity
8
S-DETL-CUT
370
35
100
AcDbPolyline
90
2
70
0
10
18.2652
20
96.8598
10
17.7348
20
97.3902
0
TEXT
5
77
330
10
100
AcDbEntity
8
S-ANNO-DIMS
100
AcDbText
10
17.4375
20
92.5
30
0.0
40
1.125
1
9 1/4"
50
90.0
7
KERF
72
1
11
17.4375
21
92.5
31
0.0
100
AcDbText
73
0
0
LWPOLYLINE
5
78
330
10
100
AcDbEntity
8
S-ANNO-TTLB
370
50
100
AcDbPolyline
90
2
70
1
10
-28.0
20
65.95
42
1.0
10
-20.5
20
65.95
42
1.0
0
LWPOLYLINE
5
79
330
10
100
AcDbEntity
8
S-ANNO-NOTE
370
18
100
AcDbPolyline
90
2
70
0
10
-28.0
20
65.95
10
-20.5
20
65.95
0
TEXT
5
7A
330
10
100
AcDbEntity
8
S-ANNO-TTLB
100
AcDbText
10
-24.25
20
67.825
30
0.0
40
1.875
1
1
7
KERF
72
1
11
-24.25
21
67.825
31
0.0
100
AcDbText
73
2
0
TEXT
5
7B
330
10
100
AcDbEntity
8
S-ANNO-TTLB
100
AcDbText
10
-24.25
20
64.075
30
0.0
40
0.8438
1
S-502
7
KERF
72
1
11
-24.25
21
64.075
31
0.0
100
AcDbText
73
2
0
TEXT
5
7C
330
10
100
AcDbEntity
8
S-ANNO-TTLB
100
AcDbText
10
-18.7
20
66.19
30
0.0
40
1.875
1
FLUSH BEAM AT TOP PLATE - ELEVATION
7
KERF
100
AcDbText
73
0
0
LWPOLYLINE
5
7D
330
10
100
AcDbEntity
8
S-ANNO-TTLB
370
50
100
AcDbPolyline
90
2
70
0
10
-18.7
20
65.35
10
38.2643
20
65.35
0
TEXT
5
7E
330
10
100
AcDbEntity
8
S-ANNO-TTLB
100
AcDbText
10
-18.7
20
63.505
30
0.0
40
1.125
1
SCALE: 1" = 1'-0"
7
KERF
100
AcDbText
73
0
0
TEXT
5
7F
330
10
100
AcDbEntity
8
S-ANNO-TTLB
100
AcDbText
10
-28.0
20
59.875
30
0.0
40
0.9563
1
* CODE REFERENCE NOT VERIFIED BY DESIGNER
7
KERF
100
AcDbText
73
0
0
ENDSEC
0
SECTION
2
OBJECTS
0
DICTIONARY
5
A
330
0
100
AcDbDictionary
281
1
3
ACAD_GROUP
350
B
0
DICTIONARY
5
B
330
A
100
AcDbDictionary
281
1
0
ENDSEC
0
EOF
