0
SECTION
2
HEADER
9
$ACADVER
1
AC1015
9
$DWGCODEPAGE
3
ANSI_1252
9
$INSBASE
10
0.0
20
0.0
30
0.0
9
$EXTMIN
10
-42.2085
20
66.65
30
0.0
9
$EXTMAX
10
43.7443
20
112.875
30
0.0
9
$LTSCALE
40
1.0
9
$TEXTSTYLE
7
KERF
9
$CLAYER
8
0
9
$CELTYPE
6
BYLAYER
9
$LWDISPLAY
290
1
9
$MEASUREMENT
70
0
9
$INSUNITS
70
1
9
$TDCREATE
40
2451545.0
9
$TDUPDATE
40
2451545.0
9
$HANDSEED
5
FFFF
0
ENDSEC
0
SECTION
2
TABLES
0
TABLE
2
VPORT
5
8
330
0
100
AcDbSymbolTable
70
0
0
ENDTAB
0
TABLE
2
LTYPE
5
4
330
0
100
AcDbSymbolTable
70
5
0
LTYPE
5
20
330
4
100
AcDbSymbolTableRecord
100
AcDbLinetypeTableRecord
2
BYBLOCK
70
0
3

72
65
73
0
40
0.0
0
LTYPE
5
21
330
4
100
AcDbSymbolTableRecord
100
AcDbLinetypeTableRecord
2
BYLAYER
70
0
3

72
65
73
0
40
0.0
0
LTYPE
5
22
330
4
100
AcDbSymbolTableRecord
100
AcDbLinetypeTableRecord
2
CONTINUOUS
70
0
3
Solid line
72
65
73
0
40
0.0
0
LTYPE
5
23
330
4
100
AcDbSymbolTableRecord
100
AcDbLinetypeTableRecord
2
DASHED
70
0
3
Kerf dashed
72
65
73
2
40
1.063
49
0.7087
74
0
49
-0.3543
74
0
0
LTYPE
5
24
330
4
100
AcDbSymbolTableRecord
100
AcDbLinetypeTableRecord
2
DASH_VAPOR
70
0
3
Kerf dashed
72
65
73
2
40
0.7972
49
0.5315
74
0
49
-0.2657
74
0
0
ENDTAB
0
TABLE
2
LAYER
5
2
330
0
100
AcDbSymbolTable
70
6
0
LAYER
5
25
330
2
100
AcDbSymbolTableRecord
100
AcDbLayerTableRecord
2
0
70
0
62
7
6
CONTINUOUS
0
LAYER
5
26
330
2
100
AcDbSymbolTableRecord
100
AcDbLayerTableRecord
2
S-DETL-CUT
70
0
62
7
6
CONTINUOUS
370
50
0
LAYER
5
27
330
2
100
AcDbSymbolTableRecord
100
AcDbLayerTableRecord
2
S-DETL-BYND
70
0
62
7
6
CONTINUOUS
370
25
0
LAYER
5
28
330
2
100
AcDbSymbolTableRecord
100
AcDbLayerTableRecord
2
S-DETL-STL
70
0
62
7
6
CONTINUOUS
370
35
0
LAYER
5
29
330
2
100
AcDbSymbolTableRecord
100
AcDbLayerTableRecord
2
S-ANNO-NOTE
70
0
62
7
6
CONTINUOUS
370
18
0
LAYER
5
2A
330
2
100
AcDbSymbolTableRecord
100
AcDbLayerTableRecord
2
S-ANNO-TTLB
70
0
62
7
6
CONTINUOUS
370
50
0
ENDTAB
0
TABLE
2
STYLE
5
3
330
0
100
AcDbSymbolTable
70
2
0
STYLE
5
2B
330
3
100
AcDbSymbolTableRecord
100
AcDbTextStyleTableRecord
2
STANDARD
70
0
40
0.0
41
1.0
50
0.0
71
0
42
1.0
3
txt
4

0
STYLE
5
2C
330
3
100
AcDbSymbolTableRecord
100
AcDbTextStyleTableRecord
2
KERF
70
0
40
0.0
41
1.0
50
0.0
71
0
42
1.0
3
romans.shx
4

0
ENDTAB
0
TABLE
2
VIEW
5
5
330
0
100
AcDbSymbolTable
70
0
0
ENDTAB
0
TABLE
2
UCS
5
6
330
0
100
AcDbSymbolTable
70
0
0
ENDTAB
0
TABLE
2
APPID
5
9
330
0
100
AcDbSymbolTable
70
1
0
APPID
5
2D
330
9
100
AcDbSymbolTableRecord
100
AcDbRegAppTableRecord
2
ACAD
70
0
0
ENDTAB
0
TABLE
2
BLOCK_RECORD
5
1
330
0
100
AcDbSymbolTable
70
2
0
BLOCK_RECORD
5
10
330
1
100
AcDbSymbolTableRecord
100
AcDbBlockTableRecord
2
*Model_Space
0
BLOCK_RECORD
5
11
330
1
100
AcDbSymbolTableRecord
100
AcDbBlockTableRecord
2
*Paper_Space
0
ENDTAB
0
ENDSEC
0
SECTION
2
BLOCKS
0
BLOCK
5
12
330
10
100
AcDbEntity
8
0
100
AcDbBlockBegin
2
*Model_Space
70
0
10
0.0
20
0.0
30
0.0
3
*Model_Space
1

0
ENDBLK
5
13
330
10
100
AcDbEntity
8
0
100
AcDbBlockEnd
0
BLOCK
5
14
330
11
100
AcDbEntity
8
0
100
AcDbBlockBegin
2
*Paper_Space
70
0
10
0.0
20
0.0
30
0.0
3
*Paper_Space
1

0
ENDBLK
5
15
330
11
100
AcDbEntity
8
0
100
AcDbBlockEnd
0
ENDSEC
0
SECTION
2
ENTITIES
0
LWPOLYLINE
5
2E
330
10
100
AcDbEntity
8
S-DETL-BYND
370
25
100
AcDbPolyline
90
3
70
0
10
20.7846
20
75.875
10
20.7846
20
85.125
10
-2.5981
20
98.625
0
LWPOLYLINE
5
2F
330
10
100
AcDbEntity
8
S-DETL-BYND
370
25
100
AcDbPolyline
90
2
70
0
10
23.8157
20
86.875
10
20.7846
20
85.125
0
LWPOLYLINE
5
30
330
10
100
AcDbEntity
8
S-DETL-BYND
370
25
100
AcDbPolyline
90
2
70
0
10
-1.299
20
88.625
10
-2.5981
20
89.375
0
LWPOLYLINE
5
31
330
10
100
AcDbEntity
8
S-DETL-BYND
370
25
100
AcDbPolyline
90
3
70
0
10
0.0
20
76.0
10
0.0
20
87.875
10
-1.299
20
88.625
0
LWPOLYLINE
5
32
330
10
100
AcDbEntity
8
S-DETL-BYND
370
25
100
AcDbPolyline
90
3
70
0
10
-2.5981
20
77.5
10
-2.5981
20
95.625
10
-3.8971
20
96.375
0
LWPOLYLINE
5
33
330
10
100
AcDbEntity
8
S-DETL-BYND
370
25
100
AcDbPolyline
90
2
70
0
10
-3.8971
20
96.375
10
-5.1962
20
97.125
0
LWPOLYLINE
5
34
330
10
100
AcDbEntity
8
S-DETL-BYND
370
25
100
AcDbPolyline
90
3
70
0
10
-17.537
20
86.125
10
-17.537
20
104.25
10
-18.8361
20
105.0
0
LWPOLYLINE
5
35
330
10
100
AcDbEntity
8
S-DETL-BYND
370
25
100
AcDbPolyline
90
2
70
0
10
-2.5981
20
95.625
10
-2.5981
20
97.125
0
LWPOLYLINE
5
36
330
10
100
AcDbEntity
8
S-DETL-BYND
370
25
100
AcDbPolyline
90
3
70
0
10
-2.5981
20
97.125
10
-2.5981
20
98.625
10
-24.2487
20
111.125
0
LWPOLYLINE
5
37
330
10
100
AcDbEntity
8
S-DETL-CUT
370
35
100
AcDbPolyline
90
3
70
0
10
-2.5981
20
98.625
10
-2.5981
20
89.375
10
20.7846
20
75.875
0
LWPOLYLINE
5
38
330
10
100
AcDbEntity
8
S-DETL-CUT
370
35
100
AcDbPolyline
90
3
70
0
10
23.8157
20
77.625
10
23.8157
20
86.875
10
0.433
20
100.375
0
LWPOLYLINE
5
39
330
10
100
AcDbEntity
8
S-DETL-CUT
370
35
100
AcDbPolyline
90
2
70
0
10
0.433
20
100.375
10
-0.4895
20
99.8424
0
LWPOLYLINE
5
3A
330
10
100
AcDbEntity
8
S-DETL-CUT
370
35
100
AcDbPolyline
90
2
70
0
10
-1.6238
20
99.1875
10
-2.5981
20
98.625
0
LWPOLYLINE
5
3B
330
10
100
AcDbEntity
8
S-DETL-CUT
370
35
100
AcDbPolyline
90
2
70
0
10
23.8157
20
77.625
10
20.7846
20
75.875
0
LWPOLYLINE
5
3C
330
10
100
AcDbEntity
8
S-DETL-CUT
370
35
100
AcDbPolyline
90
3
70
0
10
-2.5981
20
89.375
10
-2.5981
20
77.5
10
-1.299
20
76.75
0
LWPOLYLINE
5
3D
330
10
100
AcDbEntity
8
S-DETL-CUT
370
35
100
AcDbPolyline
90
3
70
0
10
-1.299
20
88.625
10
-1.299
20
76.75
10
0.0
20
76.0
0
LWPOLYLINE
5
3E
330
10
100
AcDbEntity
8
S-DETL-CUT
370
35
100
AcDbPolyline
90
2
70
0
10
3.0311
20
77.75
10
3.0311
20
86.125
0
LWPOLYLINE
5
3F
330
10
100
AcDbEntity
8
S-DETL-CUT
370
35
100
AcDbPolyline
90
2
70
0
10
3.0311
20
77.75
10
0.0
20
76.0
0
LWPOLYLINE
5
40
330
10
100
AcDbEntity
8
S-DETL-CUT
370
35
100
AcDbPolyline
90
3
70
0
10
-3.8971
20
96.375
10
-3.8971
20
78.25
10
-2.5981
20
77.5
0
LWPOLYLINE
5
41
330
10
100
AcDbEntity
8
S-DETL-CUT
370
35
100
AcDbPolyline
90
3
70
0
10
-5.1962
20
97.125
10
-5.1962
20
79.0
10
-3.8971
20
78.25
0
LWPOLYLINE
5
42
330
10
100
AcDbEntity
8
S-DETL-CUT
370
35
100
AcDbPolyline
90
3
70
0
10
-18.8361
20
105.0
10
-18.8361
20
86.875
10
-17.537
20
86.125
0
LWPOLYLINE
5
43
330
10
100
AcDbEntity
8
S-DETL-CUT
370
35
100
AcDbPolyline
90
2
70
0
10
-14.5059
20
87.875
10
-14.5059
20
102.5
0
LWPOLYLINE
5
44
330
10
100
AcDbEntity
8
S-DETL-CUT
370
35
100
AcDbPolyline
90
2
70
0
10
-14.5059
20
87.875
10
-17.537
20
86.125
0
LWPOLYLINE
5
45
330
10
100
AcDbEntity
8
S-DETL-CUT
370
35
100
AcDbPolyline
90
3
70
0
10
-24.2487
20
109.625
10
-24.2487
20
108.125
10
-2.5981
20
95.625
0
LWPOLYLINE
5
46
330
10
100
AcDbEntity
8
S-DETL-CUT
370
35
100
AcDbPolyline
90
3
70
0
10
-24.2487
20
111.125
10
-24.2487
20
109.625
10
-2.5981
20
97.125
0
LWPOLYLINE
5
47
330
10
100
AcDbEntity
8
S-DETL-CUT
370
35
100
AcDbPolyline
90
2
70
0
10
0.433
20
100.375
10
-21.2176
20
112.875
0
LWPOLYLINE
5
48
330
10
100
AcDbEntity
8
S-DETL-CUT
370
35
100
AcDbPolyline
90
2
70
0
10
-21.2176
20
112.875
10
-24.2487
20
111.125
0
LWPOLYLINE
5
49
330
10
100
AcDbEntity
8
S-DETL-STL
370
35
100
AcDbPolyline
90
3
70
0
10
-11.1501
20
104.6875
10
7.9025
20
93.6875
10
7.9025
20
93.7473
0
LWPOLYLINE
5
4A
330
10
100
AcDbEntity
8
S-DETL-STL
370
35
100
AcDbPolyline
90
2
70
0
10
8.985
20
94.3125
10
8.985
20
94.3723
0
LWPOLYLINE
5
4B
330
10
100
AcDbEntity
8
S-DETL-STL
370
35
100
AcDbPolyline
90
2
70
0
10
7.9025
20
93.7473
10
-11.1501
20
104.7473
0
LWPOLYLINE
5
4C
330
10
100
AcDbEntity
8
S-DETL-STL
370
35
100
AcDbPolyline
90
2
70
0
10
8.985
20
94.3723
10
-10.0675
20
105.3723
0
LWPOLYLINE
5
4D
330
10
100
AcDbEntity
8
S-DETL-STL
370
35
100
AcDbPolyline
90
2
70
0
10
-11.1501
20
104.7473
10
-11.1501
20
104.6875
0
LWPOLYLINE
5
4E
330
10
100
AcDbEntity
8
S-DETL-STL
370
35
100
AcDbPolyline
90
2
70
0
10
8.985
20
94.3125
10
7.9025
20
93.6875
0
LWPOLYLINE
5
4F
330
10
100
AcDbEntity
8
S-DETL-STL
370
35
100
AcDbPolyline
90
2
70
0
10
8.985
20
94.3723
10
7.9025
20
93.7473
0
LWPOLYLINE
5
50
330
10
100
AcDbEntity
8
S-DETL-STL
370
35
100
AcDbPolyline
90
2
70
0
10
-10.0675
20
105.3723
10
-11.1501
20
104.7473
0
TEXT
5
51
330
10
100
AcDbEntity
8
S-ANNO-NOTE
100
AcDbText
10
-42.2085
20
99.8129
30
0.0
40
0.8438
1
CS16 STRAP ACROSS
7
KERF
100
AcDbText
73
0
0
TEXT
5
52
330
10
100
AcDbEntity
8
S-ANNO-NOTE
100
AcDbText
10
-42.2085
20
98.4629
30
0.0
40
0.8438
1
PLATE-TO-BEAM JOINT
7
KERF
100
AcDbText
73
0
0
LWPOLYLINE
5
53
330
10
100
AcDbEntity
8
S-ANNO-NOTE
370
18
100
AcDbPolyline
90
3
70
0
10
-27.2637
20
99.5598
10
-26.1387
20
99.5598
10
-1.9263
20
99.5598
0
HATCH
5
54
330
10
100
AcDbEntity
8
S-ANNO-NOTE
100
AcDbHatch
10
0.0
20
0.0
30
0.0
210
0.0
220
0.0
230
1.0
2
SOLID
70
1
71
0
91
1
92
3
72
0
73
1
93
3
10
-1.0825
20
99.5598
10
-1.9263
20
99.8411
10
-1.9263
20
99.2786
97
0
75
0
76
1
98
0
0
TEXT
5
55
330
10
100
AcDbEntity
8
S-ANNO-NOTE
100
AcDbText
10
27.1907
20
86.8281
30
0.0
40
0.8438
1
(2) 1 3/4" X 9 1/4" LVL
7
KERF
100
AcDbText
73
0
0
LWPOLYLINE
5
56
330
10
100
AcDbEntity
8
S-ANNO-NOTE
370
18
100
AcDbPolyline
90
3
70
0
10
26.8307
20
87.25
10
25.7057
20
87.25
10
9.937
20
87.25
0
HATCH
5
57
330
10
100
AcDbEntity
8
S-ANNO-NOTE
100
AcDbHatch
10
0.0
20
0.0
30
0.0
210
0.0
220
0.0
230
1.0
2
SOLID
70
1
71
0
91
1
92
3
72
0
73
1
93
3
10
9.0933
20
87.25
10
9.937
20
86.9687
10
9.937
20
87.5312
97
0
75
0
76
1
98
0
0
TEXT
5
58
330
10
100
AcDbEntity
8
S-ANNO-NOTE
100
AcDbText
10
-37.7085
20
105.3281
30
0.0
40
0.8438
1
DBL. TOP PLATE
7
KERF
100
AcDbText
73
0
0
LWPOLYLINE
5
59
330
10
100
AcDbEntity
8
S-ANNO-NOTE
370
18
100
AcDbPolyline
90
3
70
0
10
-27.2637
20
105.75
10
-26.1387
20
105.75
10
-12.7516
20
105.75
0
HATCH
5
5A
330
10
100
AcDbEntity
8
S-ANNO-NOTE
100
AcDbHatch
10
0.0
20
0.0
30
0.0
210
0.0
220
0.0
230
1.0
2
SOLID
70
1
71
0
91
1
92
3
72
0
73
1
93
3
10
-11.9078
20
105.75
10
-12.7516
20
106.0313
10
-12.7516
20
105.4688
97
0
75
0
76
1
98
0
0
LWPOLYLINE
5
5B
330
10
100
AcDbEntity
8
S-ANNO-TTLB
370
50
100
AcDbPolyline
90
2
70
1
10
-24.2487
20
69.4625
42
1.0
10
-18.6237
20
69.4625
42
1.0
0
LWPOLYLINE
5
5C
330
10
100
AcDbEntity
8
S-ANNO-NOTE
370
18
100
AcDbPolyline
90
2
70
0
10
-24.2487
20
69.4625
10
-18.6237
20
69.4625
0
TEXT
5
5D
330
10
100
AcDbEntity
8
S-ANNO-TTLB
100
AcDbText
10
-21.4362
20
70.8688
30
0.0
40
1.4063
1
2
7
KERF
72
1
11
-21.4362
21
70.8688
31
0.0
100
AcDbText
73
2
0
TEXT
5
5E
330
10
100
AcDbEntity
8
S-ANNO-TTLB
100
AcDbText
10
-21.4362
20
68.0563
30
0.0
40
0.6328
1
S-502
7
KERF
72
1
11
-21.4362
21
68.0563
31
0.0
100
AcDbText
73
2
0
TEXT
5
5F
330
10
100
AcDbEntity
8
S-ANNO-TTLB
100
AcDbText
10
-17.2737
20
69.6425
30
0.0
40
1.4063
1
FLUSH BEAM AT TOP PLATE - ISO
7
KERF
100
AcDbText
73
0
0
LWPOLYLINE
5
60
330
10
100
AcDbEntity
8
S-ANNO-TTLB
370
50
100
AcDbPolyline
90
2
70
0
10
-17.2737
20
69.0125
10
18.1504
20
69.0125
0
TEXT
5
61
330
10
100
AcDbEntity
8
S-ANNO-TTLB
100
AcDbText
10
-17.2737
20
67.6288
30
0.0
40
0.8438
1
SCALE: NTS
7
KERF
100
AcDbText
73
0
0
ENDSEC
0
SECTION
2
OBJECTS
0
DICTIONARY
5
A
330
0
100
AcDbDictionary
281
1
3
ACAD_GROUP
350
B
0
DICTIONARY
5
B
330
A
100
AcDbDictionary
281
1
0
ENDSEC
0
EOF
