0
SECTION
2
HEADER
9
$ACADVER
1
AC1015
9
$HANDSEED
5
15B
9
$INSUNITS
70
1
9
$MEASUREMENT
70
0
9
$LTSCALE
40
1
9
$EXTMIN
10
-47.875
20
-40.625
30
0
9
$EXTMAX
10
40.5
20
8.357143
30
0
0
ENDSEC
0
SECTION
2
CLASSES
0
ENDSEC
0
SECTION
2
TABLES
0
TABLE
2
VPORT
5
8
330
0
100
AcDbSymbolTable
70
1
0
VPORT
5
30
330
8
100
AcDbSymbolTableRecord
100
AcDbViewportTableRecord
2
*ACTIVE
70
0
10
0
20
0
11
1
21
1
12
-3.6875
22
-16.133929
13
0
23
0
14
10
24
10
15
10
25
10
16
0
26
0
36
1
17
0
27
0
37
0
40
53.880357
41
1.804229
42
50
43
0
44
0
50
0
51
0
71
0
72
100
73
1
74
3
75
0
76
0
77
0
78
0
0
ENDTAB
0
TABLE
2
LTYPE
5
5
330
0
100
AcDbSymbolTable
70
5
0
LTYPE
5
14
330
5
100
AcDbSymbolTableRecord
100
AcDbLinetypeTableRecord
2
BYBLOCK
70
0
3

72
65
73
0
40
0
0
LTYPE
5
15
330
5
100
AcDbSymbolTableRecord
100
AcDbLinetypeTableRecord
2
BYLAYER
70
0
3

72
65
73
0
40
0
0
LTYPE
5
16
330
5
100
AcDbSymbolTableRecord
100
AcDbLinetypeTableRecord
2
CONTINUOUS
70
0
3
Solid line
72
65
73
0
40
0
0
LTYPE
5
40
330
5
100
AcDbSymbolTableRecord
100
AcDbLinetypeTableRecord
2
DASHED
70
0
3
DASHED
72
65
73
2
40
1.417323
49
0.944882
74
0
49
-0.472441
74
0
0
LTYPE
5
41
330
5
100
AcDbSymbolTableRecord
100
AcDbLinetypeTableRecord
2
KERF_VAPOR
70
0
3
KERF_VAPOR
72
65
73
2
40
1.062992
49
0.708661
74
0
49
-0.354331
74
0
0
ENDTAB
0
TABLE
2
LAYER
5
2
330
0
100
AcDbSymbolTable
70
8
0
LAYER
5
10
330
2
100
AcDbSymbolTableRecord
100
AcDbLayerTableRecord
2
0
70
0
62
7
6
CONTINUOUS
370
-3
0
LAYER
5
50
330
2
100
AcDbSymbolTableRecord
100
AcDbLayerTableRecord
2
S-DETL-PATT
70
0
62
7
6
CONTINUOUS
370
9
0
LAYER
5
51
330
2
100
AcDbSymbolTableRecord
100
AcDbLayerTableRecord
2
S-DETL-CUT
70
0
62
7
6
CONTINUOUS
370
50
0
LAYER
5
52
330
2
100
AcDbSymbolTableRecord
100
AcDbLayerTableRecord
2
S-DETL-STL
70
0
62
7
6
CONTINUOUS
370
35
0
LAYER
5
53
330
2
100
AcDbSymbolTableRecord
100
AcDbLayerTableRecord
2
S-DETL-BRKL
70
0
62
7
6
CONTINUOUS
370
18
0
LAYER
5
54
330
2
100
AcDbSymbolTableRecord
100
AcDbLayerTableRecord
2
S-ANNO-NOTE
70
0
62
7
6
CONTINUOUS
370
18
0
LAYER
5
55
330
2
100
AcDbSymbolTableRecord
100
AcDbLayerTableRecord
2
S-ANNO-DIMS
70
0
62
7
6
CONTINUOUS
370
13
0
LAYER
5
56
330
2
100
AcDbSymbolTableRecord
100
AcDbLayerTableRecord
2
S-ANNO-TTLB
70
0
62
7
6
CONTINUOUS
370
50
0
ENDTAB
0
TABLE
2
STYLE
5
3
330
0
100
AcDbSymbolTable
70
2
0
STYLE
5
11
330
3
100
AcDbSymbolTableRecord
100
AcDbTextStyleTableRecord
2
STANDARD
70
0
40
0
41
1
50
0
71
0
42
0.2
3
txt
4

0
STYLE
5
12
330
3
100
AcDbSymbolTableRecord
100
AcDbTextStyleTableRecord
2
KERF
70
0
40
0
41
1
50
0
71
0
42
0.2
3
romans.shx
4

0
ENDTAB
0
TABLE
2
VIEW
5
6
330
0
100
AcDbSymbolTable
70
0
0
ENDTAB
0
TABLE
2
UCS
5
7
330
0
100
AcDbSymbolTable
70
0
0
ENDTAB
0
TABLE
2
APPID
5
9
330
0
100
AcDbSymbolTable
70
1
0
APPID
5
13
330
9
100
AcDbSymbolTableRecord
100
AcDbRegAppTableRecord
2
ACAD
70
0
0
ENDTAB
0
TABLE
2
DIMSTYLE
5
A
330
0
100
AcDbSymbolTable
70
1
100
AcDbDimStyleTable
71
1
0
DIMSTYLE
105
17
330
A
100
AcDbSymbolTableRecord
100
AcDbDimStyleTableRecord
2
STANDARD
70
0
340
17
0
ENDTAB
0
TABLE
2
BLOCK_RECORD
5
1
330
0
100
AcDbSymbolTable
70
2
0
BLOCK_RECORD
5
1F
330
1
100
AcDbSymbolTableRecord
100
AcDbBlockTableRecord
2
*Model_Space
70
0
280
1
281
0
0
BLOCK_RECORD
5
1B
330
1
100
AcDbSymbolTableRecord
100
AcDbBlockTableRecord
2
*Paper_Space
70
0
280
1
281
0
0
ENDTAB
0
ENDSEC
0
SECTION
2
BLOCKS
0
BLOCK
5
20
330
1F
100
AcDbEntity
8
0
100
AcDbBlockBegin
2
*Model_Space
70
0
10
0
20
0
30
0
3
*Model_Space
1

0
ENDBLK
5
21
330
1F
100
AcDbEntity
8
0
100
AcDbBlockEnd
0
BLOCK
5
22
330
1B
100
AcDbEntity
67
1
8
0
100
AcDbBlockBegin
2
*Paper_Space
70
0
10
0
20
0
30
0
3
*Paper_Space
1

0
ENDBLK
5
23
330
1B
100
AcDbEntity
67
1
8
0
100
AcDbBlockEnd
0
ENDSEC
0
SECTION
2
ENTITIES
0
HATCH
5
100
330
1F
100
AcDbEntity
8
S-DETL-PATT
370
9
100
AcDbHatch
10
0
20
0
30
0
210
0
220
0
230
1
2
KERF-CONC
70
0
71
0
91
4
92
3
72
0
73
1
93
37
10
12
20
-18
10
26
20
-4
10
36
20
-4
10
36
20
-2.75
10
35.904329
20
-2.73097
10
35.823223
20
-2.676777
10
35.76903
20
-2.595671
10
35.75
20
-2.5
10
35.76903
20
-2.404329
10
35.823223
20
-2.323223
10
35.904329
20
-2.26903
10
36
20
-2.25
10
20
20
-2.25
10
20.095671
20
-2.26903
10
20.176777
20
-2.323223
10
20.23097
20
-2.404329
10
20.25
20
-2.5
10
20.23097
20
-2.595671
10
20.176777
20
-2.676777
10
20.095671
20
-2.73097
10
20
20
-2.75
10
19.904329
20
-2.73097
10
19.823223
20
-2.676777
10
19.76903
20
-2.595671
10
19.75
20
-2.5
10
19.76903
20
-2.404329
10
19.823223
20
-2.323223
10
19.904329
20
-2.26903
10
20
20
-2.25
10
14
20
-2.25
10
14
20
-1.75
10
36
20
-1.75
10
36
20
0
10
8
20
0
10
8
20
-1.5
10
0
20
-1.625
10
0
20
-18
97
0
92
2
72
0
73
1
93
18
10
3.606154
20
-14.580619
10
3.625
20
-14.6875
10
3.606154
20
-14.794381
10
3.551889
20
-14.888371
10
3.46875
20
-14.958133
10
3.366765
20
-14.995252
10
3.258235
20
-14.995252
10
3.15625
20
-14.958133
10
3.073111
20
-14.888371
10
3.018846
20
-14.794381
10
3
20
-14.6875
10
3.018846
20
-14.580619
10
3.073111
20
-14.486629
10
3.15625
20
-14.416867
10
3.258235
20
-14.379748
10
3.366765
20
-14.379748
10
3.46875
20
-14.416867
10
3.551889
20
-14.486629
97
0
92
2
72
0
73
1
93
18
10
8.981154
20
-14.580619
10
9
20
-14.6875
10
8.981154
20
-14.794381
10
8.926889
20
-14.888371
10
8.84375
20
-14.958133
10
8.741765
20
-14.995252
10
8.633235
20
-14.995252
10
8.53125
20
-14.958133
10
8.448111
20
-14.888371
10
8.393846
20
-14.794381
10
8.375
20
-14.6875
10
8.393846
20
-14.580619
10
8.448111
20
-14.486629
10
8.53125
20
-14.416867
10
8.633235
20
-14.379748
10
8.741765
20
-14.379748
10
8.84375
20
-14.416867
10
8.926889
20
-14.486629
97
0
92
2
72
0
73
1
93
16
10
6.23097
20
-4.404329
10
6.25
20
-4.5
10
6.23097
20
-4.595671
10
6.176777
20
-4.676777
10
6.095671
20
-4.73097
10
6
20
-4.75
10
5.904329
20
-4.73097
10
5.823223
20
-4.676777
10
5.76903
20
-4.595671
10
5.75
20
-4.5
10
5.76903
20
-4.404329
10
5.823223
20
-4.323223
10
5.904329
20
-4.26903
10
6
20
-4.25
10
6.095671
20
-4.26903
10
6.176777
20
-4.323223
97
0
75
0
76
1
52
0
41
1
77
0
78
5
53
0
43
0
44
0
45
1.1244
46
0.9732
79
2
49
0
49
-2.25
53
0
43
0.564
44
0.48
45
1.1244
46
0.9732
79
2
49
0
49
-2.25
53
60
43
1.32
44
0.24
45
3
46
2.598
79
2
49
0.42
49
-5.58
53
180
43
1.74
44
0.6
45
3
46
2.598
79
2
49
0.42
49
-5.58
53
300
43
1.32
44
0.6
45
3
46
2.598
79
2
49
0.42
49
-5.58
98
0
0
HATCH
5
101
330
1F
100
AcDbEntity
8
S-DETL-PATT
370
9
100
AcDbHatch
10
0
20
0
30
0
210
0
220
0
230
1
2
KERF-GRAVEL
70
0
71
0
91
1
92
3
72
0
73
1
93
4
10
36
20
-4
10
26
20
-4
10
22
20
-8
10
36
20
-8
97
0
75
0
76
1
52
0
41
1
77
0
78
7
53
0
43
0
44
0
45
1.5
46
2.25
79
2
49
0.54
49
-3.96
53
72
43
0.54
44
0
45
1.5
46
2.25
79
2
49
0.54
49
-3.96
53
144
43
0.708
44
0.516
45
1.5
46
2.25
79
2
49
0.54
49
-3.96
53
216
43
0.264
44
0.828
45
1.5
46
2.25
79
2
49
0.54
49
-3.96
53
288
43
-0.168
44
0.516
45
1.5
46
2.25
79
2
49
0.54
49
-3.96
53
30
43
2.28
44
1.2
45
1.5
46
2.25
79
2
49
0.36
49
-4.14
53
150
43
2.28
44
1.2
45
1.5
46
2.25
79
2
49
0.36
49
-4.14
98
0
0
HATCH
5
102
330
1F
100
AcDbEntity
8
S-DETL-PATT
370
9
100
AcDbHatch
10
0
20
0
30
0
210
0
220
0
230
1
2
EARTH
70
0
71
0
91
1
92
3
72
0
73
1
93
8
10
36
20
-8
10
22
20
-8
10
12
20
-18
10
0
20
-18
10
0
20
-6
10
-16
20
-6
10
-16
20
-26
10
36
20
-26
97
0
75
0
76
1
52
45
41
1
77
0
78
6
53
0
43
0
44
0
45
3
46
3
79
2
49
3
49
-3
53
0
43
0
44
1.125
45
3
46
3
79
2
49
3
49
-3
53
0
43
0
44
2.25
45
3
46
3
79
2
49
3
49
-3
53
90
43
0.375
44
2.625
45
3
46
3
79
2
49
3
49
-3
53
90
43
1.5
44
2.625
45
3
46
3
79
2
49
3
49
-3
53
90
43
2.625
44
2.625
45
3
46
3
79
2
49
3
49
-3
98
0
0
HATCH
5
103
330
1F
100
AcDbEntity
8
S-DETL-STL
370
50
100
AcDbHatch
10
0
20
0
30
0
210
0
220
0
230
1
2
SOLID
70
1
71
0
91
1
92
3
72
1
73
1
93
2
10
3.625
20
-14.6875
42
1
10
3
20
-14.6875
42
1
97
0
75
0
76
1
98
0
0
HATCH
5
104
330
1F
100
AcDbEntity
8
S-DETL-STL
370
50
100
AcDbHatch
10
0
20
0
30
0
210
0
220
0
230
1
2
SOLID
70
1
71
0
91
1
92
3
72
1
73
1
93
2
10
9
20
-14.6875
42
1
10
8.375
20
-14.6875
42
1
97
0
75
0
76
1
98
0
0
HATCH
5
105
330
1F
100
AcDbEntity
8
S-DETL-STL
370
50
100
AcDbHatch
10
0
20
0
30
0
210
0
220
0
230
1
2
SOLID
70
1
71
0
91
1
92
3
72
1
73
1
93
2
10
6.25
20
-4.5
42
1
10
5.75
20
-4.5
42
1
97
0
75
0
76
1
98
0
0
HATCH
5
106
330
1F
100
AcDbEntity
8
S-DETL-STL
370
50
100
AcDbHatch
10
0
20
0
30
0
210
0
220
0
230
1
2
SOLID
70
1
71
0
91
1
92
3
72
0
73
1
93
4
10
14
20
-2.25
10
36
20
-2.25
10
36
20
-1.75
10
14
20
-1.75
97
0
75
0
76
1
98
0
0
HATCH
5
107
330
1F
100
AcDbEntity
8
S-DETL-STL
370
50
100
AcDbHatch
10
0
20
0
30
0
210
0
220
0
230
1
2
SOLID
70
1
71
0
91
1
92
3
72
1
73
1
93
2
10
20.25
20
-2.5
42
1
10
19.75
20
-2.5
42
1
97
0
75
0
76
1
98
0
0
HATCH
5
108
330
1F
100
AcDbEntity
8
S-DETL-STL
370
50
100
AcDbHatch
10
0
20
0
30
0
210
0
220
0
230
1
2
SOLID
70
1
71
0
91
1
92
3
72
0
73
1
93
9
10
36
20
-2.25
10
35.904329
20
-2.26903
10
35.823223
20
-2.323223
10
35.76903
20
-2.404329
10
35.75
20
-2.5
10
35.76903
20
-2.595671
10
35.823223
20
-2.676777
10
35.904329
20
-2.73097
10
36
20
-2.75
97
0
75
0
76
1
98
0
0
LWPOLYLINE
5
109
330
1F
100
AcDbEntity
8
S-DETL-STL
6
KERF_VAPOR
370
35
100
AcDbPolyline
90
3
70
0
43
0
10
36
20
-4.36
10
26.149117
20
-4.36
10
12.254558
20
-18.254558
0
LWPOLYLINE
5
10A
330
1F
100
AcDbEntity
8
S-DETL-CUT
370
50
100
AcDbPolyline
90
8
70
0
43
0
10
36
20
0
10
8
20
0
10
8
20
-1.5
10
0
20
-1.625
10
0
20
-18
10
12
20
-18
10
26
20
-4
10
36
20
-4
0
LWPOLYLINE
5
10B
330
1F
100
AcDbEntity
8
S-DETL-CUT
370
50
100
AcDbPolyline
90
2
70
0
43
0
10
36
20
-8
10
22
20
-8
0
LWPOLYLINE
5
10C
330
1F
100
AcDbEntity
8
S-DETL-CUT
370
50
100
AcDbPolyline
90
2
70
0
43
0
10
0
20
-6
10
-16
20
-6
0
LWPOLYLINE
5
10D
330
1F
100
AcDbEntity
8
S-DETL-CUT
370
50
100
AcDbPolyline
90
4
70
1
43
0
10
0.9375
20
-1.5
10
7.5
20
-1.5
10
7.5
20
-0.25
10
0.9375
20
-0.25
0
LWPOLYLINE
5
10E
330
1F
100
AcDbEntity
8
S-DETL-STL
370
35
100
AcDbPolyline
90
2
70
1
43
0
10
3.625
20
-14.6875
42
1
10
3
20
-14.6875
42
1
0
LWPOLYLINE
5
10F
330
1F
100
AcDbEntity
8
S-DETL-STL
370
35
100
AcDbPolyline
90
2
70
1
43
0
10
9
20
-14.6875
42
1
10
8.375
20
-14.6875
42
1
0
LWPOLYLINE
5
110
330
1F
100
AcDbEntity
8
S-DETL-STL
370
35
100
AcDbPolyline
90
2
70
1
43
0
10
6.25
20
-4.5
42
1
10
5.75
20
-4.5
42
1
0
LWPOLYLINE
5
111
330
1F
100
AcDbEntity
8
S-DETL-STL
370
35
100
AcDbPolyline
90
4
70
0
43
0
10
36
20
-2.25
10
14
20
-2.25
10
14
20
-1.75
10
36
20
-1.75
0
LWPOLYLINE
5
112
330
1F
100
AcDbEntity
8
S-DETL-STL
370
35
100
AcDbPolyline
90
2
70
1
43
0
10
20.25
20
-2.5
42
1
10
19.75
20
-2.5
42
1
0
LWPOLYLINE
5
113
330
1F
100
AcDbEntity
8
S-DETL-STL
370
35
100
AcDbPolyline
90
3
70
0
43
0
10
36
20
-2.25
42
0.414214
10
35.75
20
-2.5
42
0.414214
10
36
20
-2.75
0
LWPOLYLINE
5
114
330
1F
100
AcDbEntity
8
S-DETL-BRKL
370
18
100
AcDbPolyline
90
6
70
0
43
0
10
36
20
-4.75
10
36
20
-3.925
10
37.1
20
-2.77
10
34.9
20
-1.23
10
36
20
-0.075
10
36
20
0.75
0
TEXT
5
115
330
1F
100
AcDbEntity
8
S-ANNO-NOTE
370
18
100
AcDbText
10
40.5
20
-1.6625
30
0
40
1.125
1
4" CONC. SLAB W/ #4 @ 16"
7
KERF
100
AcDbText
0
TEXT
5
116
330
1F
100
AcDbEntity
8
S-ANNO-NOTE
370
18
100
AcDbText
10
40.5
20
-3.4625
30
0
40
1.125
1
O.C. EA. WAY (IRC R506.1)*
7
KERF
100
AcDbText
0
LWPOLYLINE
5
117
330
1F
100
AcDbEntity
8
S-ANNO-NOTE
370
18
100
AcDbPolyline
90
3
70
0
43
0
10
40.02
20
-2
10
38.52
20
-2
10
26.125
20
-2
0
HATCH
5
118
330
1F
100
AcDbEntity
8
S-ANNO-NOTE
370
50
100
AcDbHatch
10
0
20
0
30
0
210
0
220
0
230
1
2
SOLID
70
1
71
0
91
1
92
3
72
0
73
1
93
3
10
25
20
-2
10
26.125
20
-2.375
10
26.125
20
-1.625
97
0
75
0
76
1
98
0
0
TEXT
5
119
330
1F
100
AcDbEntity
8
S-ANNO-NOTE
370
18
100
AcDbText
10
40.5
20
-9.448611
30
0
40
1.125
1
10 MIL VAPOR RETARDER, LAP
7
KERF
100
AcDbText
0
TEXT
5
11A
330
1F
100
AcDbEntity
8
S-ANNO-NOTE
370
18
100
AcDbText
10
40.5
20
-11.248611
30
0
40
1.125
1
6" MIN. (IRC R506.2.3)*
7
KERF
100
AcDbText
0
LWPOLYLINE
5
11B
330
1F
100
AcDbEntity
8
S-ANNO-NOTE
370
18
100
AcDbPolyline
90
3
70
0
43
0
10
40.02
20
-9.786111
10
38.52
20
-9.786111
10
22.481293
20
-8.742654
0
HATCH
5
11C
330
1F
100
AcDbEntity
8
S-ANNO-NOTE
370
50
100
AcDbHatch
10
0
20
0
30
0
210
0
220
0
230
1
2
SOLID
70
1
71
0
91
1
92
3
72
0
73
1
93
3
10
21.358667
20
-8.669618
10
22.456948
20
-9.116863
10
22.505639
20
-8.368445
97
0
75
0
76
1
98
0
0
TEXT
5
11D
330
1F
100
AcDbEntity
8
S-ANNO-NOTE
370
18
100
AcDbText
10
40.5
20
-5.773611
30
0
40
1.125
1
4" COMPACTED GRAVEL BASE
7
KERF
100
AcDbText
0
TEXT
5
11E
330
1F
100
AcDbEntity
8
S-ANNO-NOTE
370
18
100
AcDbText
10
40.5
20
-7.573611
30
0
40
1.125
1
(IRC R506.2.2)*
7
KERF
100
AcDbText
0
LWPOLYLINE
5
11F
330
1F
100
AcDbEntity
8
S-ANNO-NOTE
370
18
100
AcDbPolyline
90
3
70
0
43
0
10
40.02
20
-6.111111
10
38.52
20
-6.111111
10
31.069444
20
-6.111111
0
HATCH
5
120
330
1F
100
AcDbEntity
8
S-ANNO-NOTE
370
50
100
AcDbHatch
10
0
20
0
30
0
210
0
220
0
230
1
2
SOLID
70
1
71
0
91
1
92
3
72
0
73
1
93
3
10
29.944444
20
-6.111111
10
31.069444
20
-6.486111
10
31.069444
20
-5.736111
97
0
75
0
76
1
98
0
0
TEXT
5
121
330
1F
100
AcDbEntity
8
S-ANNO-NOTE
370
18
100
AcDbText
10
40.5
20
-13.123611
30
0
40
1.125
1
MONOLITHIC TURNED-DOWN FTG.
7
KERF
100
AcDbText
0
TEXT
5
122
330
1F
100
AcDbEntity
8
S-ANNO-NOTE
370
18
100
AcDbText
10
40.5
20
-14.923611
30
0
40
1.125
1
12" W X 18" DEEP BELOW T.O.
7
KERF
100
AcDbText
0
TEXT
5
123
330
1F
100
AcDbEntity
8
S-ANNO-NOTE
370
18
100
AcDbText
10
40.5
20
-16.723611
30
0
40
1.125
1
SLAB, BOTT. 12" MIN. BELOW
7
KERF
100
AcDbText
0
TEXT
5
124
330
1F
100
AcDbEntity
8
S-ANNO-NOTE
370
18
100
AcDbText
10
40.5
20
-18.523611
30
0
40
1.125
1
UNDISTURBED GRADE & BELOW
7
KERF
100
AcDbText
0
TEXT
5
125
330
1F
100
AcDbEntity
8
S-ANNO-NOTE
370
18
100
AcDbText
10
40.5
20
-20.323611
30
0
40
1.125
1
FROST DEPTH (IRC R403.1.4)*
7
KERF
100
AcDbText
0
LWPOLYLINE
5
126
330
1F
100
AcDbEntity
8
S-ANNO-NOTE
370
18
100
AcDbPolyline
90
3
70
0
43
0
10
40.02
20
-16.161111
10
38.52
20
-16.161111
10
14.106466
20
-7.848309
0
HATCH
5
127
330
1F
100
AcDbEntity
8
S-ANNO-NOTE
370
50
100
AcDbHatch
10
0
20
0
30
0
210
0
220
0
230
1
2
SOLID
70
1
71
0
91
1
92
3
72
0
73
1
93
3
10
13.041509
20
-7.485692
10
13.985594
20
-8.203295
10
14.227339
20
-7.493324
97
0
75
0
76
1
98
0
0
TEXT
5
128
330
1F
100
AcDbEntity
8
S-ANNO-NOTE
370
18
100
AcDbText
10
-45.142857
20
-16.0625
30
0
40
1.125
1
(2) #5 CONT. BOTT., 3" CLR.
7
KERF
100
AcDbText
0
LWPOLYLINE
5
129
330
1F
100
AcDbEntity
8
S-ANNO-NOTE
370
18
100
AcDbPolyline
90
3
70
0
43
0
10
-20.02
20
-15.5
10
-18.52
20
-15.5
10
7.563001
20
-14.721081
0
HATCH
5
12A
330
1F
100
AcDbEntity
8
S-ANNO-NOTE
370
50
100
AcDbHatch
10
0
20
0
30
0
210
0
220
0
230
1
2
SOLID
70
1
71
0
91
1
92
3
72
0
73
1
93
3
10
8.6875
20
-14.6875
10
7.551808
20
-14.346248
10
7.574195
20
-15.095914
97
0
75
0
76
1
98
0
0
TEXT
5
12B
330
1F
100
AcDbEntity
8
S-ANNO-NOTE
370
18
100
AcDbText
10
-35.875
20
-14.1875
30
0
40
1.125
1
(1) #4 CONT. TOP
7
KERF
100
AcDbText
0
LWPOLYLINE
5
12C
330
1F
100
AcDbEntity
8
S-ANNO-NOTE
370
18
100
AcDbPolyline
90
3
70
0
43
0
10
-20.02
20
-13.625
10
-18.52
20
-13.625
10
4.945643
20
-4.892374
0
HATCH
5
12D
330
1F
100
AcDbEntity
8
S-ANNO-NOTE
370
50
100
AcDbHatch
10
0
20
0
30
0
210
0
220
0
230
1
2
SOLID
70
1
71
0
91
1
92
3
72
0
73
1
93
3
10
6
20
-4.5
10
4.814852
20
-4.540922
10
5.076435
20
-5.243826
97
0
75
0
76
1
98
0
0
TEXT
5
12E
330
1F
100
AcDbEntity
8
S-ANNO-NOTE
370
18
100
AcDbText
10
-47.875
20
-5.1125
30
0
40
1.125
1
SLAB DEPRESSION 1 1/2" DEEP
7
KERF
100
AcDbText
0
TEXT
5
12F
330
1F
100
AcDbEntity
8
S-ANNO-NOTE
370
18
100
AcDbText
10
-47.875
20
-6.9125
30
0
40
1.125
1
X 8" WIDE FOR SLIDING DOOR
7
KERF
100
AcDbText
0
TEXT
5
130
330
1F
100
AcDbEntity
8
S-ANNO-NOTE
370
18
100
AcDbText
10
-47.875
20
-8.7125
30
0
40
1.125
1
SILL, SLOPE TO EXTERIOR.
7
KERF
100
AcDbText
0
TEXT
5
131
330
1F
100
AcDbEntity
8
S-ANNO-NOTE
370
18
100
AcDbText
10
-47.875
20
-10.5125
30
0
40
1.125
1
VERIFY SILL DEPTH W/ DOOR
7
KERF
100
AcDbText
0
TEXT
5
132
330
1F
100
AcDbEntity
8
S-ANNO-NOTE
370
18
100
AcDbText
10
-47.875
20
-12.3125
30
0
40
1.125
1
MFR.
7
KERF
100
AcDbText
0
LWPOLYLINE
5
133
330
1F
100
AcDbEntity
8
S-ANNO-NOTE
370
18
100
AcDbPolyline
90
3
70
0
43
0
10
-20.02
20
-8.15
10
-18.52
20
-8.15
10
3.917559
20
-1.796507
0
HATCH
5
134
330
1F
100
AcDbEntity
8
S-ANNO-NOTE
370
50
100
AcDbHatch
10
0
20
0
30
0
210
0
220
0
230
1
2
SOLID
70
1
71
0
91
1
92
3
72
0
73
1
93
3
10
5
20
-1.49
10
3.81539
20
-1.435694
10
4.019728
20
-2.157321
97
0
75
0
76
1
98
0
0
TEXT
5
135
330
1F
100
AcDbEntity
8
S-ANNO-NOTE
370
18
100
AcDbText
10
-46.696429
20
0.3625
30
0
40
1.125
1
SLIDING DOOR SILL ON PAN
7
KERF
100
AcDbText
0
TEXT
5
136
330
1F
100
AcDbEntity
8
S-ANNO-NOTE
370
18
100
AcDbText
10
-46.696429
20
-1.4375
30
0
40
1.125
1
FLASHING, SEAL TO CONC. PER
7
KERF
100
AcDbText
0
TEXT
5
137
330
1F
100
AcDbEntity
8
S-ANNO-NOTE
370
18
100
AcDbText
10
-46.696429
20
-3.2375
30
0
40
1.125
1
MFR. (IRC R703.4)*
7
KERF
100
AcDbText
0
LWPOLYLINE
5
138
330
1F
100
AcDbEntity
8
S-ANNO-NOTE
370
18
100
AcDbPolyline
90
3
70
0
43
0
10
-20.02
20
-0.875
10
-18.52
20
-0.875
10
3.09375
20
-0.875
0
HATCH
5
139
330
1F
100
AcDbEntity
8
S-ANNO-NOTE
370
50
100
AcDbHatch
10
0
20
0
30
0
210
0
220
0
230
1
2
SOLID
70
1
71
0
91
1
92
3
72
0
73
1
93
3
10
4.21875
20
-0.875
10
3.09375
20
-0.5
10
3.09375
20
-1.25
97
0
75
0
76
1
98
0
0
TEXT
5
13A
330
1F
100
AcDbEntity
8
S-ANNO-NOTE
370
18
100
AcDbText
10
40.5
20
-22.198611
30
0
40
1.125
1
FINISH GRADE, SLOPE AWAY 6"
7
KERF
100
AcDbText
0
TEXT
5
13B
330
1F
100
AcDbEntity
8
S-ANNO-NOTE
370
18
100
AcDbText
10
40.5
20
-23.998611
30
0
40
1.125
1
MIN. IN FIRST 10'-0" (IRC
7
KERF
100
AcDbText
0
TEXT
5
13C
330
1F
100
AcDbEntity
8
S-ANNO-NOTE
370
18
100
AcDbText
10
40.5
20
-25.798611
30
0
40
1.125
1
R401.3)*
7
KERF
100
AcDbText
0
LWPOLYLINE
5
13D
330
1F
100
AcDbEntity
8
S-ANNO-NOTE
370
18
100
AcDbPolyline
90
3
70
0
43
0
10
40.02
20
-23.436111
10
38.52
20
-23.436111
10
25.262658
20
-17.983478
0
HATCH
5
13E
330
1F
100
AcDbEntity
8
S-ANNO-NOTE
370
50
100
AcDbHatch
10
0
20
0
30
0
210
0
220
0
230
1
2
SOLID
70
1
71
0
91
1
92
3
72
0
73
1
93
3
10
24.222222
20
-17.555556
10
25.120017
20
-18.33029
10
25.405299
20
-17.636666
97
0
75
0
76
1
98
0
0
TEXT
5
13F
330
1F
100
AcDbEntity
8
S-ANNO-NOTE
370
18
100
AcDbText
10
-12
20
3
30
0
40
0.9375
1
EXTERIOR
7
KERF
72
1
11
-12
21
3
31
0
100
AcDbText
73
2
0
TEXT
5
140
330
1F
100
AcDbEntity
8
S-ANNO-NOTE
370
18
100
AcDbText
10
24
20
3
30
0
40
0.9375
1
INTERIOR
7
KERF
72
1
11
24
21
3
31
0
100
AcDbText
73
2
0
LWPOLYLINE
5
141
330
1F
100
AcDbEntity
8
S-ANNO-DIMS
370
13
100
AcDbPolyline
90
2
70
0
43
0
10
0
20
-18.75
10
0
20
-22.75
0
LWPOLYLINE
5
142
330
1F
100
AcDbEntity
8
S-ANNO-DIMS
370
13
100
AcDbPolyline
90
2
70
0
43
0
10
12
20
-18.75
10
12
20
-22.75
0
LWPOLYLINE
5
143
330
1F
100
AcDbEntity
8
S-ANNO-DIMS
370
13
100
AcDbPolyline
90
2
70
0
43
0
10
0
20
-22
10
12
20
-22
0
LWPOLYLINE
5
144
330
1F
100
AcDbEntity
8
S-DETL-CUT
370
35
100
AcDbPolyline
90
2
70
0
43
0
10
-0.265165
20
-22.265165
10
0.265165
20
-21.734835
0
LWPOLYLINE
5
145
330
1F
100
AcDbEntity
8
S-DETL-CUT
370
35
100
AcDbPolyline
90
2
70
0
43
0
10
11.734835
20
-22.265165
10
12.265165
20
-21.734835
0
TEXT
5
146
330
1F
100
AcDbEntity
8
S-ANNO-DIMS
370
13
100
AcDbText
10
6
20
-21.4375
30
0
40
1.125
1
1'-0"
7
KERF
72
1
11
6
21
-21.4375
31
0
100
AcDbText
0
LWPOLYLINE
5
147
330
1F
100
AcDbEntity
8
S-ANNO-DIMS
370
13
100
AcDbPolyline
90
2
70
0
43
0
10
-0.75
20
0
10
-10.75
20
0
0
LWPOLYLINE
5
148
330
1F
100
AcDbEntity
8
S-ANNO-DIMS
370
13
100
AcDbPolyline
90
2
70
0
43
0
10
-0.75
20
-18
10
-10.75
20
-18
0
LWPOLYLINE
5
149
330
1F
100
AcDbEntity
8
S-ANNO-DIMS
370
13
100
AcDbPolyline
90
2
70
0
43
0
10
-10
20
-18
10
-10
20
0
0
LWPOLYLINE
5
14A
330
1F
100
AcDbEntity
8
S-DETL-CUT
370
35
100
AcDbPolyline
90
2
70
0
43
0
10
-9.734835
20
-18.265165
10
-10.265165
20
-17.734835
0
LWPOLYLINE
5
14B
330
1F
100
AcDbEntity
8
S-DETL-CUT
370
35
100
AcDbPolyline
90
2
70
0
43
0
10
-9.734835
20
-0.265165
10
-10.265165
20
0.265165
0
TEXT
5
14C
330
1F
100
AcDbEntity
8
S-ANNO-DIMS
370
13
100
AcDbText
10
-10.5625
20
-9
30
0
40
1.125
1
1'-6"
50
90
7
KERF
72
1
11
-10.5625
21
-9
31
0
100
AcDbText
0
LWPOLYLINE
5
14D
330
1F
100
AcDbEntity
8
S-ANNO-DIMS
370
13
100
AcDbPolyline
90
2
70
0
43
0
10
8.75
20
-1.5
10
12.75
20
-1.5
0
LWPOLYLINE
5
14E
330
1F
100
AcDbEntity
8
S-ANNO-DIMS
370
13
100
AcDbPolyline
90
2
70
0
43
0
10
8.75
20
0
10
12.75
20
0
0
LWPOLYLINE
5
14F
330
1F
100
AcDbEntity
8
S-ANNO-DIMS
370
13
100
AcDbPolyline
90
2
70
0
43
0
10
12
20
-1.5
10
12
20
8.357143
0
LWPOLYLINE
5
150
330
1F
100
AcDbEntity
8
S-DETL-CUT
370
35
100
AcDbPolyline
90
2
70
0
43
0
10
12.265165
20
-1.765165
10
11.734835
20
-1.234835
0
LWPOLYLINE
5
151
330
1F
100
AcDbEntity
8
S-DETL-CUT
370
35
100
AcDbPolyline
90
2
70
0
43
0
10
12.265165
20
-0.265165
10
11.734835
20
0.265165
0
TEXT
5
152
330
1F
100
AcDbEntity
8
S-ANNO-DIMS
370
13
100
AcDbText
10
11.4375
20
4.928571
30
0
40
1.125
1
1 1/2"
50
90
7
KERF
72
1
11
11.4375
21
4.928571
31
0
100
AcDbText
0
LWPOLYLINE
5
153
330
1F
100
AcDbEntity
8
S-ANNO-TTLB
370
50
100
AcDbPolyline
90
2
70
1
43
0
10
-16
20
-34.55
42
1
10
-8.5
20
-34.55
42
1
0
LWPOLYLINE
5
154
330
1F
100
AcDbEntity
8
S-ANNO-NOTE
370
18
100
AcDbPolyline
90
2
70
0
43
0
10
-16
20
-34.55
10
-8.5
20
-34.55
0
TEXT
5
155
330
1F
100
AcDbEntity
8
S-ANNO-TTLB
370
50
100
AcDbText
10
-12.25
20
-32.675
30
0
40
1.875
1
2
7
KERF
72
1
11
-12.25
21
-32.675
31
0
100
AcDbText
73
2
0
TEXT
5
156
330
1F
100
AcDbEntity
8
S-ANNO-TTLB
370
18
100
AcDbText
10
-12.25
20
-36.425
30
0
40
0.84375
1
S-501
7
KERF
72
1
11
-12.25
21
-36.425
31
0
100
AcDbText
73
2
0
TEXT
5
157
330
1F
100
AcDbEntity
8
S-ANNO-TTLB
370
50
100
AcDbText
10
-6.7
20
-34.31
30
0
40
1.875
1
SLAB EDGE AT SLIDING DOOR
7
KERF
100
AcDbText
0
LWPOLYLINE
5
158
330
1F
100
AcDbEntity
8
S-ANNO-TTLB
370
50
100
AcDbPolyline
90
2
70
0
43
0
10
-6.7
20
-35.15
10
34.103571
20
-35.15
0
TEXT
5
159
330
1F
100
AcDbEntity
8
S-ANNO-TTLB
370
18
100
AcDbText
10
-6.7
20
-36.995
30
0
40
1.125
1
SCALE: 1" = 1'-0"
7
KERF
100
AcDbText
0
TEXT
5
15A
330
1F
100
AcDbEntity
8
S-ANNO-TTLB
370
18
100
AcDbText
10
-16
20
-40.625
30
0
40
0.95625
1
* CODE REFERENCE NOT VERIFIED BY DESIGNER
7
KERF
100
AcDbText
0
ENDSEC
0
SECTION
2
OBJECTS
0
DICTIONARY
5
C
330
0
100
AcDbDictionary
281
1
3
ACAD_GROUP
350
D
0
DICTIONARY
5
D
330
C
100
AcDbDictionary
281
1
0
ENDSEC
0
EOF
