0
SECTION
2
HEADER
9
$ACADVER
1
AC1015
9
$HANDSEED
5
128
9
$INSUNITS
70
1
9
$MEASUREMENT
70
0
9
$LTSCALE
40
1
9
$EXTMIN
10
-25.980762
20
-44.536875
30
0
9
$EXTMAX
10
35.489415
20
33
30
0
0
ENDSEC
0
SECTION
2
CLASSES
0
ENDSEC
0
SECTION
2
TABLES
0
TABLE
2
VPORT
5
8
330
0
100
AcDbSymbolTable
70
1
0
VPORT
5
30
330
8
100
AcDbSymbolTableRecord
100
AcDbViewportTableRecord
2
*ACTIVE
70
0
10
0
20
0
11
1
21
1
12
4.754326
22
-5.768438
13
0
23
0
14
10
24
10
15
10
25
10
16
0
26
0
36
1
17
0
27
0
37
0
40
85.290563
41
0.792786
42
50
43
0
44
0
50
0
51
0
71
0
72
100
73
1
74
3
75
0
76
0
77
0
78
0
0
ENDTAB
0
TABLE
2
LTYPE
5
5
330
0
100
AcDbSymbolTable
70
4
0
LTYPE
5
14
330
5
100
AcDbSymbolTableRecord
100
AcDbLinetypeTableRecord
2
BYBLOCK
70
0
3

72
65
73
0
40
0
0
LTYPE
5
15
330
5
100
AcDbSymbolTableRecord
100
AcDbLinetypeTableRecord
2
BYLAYER
70
0
3

72
65
73
0
40
0
0
LTYPE
5
16
330
5
100
AcDbSymbolTableRecord
100
AcDbLinetypeTableRecord
2
CONTINUOUS
70
0
3
Solid line
72
65
73
0
40
0
0
LTYPE
5
40
330
5
100
AcDbSymbolTableRecord
100
AcDbLinetypeTableRecord
2
DASHED
70
0
3
DASHED
72
65
73
2
40
1.358268
49
0.905512
74
0
49
-0.452756
74
0
0
ENDTAB
0
TABLE
2
LAYER
5
2
330
0
100
AcDbSymbolTable
70
6
0
LAYER
5
10
330
2
100
AcDbSymbolTableRecord
100
AcDbLayerTableRecord
2
0
70
0
62
7
6
CONTINUOUS
370
-3
0
LAYER
5
50
330
2
100
AcDbSymbolTableRecord
100
AcDbLayerTableRecord
2
S-DETL-PATT
70
0
62
7
6
CONTINUOUS
370
9
0
LAYER
5
51
330
2
100
AcDbSymbolTableRecord
100
AcDbLayerTableRecord
2
S-DETL-BYND
70
0
62
7
6
CONTINUOUS
370
25
0
LAYER
5
52
330
2
100
AcDbSymbolTableRecord
100
AcDbLayerTableRecord
2
S-DETL-CUT
70
0
62
7
6
CONTINUOUS
370
50
0
LAYER
5
53
330
2
100
AcDbSymbolTableRecord
100
AcDbLayerTableRecord
2
S-ANNO-NOTE
70
0
62
7
6
CONTINUOUS
370
18
0
LAYER
5
54
330
2
100
AcDbSymbolTableRecord
100
AcDbLayerTableRecord
2
S-ANNO-TTLB
70
0
62
7
6
CONTINUOUS
370
50
0
ENDTAB
0
TABLE
2
STYLE
5
3
330
0
100
AcDbSymbolTable
70
2
0
STYLE
5
11
330
3
100
AcDbSymbolTableRecord
100
AcDbTextStyleTableRecord
2
STANDARD
70
0
40
0
41
1
50
0
71
0
42
0.2
3
txt
4

0
STYLE
5
12
330
3
100
AcDbSymbolTableRecord
100
AcDbTextStyleTableRecord
2
KERF
70
0
40
0
41
1
50
0
71
0
42
0.2
3
romans.shx
4

0
ENDTAB
0
TABLE
2
VIEW
5
6
330
0
100
AcDbSymbolTable
70
0
0
ENDTAB
0
TABLE
2
UCS
5
7
330
0
100
AcDbSymbolTable
70
0
0
ENDTAB
0
TABLE
2
APPID
5
9
330
0
100
AcDbSymbolTable
70
1
0
APPID
5
13
330
9
100
AcDbSymbolTableRecord
100
AcDbRegAppTableRecord
2
ACAD
70
0
0
ENDTAB
0
TABLE
2
DIMSTYLE
5
A
330
0
100
AcDbSymbolTable
70
1
100
AcDbDimStyleTable
71
1
0
DIMSTYLE
105
17
330
A
100
AcDbSymbolTableRecord
100
AcDbDimStyleTableRecord
2
STANDARD
70
0
340
17
0
ENDTAB
0
TABLE
2
BLOCK_RECORD
5
1
330
0
100
AcDbSymbolTable
70
2
0
BLOCK_RECORD
5
1F
330
1
100
AcDbSymbolTableRecord
100
AcDbBlockTableRecord
2
*Model_Space
70
0
280
1
281
0
0
BLOCK_RECORD
5
1B
330
1
100
AcDbSymbolTableRecord
100
AcDbBlockTableRecord
2
*Paper_Space
70
0
280
1
281
0
0
ENDTAB
0
ENDSEC
0
SECTION
2
BLOCKS
0
BLOCK
5
20
330
1F
100
AcDbEntity
8
0
100
AcDbBlockBegin
2
*Model_Space
70
0
10
0
20
0
30
0
3
*Model_Space
1

0
ENDBLK
5
21
330
1F
100
AcDbEntity
8
0
100
AcDbBlockEnd
0
BLOCK
5
22
330
1B
100
AcDbEntity
67
1
8
0
100
AcDbBlockBegin
2
*Paper_Space
70
0
10
0
20
0
30
0
3
*Paper_Space
1

0
ENDBLK
5
23
330
1B
100
AcDbEntity
67
1
8
0
100
AcDbBlockEnd
0
ENDSEC
0
SECTION
2
ENTITIES
0
HATCH
5
100
330
1F
100
AcDbEntity
8
S-DETL-PATT
370
9
100
AcDbHatch
10
0
20
0
30
0
210
0
220
0
230
1
2
KERF-CONC
70
0
71
0
91
1
92
3
72
0
73
1
93
8
10
10.392305
20
-12
10
22.51666
20
9
10
31.176915
20
14
10
31.176915
20
18
10
6.928203
20
4
10
6.928203
20
2.5
10
0
20
-1.625
10
0
20
-18
97
0
75
0
76
1
52
0
41
1
77
0
78
5
53
0
43
0
44
0
45
1.07755
46
0.93265
79
2
49
0
49
-2.15625
53
0
43
0.5405
44
0.46
45
1.07755
46
0.93265
79
2
49
0
49
-2.15625
53
60
43
1.265
44
0.23
45
2.875
46
2.48975
79
2
49
0.4025
49
-5.3475
53
180
43
1.6675
44
0.575
45
2.875
46
2.48975
79
2
49
0.4025
49
-5.3475
53
300
43
1.265
44
0.575
45
2.875
46
2.48975
79
2
49
0.4025
49
-5.3475
98
0
0
HATCH
5
101
330
1F
100
AcDbEntity
8
S-DETL-PATT
370
9
100
AcDbHatch
10
0
20
0
30
0
210
0
220
0
230
1
2
KERF-GRAVEL
70
0
71
0
91
1
92
3
72
0
73
1
93
4
10
31.176915
20
14
10
22.51666
20
9
10
19.052559
20
3
10
31.176915
20
10
97
0
75
0
76
1
52
0
41
1
77
0
78
7
53
0
43
0
44
0
45
1.4375
46
2.15625
79
2
49
0.5175
49
-3.795
53
72
43
0.5175
44
0
45
1.4375
46
2.15625
79
2
49
0.5175
49
-3.795
53
144
43
0.6785
44
0.4945
45
1.4375
46
2.15625
79
2
49
0.5175
49
-3.795
53
216
43
0.253
44
0.7935
45
1.4375
46
2.15625
79
2
49
0.5175
49
-3.795
53
288
43
-0.161
44
0.4945
45
1.4375
46
2.15625
79
2
49
0.5175
49
-3.795
53
30
43
2.185
44
1.15
45
1.4375
46
2.15625
79
2
49
0.345
49
-3.9675
53
150
43
2.185
44
1.15
45
1.4375
46
2.15625
79
2
49
0.345
49
-3.9675
98
0
0
HATCH
5
102
330
1F
100
AcDbEntity
8
S-DETL-PATT
370
9
100
AcDbHatch
10
0
20
0
30
0
210
0
220
0
230
1
2
EARTH
70
0
71
0
91
1
92
3
72
0
73
1
93
8
10
31.176915
20
10
10
19.052559
20
3
10
10.392305
20
-12
10
0
20
-18
10
0
20
-6
10
-13.856406
20
-14
10
-13.856406
20
-34
10
31.176915
20
-8
97
0
75
0
76
1
52
45
41
1
77
0
78
6
53
0
43
0
44
0
45
2.875
46
2.875
79
2
49
2.875
49
-2.875
53
0
43
0
44
1.078125
45
2.875
46
2.875
79
2
49
2.875
49
-2.875
53
0
43
0
44
2.15625
45
2.875
46
2.875
79
2
49
2.875
49
-2.875
53
90
43
0.359375
44
2.515625
45
2.875
46
2.875
79
2
49
2.875
49
-2.875
53
90
43
1.4375
44
2.515625
45
2.875
46
2.875
79
2
49
2.875
49
-2.875
53
90
43
2.515625
44
2.515625
45
2.875
46
2.875
79
2
49
2.875
49
-2.875
98
0
0
LWPOLYLINE
5
103
330
1F
100
AcDbEntity
8
S-DETL-CUT
370
50
100
AcDbPolyline
90
4
70
0
43
0
10
31.176915
20
10
10
19.052559
20
3
10
10.392305
20
-12
10
0
20
-18
0
LWPOLYLINE
5
104
330
1F
100
AcDbEntity
8
S-DETL-CUT
370
50
100
AcDbPolyline
90
2
70
0
43
0
10
0
20
-6
10
-13.856406
20
-14
0
LWPOLYLINE
5
105
330
1F
100
AcDbEntity
8
S-DETL-BYND
370
25
100
AcDbPolyline
90
2
70
0
43
0
10
-19.052559
20
19
10
6.928203
20
4
0
LWPOLYLINE
5
106
330
1F
100
AcDbEntity
8
S-DETL-BYND
370
25
100
AcDbPolyline
90
2
70
0
43
0
10
6.495191
20
2.75
10
6.928203
20
2.5
0
LWPOLYLINE
5
107
330
1F
100
AcDbEntity
8
S-DETL-BYND
370
25
100
AcDbPolyline
90
2
70
0
43
0
10
-25.980762
20
13.375
10
0
20
-1.625
0
LWPOLYLINE
5
108
330
1F
100
AcDbEntity
8
S-DETL-BYND
370
25
100
AcDbPolyline
90
2
70
0
43
0
10
-25.168863
20
15.21875
10
0.811899
20
0.21875
0
LWPOLYLINE
5
109
330
1F
100
AcDbEntity
8
S-DETL-CUT
370
35
100
AcDbPolyline
90
3
70
0
43
0
10
5.196152
20
33
10
-19.052559
20
19
10
-19.052559
20
18.25
0
LWPOLYLINE
5
10A
330
1F
100
AcDbEntity
8
S-DETL-CUT
370
35
100
AcDbPolyline
90
3
70
0
43
0
10
-25.074766
20
13.914423
10
-25.980762
20
13.375
10
-25.980762
20
-3
0
LWPOLYLINE
5
10B
330
1F
100
AcDbEntity
8
S-DETL-CUT
370
35
100
AcDbPolyline
90
2
70
0
43
0
10
5.196152
20
33
10
31.176915
20
18
0
LWPOLYLINE
5
10C
330
1F
100
AcDbEntity
8
S-DETL-CUT
370
35
100
AcDbPolyline
90
2
70
0
43
0
10
-25.980762
20
-3
10
0
20
-18
0
LWPOLYLINE
5
10D
330
1F
100
AcDbEntity
8
S-DETL-CUT
370
35
100
AcDbPolyline
90
2
70
0
43
0
10
31.174711
20
15.748728
10
31.176915
20
15.747455
0
LWPOLYLINE
5
10E
330
1F
100
AcDbEntity
8
S-DETL-CUT
370
35
100
AcDbPolyline
90
3
70
0
43
0
10
-19.485572
20
18.5
10
-25.168863
20
15.21875
10
-25.168863
20
13.96875
0
LWPOLYLINE
5
10F
330
1F
100
AcDbEntity
8
S-DETL-CUT
370
35
100
AcDbPolyline
90
2
70
0
43
0
10
-25.168863
20
13.96875
10
0.811899
20
-1.03125
0
LWPOLYLINE
5
110
330
1F
100
AcDbEntity
8
S-DETL-CUT
370
35
100
AcDbPolyline
90
2
70
0
43
0
10
-19.485572
20
18.5
10
6.495191
20
3.5
0
LWPOLYLINE
5
111
330
1F
100
AcDbEntity
8
S-DETL-CUT
370
50
100
AcDbPolyline
90
9
70
0
43
0
10
10.392305
20
-12
10
22.51666
20
9
10
31.176915
20
14
10
31.176915
20
18
10
6.928203
20
4
10
6.928203
20
2.5
10
0
20
-1.625
10
0
20
-18
10
10.392305
20
-12
0
LWPOLYLINE
5
112
330
1F
100
AcDbEntity
8
S-DETL-CUT
370
50
100
AcDbPolyline
90
25
70
0
43
0
10
3.139342
20
-12.875
10
3.13012
20
-12.799443
10
3.103084
20
-12.739684
10
3.060076
20
-12.699794
10
3.004026
20
-12.682492
10
2.938754
20
-12.688958
10
2.868709
20
-12.71875
10
2.798664
20
-12.769839
10
2.733393
20
-12.838742
10
2.677343
20
-12.920765
10
2.634334
20
-13.010316
10
2.607298
20
-13.101295
10
2.598076
20
-13.1875
10
2.607298
20
-13.263057
10
2.634334
20
-13.322816
10
2.677343
20
-13.362706
10
2.733393
20
-13.380008
10
2.798664
20
-13.373542
10
2.868709
20
-13.34375
10
2.938754
20
-13.292661
10
3.004026
20
-13.223758
10
3.060076
20
-13.141735
10
3.103084
20
-13.052184
10
3.13012
20
-12.961205
10
3.139342
20
-12.875
0
LWPOLYLINE
5
113
330
1F
100
AcDbEntity
8
S-DETL-CUT
370
50
100
AcDbPolyline
90
25
70
0
43
0
10
7.794229
20
-10.1875
10
7.785007
20
-10.111943
10
7.757971
20
-10.052184
10
7.714962
20
-10.012294
10
7.658912
20
-9.994992
10
7.593641
20
-10.001458
10
7.523596
20
-10.03125
10
7.453551
20
-10.082339
10
7.388279
20
-10.151242
10
7.332229
20
-10.233265
10
7.289221
20
-10.322816
10
7.262184
20
-10.413795
10
7.252963
20
-10.5
10
7.262184
20
-10.575557
10
7.289221
20
-10.635316
10
7.332229
20
-10.675206
10
7.388279
20
-10.692508
10
7.453551
20
-10.686042
10
7.523596
20
-10.65625
10
7.593641
20
-10.605161
10
7.658912
20
-10.536258
10
7.714962
20
-10.454235
10
7.757971
20
-10.364684
10
7.785007
20
-10.273705
10
7.794229
20
-10.1875
0
LWPOLYLINE
5
114
330
1F
100
AcDbEntity
8
S-DETL-CUT
370
50
100
AcDbPolyline
90
23
70
0
43
0
10
5.412659
20
-1.375
10
5.403889
20
-1.30963
10
5.378289
20
-1.259683
10
5.337934
20
-1.229205
10
5.286092
20
-1.220665
10
5.226964
20
-1.234755
10
5.16534
20
-1.270334
10
5.106212
20
-1.324519
10
5.054371
20
-1.39292
10
5.014016
20
-1.469996
10
4.988416
20
-1.549503
10
4.979646
20
-1.625
10
4.988416
20
-1.69037
10
5.014016
20
-1.740317
10
5.054371
20
-1.770795
10
5.106212
20
-1.779335
10
5.16534
20
-1.765245
10
5.226964
20
-1.729666
10
5.286092
20
-1.675481
10
5.337934
20
-1.60708
10
5.378289
20
-1.530004
10
5.403889
20
-1.450497
10
5.412659
20
-1.375
0
LWPOLYLINE
5
115
330
1F
100
AcDbEntity
8
S-DETL-CUT
370
50
100
AcDbPolyline
90
5
70
0
43
0
10
12.124356
20
4.75
10
31.176915
20
15.75
10
31.176915
20
16.25
10
12.124356
20
5.25
10
12.124356
20
4.75
0
LWPOLYLINE
5
116
330
1F
100
AcDbEntity
8
S-DETL-CUT
370
50
100
AcDbPolyline
90
23
70
0
43
0
10
17.537014
20
7.625
10
17.528244
20
7.69037
10
17.502645
20
7.740317
10
17.46229
20
7.770795
10
17.410448
20
7.779335
10
17.35132
20
7.765245
10
17.289696
20
7.729666
10
17.230568
20
7.675481
10
17.178727
20
7.60708
10
17.138371
20
7.530004
10
17.112772
20
7.450497
10
17.104002
20
7.375
10
17.112772
20
7.30963
10
17.138371
20
7.259683
10
17.178727
20
7.229205
10
17.230568
20
7.220665
10
17.289696
20
7.234755
10
17.35132
20
7.270334
10
17.410448
20
7.324519
10
17.46229
20
7.39292
10
17.502645
20
7.469996
10
17.528244
20
7.549503
10
17.537014
20
7.625
0
LWPOLYLINE
5
117
330
1F
100
AcDbEntity
8
S-DETL-CUT
370
50
100
AcDbPolyline
90
14
70
0
43
0
10
31.176915
20
15.747455
10
31.146102
20
15.729666
10
31.086975
20
15.675481
10
31.035133
20
15.60708
10
30.994778
20
15.530004
10
30.969178
20
15.450497
10
30.960408
20
15.375
10
30.969178
20
15.30963
10
30.994778
20
15.259683
10
31.035133
20
15.229205
10
31.086975
20
15.220665
10
31.146102
20
15.234755
10
31.176915
20
15.252545
10
31.176915
20
15.747455
0
LWPOLYLINE
5
118
330
1F
100
AcDbEntity
8
S-DETL-CUT
370
50
100
AcDbPolyline
90
5
70
0
43
0
10
10.392305
20
-12
10
10.4168
20
-12.014142
10
22.531009
20
8.968284
10
31.176915
20
13.96
10
31.176915
20
14
0
LWPOLYLINE
5
119
330
1F
100
AcDbEntity
8
S-DETL-CUT
370
50
100
AcDbPolyline
90
5
70
0
43
0
10
0.811899
20
-1.03125
10
6.495191
20
2.25
10
6.495191
20
3.5
10
0.811899
20
0.21875
10
0.811899
20
-1.03125
0
TEXT
5
11A
330
1F
100
AcDbEntity
8
S-ANNO-NOTE
370
18
100
AcDbText
10
35.489415
20
-0.6415
30
0
40
1.078125
1
SLAB DEPRESSION FOR DOOR
7
KERF
100
AcDbText
0
TEXT
5
11B
330
1F
100
AcDbEntity
8
S-ANNO-NOTE
370
18
100
AcDbText
10
35.489415
20
-2.3665
30
0
40
1.078125
1
SILL
7
KERF
100
AcDbText
0
LWPOLYLINE
5
11C
330
1F
100
AcDbEntity
8
S-ANNO-NOTE
370
18
100
AcDbPolyline
90
3
70
0
43
0
10
35.029415
20
-0.964937
10
33.591915
20
-0.964937
10
12.372403
20
-0.964937
0
HATCH
5
11D
330
1F
100
AcDbEntity
8
S-ANNO-NOTE
370
50
100
AcDbHatch
10
0
20
0
30
0
210
0
220
0
230
1
2
SOLID
70
1
71
0
91
1
92
3
72
0
73
1
93
3
10
11.294278
20
-0.964937
10
12.372403
20
-1.324312
10
12.372403
20
-0.605562
97
0
75
0
76
1
98
0
0
TEXT
5
11E
330
1F
100
AcDbEntity
8
S-ANNO-NOTE
370
18
100
AcDbText
10
35.489415
20
-13.570312
30
0
40
1.078125
1
(2) #5 CONT. BOTT.
7
KERF
100
AcDbText
0
LWPOLYLINE
5
11F
330
1F
100
AcDbEntity
8
S-ANNO-NOTE
370
18
100
AcDbPolyline
90
3
70
0
43
0
10
35.029415
20
-13.03125
10
33.591915
20
-13.03125
10
3.946834
20
-13.03125
0
HATCH
5
120
330
1F
100
AcDbEntity
8
S-ANNO-NOTE
370
50
100
AcDbHatch
10
0
20
0
30
0
210
0
220
0
230
1
2
SOLID
70
1
71
0
91
1
92
3
72
0
73
1
93
3
10
2.868709
20
-13.03125
10
3.946834
20
-13.390625
10
3.946834
20
-12.671875
97
0
75
0
76
1
98
0
0
LWPOLYLINE
5
121
330
1F
100
AcDbEntity
8
S-ANNO-TTLB
370
50
100
AcDbPolyline
90
2
70
1
43
0
10
-25.980762
20
-42.19375
42
1
10
-18.793262
20
-42.19375
42
1
0
LWPOLYLINE
5
122
330
1F
100
AcDbEntity
8
S-ANNO-NOTE
370
18
100
AcDbPolyline
90
2
70
0
43
0
10
-25.980762
20
-42.19375
10
-18.793262
20
-42.19375
0
TEXT
5
123
330
1F
100
AcDbEntity
8
S-ANNO-TTLB
370
50
100
AcDbText
10
-22.387012
20
-40.396875
30
0
40
1.796875
1
3
7
KERF
72
1
11
-22.387012
21
-40.396875
31
0
100
AcDbText
73
2
0
TEXT
5
124
330
1F
100
AcDbEntity
8
S-ANNO-TTLB
370
18
100
AcDbText
10
-22.387012
20
-43.990625
30
0
40
0.808594
1
S-501
7
KERF
72
1
11
-22.387012
21
-43.990625
31
0
100
AcDbText
73
2
0
TEXT
5
125
330
1F
100
AcDbEntity
8
S-ANNO-TTLB
370
50
100
AcDbText
10
-17.068262
20
-41.96375
30
0
40
1.796875
1
SLAB EDGE AT SLIDING DOOR - ISO
7
KERF
100
AcDbText
0
LWPOLYLINE
5
126
330
1F
100
AcDbEntity
8
S-ANNO-TTLB
370
50
100
AcDbPolyline
90
2
70
0
43
0
10
-17.068262
20
-42.76875
10
31.276232
20
-42.76875
0
TEXT
5
127
330
1F
100
AcDbEntity
8
S-ANNO-TTLB
370
18
100
AcDbText
10
-17.068262
20
-44.536875
30
0
40
1.078125
1
SCALE: NTS
7
KERF
100
AcDbText
0
ENDSEC
0
SECTION
2
OBJECTS
0
DICTIONARY
5
C
330
0
100
AcDbDictionary
281
1
3
ACAD_GROUP
350
D
0
DICTIONARY
5
D
330
C
100
AcDbDictionary
281
1
0
ENDSEC
0
EOF
