0
SECTION
2
HEADER
9
$ACADVER
1
AC1015
9
$HANDSEED
5
18A
9
$INSUNITS
70
1
9
$MEASUREMENT
70
0
9
$LTSCALE
40
1
9
$EXTMIN
10
-54.857143
20
-50
30
0
9
$EXTMAX
10
34.5
20
19.837989
30
0
0
ENDSEC
0
SECTION
2
CLASSES
0
ENDSEC
0
SECTION
2
TABLES
0
TABLE
2
VPORT
5
8
330
0
100
AcDbSymbolTable
70
1
0
VPORT
5
30
330
8
100
AcDbSymbolTableRecord
100
AcDbViewportTableRecord
2
*ACTIVE
70
0
10
0
20
0
11
1
21
1
12
-10.178571
22
-15.081005
13
0
23
0
14
10
24
10
15
10
25
10
16
0
26
0
36
1
17
0
27
0
37
0
40
76.821788
41
1.279492
42
50
43
0
44
0
50
0
51
0
71
0
72
100
73
1
74
3
75
0
76
0
77
0
78
0
0
ENDTAB
0
TABLE
2
LTYPE
5
5
330
0
100
AcDbSymbolTable
70
4
0
LTYPE
5
14
330
5
100
AcDbSymbolTableRecord
100
AcDbLinetypeTableRecord
2
BYBLOCK
70
0
3

72
65
73
0
40
0
0
LTYPE
5
15
330
5
100
AcDbSymbolTableRecord
100
AcDbLinetypeTableRecord
2
BYLAYER
70
0
3

72
65
73
0
40
0
0
LTYPE
5
16
330
5
100
AcDbSymbolTableRecord
100
AcDbLinetypeTableRecord
2
CONTINUOUS
70
0
3
Solid line
72
65
73
0
40
0
0
LTYPE
5
40
330
5
100
AcDbSymbolTableRecord
100
AcDbLinetypeTableRecord
2
DASHED
70
0
3
DASHED
72
65
73
2
40
1.417323
49
0.944882
74
0
49
-0.472441
74
0
0
ENDTAB
0
TABLE
2
LAYER
5
2
330
0
100
AcDbSymbolTable
70
10
0
LAYER
5
10
330
2
100
AcDbSymbolTableRecord
100
AcDbLayerTableRecord
2
0
70
0
62
7
6
CONTINUOUS
370
-3
0
LAYER
5
50
330
2
100
AcDbSymbolTableRecord
100
AcDbLayerTableRecord
2
S-DETL-PATT
70
0
62
7
6
CONTINUOUS
370
9
0
LAYER
5
51
330
2
100
AcDbSymbolTableRecord
100
AcDbLayerTableRecord
2
S-DETL-BYND
70
0
62
7
6
CONTINUOUS
370
25
0
LAYER
5
52
330
2
100
AcDbSymbolTableRecord
100
AcDbLayerTableRecord
2
S-DETL-CUT
70
0
62
7
6
CONTINUOUS
370
50
0
LAYER
5
53
330
2
100
AcDbSymbolTableRecord
100
AcDbLayerTableRecord
2
S-DETL-STL
70
0
62
7
6
CONTINUOUS
370
35
0
LAYER
5
54
330
2
100
AcDbSymbolTableRecord
100
AcDbLayerTableRecord
2
S-DETL-HIDN
70
0
62
7
6
DASHED
370
18
0
LAYER
5
55
330
2
100
AcDbSymbolTableRecord
100
AcDbLayerTableRecord
2
S-DETL-BRKL
70
0
62
7
6
CONTINUOUS
370
25
0
LAYER
5
56
330
2
100
AcDbSymbolTableRecord
100
AcDbLayerTableRecord
2
S-ANNO-NOTE
70
0
62
7
6
CONTINUOUS
370
18
0
LAYER
5
57
330
2
100
AcDbSymbolTableRecord
100
AcDbLayerTableRecord
2
S-ANNO-DIMS
70
0
62
7
6
CONTINUOUS
370
13
0
LAYER
5
58
330
2
100
AcDbSymbolTableRecord
100
AcDbLayerTableRecord
2
S-ANNO-TTLB
70
0
62
7
6
CONTINUOUS
370
50
0
ENDTAB
0
TABLE
2
STYLE
5
3
330
0
100
AcDbSymbolTable
70
2
0
STYLE
5
11
330
3
100
AcDbSymbolTableRecord
100
AcDbTextStyleTableRecord
2
STANDARD
70
0
40
0
41
1
50
0
71
0
42
0.2
3
txt
4

0
STYLE
5
12
330
3
100
AcDbSymbolTableRecord
100
AcDbTextStyleTableRecord
2
KERF
70
0
40
0
41
1
50
0
71
0
42
0.2
3
romans.shx
4

0
ENDTAB
0
TABLE
2
VIEW
5
6
330
0
100
AcDbSymbolTable
70
0
0
ENDTAB
0
TABLE
2
UCS
5
7
330
0
100
AcDbSymbolTable
70
0
0
ENDTAB
0
TABLE
2
APPID
5
9
330
0
100
AcDbSymbolTable
70
1
0
APPID
5
13
330
9
100
AcDbSymbolTableRecord
100
AcDbRegAppTableRecord
2
ACAD
70
0
0
ENDTAB
0
TABLE
2
DIMSTYLE
5
A
330
0
100
AcDbSymbolTable
70
1
100
AcDbDimStyleTable
71
1
0
DIMSTYLE
105
17
330
A
100
AcDbSymbolTableRecord
100
AcDbDimStyleTableRecord
2
STANDARD
70
0
340
17
0
ENDTAB
0
TABLE
2
BLOCK_RECORD
5
1
330
0
100
AcDbSymbolTable
70
2
0
BLOCK_RECORD
5
1F
330
1
100
AcDbSymbolTableRecord
100
AcDbBlockTableRecord
2
*Model_Space
70
0
280
1
281
0
0
BLOCK_RECORD
5
1B
330
1
100
AcDbSymbolTableRecord
100
AcDbBlockTableRecord
2
*Paper_Space
70
0
280
1
281
0
0
ENDTAB
0
ENDSEC
0
SECTION
2
BLOCKS
0
BLOCK
5
20
330
1F
100
AcDbEntity
8
0
100
AcDbBlockBegin
2
*Model_Space
70
0
10
0
20
0
30
0
3
*Model_Space
1

0
ENDBLK
5
21
330
1F
100
AcDbEntity
8
0
100
AcDbBlockEnd
0
BLOCK
5
22
330
1B
100
AcDbEntity
67
1
8
0
100
AcDbBlockBegin
2
*Paper_Space
70
0
10
0
20
0
30
0
3
*Paper_Space
1

0
ENDBLK
5
23
330
1B
100
AcDbEntity
67
1
8
0
100
AcDbBlockEnd
0
ENDSEC
0
SECTION
2
ENTITIES
0
HATCH
5
100
330
1F
100
AcDbEntity
8
S-DETL-PATT
370
9
100
AcDbHatch
10
0
20
0
30
0
210
0
220
0
230
1
2
ANSI31
70
0
71
0
91
1
92
3
72
0
73
1
93
4
10
1.25
20
-28
10
1.25
20
-24
10
0
20
-24
10
0
20
-28
97
0
75
0
76
1
52
0
41
1
77
0
78
1
53
45
43
0
44
0
45
0
46
1.125
79
0
98
0
0
HATCH
5
101
330
1F
100
AcDbEntity
8
S-DETL-PATT
370
9
100
AcDbHatch
10
0
20
0
30
0
210
0
220
0
230
1
2
ANSI31
70
0
71
0
91
1
92
3
72
0
73
1
93
4
10
7.625
20
-28
10
7.625
20
-24
10
6.375
20
-24
10
6.375
20
-28
97
0
75
0
76
1
52
0
41
1
77
0
78
1
53
45
43
0
44
0
45
0
46
1.125
79
0
98
0
0
HATCH
5
102
330
1F
100
AcDbEntity
8
S-DETL-PATT
370
9
100
AcDbHatch
10
0
20
0
30
0
210
0
220
0
230
1
2
KERF-CONC
70
0
71
0
91
1
92
3
72
0
73
1
93
4
10
6.375
20
-28
10
6.375
20
-24
10
1.25
20
-24
10
1.25
20
-28
97
0
75
0
76
1
52
0
41
1
77
0
78
5
53
0
43
0
44
0
45
0.8433
46
0.7299
79
2
49
0
49
-1.6875
53
0
43
0.423
44
0.36
45
0.8433
46
0.7299
79
2
49
0
49
-1.6875
53
60
43
0.99
44
0.18
45
2.25
46
1.9485
79
2
49
0.315
49
-4.185
53
180
43
1.305
44
0.45
45
2.25
46
1.9485
79
2
49
0.315
49
-4.185
53
300
43
0.99
44
0.45
45
2.25
46
1.9485
79
2
49
0.315
49
-4.185
98
0
0
HATCH
5
103
330
1F
100
AcDbEntity
8
S-DETL-PATT
370
9
100
AcDbHatch
10
0
20
0
30
0
210
0
220
0
230
1
2
ANSI31
70
0
71
0
91
1
92
3
72
0
73
1
93
4
10
0
20
-23.625
10
1.25
20
-23.625
10
1.25
20
-16
10
0
20
-16
97
0
75
0
76
1
52
0
41
1
77
0
78
1
53
45
43
0
44
0
45
0
46
1.125
79
0
98
0
0
HATCH
5
104
330
1F
100
AcDbEntity
8
S-DETL-PATT
370
9
100
AcDbHatch
10
0
20
0
30
0
210
0
220
0
230
1
2
ANSI31
70
0
71
0
91
1
92
3
72
0
73
1
93
4
10
6.375
20
-23.625
10
7.625
20
-23.625
10
7.625
20
-16
10
6.375
20
-16
97
0
75
0
76
1
52
0
41
1
77
0
78
1
53
45
43
0
44
0
45
0
46
1.125
79
0
98
0
0
HATCH
5
105
330
1F
100
AcDbEntity
8
S-DETL-PATT
370
9
100
AcDbHatch
10
0
20
0
30
0
210
0
220
0
230
1
2
KERF-CONC
70
0
71
0
91
1
92
3
72
0
73
1
93
4
10
1.25
20
-23.625
10
6.375
20
-23.625
10
6.375
20
-16
10
1.25
20
-16
97
0
75
0
76
1
52
0
41
1
77
0
78
5
53
0
43
0
44
0
45
0.8433
46
0.7299
79
2
49
0
49
-1.6875
53
0
43
0.423
44
0.36
45
0.8433
46
0.7299
79
2
49
0
49
-1.6875
53
60
43
0.99
44
0.18
45
2.25
46
1.9485
79
2
49
0.315
49
-4.185
53
180
43
1.305
44
0.45
45
2.25
46
1.9485
79
2
49
0.315
49
-4.185
53
300
43
0.99
44
0.45
45
2.25
46
1.9485
79
2
49
0.315
49
-4.185
98
0
0
HATCH
5
106
330
1F
100
AcDbEntity
8
S-DETL-PATT
370
9
100
AcDbHatch
10
0
20
0
30
0
210
0
220
0
230
1
2
ANSI31
70
0
71
0
91
1
92
3
72
0
73
1
93
4
10
0
20
-15.625
10
1.25
20
-15.625
10
1.25
20
-8
10
0
20
-8
97
0
75
0
76
1
52
0
41
1
77
0
78
1
53
45
43
0
44
0
45
0
46
1.125
79
0
98
0
0
HATCH
5
107
330
1F
100
AcDbEntity
8
S-DETL-PATT
370
9
100
AcDbHatch
10
0
20
0
30
0
210
0
220
0
230
1
2
ANSI31
70
0
71
0
91
1
92
3
72
0
73
1
93
4
10
6.375
20
-15.625
10
7.625
20
-15.625
10
7.625
20
-8
10
6.375
20
-8
97
0
75
0
76
1
52
0
41
1
77
0
78
1
53
45
43
0
44
0
45
0
46
1.125
79
0
98
0
0
HATCH
5
108
330
1F
100
AcDbEntity
8
S-DETL-PATT
370
9
100
AcDbHatch
10
0
20
0
30
0
210
0
220
0
230
1
2
KERF-CONC
70
0
71
0
91
1
92
3
72
0
73
1
93
4
10
1.25
20
-15.625
10
6.375
20
-15.625
10
6.375
20
-8
10
1.25
20
-8
97
0
75
0
76
1
52
0
41
1
77
0
78
5
53
0
43
0
44
0
45
0.8433
46
0.7299
79
2
49
0
49
-1.6875
53
0
43
0.423
44
0.36
45
0.8433
46
0.7299
79
2
49
0
49
-1.6875
53
60
43
0.99
44
0.18
45
2.25
46
1.9485
79
2
49
0.315
49
-4.185
53
180
43
1.305
44
0.45
45
2.25
46
1.9485
79
2
49
0.315
49
-4.185
53
300
43
0.99
44
0.45
45
2.25
46
1.9485
79
2
49
0.315
49
-4.185
98
0
0
HATCH
5
109
330
1F
100
AcDbEntity
8
S-DETL-PATT
370
9
100
AcDbHatch
10
0
20
0
30
0
210
0
220
0
230
1
2
ANSI31
70
0
71
0
91
1
92
3
72
0
73
1
93
4
10
0
20
-7.625
10
1.25
20
-7.625
10
1.25
20
0
10
0
20
0
97
0
75
0
76
1
52
0
41
1
77
0
78
1
53
45
43
0
44
0
45
0
46
1.125
79
0
98
0
0
HATCH
5
10A
330
1F
100
AcDbEntity
8
S-DETL-PATT
370
9
100
AcDbHatch
10
0
20
0
30
0
210
0
220
0
230
1
2
ANSI31
70
0
71
0
91
1
92
3
72
0
73
1
93
4
10
6.375
20
-7.625
10
7.625
20
-7.625
10
7.625
20
0
10
6.375
20
0
97
0
75
0
76
1
52
0
41
1
77
0
78
1
53
45
43
0
44
0
45
0
46
1.125
79
0
98
0
0
HATCH
5
10B
330
1F
100
AcDbEntity
8
S-DETL-PATT
370
9
100
AcDbHatch
10
0
20
0
30
0
210
0
220
0
230
1
2
KERF-CONC
70
0
71
0
91
2
92
3
72
0
73
1
93
60
10
1.25
20
-7.625
10
6.375
20
-7.625
10
6.375
20
0
10
4.125
20
0
10
4.125
20
-6.0625
10
4.143161
20
-6.212072
10
4.19659
20
-6.352952
10
4.282181
20
-6.476952
10
4.39496
20
-6.576865
10
4.528372
20
-6.646885
10
4.674665
20
-6.682943
10
4.825335
20
-6.682943
10
4.971628
20
-6.646885
10
5.10504
20
-6.576865
10
5.217819
20
-6.476952
10
5.30341
20
-6.352952
10
5.356839
20
-6.212072
10
5.375
20
-6.0625
10
5.375
20
-5.8125
10
5.356154
20
-5.919381
10
5.301889
20
-6.013371
10
5.21875
20
-6.083133
10
5.116765
20
-6.120252
10
5.008235
20
-6.120252
10
4.90625
20
-6.083133
10
4.823111
20
-6.013371
10
4.768846
20
-5.919381
10
4.75
20
-5.8125
10
4.768846
20
-5.705619
10
4.823111
20
-5.611629
10
4.90625
20
-5.541867
10
5.008235
20
-5.504748
10
5.116765
20
-5.504748
10
5.21875
20
-5.541867
10
5.301889
20
-5.611629
10
5.356154
20
-5.705619
10
5.375
20
-5.8125
10
5.375
20
-3.0625
10
6
20
-3.0625
10
6
20
-6.0625
10
5.98101
20
-6.27956
10
5.924616
20
-6.490025
10
5.832532
20
-6.6875
10
5.707556
20
-6.865985
10
5.553485
20
-7.020056
10
5.375
20
-7.145032
10
5.177525
20
-7.237116
10
4.96706
20
-7.29351
10
4.75
20
-7.3125
10
4.53294
20
-7.29351
10
4.322475
20
-7.237116
10
4.125
20
-7.145032
10
3.946515
20
-7.020056
10
3.792444
20
-6.865985
10
3.667468
20
-6.6875
10
3.575384
20
-6.490025
10
3.51899
20
-6.27956
10
3.5
20
-6.0625
10
3.5
20
0
10
1.25
20
0
97
0
92
2
72
0
73
1
93
18
10
2.856154
20
-5.705619
10
2.875
20
-5.8125
10
2.856154
20
-5.919381
10
2.801889
20
-6.013371
10
2.71875
20
-6.083133
10
2.616765
20
-6.120252
10
2.508235
20
-6.120252
10
2.40625
20
-6.083133
10
2.323111
20
-6.013371
10
2.268846
20
-5.919381
10
2.25
20
-5.8125
10
2.268846
20
-5.705619
10
2.323111
20
-5.611629
10
2.40625
20
-5.541867
10
2.508235
20
-5.504748
10
2.616765
20
-5.504748
10
2.71875
20
-5.541867
10
2.801889
20
-5.611629
97
0
75
0
76
1
52
0
41
1
77
0
78
5
53
0
43
0
44
0
45
0.8433
46
0.7299
79
2
49
0
49
-1.6875
53
0
43
0.423
44
0.36
45
0.8433
46
0.7299
79
2
49
0
49
-1.6875
53
60
43
0.99
44
0.18
45
2.25
46
1.9485
79
2
49
0.315
49
-4.185
53
180
43
1.305
44
0.45
45
2.25
46
1.9485
79
2
49
0.315
49
-4.185
53
300
43
0.99
44
0.45
45
2.25
46
1.9485
79
2
49
0.315
49
-4.185
98
0
0
HATCH
5
10C
330
1F
100
AcDbEntity
8
S-DETL-PATT
370
9
100
AcDbHatch
10
0
20
0
30
0
210
0
220
0
230
1
2
KERF-SAND
70
0
71
0
91
1
92
3
72
0
73
1
93
4
10
7.625
20
1
10
30
20
1
10
30
20
1.5
10
7.625
20
1.5
97
0
75
0
76
1
52
0
41
1
77
0
78
2
53
0
43
0
44
0
45
0.22536
46
0.38952
79
2
49
0
49
-0.45
53
0
43
0.11232
44
0.1944
45
0.22536
46
0.38952
79
2
49
0
49
-0.45
98
0
0
HATCH
5
10D
330
1F
100
AcDbEntity
8
S-DETL-CUT
370
50
100
AcDbHatch
10
0
20
0
30
0
210
0
220
0
230
1
2
SOLID
70
1
71
0
91
1
92
3
72
0
73
1
93
4
10
-19.3125
20
-3.185676
10
0
20
-3.185676
10
0
20
-2.810676
10
-19.3125
20
-2.810676
97
0
75
0
76
1
98
0
0
HATCH
5
10E
330
1F
100
AcDbEntity
8
S-DETL-CUT
370
50
100
AcDbHatch
10
0
20
0
30
0
210
0
220
0
230
1
2
SOLID
70
1
71
0
91
1
92
3
72
0
73
1
93
4
10
-17.8125
20
2.689324
10
30
20
18.626824
10
30
20
19.087989
10
-17.95085
20
3.104373
97
0
75
0
76
1
98
0
0
HATCH
5
10F
330
1F
100
AcDbEntity
8
S-DETL-STL
370
50
100
AcDbHatch
10
0
20
0
30
0
210
0
220
0
230
1
2
SOLID
70
1
71
0
91
1
92
3
72
1
73
1
93
2
10
2.875
20
-5.8125
42
1
10
2.25
20
-5.8125
42
1
97
0
75
0
76
1
98
0
0
HATCH
5
110
330
1F
100
AcDbEntity
8
S-DETL-STL
370
50
100
AcDbHatch
10
0
20
0
30
0
210
0
220
0
230
1
2
SOLID
70
1
71
0
91
1
92
3
72
1
73
1
93
2
10
5.375
20
-5.8125
42
1
10
4.75
20
-5.8125
42
1
97
0
75
0
76
1
98
0
0
HATCH
5
111
330
1F
100
AcDbEntity
8
S-DETL-STL
370
50
100
AcDbHatch
10
0
20
0
30
0
210
0
220
0
230
1
2
SOLID
70
1
71
0
91
1
92
3
72
1
73
1
93
8
10
4.125
20
2.75
42
0
10
4.125
20
-6.0625
42
1
10
5.375
20
-6.0625
42
0
10
5.375
20
-3.0625
42
0
10
6
20
-3.0625
42
0
10
6
20
-6.0625
42
-1
10
3.5
20
-6.0625
42
0
10
3.5
20
2.75
42
0
97
0
75
0
76
1
98
0
0
HATCH
5
112
330
1F
100
AcDbEntity
8
S-DETL-STL
370
50
100
AcDbHatch
10
0
20
0
30
0
210
0
220
0
230
1
2
SOLID
70
1
71
0
91
1
92
3
72
0
73
1
93
4
10
2.3125
20
1.828125
10
5.3125
20
1.828125
10
5.3125
20
2.078125
10
2.3125
20
2.078125
97
0
75
0
76
1
98
0
0
HATCH
5
113
330
1F
100
AcDbEntity
8
S-DETL-STL
370
50
100
AcDbHatch
10
0
20
0
30
0
210
0
220
0
230
1
2
SOLID
70
1
71
0
91
1
92
3
72
0
73
1
93
4
10
3.25
20
2.078125
10
4.375
20
2.078125
10
4.375
20
2.625
10
3.25
20
2.625
97
0
75
0
76
1
98
0
0
LWPOLYLINE
5
114
330
1F
100
AcDbEntity
8
S-DETL-BYND
370
25
100
AcDbPolyline
90
3
70
0
43
0
10
1.25
20
-28
10
1.25
20
-24
10
0
20
-24
0
LWPOLYLINE
5
115
330
1F
100
AcDbEntity
8
S-DETL-BYND
370
25
100
AcDbPolyline
90
3
70
0
43
0
10
7.625
20
-24
10
6.375
20
-24
10
6.375
20
-28
0
LWPOLYLINE
5
116
330
1F
100
AcDbEntity
8
S-DETL-BYND
370
25
100
AcDbPolyline
90
2
70
0
43
0
10
6.375
20
-24
10
1.25
20
-24
0
LWPOLYLINE
5
117
330
1F
100
AcDbEntity
8
S-DETL-BYND
370
25
100
AcDbPolyline
90
4
70
0
43
0
10
7.625
20
-23.625
10
6.375
20
-23.625
10
1.25
20
-23.625
10
0
20
-23.625
0
LWPOLYLINE
5
118
330
1F
100
AcDbEntity
8
S-DETL-BYND
370
25
100
AcDbPolyline
90
3
70
0
43
0
10
1.25
20
-23.625
10
1.25
20
-16
10
0
20
-16
0
LWPOLYLINE
5
119
330
1F
100
AcDbEntity
8
S-DETL-BYND
370
25
100
AcDbPolyline
90
3
70
0
43
0
10
7.625
20
-16
10
6.375
20
-16
10
6.375
20
-23.625
0
LWPOLYLINE
5
11A
330
1F
100
AcDbEntity
8
S-DETL-BYND
370
25
100
AcDbPolyline
90
2
70
0
43
0
10
6.375
20
-16
10
1.25
20
-16
0
LWPOLYLINE
5
11B
330
1F
100
AcDbEntity
8
S-DETL-BYND
370
25
100
AcDbPolyline
90
4
70
0
43
0
10
7.625
20
-15.625
10
6.375
20
-15.625
10
1.25
20
-15.625
10
0
20
-15.625
0
LWPOLYLINE
5
11C
330
1F
100
AcDbEntity
8
S-DETL-BYND
370
25
100
AcDbPolyline
90
3
70
0
43
0
10
1.25
20
-15.625
10
1.25
20
-8
10
0
20
-8
0
LWPOLYLINE
5
11D
330
1F
100
AcDbEntity
8
S-DETL-BYND
370
25
100
AcDbPolyline
90
3
70
0
43
0
10
7.625
20
-8
10
6.375
20
-8
10
6.375
20
-15.625
0
LWPOLYLINE
5
11E
330
1F
100
AcDbEntity
8
S-DETL-BYND
370
25
100
AcDbPolyline
90
2
70
0
43
0
10
6.375
20
-8
10
1.25
20
-8
0
LWPOLYLINE
5
11F
330
1F
100
AcDbEntity
8
S-DETL-BYND
370
25
100
AcDbPolyline
90
4
70
0
43
0
10
7.625
20
-7.625
10
6.375
20
-7.625
10
1.25
20
-7.625
10
0
20
-7.625
0
LWPOLYLINE
5
120
330
1F
100
AcDbEntity
8
S-DETL-BYND
370
25
100
AcDbPolyline
90
2
70
0
43
0
10
1.25
20
-7.625
10
1.25
20
0
0
LWPOLYLINE
5
121
330
1F
100
AcDbEntity
8
S-DETL-BYND
370
25
100
AcDbPolyline
90
2
70
0
43
0
10
6.375
20
0
10
6.375
20
-7.625
0
LWPOLYLINE
5
122
330
1F
100
AcDbEntity
8
S-DETL-BYND
370
25
100
AcDbPolyline
90
2
70
0
43
0
10
0.1875
20
0
10
7.4375
20
1.5
0
LWPOLYLINE
5
123
330
1F
100
AcDbEntity
8
S-DETL-BYND
370
25
100
AcDbPolyline
90
2
70
0
43
0
10
7.4375
20
0
10
0.1875
20
1.5
0
LWPOLYLINE
5
124
330
1F
100
AcDbEntity
8
S-DETL-BYND
370
25
100
AcDbPolyline
90
2
70
0
43
0
10
0.1875
20
1.5
10
1.6875
20
7
0
LWPOLYLINE
5
125
330
1F
100
AcDbEntity
8
S-DETL-BYND
370
25
100
AcDbPolyline
90
2
70
0
43
0
10
-19.3125
20
-2.810676
10
-17.8125
20
2.689324
0
LWPOLYLINE
5
126
330
1F
100
AcDbEntity
8
S-DETL-BYND
370
25
100
AcDbPolyline
90
2
70
0
43
0
10
-17.8125
20
-2.810676
10
-19.3125
20
2.689324
0
LWPOLYLINE
5
127
330
1F
100
AcDbEntity
8
S-DETL-BYND
370
25
100
AcDbPolyline
90
2
70
0
43
0
10
-20.0625
20
-2.810676
10
-19.3125
20
2.689324
0
LWPOLYLINE
5
128
330
1F
100
AcDbEntity
8
S-DETL-BYND
370
25
100
AcDbPolyline
90
2
70
0
43
0
10
4.375
20
2.078125
10
3.25
20
2.078125
0
LWPOLYLINE
5
129
330
1F
100
AcDbEntity
8
S-DETL-BYND
370
25
100
AcDbPolyline
90
2
70
0
43
0
10
7.4375
20
1.5
10
7.625
20
1.5
0
LWPOLYLINE
5
12A
330
1F
100
AcDbEntity
8
S-DETL-BYND
370
25
100
AcDbPolyline
90
2
70
0
43
0
10
30
20
5
10
1.6875
20
5
0
LWPOLYLINE
5
12B
330
1F
100
AcDbEntity
8
S-DETL-BYND
370
25
100
AcDbPolyline
90
2
70
0
43
0
10
1.6875
20
5.5
10
30
20
14.9375
0
LWPOLYLINE
5
12C
330
1F
100
AcDbEntity
8
S-DETL-BYND
370
25
100
AcDbPolyline
90
2
70
0
43
0
10
-17.8125
20
-1
10
0.1875
20
5
0
LWPOLYLINE
5
12D
330
1F
100
AcDbEntity
8
S-DETL-STL
370
35
100
AcDbPolyline
90
3
70
0
43
0
10
1.6875
20
4.75
10
2.375
20
4.75
10
2.375
20
2.078125
0
LWPOLYLINE
5
12E
330
1F
100
AcDbEntity
8
S-DETL-STL
370
35
100
AcDbPolyline
90
2
70
0
43
0
10
2.375
20
1.828125
10
2.375
20
1.5
0
LWPOLYLINE
5
12F
330
1F
100
AcDbEntity
8
S-DETL-CUT
370
35
100
AcDbPolyline
90
2
70
0
43
0
10
-17.990378
20
3.222958
10
30
20
19.219751
0
LWPOLYLINE
5
130
330
1F
100
AcDbEntity
8
S-DETL-CUT
370
50
100
AcDbPolyline
90
18
70
0
43
0
10
7.625
20
-28
10
7.625
20
-24
10
7.625
20
-23.625
10
7.625
20
-16
10
7.625
20
-15.625
10
7.625
20
-8
10
7.625
20
-7.625
10
7.625
20
0
10
6.375
20
0
10
1.25
20
0
10
0
20
0
10
0
20
-7.625
10
0
20
-8
10
0
20
-15.625
10
0
20
-16
10
0
20
-23.625
10
0
20
-24
10
0
20
-28
0
LWPOLYLINE
5
131
330
1F
100
AcDbEntity
8
S-DETL-CUT
370
50
100
AcDbPolyline
90
4
70
0
43
0
10
7.4375
20
0
10
7.4375
20
1.5
10
0.1875
20
1.5
10
0.1875
20
0
0
LWPOLYLINE
5
132
330
1F
100
AcDbEntity
8
S-DETL-CUT
370
50
100
AcDbPolyline
90
4
70
0
43
0
10
1.6875
20
1.5
10
1.6875
20
7
10
0.1875
20
7
10
0.1875
20
1.5
0
LWPOLYLINE
5
133
330
1F
100
AcDbEntity
8
S-DETL-CUT
370
50
100
AcDbPolyline
90
4
70
1
43
0
10
-19.3125
20
-2.810676
10
-17.8125
20
-2.810676
10
-17.8125
20
2.689324
10
-19.3125
20
2.689324
0
LWPOLYLINE
5
134
330
1F
100
AcDbEntity
8
S-DETL-CUT
370
50
100
AcDbPolyline
90
4
70
0
43
0
10
-19.3125
20
2.689324
10
-20.0625
20
2.689324
10
-20.0625
20
-2.810676
10
-19.3125
20
-2.810676
0
LWPOLYLINE
5
135
330
1F
100
AcDbEntity
8
S-DETL-CUT
370
50
100
AcDbPolyline
90
3
70
0
43
0
10
-19.3125
20
-2.810676
10
-19.3125
20
-3.185676
10
0
20
-3.185676
0
LWPOLYLINE
5
136
330
1F
100
AcDbEntity
8
S-DETL-CUT
370
50
100
AcDbPolyline
90
2
70
0
43
0
10
0
20
-2.810676
10
-17.8125
20
-2.810676
0
LWPOLYLINE
5
137
330
1F
100
AcDbEntity
8
S-DETL-CUT
370
50
100
AcDbPolyline
90
4
70
0
43
0
10
30
20
19.087989
10
-17.95085
20
3.104373
10
-17.8125
20
2.689324
10
30
20
18.626824
0
LWPOLYLINE
5
138
330
1F
100
AcDbEntity
8
S-DETL-CUT
370
50
100
AcDbPolyline
90
4
70
0
43
0
10
30
20
1.5
10
7.625
20
1.5
10
7.625
20
1
10
30
20
1
0
LWPOLYLINE
5
139
330
1F
100
AcDbEntity
8
S-DETL-STL
370
35
100
AcDbPolyline
90
2
70
1
43
0
10
2.875
20
-5.8125
42
1
10
2.25
20
-5.8125
42
1
0
LWPOLYLINE
5
13A
330
1F
100
AcDbEntity
8
S-DETL-STL
370
35
100
AcDbPolyline
90
2
70
1
43
0
10
5.375
20
-5.8125
42
1
10
4.75
20
-5.8125
42
1
0
LWPOLYLINE
5
13B
330
1F
100
AcDbEntity
8
S-DETL-STL
370
35
100
AcDbPolyline
90
8
70
1
43
0
10
4.125
20
2.75
10
4.125
20
-6.0625
42
1
10
5.375
20
-6.0625
10
5.375
20
-3.0625
10
6
20
-3.0625
10
6
20
-6.0625
42
-1
10
3.5
20
-6.0625
10
3.5
20
2.75
0
LWPOLYLINE
5
13C
330
1F
100
AcDbEntity
8
S-DETL-STL
370
35
100
AcDbPolyline
90
8
70
1
43
0
10
3.25
20
2.078125
10
2.3125
20
2.078125
10
2.3125
20
1.828125
10
5.3125
20
1.828125
10
5.3125
20
2.078125
10
4.375
20
2.078125
10
4.375
20
2.625
10
3.25
20
2.625
0
LWPOLYLINE
5
13D
330
1F
100
AcDbEntity
8
S-DETL-STL
370
35
100
AcDbPolyline
90
2
70
0
43
0
10
3.5
20
-28
10
3.5
20
-6.0625
0
LWPOLYLINE
5
13E
330
1F
100
AcDbEntity
8
S-DETL-STL
370
35
100
AcDbPolyline
90
2
70
0
43
0
10
3.5
20
-2
10
4.125
20
-2
0
LWPOLYLINE
5
13F
330
1F
100
AcDbEntity
8
S-DETL-STL
370
35
100
AcDbPolyline
90
2
70
0
43
0
10
4.125
20
-6.0625
10
4.125
20
-28
0
LWPOLYLINE
5
140
330
1F
100
AcDbEntity
8
S-DETL-HIDN
6
DASHED
370
18
100
AcDbPolyline
90
4
70
1
43
0
10
0.4375
20
1.75
10
5.4375
20
1.75
10
5.4375
20
5.5
10
0.4375
20
5.5
0
LWPOLYLINE
5
141
330
1F
100
AcDbEntity
8
S-DETL-BRKL
370
25
100
AcDbPolyline
90
6
70
0
43
0
10
30
20
0.25
10
30
20
0.55
10
30.4
20
0.97
10
29.6
20
1.53
10
30
20
1.95
10
30
20
2.25
0
LWPOLYLINE
5
142
330
1F
100
AcDbEntity
8
S-DETL-BRKL
370
25
100
AcDbPolyline
90
6
70
0
43
0
10
30
20
17.876824
10
30
20
18.170999
10
30.392233
20
18.582844
10
29.607767
20
19.13197
10
30
20
19.543815
10
30
20
19.837989
0
LWPOLYLINE
5
143
330
1F
100
AcDbEntity
8
S-DETL-BRKL
370
25
100
AcDbPolyline
90
6
70
0
43
0
10
-0.75
20
-28
10
0.8125
20
-28
10
2.6125
20
-26.5
10
5.0125
20
-29.5
10
6.8125
20
-28
10
8.375
20
-28
0
TEXT
5
144
330
1F
100
AcDbEntity
8
S-ANNO-NOTE
370
18
100
AcDbText
10
34.5
20
12.458889
30
0
40
1.125
1
ASPHALT SHINGLES ON #30
7
KERF
100
AcDbText
0
TEXT
5
145
330
1F
100
AcDbEntity
8
S-ANNO-NOTE
370
18
100
AcDbText
10
34.5
20
10.658889
30
0
40
1.125
1
UNDERLAYMENT W/ DRIP EDGE AT
7
KERF
100
AcDbText
0
TEXT
5
146
330
1F
100
AcDbEntity
8
S-ANNO-NOTE
370
18
100
AcDbText
10
34.5
20
8.858889
30
0
40
1.125
1
EAVE (IRC R905.1.1)*
7
KERF
100
AcDbText
0
LWPOLYLINE
5
147
330
1F
100
AcDbEntity
8
S-ANNO-NOTE
370
18
100
AcDbPolyline
90
3
70
0
43
0
10
34.02
20
11.221389
10
32.52
20
11.221389
10
7.129806
20
11.221389
0
HATCH
5
148
330
1F
100
AcDbEntity
8
S-ANNO-NOTE
370
50
100
AcDbHatch
10
0
20
0
30
0
210
0
220
0
230
1
2
SOLID
70
1
71
0
91
1
92
3
72
0
73
1
93
3
10
6.004806
20
11.221389
10
7.129806
20
10.846389
10
7.129806
20
11.596389
97
0
75
0
76
1
98
0
0
TEXT
5
149
330
1F
100
AcDbEntity
8
S-ANNO-NOTE
370
18
100
AcDbText
10
34.5
20
6.983889
30
0
40
1.125
1
7/16" OSB ROOF SHEATHING
7
KERF
100
AcDbText
0
LWPOLYLINE
5
14A
330
1F
100
AcDbEntity
8
S-ANNO-NOTE
370
18
100
AcDbPolyline
90
3
70
0
43
0
10
34.02
20
7.546389
10
32.52
20
7.546389
10
7.175337
20
10.736729
0
HATCH
5
14B
330
1F
100
AcDbEntity
8
S-ANNO-NOTE
370
50
100
AcDbHatch
10
0
20
0
30
0
210
0
220
0
230
1
2
SOLID
70
1
71
0
91
1
92
3
72
0
73
1
93
3
10
6.059146
20
10.877233
10
7.128503
20
10.364665
10
7.222172
20
11.108793
97
0
75
0
76
1
98
0
0
TEXT
5
14C
330
1F
100
AcDbEntity
8
S-ANNO-NOTE
370
18
100
AcDbText
10
34.5
20
5.108889
30
0
40
1.125
1
PRE-ENGINEERED WOOD TRUSS @
7
KERF
100
AcDbText
0
TEXT
5
14D
330
1F
100
AcDbEntity
8
S-ANNO-NOTE
370
18
100
AcDbText
10
34.5
20
3.308889
30
0
40
1.125
1
24" O.C. PER MFR. DWGS (IRC
7
KERF
100
AcDbText
0
TEXT
5
14E
330
1F
100
AcDbEntity
8
S-ANNO-NOTE
370
18
100
AcDbText
10
34.5
20
1.508889
30
0
40
1.125
1
R802.10)*
7
KERF
100
AcDbText
0
LWPOLYLINE
5
14F
330
1F
100
AcDbEntity
8
S-ANNO-NOTE
370
18
100
AcDbPolyline
90
3
70
0
43
0
10
34.02
20
3.871389
10
32.52
20
3.871389
10
7.277587
20
8.645066
0
HATCH
5
150
330
1F
100
AcDbEntity
8
S-ANNO-NOTE
370
50
100
AcDbHatch
10
0
20
0
30
0
210
0
220
0
230
1
2
SOLID
70
1
71
0
91
1
92
3
72
0
73
1
93
3
10
6.17218
20
8.854113
10
7.207905
20
8.276597
10
7.34727
20
9.013535
97
0
75
0
76
1
98
0
0
TEXT
5
151
330
1F
100
AcDbEntity
8
S-ANNO-NOTE
370
18
100
AcDbText
10
-54.857143
20
0.9125
30
0
40
1.125
1
SIMPSON H2.5A HURRICANE TIE
7
KERF
100
AcDbText
0
TEXT
5
152
330
1F
100
AcDbEntity
8
S-ANNO-NOTE
370
18
100
AcDbText
10
-54.857143
20
-0.8875
30
0
40
1.125
1
@ EA. TRUSS, INSTALL PER
7
KERF
100
AcDbText
0
TEXT
5
153
330
1F
100
AcDbEntity
8
S-ANNO-NOTE
370
18
100
AcDbText
10
-54.857143
20
-2.6875
30
0
40
1.125
1
MFR. (IRC R802.11.1)*
7
KERF
100
AcDbText
0
LWPOLYLINE
5
154
330
1F
100
AcDbEntity
8
S-ANNO-NOTE
370
18
100
AcDbPolyline
90
3
70
0
43
0
10
-28.02
20
-0.325
10
-26.52
20
-0.325
10
0.912213
20
2.997966
0
HATCH
5
155
330
1F
100
AcDbEntity
8
S-ANNO-NOTE
370
50
100
AcDbHatch
10
0
20
0
30
0
210
0
220
0
230
1
2
SOLID
70
1
71
0
91
1
92
3
72
0
73
1
93
3
10
2.029049
20
3.133253
10
0.867118
20
3.370245
10
0.957309
20
2.625687
97
0
75
0
76
1
98
0
0
TEXT
5
156
330
1F
100
AcDbEntity
8
S-ANNO-NOTE
370
18
100
AcDbText
10
-53.785714
20
4.5875
30
0
40
1.125
1
2X6 BIRD BLOCKING BETWEEN
7
KERF
100
AcDbText
0
TEXT
5
157
330
1F
100
AcDbEntity
8
S-ANNO-NOTE
370
18
100
AcDbText
10
-53.785714
20
2.7875
30
0
40
1.125
1
TRUSSES
7
KERF
100
AcDbText
0
LWPOLYLINE
5
158
330
1F
100
AcDbEntity
8
S-ANNO-NOTE
370
18
100
AcDbPolyline
90
3
70
0
43
0
10
-28.02
20
4.25
10
-26.52
20
4.25
10
-0.1875
20
4.25
0
HATCH
5
159
330
1F
100
AcDbEntity
8
S-ANNO-NOTE
370
50
100
AcDbHatch
10
0
20
0
30
0
210
0
220
0
230
1
2
SOLID
70
1
71
0
91
1
92
3
72
0
73
1
93
3
10
0.9375
20
4.25
10
-0.1875
20
4.625
10
-0.1875
20
3.875
97
0
75
0
76
1
98
0
0
TEXT
5
15A
330
1F
100
AcDbEntity
8
S-ANNO-NOTE
370
18
100
AcDbText
10
34.5
20
-2.241111
30
0
40
1.125
1
2X8 PT SILL PLATE W/ 5/8"
7
KERF
100
AcDbText
0
TEXT
5
15B
330
1F
100
AcDbEntity
8
S-ANNO-NOTE
370
18
100
AcDbText
10
34.5
20
-4.041111
30
0
40
1.125
1
DIA. J-BOLTS @ 48" O.C., 7"
7
KERF
100
AcDbText
0
TEXT
5
15C
330
1F
100
AcDbEntity
8
S-ANNO-NOTE
370
18
100
AcDbText
10
34.5
20
-5.841111
30
0
40
1.125
1
MIN. EMBED. (IRC R403.1.6)*
7
KERF
100
AcDbText
0
LWPOLYLINE
5
15D
330
1F
100
AcDbEntity
8
S-ANNO-NOTE
370
18
100
AcDbPolyline
90
3
70
0
43
0
10
34.02
20
-3.478611
10
32.52
20
-3.478611
10
4.92549
20
0.586057
0
HATCH
5
15E
330
1F
100
AcDbEntity
8
S-ANNO-NOTE
370
50
100
AcDbHatch
10
0
20
0
30
0
210
0
220
0
230
1
2
SOLID
70
1
71
0
91
1
92
3
72
0
73
1
93
3
10
3.8125
20
0.75
10
4.870843
20
0.21506
10
4.980138
20
0.957053
97
0
75
0
76
1
98
0
0
TEXT
5
15F
330
1F
100
AcDbEntity
8
S-ANNO-NOTE
370
18
100
AcDbText
10
34.5
20
-7.716111
30
0
40
1.125
1
GROUTED BOND BEAM W/ (2) #5
7
KERF
100
AcDbText
0
TEXT
5
160
330
1F
100
AcDbEntity
8
S-ANNO-NOTE
370
18
100
AcDbText
10
34.5
20
-9.516111
30
0
40
1.125
1
CONT. HORIZ.
7
KERF
100
AcDbText
0
LWPOLYLINE
5
161
330
1F
100
AcDbEntity
8
S-ANNO-NOTE
370
18
100
AcDbPolyline
90
3
70
0
43
0
10
34.02
20
-8.053611
10
32.52
20
-8.053611
10
6.183771
20
-5.904019
0
HATCH
5
162
330
1F
100
AcDbEntity
8
S-ANNO-NOTE
370
50
100
AcDbHatch
10
0
20
0
30
0
210
0
220
0
230
1
2
SOLID
70
1
71
0
91
1
92
3
72
0
73
1
93
3
10
5.0625
20
-5.8125
10
6.153265
20
-6.277776
10
6.214278
20
-5.530262
97
0
75
0
76
1
98
0
0
TEXT
5
163
330
1F
100
AcDbEntity
8
S-ANNO-NOTE
370
18
100
AcDbText
10
34.5
20
-13.7625
30
0
40
1.125
1
#5 VERT. @ 32" O.C. IN
7
KERF
100
AcDbText
0
TEXT
5
164
330
1F
100
AcDbEntity
8
S-ANNO-NOTE
370
18
100
AcDbText
10
34.5
20
-15.5625
30
0
40
1.125
1
GROUTED CELLS
7
KERF
100
AcDbText
0
LWPOLYLINE
5
165
330
1F
100
AcDbEntity
8
S-ANNO-NOTE
370
18
100
AcDbPolyline
90
3
70
0
43
0
10
34.02
20
-14.1
10
32.52
20
-14.1
10
4.936948
20
-14.964748
0
HATCH
5
166
330
1F
100
AcDbEntity
8
S-ANNO-NOTE
370
50
100
AcDbHatch
10
0
20
0
30
0
210
0
220
0
230
1
2
SOLID
70
1
71
0
91
1
92
3
72
0
73
1
93
3
10
3.8125
20
-15
10
4.948698
20
-15.339564
10
4.925197
20
-14.589932
97
0
75
0
76
1
98
0
0
TEXT
5
167
330
1F
100
AcDbEntity
8
S-ANNO-NOTE
370
18
100
AcDbText
10
34.5
20
-20.375
30
0
40
1.125
1
8" CMU WALL (IRC R606)*
7
KERF
100
AcDbText
0
LWPOLYLINE
5
168
330
1F
100
AcDbEntity
8
S-ANNO-NOTE
370
18
100
AcDbPolyline
90
3
70
0
43
0
10
34.02
20
-19.8125
10
32.52
20
-19.8125
10
4.9375
20
-19.8125
0
HATCH
5
169
330
1F
100
AcDbEntity
8
S-ANNO-NOTE
370
50
100
AcDbHatch
10
0
20
0
30
0
210
0
220
0
230
1
2
SOLID
70
1
71
0
91
1
92
3
72
0
73
1
93
3
10
3.8125
20
-19.8125
10
4.9375
20
-20.1875
10
4.9375
20
-19.4375
97
0
75
0
76
1
98
0
0
TEXT
5
16A
330
1F
100
AcDbEntity
8
S-ANNO-NOTE
370
18
100
AcDbText
10
-47.303571
20
-4.5625
30
0
40
1.125
1
1X6 FASCIA OVER 2X6
7
KERF
100
AcDbText
0
TEXT
5
16B
330
1F
100
AcDbEntity
8
S-ANNO-NOTE
370
18
100
AcDbText
10
-47.303571
20
-6.3625
30
0
40
1.125
1
SUBFASCIA
7
KERF
100
AcDbText
0
LWPOLYLINE
5
16C
330
1F
100
AcDbEntity
8
S-ANNO-NOTE
370
18
100
AcDbPolyline
90
3
70
0
43
0
10
-28.02
20
-4.9
10
-26.52
20
-4.9
10
-20.605551
20
-0.710913
0
HATCH
5
16D
330
1F
100
AcDbEntity
8
S-ANNO-NOTE
370
50
100
AcDbHatch
10
0
20
0
30
0
210
0
220
0
230
1
2
SOLID
70
1
71
0
91
1
92
3
72
0
73
1
93
3
10
-19.6875
20
-0.060676
10
-20.822296
20
-0.404896
10
-20.388805
20
-1.01693
97
0
75
0
76
1
98
0
0
TEXT
5
16E
330
1F
100
AcDbEntity
8
S-ANNO-NOTE
370
18
100
AcDbText
10
-50.410714
20
-8.2375
30
0
40
1.125
1
3/8" PLY. VENTED SOFFIT
7
KERF
100
AcDbText
0
LWPOLYLINE
5
16F
330
1F
100
AcDbEntity
8
S-ANNO-NOTE
370
18
100
AcDbPolyline
90
3
70
0
43
0
10
-28.02
20
-7.675
10
-26.52
20
-7.675
10
-10.740333
20
-3.298825
0
HATCH
5
170
330
1F
100
AcDbEntity
8
S-ANNO-NOTE
370
50
100
AcDbHatch
10
0
20
0
30
0
210
0
220
0
230
1
2
SOLID
70
1
71
0
91
1
92
3
72
0
73
1
93
3
10
-9.65625
20
-2.998176
10
-10.840549
20
-2.937464
10
-10.640117
20
-3.660186
97
0
75
0
76
1
98
0
0
TEXT
5
171
330
1F
100
AcDbEntity
8
S-ANNO-NOTE
370
18
100
AcDbText
10
34.5
20
-0.366111
30
0
40
1.125
1
1/2" GYP. BD. CEILING
7
KERF
100
AcDbText
0
LWPOLYLINE
5
172
330
1F
100
AcDbEntity
8
S-ANNO-NOTE
370
18
100
AcDbPolyline
90
3
70
0
43
0
10
34.02
20
0.196389
10
32.52
20
0.196389
10
19.934191
20
1.163783
0
HATCH
5
173
330
1F
100
AcDbEntity
8
S-ANNO-NOTE
370
50
100
AcDbHatch
10
0
20
0
30
0
210
0
220
0
230
1
2
SOLID
70
1
71
0
91
1
92
3
72
0
73
1
93
3
10
18.8125
20
1.25
10
19.905452
20
0.789885
10
19.962931
20
1.53768
97
0
75
0
76
1
98
0
0
TEXT
5
174
330
1F
100
AcDbEntity
8
S-ANNO-NOTE
370
18
100
AcDbText
10
-14
20
-15.8125
30
0
40
0.9375
1
EXTERIOR
7
KERF
72
1
11
-14
21
-15.8125
31
0
100
AcDbText
73
2
0
TEXT
5
175
330
1F
100
AcDbEntity
8
S-ANNO-NOTE
370
18
100
AcDbText
10
15.625
20
-15.8125
30
0
40
0.9375
1
INTERIOR
7
KERF
72
1
11
15.625
21
-15.8125
31
0
100
AcDbText
73
2
0
LWPOLYLINE
5
176
330
1F
100
AcDbEntity
8
S-ANNO-DIMS
370
13
100
AcDbPolyline
90
2
70
0
43
0
10
0
20
-32.375
10
0
20
-35.375
0
LWPOLYLINE
5
177
330
1F
100
AcDbEntity
8
S-ANNO-DIMS
370
13
100
AcDbPolyline
90
2
70
0
43
0
10
7.625
20
-32.375
10
7.625
20
-35.375
0
LWPOLYLINE
5
178
330
1F
100
AcDbEntity
8
S-ANNO-DIMS
370
13
100
AcDbPolyline
90
2
70
0
43
0
10
0
20
-34.625
10
15.982143
20
-34.625
0
LWPOLYLINE
5
179
330
1F
100
AcDbEntity
8
S-DETL-CUT
370
35
100
AcDbPolyline
90
2
70
0
43
0
10
-0.265165
20
-34.890165
10
0.265165
20
-34.359835
0
LWPOLYLINE
5
17A
330
1F
100
AcDbEntity
8
S-DETL-CUT
370
35
100
AcDbPolyline
90
2
70
0
43
0
10
7.359835
20
-34.890165
10
7.890165
20
-34.359835
0
TEXT
5
17B
330
1F
100
AcDbEntity
8
S-ANNO-DIMS
370
13
100
AcDbText
10
12.553571
20
-34.0625
30
0
40
1.125
1
7 5/8"
7
KERF
72
1
11
12.553571
21
-34.0625
31
0
100
AcDbText
0
LWPOLYLINE
5
17C
330
1F
100
AcDbEntity
8
S-ANNO-DIMS
370
13
100
AcDbPolyline
90
2
70
0
43
0
10
-20.0625
20
3.439324
10
-20.0625
20
17.439324
0
LWPOLYLINE
5
17D
330
1F
100
AcDbEntity
8
S-ANNO-DIMS
370
13
100
AcDbPolyline
90
2
70
0
43
0
10
0
20
0.75
10
0
20
17.439324
0
LWPOLYLINE
5
17E
330
1F
100
AcDbEntity
8
S-ANNO-DIMS
370
13
100
AcDbPolyline
90
2
70
0
43
0
10
-20.0625
20
16.689324
10
0
20
16.689324
0
LWPOLYLINE
5
17F
330
1F
100
AcDbEntity
8
S-DETL-CUT
370
35
100
AcDbPolyline
90
2
70
0
43
0
10
-20.327665
20
16.424159
10
-19.797335
20
16.954489
0
LWPOLYLINE
5
180
330
1F
100
AcDbEntity
8
S-DETL-CUT
370
35
100
AcDbPolyline
90
2
70
0
43
0
10
-0.265165
20
16.424159
10
0.265165
20
16.954489
0
TEXT
5
181
330
1F
100
AcDbEntity
8
S-ANNO-DIMS
370
13
100
AcDbText
10
-10.03125
20
17.251824
30
0
40
1.125
1
1'-8 1/16"
7
KERF
72
1
11
-10.03125
21
17.251824
31
0
100
AcDbText
0
LWPOLYLINE
5
182
330
1F
100
AcDbEntity
8
S-ANNO-TTLB
370
50
100
AcDbPolyline
90
2
70
1
43
0
10
-24
20
-43.925
42
1
10
-16.5
20
-43.925
42
1
0
LWPOLYLINE
5
183
330
1F
100
AcDbEntity
8
S-ANNO-NOTE
370
18
100
AcDbPolyline
90
2
70
0
43
0
10
-24
20
-43.925
10
-16.5
20
-43.925
0
TEXT
5
184
330
1F
100
AcDbEntity
8
S-ANNO-TTLB
370
50
100
AcDbText
10
-20.25
20
-42.05
30
0
40
1.875
1
1
7
KERF
72
1
11
-20.25
21
-42.05
31
0
100
AcDbText
73
2
0
TEXT
5
185
330
1F
100
AcDbEntity
8
S-ANNO-TTLB
370
18
100
AcDbText
10
-20.25
20
-45.8
30
0
40
0.84375
1
S-501
7
KERF
72
1
11
-20.25
21
-45.8
31
0
100
AcDbText
73
2
0
TEXT
5
186
330
1F
100
AcDbEntity
8
S-ANNO-TTLB
370
50
100
AcDbText
10
-14.7
20
-43.685
30
0
40
1.875
1
TRUSS BEARING AT CMU WALL
7
KERF
100
AcDbText
0
LWPOLYLINE
5
187
330
1F
100
AcDbEntity
8
S-ANNO-TTLB
370
50
100
AcDbPolyline
90
2
70
0
43
0
10
-14.7
20
-44.525
10
27.264286
20
-44.525
0
TEXT
5
188
330
1F
100
AcDbEntity
8
S-ANNO-TTLB
370
18
100
AcDbText
10
-14.7
20
-46.37
30
0
40
1.125
1
SCALE: 1" = 1'-0"
7
KERF
100
AcDbText
0
TEXT
5
189
330
1F
100
AcDbEntity
8
S-ANNO-TTLB
370
18
100
AcDbText
10
-24
20
-50
30
0
40
0.95625
1
* CODE REFERENCE NOT VERIFIED BY DESIGNER
7
KERF
100
AcDbText
0
ENDSEC
0
SECTION
2
OBJECTS
0
DICTIONARY
5
C
330
0
100
AcDbDictionary
281
1
3
ACAD_GROUP
350
D
0
DICTIONARY
5
D
330
C
100
AcDbDictionary
281
1
0
ENDSEC
0
EOF
