0
SECTION
2
HEADER
9
$ACADVER
1
AC1015
9
$HANDSEED
5
19A
9
$INSUNITS
70
1
9
$MEASUREMENT
70
0
9
$LTSCALE
40
1
9
$EXTMIN
10
-38.159244
20
-39.453125
30
0
9
$EXTMAX
10
30.668262
20
40.001824
30
0
0
ENDSEC
0
SECTION
2
CLASSES
0
ENDSEC
0
SECTION
2
TABLES
0
TABLE
2
VPORT
5
8
330
0
100
AcDbSymbolTable
70
1
0
VPORT
5
30
330
8
100
AcDbSymbolTableRecord
100
AcDbViewportTableRecord
2
*ACTIVE
70
0
10
0
20
0
11
1
21
1
12
-3.745491
22
0.274349
13
0
23
0
14
10
24
10
15
10
25
10
16
0
26
0
36
1
17
0
27
0
37
0
40
87.400444
41
0.866246
42
50
43
0
44
0
50
0
51
0
71
0
72
100
73
1
74
3
75
0
76
0
77
0
78
0
0
ENDTAB
0
TABLE
2
LTYPE
5
5
330
0
100
AcDbSymbolTable
70
4
0
LTYPE
5
14
330
5
100
AcDbSymbolTableRecord
100
AcDbLinetypeTableRecord
2
BYBLOCK
70
0
3

72
65
73
0
40
0
0
LTYPE
5
15
330
5
100
AcDbSymbolTableRecord
100
AcDbLinetypeTableRecord
2
BYLAYER
70
0
3

72
65
73
0
40
0
0
LTYPE
5
16
330
5
100
AcDbSymbolTableRecord
100
AcDbLinetypeTableRecord
2
CONTINUOUS
70
0
3
Solid line
72
65
73
0
40
0
0
LTYPE
5
40
330
5
100
AcDbSymbolTableRecord
100
AcDbLinetypeTableRecord
2
DASHED
70
0
3
DASHED
72
65
73
2
40
1.476378
49
0.984252
74
0
49
-0.492126
74
0
0
ENDTAB
0
TABLE
2
LAYER
5
2
330
0
100
AcDbSymbolTable
70
6
0
LAYER
5
10
330
2
100
AcDbSymbolTableRecord
100
AcDbLayerTableRecord
2
0
70
0
62
7
6
CONTINUOUS
370
-3
0
LAYER
5
50
330
2
100
AcDbSymbolTableRecord
100
AcDbLayerTableRecord
2
S-DETL-PATT
70
0
62
7
6
CONTINUOUS
370
9
0
LAYER
5
51
330
2
100
AcDbSymbolTableRecord
100
AcDbLayerTableRecord
2
S-DETL-BYND
70
0
62
7
6
CONTINUOUS
370
25
0
LAYER
5
52
330
2
100
AcDbSymbolTableRecord
100
AcDbLayerTableRecord
2
S-DETL-CUT
70
0
62
7
6
CONTINUOUS
370
50
0
LAYER
5
53
330
2
100
AcDbSymbolTableRecord
100
AcDbLayerTableRecord
2
S-ANNO-NOTE
70
0
62
7
6
CONTINUOUS
370
18
0
LAYER
5
54
330
2
100
AcDbSymbolTableRecord
100
AcDbLayerTableRecord
2
S-ANNO-TTLB
70
0
62
7
6
CONTINUOUS
370
50
0
ENDTAB
0
TABLE
2
STYLE
5
3
330
0
100
AcDbSymbolTable
70
2
0
STYLE
5
11
330
3
100
AcDbSymbolTableRecord
100
AcDbTextStyleTableRecord
2
STANDARD
70
0
40
0
41
1
50
0
71
0
42
0.2
3
txt
4

0
STYLE
5
12
330
3
100
AcDbSymbolTableRecord
100
AcDbTextStyleTableRecord
2
KERF
70
0
40
0
41
1
50
0
71
0
42
0.2
3
romans.shx
4

0
ENDTAB
0
TABLE
2
VIEW
5
6
330
0
100
AcDbSymbolTable
70
0
0
ENDTAB
0
TABLE
2
UCS
5
7
330
0
100
AcDbSymbolTable
70
0
0
ENDTAB
0
TABLE
2
APPID
5
9
330
0
100
AcDbSymbolTable
70
1
0
APPID
5
13
330
9
100
AcDbSymbolTableRecord
100
AcDbRegAppTableRecord
2
ACAD
70
0
0
ENDTAB
0
TABLE
2
DIMSTYLE
5
A
330
0
100
AcDbSymbolTable
70
1
100
AcDbDimStyleTable
71
1
0
DIMSTYLE
105
17
330
A
100
AcDbSymbolTableRecord
100
AcDbDimStyleTableRecord
2
STANDARD
70
0
340
17
0
ENDTAB
0
TABLE
2
BLOCK_RECORD
5
1
330
0
100
AcDbSymbolTable
70
2
0
BLOCK_RECORD
5
1F
330
1
100
AcDbSymbolTableRecord
100
AcDbBlockTableRecord
2
*Model_Space
70
0
280
1
281
0
0
BLOCK_RECORD
5
1B
330
1
100
AcDbSymbolTableRecord
100
AcDbBlockTableRecord
2
*Paper_Space
70
0
280
1
281
0
0
ENDTAB
0
ENDSEC
0
SECTION
2
BLOCKS
0
BLOCK
5
20
330
1F
100
AcDbEntity
8
0
100
AcDbBlockBegin
2
*Model_Space
70
0
10
0
20
0
30
0
3
*Model_Space
1

0
ENDBLK
5
21
330
1F
100
AcDbEntity
8
0
100
AcDbBlockEnd
0
BLOCK
5
22
330
1B
100
AcDbEntity
67
1
8
0
100
AcDbBlockBegin
2
*Paper_Space
70
0
10
0
20
0
30
0
3
*Paper_Space
1

0
ENDBLK
5
23
330
1B
100
AcDbEntity
67
1
8
0
100
AcDbBlockEnd
0
ENDSEC
0
SECTION
2
ENTITIES
0
HATCH
5
100
330
1F
100
AcDbEntity
8
S-DETL-PATT
370
9
100
AcDbHatch
10
0
20
0
30
0
210
0
220
0
230
1
2
ANSI31
70
0
71
0
91
1
92
3
72
0
73
1
93
4
10
1.082532
20
-27.375
10
1.082532
20
-23.375
10
0
20
-24
10
0
20
-28
97
0
75
0
76
1
52
0
41
1
77
0
78
1
53
45
43
0
44
0
45
0
46
1.171875
79
0
98
0
0
HATCH
5
101
330
1F
100
AcDbEntity
8
S-DETL-PATT
370
9
100
AcDbHatch
10
0
20
0
30
0
210
0
220
0
230
1
2
ANSI31
70
0
71
0
91
1
92
3
72
0
73
1
93
4
10
6.603444
20
-24.1875
10
6.603444
20
-20.1875
10
5.520912
20
-20.8125
10
5.520912
20
-24.8125
97
0
75
0
76
1
52
0
41
1
77
0
78
1
53
45
43
0
44
0
45
0
46
1.171875
79
0
98
0
0
HATCH
5
102
330
1F
100
AcDbEntity
8
S-DETL-PATT
370
9
100
AcDbHatch
10
0
20
0
30
0
210
0
220
0
230
1
2
KERF-CONC
70
0
71
0
91
1
92
3
72
0
73
1
93
4
10
5.520912
20
-24.8125
10
5.520912
20
-20.8125
10
1.082532
20
-23.375
10
1.082532
20
-27.375
97
0
75
0
76
1
52
0
41
1
77
0
78
5
53
0
43
0
44
0
45
0.878438
46
0.760313
79
2
49
0
49
-1.757813
53
0
43
0.440625
44
0.375
45
0.878438
46
0.760313
79
2
49
0
49
-1.757813
53
60
43
1.03125
44
0.1875
45
2.34375
46
2.029688
79
2
49
0.328125
49
-4.359375
53
180
43
1.359375
44
0.46875
45
2.34375
46
2.029688
79
2
49
0.328125
49
-4.359375
53
300
43
1.03125
44
0.46875
45
2.34375
46
2.029688
79
2
49
0.328125
49
-4.359375
98
0
0
HATCH
5
103
330
1F
100
AcDbEntity
8
S-DETL-PATT
370
9
100
AcDbHatch
10
0
20
0
30
0
210
0
220
0
230
1
2
KERF-CONC
70
0
71
0
91
1
92
3
72
0
73
1
93
4
10
1.082532
20
-23
10
5.520912
20
-20.4375
10
5.520912
20
-12.8125
10
1.082532
20
-15.375
97
0
75
0
76
1
52
0
41
1
77
0
78
5
53
0
43
0
44
0
45
0.878438
46
0.760313
79
2
49
0
49
-1.757813
53
0
43
0.440625
44
0.375
45
0.878438
46
0.760313
79
2
49
0
49
-1.757813
53
60
43
1.03125
44
0.1875
45
2.34375
46
2.029688
79
2
49
0.328125
49
-4.359375
53
180
43
1.359375
44
0.46875
45
2.34375
46
2.029688
79
2
49
0.328125
49
-4.359375
53
300
43
1.03125
44
0.46875
45
2.34375
46
2.029688
79
2
49
0.328125
49
-4.359375
98
0
0
HATCH
5
104
330
1F
100
AcDbEntity
8
S-DETL-PATT
370
9
100
AcDbHatch
10
0
20
0
30
0
210
0
220
0
230
1
2
ANSI31
70
0
71
0
91
1
92
3
72
0
73
1
93
4
10
0
20
-15.625
10
1.082532
20
-15
10
1.082532
20
-7.375
10
0
20
-8
97
0
75
0
76
1
52
0
41
1
77
0
78
1
53
45
43
0
44
0
45
0
46
1.171875
79
0
98
0
0
HATCH
5
105
330
1F
100
AcDbEntity
8
S-DETL-PATT
370
9
100
AcDbHatch
10
0
20
0
30
0
210
0
220
0
230
1
2
ANSI31
70
0
71
0
91
1
92
3
72
0
73
1
93
4
10
5.520912
20
-12.4375
10
6.603444
20
-11.8125
10
6.603444
20
-4.1875
10
5.520912
20
-4.8125
97
0
75
0
76
1
52
0
41
1
77
0
78
1
53
45
43
0
44
0
45
0
46
1.171875
79
0
98
0
0
HATCH
5
106
330
1F
100
AcDbEntity
8
S-DETL-PATT
370
9
100
AcDbHatch
10
0
20
0
30
0
210
0
220
0
230
1
2
KERF-CONC
70
0
71
0
91
1
92
3
72
0
73
1
93
4
10
1.082532
20
-15
10
5.520912
20
-12.4375
10
5.520912
20
-4.8125
10
1.082532
20
-7.375
97
0
75
0
76
1
52
0
41
1
77
0
78
5
53
0
43
0
44
0
45
0.878438
46
0.760313
79
2
49
0
49
-1.757813
53
0
43
0.440625
44
0.375
45
0.878438
46
0.760313
79
2
49
0
49
-1.757813
53
60
43
1.03125
44
0.1875
45
2.34375
46
2.029688
79
2
49
0.328125
49
-4.359375
53
180
43
1.359375
44
0.46875
45
2.34375
46
2.029688
79
2
49
0.328125
49
-4.359375
53
300
43
1.03125
44
0.46875
45
2.34375
46
2.029688
79
2
49
0.328125
49
-4.359375
98
0
0
HATCH
5
107
330
1F
100
AcDbEntity
8
S-DETL-PATT
370
9
100
AcDbHatch
10
0
20
0
30
0
210
0
220
0
230
1
2
KERF-CONC
70
0
71
0
91
1
92
3
72
0
73
1
93
4
10
1.082532
20
-7
10
5.520912
20
-4.4375
10
5.520912
20
3.1875
10
1.082532
20
0.625
97
0
75
0
76
1
52
0
41
1
77
0
78
5
53
0
43
0
44
0
45
0.878438
46
0.760313
79
2
49
0
49
-1.757813
53
0
43
0.440625
44
0.375
45
0.878438
46
0.760313
79
2
49
0
49
-1.757813
53
60
43
1.03125
44
0.1875
45
2.34375
46
2.029688
79
2
49
0.328125
49
-4.359375
53
180
43
1.359375
44
0.46875
45
2.34375
46
2.029688
79
2
49
0.328125
49
-4.359375
53
300
43
1.03125
44
0.46875
45
2.34375
46
2.029688
79
2
49
0.328125
49
-4.359375
98
0
0
HATCH
5
108
330
1F
100
AcDbEntity
8
S-DETL-PATT
370
9
100
AcDbHatch
10
0
20
0
30
0
210
0
220
0
230
1
2
KERF-SAND
70
0
71
0
91
1
92
3
72
0
73
1
93
4
10
6.603444
20
4.8125
10
25.980762
20
16
10
25.980762
20
16.5
10
6.603444
20
5.3125
97
0
75
0
76
1
52
0
41
1
77
0
78
2
53
0
43
0
44
0
45
0.23475
46
0.40575
79
2
49
0
49
-0.46875
53
0
43
0.117
44
0.2025
45
0.23475
46
0.40575
79
2
49
0
49
-0.46875
98
0
0
LWPOLYLINE
5
109
330
1F
100
AcDbEntity
8
S-DETL-BYND
370
25
100
AcDbPolyline
90
2
70
0
43
0
10
-20.78461
20
-12
10
-7.252963
20
-19.8125
0
LWPOLYLINE
5
10A
330
1F
100
AcDbEntity
8
S-DETL-BYND
370
25
100
AcDbPolyline
90
2
70
0
43
0
10
-7.252963
20
-19.8125
10
-6.928203
20
-20
0
LWPOLYLINE
5
10B
330
1F
100
AcDbEntity
8
S-DETL-BYND
370
25
100
AcDbPolyline
90
2
70
0
43
0
10
-6.928203
20
-20
10
0
20
-24
0
LWPOLYLINE
5
10C
330
1F
100
AcDbEntity
8
S-DETL-BYND
370
25
100
AcDbPolyline
90
2
70
0
43
0
10
-20.78461
20
-11.625
10
0
20
-23.625
0
LWPOLYLINE
5
10D
330
1F
100
AcDbEntity
8
S-DETL-BYND
370
25
100
AcDbPolyline
90
2
70
0
43
0
10
-11.09753
20
-9.592838
10
-0.32476
20
-15.8125
0
LWPOLYLINE
5
10E
330
1F
100
AcDbEntity
8
S-DETL-BYND
370
25
100
AcDbPolyline
90
3
70
0
43
0
10
1.082532
20
-15.375
10
0
20
-16
10
0
20
-23.625
0
LWPOLYLINE
5
10F
330
1F
100
AcDbEntity
8
S-DETL-BYND
370
25
100
AcDbPolyline
90
2
70
0
43
0
10
-0.32476
20
-15.8125
10
0
20
-16
0
LWPOLYLINE
5
110
330
1F
100
AcDbEntity
8
S-DETL-BYND
370
25
100
AcDbPolyline
90
2
70
0
43
0
10
6.603444
20
-12.1875
10
5.520912
20
-12.8125
0
LWPOLYLINE
5
111
330
1F
100
AcDbEntity
8
S-DETL-BYND
370
25
100
AcDbPolyline
90
2
70
0
43
0
10
-10.772771
20
-9.405338
10
0
20
-15.625
0
LWPOLYLINE
5
112
330
1F
100
AcDbEntity
8
S-DETL-BYND
370
25
100
AcDbPolyline
90
2
70
0
43
0
10
-4.169327
20
-5.592838
10
0
20
-8
0
LWPOLYLINE
5
113
330
1F
100
AcDbEntity
8
S-DETL-BYND
370
25
100
AcDbPolyline
90
2
70
0
43
0
10
-3.844567
20
-5.405338
10
0
20
-7.625
0
LWPOLYLINE
5
114
330
1F
100
AcDbEntity
8
S-DETL-BYND
370
25
100
AcDbPolyline
90
2
70
0
43
0
10
-20.78461
20
12
10
-16.64511
20
9.610059
0
LWPOLYLINE
5
115
330
1F
100
AcDbEntity
8
S-DETL-BYND
370
25
100
AcDbPolyline
90
2
70
0
43
0
10
-12.949786
20
7.476563
10
-0.32476
20
0.1875
0
LWPOLYLINE
5
116
330
1F
100
AcDbEntity
8
S-DETL-BYND
370
25
100
AcDbPolyline
90
3
70
0
43
0
10
1.082532
20
0.625
10
0
20
0
10
0
20
-7.625
0
LWPOLYLINE
5
117
330
1F
100
AcDbEntity
8
S-DETL-BYND
370
25
100
AcDbPolyline
90
2
70
0
43
0
10
-0.32476
20
0.1875
10
0
20
0
0
LWPOLYLINE
5
118
330
1F
100
AcDbEntity
8
S-DETL-BYND
370
25
100
AcDbPolyline
90
2
70
0
43
0
10
6.603444
20
3.8125
10
5.520912
20
3.1875
0
LWPOLYLINE
5
119
330
1F
100
AcDbEntity
8
S-DETL-BYND
370
25
100
AcDbPolyline
90
2
70
0
43
0
10
-20.62223
20
13.59375
10
-15.549047
20
10.664746
0
LWPOLYLINE
5
11A
330
1F
100
AcDbEntity
8
S-DETL-BYND
370
25
100
AcDbPolyline
90
2
70
0
43
0
10
-11.853723
20
8.53125
10
0.16238
20
1.59375
0
LWPOLYLINE
5
11B
330
1F
100
AcDbEntity
8
S-DETL-BYND
370
25
100
AcDbPolyline
90
2
70
0
43
0
10
2.760456
20
4.65625
10
3.031089
20
4.5
0
LWPOLYLINE
5
11C
330
1F
100
AcDbEntity
8
S-DETL-BYND
370
25
100
AcDbPolyline
90
2
70
0
43
0
10
2.083874
20
3.953125
10
2.692798
20
3.601563
0
LWPOLYLINE
5
11D
330
1F
100
AcDbEntity
8
S-DETL-BYND
370
25
100
AcDbPolyline
90
2
70
0
43
0
10
2.489823
20
4.5
10
2.895772
20
4.265625
0
LWPOLYLINE
5
11E
330
1F
100
AcDbEntity
8
S-DETL-BYND
370
25
100
AcDbPolyline
90
2
70
0
43
0
10
16.237976
20
25.625
10
-6.549317
20
12.46875
0
LWPOLYLINE
5
11F
330
1F
100
AcDbEntity
8
S-DETL-BYND
370
25
100
AcDbPolyline
90
2
70
0
43
0
10
-9.580406
20
10.71875
10
-9.580406
20
7.21875
0
LWPOLYLINE
5
120
330
1F
100
AcDbEntity
8
S-DETL-BYND
370
25
100
AcDbPolyline
90
2
70
0
43
0
10
16.237976
20
39.251824
10
-25.168863
20
-0.591926
0
LWPOLYLINE
5
121
330
1F
100
AcDbEntity
8
S-DETL-BYND
370
25
100
AcDbPolyline
90
2
70
0
43
0
10
-26.467901
20
0.158074
10
-25.168863
20
-0.591926
0
LWPOLYLINE
5
122
330
1F
100
AcDbEntity
8
S-DETL-BYND
370
25
100
AcDbPolyline
90
2
70
0
43
0
10
-9.580406
20
12.71875
10
0.16238
20
7.09375
0
LWPOLYLINE
5
123
330
1F
100
AcDbEntity
8
S-DETL-BYND
370
25
100
AcDbPolyline
90
2
70
0
43
0
10
-38.159244
20
4.658074
10
-17.374635
20
-7.341926
0
LWPOLYLINE
5
124
330
1F
100
AcDbEntity
8
S-DETL-BYND
370
25
100
AcDbPolyline
90
2
70
0
43
0
10
-14.181166
20
17.3125
10
-10.718249
20
15.313184
0
LWPOLYLINE
5
125
330
1F
100
AcDbEntity
8
S-DETL-BYND
370
25
100
AcDbPolyline
90
2
70
0
43
0
10
-3.139342
20
10.9375
10
6.603444
20
5.3125
0
LWPOLYLINE
5
126
330
1F
100
AcDbEntity
8
S-DETL-CUT
370
35
100
AcDbPolyline
90
2
70
0
43
0
10
-20.78461
20
-12
10
-20.78461
20
-16
0
LWPOLYLINE
5
127
330
1F
100
AcDbEntity
8
S-DETL-CUT
370
35
100
AcDbPolyline
90
2
70
0
43
0
10
-20.78461
20
-16
10
-7.252963
20
-23.8125
0
LWPOLYLINE
5
128
330
1F
100
AcDbEntity
8
S-DETL-CUT
370
35
100
AcDbPolyline
90
2
70
0
43
0
10
-7.252963
20
-19.8125
10
-7.252963
20
-23.8125
0
LWPOLYLINE
5
129
330
1F
100
AcDbEntity
8
S-DETL-CUT
370
35
100
AcDbPolyline
90
2
70
0
43
0
10
-7.252963
20
-23.8125
10
-6.928203
20
-24
0
LWPOLYLINE
5
12A
330
1F
100
AcDbEntity
8
S-DETL-CUT
370
35
100
AcDbPolyline
90
2
70
0
43
0
10
-6.928203
20
-20
10
-6.928203
20
-24
0
LWPOLYLINE
5
12B
330
1F
100
AcDbEntity
8
S-DETL-CUT
370
35
100
AcDbPolyline
90
2
70
0
43
0
10
-6.928203
20
-24
10
0
20
-28
0
LWPOLYLINE
5
12C
330
1F
100
AcDbEntity
8
S-DETL-CUT
370
35
100
AcDbPolyline
90
2
70
0
43
0
10
-20.78461
20
-11.625
10
-20.78461
20
-12
0
LWPOLYLINE
5
12D
330
1F
100
AcDbEntity
8
S-DETL-CUT
370
35
100
AcDbPolyline
90
2
70
0
43
0
10
-20.78461
20
-12
10
0
20
-24
0
LWPOLYLINE
5
12E
330
1F
100
AcDbEntity
8
S-DETL-CUT
370
35
100
AcDbPolyline
90
2
70
0
43
0
10
-20.78461
20
-10.873176
10
-20.78461
20
-11.625
0
LWPOLYLINE
5
12F
330
1F
100
AcDbEntity
8
S-DETL-CUT
370
35
100
AcDbPolyline
90
2
70
0
43
0
10
-20.78461
20
-11.625
10
-14.181166
20
-15.4375
0
LWPOLYLINE
5
130
330
1F
100
AcDbEntity
8
S-DETL-CUT
370
35
100
AcDbPolyline
90
2
70
0
43
0
10
-14.181166
20
-11.373176
10
-14.181166
20
-15.4375
0
LWPOLYLINE
5
131
330
1F
100
AcDbEntity
8
S-DETL-CUT
370
35
100
AcDbPolyline
90
2
70
0
43
0
10
-14.181166
20
-15.4375
10
-13.856406
20
-15.625
0
LWPOLYLINE
5
132
330
1F
100
AcDbEntity
8
S-DETL-CUT
370
35
100
AcDbPolyline
90
2
70
0
43
0
10
-13.856406
20
-11.185676
10
-13.856406
20
-15.625
0
LWPOLYLINE
5
133
330
1F
100
AcDbEntity
8
S-DETL-CUT
370
35
100
AcDbPolyline
90
2
70
0
43
0
10
-13.856406
20
-15.625
10
-0.32476
20
-23.4375
0
LWPOLYLINE
5
134
330
1F
100
AcDbEntity
8
S-DETL-CUT
370
35
100
AcDbPolyline
90
2
70
0
43
0
10
0
20
-23.625
10
1.082532
20
-23
0
LWPOLYLINE
5
135
330
1F
100
AcDbEntity
8
S-DETL-CUT
370
35
100
AcDbPolyline
90
2
70
0
43
0
10
-0.32476
20
-15.8125
10
-0.32476
20
-23.4375
0
LWPOLYLINE
5
136
330
1F
100
AcDbEntity
8
S-DETL-CUT
370
35
100
AcDbPolyline
90
2
70
0
43
0
10
-0.32476
20
-23.4375
10
0
20
-23.625
0
LWPOLYLINE
5
137
330
1F
100
AcDbEntity
8
S-DETL-CUT
370
35
100
AcDbPolyline
90
3
70
0
43
0
10
5.520912
20
-20.4375
10
6.603444
20
-19.8125
10
6.603444
20
-12.1875
0
LWPOLYLINE
5
138
330
1F
100
AcDbEntity
8
S-DETL-CUT
370
35
100
AcDbPolyline
90
2
70
0
43
0
10
-11.09753
20
-9.592838
10
0
20
-16
0
LWPOLYLINE
5
139
330
1F
100
AcDbEntity
8
S-DETL-CUT
370
35
100
AcDbPolyline
90
2
70
0
43
0
10
-10.772771
20
-9.405338
10
-7.252963
20
-11.4375
0
LWPOLYLINE
5
13A
330
1F
100
AcDbEntity
8
S-DETL-CUT
370
35
100
AcDbPolyline
90
2
70
0
43
0
10
-7.252963
20
-7.373176
10
-7.252963
20
-11.4375
0
LWPOLYLINE
5
13B
330
1F
100
AcDbEntity
8
S-DETL-CUT
370
35
100
AcDbPolyline
90
2
70
0
43
0
10
-7.252963
20
-11.4375
10
-6.928203
20
-11.625
0
LWPOLYLINE
5
13C
330
1F
100
AcDbEntity
8
S-DETL-CUT
370
35
100
AcDbPolyline
90
2
70
0
43
0
10
-6.928203
20
-7.185676
10
-6.928203
20
-11.625
0
LWPOLYLINE
5
13D
330
1F
100
AcDbEntity
8
S-DETL-CUT
370
35
100
AcDbPolyline
90
2
70
0
43
0
10
-6.928203
20
-11.625
10
0
20
-15.625
0
LWPOLYLINE
5
13E
330
1F
100
AcDbEntity
8
S-DETL-CUT
370
35
100
AcDbPolyline
90
2
70
0
43
0
10
-4.169327
20
-5.592838
10
0
20
-8
0
LWPOLYLINE
5
13F
330
1F
100
AcDbEntity
8
S-DETL-CUT
370
35
100
AcDbPolyline
90
3
70
0
43
0
10
-20.62223
20
12.09375
10
-20.78461
20
12
10
-20.78461
20
9.189324
0
LWPOLYLINE
5
140
330
1F
100
AcDbEntity
8
S-DETL-CUT
370
35
100
AcDbPolyline
90
2
70
0
43
0
10
-14.181166
20
6.291667
10
-14.181166
20
5.376824
0
LWPOLYLINE
5
141
330
1F
100
AcDbEntity
8
S-DETL-CUT
370
35
100
AcDbPolyline
90
2
70
0
43
0
10
-13.856406
20
6.604167
10
-13.856406
20
5.189324
0
LWPOLYLINE
5
142
330
1F
100
AcDbEntity
8
S-DETL-CUT
370
35
100
AcDbPolyline
90
2
70
0
43
0
10
-3.844567
20
-5.405338
10
-0.32476
20
-7.4375
0
LWPOLYLINE
5
143
330
1F
100
AcDbEntity
8
S-DETL-CUT
370
35
100
AcDbPolyline
90
2
70
0
43
0
10
0
20
-7.625
10
1.082532
20
-7
0
LWPOLYLINE
5
144
330
1F
100
AcDbEntity
8
S-DETL-CUT
370
35
100
AcDbPolyline
90
3
70
0
43
0
10
-0.16238
20
0.28125
10
-0.32476
20
0.1875
10
-0.32476
20
-2.623176
0
LWPOLYLINE
5
145
330
1F
100
AcDbEntity
8
S-DETL-CUT
370
35
100
AcDbPolyline
90
2
70
0
43
0
10
-0.32476
20
-3.373176
10
-0.32476
20
-7.4375
0
LWPOLYLINE
5
146
330
1F
100
AcDbEntity
8
S-DETL-CUT
370
35
100
AcDbPolyline
90
2
70
0
43
0
10
-0.32476
20
-7.4375
10
0
20
-7.625
0
LWPOLYLINE
5
147
330
1F
100
AcDbEntity
8
S-DETL-CUT
370
35
100
AcDbPolyline
90
3
70
0
43
0
10
5.520912
20
-4.4375
10
6.603444
20
-3.8125
10
6.603444
20
3.8125
0
LWPOLYLINE
5
148
330
1F
100
AcDbEntity
8
S-DETL-CUT
370
35
100
AcDbPolyline
90
2
70
0
43
0
10
6.441064
20
3.90625
10
6.603444
20
3.8125
0
LWPOLYLINE
5
149
330
1F
100
AcDbEntity
8
S-DETL-CUT
370
35
100
AcDbPolyline
90
3
70
0
43
0
10
-14.343546
20
17.21875
10
-20.62223
20
13.59375
10
-20.62223
20
12.09375
0
LWPOLYLINE
5
14A
330
1F
100
AcDbEntity
8
S-DETL-CUT
370
35
100
AcDbPolyline
90
2
70
0
43
0
10
-20.62223
20
12.09375
10
-16.523326
20
9.727246
0
LWPOLYLINE
5
14B
330
1F
100
AcDbEntity
8
S-DETL-CUT
370
35
100
AcDbPolyline
90
2
70
0
43
0
10
-12.828001
20
7.59375
10
0.16238
20
0.09375
0
LWPOLYLINE
5
14C
330
1F
100
AcDbEntity
8
S-DETL-CUT
370
35
100
AcDbPolyline
90
2
70
0
43
0
10
-14.343546
20
17.21875
10
-10.840034
20
15.195996
0
LWPOLYLINE
5
14D
330
1F
100
AcDbEntity
8
S-DETL-CUT
370
35
100
AcDbPolyline
90
2
70
0
43
0
10
-3.301722
20
10.84375
10
6.441064
20
5.21875
0
LWPOLYLINE
5
14E
330
1F
100
AcDbEntity
8
S-DETL-CUT
370
35
100
AcDbPolyline
90
2
70
0
43
0
10
2.760456
20
4.65625
10
2.760456
20
4.34375
0
LWPOLYLINE
5
14F
330
1F
100
AcDbEntity
8
S-DETL-CUT
370
35
100
AcDbPolyline
90
2
70
0
43
0
10
3.301722
20
4.96875
10
2.760456
20
4.65625
0
LWPOLYLINE
5
150
330
1F
100
AcDbEntity
8
S-DETL-CUT
370
35
100
AcDbPolyline
90
2
70
0
43
0
10
3.301722
20
4.96875
10
3.572355
20
4.8125
0
LWPOLYLINE
5
151
330
1F
100
AcDbEntity
8
S-DETL-CUT
370
35
100
AcDbPolyline
90
3
70
0
43
0
10
2.489823
20
4.1875
10
2.083874
20
3.953125
10
2.083874
20
3.828125
0
LWPOLYLINE
5
152
330
1F
100
AcDbEntity
8
S-DETL-CUT
370
35
100
AcDbPolyline
90
2
70
0
43
0
10
2.083874
20
3.828125
10
2.692798
20
3.476563
0
LWPOLYLINE
5
153
330
1F
100
AcDbEntity
8
S-DETL-CUT
370
35
100
AcDbPolyline
90
2
70
0
43
0
10
3.707671
20
4.421875
10
3.910646
20
4.304688
0
LWPOLYLINE
5
154
330
1F
100
AcDbEntity
8
S-DETL-CUT
370
35
100
AcDbPolyline
90
3
70
0
43
0
10
2.760456
20
4.65625
10
2.489823
20
4.5
10
2.489823
20
3.953125
0
LWPOLYLINE
5
155
330
1F
100
AcDbEntity
8
S-DETL-CUT
370
35
100
AcDbPolyline
90
2
70
0
43
0
10
2.489823
20
3.953125
10
2.895772
20
3.71875
0
LWPOLYLINE
5
156
330
1F
100
AcDbEntity
8
S-DETL-CUT
370
35
100
AcDbPolyline
90
2
70
0
43
0
10
3.301722
20
4.96875
10
3.707671
20
4.734375
0
LWPOLYLINE
5
157
330
1F
100
AcDbEntity
8
S-DETL-CUT
370
35
100
AcDbPolyline
90
3
70
0
43
0
10
-3.518228
20
10.71875
10
16.237976
20
22.125
10
16.237976
20
25.625
0
LWPOLYLINE
5
158
330
1F
100
AcDbEntity
8
S-DETL-CUT
370
35
100
AcDbPolyline
90
2
70
0
43
0
10
14.938938
20
26.375
10
-5.683292
20
14.46875
0
LWPOLYLINE
5
159
330
1F
100
AcDbEntity
8
S-DETL-CUT
370
35
100
AcDbPolyline
90
2
70
0
43
0
10
-10.879444
20
9.46875
10
-10.879444
20
7.96875
0
LWPOLYLINE
5
15A
330
1F
100
AcDbEntity
8
S-DETL-CUT
370
35
100
AcDbPolyline
90
2
70
0
43
0
10
-10.879444
20
7.96875
10
-9.580406
20
7.21875
0
LWPOLYLINE
5
15B
330
1F
100
AcDbEntity
8
S-DETL-CUT
370
35
100
AcDbPolyline
90
2
70
0
43
0
10
14.938938
20
26.375
10
16.237976
20
25.625
0
LWPOLYLINE
5
15C
330
1F
100
AcDbEntity
8
S-DETL-CUT
370
35
100
AcDbPolyline
90
2
70
0
43
0
10
-22.772577
20
-1.975423
10
-9.580406
20
10.71875
0
LWPOLYLINE
5
15D
330
1F
100
AcDbEntity
8
S-DETL-CUT
370
35
100
AcDbPolyline
90
3
70
0
43
0
10
-7.307089
20
12.90625
10
16.237976
20
35.5625
10
16.237976
20
39.251824
0
LWPOLYLINE
5
15E
330
1F
100
AcDbEntity
8
S-DETL-CUT
370
35
100
AcDbPolyline
90
2
70
0
43
0
10
14.938938
20
40.001824
10
-26.467901
20
0.158074
0
LWPOLYLINE
5
15F
330
1F
100
AcDbEntity
8
S-DETL-CUT
370
35
100
AcDbPolyline
90
2
70
0
43
0
10
14.938938
20
40.001824
10
16.237976
20
39.251824
0
LWPOLYLINE
5
160
330
1F
100
AcDbEntity
8
S-DETL-CUT
370
35
100
AcDbPolyline
90
3
70
0
43
0
10
-8.281368
20
13.46875
10
-9.580406
20
12.71875
10
-9.580406
20
7.21875
0
LWPOLYLINE
5
161
330
1F
100
AcDbEntity
8
S-DETL-CUT
370
35
100
AcDbPolyline
90
2
70
0
43
0
10
-9.580406
20
7.21875
10
0.16238
20
1.59375
0
LWPOLYLINE
5
162
330
1F
100
AcDbEntity
8
S-DETL-CUT
370
35
100
AcDbPolyline
90
2
70
0
43
0
10
-8.281368
20
13.46875
10
1.461418
20
7.84375
0
LWPOLYLINE
5
163
330
1F
100
AcDbEntity
8
S-DETL-CUT
370
35
100
AcDbPolyline
90
2
70
0
43
0
10
-36.210687
20
5.783074
10
-37.509725
20
5.033074
0
LWPOLYLINE
5
164
330
1F
100
AcDbEntity
8
S-DETL-CUT
370
35
100
AcDbPolyline
90
2
70
0
43
0
10
-36.210687
20
5.783074
10
-15.426078
20
-6.216926
0
LWPOLYLINE
5
165
330
1F
100
AcDbEntity
8
S-DETL-CUT
370
35
100
AcDbPolyline
90
3
70
0
43
0
10
-37.509725
20
5.033074
10
-38.159244
20
4.658074
10
-38.159244
20
-0.841926
0
LWPOLYLINE
5
166
330
1F
100
AcDbEntity
8
S-DETL-CUT
370
35
100
AcDbPolyline
90
2
70
0
43
0
10
-38.159244
20
-0.841926
10
-17.374635
20
-12.841926
0
LWPOLYLINE
5
167
330
1F
100
AcDbEntity
8
S-DETL-CUT
370
35
100
AcDbPolyline
90
2
70
0
43
0
10
-37.509725
20
5.033074
10
-16.725116
20
-6.966926
0
LWPOLYLINE
5
168
330
1F
100
AcDbEntity
8
S-DETL-CUT
370
35
100
AcDbPolyline
90
2
70
0
43
0
10
-20.78461
20
9.189324
10
-31.447547
20
3.033074
0
LWPOLYLINE
5
169
330
1F
100
AcDbEntity
8
S-DETL-CUT
370
35
100
AcDbPolyline
90
2
70
0
43
0
10
-17.049875
20
-12.654426
10
-16.725116
20
-12.841926
0
LWPOLYLINE
5
16A
330
1F
100
AcDbEntity
8
S-DETL-CUT
370
35
100
AcDbPolyline
90
2
70
0
43
0
10
-20.78461
20
9.189324
10
-18.470698
20
7.853386
0
LWPOLYLINE
5
16B
330
1F
100
AcDbEntity
8
S-DETL-CUT
370
35
100
AcDbPolyline
90
2
70
0
43
0
10
-14.775374
20
5.71989
10
0
20
-2.810676
0
LWPOLYLINE
5
16C
330
1F
100
AcDbEntity
8
S-DETL-CUT
370
35
100
AcDbPolyline
90
3
70
0
43
0
10
-0.329498
20
25.309764
10
-14.181166
20
17.3125
10
-14.181166
20
17.125
0
LWPOLYLINE
5
16D
330
1F
100
AcDbEntity
8
S-DETL-CUT
370
35
100
AcDbPolyline
90
2
70
0
43
0
10
6.441064
20
4.90625
10
6.603444
20
4.8125
0
LWPOLYLINE
5
16E
330
1F
100
AcDbEntity
8
S-DETL-CUT
370
35
100
AcDbPolyline
90
2
70
0
43
0
10
7.510064
20
27.164063
10
11.907849
20
24.625
0
LWPOLYLINE
5
16F
330
1F
100
AcDbEntity
8
S-DETL-CUT
370
35
100
AcDbPolyline
90
2
70
0
43
0
10
16.237976
20
22.125
10
25.980762
20
16.5
0
LWPOLYLINE
5
170
330
1F
100
AcDbEntity
8
S-DETL-CUT
370
50
100
AcDbPolyline
90
5
70
0
43
0
10
1.082532
20
-27.375
10
1.082532
20
-23.375
10
0
20
-24
10
0
20
-28
10
1.082532
20
-27.375
0
LWPOLYLINE
5
171
330
1F
100
AcDbEntity
8
S-DETL-CUT
370
50
100
AcDbPolyline
90
5
70
0
43
0
10
6.603444
20
-24.1875
10
6.603444
20
-20.1875
10
5.520912
20
-20.8125
10
5.520912
20
-24.8125
10
6.603444
20
-24.1875
0
LWPOLYLINE
5
172
330
1F
100
AcDbEntity
8
S-DETL-CUT
370
50
100
AcDbPolyline
90
2
70
0
43
0
10
5.520912
20
-20.8125
10
1.082532
20
-23.375
0
LWPOLYLINE
5
173
330
1F
100
AcDbEntity
8
S-DETL-CUT
370
50
100
AcDbPolyline
90
2
70
0
43
0
10
1.082532
20
-27.375
10
5.520912
20
-24.8125
0
LWPOLYLINE
5
174
330
1F
100
AcDbEntity
8
S-DETL-CUT
370
50
100
AcDbPolyline
90
5
70
0
43
0
10
0
20
-24
10
6.603444
20
-20.1875
10
6.603444
20
-19.8125
10
0
20
-23.625
10
0
20
-24
0
LWPOLYLINE
5
175
330
1F
100
AcDbEntity
8
S-DETL-CUT
370
50
100
AcDbPolyline
90
5
70
0
43
0
10
1.082532
20
-23
10
5.520912
20
-20.4375
10
5.520912
20
-12.8125
10
1.082532
20
-15.375
10
1.082532
20
-23
0
LWPOLYLINE
5
176
330
1F
100
AcDbEntity
8
S-DETL-CUT
370
50
100
AcDbPolyline
90
5
70
0
43
0
10
0
20
-16
10
6.603444
20
-12.1875
10
6.603444
20
-11.8125
10
0
20
-15.625
10
0
20
-16
0
LWPOLYLINE
5
177
330
1F
100
AcDbEntity
8
S-DETL-CUT
370
50
100
AcDbPolyline
90
5
70
0
43
0
10
0
20
-15.625
10
1.082532
20
-15
10
1.082532
20
-7.375
10
0
20
-8
10
0
20
-15.625
0
LWPOLYLINE
5
178
330
1F
100
AcDbEntity
8
S-DETL-CUT
370
50
100
AcDbPolyline
90
5
70
0
43
0
10
5.520912
20
-12.4375
10
6.603444
20
-11.8125
10
6.603444
20
-4.1875
10
5.520912
20
-4.8125
10
5.520912
20
-12.4375
0
LWPOLYLINE
5
179
330
1F
100
AcDbEntity
8
S-DETL-CUT
370
50
100
AcDbPolyline
90
2
70
0
43
0
10
1.082532
20
-15
10
5.520912
20
-12.4375
0
LWPOLYLINE
5
17A
330
1F
100
AcDbEntity
8
S-DETL-CUT
370
50
100
AcDbPolyline
90
2
70
0
43
0
10
5.520912
20
-4.8125
10
1.082532
20
-7.375
0
LWPOLYLINE
5
17B
330
1F
100
AcDbEntity
8
S-DETL-CUT
370
50
100
AcDbPolyline
90
5
70
0
43
0
10
0
20
-8
10
6.603444
20
-4.1875
10
6.603444
20
-3.8125
10
0
20
-7.625
10
0
20
-8
0
LWPOLYLINE
5
17C
330
1F
100
AcDbEntity
8
S-DETL-CUT
370
50
100
AcDbPolyline
90
5
70
0
43
0
10
1.082532
20
-7
10
5.520912
20
-4.4375
10
5.520912
20
3.1875
10
1.082532
20
0.625
10
1.082532
20
-7
0
LWPOLYLINE
5
17D
330
1F
100
AcDbEntity
8
S-DETL-CUT
370
50
100
AcDbPolyline
90
25
70
0
43
0
10
2.489823
20
-4.375
10
2.480601
20
-4.299443
10
2.453565
20
-4.239684
10
2.410556
20
-4.199794
10
2.354507
20
-4.182492
10
2.289235
20
-4.188958
10
2.21919
20
-4.21875
10
2.149145
20
-4.269839
10
2.083874
20
-4.338742
10
2.027824
20
-4.420765
10
1.984815
20
-4.510316
10
1.957779
20
-4.601295
10
1.948557
20
-4.6875
10
1.957779
20
-4.763057
10
1.984815
20
-4.822816
10
2.027824
20
-4.862706
10
2.083874
20
-4.880008
10
2.149145
20
-4.873542
10
2.21919
20
-4.84375
10
2.289235
20
-4.792661
10
2.354507
20
-4.723758
10
2.410556
20
-4.641735
10
2.453565
20
-4.552184
10
2.480601
20
-4.461205
10
2.489823
20
-4.375
0
LWPOLYLINE
5
17E
330
1F
100
AcDbEntity
8
S-DETL-CUT
370
50
100
AcDbPolyline
90
25
70
0
43
0
10
4.654887
20
-3.125
10
4.645665
20
-3.049443
10
4.618629
20
-2.989684
10
4.57562
20
-2.949794
10
4.51957
20
-2.932492
10
4.454299
20
-2.938958
10
4.384254
20
-2.96875
10
4.314209
20
-3.019839
10
4.248937
20
-3.088742
10
4.192887
20
-3.170765
10
4.149879
20
-3.260316
10
4.122842
20
-3.351295
10
4.113621
20
-3.4375
10
4.122842
20
-3.513057
10
4.149879
20
-3.572816
10
4.192887
20
-3.612706
10
4.248937
20
-3.630008
10
4.314209
20
-3.623542
10
4.384254
20
-3.59375
10
4.454299
20
-3.542661
10
4.51957
20
-3.473758
10
4.57562
20
-3.391735
10
4.618629
20
-3.302184
10
4.645665
20
-3.211205
10
4.654887
20
-3.125
0
LWPOLYLINE
5
17F
330
1F
100
AcDbEntity
8
S-DETL-CUT
370
50
100
AcDbPolyline
90
5
70
0
43
0
10
0.16238
20
0.09375
10
6.441064
20
3.71875
10
6.441064
20
5.21875
10
0.16238
20
1.59375
10
0.16238
20
0.09375
0
LWPOLYLINE
5
180
330
1F
100
AcDbEntity
8
S-DETL-CUT
370
50
100
AcDbPolyline
90
53
70
0
43
0
10
3.031089
20
4.5
10
3.031089
20
-3.6875
10
3.040955
20
-3.870142
10
3.070409
20
-4.038729
10
3.119023
20
-4.190802
10
3.186086
20
-4.324142
10
3.270621
20
-4.436807
10
3.371395
20
-4.527153
10
3.486939
20
-4.593863
10
3.615568
20
-4.635963
10
3.755407
20
-4.65284
10
3.904415
20
-4.644248
10
4.06042
20
-4.610312
10
4.221148
20
-4.551527
10
4.384254
20
-4.46875
10
4.54736
20
-4.363188
10
4.708087
20
-4.236381
10
4.864092
20
-4.090178
10
5.013101
20
-3.92671
10
5.152939
20
-3.748362
10
5.281568
20
-3.557733
10
5.397112
20
-3.357605
10
5.497886
20
-3.150895
10
5.582421
20
-2.940617
10
5.649485
20
-2.729839
10
5.698098
20
-2.521632
10
5.727552
20
-2.319035
10
5.737418
20
-2.125
10
5.737418
20
-1.6875
10
5.196152
20
-2
10
5.196152
20
-2.4375
10
5.186157
20
-2.589928
10
5.156415
20
-2.750146
10
5.107661
20
-2.914207
10
5.041094
20
-3.078072
10
4.958353
20
-3.237706
10
4.861476
20
-3.389179
10
4.752848
20
-3.528761
10
4.635144
20
-3.653014
10
4.511263
20
-3.758879
10
4.384254
20
-3.84375
10
4.257245
20
-3.905536
10
4.133363
20
-3.942717
10
4.015659
20
-3.954377
10
3.907031
20
-3.940228
10
3.810154
20
-3.900619
10
3.727414
20
-3.836525
10
3.660846
20
-3.749525
10
3.612092
20
-3.641761
10
3.582351
20
-3.515886
10
3.572355
20
-3.375
10
3.572355
20
4.8125
10
3.031089
20
4.5
0
LWPOLYLINE
5
181
330
1F
100
AcDbEntity
8
S-DETL-CUT
370
50
100
AcDbPolyline
90
5
70
0
43
0
10
2.692798
20
3.476563
10
3.910646
20
4.179688
10
3.910646
20
4.304688
10
2.692798
20
3.601563
10
2.692798
20
3.476563
0
LWPOLYLINE
5
182
330
1F
100
AcDbEntity
8
S-DETL-CUT
370
50
100
AcDbPolyline
90
5
70
0
43
0
10
2.895772
20
3.71875
10
3.707671
20
4.1875
10
3.707671
20
4.734375
10
2.895772
20
4.265625
10
2.895772
20
3.71875
0
LWPOLYLINE
5
183
330
1F
100
AcDbEntity
8
S-DETL-CUT
370
50
100
AcDbPolyline
90
5
70
0
43
0
10
0.16238
20
1.59375
10
1.461418
20
2.34375
10
1.461418
20
7.84375
10
0.16238
20
7.09375
10
0.16238
20
1.59375
0
LWPOLYLINE
5
184
330
1F
100
AcDbEntity
8
S-DETL-CUT
370
50
100
AcDbPolyline
90
5
70
0
43
0
10
-16.725116
20
-12.466926
10
-15.426078
20
-11.716926
10
-15.426078
20
-6.216926
10
-16.725116
20
-6.966926
10
-16.725116
20
-12.466926
0
LWPOLYLINE
5
185
330
1F
100
AcDbEntity
8
S-DETL-CUT
370
50
100
AcDbPolyline
90
2
70
0
43
0
10
-17.374635
20
-12.841926
10
-16.725116
20
-12.466926
0
LWPOLYLINE
5
186
330
1F
100
AcDbEntity
8
S-DETL-CUT
370
50
100
AcDbPolyline
90
3
70
0
43
0
10
-16.725116
20
-6.966926
10
-17.374635
20
-7.341926
10
-17.374635
20
-12.841926
0
LWPOLYLINE
5
187
330
1F
100
AcDbEntity
8
S-DETL-CUT
370
50
100
AcDbPolyline
90
5
70
0
43
0
10
-16.725116
20
-12.841926
10
0
20
-3.185676
10
0
20
-2.810676
10
-16.725116
20
-12.466926
10
-16.725116
20
-12.841926
0
LWPOLYLINE
5
188
330
1F
100
AcDbEntity
8
S-DETL-CUT
370
50
100
AcDbPolyline
90
5
70
0
43
0
10
6.603444
20
4.8125
10
25.980762
20
16
10
25.980762
20
16.5
10
6.603444
20
5.3125
10
6.603444
20
4.8125
0
TEXT
5
189
330
1F
100
AcDbEntity
8
S-ANNO-NOTE
370
18
100
AcDbText
10
30.668262
20
17.836849
30
0
40
1.171875
1
PRE-ENGINEERED WOOD TRUSS @
7
KERF
100
AcDbText
0
TEXT
5
18A
330
1F
100
AcDbEntity
8
S-ANNO-NOTE
370
18
100
AcDbText
10
30.668262
20
15.961849
30
0
40
1.171875
1
24" O.C.
7
KERF
100
AcDbText
0
LWPOLYLINE
5
18B
330
1F
100
AcDbEntity
8
S-ANNO-NOTE
370
18
100
AcDbPolyline
90
3
70
0
43
0
10
30.168262
20
17.485287
10
28.605762
20
17.485287
10
-3.293568
20
17.485287
0
HATCH
5
18C
330
1F
100
AcDbEntity
8
S-ANNO-NOTE
370
50
100
AcDbHatch
10
0
20
0
30
0
210
0
220
0
230
1
2
SOLID
70
1
71
0
91
1
92
3
72
0
73
1
93
3
10
-4.465443
20
17.485287
10
-3.293568
20
17.094662
10
-3.293568
20
17.875912
97
0
75
0
76
1
98
0
0
TEXT
5
18D
330
1F
100
AcDbEntity
8
S-ANNO-NOTE
370
18
100
AcDbText
10
30.668262
20
4.132813
30
0
40
1.171875
1
2X6 BIRD BLOCKING
7
KERF
100
AcDbText
0
LWPOLYLINE
5
18E
330
1F
100
AcDbEntity
8
S-ANNO-NOTE
370
18
100
AcDbPolyline
90
3
70
0
43
0
10
30.168262
20
4.71875
10
28.605762
20
4.71875
10
1.983774
20
4.71875
0
HATCH
5
18F
330
1F
100
AcDbEntity
8
S-ANNO-NOTE
370
50
100
AcDbHatch
10
0
20
0
30
0
210
0
220
0
230
1
2
SOLID
70
1
71
0
91
1
92
3
72
0
73
1
93
3
10
0.811899
20
4.71875
10
1.983774
20
4.328125
10
1.983774
20
5.109375
97
0
75
0
76
1
98
0
0
TEXT
5
190
330
1F
100
AcDbEntity
8
S-ANNO-NOTE
370
18
100
AcDbText
10
30.668262
20
-16.304688
30
0
40
1.171875
1
8" CMU W/ GROUTED BOND BEAM
7
KERF
100
AcDbText
0
LWPOLYLINE
5
191
330
1F
100
AcDbEntity
8
S-ANNO-NOTE
370
18
100
AcDbPolyline
90
3
70
0
43
0
10
30.168262
20
-15.71875
10
28.605762
20
-15.71875
10
-5.918708
20
-15.71875
0
HATCH
5
192
330
1F
100
AcDbEntity
8
S-ANNO-NOTE
370
50
100
AcDbHatch
10
0
20
0
30
0
210
0
220
0
230
1
2
SOLID
70
1
71
0
91
1
92
3
72
0
73
1
93
3
10
-7.090583
20
-15.71875
10
-5.918708
20
-16.109375
10
-5.918708
20
-15.328125
97
0
75
0
76
1
98
0
0
LWPOLYLINE
5
193
330
1F
100
AcDbEntity
8
S-ANNO-TTLB
370
50
100
AcDbPolyline
90
2
70
1
43
0
10
-38.159244
20
-36.90625
42
1
10
-30.346744
20
-36.90625
42
1
0
LWPOLYLINE
5
194
330
1F
100
AcDbEntity
8
S-ANNO-NOTE
370
18
100
AcDbPolyline
90
2
70
0
43
0
10
-38.159244
20
-36.90625
10
-30.346744
20
-36.90625
0
TEXT
5
195
330
1F
100
AcDbEntity
8
S-ANNO-TTLB
370
50
100
AcDbText
10
-34.252994
20
-34.953125
30
0
40
1.953125
1
2
7
KERF
72
1
11
-34.252994
21
-34.953125
31
0
100
AcDbText
73
2
0
TEXT
5
196
330
1F
100
AcDbEntity
8
S-ANNO-TTLB
370
18
100
AcDbText
10
-34.252994
20
-38.859375
30
0
40
0.878906
1
S-501
7
KERF
72
1
11
-34.252994
21
-38.859375
31
0
100
AcDbText
73
2
0
TEXT
5
197
330
1F
100
AcDbEntity
8
S-ANNO-TTLB
370
50
100
AcDbText
10
-28.471744
20
-36.65625
30
0
40
1.953125
1
TRUSS BEARING AT CMU WALL - ISO
7
KERF
100
AcDbText
0
LWPOLYLINE
5
198
330
1F
100
AcDbEntity
8
S-ANNO-TTLB
370
50
100
AcDbPolyline
90
2
70
0
43
0
10
-28.471744
20
-37.53125
10
25.285696
20
-37.53125
0
TEXT
5
199
330
1F
100
AcDbEntity
8
S-ANNO-TTLB
370
18
100
AcDbText
10
-28.471744
20
-39.453125
30
0
40
1.171875
1
SCALE: NTS
7
KERF
100
AcDbText
0
ENDSEC
0
SECTION
2
OBJECTS
0
DICTIONARY
5
C
330
0
100
AcDbDictionary
281
1
3
ACAD_GROUP
350
D
0
DICTIONARY
5
D
330
C
100
AcDbDictionary
281
1
0
ENDSEC
0
EOF
