0
SECTION
2
HEADER
9
$ACADVER
1
AC1015
9
$HANDSEED
5
14F
9
$INSUNITS
70
1
9
$MEASUREMENT
70
0
9
$LTSCALE
40
1
9
$EXTMIN
10
-6.75
20
-17.745
30
0
9
$EXTMAX
10
44.192857
20
51.4875
30
0
0
ENDSEC
0
SECTION
2
CLASSES
0
ENDSEC
0
SECTION
2
TABLES
0
TABLE
2
VPORT
5
8
330
0
100
AcDbSymbolTable
70
1
0
VPORT
5
30
330
8
100
AcDbSymbolTableRecord
100
AcDbViewportTableRecord
2
*ACTIVE
70
0
10
0
20
0
11
1
21
1
12
18.721429
22
16.87125
13
0
23
0
14
10
24
10
15
10
25
10
16
0
26
0
36
1
17
0
27
0
37
0
40
76.15575
41
0.735823
42
50
43
0
44
0
50
0
51
0
71
0
72
100
73
1
74
3
75
0
76
0
77
0
78
0
0
ENDTAB
0
TABLE
2
LTYPE
5
5
330
0
100
AcDbSymbolTable
70
4
0
LTYPE
5
14
330
5
100
AcDbSymbolTableRecord
100
AcDbLinetypeTableRecord
2
BYBLOCK
70
0
3

72
65
73
0
40
0
0
LTYPE
5
15
330
5
100
AcDbSymbolTableRecord
100
AcDbLinetypeTableRecord
2
BYLAYER
70
0
3

72
65
73
0
40
0
0
LTYPE
5
16
330
5
100
AcDbSymbolTableRecord
100
AcDbLinetypeTableRecord
2
CONTINUOUS
70
0
3
Solid line
72
65
73
0
40
0
0
LTYPE
5
40
330
5
100
AcDbSymbolTableRecord
100
AcDbLinetypeTableRecord
2
DASHED
70
0
3
DASHED
72
65
73
2
40
1.417323
49
0.944882
74
0
49
-0.472441
74
0
0
ENDTAB
0
TABLE
2
LAYER
5
2
330
0
100
AcDbSymbolTable
70
10
0
LAYER
5
10
330
2
100
AcDbSymbolTableRecord
100
AcDbLayerTableRecord
2
0
70
0
62
7
6
CONTINUOUS
370
-3
0
LAYER
5
50
330
2
100
AcDbSymbolTableRecord
100
AcDbLayerTableRecord
2
S-DETL-PATT
70
0
62
7
6
CONTINUOUS
370
9
0
LAYER
5
51
330
2
100
AcDbSymbolTableRecord
100
AcDbLayerTableRecord
2
S-DETL-BYND
70
0
62
7
6
CONTINUOUS
370
25
0
LAYER
5
52
330
2
100
AcDbSymbolTableRecord
100
AcDbLayerTableRecord
2
S-DETL-CUT
70
0
62
7
6
CONTINUOUS
370
50
0
LAYER
5
53
330
2
100
AcDbSymbolTableRecord
100
AcDbLayerTableRecord
2
S-DETL-STL
70
0
62
7
6
CONTINUOUS
370
35
0
LAYER
5
54
330
2
100
AcDbSymbolTableRecord
100
AcDbLayerTableRecord
2
S-DETL-HIDN
70
0
62
7
6
DASHED
370
18
0
LAYER
5
55
330
2
100
AcDbSymbolTableRecord
100
AcDbLayerTableRecord
2
S-DETL-BRKL
70
0
62
7
6
CONTINUOUS
370
25
0
LAYER
5
56
330
2
100
AcDbSymbolTableRecord
100
AcDbLayerTableRecord
2
S-ANNO-NOTE
70
0
62
7
6
CONTINUOUS
370
18
0
LAYER
5
57
330
2
100
AcDbSymbolTableRecord
100
AcDbLayerTableRecord
2
S-ANNO-DIMS
70
0
62
7
6
CONTINUOUS
370
13
0
LAYER
5
58
330
2
100
AcDbSymbolTableRecord
100
AcDbLayerTableRecord
2
S-ANNO-TTLB
70
0
62
7
6
CONTINUOUS
370
50
0
ENDTAB
0
TABLE
2
STYLE
5
3
330
0
100
AcDbSymbolTable
70
2
0
STYLE
5
11
330
3
100
AcDbSymbolTableRecord
100
AcDbTextStyleTableRecord
2
STANDARD
70
0
40
0
41
1
50
0
71
0
42
0.2
3
txt
4

0
STYLE
5
12
330
3
100
AcDbSymbolTableRecord
100
AcDbTextStyleTableRecord
2
KERF
70
0
40
0
41
1
50
0
71
0
42
0.2
3
romans.shx
4

0
ENDTAB
0
TABLE
2
VIEW
5
6
330
0
100
AcDbSymbolTable
70
0
0
ENDTAB
0
TABLE
2
UCS
5
7
330
0
100
AcDbSymbolTable
70
0
0
ENDTAB
0
TABLE
2
APPID
5
9
330
0
100
AcDbSymbolTable
70
1
0
APPID
5
13
330
9
100
AcDbSymbolTableRecord
100
AcDbRegAppTableRecord
2
ACAD
70
0
0
ENDTAB
0
TABLE
2
DIMSTYLE
5
A
330
0
100
AcDbSymbolTable
70
1
100
AcDbDimStyleTable
71
1
0
DIMSTYLE
105
17
330
A
100
AcDbSymbolTableRecord
100
AcDbDimStyleTableRecord
2
STANDARD
70
0
340
17
0
ENDTAB
0
TABLE
2
BLOCK_RECORD
5
1
330
0
100
AcDbSymbolTable
70
2
0
BLOCK_RECORD
5
1F
330
1
100
AcDbSymbolTableRecord
100
AcDbBlockTableRecord
2
*Model_Space
70
0
280
1
281
0
0
BLOCK_RECORD
5
1B
330
1
100
AcDbSymbolTableRecord
100
AcDbBlockTableRecord
2
*Paper_Space
70
0
280
1
281
0
0
ENDTAB
0
ENDSEC
0
SECTION
2
BLOCKS
0
BLOCK
5
20
330
1F
100
AcDbEntity
8
0
100
AcDbBlockBegin
2
*Model_Space
70
0
10
0
20
0
30
0
3
*Model_Space
1

0
ENDBLK
5
21
330
1F
100
AcDbEntity
8
0
100
AcDbBlockEnd
0
BLOCK
5
22
330
1B
100
AcDbEntity
67
1
8
0
100
AcDbBlockBegin
2
*Paper_Space
70
0
10
0
20
0
30
0
3
*Paper_Space
1

0
ENDBLK
5
23
330
1B
100
AcDbEntity
67
1
8
0
100
AcDbBlockEnd
0
ENDSEC
0
SECTION
2
ENTITIES
0
HATCH
5
100
330
1F
100
AcDbEntity
8
S-DETL-PATT
370
9
100
AcDbHatch
10
0
20
0
30
0
210
0
220
0
230
1
2
KERF-CONC
70
0
71
0
91
3
92
3
72
0
73
1
93
32
10
0
20
0
10
24
20
0
10
24
20
12
10
10.75
20
12
10
10.75
20
5.75
10
10.768467
20
5.515348
10
10.823415
20
5.286475
10
10.91349
20
5.069014
10
11.036475
20
4.868322
10
11.18934
20
4.68934
10
11.368322
20
4.536475
10
11.569014
20
4.41349
10
11.786475
20
4.323415
10
12.015348
20
4.268467
10
12.25
20
4.25
10
19
20
4.25
10
19
20
3.75
10
12.25
20
3.75
10
11.988948
20
3.76711
10
11.732362
20
3.818148
10
11.484633
20
3.902241
10
11.25
20
4.017949
10
11.032477
20
4.163293
10
10.835786
20
4.335786
10
10.663293
20
4.532477
10
10.517949
20
4.75
10
10.402241
20
4.984633
10
10.318148
20
5.232362
10
10.26711
20
5.488948
10
10.25
20
5.75
10
10.25
20
12
10
0
20
12
97
0
92
2
72
0
73
1
93
16
10
3.48097
20
3.345671
10
3.5
20
3.25
10
3.48097
20
3.154329
10
3.426777
20
3.073223
10
3.345671
20
3.01903
10
3.25
20
3
10
3.154329
20
3.01903
10
3.073223
20
3.073223
10
3.01903
20
3.154329
10
3
20
3.25
10
3.01903
20
3.345671
10
3.073223
20
3.426777
10
3.154329
20
3.48097
10
3.25
20
3.5
10
3.345671
20
3.48097
10
3.426777
20
3.426777
97
0
92
2
72
0
73
1
93
16
10
20.98097
20
3.345671
10
21
20
3.25
10
20.98097
20
3.154329
10
20.926777
20
3.073223
10
20.845671
20
3.01903
10
20.75
20
3
10
20.654329
20
3.01903
10
20.573223
20
3.073223
10
20.51903
20
3.154329
10
20.5
20
3.25
10
20.51903
20
3.345671
10
20.573223
20
3.426777
10
20.654329
20
3.48097
10
20.75
20
3.5
10
20.845671
20
3.48097
10
20.926777
20
3.426777
97
0
75
0
76
1
52
0
41
1
77
0
78
5
53
0
43
0
44
0
45
1.1244
46
0.9732
79
2
49
0
49
-2.25
53
0
43
0.564
44
0.48
45
1.1244
46
0.9732
79
2
49
0
49
-2.25
53
60
43
1.32
44
0.24
45
3
46
2.598
79
2
49
0.42
49
-5.58
53
180
43
1.74
44
0.6
45
3
46
2.598
79
2
49
0.42
49
-5.58
53
300
43
1.32
44
0.6
45
3
46
2.598
79
2
49
0.42
49
-5.58
98
0
0
HATCH
5
101
330
1F
100
AcDbEntity
8
S-DETL-PATT
370
9
100
AcDbHatch
10
0
20
0
30
0
210
0
220
0
230
1
2
KERF-CONC
70
0
71
0
91
2
92
3
72
0
73
1
93
22
10
8
20
12
10
10.25
20
12
10
10.25
20
40
10
10.75
20
40
10
10.75
20
12
10
16
20
12
10
16
20
42
10
12.25
20
42
10
12.25
20
40.4
10
12.2875
20
40.4
10
12.2875
20
38.175
10
12.25
20
38.1375
10
12.25
20
38
10
11.75
20
38
10
11.75
20
38.1375
10
11.7125
20
38.175
10
11.7125
20
40.4
10
11.75
20
40.4
10
11.75
20
42
10
8.82145
20
42
10
8.82145
20
41.99105
10
8
20
41.99105
97
0
92
2
72
0
73
1
93
16
10
12.23097
20
27.095671
10
12.25
20
27
10
12.23097
20
26.904329
10
12.176777
20
26.823223
10
12.095671
20
26.76903
10
12
20
26.75
10
11.904329
20
26.76903
10
11.823223
20
26.823223
10
11.76903
20
26.904329
10
11.75
20
27
10
11.76903
20
27.095671
10
11.823223
20
27.176777
10
11.904329
20
27.23097
10
12
20
27.25
10
12.095671
20
27.23097
10
12.176777
20
27.176777
97
0
75
0
76
1
52
0
41
1
77
0
78
5
53
0
43
0
44
0
45
1.1244
46
0.9732
79
2
49
0
49
-2.25
53
0
43
0.564
44
0.48
45
1.1244
46
0.9732
79
2
49
0
49
-2.25
53
60
43
1.32
44
0.24
45
3
46
2.598
79
2
49
0.42
49
-5.58
53
180
43
1.74
44
0.6
45
3
46
2.598
79
2
49
0.42
49
-5.58
53
300
43
1.32
44
0.6
45
3
46
2.598
79
2
49
0.42
49
-5.58
98
0
0
HATCH
5
102
330
1F
100
AcDbEntity
8
S-DETL-STL
370
50
100
AcDbHatch
10
0
20
0
30
0
210
0
220
0
230
1
2
SOLID
70
1
71
0
91
1
92
3
72
1
73
1
93
2
10
3.5
20
3.25
42
1
10
3
20
3.25
42
1
97
0
75
0
76
1
98
0
0
HATCH
5
103
330
1F
100
AcDbEntity
8
S-DETL-STL
370
50
100
AcDbHatch
10
0
20
0
30
0
210
0
220
0
230
1
2
SOLID
70
1
71
0
91
1
92
3
72
1
73
1
93
2
10
21
20
3.25
42
1
10
20.5
20
3.25
42
1
97
0
75
0
76
1
98
0
0
HATCH
5
104
330
1F
100
AcDbEntity
8
S-DETL-STL
370
50
100
AcDbHatch
10
0
20
0
30
0
210
0
220
0
230
1
2
SOLID
70
1
71
0
91
1
92
3
72
1
73
1
93
2
10
12.25
20
27
42
1
10
11.75
20
27
42
1
97
0
75
0
76
1
98
0
0
HATCH
5
105
330
1F
100
AcDbEntity
8
S-DETL-STL
370
50
100
AcDbHatch
10
0
20
0
30
0
210
0
220
0
230
1
2
SOLID
70
1
71
0
91
1
92
3
72
1
73
1
93
8
10
10.75
20
40
42
0
10
10.75
20
5.75
42
0.414214
10
12.25
20
4.25
42
0
10
19
20
4.25
42
0
10
19
20
3.75
42
0
10
12.25
20
3.75
42
-0.414214
10
10.25
20
5.75
42
0
10
10.25
20
40
42
0
97
0
75
0
76
1
98
0
0
HATCH
5
106
330
1F
100
AcDbEntity
8
S-DETL-STL
370
50
100
AcDbHatch
10
0
20
0
30
0
210
0
220
0
230
1
2
SOLID
70
1
71
0
91
1
92
3
72
0
73
1
93
4
10
12.25
20
44.5
10
12.25
20
38
10
11.75
20
38
10
11.75
20
44.5
97
0
75
0
76
1
98
0
0
HATCH
5
107
330
1F
100
AcDbEntity
8
S-DETL-STL
370
50
100
AcDbHatch
10
0
20
0
30
0
210
0
220
0
230
1
2
SOLID
70
1
71
0
91
1
92
3
72
0
73
1
93
6
10
11.8875
20
38
10
12.1125
20
38
10
12.2875
20
38.175
10
12.2875
20
40.4
10
11.7125
20
40.4
10
11.7125
20
38.175
97
0
75
0
76
1
98
0
0
HATCH
5
108
330
1F
100
AcDbEntity
8
S-DETL-STL
370
50
100
AcDbHatch
10
0
20
0
30
0
210
0
220
0
230
1
2
SOLID
70
1
71
0
91
1
92
3
72
0
73
1
93
4
10
11.4375
20
43.8125
10
12.5625
20
43.8125
10
12.5625
20
43.9375
10
11.4375
20
43.9375
97
0
75
0
76
1
98
0
0
HATCH
5
109
330
1F
100
AcDbEntity
8
S-DETL-STL
370
50
100
AcDbHatch
10
0
20
0
30
0
210
0
220
0
230
1
2
SOLID
70
1
71
0
91
1
92
3
72
0
73
1
93
4
10
11.625
20
43.9375
10
12.375
20
43.9375
10
12.375
20
44.375
10
11.625
20
44.375
97
0
75
0
76
1
98
0
0
HATCH
5
10A
330
1F
100
AcDbEntity
8
S-DETL-STL
370
50
100
AcDbHatch
10
0
20
0
30
0
210
0
220
0
230
1
2
SOLID
70
1
71
0
91
1
92
3
72
0
73
1
93
8
10
8.82145
20
45.5
10
8.82145
20
41.99105
10
7.94645
20
41.99105
10
7.94645
20
41.5
10
7.92855
20
41.5
10
7.92855
20
42.00895
10
8.80355
20
42.00895
10
8.80355
20
45.5
97
0
75
0
76
1
98
0
0
LWPOLYLINE
5
10B
330
1F
100
AcDbEntity
8
S-DETL-BYND
370
25
100
AcDbPolyline
90
2
70
0
43
0
10
9.25
20
42
10
14.75
20
43.5
0
LWPOLYLINE
5
10C
330
1F
100
AcDbEntity
8
S-DETL-BYND
370
25
100
AcDbPolyline
90
2
70
0
43
0
10
14.75
20
42
10
9.25
20
43.5
0
LWPOLYLINE
5
10D
330
1F
100
AcDbEntity
8
S-DETL-BYND
370
25
100
AcDbPolyline
90
2
70
0
43
0
10
12.1125
20
38
10
11.8875
20
38
0
LWPOLYLINE
5
10E
330
1F
100
AcDbEntity
8
S-DETL-BYND
370
25
100
AcDbPolyline
90
2
70
0
43
0
10
12.375
20
43.9375
10
11.625
20
43.9375
0
LWPOLYLINE
5
10F
330
1F
100
AcDbEntity
8
S-DETL-CUT
370
50
100
AcDbPolyline
90
4
70
1
43
0
10
0
20
0
10
24
20
0
10
24
20
12
10
0
20
12
0
LWPOLYLINE
5
110
330
1F
100
AcDbEntity
8
S-DETL-CUT
370
50
100
AcDbPolyline
90
4
70
0
43
0
10
16
20
12
10
16
20
42
10
8
20
42
10
8
20
12
0
LWPOLYLINE
5
111
330
1F
100
AcDbEntity
8
S-DETL-CUT
370
50
100
AcDbPolyline
90
4
70
0
43
0
10
14.75
20
42
10
14.75
20
43.5
10
9.25
20
43.5
10
9.25
20
42
0
LWPOLYLINE
5
112
330
1F
100
AcDbEntity
8
S-DETL-CUT
370
50
100
AcDbPolyline
90
2
70
0
43
0
10
9.25
20
50
10
9.25
20
43.5
0
LWPOLYLINE
5
113
330
1F
100
AcDbEntity
8
S-DETL-CUT
370
50
100
AcDbPolyline
90
2
70
0
43
0
10
14.75
20
43.5
10
14.75
20
50
0
LWPOLYLINE
5
114
330
1F
100
AcDbEntity
8
S-DETL-CUT
370
50
100
AcDbPolyline
90
2
70
0
43
0
10
8.8125
20
50
10
8.8125
20
42
0
LWPOLYLINE
5
115
330
1F
100
AcDbEntity
8
S-DETL-STL
370
35
100
AcDbPolyline
90
2
70
1
43
0
10
3.5
20
3.25
42
1
10
3
20
3.25
42
1
0
LWPOLYLINE
5
116
330
1F
100
AcDbEntity
8
S-DETL-STL
370
35
100
AcDbPolyline
90
2
70
1
43
0
10
21
20
3.25
42
1
10
20.5
20
3.25
42
1
0
LWPOLYLINE
5
117
330
1F
100
AcDbEntity
8
S-DETL-STL
370
35
100
AcDbPolyline
90
2
70
1
43
0
10
12.25
20
27
42
1
10
11.75
20
27
42
1
0
LWPOLYLINE
5
118
330
1F
100
AcDbEntity
8
S-DETL-STL
370
35
100
AcDbPolyline
90
8
70
1
43
0
10
10.75
20
40
10
10.75
20
5.75
42
0.414214
10
12.25
20
4.25
10
19
20
4.25
10
19
20
3.75
10
12.25
20
3.75
42
-0.414214
10
10.25
20
5.75
10
10.25
20
40
0
LWPOLYLINE
5
119
330
1F
100
AcDbEntity
8
S-DETL-STL
370
35
100
AcDbPolyline
90
10
70
1
43
0
10
11.8875
20
38
10
11.75
20
38
10
11.75
20
44.5
10
12.25
20
44.5
10
12.25
20
38
10
12.1125
20
38
10
12.2875
20
38.175
10
12.2875
20
40.4
10
11.7125
20
40.4
10
11.7125
20
38.175
0
LWPOLYLINE
5
11A
330
1F
100
AcDbEntity
8
S-DETL-STL
370
35
100
AcDbPolyline
90
8
70
1
43
0
10
11.625
20
43.9375
10
11.4375
20
43.9375
10
11.4375
20
43.8125
10
12.5625
20
43.8125
10
12.5625
20
43.9375
10
12.375
20
43.9375
10
12.375
20
44.375
10
11.625
20
44.375
0
LWPOLYLINE
5
11B
330
1F
100
AcDbEntity
8
S-DETL-STL
370
35
100
AcDbPolyline
90
8
70
1
43
0
10
8.82145
20
45.5
10
8.82145
20
41.99105
10
7.94645
20
41.99105
10
7.94645
20
41.5
10
7.92855
20
41.5
10
7.92855
20
42.00895
10
8.80355
20
42.00895
10
8.80355
20
45.5
0
LWPOLYLINE
5
11C
330
1F
100
AcDbEntity
8
S-DETL-HIDN
6
DASHED
370
18
100
AcDbPolyline
90
4
70
1
43
0
10
12.8954
20
15
10
12.8954
20
41.125
10
13
20
41.125
10
13
20
15
0
LWPOLYLINE
5
11D
330
1F
100
AcDbEntity
8
S-DETL-BRKL
370
25
100
AcDbPolyline
90
6
70
0
43
0
10
8.0625
20
50
10
9.178125
20
50
10
10.74
20
51.4875
10
12.8225
20
48.5125
10
14.384375
20
50
10
15.5
20
50
0
TEXT
5
11E
330
1F
100
AcDbEntity
8
S-ANNO-NOTE
370
18
100
AcDbText
10
36.5
20
25.5375
30
0
40
1.125
1
(1) #4 CONT. CENTERED IN
7
KERF
100
AcDbText
0
TEXT
5
11F
330
1F
100
AcDbEntity
8
S-ANNO-NOTE
370
18
100
AcDbText
10
36.5
20
23.7375
30
0
40
1.125
1
STEM WALL
7
KERF
100
AcDbText
0
LWPOLYLINE
5
120
330
1F
100
AcDbEntity
8
S-ANNO-NOTE
370
18
100
AcDbPolyline
90
3
70
0
43
0
10
36.02
20
25.2
10
34.52
20
25.2
10
13.121424
20
26.910366
0
HATCH
5
121
330
1F
100
AcDbEntity
8
S-ANNO-NOTE
370
50
100
AcDbHatch
10
0
20
0
30
0
210
0
220
0
230
1
2
SOLID
70
1
71
0
91
1
92
3
72
0
73
1
93
3
10
12
20
27
10
13.091545
20
26.536558
10
13.151302
20
27.284174
97
0
75
0
76
1
98
0
0
TEXT
5
122
330
1F
100
AcDbEntity
8
S-ANNO-NOTE
370
18
100
AcDbText
10
36.5
20
20.055007
30
0
40
1.125
1
#4 DOWEL W/ STD. HOOK @ 24"
7
KERF
100
AcDbText
0
TEXT
5
123
330
1F
100
AcDbEntity
8
S-ANNO-NOTE
370
18
100
AcDbText
10
36.5
20
18.255007
30
0
40
1.125
1
O.C., LAP 30" MIN. W/ STEM
7
KERF
100
AcDbText
0
TEXT
5
124
330
1F
100
AcDbEntity
8
S-ANNO-NOTE
370
18
100
AcDbText
10
36.5
20
16.455007
30
0
40
1.125
1
BAR
7
KERF
100
AcDbText
0
LWPOLYLINE
5
125
330
1F
100
AcDbEntity
8
S-ANNO-NOTE
370
18
100
AcDbPolyline
90
3
70
0
43
0
10
36.02
20
18.817507
10
34.52
20
18.817507
10
11.625
20
18.817507
0
HATCH
5
126
330
1F
100
AcDbEntity
8
S-ANNO-NOTE
370
50
100
AcDbHatch
10
0
20
0
30
0
210
0
220
0
230
1
2
SOLID
70
1
71
0
91
1
92
3
72
0
73
1
93
3
10
10.5
20
18.817507
10
11.625
20
18.442507
10
11.625
20
19.192507
97
0
75
0
76
1
98
0
0
TEXT
5
127
330
1F
100
AcDbEntity
8
S-ANNO-NOTE
370
18
100
AcDbText
10
36.5
20
2.6875
30
0
40
1.125
1
(2) #4 CONT. BOTT., 3" CLR.
7
KERF
100
AcDbText
0
LWPOLYLINE
5
128
330
1F
100
AcDbEntity
8
S-ANNO-NOTE
370
18
100
AcDbPolyline
90
3
70
0
43
0
10
36.02
20
3.25
10
34.52
20
3.25
10
21.875
20
3.25
0
HATCH
5
129
330
1F
100
AcDbEntity
8
S-ANNO-NOTE
370
50
100
AcDbHatch
10
0
20
0
30
0
210
0
220
0
230
1
2
SOLID
70
1
71
0
91
1
92
3
72
0
73
1
93
3
10
20.75
20
3.25
10
21.875
20
2.875
10
21.875
20
3.625
97
0
75
0
76
1
98
0
0
TEXT
5
12A
330
1F
100
AcDbEntity
8
S-ANNO-NOTE
370
18
100
AcDbText
10
36.5
20
40.6875
30
0
40
1.125
1
1/2" DIA. WEDGE ANCHOR, 4"
7
KERF
100
AcDbText
0
TEXT
5
12B
330
1F
100
AcDbEntity
8
S-ANNO-NOTE
370
18
100
AcDbText
10
36.5
20
38.8875
30
0
40
1.125
1
EMBED. @ 32" O.C.
7
KERF
100
AcDbText
0
LWPOLYLINE
5
12C
330
1F
100
AcDbEntity
8
S-ANNO-NOTE
370
18
100
AcDbPolyline
90
3
70
0
43
0
10
36.02
20
40.35
10
34.52
20
40.35
10
13.124103
20
41.205076
0
HATCH
5
12D
330
1F
100
AcDbEntity
8
S-ANNO-NOTE
370
50
100
AcDbHatch
10
0
20
0
30
0
210
0
220
0
230
1
2
SOLID
70
1
71
0
91
1
92
3
72
0
73
1
93
3
10
12
20
41.25
10
13.109128
20
40.830375
10
13.139077
20
41.579777
97
0
75
0
76
1
98
0
0
TEXT
5
12E
330
1F
100
AcDbEntity
8
S-ANNO-NOTE
370
18
100
AcDbText
10
36.5
20
31.635937
30
0
40
1.125
1
STHD14 HOLDOWN (WHERE
7
KERF
100
AcDbText
0
TEXT
5
12F
330
1F
100
AcDbEntity
8
S-ANNO-NOTE
370
18
100
AcDbText
10
36.5
20
29.835937
30
0
40
1.125
1
OCCURS)
7
KERF
100
AcDbText
0
LWPOLYLINE
5
130
330
1F
100
AcDbEntity
8
S-ANNO-NOTE
370
18
100
AcDbPolyline
90
3
70
0
43
0
10
36.02
20
31.298438
10
34.52
20
31.298438
10
14.089733
20
30.445371
0
HATCH
5
131
330
1F
100
AcDbEntity
8
S-ANNO-NOTE
370
50
100
AcDbHatch
10
0
20
0
30
0
210
0
220
0
230
1
2
SOLID
70
1
71
0
91
1
92
3
72
0
73
1
93
3
10
12.965713
20
30.398438
10
14.105378
20
30.070697
10
14.074089
20
30.820045
97
0
75
0
76
1
98
0
0
TEXT
5
132
330
1F
100
AcDbEntity
8
S-ANNO-NOTE
370
18
100
AcDbText
10
36.5
20
47.168269
30
0
40
1.125
1
WEEP SCREED, 3 1/2" NAILING
7
KERF
100
AcDbText
0
TEXT
5
133
330
1F
100
AcDbEntity
8
S-ANNO-NOTE
370
18
100
AcDbText
10
36.5
20
45.368269
30
0
40
1.125
1
FLANGE
7
KERF
100
AcDbText
0
LWPOLYLINE
5
134
330
1F
100
AcDbEntity
8
S-ANNO-NOTE
370
18
100
AcDbPolyline
90
3
70
0
43
0
10
36.02
20
46.830769
10
34.52
20
46.830769
10
9.926629
20
43.386788
0
HATCH
5
135
330
1F
100
AcDbEntity
8
S-ANNO-NOTE
370
50
100
AcDbHatch
10
0
20
0
30
0
210
0
220
0
230
1
2
SOLID
70
1
71
0
91
1
92
3
72
0
73
1
93
3
10
8.8125
20
43.230769
10
9.978635
20
43.015412
10
9.874622
20
43.758165
97
0
75
0
76
1
98
0
0
TEXT
5
136
330
1F
100
AcDbEntity
8
S-ANNO-NOTE
370
18
100
AcDbText
10
36.5
20
43.0875
30
0
40
1.125
1
2X6 P.T. SILL PLATE
7
KERF
100
AcDbText
0
LWPOLYLINE
5
137
330
1F
100
AcDbEntity
8
S-ANNO-NOTE
370
18
100
AcDbPolyline
90
3
70
0
43
0
10
36.02
20
43.65
10
34.52
20
43.65
10
14.62397
20
42.798124
0
HATCH
5
138
330
1F
100
AcDbEntity
8
S-ANNO-NOTE
370
50
100
AcDbHatch
10
0
20
0
30
0
210
0
220
0
230
1
2
SOLID
70
1
71
0
91
1
92
3
72
0
73
1
93
3
10
13.5
20
42.75
10
14.640012
20
42.423468
10
14.607929
20
43.172781
97
0
75
0
76
1
98
0
0
TEXT
5
139
330
1F
100
AcDbEntity
8
S-ANNO-NOTE
370
18
100
AcDbText
10
36.5
20
27.75
30
0
40
1.125
1
8" CONC. STEM WALL
7
KERF
100
AcDbText
0
LWPOLYLINE
5
13A
330
1F
100
AcDbEntity
8
S-ANNO-NOTE
370
18
100
AcDbPolyline
90
3
70
0
43
0
10
36.02
20
28.3125
10
34.52
20
28.3125
10
13.0625
20
28.3125
0
HATCH
5
13B
330
1F
100
AcDbEntity
8
S-ANNO-NOTE
370
50
100
AcDbHatch
10
0
20
0
30
0
210
0
220
0
230
1
2
SOLID
70
1
71
0
91
1
92
3
72
0
73
1
93
3
10
11.9375
20
28.3125
10
13.0625
20
27.9375
10
13.0625
20
28.6875
97
0
75
0
76
1
98
0
0
LWPOLYLINE
5
13C
330
1F
100
AcDbEntity
8
S-ANNO-DIMS
370
13
100
AcDbPolyline
90
2
70
0
43
0
10
0
20
-0.75
10
0
20
-6.75
0
LWPOLYLINE
5
13D
330
1F
100
AcDbEntity
8
S-ANNO-DIMS
370
13
100
AcDbPolyline
90
2
70
0
43
0
10
24
20
-0.75
10
24
20
-6.75
0
LWPOLYLINE
5
13E
330
1F
100
AcDbEntity
8
S-ANNO-DIMS
370
13
100
AcDbPolyline
90
2
70
0
43
0
10
0
20
-6
10
24
20
-6
0
LWPOLYLINE
5
13F
330
1F
100
AcDbEntity
8
S-DETL-CUT
370
35
100
AcDbPolyline
90
2
70
0
43
0
10
-0.265165
20
-6.265165
10
0.265165
20
-5.734835
0
LWPOLYLINE
5
140
330
1F
100
AcDbEntity
8
S-DETL-CUT
370
35
100
AcDbPolyline
90
2
70
0
43
0
10
23.734835
20
-6.265165
10
24.265165
20
-5.734835
0
TEXT
5
141
330
1F
100
AcDbEntity
8
S-ANNO-DIMS
370
13
100
AcDbText
10
12
20
-5.4375
30
0
40
1.125
1
2'-0"
7
KERF
72
1
11
12
21
-5.4375
31
0
100
AcDbText
0
LWPOLYLINE
5
142
330
1F
100
AcDbEntity
8
S-ANNO-DIMS
370
13
100
AcDbPolyline
90
2
70
0
43
0
10
-0.75
20
0
10
-6.75
20
0
0
LWPOLYLINE
5
143
330
1F
100
AcDbEntity
8
S-ANNO-DIMS
370
13
100
AcDbPolyline
90
2
70
0
43
0
10
7.25
20
42
10
-6.75
20
42
0
LWPOLYLINE
5
144
330
1F
100
AcDbEntity
8
S-ANNO-DIMS
370
13
100
AcDbPolyline
90
2
70
0
43
0
10
-6
20
0
10
-6
20
42
0
LWPOLYLINE
5
145
330
1F
100
AcDbEntity
8
S-DETL-CUT
370
35
100
AcDbPolyline
90
2
70
0
43
0
10
-5.734835
20
-0.265165
10
-6.265165
20
0.265165
0
LWPOLYLINE
5
146
330
1F
100
AcDbEntity
8
S-DETL-CUT
370
35
100
AcDbPolyline
90
2
70
0
43
0
10
-5.734835
20
41.734835
10
-6.265165
20
42.265165
0
TEXT
5
147
330
1F
100
AcDbEntity
8
S-ANNO-DIMS
370
13
100
AcDbText
10
-6.5625
20
21
30
0
40
1.125
1
3'-6"
50
90
7
KERF
72
1
11
-6.5625
21
21
31
0
100
AcDbText
0
LWPOLYLINE
5
148
330
1F
100
AcDbEntity
8
S-ANNO-TTLB
370
50
100
AcDbPolyline
90
2
70
1
43
0
10
-6
20
-15.3
42
1
10
1.5
20
-15.3
42
1
0
LWPOLYLINE
5
149
330
1F
100
AcDbEntity
8
S-ANNO-NOTE
370
18
100
AcDbPolyline
90
2
70
0
43
0
10
-6
20
-15.3
10
1.5
20
-15.3
0
TEXT
5
14A
330
1F
100
AcDbEntity
8
S-ANNO-TTLB
370
50
100
AcDbText
10
-2.25
20
-13.425
30
0
40
1.875
1
1
7
KERF
72
1
11
-2.25
21
-13.425
31
0
100
AcDbText
73
2
0
TEXT
5
14B
330
1F
100
AcDbEntity
8
S-ANNO-TTLB
370
18
100
AcDbText
10
-2.25
20
-17.175
30
0
40
0.84375
1
SD1
7
KERF
72
1
11
-2.25
21
-17.175
31
0
100
AcDbText
73
2
0
TEXT
5
14C
330
1F
100
AcDbEntity
8
S-ANNO-TTLB
370
50
100
AcDbText
10
3.3
20
-15.06
30
0
40
1.875
1
WALL FOOTING AT STEM WALL
7
KERF
100
AcDbText
0
LWPOLYLINE
5
14D
330
1F
100
AcDbEntity
8
S-ANNO-TTLB
370
50
100
AcDbPolyline
90
2
70
0
43
0
10
3.3
20
-15.9
10
44.192857
20
-15.9
0
TEXT
5
14E
330
1F
100
AcDbEntity
8
S-ANNO-TTLB
370
18
100
AcDbText
10
3.3
20
-17.745
30
0
40
1.125
1
SCALE: 1" = 1'-0"
7
KERF
100
AcDbText
0
ENDSEC
0
SECTION
2
OBJECTS
0
DICTIONARY
5
C
330
0
100
AcDbDictionary
281
1
3
ACAD_GROUP
350
D
0
DICTIONARY
5
D
330
C
100
AcDbDictionary
281
1
0
ENDSEC
0
EOF
