0
SECTION
2
HEADER
9
$ACADVER
1
AC1015
9
$HANDSEED
5
130
9
$INSUNITS
70
1
9
$MEASUREMENT
70
0
9
$LTSCALE
40
1
9
$EXTMIN
10
52.142857
20
-38.66
30
0
9
$EXTMAX
10
187.257143
20
0.166667
30
0
0
ENDSEC
0
SECTION
2
CLASSES
0
ENDSEC
0
SECTION
2
TABLES
0
TABLE
2
VPORT
5
8
330
0
100
AcDbSymbolTable
70
1
0
VPORT
5
30
330
8
100
AcDbSymbolTableRecord
100
AcDbViewportTableRecord
2
*ACTIVE
70
0
10
0
20
0
11
1
21
1
12
119.7
22
-19.246667
13
0
23
0
14
10
24
10
15
10
25
10
16
0
26
0
36
1
17
0
27
0
37
0
40
42.709333
41
3.479935
42
50
43
0
44
0
50
0
51
0
71
0
72
100
73
1
74
3
75
0
76
0
77
0
78
0
0
ENDTAB
0
TABLE
2
LTYPE
5
5
330
0
100
AcDbSymbolTable
70
4
0
LTYPE
5
14
330
5
100
AcDbSymbolTableRecord
100
AcDbLinetypeTableRecord
2
BYBLOCK
70
0
3

72
65
73
0
40
0
0
LTYPE
5
15
330
5
100
AcDbSymbolTableRecord
100
AcDbLinetypeTableRecord
2
BYLAYER
70
0
3

72
65
73
0
40
0
0
LTYPE
5
16
330
5
100
AcDbSymbolTableRecord
100
AcDbLinetypeTableRecord
2
CONTINUOUS
70
0
3
Solid line
72
65
73
0
40
0
0
LTYPE
5
40
330
5
100
AcDbSymbolTableRecord
100
AcDbLinetypeTableRecord
2
DASHED
70
0
3
DASHED
72
65
73
2
40
1.889764
49
1.259843
74
0
49
-0.629921
74
0
0
ENDTAB
0
TABLE
2
LAYER
5
2
330
0
100
AcDbSymbolTable
70
7
0
LAYER
5
10
330
2
100
AcDbSymbolTableRecord
100
AcDbLayerTableRecord
2
0
70
0
62
7
6
CONTINUOUS
370
-3
0
LAYER
5
50
330
2
100
AcDbSymbolTableRecord
100
AcDbLayerTableRecord
2
S-DETL-PATT
70
0
62
7
6
CONTINUOUS
370
9
0
LAYER
5
51
330
2
100
AcDbSymbolTableRecord
100
AcDbLayerTableRecord
2
S-DETL-BYND
70
0
62
7
6
CONTINUOUS
370
25
0
LAYER
5
52
330
2
100
AcDbSymbolTableRecord
100
AcDbLayerTableRecord
2
S-DETL-CUT
70
0
62
7
6
CONTINUOUS
370
50
0
LAYER
5
53
330
2
100
AcDbSymbolTableRecord
100
AcDbLayerTableRecord
2
S-DETL-REBR
70
0
62
7
6
CONTINUOUS
370
50
0
LAYER
5
54
330
2
100
AcDbSymbolTableRecord
100
AcDbLayerTableRecord
2
S-ANNO-NOTE
70
0
62
7
6
CONTINUOUS
370
18
0
LAYER
5
55
330
2
100
AcDbSymbolTableRecord
100
AcDbLayerTableRecord
2
S-ANNO-TTLB
70
0
62
7
6
CONTINUOUS
370
50
0
ENDTAB
0
TABLE
2
STYLE
5
3
330
0
100
AcDbSymbolTable
70
2
0
STYLE
5
11
330
3
100
AcDbSymbolTableRecord
100
AcDbTextStyleTableRecord
2
STANDARD
70
0
40
0
41
1
50
0
71
0
42
0.2
3
txt
4

0
STYLE
5
12
330
3
100
AcDbSymbolTableRecord
100
AcDbTextStyleTableRecord
2
KERF
70
0
40
0
41
1
50
0
71
0
42
0.2
3
romans.shx
4

0
ENDTAB
0
TABLE
2
VIEW
5
6
330
0
100
AcDbSymbolTable
70
0
0
ENDTAB
0
TABLE
2
UCS
5
7
330
0
100
AcDbSymbolTable
70
0
0
ENDTAB
0
TABLE
2
APPID
5
9
330
0
100
AcDbSymbolTable
70
1
0
APPID
5
13
330
9
100
AcDbSymbolTableRecord
100
AcDbRegAppTableRecord
2
ACAD
70
0
0
ENDTAB
0
TABLE
2
DIMSTYLE
5
A
330
0
100
AcDbSymbolTable
70
1
100
AcDbDimStyleTable
71
1
0
DIMSTYLE
105
17
330
A
100
AcDbSymbolTableRecord
100
AcDbDimStyleTableRecord
2
STANDARD
70
0
340
17
0
ENDTAB
0
TABLE
2
BLOCK_RECORD
5
1
330
0
100
AcDbSymbolTable
70
2
0
BLOCK_RECORD
5
1F
330
1
100
AcDbSymbolTableRecord
100
AcDbBlockTableRecord
2
*Model_Space
70
0
280
1
281
0
0
BLOCK_RECORD
5
1B
330
1
100
AcDbSymbolTableRecord
100
AcDbBlockTableRecord
2
*Paper_Space
70
0
280
1
281
0
0
ENDTAB
0
ENDSEC
0
SECTION
2
BLOCKS
0
BLOCK
5
20
330
1F
100
AcDbEntity
8
0
100
AcDbBlockBegin
2
*Model_Space
70
0
10
0
20
0
30
0
3
*Model_Space
1

0
ENDBLK
5
21
330
1F
100
AcDbEntity
8
0
100
AcDbBlockEnd
0
BLOCK
5
22
330
1B
100
AcDbEntity
67
1
8
0
100
AcDbBlockBegin
2
*Paper_Space
70
0
10
0
20
0
30
0
3
*Paper_Space
1

0
ENDBLK
5
23
330
1B
100
AcDbEntity
67
1
8
0
100
AcDbBlockEnd
0
ENDSEC
0
SECTION
2
ENTITIES
0
HATCH
5
100
330
1F
100
AcDbEntity
8
S-DETL-PATT
370
9
100
AcDbHatch
10
0
20
0
30
0
210
0
220
0
230
1
2
KERF-CONC
70
0
71
0
91
6
92
3
72
0
73
1
93
12
10
112
20
-18
10
126
20
-4
10
148
20
-4
10
148
20
0
10
100.5
20
0
10
100.37059
20
-0.017037
10
100.25
20
-0.066987
10
100.146447
20
-0.146447
10
100.066987
20
-0.25
10
100.017037
20
-0.37059
10
100
20
-0.5
10
100
20
-18
97
0
92
2
72
0
73
1
93
18
10
103.606154
20
-14.580619
10
103.625
20
-14.6875
10
103.606154
20
-14.794381
10
103.551889
20
-14.888371
10
103.46875
20
-14.958133
10
103.366765
20
-14.995252
10
103.258235
20
-14.995252
10
103.15625
20
-14.958133
10
103.073111
20
-14.888371
10
103.018846
20
-14.794381
10
103
20
-14.6875
10
103.018846
20
-14.580619
10
103.073111
20
-14.486629
10
103.15625
20
-14.416867
10
103.258235
20
-14.379748
10
103.366765
20
-14.379748
10
103.46875
20
-14.416867
10
103.551889
20
-14.486629
97
0
92
2
72
0
73
1
93
18
10
108.981154
20
-14.580619
10
109
20
-14.6875
10
108.981154
20
-14.794381
10
108.926889
20
-14.888371
10
108.84375
20
-14.958133
10
108.741765
20
-14.995252
10
108.633235
20
-14.995252
10
108.53125
20
-14.958133
10
108.448111
20
-14.888371
10
108.393846
20
-14.794381
10
108.375
20
-14.6875
10
108.393846
20
-14.580619
10
108.448111
20
-14.486629
10
108.53125
20
-14.416867
10
108.633235
20
-14.379748
10
108.741765
20
-14.379748
10
108.84375
20
-14.416867
10
108.926889
20
-14.486629
97
0
92
2
72
0
73
1
93
16
10
108.48097
20
-1.904329
10
108.5
20
-2
10
108.48097
20
-2.095671
10
108.426777
20
-2.176777
10
108.345671
20
-2.23097
10
108.25
20
-2.25
10
108.154329
20
-2.23097
10
108.073223
20
-2.176777
10
108.01903
20
-2.095671
10
108
20
-2
10
108.01903
20
-1.904329
10
108.073223
20
-1.823223
10
108.154329
20
-1.76903
10
108.25
20
-1.75
10
108.345671
20
-1.76903
10
108.426777
20
-1.823223
97
0
92
2
72
0
73
1
93
16
10
124.23097
20
-1.904329
10
124.25
20
-2
10
124.23097
20
-2.095671
10
124.176777
20
-2.176777
10
124.095671
20
-2.23097
10
124
20
-2.25
10
123.904329
20
-2.23097
10
123.823223
20
-2.176777
10
123.76903
20
-2.095671
10
123.75
20
-2
10
123.76903
20
-1.904329
10
123.823223
20
-1.823223
10
123.904329
20
-1.76903
10
124
20
-1.75
10
124.095671
20
-1.76903
10
124.176777
20
-1.823223
97
0
92
2
72
0
73
1
93
16
10
139.98097
20
-1.904329
10
140
20
-2
10
139.98097
20
-2.095671
10
139.926777
20
-2.176777
10
139.845671
20
-2.23097
10
139.75
20
-2.25
10
139.654329
20
-2.23097
10
139.573223
20
-2.176777
10
139.51903
20
-2.095671
10
139.5
20
-2
10
139.51903
20
-1.904329
10
139.573223
20
-1.823223
10
139.654329
20
-1.76903
10
139.75
20
-1.75
10
139.845671
20
-1.76903
10
139.926777
20
-1.823223
97
0
75
0
76
1
52
0
41
1
77
0
78
5
53
0
43
0
44
0
45
1.4992
46
1.2976
79
2
49
0
49
-3
53
0
43
0.752
44
0.64
45
1.4992
46
1.2976
79
2
49
0
49
-3
53
60
43
1.76
44
0.32
45
4
46
3.464
79
2
49
0.56
49
-7.44
53
180
43
2.32
44
0.8
45
4
46
3.464
79
2
49
0.56
49
-7.44
53
300
43
1.76
44
0.8
45
4
46
3.464
79
2
49
0.56
49
-7.44
98
0
0
HATCH
5
101
330
1F
100
AcDbEntity
8
S-DETL-PATT
370
9
100
AcDbHatch
10
0
20
0
30
0
210
0
220
0
230
1
2
KERF-GRAVEL
70
0
71
0
91
1
92
3
72
0
73
1
93
6
10
117.656854
20
-18
10
127.656854
20
-8
10
148
20
-8
10
148
20
-4
10
126
20
-4
10
112
20
-18
97
0
75
0
76
1
52
0
41
1
77
0
78
7
53
0
43
0
44
0
45
2
46
3
79
2
49
0.72
49
-5.28
53
72
43
0.72
44
0
45
2
46
3
79
2
49
0.72
49
-5.28
53
144
43
0.944
44
0.688
45
2
46
3
79
2
49
0.72
49
-5.28
53
216
43
0.352
44
1.104
45
2
46
3
79
2
49
0.72
49
-5.28
53
288
43
-0.224
44
0.688
45
2
46
3
79
2
49
0.72
49
-5.28
53
30
43
3.04
44
1.6
45
2
46
3
79
2
49
0.48
49
-5.52
53
150
43
3.04
44
1.6
45
2
46
3
79
2
49
0.48
49
-5.52
98
0
0
HATCH
5
102
330
1F
100
AcDbEntity
8
S-DETL-PATT
370
9
100
AcDbHatch
10
0
20
0
30
0
210
0
220
0
230
1
2
KERF-FILLER
70
0
71
0
91
1
92
3
72
0
73
1
93
4
10
148
20
-4
10
148.5
20
-4
10
148.5
20
-0.5
10
148
20
-0.5
97
0
75
0
76
1
52
0
41
1
77
0
78
2
53
45
43
0
44
0
45
0
46
1
79
0
53
135
43
0
44
0
45
0
46
1
79
0
98
0
0
HATCH
5
103
330
1F
100
AcDbEntity
8
S-DETL-PATT
370
9
100
AcDbHatch
10
0
20
0
30
0
210
0
220
0
230
1
2
KERF-CONC
70
0
71
0
91
1
92
3
72
0
73
1
93
7
10
148.5
20
-4
10
164.5
20
-4
10
164.5
20
0
10
156.625
20
0
10
156.5
20
-1
10
156.375
20
0
10
148.5
20
0
97
0
75
0
76
1
52
0
41
1
77
0
78
5
53
0
43
0
44
0
45
1.4992
46
1.2976
79
2
49
0
49
-3
53
0
43
0.752
44
0.64
45
1.4992
46
1.2976
79
2
49
0
49
-3
53
60
43
1.76
44
0.32
45
4
46
3.464
79
2
49
0.56
49
-7.44
53
180
43
2.32
44
0.8
45
4
46
3.464
79
2
49
0.56
49
-7.44
53
300
43
1.76
44
0.8
45
4
46
3.464
79
2
49
0.56
49
-7.44
98
0
0
HATCH
5
104
330
1F
100
AcDbEntity
8
S-DETL-BYND
370
50
100
AcDbHatch
10
0
20
0
30
0
210
0
220
0
230
1
2
SOLID
70
1
71
0
91
1
92
3
72
0
73
1
93
4
10
148
20
-0.5
10
148.5
20
-0.5
10
148.5
20
0
10
148
20
0
97
0
75
0
76
1
98
0
0
HATCH
5
105
330
1F
100
AcDbEntity
8
S-DETL-REBR
370
50
100
AcDbHatch
10
0
20
0
30
0
210
0
220
0
230
1
2
SOLID
70
1
71
0
91
1
92
3
72
1
73
1
93
2
10
103.625
20
-14.6875
42
1
10
103
20
-14.6875
42
1
97
0
75
0
76
1
98
0
0
HATCH
5
106
330
1F
100
AcDbEntity
8
S-DETL-REBR
370
50
100
AcDbHatch
10
0
20
0
30
0
210
0
220
0
230
1
2
SOLID
70
1
71
0
91
1
92
3
72
1
73
1
93
2
10
109
20
-14.6875
42
1
10
108.375
20
-14.6875
42
1
97
0
75
0
76
1
98
0
0
HATCH
5
107
330
1F
100
AcDbEntity
8
S-DETL-REBR
370
50
100
AcDbHatch
10
0
20
0
30
0
210
0
220
0
230
1
2
SOLID
70
1
71
0
91
1
92
3
72
1
73
1
93
2
10
108.5
20
-2
42
1
10
108
20
-2
42
1
97
0
75
0
76
1
98
0
0
HATCH
5
108
330
1F
100
AcDbEntity
8
S-DETL-REBR
370
50
100
AcDbHatch
10
0
20
0
30
0
210
0
220
0
230
1
2
SOLID
70
1
71
0
91
1
92
3
72
1
73
1
93
2
10
124.25
20
-2
42
1
10
123.75
20
-2
42
1
97
0
75
0
76
1
98
0
0
HATCH
5
109
330
1F
100
AcDbEntity
8
S-DETL-REBR
370
50
100
AcDbHatch
10
0
20
0
30
0
210
0
220
0
230
1
2
SOLID
70
1
71
0
91
1
92
3
72
1
73
1
93
2
10
140
20
-2
42
1
10
139.5
20
-2
42
1
97
0
75
0
76
1
98
0
0
LWPOLYLINE
5
10A
330
1F
100
AcDbEntity
8
S-DETL-BYND
370
25
100
AcDbPolyline
90
3
70
0
43
0
10
112
20
-18
10
126
20
-4
10
148
20
-4
0
LWPOLYLINE
5
10B
330
1F
100
AcDbEntity
8
S-DETL-BYND
370
25
100
AcDbPolyline
90
2
70
0
43
0
10
148.5
20
-0.5
10
148
20
-0.5
0
LWPOLYLINE
5
10C
330
1F
100
AcDbEntity
8
S-DETL-BYND
370
25
100
AcDbPolyline
90
2
70
0
43
0
10
148.5
20
0
10
148
20
0
0
LWPOLYLINE
5
10D
330
1F
100
AcDbEntity
8
S-DETL-CUT
370
50
100
AcDbPolyline
90
8
70
1
43
0
10
117.656854
20
-18
10
127.656854
20
-8
10
148
20
-8
10
148
20
-4
10
148
20
0
10
100
20
0
10
100
20
-18
10
112
20
-18
0
LWPOLYLINE
5
10E
330
1F
100
AcDbEntity
8
S-DETL-CUT
370
50
100
AcDbPolyline
90
3
70
0
43
0
10
148
20
-4
10
148.5
20
-4
10
148.5
20
-0.5
0
LWPOLYLINE
5
10F
330
1F
100
AcDbEntity
8
S-DETL-CUT
370
50
100
AcDbPolyline
90
5
70
0
43
0
10
148.5
20
-4
10
164.5
20
-4
10
164.5
20
0
10
148.5
20
0
10
148.5
20
-0.5
0
LWPOLYLINE
5
110
330
1F
100
AcDbEntity
8
S-DETL-REBR
370
50
100
AcDbPolyline
90
2
70
1
43
0
10
103.625
20
-14.6875
42
1
10
103
20
-14.6875
42
1
0
LWPOLYLINE
5
111
330
1F
100
AcDbEntity
8
S-DETL-REBR
370
50
100
AcDbPolyline
90
2
70
1
43
0
10
109
20
-14.6875
42
1
10
108.375
20
-14.6875
42
1
0
LWPOLYLINE
5
112
330
1F
100
AcDbEntity
8
S-DETL-REBR
370
50
100
AcDbPolyline
90
2
70
1
43
0
10
108.5
20
-2
42
1
10
108
20
-2
42
1
0
LWPOLYLINE
5
113
330
1F
100
AcDbEntity
8
S-DETL-REBR
370
50
100
AcDbPolyline
90
2
70
1
43
0
10
124.25
20
-2
42
1
10
123.75
20
-2
42
1
0
LWPOLYLINE
5
114
330
1F
100
AcDbEntity
8
S-DETL-REBR
370
50
100
AcDbPolyline
90
2
70
1
43
0
10
140
20
-2
42
1
10
139.5
20
-2
42
1
0
LWPOLYLINE
5
115
330
1F
100
AcDbEntity
8
S-DETL-CUT
370
50
100
AcDbPolyline
90
3
70
0
43
0
10
156.375
20
0
10
156.5
20
-1
10
156.625
20
0
0
LWPOLYLINE
5
116
330
1F
100
AcDbEntity
8
S-DETL-CUT
370
50
100
AcDbPolyline
90
2
70
0
43
0
10
100
20
-0.5
42
-0.414214
10
100.5
20
0
0
TEXT
5
117
330
1F
100
AcDbEntity
8
S-ANNO-NOTE
370
18
100
AcDbText
10
52.142857
20
-1.55
30
0
40
1.5
1
4" CONC. SLAB W/ #4 @ 16"
7
KERF
100
AcDbText
0
TEXT
5
118
330
1F
100
AcDbEntity
8
S-ANNO-NOTE
370
18
100
AcDbText
10
52.142857
20
-3.95
30
0
40
1.5
1
O.C. EA. WAY
7
KERF
100
AcDbText
0
LWPOLYLINE
5
119
330
1F
100
AcDbEntity
8
S-ANNO-NOTE
370
18
100
AcDbPolyline
90
3
70
0
43
0
10
86.64
20
-2
10
88.64
20
-2
10
122.5
20
-2
0
HATCH
5
11A
330
1F
100
AcDbEntity
8
S-ANNO-NOTE
370
50
100
AcDbHatch
10
0
20
0
30
0
210
0
220
0
230
1
2
SOLID
70
1
71
0
91
1
92
3
72
0
73
1
93
3
10
124
20
-2
10
122.5
20
-1.5
10
122.5
20
-2.5
97
0
75
0
76
1
98
0
0
TEXT
5
11B
330
1F
100
AcDbEntity
8
S-ANNO-NOTE
370
18
100
AcDbText
10
53.214286
20
-9.380379
30
0
40
1.5
1
4" COMPACTED GRAVEL BASE
7
KERF
100
AcDbText
0
LWPOLYLINE
5
11C
330
1F
100
AcDbEntity
8
S-ANNO-NOTE
370
18
100
AcDbPolyline
90
3
70
0
43
0
10
86.64
20
-8.630379
10
88.64
20
-8.630379
10
122.698048
20
-8.630379
0
HATCH
5
11D
330
1F
100
AcDbEntity
8
S-ANNO-NOTE
370
50
100
AcDbHatch
10
0
20
0
30
0
210
0
220
0
230
1
2
SOLID
70
1
71
0
91
1
92
3
72
0
73
1
93
3
10
124.198048
20
-8.630379
10
122.698048
20
-8.130379
10
122.698048
20
-9.130379
97
0
75
0
76
1
98
0
0
TEXT
5
11E
330
1F
100
AcDbEntity
8
S-ANNO-NOTE
370
18
100
AcDbText
10
172
20
-4.783333
30
0
40
1.5
1
1/2" EXPANSION JOINT FILLER
7
KERF
100
AcDbText
0
TEXT
5
11F
330
1F
100
AcDbEntity
8
S-ANNO-NOTE
370
18
100
AcDbText
10
172
20
-7.183333
30
0
40
1.5
1
W/ SEALANT CAP
7
KERF
100
AcDbText
0
LWPOLYLINE
5
120
330
1F
100
AcDbEntity
8
S-ANNO-NOTE
370
18
100
AcDbPolyline
90
3
70
0
43
0
10
171.36
20
-5.233333
10
169.36
20
-5.233333
10
149.735242
20
-2.459899
0
HATCH
5
121
330
1F
100
AcDbEntity
8
S-ANNO-NOTE
370
50
100
AcDbHatch
10
0
20
0
30
0
210
0
220
0
230
1
2
SOLID
70
1
71
0
91
1
92
3
72
0
73
1
93
3
10
148.25
20
-2.25
10
149.665275
20
-2.95498
10
149.805208
20
-1.964819
97
0
75
0
76
1
98
0
0
TEXT
5
122
330
1F
100
AcDbEntity
8
S-ANNO-NOTE
370
18
100
AcDbText
10
172
20
0.116667
30
0
40
1.5
1
SAW-CUT CONTROL JOINT, 1/4
7
KERF
100
AcDbText
0
TEXT
5
123
330
1F
100
AcDbEntity
8
S-ANNO-NOTE
370
18
100
AcDbText
10
172
20
-2.283333
30
0
40
1.5
1
SLAB DEPTH
7
KERF
100
AcDbText
0
LWPOLYLINE
5
124
330
1F
100
AcDbEntity
8
S-ANNO-NOTE
370
18
100
AcDbPolyline
90
3
70
0
43
0
10
171.36
20
-0.333333
10
169.36
20
-0.333333
10
158
20
-0.333333
0
HATCH
5
125
330
1F
100
AcDbEntity
8
S-ANNO-NOTE
370
50
100
AcDbHatch
10
0
20
0
30
0
210
0
220
0
230
1
2
SOLID
70
1
71
0
91
1
92
3
72
0
73
1
93
3
10
156.5
20
-0.333333
10
158
20
-0.833333
10
158
20
0.166667
97
0
75
0
76
1
98
0
0
TEXT
5
126
330
1F
100
AcDbEntity
8
S-ANNO-NOTE
370
18
100
AcDbText
10
53.142857
20
-15.4375
30
0
40
1.5
1
(2) #5 CONT. BOTT., 3" CLR.
7
KERF
100
AcDbText
0
LWPOLYLINE
5
127
330
1F
100
AcDbEntity
8
S-ANNO-NOTE
370
18
100
AcDbPolyline
90
3
70
0
43
0
10
86.64
20
-14.6875
10
88.64
20
-14.6875
10
107.1875
20
-14.6875
0
HATCH
5
128
330
1F
100
AcDbEntity
8
S-ANNO-NOTE
370
50
100
AcDbHatch
10
0
20
0
30
0
210
0
220
0
230
1
2
SOLID
70
1
71
0
91
1
92
3
72
0
73
1
93
3
10
108.6875
20
-14.6875
10
107.1875
20
-14.1875
10
107.1875
20
-15.1875
97
0
75
0
76
1
98
0
0
LWPOLYLINE
5
129
330
1F
100
AcDbEntity
8
S-ANNO-TTLB
370
50
100
AcDbPolyline
90
2
70
1
43
0
10
92
20
-35.4
42
1
10
102
20
-35.4
42
1
0
LWPOLYLINE
5
12A
330
1F
100
AcDbEntity
8
S-ANNO-NOTE
370
18
100
AcDbPolyline
90
2
70
0
43
0
10
92
20
-35.4
10
102
20
-35.4
0
TEXT
5
12B
330
1F
100
AcDbEntity
8
S-ANNO-TTLB
370
50
100
AcDbText
10
97
20
-32.9
30
0
40
2.5
1
2
7
KERF
72
1
11
97
21
-32.9
31
0
100
AcDbText
73
2
0
TEXT
5
12C
330
1F
100
AcDbEntity
8
S-ANNO-TTLB
370
18
100
AcDbText
10
97
20
-37.9
30
0
40
1.125
1
SD1
7
KERF
72
1
11
97
21
-37.9
31
0
100
AcDbText
73
2
0
TEXT
5
12D
330
1F
100
AcDbEntity
8
S-ANNO-TTLB
370
50
100
AcDbText
10
104.4
20
-35.08
30
0
40
2.5
1
TURNDOWN SLAB EDGE AT EXPANSION JOINT
7
KERF
100
AcDbText
0
LWPOLYLINE
5
12E
330
1F
100
AcDbEntity
8
S-ANNO-TTLB
370
50
100
AcDbPolyline
90
2
70
0
43
0
10
104.4
20
-36.2
10
187.257143
20
-36.2
0
TEXT
5
12F
330
1F
100
AcDbEntity
8
S-ANNO-TTLB
370
18
100
AcDbText
10
104.4
20
-38.66
30
0
40
1.5
1
SCALE: 3/4" = 1'-0"
7
KERF
100
AcDbText
0
ENDSEC
0
SECTION
2
OBJECTS
0
DICTIONARY
5
C
330
0
100
AcDbDictionary
281
1
3
ACAD_GROUP
350
D
0
DICTIONARY
5
D
330
C
100
AcDbDictionary
281
1
0
ENDSEC
0
EOF
