0
SECTION
2
HEADER
9
$ACADVER
1
AC1015
9
$HANDSEED
5
12D
9
$INSUNITS
70
1
9
$MEASUREMENT
70
0
9
$LTSCALE
40
1
9
$EXTMIN
10
-2
20
25.835
30
0
9
$EXTMAX
10
27.5
20
52.5
30
0
0
ENDSEC
0
SECTION
2
CLASSES
0
ENDSEC
0
SECTION
2
TABLES
0
TABLE
2
VPORT
5
8
330
0
100
AcDbSymbolTable
70
1
0
VPORT
5
30
330
8
100
AcDbSymbolTableRecord
100
AcDbViewportTableRecord
2
*ACTIVE
70
0
10
0
20
0
11
1
21
1
12
12.75
22
39.1675
13
0
23
0
14
10
24
10
15
10
25
10
16
0
26
0
36
1
17
0
27
0
37
0
40
29.3315
41
1.106319
42
50
43
0
44
0
50
0
51
0
71
0
72
100
73
1
74
3
75
0
76
0
77
0
78
0
0
ENDTAB
0
TABLE
2
LTYPE
5
5
330
0
100
AcDbSymbolTable
70
4
0
LTYPE
5
14
330
5
100
AcDbSymbolTableRecord
100
AcDbLinetypeTableRecord
2
BYBLOCK
70
0
3

72
65
73
0
40
0
0
LTYPE
5
15
330
5
100
AcDbSymbolTableRecord
100
AcDbLinetypeTableRecord
2
BYLAYER
70
0
3

72
65
73
0
40
0
0
LTYPE
5
16
330
5
100
AcDbSymbolTableRecord
100
AcDbLinetypeTableRecord
2
CONTINUOUS
70
0
3
Solid line
72
65
73
0
40
0
0
LTYPE
5
40
330
5
100
AcDbSymbolTableRecord
100
AcDbLinetypeTableRecord
2
DASHED
70
0
3
DASHED
72
65
73
2
40
0.472441
49
0.314961
74
0
49
-0.15748
74
0
0
ENDTAB
0
TABLE
2
LAYER
5
2
330
0
100
AcDbSymbolTable
70
9
0
LAYER
5
10
330
2
100
AcDbSymbolTableRecord
100
AcDbLayerTableRecord
2
0
70
0
62
7
6
CONTINUOUS
370
-3
0
LAYER
5
50
330
2
100
AcDbSymbolTableRecord
100
AcDbLayerTableRecord
2
S-DETL-PATT
70
0
62
7
6
CONTINUOUS
370
9
0
LAYER
5
51
330
2
100
AcDbSymbolTableRecord
100
AcDbLayerTableRecord
2
S-DETL-BYND
70
0
62
7
6
CONTINUOUS
370
25
0
LAYER
5
52
330
2
100
AcDbSymbolTableRecord
100
AcDbLayerTableRecord
2
S-DETL-CUT
70
0
62
7
6
CONTINUOUS
370
50
0
LAYER
5
53
330
2
100
AcDbSymbolTableRecord
100
AcDbLayerTableRecord
2
S-DETL-STL
70
0
62
7
6
CONTINUOUS
370
35
0
LAYER
5
54
330
2
100
AcDbSymbolTableRecord
100
AcDbLayerTableRecord
2
S-DETL-HIDN
70
0
62
7
6
DASHED
370
18
0
LAYER
5
55
330
2
100
AcDbSymbolTableRecord
100
AcDbLayerTableRecord
2
S-DETL-BRKL
70
0
62
7
6
CONTINUOUS
370
25
0
LAYER
5
56
330
2
100
AcDbSymbolTableRecord
100
AcDbLayerTableRecord
2
S-ANNO-NOTE
70
0
62
7
6
CONTINUOUS
370
18
0
LAYER
5
57
330
2
100
AcDbSymbolTableRecord
100
AcDbLayerTableRecord
2
S-ANNO-TTLB
70
0
62
7
6
CONTINUOUS
370
50
0
ENDTAB
0
TABLE
2
STYLE
5
3
330
0
100
AcDbSymbolTable
70
2
0
STYLE
5
11
330
3
100
AcDbSymbolTableRecord
100
AcDbTextStyleTableRecord
2
STANDARD
70
0
40
0
41
1
50
0
71
0
42
0.2
3
txt
4

0
STYLE
5
12
330
3
100
AcDbSymbolTableRecord
100
AcDbTextStyleTableRecord
2
KERF
70
0
40
0
41
1
50
0
71
0
42
0.2
3
romans.shx
4

0
ENDTAB
0
TABLE
2
VIEW
5
6
330
0
100
AcDbSymbolTable
70
0
0
ENDTAB
0
TABLE
2
UCS
5
7
330
0
100
AcDbSymbolTable
70
0
0
ENDTAB
0
TABLE
2
APPID
5
9
330
0
100
AcDbSymbolTable
70
1
0
APPID
5
13
330
9
100
AcDbSymbolTableRecord
100
AcDbRegAppTableRecord
2
ACAD
70
0
0
ENDTAB
0
TABLE
2
DIMSTYLE
5
A
330
0
100
AcDbSymbolTable
70
1
100
AcDbDimStyleTable
71
1
0
DIMSTYLE
105
17
330
A
100
AcDbSymbolTableRecord
100
AcDbDimStyleTableRecord
2
STANDARD
70
0
340
17
0
ENDTAB
0
TABLE
2
BLOCK_RECORD
5
1
330
0
100
AcDbSymbolTable
70
2
0
BLOCK_RECORD
5
1F
330
1
100
AcDbSymbolTableRecord
100
AcDbBlockTableRecord
2
*Model_Space
70
0
280
1
281
0
0
BLOCK_RECORD
5
1B
330
1
100
AcDbSymbolTableRecord
100
AcDbBlockTableRecord
2
*Paper_Space
70
0
280
1
281
0
0
ENDTAB
0
ENDSEC
0
SECTION
2
BLOCKS
0
BLOCK
5
20
330
1F
100
AcDbEntity
8
0
100
AcDbBlockBegin
2
*Model_Space
70
0
10
0
20
0
30
0
3
*Model_Space
1

0
ENDBLK
5
21
330
1F
100
AcDbEntity
8
0
100
AcDbBlockEnd
0
BLOCK
5
22
330
1B
100
AcDbEntity
67
1
8
0
100
AcDbBlockBegin
2
*Paper_Space
70
0
10
0
20
0
30
0
3
*Paper_Space
1

0
ENDBLK
5
23
330
1B
100
AcDbEntity
67
1
8
0
100
AcDbBlockEnd
0
ENDSEC
0
SECTION
2
ENTITIES
0
HATCH
5
100
330
1F
100
AcDbEntity
8
S-DETL-PATT
370
9
100
AcDbHatch
10
0
20
0
30
0
210
0
220
0
230
1
2
KERF-CONC
70
0
71
0
91
1
92
3
72
0
73
1
93
22
10
16
20
30
10
16
20
42
10
12.25
20
42
10
12.25
20
40.4
10
12.2875
20
40.4
10
12.2875
20
38.175
10
12.25
20
38.1375
10
12.25
20
38
10
11.75
20
38
10
11.75
20
38.1375
10
11.7125
20
38.175
10
11.7125
20
40.4
10
11.75
20
40.4
10
11.75
20
42
10
8.82145
20
42
10
8.82145
20
41.99105
10
8
20
41.99105
10
8
20
30
10
10.25
20
30
10
10.25
20
40
10
10.75
20
40
10
10.75
20
30
97
0
75
0
76
1
52
0
41
1
77
0
78
5
53
0
43
0
44
0
45
0.3748
46
0.3244
79
2
49
0
49
-0.75
53
0
43
0.188
44
0.16
45
0.3748
46
0.3244
79
2
49
0
49
-0.75
53
60
43
0.44
44
0.08
45
1
46
0.866
79
2
49
0.14
49
-1.86
53
180
43
0.58
44
0.2
45
1
46
0.866
79
2
49
0.14
49
-1.86
53
300
43
0.44
44
0.2
45
1
46
0.866
79
2
49
0.14
49
-1.86
98
0
0
HATCH
5
101
330
1F
100
AcDbEntity
8
S-DETL-PATT
370
9
100
AcDbHatch
10
0
20
0
30
0
210
0
220
0
230
1
2
KERF-GRAIN
70
0
71
0
91
1
92
3
72
0
73
1
93
20
10
9.25
20
43.5
10
11.75
20
43.5
10
11.75
20
43.8125
10
11.4375
20
43.8125
10
11.4375
20
43.9375
10
11.625
20
43.9375
10
11.625
20
44.375
10
11.75
20
44.375
10
11.75
20
44.5
10
12.25
20
44.5
10
12.25
20
44.375
10
12.375
20
44.375
10
12.375
20
43.9375
10
12.5625
20
43.9375
10
12.5625
20
43.8125
10
12.25
20
43.8125
10
12.25
20
43.5
10
14.75
20
43.5
10
14.75
20
52
10
9.25
20
52
97
0
75
0
76
1
52
90
41
1
77
0
78
1
53
0
43
0
44
0
45
1.64
46
0.34
79
4
49
6.4
49
-1.6
49
3.2
49
-2
98
0
0
HATCH
5
102
330
1F
100
AcDbEntity
8
S-DETL-STL
370
50
100
AcDbHatch
10
0
20
0
30
0
210
0
220
0
230
1
2
SOLID
70
1
71
0
91
1
92
3
72
0
73
1
93
4
10
10.25
20
40
10
10.25
20
30
10
10.75
20
30
10
10.75
20
40
97
0
75
0
76
1
98
0
0
HATCH
5
103
330
1F
100
AcDbEntity
8
S-DETL-STL
370
50
100
AcDbHatch
10
0
20
0
30
0
210
0
220
0
230
1
2
SOLID
70
1
71
0
91
1
92
3
72
0
73
1
93
4
10
12.25
20
44.5
10
12.25
20
38
10
11.75
20
38
10
11.75
20
44.5
97
0
75
0
76
1
98
0
0
HATCH
5
104
330
1F
100
AcDbEntity
8
S-DETL-STL
370
50
100
AcDbHatch
10
0
20
0
30
0
210
0
220
0
230
1
2
SOLID
70
1
71
0
91
1
92
3
72
0
73
1
93
6
10
11.8875
20
38
10
12.1125
20
38
10
12.2875
20
38.175
10
12.2875
20
40.4
10
11.7125
20
40.4
10
11.7125
20
38.175
97
0
75
0
76
1
98
0
0
HATCH
5
105
330
1F
100
AcDbEntity
8
S-DETL-STL
370
50
100
AcDbHatch
10
0
20
0
30
0
210
0
220
0
230
1
2
SOLID
70
1
71
0
91
1
92
3
72
0
73
1
93
4
10
11.4375
20
43.8125
10
12.5625
20
43.8125
10
12.5625
20
43.9375
10
11.4375
20
43.9375
97
0
75
0
76
1
98
0
0
HATCH
5
106
330
1F
100
AcDbEntity
8
S-DETL-STL
370
50
100
AcDbHatch
10
0
20
0
30
0
210
0
220
0
230
1
2
SOLID
70
1
71
0
91
1
92
3
72
0
73
1
93
4
10
11.625
20
43.9375
10
12.375
20
43.9375
10
12.375
20
44.375
10
11.625
20
44.375
97
0
75
0
76
1
98
0
0
HATCH
5
107
330
1F
100
AcDbEntity
8
S-DETL-STL
370
50
100
AcDbHatch
10
0
20
0
30
0
210
0
220
0
230
1
2
SOLID
70
1
71
0
91
1
92
3
72
0
73
1
93
8
10
8.82145
20
45.5
10
8.82145
20
41.99105
10
7.94645
20
41.99105
10
7.94645
20
41.5
10
7.92855
20
41.5
10
7.92855
20
42.00895
10
8.80355
20
42.00895
10
8.80355
20
45.5
97
0
75
0
76
1
98
0
0
LWPOLYLINE
5
108
330
1F
100
AcDbEntity
8
S-DETL-BYND
370
25
100
AcDbPolyline
90
2
70
0
43
0
10
9.25
20
42
10
14.75
20
43.5
0
LWPOLYLINE
5
109
330
1F
100
AcDbEntity
8
S-DETL-BYND
370
25
100
AcDbPolyline
90
2
70
0
43
0
10
14.75
20
42
10
9.25
20
43.5
0
LWPOLYLINE
5
10A
330
1F
100
AcDbEntity
8
S-DETL-BYND
370
25
100
AcDbPolyline
90
2
70
0
43
0
10
12.1125
20
38
10
11.8875
20
38
0
LWPOLYLINE
5
10B
330
1F
100
AcDbEntity
8
S-DETL-BYND
370
25
100
AcDbPolyline
90
2
70
0
43
0
10
12.375
20
43.9375
10
11.625
20
43.9375
0
LWPOLYLINE
5
10C
330
1F
100
AcDbEntity
8
S-DETL-CUT
370
50
100
AcDbPolyline
90
4
70
0
43
0
10
16
20
30
10
16
20
42
10
8
20
42
10
8
20
30
0
LWPOLYLINE
5
10D
330
1F
100
AcDbEntity
8
S-DETL-CUT
370
50
100
AcDbPolyline
90
4
70
0
43
0
10
14.75
20
42
10
14.75
20
43.5
10
9.25
20
43.5
10
9.25
20
42
0
LWPOLYLINE
5
10E
330
1F
100
AcDbEntity
8
S-DETL-CUT
370
50
100
AcDbPolyline
90
2
70
0
43
0
10
9.25
20
52
10
9.25
20
43.5
0
LWPOLYLINE
5
10F
330
1F
100
AcDbEntity
8
S-DETL-CUT
370
50
100
AcDbPolyline
90
2
70
0
43
0
10
14.75
20
43.5
10
14.75
20
52
0
LWPOLYLINE
5
110
330
1F
100
AcDbEntity
8
S-DETL-CUT
370
50
100
AcDbPolyline
90
2
70
0
43
0
10
8.8125
20
52
10
8.8125
20
42
0
LWPOLYLINE
5
111
330
1F
100
AcDbEntity
8
S-DETL-STL
370
35
100
AcDbPolyline
90
4
70
0
43
0
10
10.25
20
30
10
10.25
20
40
10
10.75
20
40
10
10.75
20
30
0
LWPOLYLINE
5
112
330
1F
100
AcDbEntity
8
S-DETL-STL
370
35
100
AcDbPolyline
90
10
70
1
43
0
10
11.8875
20
38
10
11.75
20
38
10
11.75
20
44.5
10
12.25
20
44.5
10
12.25
20
38
10
12.1125
20
38
10
12.2875
20
38.175
10
12.2875
20
40.4
10
11.7125
20
40.4
10
11.7125
20
38.175
0
LWPOLYLINE
5
113
330
1F
100
AcDbEntity
8
S-DETL-STL
370
35
100
AcDbPolyline
90
8
70
1
43
0
10
11.625
20
43.9375
10
11.4375
20
43.9375
10
11.4375
20
43.8125
10
12.5625
20
43.8125
10
12.5625
20
43.9375
10
12.375
20
43.9375
10
12.375
20
44.375
10
11.625
20
44.375
0
LWPOLYLINE
5
114
330
1F
100
AcDbEntity
8
S-DETL-STL
370
35
100
AcDbPolyline
90
8
70
1
43
0
10
8.82145
20
45.5
10
8.82145
20
41.99105
10
7.94645
20
41.99105
10
7.94645
20
41.5
10
7.92855
20
41.5
10
7.92855
20
42.00895
10
8.80355
20
42.00895
10
8.80355
20
45.5
0
LWPOLYLINE
5
115
330
1F
100
AcDbEntity
8
S-DETL-HIDN
6
DASHED
370
18
100
AcDbPolyline
90
4
70
0
43
0
10
12.8954
20
30
10
12.8954
20
41.125
10
13
20
41.125
10
13
20
30
0
LWPOLYLINE
5
116
330
1F
100
AcDbEntity
8
S-DETL-BRKL
370
25
100
AcDbPolyline
90
6
70
0
43
0
10
7.75
20
30
10
11
20
30
10
11.6
20
30.5
10
12.4
20
29.5
10
13
20
30
10
16.25
20
30
0
LWPOLYLINE
5
117
330
1F
100
AcDbEntity
8
S-DETL-BRKL
370
25
100
AcDbPolyline
90
6
70
0
43
0
10
8.5625
20
52
10
10.78125
20
52
10
11.38125
20
52.5
10
12.18125
20
51.5
10
12.78125
20
52
10
15
20
52
0
TEXT
5
118
330
1F
100
AcDbEntity
8
S-ANNO-NOTE
370
18
100
AcDbText
10
27.5
20
41.3625
30
0
40
0.375
1
1/2" DIA. WEDGE ANCHOR, 4"
7
KERF
100
AcDbText
0
TEXT
5
119
330
1F
100
AcDbEntity
8
S-ANNO-NOTE
370
18
100
AcDbText
10
27.5
20
40.7625
30
0
40
0.375
1
EMBED.
7
KERF
100
AcDbText
0
LWPOLYLINE
5
11A
330
1F
100
AcDbEntity
8
S-ANNO-NOTE
370
18
100
AcDbPolyline
90
3
70
0
43
0
10
27.34
20
41.25
10
26.84
20
41.25
10
12.375
20
41.25
0
HATCH
5
11B
330
1F
100
AcDbEntity
8
S-ANNO-NOTE
370
50
100
AcDbHatch
10
0
20
0
30
0
210
0
220
0
230
1
2
SOLID
70
1
71
0
91
1
92
3
72
0
73
1
93
3
10
12
20
41.25
10
12.375
20
41.125
10
12.375
20
41.375
97
0
75
0
76
1
98
0
0
TEXT
5
11C
330
1F
100
AcDbEntity
8
S-ANNO-NOTE
370
18
100
AcDbText
10
27.5
20
43.343269
30
0
40
0.375
1
WEEP SCREED, 3 1/2" NAILING
7
KERF
100
AcDbText
0
TEXT
5
11D
330
1F
100
AcDbEntity
8
S-ANNO-NOTE
370
18
100
AcDbText
10
27.5
20
42.743269
30
0
40
0.375
1
FLANGE
7
KERF
100
AcDbText
0
LWPOLYLINE
5
11E
330
1F
100
AcDbEntity
8
S-ANNO-NOTE
370
18
100
AcDbPolyline
90
3
70
0
43
0
10
27.34
20
43.230769
10
26.84
20
43.230769
10
9.1875
20
43.230769
0
HATCH
5
11F
330
1F
100
AcDbEntity
8
S-ANNO-NOTE
370
50
100
AcDbHatch
10
0
20
0
30
0
210
0
220
0
230
1
2
SOLID
70
1
71
0
91
1
92
3
72
0
73
1
93
3
10
8.8125
20
43.230769
10
9.1875
20
43.105769
10
9.1875
20
43.355769
97
0
75
0
76
1
98
0
0
TEXT
5
120
330
1F
100
AcDbEntity
8
S-ANNO-NOTE
370
18
100
AcDbText
10
27.5
20
42.118269
30
0
40
0.375
1
2X6 P.T. SILL PLATE
7
KERF
100
AcDbText
0
LWPOLYLINE
5
121
330
1F
100
AcDbEntity
8
S-ANNO-NOTE
370
18
100
AcDbPolyline
90
3
70
0
43
0
10
27.34
20
42.305769
10
26.84
20
42.305769
10
12.374832
20
42.73878
0
HATCH
5
122
330
1F
100
AcDbEntity
8
S-ANNO-NOTE
370
50
100
AcDbHatch
10
0
20
0
30
0
210
0
220
0
230
1
2
SOLID
70
1
71
0
91
1
92
3
72
0
73
1
93
3
10
12
20
42.75
10
12.371092
20
42.613835
10
12.378572
20
42.863724
97
0
75
0
76
1
98
0
0
TEXT
5
123
330
1F
100
AcDbEntity
8
S-ANNO-NOTE
370
18
100
AcDbText
10
27.5
20
46.8125
30
0
40
0.375
1
7/16" OSB SHEATHING
7
KERF
100
AcDbText
0
LWPOLYLINE
5
124
330
1F
100
AcDbEntity
8
S-ANNO-NOTE
370
18
100
AcDbPolyline
90
3
70
0
43
0
10
27.34
20
47
10
26.84
20
47
10
9.40625
20
47
0
HATCH
5
125
330
1F
100
AcDbEntity
8
S-ANNO-NOTE
370
50
100
AcDbHatch
10
0
20
0
30
0
210
0
220
0
230
1
2
SOLID
70
1
71
0
91
1
92
3
72
0
73
1
93
3
10
9.03125
20
47
10
9.40625
20
46.875
10
9.40625
20
47.125
97
0
75
0
76
1
98
0
0
LWPOLYLINE
5
126
330
1F
100
AcDbEntity
8
S-ANNO-TTLB
370
50
100
AcDbPolyline
90
2
70
1
43
0
10
-2
20
26.65
42
1
10
0.5
20
26.65
42
1
0
LWPOLYLINE
5
127
330
1F
100
AcDbEntity
8
S-ANNO-NOTE
370
18
100
AcDbPolyline
90
2
70
0
43
0
10
-2
20
26.65
10
0.5
20
26.65
0
TEXT
5
128
330
1F
100
AcDbEntity
8
S-ANNO-TTLB
370
50
100
AcDbText
10
-0.75
20
27.275
30
0
40
0.625
1
3
7
KERF
72
1
11
-0.75
21
27.275
31
0
100
AcDbText
73
2
0
TEXT
5
129
330
1F
100
AcDbEntity
8
S-ANNO-TTLB
370
18
100
AcDbText
10
-0.75
20
26.025
30
0
40
0.28125
1
SD1
7
KERF
72
1
11
-0.75
21
26.025
31
0
100
AcDbText
73
2
0
TEXT
5
12A
330
1F
100
AcDbEntity
8
S-ANNO-TTLB
370
50
100
AcDbText
10
1.1
20
26.73
30
0
40
0.625
1
SILL ANCHORAGE AND WEEP SCREED
7
KERF
100
AcDbText
0
LWPOLYLINE
5
12B
330
1F
100
AcDbEntity
8
S-ANNO-TTLB
370
50
100
AcDbPolyline
90
2
70
0
43
0
10
1.1
20
26.45
10
18.213095
20
26.45
0
TEXT
5
12C
330
1F
100
AcDbEntity
8
S-ANNO-TTLB
370
18
100
AcDbText
10
1.1
20
25.835
30
0
40
0.375
1
SCALE: 3" = 1'-0"
7
KERF
100
AcDbText
0
ENDSEC
0
SECTION
2
OBJECTS
0
DICTIONARY
5
C
330
0
100
AcDbDictionary
281
1
3
ACAD_GROUP
350
D
0
DICTIONARY
5
D
330
C
100
AcDbDictionary
281
1
0
ENDSEC
0
EOF
