0
SECTION
2
HEADER
9
$ACADVER
1
AC1015
9
$HANDSEED
5
11D
9
$INSUNITS
70
1
9
$MEASUREMENT
70
0
9
$LTSCALE
40
1
9
$EXTMIN
10
141.5
20
-9.665
30
0
9
$EXTMAX
10
161.5
20
0.25
30
0
0
ENDSEC
0
SECTION
2
CLASSES
0
ENDSEC
0
SECTION
2
TABLES
0
TABLE
2
VPORT
5
8
330
0
100
AcDbSymbolTable
70
1
0
VPORT
5
30
330
8
100
AcDbSymbolTableRecord
100
AcDbViewportTableRecord
2
*ACTIVE
70
0
10
0
20
0
11
1
21
1
12
151.5
22
-4.7075
13
0
23
0
14
10
24
10
15
10
25
10
16
0
26
0
36
1
17
0
27
0
37
0
40
10.9065
41
2.017146
42
50
43
0
44
0
50
0
51
0
71
0
72
100
73
1
74
3
75
0
76
0
77
0
78
0
0
ENDTAB
0
TABLE
2
LTYPE
5
5
330
0
100
AcDbSymbolTable
70
4
0
LTYPE
5
14
330
5
100
AcDbSymbolTableRecord
100
AcDbLinetypeTableRecord
2
BYBLOCK
70
0
3

72
65
73
0
40
0
0
LTYPE
5
15
330
5
100
AcDbSymbolTableRecord
100
AcDbLinetypeTableRecord
2
BYLAYER
70
0
3

72
65
73
0
40
0
0
LTYPE
5
16
330
5
100
AcDbSymbolTableRecord
100
AcDbLinetypeTableRecord
2
CONTINUOUS
70
0
3
Solid line
72
65
73
0
40
0
0
LTYPE
5
40
330
5
100
AcDbSymbolTableRecord
100
AcDbLinetypeTableRecord
2
DASHED
70
0
3
DASHED
72
65
73
2
40
0.472441
49
0.314961
74
0
49
-0.15748
74
0
0
ENDTAB
0
TABLE
2
LAYER
5
2
330
0
100
AcDbSymbolTable
70
7
0
LAYER
5
10
330
2
100
AcDbSymbolTableRecord
100
AcDbLayerTableRecord
2
0
70
0
62
7
6
CONTINUOUS
370
-3
0
LAYER
5
50
330
2
100
AcDbSymbolTableRecord
100
AcDbLayerTableRecord
2
S-DETL-PATT
70
0
62
7
6
CONTINUOUS
370
9
0
LAYER
5
51
330
2
100
AcDbSymbolTableRecord
100
AcDbLayerTableRecord
2
S-DETL-BYND
70
0
62
7
6
CONTINUOUS
370
25
0
LAYER
5
52
330
2
100
AcDbSymbolTableRecord
100
AcDbLayerTableRecord
2
S-DETL-CUT
70
0
62
7
6
CONTINUOUS
370
50
0
LAYER
5
53
330
2
100
AcDbSymbolTableRecord
100
AcDbLayerTableRecord
2
S-DETL-BRKL
70
0
62
7
6
CONTINUOUS
370
25
0
LAYER
5
54
330
2
100
AcDbSymbolTableRecord
100
AcDbLayerTableRecord
2
S-ANNO-NOTE
70
0
62
7
6
CONTINUOUS
370
18
0
LAYER
5
55
330
2
100
AcDbSymbolTableRecord
100
AcDbLayerTableRecord
2
S-ANNO-TTLB
70
0
62
7
6
CONTINUOUS
370
50
0
ENDTAB
0
TABLE
2
STYLE
5
3
330
0
100
AcDbSymbolTable
70
2
0
STYLE
5
11
330
3
100
AcDbSymbolTableRecord
100
AcDbTextStyleTableRecord
2
STANDARD
70
0
40
0
41
1
50
0
71
0
42
0.2
3
txt
4

0
STYLE
5
12
330
3
100
AcDbSymbolTableRecord
100
AcDbTextStyleTableRecord
2
KERF
70
0
40
0
41
1
50
0
71
0
42
0.2
3
romans.shx
4

0
ENDTAB
0
TABLE
2
VIEW
5
6
330
0
100
AcDbSymbolTable
70
0
0
ENDTAB
0
TABLE
2
UCS
5
7
330
0
100
AcDbSymbolTable
70
0
0
ENDTAB
0
TABLE
2
APPID
5
9
330
0
100
AcDbSymbolTable
70
1
0
APPID
5
13
330
9
100
AcDbSymbolTableRecord
100
AcDbRegAppTableRecord
2
ACAD
70
0
0
ENDTAB
0
TABLE
2
DIMSTYLE
5
A
330
0
100
AcDbSymbolTable
70
1
100
AcDbDimStyleTable
71
1
0
DIMSTYLE
105
17
330
A
100
AcDbSymbolTableRecord
100
AcDbDimStyleTableRecord
2
STANDARD
70
0
340
17
0
ENDTAB
0
TABLE
2
BLOCK_RECORD
5
1
330
0
100
AcDbSymbolTable
70
2
0
BLOCK_RECORD
5
1F
330
1
100
AcDbSymbolTableRecord
100
AcDbBlockTableRecord
2
*Model_Space
70
0
280
1
281
0
0
BLOCK_RECORD
5
1B
330
1
100
AcDbSymbolTableRecord
100
AcDbBlockTableRecord
2
*Paper_Space
70
0
280
1
281
0
0
ENDTAB
0
ENDSEC
0
SECTION
2
BLOCKS
0
BLOCK
5
20
330
1F
100
AcDbEntity
8
0
100
AcDbBlockBegin
2
*Model_Space
70
0
10
0
20
0
30
0
3
*Model_Space
1

0
ENDBLK
5
21
330
1F
100
AcDbEntity
8
0
100
AcDbBlockEnd
0
BLOCK
5
22
330
1B
100
AcDbEntity
67
1
8
0
100
AcDbBlockBegin
2
*Paper_Space
70
0
10
0
20
0
30
0
3
*Paper_Space
1

0
ENDBLK
5
23
330
1B
100
AcDbEntity
67
1
8
0
100
AcDbBlockEnd
0
ENDSEC
0
SECTION
2
ENTITIES
0
HATCH
5
100
330
1F
100
AcDbEntity
8
S-DETL-PATT
370
9
100
AcDbHatch
10
0
20
0
30
0
210
0
220
0
230
1
2
KERF-CONC
70
0
71
0
91
1
92
3
72
0
73
1
93
4
10
142
20
-4
10
148
20
-4
10
148
20
0
10
142
20
0
97
0
75
0
76
1
52
0
41
1
77
0
78
5
53
0
43
0
44
0
45
0.3748
46
0.3244
79
2
49
0
49
-0.75
53
0
43
0.188
44
0.16
45
0.3748
46
0.3244
79
2
49
0
49
-0.75
53
60
43
0.44
44
0.08
45
1
46
0.866
79
2
49
0.14
49
-1.86
53
180
43
0.58
44
0.2
45
1
46
0.866
79
2
49
0.14
49
-1.86
53
300
43
0.44
44
0.2
45
1
46
0.866
79
2
49
0.14
49
-1.86
98
0
0
HATCH
5
101
330
1F
100
AcDbEntity
8
S-DETL-PATT
370
9
100
AcDbHatch
10
0
20
0
30
0
210
0
220
0
230
1
2
KERF-GRAVEL
70
0
71
0
91
1
92
3
72
0
73
1
93
4
10
148
20
-6
10
148
20
-4
10
142
20
-4
10
142
20
-6
97
0
75
0
76
1
52
0
41
1
77
0
78
7
53
0
43
0
44
0
45
0.5
46
0.75
79
2
49
0.18
49
-1.32
53
72
43
0.18
44
0
45
0.5
46
0.75
79
2
49
0.18
49
-1.32
53
144
43
0.236
44
0.172
45
0.5
46
0.75
79
2
49
0.18
49
-1.32
53
216
43
0.088
44
0.276
45
0.5
46
0.75
79
2
49
0.18
49
-1.32
53
288
43
-0.056
44
0.172
45
0.5
46
0.75
79
2
49
0.18
49
-1.32
53
30
43
0.76
44
0.4
45
0.5
46
0.75
79
2
49
0.12
49
-1.38
53
150
43
0.76
44
0.4
45
0.5
46
0.75
79
2
49
0.12
49
-1.38
98
0
0
HATCH
5
102
330
1F
100
AcDbEntity
8
S-DETL-PATT
370
9
100
AcDbHatch
10
0
20
0
30
0
210
0
220
0
230
1
2
KERF-FILLER
70
0
71
0
91
1
92
3
72
0
73
1
93
4
10
148
20
-4
10
148.5
20
-4
10
148.5
20
-0.5
10
148
20
-0.5
97
0
75
0
76
1
52
0
41
1
77
0
78
2
53
45
43
0
44
0
45
0
46
0.25
79
0
53
135
43
0
44
0
45
0
46
0.25
79
0
98
0
0
HATCH
5
103
330
1F
100
AcDbEntity
8
S-DETL-PATT
370
9
100
AcDbHatch
10
0
20
0
30
0
210
0
220
0
230
1
2
KERF-CONC
70
0
71
0
91
1
92
3
72
0
73
1
93
7
10
148.5
20
-4
10
160
20
-4
10
160
20
0
10
156.625
20
0
10
156.5
20
-1
10
156.375
20
0
10
148.5
20
0
97
0
75
0
76
1
52
0
41
1
77
0
78
5
53
0
43
0
44
0
45
0.3748
46
0.3244
79
2
49
0
49
-0.75
53
0
43
0.188
44
0.16
45
0.3748
46
0.3244
79
2
49
0
49
-0.75
53
60
43
0.44
44
0.08
45
1
46
0.866
79
2
49
0.14
49
-1.86
53
180
43
0.58
44
0.2
45
1
46
0.866
79
2
49
0.14
49
-1.86
53
300
43
0.44
44
0.2
45
1
46
0.866
79
2
49
0.14
49
-1.86
98
0
0
HATCH
5
104
330
1F
100
AcDbEntity
8
S-DETL-BYND
370
50
100
AcDbHatch
10
0
20
0
30
0
210
0
220
0
230
1
2
SOLID
70
1
71
0
91
1
92
3
72
0
73
1
93
4
10
148
20
-0.5
10
148.5
20
-0.5
10
148.5
20
0
10
148
20
0
97
0
75
0
76
1
98
0
0
LWPOLYLINE
5
105
330
1F
100
AcDbEntity
8
S-DETL-BYND
370
25
100
AcDbPolyline
90
2
70
0
43
0
10
142
20
-4
10
148
20
-4
0
LWPOLYLINE
5
106
330
1F
100
AcDbEntity
8
S-DETL-BYND
370
25
100
AcDbPolyline
90
2
70
0
43
0
10
148.5
20
-0.5
10
148
20
-0.5
0
LWPOLYLINE
5
107
330
1F
100
AcDbEntity
8
S-DETL-BYND
370
25
100
AcDbPolyline
90
2
70
0
43
0
10
148.5
20
0
10
148
20
0
0
LWPOLYLINE
5
108
330
1F
100
AcDbEntity
8
S-DETL-CUT
370
50
100
AcDbPolyline
90
4
70
0
43
0
10
148
20
-6
10
148
20
-4
10
148
20
0
10
142
20
0
0
LWPOLYLINE
5
109
330
1F
100
AcDbEntity
8
S-DETL-CUT
370
50
100
AcDbPolyline
90
3
70
0
43
0
10
148
20
-4
10
148.5
20
-4
10
148.5
20
-0.5
0
LWPOLYLINE
5
10A
330
1F
100
AcDbEntity
8
S-DETL-CUT
370
50
100
AcDbPolyline
90
3
70
0
43
0
10
160
20
0
10
148.5
20
0
10
148.5
20
-0.5
0
LWPOLYLINE
5
10B
330
1F
100
AcDbEntity
8
S-DETL-CUT
370
50
100
AcDbPolyline
90
2
70
0
43
0
10
148.5
20
-4
10
160
20
-4
0
LWPOLYLINE
5
10C
330
1F
100
AcDbEntity
8
S-DETL-CUT
370
50
100
AcDbPolyline
90
3
70
0
43
0
10
156.375
20
0
10
156.5
20
-1
10
156.625
20
0
0
LWPOLYLINE
5
10D
330
1F
100
AcDbEntity
8
S-DETL-BRKL
370
25
100
AcDbPolyline
90
6
70
0
43
0
10
142
20
-4.25
10
142
20
-3
10
142.5
20
-2.4
10
141.5
20
-1.6
10
142
20
-1
10
142
20
0.25
0
LWPOLYLINE
5
10E
330
1F
100
AcDbEntity
8
S-DETL-BRKL
370
25
100
AcDbPolyline
90
6
70
0
43
0
10
160
20
-4.25
10
160
20
-3
10
160.5
20
-2.4
10
159.5
20
-1.6
10
160
20
-1
10
160
20
0.25
0
TEXT
5
10F
330
1F
100
AcDbEntity
8
S-ANNO-NOTE
370
18
100
AcDbText
10
161.5
20
-2.1375
30
0
40
0.375
1
1/2" EXPANSION JOINT FILLER
7
KERF
100
AcDbText
0
TEXT
5
110
330
1F
100
AcDbEntity
8
S-ANNO-NOTE
370
18
100
AcDbText
10
161.5
20
-2.7375
30
0
40
0.375
1
W/ 1/2" SEALANT CAP
7
KERF
100
AcDbText
0
LWPOLYLINE
5
111
330
1F
100
AcDbEntity
8
S-ANNO-NOTE
370
18
100
AcDbPolyline
90
3
70
0
43
0
10
161.34
20
-2.25
10
160.84
20
-2.25
10
148.625
20
-2.25
0
HATCH
5
112
330
1F
100
AcDbEntity
8
S-ANNO-NOTE
370
50
100
AcDbHatch
10
0
20
0
30
0
210
0
220
0
230
1
2
SOLID
70
1
71
0
91
1
92
3
72
0
73
1
93
3
10
148.25
20
-2.25
10
148.625
20
-2.375
10
148.625
20
-2.125
97
0
75
0
76
1
98
0
0
TEXT
5
113
330
1F
100
AcDbEntity
8
S-ANNO-NOTE
370
18
100
AcDbText
10
161.5
20
-0.520833
30
0
40
0.375
1
SAW-CUT CONTROL JOINT
7
KERF
100
AcDbText
0
LWPOLYLINE
5
114
330
1F
100
AcDbEntity
8
S-ANNO-NOTE
370
18
100
AcDbPolyline
90
3
70
0
43
0
10
161.34
20
-0.333333
10
160.84
20
-0.333333
10
156.875
20
-0.333333
0
HATCH
5
115
330
1F
100
AcDbEntity
8
S-ANNO-NOTE
370
50
100
AcDbHatch
10
0
20
0
30
0
210
0
220
0
230
1
2
SOLID
70
1
71
0
91
1
92
3
72
0
73
1
93
3
10
156.5
20
-0.333333
10
156.875
20
-0.458333
10
156.875
20
-0.208333
97
0
75
0
76
1
98
0
0
LWPOLYLINE
5
116
330
1F
100
AcDbEntity
8
S-ANNO-TTLB
370
50
100
AcDbPolyline
90
2
70
1
43
0
10
142
20
-8.85
42
1
10
144.5
20
-8.85
42
1
0
LWPOLYLINE
5
117
330
1F
100
AcDbEntity
8
S-ANNO-NOTE
370
18
100
AcDbPolyline
90
2
70
0
43
0
10
142
20
-8.85
10
144.5
20
-8.85
0
TEXT
5
118
330
1F
100
AcDbEntity
8
S-ANNO-TTLB
370
50
100
AcDbText
10
143.25
20
-8.225
30
0
40
0.625
1
4
7
KERF
72
1
11
143.25
21
-8.225
31
0
100
AcDbText
73
2
0
TEXT
5
119
330
1F
100
AcDbEntity
8
S-ANNO-TTLB
370
18
100
AcDbText
10
143.25
20
-9.475
30
0
40
0.28125
1
SD1
7
KERF
72
1
11
143.25
21
-9.475
31
0
100
AcDbText
73
2
0
TEXT
5
11A
330
1F
100
AcDbEntity
8
S-ANNO-TTLB
370
50
100
AcDbText
10
145.1
20
-8.77
30
0
40
0.625
1
JOINTS AT SLAB EDGE
7
KERF
100
AcDbText
0
LWPOLYLINE
5
11B
330
1F
100
AcDbEntity
8
S-ANNO-TTLB
370
50
100
AcDbPolyline
90
2
70
0
43
0
10
145.1
20
-9.05
10
155.278571
20
-9.05
0
TEXT
5
11C
330
1F
100
AcDbEntity
8
S-ANNO-TTLB
370
18
100
AcDbText
10
145.1
20
-9.665
30
0
40
0.375
1
SCALE: 3" = 1'-0"
7
KERF
100
AcDbText
0
ENDSEC
0
SECTION
2
OBJECTS
0
DICTIONARY
5
C
330
0
100
AcDbDictionary
281
1
3
ACAD_GROUP
350
D
0
DICTIONARY
5
D
330
C
100
AcDbDictionary
281
1
0
ENDSEC
0
EOF
